<svg width="320" height="308" viewBox="0 0 320 308" fill="none" xmlns="http://www.w3.org/2000/svg">
<path d="M120.264 294.336L116.19 293.241L116.087 292.89C115.76 292.802 115.44 292.689 115.127 292.551C114.815 292.414 114.482 292.297 114.13 292.203L114.054 291.899C113.451 291.737 112.845 291.534 112.238 291.29C111.623 291.071 110.989 290.874 110.335 290.698L110.442 290.322L110.065 290.221L110.311 289.357L109.858 289.235L109.901 289.085L110.397 289.056L111.809 284.097L111.356 283.976L111.399 283.825L111.754 283.719C111.761 283.693 111.781 283.672 111.813 283.654C111.845 283.635 111.869 283.601 111.883 283.551L112.336 283.673L112.453 283.259L113.51 283.543L113.634 283.819C113.684 283.833 113.722 283.843 113.747 283.85C113.74 283.875 113.749 283.89 113.774 283.897L113.485 284.912L113.976 285.043L113.345 287.26L113.76 287.371L113.524 288.198L114.015 288.33L114.139 288.606C114.164 288.612 114.186 288.632 114.204 288.664L114.098 289.322L114.626 289.464L114.75 289.74C114.826 289.761 114.932 289.816 115.068 289.907C115.205 289.997 115.298 290.049 115.349 290.063L115.21 290.551L121.208 292.163L121.336 291.712L122.204 291.945L122.322 291.532L123.189 291.765L123.318 291.314L123.684 291.169C123.698 291.119 123.721 291.085 123.754 291.067C123.786 291.049 123.809 291.014 123.823 290.964L124.351 291.106L124.48 290.655L124.835 290.549C124.871 290.423 124.932 290.305 125.018 290.193C125.071 290.1 125.116 289.99 125.152 289.865L125.469 289.748C125.476 289.723 125.496 289.702 125.528 289.683C125.561 289.665 125.584 289.631 125.598 289.581L126.164 289.733L126.41 288.869L126.728 288.752C126.785 288.551 126.867 288.358 126.974 288.171C127.074 288.009 127.149 287.84 127.199 287.665L127.577 287.767L128.079 286.001L128.435 285.894C128.613 285.268 128.829 284.652 129.083 284.046C129.311 283.433 129.511 282.826 129.682 282.225L129.989 282.146L130.675 280.308L130.26 280.197L131.255 276.703L130.765 276.571L131.257 274.843L130.879 274.741L131.254 273.426L130.839 273.315L130.736 272.964C130.685 272.95 130.592 272.898 130.455 272.808L130.712 271.906L130.335 271.805L130.232 271.453C130.207 271.447 130.151 271.405 130.065 271.328L130.102 271.338C130.084 271.306 130.05 271.283 130 271.27L130.139 270.781L129.724 270.67L129.621 270.319C129.495 270.285 129.389 270.229 129.303 270.152C129.184 270.093 129.062 270.047 128.936 270.013L128.86 269.71C128.734 269.676 128.628 269.621 128.542 269.544C128.423 269.485 128.301 269.438 128.175 269.405L128.325 268.879L127.458 268.646L127.424 268.192L122.86 266.966L122.742 267.379L121.874 267.146L121.735 267.634L120.867 267.401L120.761 267.777L120.27 267.645L120.142 268.096L119.764 267.995L119.508 268.896L119.055 268.775L118.948 269.15L118.679 269.24L118.69 269.202C118.593 269.446 118.5 269.677 118.411 269.896C118.329 270.089 118.25 270.27 118.175 270.439C118.1 270.608 118.052 270.729 118.03 270.805L117.54 270.673L117.165 271.988L116.788 271.886L116.66 272.337L116.391 272.427C116.369 272.502 116.319 272.583 116.24 272.669L115.524 272.477L115.641 272.064L114.811 271.841L116.213 266.919L116.568 266.812C116.575 266.787 116.595 266.766 116.627 266.747C116.634 266.722 116.641 266.697 116.648 266.672L117.16 266.729L117.299 266.24L117.692 266.144C117.699 266.119 117.719 266.097 117.751 266.079C117.759 266.054 117.766 266.029 117.773 266.004L118.775 266.192L118.904 265.741L119.221 265.624C119.235 265.574 119.262 265.527 119.302 265.484L120.282 265.748L120.422 265.259L121.327 265.502L121.445 265.089L123.18 265.555L123.308 265.104L125.044 265.571L125.161 265.157L126.972 265.644L126.854 266.057L129.08 266.655L128.952 267.106L130.272 267.46L130.397 267.736C130.522 267.77 130.641 267.829 130.753 267.913C130.839 267.99 130.92 268.039 130.995 268.059L130.845 268.585L131.713 268.818L131.606 269.194L132.059 269.315L132.183 269.591C132.208 269.598 132.234 269.605 132.259 269.612C132.277 269.644 132.298 269.663 132.324 269.67L132.228 270.291L132.681 270.413L132.794 270.726C132.819 270.733 132.848 270.727 132.88 270.709C132.88 270.709 132.893 270.712 132.918 270.719C132.943 270.726 132.956 270.729 132.956 270.729C132.949 270.754 132.958 270.77 132.983 270.777L132.876 271.436L133.254 271.537L133.008 272.401L133.498 272.533L133.623 272.809C133.648 272.816 133.669 272.835 133.687 272.867C133.705 272.899 133.74 272.921 133.79 272.935L133.629 273.498L134.12 273.63L133.756 274.907L134.171 275.019L133.904 275.958L134.356 276.08L134.003 277.32L134.418 277.431L133.787 279.648L134.24 279.769L132.742 285.029L132.289 284.907L131.797 286.635L131.382 286.524L131.008 287.839L130.555 287.717L130.181 289.032L129.912 289.122C129.883 289.222 129.822 289.34 129.729 289.477C129.629 289.639 129.568 289.757 129.547 289.833L129.019 289.691L128.773 290.555L128.503 290.644C128.496 290.669 128.486 290.707 128.471 290.757C128.45 290.832 128.42 290.891 128.38 290.935L127.777 290.773L127.541 291.599L127.164 291.498L127.036 291.949L126.545 291.817L126.417 292.268L126.148 292.357C126.133 292.407 126.107 292.454 126.067 292.497C126.028 292.541 126.001 292.587 125.987 292.637L125.421 292.485L125.314 292.861L124.899 292.75L124.76 293.238L124.491 293.327C124.462 293.428 124.425 293.512 124.378 293.58L123.397 293.317L123.269 293.768L122.778 293.636L122.671 294.012L121.804 293.779L121.675 294.229L120.393 293.885L120.264 294.336Z" fill="#374824" fill-opacity="0.7"/>
<path d="M97.6332 259.923L97.2162 259.709L95.0696 263.655L95.4867 263.869L95.4712 264.388L101.657 267.563L101.881 267.151L103.133 267.793L103.357 267.381L104.156 267.791L104.38 267.38L105.179 267.79L105.422 267.344L105.793 267.315C105.818 267.269 105.855 267.229 105.903 267.195L106.354 267.427L106.821 266.569L107.209 266.593L108.523 264.502L108.072 264.27L108.52 263.447L107.755 263.054L107.96 262.677L107.161 262.267L107.137 261.903C106.789 261.725 106.442 261.517 106.097 261.282C105.728 261.034 105.346 260.809 104.952 260.607L104.944 260.295L104.011 259.641L103.805 260.018L101.755 258.966L101.531 259.378L100.697 258.95L100.491 259.327L99.7269 258.935L99.5029 259.346L98.6688 258.918L98.4448 259.33L98.0625 259.134L97.6332 259.923ZM95.0698 276.077L90.6561 273.812L90.046 272.972L89.5247 272.705L89.73 272.327L88.9307 271.917L88.9223 271.606C88.8528 271.57 88.761 271.494 88.6469 271.377L88.9269 270.862L88.5446 270.666L88.5362 270.354C88.4435 270.307 88.3687 270.254 88.3116 270.195L88.2421 270.159L88.7274 269.267L88.3799 269.089L90.4144 265.349L90.7619 265.527L95.727 256.399L93.4333 255.222L93.2279 255.6L92.7066 255.332L92.9119 254.955L92.5297 254.759L92.5052 254.395C92.482 254.383 92.4134 254.319 92.2993 254.201L92.6166 253.618L92.9879 253.589C93.0004 253.566 93.0244 253.549 93.06 253.538C93.0725 253.516 93.0849 253.493 93.0974 253.47L94.9071 254.311L95.1125 253.933L96.2941 254.54L96.5367 254.094L98.622 255.164L98.3793 255.61L98.8659 255.859L98.9277 256.154C98.9972 256.19 99.089 256.266 99.2031 256.383C99.3172 256.501 99.3975 256.571 99.4438 256.595L99.2012 257.041L100.73 257.826L100.954 257.414L102.136 258.02L102.341 257.643L104.044 258.517L104.287 258.07L109.187 260.585L108.944 261.031L109.744 261.441L109.84 261.754C109.956 261.814 110.06 261.896 110.151 262.001C110.218 262.094 110.287 262.159 110.357 262.195L110.114 262.641L110.948 263.069L110.743 263.446L111.194 263.678L110.746 264.502L111.094 264.68L110.683 265.435L111.1 265.649L109.924 267.811L109.507 267.597L109.097 268.352L108.749 268.173L108.301 268.997L107.849 268.765L107.607 269.211L107.324 269.241C107.274 269.333 107.219 269.407 107.158 269.464L106.22 268.982L105.996 269.394L105.162 268.966L104.956 269.343L104.157 268.933L103.933 269.345L102.717 268.721L102.493 269.132L100.859 268.294L100.635 268.706L95.7698 266.209L95.5831 266.552L94.3667 265.928L94.1241 266.374L93.707 266.16L93.5017 266.538L93.0448 266.479L90.9729 270.288L91.3899 270.502L91.4517 270.797C91.4749 270.809 91.498 270.821 91.5212 270.833C91.5319 270.867 91.5489 270.891 91.5721 270.903L91.3242 271.522L91.7413 271.736L91.8031 272.031C91.8957 272.078 91.9876 272.155 92.0785 272.26C92.1695 272.365 92.2729 272.447 92.3887 272.507L92.2851 273.024L96.108 274.986L96.332 274.574L97.1313 274.984L97.3367 274.607L98.136 275.017L98.3973 274.537L98.7339 274.49C98.7464 274.467 98.7704 274.45 98.806 274.439C98.8416 274.428 98.8719 274.4 98.8968 274.354L99.4181 274.621L100.071 273.42L100.419 273.599L100.68 273.118L101.086 273.107C101.111 273.062 101.194 273.046 101.335 273.059C101.463 273.096 101.615 273.144 101.789 273.205C101.951 273.288 102.114 273.371 102.276 273.454C102.415 273.526 102.531 273.585 102.623 273.633L102.399 274.044L102.782 274.241L102.841 274.622C102.864 274.634 102.893 274.634 102.929 274.623C102.929 274.623 102.941 274.629 102.964 274.641C102.987 274.653 102.979 274.722 102.94 274.848C102.888 274.998 102.831 275.158 102.767 275.33C102.667 275.513 102.574 275.685 102.487 275.845C102.387 276.028 102.319 276.154 102.281 276.222L101.83 275.991L101.4 276.78L100.601 276.37L100.396 276.747L99.5963 276.337L99.3536 276.783L98.5543 276.373L98.349 276.75L97.5496 276.34L97.3443 276.718L95.2938 275.665L95.0698 276.077ZM98.0139 268.458L97.9786 267.869L98.2026 267.458L98.4806 267.6L98.0139 268.458Z" fill="#374824" fill-opacity="0.7"/>
<path d="M60.203 265.274L58.0302 263.488L58.2868 263.194L54.3637 259.969L54.4437 259.58C54.4236 259.564 54.3703 259.486 54.2838 259.348L55.6181 257.816L56.3726 258.436L56.6805 258.083L57.0502 258.134C57.0844 258.095 57.1991 258.122 57.3943 258.215C57.5724 258.327 57.7806 258.465 58.019 258.627C58.2403 258.809 58.4616 258.991 58.6829 259.173C58.8841 259.338 59.035 259.462 59.1356 259.545L58.8276 259.898L60.6081 261.362L60.4466 261.785L63.736 264.488L64.0182 264.164L64.7727 264.784L65.0806 264.431L65.3824 264.679L65.6903 264.326L66.0902 264.402C66.1757 264.303 66.2728 264.232 66.3815 264.186C66.47 264.124 66.5571 264.044 66.6426 263.946L67.0047 264.243L70.5458 260.179L70.2139 259.906L70.4961 259.582L70.1038 259.26L70.2609 258.782L64.165 253.772L63.857 254.126L63.0724 253.481L63.1268 253.121C63.0262 253.038 62.9528 252.944 62.9065 252.839C62.8231 252.737 62.731 252.644 62.6304 252.561L63.3232 251.766L63.7231 251.842C63.7403 251.823 63.7674 251.811 63.8046 251.808C63.8218 251.788 63.8389 251.769 63.856 251.749L71.0594 257.569L71.3673 257.215L72.0614 257.786L81.3247 247.153L80.9324 246.831L81.5226 246.154L81.2208 245.906L81.2797 245.6C80.6561 245.088 80.0495 244.555 79.46 244.003C78.8706 243.452 78.254 242.911 77.6102 242.382L77.6902 241.993L76.2538 240.61L75.9202 240.993L75.8599 240.943L75.9399 240.554C75.8594 240.488 75.7961 240.402 75.7498 240.297C75.6663 240.195 75.5743 240.102 75.4737 240.019L76.1665 239.224L76.4683 239.472L76.7506 239.148L89.5761 249.69L89.573 249.99C89.6133 250.023 89.6434 250.048 89.6636 250.065C89.6464 250.084 89.648 250.102 89.6681 250.119L89.1549 250.708L88.8531 250.46L88.5965 250.755L87.8722 250.159L87.5386 250.542L85.0942 248.533L84.812 248.857L84.0877 248.262L83.7541 248.645L83.392 248.347L74.18 258.92L74.5421 259.218L74.2342 259.571L74.9886 260.192L74.9856 260.492C75.3276 260.773 75.6711 261.073 76.0161 261.39C76.341 261.691 76.7092 262.06 77.1206 262.5L76.787 262.883L77.119 263.155L76.4775 263.892L75.7834 263.321L75.4755 263.675L73.0311 261.666L72.7488 261.99L72.4651 261.959C72.0887 262.391 71.6737 262.808 71.2199 263.21C70.766 263.612 70.351 264.029 69.9746 264.461L69.6125 264.163L68.3808 265.577L68.079 265.329L67.5145 265.976L67.1222 265.654L66.5063 266.361L66.2226 266.33C66.2055 266.35 66.1799 266.379 66.1457 266.418C66.0943 266.477 66.0415 266.518 65.9872 266.541L65.4742 266.119L65.1662 266.472L64.8645 266.224L64.6078 266.519L63.8836 265.924L63.55 266.307L63.1879 266.009L62.9056 266.333L62.2115 265.762L61.8779 266.145L60.4596 264.98L60.203 265.274ZM77.8671 240.066L78.5343 239.3L78.584 239.897L78.1991 240.339L77.8671 240.066ZM77.8523 263.859L77.1007 263.949L77.2547 263.772L76.8624 263.45L77.0677 263.214L77.8523 263.859ZM64.7824 252.41L65.3952 252.003L65.4556 252.053L64.9937 252.583L64.7824 252.41ZM54.0576 258.656L54.1089 258.598L54.6174 258.965L54.4121 259.201L54.0576 258.656Z" fill="#374824" fill-opacity="0.7"/>
<path d="M49.8028 239.666L49.4274 239.946L45.8606 235.446L46.0381 235.167C45.9572 235.065 45.9053 234.958 45.8823 234.845C45.8385 234.748 45.7599 234.628 45.6467 234.485L45.8242 234.206C45.7433 234.104 45.6914 233.996 45.6684 233.883C45.6083 233.766 45.5298 233.646 45.4328 233.523L45.8082 233.243L45.4927 232.845L45.6702 232.566C45.6217 232.504 45.5779 232.407 45.5387 232.274C45.4995 232.141 45.4314 232.013 45.3344 231.89L45.7098 231.61L45.4429 231.273L45.5648 230.987C45.5486 230.966 45.5244 230.936 45.492 230.895C45.4597 230.854 45.4377 230.806 45.4263 230.749L45.8955 230.398L45.5801 230L46.3309 229.439L46.064 229.102L46.2415 228.823C46.1768 228.742 46.1168 228.624 46.0614 228.47L46.8748 227.862L46.6079 227.525L47.6716 226.73L47.3805 226.363L49.8207 224.538L50.1712 224.666C50.2338 224.619 50.294 224.591 50.3519 224.58L51.2739 225.743L51.6493 225.462L59.0254 234.769L59.4009 234.488L60.8324 236.294L61.2078 236.014L61.4505 236.32L63.046 235.127L62.8033 234.821L63.5542 234.259L63.2387 233.861L63.9896 233.3L63.7469 232.994L63.8689 232.708C63.8203 232.646 63.7903 232.587 63.7788 232.531C63.7512 232.454 63.7212 232.395 63.6888 232.355L64.1268 232.027L63.8841 231.721L64.0616 231.442C63.9808 231.34 63.9207 231.222 63.8816 231.089C63.8054 230.951 63.7268 230.831 63.646 230.729L64.0527 230.425L63.4703 229.69L63.8145 229.433L62.6983 228.025L63.001 227.652L60.3805 224.346L60.0051 224.627L58.3066 222.484L57.9625 222.741L57.1133 221.67L56.7379 221.95L55.9129 220.909L55.5375 221.19L54.7853 220.241L54.9628 219.962C54.9143 219.901 54.8623 219.793 54.807 219.64L55.4327 219.172L55.8145 219.277C55.8562 219.245 55.8956 219.232 55.9326 219.237C55.9696 219.242 56.009 219.229 56.0507 219.197L56.3904 219.626L56.7658 219.345L57.3239 220.049L57.668 219.792L58.2504 220.527L58.6258 220.246L59.7662 221.685L60.1103 221.428L61.2264 222.836L61.6331 222.532L63.0404 224.307L63.3845 224.05L65.8109 227.111L65.7688 227.435L66.2087 228.179C66.2687 228.297 66.3392 228.406 66.4201 228.509C66.4801 228.626 66.5505 228.736 66.6314 228.838L66.2247 229.142L67.0497 230.183L66.9833 230.476C67.048 230.558 67.0999 230.665 67.1391 230.799C67.1621 230.912 67.214 231.019 67.2949 231.121L66.8882 231.425L67.2036 231.823L66.8595 232.08L67.1264 232.417L66.751 232.698L67.2848 233.371L67.2184 233.665C67.2993 233.767 67.335 233.854 67.3257 233.926L66.5123 234.534L66.8277 234.932L66.421 235.236L66.6879 235.573L65.9058 236.158L66.2212 236.555L64.4067 237.912L64.6493 238.218L61.8963 240.277L61.6536 239.971L59.8391 241.327L59.5237 240.929L58.8667 241.421L58.5647 241.354C58.4604 241.432 58.3504 241.482 58.2346 241.503C58.098 241.54 57.9671 241.606 57.842 241.699L57.5023 241.271L56.7827 241.809L56.512 241.719C56.4703 241.75 56.4309 241.763 56.3939 241.758C56.336 241.769 56.2654 241.805 56.1819 241.868L55.818 241.409L55.4426 241.689L55.1757 241.353L54.4561 241.891L54.1854 241.8C54.1437 241.832 54.0441 241.874 53.8866 241.926L53.4984 241.437L53.1543 241.694L52.6205 241.02L52.2138 241.324L51.6314 240.59L51.2873 240.847L50.7292 240.143L50.3851 240.4L49.8028 239.666ZM50.6106 228.238L49.8911 228.776L49.6242 228.439L48.7169 229.118L48.9838 229.454L48.2956 229.969L48.5867 230.336L48.4578 230.676C48.5225 230.758 48.5501 230.835 48.5408 230.907L48.0715 231.258L48.3869 231.656L47.6674 232.194L48.2012 232.867L48.1348 233.161C48.2157 233.263 48.2514 233.35 48.2421 233.422L47.7415 233.796L48.5907 234.867L48.5243 235.161C48.9079 235.687 49.3157 236.243 49.7477 236.83C50.1428 237.412 50.5321 237.966 50.9156 238.492L51.2597 238.235L51.8421 238.97L52.2488 238.666L52.5993 238.793C52.641 238.762 52.6804 238.749 52.7174 238.754C52.7544 238.759 52.7938 238.746 52.8355 238.714L53.1752 239.143L53.5506 238.862L53.9324 238.967C53.995 238.92 54.0552 238.891 54.1131 238.88L54.4286 239.278L54.804 238.998L55.2656 239.14C55.2865 239.125 55.3258 239.111 55.3837 239.101C55.4046 239.085 55.4359 239.062 55.4776 239.03L55.793 239.428L56.4813 238.914L56.9844 239.171L59.143 237.557L54.169 231.282L53.8562 231.516L51.3085 228.301L50.9018 228.605L50.6106 228.238ZM45.2575 242.04L45.1841 242.388L45.1286 242.38L43.2163 241.665L43.1333 241.434L39.3994 239.741C39.3947 239.777 39.3772 239.839 39.347 239.926C39.3006 239.993 39.267 240.035 39.2461 240.05L37.9794 239.584L38.1326 239.274L37.8619 239.184L37.9596 238.867L37.6888 238.777L38.2251 237.694L38.4473 237.722L38.6529 237.227L39.5378 237.59L39.7294 237.203L46.6321 239.94L46.6008 239.963L46.6564 239.97L46.4546 240.219C46.5657 240.233 46.6455 240.271 46.694 240.332L46.5964 240.649L46.8428 240.709L46.2887 242.147L46.0352 242.141C46.0212 242.249 45.9933 242.319 45.9516 242.35L45.2575 242.04ZM46.747 239.708L46.6321 239.94L46.6564 239.97C46.7304 239.98 46.7917 240.015 46.8402 240.077L46.694 240.332C46.8051 240.347 46.885 240.385 46.9335 240.446C46.922 240.389 46.9186 240.343 46.9233 240.307C46.9118 240.251 46.9003 240.194 46.8888 240.138L46.747 239.708ZM37.5669 239.063L37.6914 239.409L37.7157 239.44L37.8619 239.184L37.5669 239.063ZM45.3367 242.517L45.1841 242.388L45.1286 242.38L44.9511 242.659L45.3367 242.517ZM37.8089 239.809L37.9794 239.584L37.9238 239.576L37.9551 239.553L37.7399 239.47L37.8089 239.809ZM38.0029 237.665L38.1938 237.717C38.2147 237.701 38.2298 237.658 38.2392 237.586C38.1974 237.617 38.1581 237.63 38.121 237.625C38.0631 237.636 38.0238 237.649 38.0029 237.665ZM46.2191 242.248L46.5109 242.176L46.2574 242.17C46.2365 242.186 46.2342 242.204 46.2504 242.224C46.2504 242.224 46.2399 242.232 46.2191 242.248ZM37.7399 239.47L37.6844 239.463L37.7399 239.47Z" fill="#374824" fill-opacity="0.7"/>
<path d="M17.2522 197.725L17.5784 197.439L14.9943 188.062L14.5406 188.179L12.7141 181.552L12.9647 181.285C12.9301 181.159 12.9276 181.052 12.9573 180.964C12.9548 180.857 12.9363 180.74 12.9017 180.615L13.7712 180.389L13.6571 179.975L16.8706 179.139L17.1323 179.354C17.6111 179.229 18.0969 179.13 18.5896 179.056C19.0823 178.981 19.5807 178.879 20.0848 178.748L20.3569 179C20.3821 178.993 20.4107 178.999 20.4429 179.018C20.475 179.036 20.5162 179.039 20.5667 179.026L20.7431 179.666L20.5681 179.913C20.575 179.938 20.582 179.964 20.5889 179.989C20.5706 180.02 20.5649 180.049 20.5718 180.074L19.9877 180.306L20.0915 180.683L17.0292 181.479L17.1537 181.931L16.9892 182.216C17.003 182.266 17.0008 182.307 16.9825 182.339C16.9642 182.37 16.962 182.411 16.9758 182.461L16.3709 182.619L16.7341 183.937L16.5592 184.184L16.5488 184.146L16.66 184.844C16.6832 185.026 16.7065 185.209 16.7297 185.391C16.7529 185.573 16.7714 185.689 16.7853 185.74L16.3316 185.857L17.5458 190.264L17.1299 190.372L18.0639 193.761L18.4798 193.653L18.7081 194.481L28.6889 191.887L28.4606 191.058L28.8623 190.752L27.8453 187.061L27.3917 187.179L26.9143 185.447L25.1752 185.899L25.0507 185.447L23.7275 185.791L23.4576 184.812L23.6808 184.593C23.6531 184.492 23.6449 184.414 23.6563 184.357L32.2004 182.136L32.4806 183.153L32.3057 183.4C32.3195 183.45 32.3299 183.488 32.3368 183.513C32.3116 183.519 32.3025 183.535 32.3094 183.56L30.7972 183.953L30.9217 184.405L29.6363 184.739L29.7505 185.154L29.259 185.281L29.7571 187.089L29.3791 187.187L30.3131 190.577L30.6911 190.478L30.7949 190.855L31.3242 190.717L31.5962 190.969C31.9491 190.878 32.3467 190.801 32.789 190.74C33.2313 190.679 33.6415 190.599 34.0195 190.501L34.319 190.706L36.7148 190.285L38.4161 189.842L38.2916 189.39L40.938 188.702L40.8135 188.25L41.064 187.984C41.0433 187.908 41.0386 187.842 41.0499 187.785L41.5414 187.658L41.1678 186.302L41.4562 186.025C41.3524 185.649 41.2704 185.253 41.2101 184.838C41.1498 184.423 41.0608 184.003 40.9432 183.576L41.1663 183.356C41.1525 183.306 41.15 183.199 41.1589 183.035L41.7638 182.878L42.0359 183.13C42.1115 183.111 42.178 183.107 42.2353 183.119L42.4458 183.589L42.8617 183.481L45.6741 193.686L45.4991 193.933C45.5268 194.034 45.5327 194.153 45.5169 194.292C45.4942 194.405 45.4966 194.512 45.5243 194.613L44.5035 194.878L44.3686 194.389L43.9528 194.497L43.7245 193.668L43.233 193.796L42.6311 191.612L41.7993 191.828L41.6748 191.376L34.6429 193.204L34.5391 192.828L32.0439 193.476L32.1477 193.853L29.4257 194.56L29.3219 194.184L26.3731 194.95L26.4768 195.327L19.8986 197.037L20.0231 197.489L19.5695 197.607L20.0469 199.339L19.631 199.447L19.9631 200.653L20.3789 200.544L20.4479 200.648L19.9838 200.728L20.2329 201.632L18.8341 201.995L17.6303 197.627L17.2522 197.725ZM36.445 189.305L36.9476 189.659L37.0929 190.186L36.7148 190.285L36.445 189.305ZM19.9356 202.758L19.5087 202.385L19.3634 201.858L19.6658 201.779L19.9356 202.758ZM22.8602 185.29L22.9973 185.053L23.4888 184.925L23.5822 185.264L22.8602 185.29ZM33.0678 182.637L33.1093 182.787L32.9202 182.836L32.4288 182.964L32.3354 182.625L33.0678 182.637Z" fill="#374824" fill-opacity="0.7"/>
<path d="M10.9476 169.432L10.5181 169.443L10.4101 165.46L10.8354 165.293L10.7507 162.169L10.7126 160.763L11.9622 160.731L12.1649 161C12.217 160.998 12.2564 161.01 12.2831 161.036C12.3098 161.061 12.3492 161.073 12.4013 161.072L12.4542 163.024L12.9228 163.012L13.1265 163.32C13.3348 163.314 13.5438 163.335 13.7535 163.382C13.9371 163.429 14.133 163.45 14.3413 163.445L14.544 163.713C16.1848 163.697 17.917 163.692 19.7408 163.698C21.5378 163.678 23.2436 163.66 24.8584 163.645L24.8457 163.176L35.1548 162.913L35.1432 162.483L35.4893 162.279C35.4886 162.253 35.5122 162.161 35.56 162.004L36.0677 161.991L36.0539 161.483L36.5616 161.47L36.551 161.08L36.8201 160.916C36.8166 160.786 36.8391 160.655 36.8876 160.524C36.9094 160.367 36.9185 160.223 36.915 160.093L37.4617 160.079L37.4374 159.181L37.8627 159.014L37.7452 154.68L37.3156 154.691L37.2648 152.816L36.7572 152.829L36.7329 151.931L36.3033 151.942L36.2906 151.474L35.822 151.486L35.6595 151.255C35.6074 151.257 35.5026 151.233 35.3449 151.185L35.327 150.521L34.4288 150.544L34.2663 150.314C33.5634 150.332 32.8728 150.324 32.1945 150.289C31.4895 150.229 30.7986 150.207 30.1217 150.225L30.109 149.756L29.0156 149.784L29.0283 150.253L13.9942 150.637L14.0058 151.067L12.6 151.103L12.6265 152.079L12.1579 152.091L12.1939 153.418L11.9648 153.62C11.9656 153.646 11.967 153.698 11.9691 153.776C11.9705 153.828 11.9459 153.881 11.8952 153.934L11.2314 153.951L11.2451 154.459L11.0108 154.465L10.9971 153.957L10.5285 153.969L10.3062 145.769L10.6154 145.644C10.614 145.592 10.6372 145.487 10.6851 145.329L11.9737 145.296L11.998 146.194L12.4666 146.183L12.5037 147.549L13.4799 147.524L13.6836 147.832C14.0495 147.874 14.363 147.905 14.624 147.925C14.859 147.945 15.1067 147.952 15.367 147.945L15.3808 148.453L33.6951 147.984L33.8978 148.253C34.08 148.248 34.2629 148.269 34.4466 148.317C34.6302 148.364 34.8262 148.385 35.0344 148.38L35.2772 148.686C35.4334 148.682 35.5643 148.705 35.6698 148.754C35.7486 148.778 35.8661 148.788 36.0223 148.784L36.0361 149.292L36.9733 149.268L36.987 149.776L37.4947 149.763L37.6973 150.031C37.7494 150.03 37.7888 150.042 37.8156 150.067C37.8423 150.092 37.8817 150.104 37.9338 150.103L37.9613 151.118L38.4689 151.105L38.4827 151.613L38.9122 151.602L38.9493 152.969L39.3788 152.958L39.4042 153.895L39.9119 153.882L40.0982 160.754L39.5905 160.767L39.6149 161.665L39.3858 161.867C39.3894 161.997 39.3669 162.128 39.3183 162.259C39.2691 162.365 39.2462 162.482 39.2498 162.613L38.9817 162.815C38.9852 162.945 38.9627 163.076 38.9142 163.207C38.8656 163.339 38.8431 163.47 38.8467 163.6L38.3 163.614L38.3116 164.043L38.0826 164.245C38.0861 164.375 38.0626 164.466 38.0119 164.52L36.9185 164.548L36.9333 165.094L36.0352 165.117L36.0468 165.547L34.602 165.584L34.6147 166.053L13.4888 166.593L13.5004 167.022L13.2334 167.264C13.2363 167.368 13.2123 167.446 13.1617 167.5L12.5759 167.515L12.6257 169.35L12.3967 169.551C12.3995 169.655 12.3766 169.773 12.3281 169.905C12.2796 170.036 12.2574 170.18 12.2617 170.336L10.973 170.369L10.9476 169.432ZM10.0858 162.147L10.7497 162.13L10.7455 161.974L10.3127 161.868L10.0858 162.147ZM10.968 160.093L10.9828 160.639L11.0208 160.599C11.0194 160.547 11.0426 160.442 11.0904 160.285L11.1685 160.283L10.968 160.093Z" fill="#374824" fill-opacity="0.7"/>
<path d="M13.6915 126.074L14.7743 121.113L15.122 120.985C15.1942 120.654 15.2919 120.329 15.4151 120.009C15.5383 119.688 15.6387 119.35 15.7165 118.994L16.0176 118.896C16.1509 118.286 16.3252 117.67 16.5405 117.05C16.7304 116.424 16.8975 115.781 17.0418 115.119L17.4244 115.198L17.5161 114.778L18.396 114.96L18.496 114.502L19.529 114.714L19.6537 115.059C20.3169 115.195 21.0255 115.368 21.7796 115.576C22.5082 115.78 23.2168 115.952 23.9055 116.094L24.0385 116.4C24.115 116.416 24.2115 116.463 24.3279 116.54C24.4244 116.586 24.5236 116.62 24.6257 116.641L24.3008 118.129L23.4591 117.956L23.3758 118.338L21.1567 117.881L21.0484 118.377L20.1302 118.188L20.0386 118.608L19.1586 118.427L19.067 118.846L18.6079 118.752L18.5079 119.21L18.2284 119.391C18.2006 119.519 18.1473 119.641 18.0686 119.757C17.9953 119.849 17.9504 119.932 17.9337 120.009L17.4364 119.906L17.2365 120.822L16.8156 120.736L15.6911 125.888L16.112 125.974L15.9204 126.852L16.3796 126.947L16.088 128.283L16.5471 128.377L16.6801 128.684C16.7312 128.694 16.7639 128.727 16.7783 128.784C16.7982 128.814 16.8337 128.835 16.8847 128.845L16.7681 129.38L17.2272 129.474L17.1439 129.856L17.6031 129.95L17.7277 130.295C17.7532 130.3 17.776 130.318 17.7959 130.349C17.8159 130.38 17.8513 130.4 17.9024 130.411L17.7858 130.945L18.7423 131.142L18.8669 131.487C18.9434 131.502 19.0399 131.549 19.1563 131.626C19.2528 131.672 19.3521 131.706 19.4541 131.727L19.3541 132.185L20.3489 132.39L20.4652 132.773C20.5418 132.789 20.6382 132.835 20.7547 132.912C20.8511 132.959 20.9504 132.992 21.0524 133.013L21.2237 133.328C21.5553 133.396 21.8813 133.49 22.2018 133.609C22.4967 133.723 22.8355 133.819 23.2181 133.898L23.2795 134.349L30.5107 135.838L30.6023 135.418L32.8214 135.875L32.9047 135.493L34.2438 135.769L34.3521 135.273L34.6532 135.175C34.6588 135.15 34.7037 135.066 34.788 134.924L35.7828 135.129L35.8827 134.671L36.7245 134.844L36.8244 134.386L37.1721 134.258C37.1999 134.131 37.2476 134.035 37.3153 133.969C37.3885 133.878 37.439 133.768 37.4668 133.641L37.9259 133.736L38.0258 133.278L38.3736 133.15C38.3791 133.124 38.4241 133.041 38.5084 132.899L38.9675 132.993L39.259 131.657L39.645 131.537C39.6672 131.436 39.715 131.339 39.7882 131.248C39.8415 131.126 39.882 131.001 39.9097 130.874L40.3689 130.969L41.41 126.198L40.9892 126.111L41.1807 125.234L40.6833 125.131L40.8749 124.253L40.4923 124.175L40.6839 123.297L40.2248 123.202L40.1634 122.751L35.113 121.711L35.0214 122.131L34.524 122.029L34.4241 122.487L34.0415 122.408L33.2669 125.957L32.8077 125.863L32.7244 126.244L31.6914 126.032L31.883 125.154L31.5004 125.075L33.3412 116.641L33.7238 116.72L33.8154 116.3L34.8867 116.52L35.0197 116.827C35.0452 116.832 35.0679 116.85 35.0878 116.881C35.1134 116.886 35.1389 116.891 35.1644 116.896L35.0243 117.905L35.4069 117.983L35.2154 118.861L41.9491 120.247L42.0738 120.592C42.0993 120.597 42.122 120.615 42.142 120.646C42.1675 120.651 42.193 120.657 42.2185 120.662L41.7953 122.967L42.2161 123.054L42.0245 123.932L42.4071 124.011L42.2072 124.927L42.7046 125.029L42.5131 125.907L42.9339 125.993L42.659 127.253L43.1182 127.347L42.8183 128.721L43.2392 128.808L42.9227 130.258L42.5018 130.171L41.9271 132.805L41.468 132.71L41.2764 133.588L40.9969 133.77C40.9524 133.973 40.8853 134.159 40.7954 134.326C40.68 134.489 40.6057 134.646 40.5723 134.799L40.075 134.697L39.8751 135.613L39.4925 135.534L39.3842 136.03L39.113 136.173C39.1019 136.224 39.0935 136.262 39.088 136.288C39.0625 136.283 39.0469 136.293 39.0414 136.318L38.4292 136.192L38.321 136.688L38.0115 136.824C38.0059 136.849 38.0004 136.875 37.9948 136.9C37.9638 136.921 37.9455 136.943 37.9399 136.969L37.3111 136.919L37.2278 137.301L36.8452 137.222L36.7369 137.718L35.8187 137.529L35.7271 137.949L34.8853 137.776L34.7854 138.233L34.288 138.131L34.2047 138.513L33.3247 138.332L33.2165 138.828L31.4565 138.465L31.3649 138.885L28.2275 138.239L28.1276 138.697L24.5312 137.957L24.6311 137.499L21.9912 136.955L21.8498 136.687C21.7168 136.686 21.429 136.6 20.9865 136.429C20.5441 136.259 20.157 136.139 19.8254 136.071L19.9337 135.575L19.1303 135.409L19.2136 135.027L18.2571 134.831L18.357 134.373L17.4388 134.184L17.3357 133.923C17.2337 133.902 17.1244 133.853 17.008 133.776C16.8661 133.693 16.7569 133.644 16.6803 133.629L16.7969 133.094L16.3378 133L16.4211 132.618L15.962 132.524L16.062 132.066L15.6028 131.971L15.4998 131.711C15.4743 131.705 15.4515 131.687 15.4316 131.657C15.3861 131.621 15.3407 131.585 15.2952 131.549L15.4035 131.053L14.9061 130.95L15.0977 130.073L14.6768 129.986L14.7851 129.49L14.326 129.395L14.5175 128.517L14.1349 128.439L14.3265 127.561L13.8674 127.466L14.1506 126.169L13.6915 126.074ZM24.4924 117.252L25.1394 117.584L25.1228 117.66L24.4341 117.519L24.4924 117.252Z" fill="#374824" fill-opacity="0.7"/>
<path d="M20.5218 102.429L25.3162 92.6418L25.6858 92.5975C25.7431 92.4806 25.8182 92.3863 25.9114 92.3146C25.9923 92.2086 26.0671 92.0854 26.1358 91.9451L27.0932 92.3875L27.0987 92.8203C27.1223 92.8312 27.1402 92.8538 27.1524 92.8881C27.1761 92.899 27.1997 92.91 27.2233 92.9209L26.8475 93.8657L27.2375 94.046L26.2408 96.0806L26.6664 96.2772L26.4945 96.628L26.92 96.8247L26.8911 97.3276L29.4797 98.5238L29.6859 98.1028L30.1823 98.3322L30.2221 98.6948L31.9618 99.6708L32.168 99.2498L33.09 99.6759L33.0611 100.179L46.7129 106.487L46.9191 106.067L47.6992 106.427L48.0945 105.62L48.6414 105.658L51.0987 100.641L50.6377 100.428L52.2015 97.2362L51.8469 97.0723L52.4484 95.8445L52.0228 95.6479L52.4353 94.806L50.3786 93.8556L50.5505 93.5048L48.0683 92.3577L48.2745 91.9368L47.8845 91.7565L48.5203 90.4586L48.9103 90.6388L49.1337 90.1828L54.9136 92.8537L55.1026 92.4679L55.6345 92.7137L55.6915 93.0411C55.8806 93.1285 56.0465 93.2339 56.1891 93.3571C56.308 93.4694 56.4502 93.5638 56.6157 93.6403L56.2032 94.4822L56.6287 94.6788L55.5977 96.7836L55.1722 96.587L47.0097 113.25L46.711 113.327C46.6652 113.42 46.59 113.515 46.4854 113.61C46.3923 113.682 46.3229 113.764 46.277 113.858L45.3196 113.415L45.543 112.959L45.153 112.779L45.3248 112.428L44.8638 112.215L46.0667 109.76L45.7121 109.596L45.884 109.245L28.6153 101.265L28.8215 100.844L25.6301 99.3691L25.4067 99.8251L25.1081 99.9022C25.0851 99.949 25.068 99.9841 25.0565 100.007C25.0329 99.9965 25.0153 100.003 25.0039 100.026L24.4365 99.764L22.6494 103.412L22.2593 103.232L21.8641 104.039L20.5521 103.433L20.9473 102.626L20.5218 102.429ZM45.2596 114.248L45.237 113.85L45.426 113.464L45.7452 113.612L45.2596 114.248ZM27.1028 91.7466L27.1737 91.7794L26.9514 92.322L26.6677 92.1909L27.1028 91.7466Z" fill="#374824" fill-opacity="0.7"/>
<path d="M37.6984 72.387L50.7341 56.7075L51.0492 56.7561C51.0825 56.7161 51.1529 56.6721 51.2605 56.6241L51.2355 56.6541C51.2726 56.6502 51.3079 56.6282 51.3412 56.5881L52.4169 57.4319L52.7166 57.0714L53.5465 57.7223L53.5004 58.0831C53.7668 58.292 54.0268 58.529 54.2804 58.7941C54.5134 59.043 54.7734 59.28 55.0603 59.505L55.0142 59.8659C55.1576 59.9784 55.2742 60.1028 55.3638 60.2393C55.4535 60.3758 55.5803 60.5083 55.7442 60.6369L55.4945 60.9373L55.8941 61.2506L55.2198 62.0617L54.5129 61.5072L54.2132 61.8677L52.4304 60.4695L52.1558 60.7999L51.4181 60.2213L50.8187 60.9422L50.5094 60.9478L49.5182 61.9568C49.4145 62.0408 49.2877 62.173 49.1379 62.3532C48.9842 62.4973 48.8657 62.6195 48.7825 62.7196L48.4136 62.4303L43.5689 68.2576L43.9685 68.571L43.9224 68.9318C44.6191 69.4782 45.3299 70.0688 46.0548 70.7034C46.7592 71.322 47.4905 71.9287 48.2486 72.5233L48.2333 72.9082L49.6702 74.2337L49.9699 73.8733L51.0457 74.717L51.3454 74.3565L51.7834 74.5016L55.3544 70.2062L54.6168 69.6277L54.9164 69.2672L54.2402 68.7369L54.2921 68.4302C54.214 68.402 54.0974 68.2775 53.9424 68.0567C53.767 67.8199 53.6075 67.6452 53.4641 67.5327L53.7638 67.1722L53.4257 66.9071L53.5006 66.8169L53.8156 66.8655C53.8822 66.7854 53.9424 66.7334 53.9962 66.7094L60.912 72.1334L60.5873 72.5239L60.2185 72.2346L59.9188 72.5951L59.2119 72.0406L58.9122 72.4011L58.2053 71.8466L57.9056 72.2071L57.1679 71.6285L56.9182 71.9289L56.6108 71.6878L55.7368 72.7391L55.3679 72.4498L52.8207 75.5137L53.4969 76.044L53.4816 76.4289C53.543 76.4772 53.586 76.5273 53.6103 76.5795L53.2972 77.0783L61.0428 83.1531L61.3425 82.7927L62.0187 83.323L62.3184 82.9626L62.8428 83.1258L68.4367 76.3974L68.0371 76.084L69.1859 74.7023L68.8785 74.4612L69.4279 73.8004L69.0591 73.5111L69.3587 73.1507L68.6211 72.5721L68.6479 72.2955L68.6787 72.3196C68.5109 72.1549 68.3431 71.9903 68.1754 71.8256C68.0281 71.677 67.891 71.5364 67.7643 71.4039C67.6375 71.2714 67.5433 71.181 67.4819 71.1328L67.8065 70.7423L66.7307 69.8986L66.7576 69.6219C66.6756 69.5577 66.6122 69.4914 66.5674 69.4232L67.0169 68.8825L67.332 68.9311C67.3653 68.891 67.4524 68.827 67.5932 68.739L68.3924 69.3658L68.6921 69.0053L73.0259 72.4043L72.9798 72.7652C73.0413 72.8134 73.0842 72.8636 73.1086 72.9158L72.7954 73.4145L73.1336 73.6797L72.5842 74.3405L72.953 74.6298L72.8838 74.7741L72.5092 74.4306L60.3476 89.0589L60.0383 89.0644C60.005 89.1045 59.98 89.1345 59.9634 89.1545C59.9262 89.1585 59.8993 89.1705 59.8827 89.1905L59.3601 88.7807L59.2103 88.9609L59.3294 88.7566L58.9606 88.4673L59.5349 87.7764L59.1968 87.5113L60.0709 86.4599L59.6713 86.1466L59.971 85.7861L59.6636 85.545L59.9133 85.2447L41.8401 71.07L41.2907 71.7308L40.9218 71.4415L39.4734 73.1837L39.1353 72.9185L38.8357 73.279L38.4668 72.9897L38.1921 73.3201L37.7925 73.0067L37.7887 72.706L37.6984 72.387ZM55.2026 66.6631L55.2007 66.9097L54.8261 67.3603L54.5187 67.1192L55.2026 66.6631Z" fill="#374824" fill-opacity="0.7"/>
<path d="M79.3326 44.6073L79.5825 44.2293L77.1548 41.1194L76.8088 41.3741L75.9676 40.2964L75.6216 40.5512L75.3091 40.1509L74.9317 40.4289L74.5987 40.3831C74.4939 40.4603 74.3625 40.5247 74.2046 40.5763C74.0677 40.6125 73.9678 40.6537 73.9049 40.7L73.5684 40.2689L73.191 40.5469L72.8654 40.4471L72.8969 40.424L72.2197 40.8257C72.036 40.9287 71.8522 41.0317 71.6684 41.1347C71.5056 41.2222 71.4032 41.2815 71.3613 41.3123L71.0728 40.9428L66.6692 44.1856L66.9817 44.5859L66.8817 44.902C66.9778 45.0251 67.037 45.1432 67.0592 45.2562C67.1023 45.3538 67.1639 45.4539 67.244 45.5565L66.8037 45.8808L72.7887 53.548L73.1976 53.2469L73.5878 53.4929L79.3754 49.231L79.111 48.8923L79.8659 48.3364L79.5534 47.9361L79.9623 47.635L79.6739 47.2655L79.7665 47.0033C79.7344 46.9623 79.7129 46.9135 79.7018 46.857C79.6907 46.8005 79.6692 46.7517 79.6371 46.7107L80.1404 46.3401L79.876 46.0014L79.9686 45.7392L79.3326 44.6073ZM60.1202 46.5836L61.6929 45.4255L61.987 45.5484L63.3413 44.7451L63.0769 44.4063L63.6116 44.0126L64.0018 44.2586L67.9022 41.3865L67.6378 41.0478L68.487 40.4224L68.8126 40.5221C69.3578 40.1206 69.9609 39.7088 70.6221 39.2866C71.3042 38.849 71.9493 38.4062 72.5574 37.9584L72.907 38.089C73.0747 37.9654 73.248 37.8701 73.4269 37.8031C73.6267 37.7206 73.8 37.6253 73.9468 37.5173L74.2963 37.6478C74.3173 37.6323 74.3463 37.6272 74.3833 37.6322C74.4412 37.6219 74.5017 37.5935 74.5646 37.5472L74.877 37.9475L75.2859 37.6464L75.5984 38.0467L75.9444 37.7919L76.2385 37.9148C76.2804 37.8839 76.3803 37.8427 76.5382 37.7911L76.8987 38.253L77.2762 37.975L77.5703 38.0979C77.6541 38.0361 77.7355 37.9924 77.8145 37.9666L77.8774 37.9202L78.5504 38.7824L78.8964 38.5276L80.0501 40.0056L80.459 39.7045L81.9733 41.6444L81.8344 42.0376C81.9626 42.2018 82.0699 42.3815 82.1561 42.5766C82.2424 42.7717 82.3496 42.9514 82.4778 43.1156L82.3778 43.4317C82.4579 43.5344 82.5091 43.6422 82.5312 43.7552C82.5743 43.8527 82.636 43.9528 82.7161 44.0555L82.2757 44.3797L82.5642 44.7492L82.4642 45.0653C82.5443 45.168 82.6034 45.286 82.6416 45.4196C82.6798 45.5531 82.7309 45.6609 82.795 45.743L82.0401 46.2989L82.3286 46.6684L81.9196 46.9695L82.184 47.3082L81.4291 47.8641L81.7656 48.2952L81.0422 48.828L81.3066 49.1667L80.5831 49.6994L80.8475 50.0381L80.0612 50.6172L81.1188 51.972L81.4648 51.7173L81.8013 52.1483L82.5876 51.5693L82.8817 51.6922C82.9237 51.6613 83.0236 51.62 83.1814 51.5685L83.5179 51.9995L83.8954 51.7216L84.1894 51.8445C84.2104 51.829 84.2998 51.7955 84.4577 51.7439L84.8182 52.2058L85.1957 51.9279L85.5453 52.0584C85.5662 52.0429 85.5952 52.0378 85.6322 52.0428C85.6902 52.0325 85.7506 52.0041 85.8135 51.9578L86.4385 52.7584L86.8474 52.4573L87.1969 52.5878C87.2389 52.5569 87.3178 52.5311 87.4337 52.5104L87.7462 52.9107L88.1236 52.6328L88.7486 53.4334L89.126 53.1554L89.6789 53.8636L90.0878 53.5625L90.4373 53.693C90.4793 53.6622 90.5582 53.6364 90.6741 53.6156L91.2991 54.4162L91.708 54.1151L92.2849 54.8541L92.6309 54.5993L93.2077 55.3383L93.9626 54.7824L94.3362 54.9438C94.4411 54.8665 94.5515 54.8176 94.6674 54.7969C94.7883 54.7402 94.9011 54.6733 95.006 54.596L95.2944 54.9655L97.1817 53.5758L97.4941 53.9761L97.8716 53.6981L98.2562 54.1908L98.1247 54.5301C98.2048 54.6327 98.256 54.7405 98.2781 54.8535C98.3213 54.9511 98.3829 55.0512 98.463 55.1538L94.1538 58.3271L93.8413 57.9268L93.4638 58.2047L93.1623 58.1358C93.1414 58.1512 93.1204 58.1667 93.0994 58.1821C93.0624 58.177 93.0335 58.1822 93.0125 58.1977L92.589 57.7821L92.2116 58.06L91.6347 57.321L91.2258 57.6222L90.9133 57.2219L90.5673 57.4766L89.9905 56.7376L89.5501 57.0619L89.2486 56.993C89.2276 57.0084 89.1987 57.0136 89.1617 57.0085C89.1247 57.0034 89.0852 57.0163 89.0433 57.0472L88.3703 56.185L88.0243 56.4398L87.4714 55.7316L87.094 56.0096L86.4931 55.2398L86.1156 55.5177L85.5147 54.7479L85.1058 55.049L84.5289 54.31L84.1829 54.5648L83.6061 53.8258L83.1972 54.1269L82.6443 53.4187L81.8894 53.9746L81.577 53.5743L81.168 53.8754L80.6152 53.1672L80.2378 53.4452L79.9253 53.0449L79.5478 53.3228L79.2464 53.2539C79.1415 53.3311 79.0101 53.3955 78.8523 53.4471C78.7154 53.4832 78.6155 53.5245 78.5526 53.5708L78.2161 53.1397L77.8072 53.4408L77.4169 53.1948L74.7119 55.1867L75.0003 55.5562L74.7116 56.0113L81.1292 64.2327L81.5382 63.9316L81.9118 64.0929C82.0166 64.0157 82.127 63.9668 82.2429 63.9461C82.3638 63.8894 82.4766 63.8224 82.5815 63.7452L82.8699 64.1147L85.0717 62.4934L85.3842 62.8937L86.1706 62.3146L86.5551 62.8073L86.4311 63.0926L86.481 63.3468L78.3657 69.3227L78.0642 69.2538C78.0433 69.2692 78.0143 69.2744 77.9773 69.2693C77.9403 69.2642 77.9008 69.2771 77.8589 69.308L77.4262 68.7538L77.5188 68.4916C77.4227 68.3685 77.3611 68.2684 77.334 68.1913L77.8687 67.7976L77.6043 67.4589L78.7052 66.6482L78.3927 66.2479L79.1476 65.692L64.5096 46.9397L64.1321 47.2177L63.7751 47.1411C63.7332 47.172 63.6937 47.1849 63.6567 47.1798C63.6197 47.1747 63.5803 47.1876 63.5383 47.2185L63.1778 46.7566L60.9445 48.4012L60.6116 48.3554C60.5697 48.3863 60.5302 48.3992 60.4932 48.3941C60.4562 48.389 60.4167 48.4019 60.3748 48.4328L59.9181 47.8477L60.0107 47.5856C59.9786 47.5445 59.9571 47.4958 59.946 47.4393C59.9349 47.3828 59.9134 47.334 59.8813 47.2929L60.3846 46.9223L60.1202 46.5836ZM62.3523 48.2374L62.2894 48.2837L62.1063 48.1761L61.7938 47.7758L62.0769 47.5673L62.3523 48.2374Z" fill="#374824" fill-opacity="0.7"/>
<path d="M91.5767 26.8434L110.394 18.9885L110.649 19.1783C110.697 19.1583 110.779 19.152 110.896 19.1595L110.86 19.1745C110.895 19.1883 110.936 19.1852 110.984 19.1651L111.538 20.4154L111.97 20.2348L112.397 21.1993L112.188 21.4983C112.325 21.8078 112.443 22.1394 112.542 22.4928C112.631 22.8225 112.749 23.154 112.897 23.4874L112.688 23.7864C112.761 23.9531 112.806 24.1179 112.821 24.2809C112.836 24.4438 112.886 24.6206 112.97 24.8111L112.61 24.9615L112.815 25.4259L111.842 25.8322L111.478 25.0106L111.046 25.1912L110.129 23.1193L109.732 23.2849L109.353 22.4276L108.488 22.7887L108.213 22.6496L106.868 23.0842C106.737 23.1105 106.564 23.1688 106.347 23.2591C106.144 23.3155 105.983 23.3688 105.863 23.419L105.673 22.9903L98.6799 25.9096L98.8854 26.374L98.676 26.673C99.0343 27.4827 99.3844 28.3381 99.7262 29.2393C100.058 30.1167 100.418 30.9959 100.808 31.877L100.614 32.2118L101.261 34.058L101.693 33.8774L102.246 35.1277L102.679 34.9471L102.997 35.2799L108.152 33.1281L107.773 32.2707L108.205 32.0902L107.857 31.3043L108.046 31.0561C107.991 30.9947 107.946 30.8298 107.913 30.5616C107.869 30.2695 107.81 30.0402 107.737 29.8735L108.169 29.6929L107.995 29.3L108.104 29.2548L108.358 29.4447C108.455 29.4046 108.532 29.3864 108.59 29.3901L112.147 37.4274L111.678 37.6231L111.489 37.1944L111.056 37.375L110.693 36.5534L110.26 36.734L109.896 35.9124L109.464 36.0929L109.085 35.2356L108.724 35.3861L108.566 35.0289L107.304 35.5556L107.115 35.1269L103.438 36.6618L103.785 37.4476L103.592 37.7823C103.624 37.8538 103.638 37.9183 103.635 37.976L103.126 38.2732L107.109 47.275L107.542 47.0944L107.889 47.8803L108.322 47.6997L108.708 48.0888L116.782 44.7182L116.577 44.2538L118.235 43.5616L118.077 43.2044L118.87 42.8733L118.68 42.4447L119.113 42.2641L118.734 41.4068L118.887 41.1736L118.903 41.2093C118.832 40.985 118.761 40.7606 118.69 40.5362C118.63 40.3357 118.575 40.1471 118.525 39.9703C118.475 39.7936 118.435 39.6695 118.403 39.5981L118.872 39.4024L118.319 38.1522L118.472 37.919C118.429 37.8238 118.405 37.7354 118.397 37.6539L119.046 37.3831L119.301 37.5729C119.349 37.5529 119.455 37.5365 119.621 37.524L120.032 38.4527L120.464 38.2722L122.693 43.3089L122.484 43.6079C122.515 43.6793 122.53 43.7439 122.527 43.8015L122.018 44.0987L122.191 44.4916L121.398 44.8227L121.588 45.2513L121.46 45.3472L121.29 44.8678L103.735 52.196L103.46 52.057C103.412 52.077 103.376 52.0921 103.352 52.1021C103.317 52.0883 103.288 52.0864 103.264 52.0965L102.995 51.4892L102.779 51.5795L102.979 51.4535L102.79 51.0248L103.619 50.6787L103.445 50.2858L104.706 49.7591L104.501 49.2947L104.934 49.1142L104.775 48.757L105.136 48.6065L95.8415 27.6023L95.0485 27.9333L94.8588 27.5047L92.768 28.3774L92.5942 27.9845L92.1616 28.1651L91.9719 27.7364L91.5754 27.9019L91.3699 27.4375L91.5071 27.1686L91.5767 26.8434ZM109.675 29.9108L109.558 30.1289L109.017 30.3546L108.859 29.9974L109.675 29.9108Z" fill="#374824" fill-opacity="0.7"/>
<path d="M145.166 27.4897L145.369 27.2964L145.129 24.8805L144.706 24.953L144.147 21.8783L143.685 21.9574L143.434 20.5737L143.049 20.6397L142.812 19.3329L142.35 19.412L142.266 18.9508L141.804 19.0299L141.644 18.1459L141.22 18.2184L141.137 17.7572L140.636 17.8429L140.469 16.9205L139.583 17.0721L139.349 16.8745C139.323 16.8789 139.295 16.8705 139.265 16.8492C139.234 16.828 139.194 16.8218 139.142 16.8306L139.045 16.2925L138.506 16.3848L138.271 16.1872C138.245 16.1916 138.217 16.1831 138.187 16.1619L137.992 15.5217L136.182 15.8316L135.951 15.4352L130.869 16.3054L130.953 16.7666L130.68 17.0116C130.684 17.0372 130.676 17.065 130.655 17.095C130.66 17.1206 130.664 17.1463 130.669 17.1719L130.105 17.3477L132.603 31.1072L132.218 31.1731L132.609 33.3255L132.994 33.2595L134.117 39.4475L134.579 39.3684L134.834 39.6813C135.014 39.6505 135.198 39.6454 135.387 39.6659C135.602 39.682 135.799 39.6746 135.979 39.6438L136.209 40.0403L139.521 39.4733L139.444 39.0505L140.791 38.8197L140.701 38.3201L142.087 38.0827L142.017 37.6984L142.903 37.5468L142.819 37.0856L143.704 36.9339L143.537 36.0115L143.922 35.9456L143.852 35.5612L144.353 35.4755L144.269 35.0143L144.472 34.821C144.453 34.7185 144.454 34.5732 144.472 34.385C144.491 34.1969 144.496 34.0772 144.487 34.0259L144.987 33.9402L144.827 33.0562L145.016 32.7861C144.979 32.5811 144.985 32.3951 145.034 32.2282C145.078 32.0357 145.082 31.8369 145.044 31.6319L145.43 31.566L145.192 30.2592L145.654 30.1801L145.166 27.4897ZM123.674 15.1597L126.023 14.7575L126.26 15.1924L131.766 14.2496L131.682 13.7884L131.759 13.7752L132.001 14.0113C132.668 13.897 133.368 13.8168 134.101 13.7706C134.829 13.6988 135.565 13.5991 136.309 13.4716L136.379 13.856L137.727 13.6252L137.975 13.8998C138.052 13.8866 138.172 13.8924 138.335 13.9173C138.494 13.9165 138.625 13.9074 138.727 13.8898L138.811 14.351L139.658 14.206L139.914 14.5189C140.042 14.4969 140.162 14.5028 140.274 14.5364C140.407 14.5401 140.538 14.5309 140.666 14.5089L140.869 14.7516C140.895 14.7472 140.989 14.7575 141.152 14.7823L141.25 15.3204L141.635 15.2545L141.838 15.4972C141.915 15.484 142.035 15.4898 142.198 15.5147L142.303 16.0912L142.727 16.0187L142.929 16.2614C142.981 16.2526 143.088 16.2606 143.251 16.2855L143.342 16.7851L143.766 16.7126L144.014 16.9871C144.04 16.9827 144.134 16.993 144.297 17.0178L144.472 17.9787L144.895 17.9062L145.144 18.1807C145.169 18.1763 145.212 18.1953 145.273 18.2378C145.329 18.2546 145.385 18.2714 145.441 18.2883L145.601 19.1723L146.025 19.0998L146.269 20.445L146.731 20.3658L147.059 22.1723L147.483 22.0997L147.873 24.2521L148.374 24.1664L148.967 27.4333L148.655 27.6848C148.72 28.0435 148.767 28.4451 148.794 28.8895C148.822 29.3338 148.873 29.761 148.948 30.171L148.713 30.4093C148.746 30.5887 148.755 30.7852 148.741 30.999C148.722 31.1872 148.729 31.3709 148.761 31.5503L148.488 31.7952C148.525 32.0002 148.537 32.2095 148.523 32.4233C148.509 32.6371 148.518 32.8337 148.55 33.013L148.127 33.0855L148.301 34.0464L148.028 34.2913C148.042 34.3682 148.035 34.4751 148.007 34.612C148 34.7189 148.006 34.8236 148.024 34.9261L147.562 35.0052L147.639 35.4279L147.373 35.7113C147.387 35.7882 147.386 35.8544 147.369 35.9101L146.844 36.0792L146.921 36.502L146.648 36.7469C146.671 36.875 146.666 36.9947 146.634 37.106C146.627 37.2129 146.635 37.3304 146.658 37.4585L145.695 37.6233L145.779 38.0846L145.394 38.1505L145.478 38.6117L145.243 38.85C145.252 38.9013 145.249 38.9547 145.233 39.0104L144.193 39.1884L144.291 39.7264L144.018 39.9714C144.022 39.997 144.014 40.0248 143.993 40.0548C143.972 40.0848 143.966 40.1255 143.975 40.1767L141.242 40.6448L141.325 41.106L129.274 43.1696L129.191 42.7084L128.652 42.8007L128.417 42.603C128.391 42.6074 128.364 42.599 128.333 42.5778C128.303 42.5566 128.262 42.5503 128.211 42.5591L128.092 41.9057L129.016 41.7475L128.932 41.2863L130.203 41.0687L130.126 40.646L131.012 40.4943L130.921 39.9947L131.383 39.9156L128.327 23.0813L128.531 22.888L128.238 19.9658L127.776 20.0449L127.755 19.9296L127.958 19.7363L127.917 18.1978L127.455 18.277L127.288 17.3545L126.787 17.4402L126.553 17.2426C126.348 17.2778 126.151 17.2851 125.962 17.2646C125.794 17.2141 125.62 17.2043 125.44 17.235L125.356 16.7738L123.585 17.0771L123.509 16.6543L123.047 16.7334L122.942 16.1569L123.404 16.0778L123.334 15.6934L123.53 15.4617L123.674 15.1597Z" fill="#374824" fill-opacity="0.7"/>
<path d="M157.683 10.9037L178.043 12.0301L178.183 12.3117C178.235 12.3146 178.311 12.3449 178.412 12.4027L178.373 12.4005C178.398 12.428 178.436 12.4431 178.488 12.446L178.408 13.8108L178.876 13.8367L178.814 14.8896L178.491 15.0673C178.471 15.4053 178.424 15.7548 178.351 16.1159C178.279 16.451 178.232 16.8005 178.211 17.1644L177.888 17.3422C177.877 17.5241 177.841 17.6917 177.78 17.8448C177.719 17.9979 177.682 18.1784 177.67 18.3864L177.28 18.3648L177.25 18.8718L176.197 18.8135L176.25 17.9166L175.782 17.8907L175.914 15.629L175.485 15.6052L175.54 14.6693L174.604 14.6175L174.423 14.3728L173.026 14.1781C172.897 14.1449 172.716 14.1218 172.482 14.1089C172.275 14.0714 172.107 14.049 171.977 14.0419L172.005 13.5739L164.438 13.1553L164.408 13.6622L164.085 13.8399C164.033 14.7238 163.953 15.6453 163.844 16.6043C163.737 17.5373 163.656 18.4847 163.599 19.4466L163.274 19.6633L163.003 21.6045L163.471 21.6304L163.391 22.9952L163.859 23.0211L163.99 23.4587L169.568 23.7673L169.622 22.8314L170.09 22.8573L170.141 21.9994L170.423 21.8585C170.402 21.7791 170.437 21.6115 170.531 21.3559C170.625 21.0742 170.678 20.8424 170.689 20.6604L171.157 20.6863L171.182 20.2574L171.299 20.2639L171.439 20.5455C171.543 20.5512 171.62 20.5685 171.671 20.5974L171.156 29.3714L170.649 29.3433L170.677 28.8754L170.209 28.8495L170.261 27.9526L169.793 27.9267L169.846 27.0298L169.378 27.0039L169.433 26.068L169.043 26.0464L169.065 25.6565L167.7 25.581L167.728 25.113L163.75 24.8929L163.699 25.7508L163.373 25.9675C163.369 26.0455 163.352 26.1098 163.323 26.1603L162.733 26.2059L162.157 36.0328L162.625 36.0587L162.575 36.9166L163.043 36.9425L163.208 37.4602L171.945 37.9436L171.974 37.4367L173.769 37.5359L173.791 37.146L174.65 37.1935L174.677 36.7255L175.145 36.7514L175.2 35.8155L175.443 35.6725L175.441 35.7115C175.48 35.479 175.52 35.2464 175.56 35.0139C175.598 34.8074 175.636 34.6138 175.672 34.4333C175.709 34.2527 175.73 34.1235 175.734 34.0455L176.241 34.0735L176.321 32.7087L176.564 32.5657C176.57 32.4617 176.589 32.3714 176.619 32.2948L177.321 32.3337L177.461 32.6153C177.513 32.6182 177.616 32.6499 177.769 32.7105L177.709 33.7244L178.177 33.7503L177.855 39.2487L177.532 39.4264C177.527 39.5044 177.51 39.5687 177.481 39.6192L176.891 39.6648L176.866 40.0938L176.008 40.0463L175.981 40.5143L175.822 40.5446L175.891 40.0398L156.897 38.9889L156.716 38.7441C156.664 38.7413 156.625 38.7391 156.599 38.7377C156.574 38.7102 156.549 38.6958 156.523 38.6943L156.562 38.0314L156.328 38.0185L156.564 37.9924L156.591 37.5245L157.489 37.5741L157.514 37.1452L158.879 37.2207L158.908 36.7138L159.377 36.7397L159.399 36.3497L159.789 36.3713L161.134 13.4419L160.276 13.3945L160.304 12.9265L158.041 12.8013L158.067 12.3724L157.599 12.3465L157.626 11.8786L157.197 11.8548L157.227 11.3479L157.472 11.1658L157.683 10.9037ZM172.398 21.5375L172.194 21.6827L171.609 21.6503L171.632 21.2603L172.398 21.5375Z" fill="#374824" fill-opacity="0.7"/>
<path d="M191.478 13.7257L193.318 14.2555L193.414 14.6084C193.99 14.7742 194.583 14.9721 195.193 15.2021C195.803 15.4322 196.434 15.6409 197.085 15.8283L197.155 16.1331C197.205 16.1475 197.272 16.194 197.357 16.2727L197.32 16.2619C197.337 16.294 197.371 16.3172 197.421 16.3317L197.147 17.2283L197.523 17.3364L197.249 18.233L197.737 18.3736L197.486 19.1955L197.899 19.3145L197.969 19.6192C198.019 19.6336 198.111 19.6874 198.246 19.7804L197.824 21.1627L198.2 21.2709L197.926 22.1675L198.376 22.2973L198.447 22.602C198.497 22.6164 198.589 22.6702 198.724 22.7632L198.427 23.7346L198.803 23.8427L198.54 24.702L199.028 24.8425L198.766 25.7018L199.179 25.8208L198.905 26.7174L199.356 26.8471L199.426 27.1519C199.451 27.1591 199.531 27.2092 199.666 27.3023L199.506 27.8253L200.032 27.9767L199.769 28.836L200.145 28.9441L199.882 29.8034L200.333 29.9331L200.07 30.7924L200.521 30.9222L200.591 31.2269C200.641 31.2413 200.734 31.2951 200.868 31.3881L200.572 32.3595L200.947 32.4676L200.833 32.8412L201.284 32.971L201.021 33.8302L201.472 33.96L201.209 34.8193L201.585 34.9274L201.681 35.2803C201.706 35.2875 201.786 35.3377 201.921 35.4307L201.761 35.9538L202.212 36.0835L201.949 36.9428L202.813 37.1915L202.909 37.5444L203.914 37.9966L207.439 26.4525L206.989 26.3227L208.05 22.8483L207.6 22.7186L207.873 21.8219L207.385 21.6814L207.266 21.4031L207.304 21.4139L206.651 21.1446C206.483 21.0692 206.316 20.9939 206.148 20.9185C206.006 20.8504 205.909 20.8091 205.859 20.7946L205.996 20.3463L205.133 20.0976L205.258 19.6867L204.395 19.438L204.68 18.504L204.962 18.3821C204.993 18.2825 205.032 18.1989 205.08 18.1314L213.525 20.5642L213.633 20.8798C213.666 20.8621 213.7 20.8854 213.734 20.9496C213.769 21.0138 213.812 21.0531 213.862 21.0676L213.542 22.1136L213.223 22.2247C213.207 22.2745 213.176 22.3332 213.128 22.4007L212.115 22.1088L211.978 22.5571L211.114 22.3084L210.453 24.4753L210.144 24.549L209.389 26.4858L209.802 26.6048L209.403 27.9123L208.922 28.0176L206.115 37.208L206.528 37.327L203.711 46.5548L203.391 46.6659C203.383 46.6908 203.363 46.7121 203.33 46.7298C203.298 46.7475 203.274 46.7813 203.259 46.8311L202.358 46.5716L202.221 47.0199L201.62 46.8469L201.757 46.3986L201.344 46.2796L201.225 46.0014C201.2 45.9942 201.175 45.987 201.15 45.9798C201.133 45.9477 201.111 45.928 201.086 45.9208L201.205 45.2641L200.755 45.1343L200.994 44.3498L200.544 44.22L200.818 43.3234L200.405 43.2044L200.656 42.3825L200.168 42.242L200.442 41.3453L200.066 41.2372L200.317 40.4153L199.904 40.2964L200.178 39.3997L199.728 39.27L200.15 37.8877L199.737 37.7687L199.851 37.3951L199.401 37.2654L199.788 35.9952L199.375 35.8762L199.512 35.4279L199.024 35.2873L199.298 34.3907L198.885 34.2718L198.766 33.9936C198.741 33.9863 198.716 33.9791 198.691 33.9719C198.674 33.9398 198.652 33.9202 198.627 33.9129L198.86 32.8826L198.447 32.7637L198.71 31.9044L198.184 31.753L198.447 30.8938L198.034 30.7748L198.171 30.3265L197.72 30.1967L197.983 29.3375L197.57 29.2185L197.821 28.3966L197.37 28.2669L197.644 27.3702L197.231 27.2513L197.368 26.803L196.993 26.6949L197.255 25.8356L196.767 25.695L197.029 24.8358L196.617 24.7168L196.879 23.8576L196.391 23.717L196.272 23.4388C196.222 23.4244 196.184 23.4135 196.159 23.4063C196.142 23.3742 196.12 23.3546 196.095 23.3473L196.426 22.2639L195.563 22.0152L195.677 21.6416L194.438 21.2848L194.165 22.1815L193.706 22.212L189.976 34.4285L190.388 34.5475L189.202 38.4329L189.653 38.5626L189.379 39.4593L189.829 39.589L189.926 39.9419C190.101 39.9924 190.268 40.0678 190.428 40.168C190.613 40.2755 190.806 40.3581 191.006 40.4158L190.892 40.7894L192.581 41.2759L192.666 41.6662C192.691 41.6734 192.771 41.7236 192.906 41.8166L192.758 42.3023L193.133 42.4104L192.836 43.3818L190.322 42.6573L190.196 43.0683L184.04 41.295L183.883 41.006C183.783 40.9772 183.666 40.9162 183.531 40.8232C183.396 40.7301 183.303 40.6763 183.253 40.6619L183.561 39.6532L184.012 39.783L184.137 39.372L184.408 39.2875C184.423 39.2376 184.451 39.1914 184.491 39.1488C184.539 39.0813 184.571 39.0227 184.586 38.9728L185.186 39.1458L185.301 38.7723L185.676 38.8804L185.813 38.4321L186.714 38.6916L193.285 17.1724L192.834 17.0427L192.971 16.5944L190.794 15.9672L190.919 15.5563L190.507 15.4373L190.929 14.055L191.199 13.9705L191.478 13.7257ZM182.719 39.7358L183.527 39.7653L183.424 40.1015L182.719 39.7358Z" fill="#374824" fill-opacity="0.7"/>
<path d="M247.775 48.6425L248.977 49.5779L248.729 49.8793L250.147 50.9825L250.102 51.3435C250.513 51.6633 250.939 52.0271 251.378 52.4351C251.818 52.843 252.274 53.2308 252.747 53.5986L252.702 53.9596C252.785 54.0236 252.838 54.0816 252.863 54.1337L252.49 54.5857L252.86 54.8735L251.717 56.2599L252.087 56.5477L251.117 57.7231L250.747 57.6819C250.614 57.8426 250.469 57.9774 250.312 58.086C250.155 58.1947 250.018 58.3193 249.903 58.46L248.361 57.2608L248.908 56.5978L248.538 56.31L249.159 55.5565L248.851 55.3167L249.695 54.292L249.325 54.0042L249.648 53.6124L248.539 52.749L248.689 52.3215L244.218 48.8439L243.944 49.1755L243.235 48.6238L242.887 49.0458L242.547 49.0286C242.514 49.0688 242.471 49.101 242.417 49.1251L241.924 48.7414L241.327 49.4647L241.019 49.2249L239.578 50.9729L239.886 51.2128L239.339 51.8758L239.74 52.1876L239.695 52.5486C239.736 52.5806 239.782 52.6486 239.831 52.7528L239.483 53.1747L240.531 53.9902L240.258 54.3217L242.848 56.3363L242.797 56.6432C243.105 56.883 243.418 57.1589 243.734 57.4709C244.05 57.7829 244.383 58.0748 244.733 58.3466L244.688 58.7077C244.791 58.7876 244.908 58.9116 245.039 59.0797C245.17 59.2478 245.318 59.3958 245.483 59.5237L245.438 59.8848C245.541 59.9647 245.617 60.0568 245.666 60.1609C245.752 60.2609 245.847 60.3509 245.949 60.4309L245.626 60.8227L246.336 61.3743L246.062 61.7058L246.401 61.9696L246.357 62.3306C246.377 62.3466 246.433 62.4227 246.523 62.5588L246.2 62.9506L246.57 63.2384L246.5 63.6296C246.521 63.6456 246.576 63.7216 246.666 63.8577L245.772 64.9427L246.08 65.1825L244.564 67.021L244.256 66.7811L243.908 67.2031L243.537 67.1619C243.52 67.182 243.494 67.1941 243.456 67.1982C243.419 67.2023 243.384 67.2245 243.351 67.2646L242.919 66.9289L242.298 67.6823L241.927 67.6412C241.911 67.6612 241.884 67.6733 241.847 67.6774C241.81 67.6815 241.774 67.7037 241.741 67.7439L241.341 67.4321L241.042 67.7938L240.333 67.2421L240.01 67.6339L239.608 67.5688C239.592 67.5889 239.565 67.601 239.528 67.6051C239.491 67.6092 239.456 67.6313 239.422 67.6715L238.621 67.0479L238.298 67.4397L236.201 65.8089L235.953 66.1102L233.301 64.0477L233.549 63.7463L231.453 62.1154L231.776 61.7236L230.758 60.9322L230.435 61.324L229.264 60.4126L229.587 60.0208L229.186 59.709L229.181 59.4083C229.16 59.3923 229.14 59.3763 229.119 59.3603C229.115 59.3242 229.103 59.2982 229.082 59.2822L229.418 58.752L229.048 58.4642L230.216 57.0477L229.908 56.8079L230.231 56.4161L230.539 56.6559L231.409 55.6011L231.317 55.5291L231.434 55.5709L232.005 54.8777L232.375 55.1655L232.699 54.7738L233.5 55.3973L233.456 55.7583C233.476 55.7743 233.531 55.8504 233.622 55.9865L233.274 56.4084L233.644 56.6962L232.774 57.7511L233.144 58.0389L232.572 58.7321L232.942 59.0199L232.898 59.3809C232.959 59.4289 233.003 59.4789 233.027 59.5309L232.654 59.983L233.394 60.5586L233.35 60.9196C233.452 60.9996 233.518 61.0836 233.547 61.1718C233.612 61.2558 233.707 61.3458 233.83 61.4418L233.507 61.8336L238.132 65.4311L238.43 65.0694L239.139 65.621L239.438 65.2594L240.178 65.835L240.476 65.4733L240.784 65.7131L241.331 65.0501L241.701 65.3379L244.012 62.535L243.611 62.2232L243.606 61.9225C243.544 61.8745 243.468 61.7825 243.378 61.6464C243.309 61.5262 243.253 61.4502 243.212 61.4182L243.535 61.0264L242.456 60.187L242.729 59.8555L241.28 58.7283L241.578 58.3666L238.68 56.1122L238.675 55.8114C238.552 55.7155 238.406 55.5855 238.237 55.4215C238.086 55.2374 237.965 55.0773 237.874 54.9412L238.197 54.5494L237.488 53.9978L237.737 53.6964L236.997 53.1208L237.32 52.729L236.95 52.4412L236.945 52.1405C236.924 52.1245 236.904 52.1085 236.883 52.0925C236.879 52.0564 236.867 52.0304 236.846 52.0144L237.207 51.4541L236.868 51.1903L237.39 50.5574L237.02 50.2696L237.616 49.5462L237.246 49.2584L238.24 48.0529L238.555 48.1002C238.638 47.9998 238.705 47.9194 238.754 47.8591C238.841 47.7947 238.928 47.7304 239.015 47.666L239.455 47.316L239.825 47.6038L240.123 47.2421L240.463 47.506L240.761 47.1443L241.131 47.4321L241.429 47.0704L241.713 47.0938C241.746 47.0536 241.782 47.0315 241.819 47.0273C241.856 47.0232 241.891 47.0011 241.924 46.9609L242.417 47.3447L242.716 46.983L243 47.0063C243.033 46.9662 243.077 46.934 243.13 46.9098C243.184 46.8856 243.227 46.8534 243.261 46.8132L244.062 47.4368L244.36 47.0751L245.1 47.6507L245.399 47.289L247.526 48.9439L247.775 48.6425ZM237.868 54.8871C237.852 54.9072 237.833 54.9092 237.813 54.8932C237.813 54.8932 237.821 54.8832 237.838 54.8631L237.868 54.8871ZM249.471 58.1242L248.814 58.553L248.752 58.505L249.224 57.9324L249.471 58.1242Z" fill="#374824" fill-opacity="0.7"/>
<path d="M273.771 61.3426L274.742 62.4657L274.632 62.7567C274.734 62.875 274.791 62.9801 274.802 63.0721C274.849 63.1674 274.924 63.2741 275.027 63.3923L274.603 63.7379L274.935 64.1221L274.632 64.3689L274.913 64.694L273.369 65.9528L273.039 65.8693C273.018 65.8858 272.99 65.8924 272.953 65.8891C272.915 65.8859 272.877 65.9007 272.836 65.9336L272.453 65.4903L272.029 65.8358L271.774 65.5403L271.441 65.8118L271.06 65.6692C271.039 65.6856 270.952 65.7235 270.797 65.7829L270.107 64.9848L269.774 65.2563L269.416 64.8426L269.47 64.5467C269.334 64.3891 269.235 64.2347 269.173 64.0835C269.132 63.916 269.043 63.7534 268.906 63.5957L269.3 63.2749L268.968 62.8906L269.271 62.6438L268.99 62.3187L270.534 61.0599L270.808 61.1385C270.889 61.0727 271.017 61.0019 271.192 60.9261C271.368 60.8504 271.476 60.796 271.516 60.7631L271.874 61.1769L272.176 60.9301L272.432 61.2256L272.825 60.9048L273.438 61.6141L273.771 61.3426ZM266.406 66.793L267.019 67.5024L266.93 67.8772C267.015 67.9757 267.081 68.0726 267.129 68.1679C267.194 68.2828 267.249 68.406 267.294 68.5375L266.234 69.4013L266.566 69.7856L266.142 70.1311L265.689 69.8456L254.184 79.2247L254.516 79.6089L254.183 79.8804L254.77 80.5602L254.656 80.9054C255.405 81.7724 256.126 82.646 256.817 83.5261C257.526 84.426 258.298 85.3587 259.132 86.3242L259.022 86.6152C259.142 86.7531 259.206 86.8681 259.217 86.9601C259.245 87.0718 259.318 87.1967 259.438 87.3346L258.59 88.0257L258.209 87.8831C258.188 87.8996 258.16 87.9062 258.123 87.9029C258.102 87.9194 258.082 87.9358 258.062 87.9523L257.363 87.2627L257.03 87.5342L256.008 86.352L256.239 85.9623L246.304 74.4651L246.001 74.7119L245.974 74.3816C245.905 74.3028 245.84 74.1878 245.779 74.0367C245.717 73.8855 245.669 73.7903 245.635 73.7508L246.816 72.7883L247.12 72.8422C247.201 72.7764 247.28 72.7286 247.358 72.699L250.448 76.2752L250.812 75.979L251.399 76.6588L251.732 76.3873L252.345 77.0967L263.608 67.915L262.689 66.851L263.082 66.5302L260.477 63.5155L260.083 63.8363L259.419 63.0679L259.813 62.747L259.506 62.3923L259.56 62.0965C259.543 62.0768 259.516 62.0653 259.479 62.062C259.479 62.062 259.471 62.0522 259.454 62.0325C259.419 61.9931 259.465 61.9059 259.589 61.7711C259.733 61.6197 259.856 61.5029 259.957 61.4206L260.289 61.8049L260.652 61.5087L263.002 64.2278L263.305 63.981L266.012 67.1139L266.406 66.793ZM245.46 72.5332L246.009 72.6905L246.392 73.1338L246.15 73.3313L245.46 72.5332Z" fill="#374824" fill-opacity="0.7"/>
<path d="M269.415 90.6313L269.639 91.0431L268.04 91.8631L268.264 92.2749L267.499 92.6671L267.704 93.0446L267.485 93.3766C267.51 93.4224 267.524 93.5029 267.527 93.6182L267.509 93.5839C267.498 93.6187 267.505 93.6589 267.53 93.7047L266.661 94.1503L266.847 94.4935L266.663 94.8077C266.687 94.8535 266.714 94.9569 266.742 95.1179L266.256 95.3675L266.461 95.745L266.079 95.9411L266.508 96.7304L266.323 97.0446C266.559 97.4793 266.766 97.9144 266.944 98.35C267.134 98.8085 267.366 99.2894 267.639 99.7928L267.471 100.055L268.059 101.465L268.441 101.268L269.318 102.881L269.735 102.668L270.183 103.491L270.566 103.295L270.789 103.707L271.207 103.493L271.393 103.836L275.078 101.947L275.32 102.393L281.681 99.1307L281.438 98.6845L283.107 97.8289L282.696 97.0739L283.113 96.86L282.647 96.002L282.762 95.7235C282.663 95.5404 282.599 95.3684 282.57 95.2073C282.565 95.0344 282.513 94.8564 282.413 94.6734L282.865 94.4417L280.944 90.9068L280.492 91.1386L279.82 89.9031L279.438 90.0992L279.009 89.3098L278.591 89.5238L278.144 88.7001L277.344 89.1101L277.158 88.7669L276.671 89.0165L276.348 88.8311C276.325 88.8429 276.295 88.8434 276.26 88.8324C276.237 88.8443 276.214 88.8562 276.19 88.868L275.841 88.3889L275.007 88.8167L274.684 88.6313C274.522 88.7145 274.335 88.7807 274.125 88.8301C273.915 88.8794 273.729 88.9456 273.566 89.0288L273.243 88.8434L269.415 90.6313ZM296.066 92.8062L296.757 94.076L295.575 94.682L295.762 95.0252L294.858 95.4887L294.671 95.1455L292.273 96.3755L292.46 96.7187L292.008 96.9504L291.821 96.6072L273.191 106.162L273.377 106.505L272.543 106.933L273.663 108.992L273.28 109.188L273.728 110.012L272.79 110.493L272.467 110.308C272.443 110.32 272.414 110.32 272.378 110.309C272.355 110.321 272.332 110.333 272.309 110.345L271.288 108.63L270.906 108.826L270.271 107.659L269.819 107.891L268.887 106.175L269.338 105.943L267.883 103.266L267.431 103.498L266.554 101.885L266.172 102.081L263.691 97.5169L263.806 97.2384C263.768 97.1697 263.736 97.0549 263.707 96.8938C263.692 96.7557 263.671 96.6637 263.646 96.6179L264.133 96.3684L263.666 95.5104L263.782 95.2319C263.769 95.209 263.745 95.1921 263.71 95.1811C263.71 95.1811 263.703 95.1696 263.691 95.1467C263.679 95.1239 263.672 95.1124 263.672 95.1124C263.696 95.1005 263.701 95.0832 263.688 95.0603L264.242 94.6886L263.85 93.9679L264.233 93.7718L263.99 93.3257L264.407 93.1118L264.183 92.6999L264.298 92.4214C264.286 92.3985 264.262 92.3816 264.226 92.3706C264.226 92.3706 264.22 92.3591 264.208 92.3363C264.195 92.3134 264.189 92.3019 264.189 92.3019C264.212 92.2901 264.218 92.2727 264.205 92.2498L265.141 91.682L264.955 91.3388L265.406 91.1071L265.183 90.6953L266.051 90.2496L265.828 89.8378L267.392 89.0357L267.168 88.6238L271.304 86.5025L271.528 86.9144L272.779 86.2726L273.03 86.4073C273.239 86.3003 273.489 86.2158 273.781 86.1537L274.201 86.0262L274.443 86.4724L275.312 86.0267L275.499 86.3699L275.847 86.1917L276.089 86.6378L276.506 86.4239L276.792 86.5407C276.885 86.4932 276.972 86.463 277.054 86.4502L277.371 87.0336L277.788 86.8197L277.975 87.1629L278.392 86.949L278.643 87.0836C278.736 87.0361 278.823 87.0059 278.905 86.9932L279.427 87.9541L279.81 87.758L280.239 88.5473L280.691 88.3156L281.138 89.1392L281.521 88.9432L284.636 94.6744L284.468 94.9365L285.262 96.7237L286.443 96.1176L286.686 96.5638L288.25 95.7616L288.007 95.3155L289.711 94.442L289.953 94.8881L291.9 93.8899L291.657 93.4437L292.456 93.0337L291.803 91.8326L291.919 91.554L291.463 90.471C291.424 90.3447 291.361 90.2015 291.274 90.0413C291.223 89.8922 291.166 89.7604 291.104 89.646L292.007 89.1825L292.25 89.6287L292.702 89.3969L293.131 90.1863L293.513 89.9902L294.577 91.9464L295.029 91.7146L295.719 92.9844L296.066 92.8062Z" fill="#374824" fill-opacity="0.7"/>
<path d="M289.944 127.221L290.062 127.634L291.307 127.3L291.189 126.887L292.019 126.664L291.88 126.176L292.129 125.907C292.121 125.882 292.127 125.853 292.145 125.821C292.163 125.79 292.165 125.749 292.151 125.699L292.716 125.547L292.578 125.058L293.445 124.825L293.189 123.924L293.362 123.675C293.355 123.65 293.36 123.622 293.378 123.59C293.396 123.558 293.398 123.517 293.384 123.467L293.987 123.305L293.592 121.915L293.964 121.653L292.81 117.595L292.395 117.707L292.138 116.805L291.61 116.947L291.336 116.697C291.311 116.704 291.282 116.698 291.25 116.68C291.217 116.661 291.176 116.659 291.126 116.672L290.976 116.146L290.523 116.268L290.212 116.028C290.136 116.048 290.07 116.053 290.012 116.041L289.873 115.553L289.383 115.684L289.136 115.387C289.078 115.375 289.021 115.364 288.963 115.352C288.938 115.359 288.888 115.372 288.813 115.392L288.674 114.904L287.844 115.127L287.478 114.699L284.724 115.438L286.958 123.291L287.335 123.189L288.458 127.134L288.948 127.003L289.076 127.454L289.944 127.221ZM294.626 116.987L296.155 122.359L295.906 122.628C295.942 122.753 295.949 122.873 295.927 122.987C295.93 123.094 295.95 123.21 295.986 123.335L295.737 123.604C295.766 123.704 295.769 123.811 295.747 123.925C295.758 124.057 295.781 124.185 295.816 124.31L295.364 124.432L295.503 124.92L295.254 125.189C295.283 125.289 295.286 125.396 295.264 125.51C295.25 125.649 295.257 125.768 295.285 125.868L294.832 125.99L294.961 126.441L294.739 126.662C294.768 126.762 294.777 126.841 294.766 126.897L294.2 127.049L294.339 127.538L293.433 127.781L293.551 128.194L293.302 128.463C293.317 128.513 293.32 128.62 293.312 128.784L292.332 129.047L292.449 129.46L291.166 129.805L291.295 130.255L288.465 131.015L288.191 130.765C288.141 130.778 288.087 130.779 288.029 130.768L287.623 129.34L287.17 129.461L283.921 118.04L283.468 118.161L282.838 115.944L282.385 116.066L282.278 115.69L280.203 116.247L280.31 116.623L279.405 116.866L279.544 117.354L278.638 117.597L278.756 118.011L278.534 118.232C278.563 118.332 278.575 118.423 278.571 118.505L278.593 118.58L278.027 118.732L278.134 119.108L277.885 119.376C277.907 119.452 277.914 119.571 277.906 119.735C277.924 119.892 277.947 120.02 277.975 120.121L277.485 120.252L277.741 121.154L277.326 121.265L277.818 122.994L277.419 123.303L278.594 127.436L279.047 127.314L279.795 129.944L280.21 129.833L280.585 131.148L281.037 131.027L281.401 132.304L281.853 132.183L282.142 133.197L281.894 133.466C281.901 133.491 281.901 133.585 281.893 133.749L281.289 133.911L280.977 133.671C280.927 133.685 280.886 133.682 280.854 133.664C280.821 133.646 280.78 133.643 280.73 133.657L280.58 133.131L280.127 133.252L279.881 132.388L279.466 132.5L279.21 131.598L278.757 131.719L278.255 129.953L277.84 130.065L277.348 128.337L276.858 128.468L276.238 126.289L275.823 126.4L274.775 122.718L274.948 122.47L274.959 122.507L274.842 121.811C274.81 121.604 274.782 121.409 274.757 121.227C274.74 121.07 274.72 120.954 274.699 120.879L275.189 120.747L274.804 119.394L274.977 119.146C274.956 119.071 274.949 118.951 274.957 118.787C274.971 118.649 274.971 118.554 274.957 118.504L275.448 118.373L275.309 117.884L275.724 117.773L275.606 117.36L276.059 117.238L275.802 116.336L275.975 116.088C275.968 116.063 275.974 116.034 275.992 116.002C276.01 115.971 276.011 115.93 275.997 115.88L276.978 115.616L276.839 115.128L277.33 114.996L277.212 114.583L278.155 114.33L278.016 113.841L280.205 113.254L280.098 112.878L283.267 112.028L283.374 112.404L285.562 111.816L285.701 112.305L286.531 112.082L286.784 112.257C286.884 112.23 287.017 112.221 287.182 112.231C287.347 112.24 287.468 112.235 287.543 112.215L287.693 112.741L288.598 112.498L288.813 112.683C288.864 112.669 288.917 112.668 288.975 112.68C289.032 112.691 289.086 112.69 289.136 112.677L289.297 113.241L289.75 113.119L289.867 113.532L290.773 113.289L290.988 113.474C291.088 113.447 291.18 113.436 291.262 113.441L291.444 114.08L291.859 113.968L292.094 114.795L292.585 114.663L292.841 115.565L293.256 115.454L293.502 116.318L293.917 116.206L294.174 117.108L294.626 116.987Z" fill="#374824" fill-opacity="0.7"/>
<path d="M300.057 151.642L300.199 154.92L299.895 155.128C299.896 155.154 299.874 155.246 299.829 155.404L299.321 155.425L299.359 156.283L299.055 156.491C299.06 156.621 299.039 156.739 298.992 156.846C298.971 156.977 298.964 157.107 298.97 157.237L298.462 157.258L298.483 157.726L298.092 157.742L298.111 158.172L297.807 158.379C297.808 158.405 297.786 158.498 297.741 158.656L296.726 158.697L296.748 159.205L295.343 159.262L295.363 159.73L282.6 160.251L282.619 160.68L282.315 160.888C282.331 161.252 282.32 161.604 282.283 161.945C282.245 162.285 282.234 162.637 282.25 163.002L281.985 163.208C281.99 163.312 281.968 163.417 281.921 163.523C281.874 163.655 281.853 163.774 281.858 163.878L280.336 163.94L280.299 163.081L279.869 163.099L279.744 160.211L279.97 160.006C279.936 159.226 279.943 158.482 279.991 157.777C280.013 157.072 280.008 156.369 279.978 155.666L280.993 155.625L281.013 156.093L281.481 156.074L281.5 156.503L281.968 156.484L281.988 156.953L282.457 156.933L282.623 157.161C283.43 157.128 284.29 157.119 285.202 157.134C286.117 157.175 287.029 157.177 287.94 157.14L287.958 157.569L292.837 157.37L292.818 156.941L295.121 156.847L295.103 156.418L296.078 156.378L296.058 155.91L296.448 155.894L296.43 155.464L296.937 155.444L296.915 154.936L297.141 154.732C297.138 154.654 297.158 154.522 297.202 154.338C297.248 154.18 297.269 154.075 297.267 154.023L297.813 154.001L297.643 150.059L297.135 150.08L297.095 149.143L296.666 149.161L296.607 147.795L296.099 147.815L296.059 146.879L295.668 146.895L295.609 145.529L294.595 145.57L294.386 145.266C293.735 145.292 293.084 145.293 292.431 145.267C291.804 145.241 291.166 145.241 290.515 145.267L290.3 144.807L284.679 145.036L284.7 145.504L281.968 145.616L281.988 146.084L281.684 146.292C281.699 146.63 281.687 146.97 281.65 147.31C281.614 147.676 281.603 148.042 281.619 148.406L281.353 148.573C281.358 148.703 281.337 148.821 281.29 148.928C281.243 149.06 281.223 149.191 281.228 149.321L280.721 149.342L280.741 149.81L280.195 149.832L280.175 149.364L279.706 149.383L279.367 141.539L279.836 141.52L279.814 141.012L279.965 140.889L279.971 141.045L280.83 141.01L280.85 141.478L281.319 141.459L281.357 142.357L281.826 142.338L282.002 142.8L296.365 142.214L296.343 141.707L296.569 141.502C296.549 141.034 296.554 140.551 296.585 140.055C296.643 139.583 296.659 139.061 296.634 138.489L297.142 138.468L297.123 138.039L297.631 138.018L297.797 138.246C297.823 138.245 297.862 138.243 297.914 138.241C297.992 138.238 298.058 138.248 298.111 138.272L298.158 139.365L298.626 139.346L298.726 141.648L299.116 141.633L299.199 143.545L298.809 143.561L298.829 144.029L298.525 144.237C298.529 144.341 298.52 144.42 298.496 144.473L297.52 144.512L297.633 147.127L298.024 147.111L298.044 147.58L298.512 147.561L298.553 148.497L299.021 148.478L299.1 150.312L299.491 150.296L299.55 151.662L300.057 151.642ZM280.559 154.626L280.891 155.082L280.915 155.628L280.602 155.641L280.559 154.626ZM280.46 140.595L279.953 140.616C280.059 140.664 280.1 140.701 280.075 140.728C280.05 140.755 280.039 140.795 280.041 140.847L279.963 140.85L279.929 140.069L280.46 140.595ZM280.663 149.813L280.378 150.45L280.417 150.449L280.351 149.826L280.663 149.813Z" fill="#374824" fill-opacity="0.7"/>
<path d="M301.357 205.322L301.025 206.199L300.661 206.276C300.643 206.325 300.581 206.414 300.477 206.542L299.999 206.371L299.86 206.737L287.869 202.451L288.007 202.086L286.793 201.652L286.655 202.017L285.294 201.531L285.432 201.166L284.255 200.745L284.117 201.11L282.719 200.611L282.857 200.246L280.871 199.536L280.733 199.901L279.776 199.559L279.915 199.194L275.721 197.695L275.583 198.061L274.737 197.758L274.571 198.197L274.258 198.251C274.249 198.275 274.192 198.352 274.087 198.48L273.536 198.283L271.128 204.639L270.76 204.508L270.594 204.946L269.233 204.46L275.017 189.19L275.385 189.322L275.717 188.445L276.71 188.8L276.544 189.238L276.912 189.37L275.321 193.571L275.799 193.742L275.481 194.582L275.885 194.726L275.719 195.165L283.297 197.873L283.463 197.434L284.456 197.789L284.29 198.228L290.102 200.305L290.268 199.866L293.358 200.971L293.192 201.409L298.636 203.354L298.802 202.916L299.17 203.048L300.401 199.796L300.033 199.665L301.016 197.071L301.825 197.361L301.991 196.922L302.543 197.119L302.377 197.558L302.745 197.689L302.606 198.055L303.085 198.225L301.327 202.865L301.732 203.009L300.915 205.164L301.357 205.322ZM277.712 190.236L277.16 190.371L276.608 190.173L276.718 189.881L277.712 190.236Z" fill="#374824" fill-opacity="0.7"/>
<path d="M281.219 220.745L280.969 221.141L279.425 220.222L279.174 220.619L278.802 220.624C278.76 220.69 278.714 220.739 278.664 220.769L277.791 220.25L277.541 220.646L277.202 220.671C277.188 220.694 277.117 220.757 276.989 220.863L276.485 220.563L276.027 221.29L275.708 221.282C275.625 221.414 275.533 221.511 275.433 221.572C275.341 221.669 275.26 221.773 275.191 221.883L274.754 221.623L272.67 224.927L273.073 225.166L272.551 225.992L272.921 226.212L272.671 226.609L273.107 226.868L272.898 227.199L273.268 227.418L272.767 228.211L273.506 228.651L273.256 229.047L273.692 229.307L273.463 229.67L273.832 229.89L273.737 230.333L279.342 233.67L279.572 233.307L280.377 233.786L280.606 233.423L281.345 233.863L281.595 233.466L282.401 233.946L282.63 233.582L283.033 233.822L283.304 233.393L283.639 233.592L284.119 232.833L284.458 232.807C284.569 232.631 284.696 232.479 284.838 232.352C284.988 232.26 285.119 232.125 285.23 231.949L285.633 232.189L287.051 229.943L286.648 229.703L287.107 228.976L286.704 228.736L287.204 227.943L286.868 227.744L287.327 227.017L286.891 226.757L286.869 226.426C286.846 226.413 286.831 226.388 286.822 226.353C286.814 226.318 286.787 226.287 286.743 226.26L287.055 225.764L286.283 225.305L286.492 224.975L286.055 224.715L286.054 224.351C285.696 224.137 285.352 223.902 285.022 223.645C284.692 223.388 284.336 223.146 283.956 222.92L283.955 222.556L281.219 220.745ZM288.508 231.219L287.486 232.838L287.114 232.843C287.002 233.019 286.869 233.182 286.713 233.332C286.557 233.481 286.423 233.644 286.312 233.82L285.994 233.812C285.897 233.967 285.777 234.107 285.635 234.235C285.479 234.385 285.345 234.547 285.234 234.724L284.862 234.729C284.792 234.839 284.714 234.914 284.628 234.953C284.527 235.015 284.442 235.101 284.373 235.211L284.055 235.203C284.041 235.225 283.97 235.289 283.842 235.394L283.372 235.114L282.871 235.907L282.553 235.9C282.525 235.944 282.447 236.018 282.319 236.124L281.446 235.604L281.217 235.968L280.881 235.768L280.631 236.164L279.826 235.685L279.596 236.048L278.858 235.609L278.608 236.005L277.802 235.526L277.573 235.889L275.626 234.73L275.376 235.126L269.032 231.35L269.031 230.986C268.83 230.866 268.62 230.711 268.401 230.52C268.205 230.343 267.995 230.188 267.772 230.055L268.001 229.691L266.423 228.752L266.422 228.388C266.199 228.255 265.978 228.093 265.759 227.902C265.563 227.725 265.353 227.57 265.13 227.437L265.074 227.085C264.985 227.032 264.898 226.95 264.814 226.84C264.738 226.764 264.656 226.7 264.566 226.647L264.837 226.217L264.031 225.738L264.261 225.374L263.858 225.134L263.857 224.77C263.745 224.704 263.658 224.622 263.597 224.524C263.543 224.462 263.461 224.398 263.349 224.332L263.599 223.935L263.163 223.675L263.182 223.278C263.115 223.238 263.04 223.163 262.956 223.052C262.88 222.977 262.797 222.913 262.708 222.859L262.958 222.463L262.522 222.203L262.73 221.873L262.327 221.633L262.326 221.269C262.304 221.256 262.289 221.231 262.28 221.196C262.258 221.183 262.235 221.169 262.213 221.156L262.458 220.62L262.123 220.421L262.088 220.036C262.021 219.996 261.972 219.952 261.941 219.903L262.145 219.434L261.776 219.214L262.297 218.388L261.894 218.149L262.353 217.422L261.95 217.182L262.45 216.389L262.115 216.189L262.615 215.397L262.212 215.157L262.9 214.067L262.531 213.847L263.511 212.294L263.074 212.034L263.103 211.915L263.552 212.228L264.532 210.675L265.774 211.415L265.274 212.208L265.643 212.427L264.684 213.947L265.087 214.187L264.378 215.31L264.714 215.51L264.005 216.633L264.441 216.893L263.962 217.653L264.331 217.872L263.831 218.665L264.603 219.125L264.353 219.521L264.755 219.761L264.255 220.554L264.624 220.774L264.633 221.052C264.678 221.078 264.716 221.116 264.747 221.165C264.778 221.213 264.816 221.251 264.86 221.278L264.548 221.773L265.32 222.233L265.111 222.563L265.917 223.043L265.646 223.472L266.384 223.912L266.393 224.19C266.483 224.243 266.592 224.338 266.721 224.476C266.85 224.613 266.937 224.695 266.981 224.722L266.71 225.151L267.482 225.611L267.253 225.974L270.24 227.752L270.887 226.728L270.551 226.528L271.051 225.735L270.648 225.496L271.107 224.769L270.738 224.549L271.259 223.723L270.823 223.464L273.011 219.995L273.448 220.255L274.219 219.032L274.525 218.987C274.594 218.877 274.686 218.78 274.8 218.697C274.901 218.635 274.972 218.571 275.013 218.505L275.45 218.765L275.679 218.402L276.015 218.601L276.286 218.172L276.722 218.432L276.972 218.035L277.278 217.99C277.292 217.968 277.306 217.946 277.319 217.924C277.356 217.915 277.381 217.9 277.395 217.878L277.906 218.092L278.115 217.761L278.92 218.241L279.191 217.811L279.963 218.271L280.193 217.907L280.965 218.367L281.173 218.037L282.382 218.756L282.632 218.36L286.19 220.477L285.939 220.874L287.114 221.573L286.906 221.904L288.081 222.603L288.09 222.881C288.179 222.934 288.288 223.03 288.417 223.167C288.546 223.304 288.633 223.386 288.678 223.413L288.386 223.875L288.722 224.075L288.513 224.405L289.319 224.885L289.069 225.281L289.438 225.501L288.937 226.294L289.34 226.534L289.349 226.812C289.394 226.839 289.421 226.87 289.429 226.905C289.438 226.94 289.464 226.971 289.509 226.998L288.967 227.857L289.403 228.117L288.924 228.876L289.293 229.096L288.105 230.979L288.508 231.219ZM265.51 210.076L265.596 210.673L265.304 211.135L264.968 210.935L265.51 210.076Z" fill="#374824" fill-opacity="0.7"/>
<path d="M265.549 242.541L265.226 242.88L263.89 241.678L263.567 242.017L263.199 241.95C263.145 242.006 263.091 242.045 263.036 242.065L262.281 241.386L261.957 241.725L261.619 241.683C261.601 241.702 261.519 241.751 261.372 241.829L260.937 241.437L260.343 242.059L260.032 241.989C259.925 242.102 259.815 242.179 259.705 242.22C259.595 242.296 259.496 242.382 259.406 242.476L259.029 242.137L256.333 244.963L256.681 245.277L256.007 245.984L256.327 246.271L256.003 246.61L256.381 246.95L256.111 247.233L256.431 247.52L255.784 248.198L256.423 248.773L256.099 249.112L256.477 249.452L256.18 249.763L256.499 250.05L256.319 250.466L261.169 254.829L261.465 254.518L262.162 255.145L262.459 254.834L263.098 255.409L263.421 255.069L264.118 255.696L264.415 255.385L264.763 255.699L265.114 255.331L265.404 255.593L266.024 254.942L266.362 254.984C266.506 254.833 266.66 254.709 266.825 254.612C266.991 254.551 267.146 254.446 267.289 254.295L267.638 254.608L269.471 252.686L269.122 252.372L269.716 251.751L269.367 251.437L270.014 250.759L269.724 250.497L270.317 249.875L269.939 249.536L269.983 249.207C269.963 249.19 269.953 249.163 269.952 249.127C269.95 249.09 269.93 249.055 269.891 249.02L270.296 248.596L269.628 247.995L269.897 247.712L269.52 247.373L269.59 247.016C269.281 246.737 268.989 246.44 268.715 246.124C268.441 245.807 268.14 245.501 267.811 245.205L267.881 244.848L265.549 242.541ZM270.651 254.22L269.33 255.606L268.963 255.538C268.819 255.689 268.656 255.822 268.474 255.938C268.291 256.054 268.128 256.187 267.984 256.338L267.673 256.268C267.548 256.4 267.402 256.515 267.238 256.612C267.055 256.728 266.892 256.861 266.748 257.012L266.381 256.944C266.291 257.038 266.2 257.096 266.108 257.118C265.997 257.159 265.897 257.226 265.807 257.32L265.496 257.251C265.478 257.269 265.396 257.318 265.249 257.396L264.842 257.03L264.195 257.709L263.884 257.639C263.848 257.677 263.757 257.735 263.611 257.813L262.855 257.134L262.559 257.445L262.269 257.183L261.945 257.523L261.248 256.896L260.952 257.207L260.313 256.632L259.989 256.971L259.292 256.344L258.996 256.655L257.311 255.14L256.988 255.479L251.499 250.541L251.57 250.185C251.395 250.028 251.22 249.835 251.043 249.606C250.885 249.394 250.709 249.201 250.516 249.027L250.812 248.716L249.447 247.488L249.518 247.131C249.324 246.957 249.139 246.755 248.962 246.526C248.804 246.314 248.629 246.121 248.435 245.947L248.449 245.592C248.372 245.522 248.303 245.425 248.242 245.3C248.183 245.212 248.114 245.133 248.037 245.063L248.387 244.696L247.69 244.069L247.987 243.758L247.638 243.444L247.709 243.087C247.612 243 247.543 242.903 247.501 242.796C247.461 242.725 247.393 242.646 247.296 242.559L247.619 242.219L247.242 241.88L247.339 241.495C247.281 241.442 247.222 241.354 247.161 241.229C247.101 241.141 247.033 241.062 246.955 240.992L247.279 240.653L246.901 240.313L247.171 240.03L246.822 239.717L246.893 239.36C246.874 239.343 246.863 239.316 246.862 239.28C246.842 239.262 246.823 239.245 246.804 239.227L247.15 238.751L246.86 238.49L246.901 238.107C246.843 238.055 246.803 238.002 246.783 237.948L247.075 237.528L246.756 237.241L247.43 236.534L247.081 236.221L247.674 235.599L247.326 235.285L247.973 234.607L247.682 234.345L248.329 233.667L247.981 233.353L248.87 232.421L248.551 232.133L249.818 230.805L249.44 230.465L249.492 230.354L249.872 230.748L251.139 229.419L252.213 230.386L251.566 231.064L251.886 231.352L250.646 232.652L250.994 232.966L250.078 233.927L250.368 234.188L249.452 235.149L249.829 235.489L249.209 236.139L249.529 236.426L248.882 237.105L249.549 237.706L249.226 238.045L249.574 238.359L248.927 239.037L249.247 239.324L249.201 239.598C249.24 239.633 249.27 239.678 249.291 239.731C249.311 239.785 249.341 239.829 249.38 239.864L248.975 240.288L249.643 240.889L249.374 241.172L250.071 241.799L249.72 242.166L250.359 242.741L250.314 243.015C250.391 243.085 250.48 243.199 250.579 243.359C250.679 243.519 250.748 243.616 250.787 243.651L250.436 244.018L251.104 244.619L250.807 244.93L253.392 247.255L254.228 246.379L253.937 246.117L254.584 245.439L254.236 245.125L254.829 244.504L254.51 244.216L255.183 243.509L254.806 243.17L257.637 240.202L258.014 240.541L259.012 239.495L259.321 239.511C259.41 239.416 259.52 239.34 259.648 239.28C259.759 239.24 259.841 239.191 259.895 239.135L260.273 239.474L260.569 239.163L260.859 239.424L261.21 239.057L261.587 239.397L261.911 239.057L262.22 239.073C262.238 239.054 262.256 239.035 262.274 239.016C262.311 239.015 262.339 239.005 262.357 238.986L262.817 239.295L263.087 239.012L263.784 239.639L264.134 239.272L264.802 239.873L265.099 239.562L265.767 240.163L266.036 239.88L267.082 240.82L267.405 240.481L270.484 243.25L270.16 243.59L271.177 244.504L270.907 244.787L271.923 245.701L271.878 245.975C271.955 246.045 272.044 246.16 272.143 246.319C272.243 246.479 272.312 246.576 272.351 246.611L271.973 247.007L272.264 247.268L271.994 247.55L272.691 248.177L272.368 248.517L272.687 248.804L272.04 249.483L272.389 249.796L272.343 250.07C272.382 250.105 272.402 250.141 272.403 250.177C272.405 250.213 272.425 250.249 272.463 250.283L271.762 251.018L272.14 251.358L271.52 252.008L271.839 252.296L270.303 253.907L270.651 254.22ZM252.217 229.024L252.184 229.624L251.807 230.02L251.516 229.759L252.217 229.024Z" fill="#374824" fill-opacity="0.7"/>
<path d="M239.119 251.892L238.734 252.16L237.643 250.684L237.258 250.952L236.701 250.198L236.317 250.466L235.783 249.744L235.462 249.967L235.207 249.622L234.79 249.912L234.444 249.773C234.402 249.802 234.322 249.826 234.206 249.844L233.904 249.435L232.782 250.217L232.436 250.078C232.329 250.152 232.154 250.243 231.909 250.35L231.391 250.569L231.159 250.254L229.012 251.751L229.244 252.065L228.123 252.847L228.424 253.256L227.687 253.77L227.943 254.115L227.206 254.629L227.485 255.006L227.1 255.274L227.355 255.62L227.003 255.865L227.537 256.588L227.152 256.856L227.431 257.233L227.355 257.524C227.494 257.713 227.623 257.909 227.741 258.112C227.874 258.336 228.028 258.61 228.202 258.933L228.07 259.215L229.094 260.929L229.447 260.683L230.515 262.128L230.867 261.882L231.425 262.636L231.809 262.368L232.343 263.091L232.696 262.845L232.928 263.159L233.312 262.891L233.614 263.299L234.351 262.785L234.683 262.84C234.789 262.765 234.912 262.712 235.049 262.679C235.187 262.647 235.288 262.608 235.352 262.563L235.652 262.64C235.737 262.58 235.849 262.534 235.987 262.502C236.124 262.469 236.247 262.416 236.353 262.341L236.679 262.781L239.146 261.061L238.844 260.652L240.35 259.602L240.118 259.288L240.823 258.797L240.544 258.42L240.652 258.106C240.637 258.085 240.604 257.997 240.554 257.842L241.035 257.506L240.802 257.192L241.123 256.969L240.589 256.246L240.706 255.879C240.628 255.774 240.58 255.665 240.561 255.552C240.52 255.453 240.461 255.351 240.384 255.247L240.801 254.956L239.965 253.825L240.105 253.49L239.119 251.892ZM238.008 270.755L237.624 271.023L238.924 272.783L239.309 272.515L240.4 273.991L240.784 273.723L241.084 273.8C241.105 273.785 241.127 273.77 241.148 273.755C241.185 273.761 241.214 273.757 241.235 273.742L241.903 274.514L242.287 274.246L242.61 274.354C242.674 274.309 242.786 274.263 242.945 274.216C243.104 274.168 243.205 274.129 243.248 274.1L243.55 274.508L244.319 273.972L244.702 274.228L247.81 272.061L247.555 271.715L248.292 271.201L248.013 270.824L248.75 270.311L248.448 269.902L248.589 269.566C248.558 269.525 248.537 269.475 248.528 269.418L248.976 269.106L248.675 268.697L248.847 268.339C248.723 268.172 248.628 268 248.563 267.823C248.513 267.668 248.433 267.517 248.325 267.37L248.645 267.147L246.277 263.943L245.957 264.166L245.376 263.381L244.96 263.671L244.728 263.357L244.375 263.603L244.084 263.472C244.042 263.502 243.941 263.541 243.782 263.588L243.433 263.117L243.113 263.34L242.822 263.21C242.694 263.299 242.572 263.353 242.455 263.37C242.333 263.424 242.219 263.488 242.112 263.562L241.81 263.154L240.72 263.914L240.465 263.568L238.35 265.043L238.606 265.388L237.805 265.947L238.083 266.324L237.346 266.838L237.602 267.183L236.865 267.697L237.422 268.451L237.037 268.719L237.548 269.41L237.196 269.656L238.008 270.755ZM248.692 273.779L246.032 275.633L245.777 275.288L244.239 276.36L243.893 276.22C243.786 276.295 243.685 276.334 243.59 276.336C243.489 276.375 243.385 276.432 243.278 276.506L243 276.129L242.231 276.665L241.885 276.526C241.879 276.562 241.85 276.566 241.798 276.539C241.724 276.527 241.666 276.536 241.623 276.565L241.344 276.189L240.96 276.457L240.426 275.734L240.073 275.98L239.704 275.809C239.683 275.824 239.593 275.855 239.433 275.902L238.899 275.18L238.547 275.426L237.99 274.672L237.605 274.94L235.376 271.924L235.516 271.588C235.47 271.526 235.422 271.416 235.372 271.261C235.3 271.12 235.241 271.019 235.195 270.956L235.579 270.688L235.022 269.934L235.162 269.598C235.147 269.577 235.142 269.549 235.148 269.513C235.132 269.492 235.117 269.471 235.101 269.45L235.504 269.074L235.202 268.666L235.342 268.33C235.311 268.288 235.291 268.239 235.281 268.182L235.73 267.87L235.451 267.493L235.536 267.148C235.505 267.106 235.493 267.067 235.498 267.031C235.504 266.995 235.492 266.956 235.461 266.915L235.941 266.579L234.943 265.229L234.559 265.497L234.213 265.357C234.191 265.372 234.101 265.403 233.942 265.451L233.64 265.042L232.903 265.556L232.534 265.385C232.448 265.445 232.377 265.479 232.318 265.488L231.993 265.048L231.609 265.316L231.263 265.177C231.22 265.206 231.141 265.23 231.024 265.248L230.746 264.871L230.361 265.139L229.804 264.385L229.451 264.631L229.219 264.317L228.835 264.585L228.277 263.831L227.925 264.077L226.857 262.632L226.44 262.922L225.279 261.351L225.452 260.993C225.282 260.763 225.14 260.528 225.028 260.289C224.932 260.071 224.798 259.846 224.628 259.616L224.713 259.271C224.636 259.166 224.587 259.057 224.568 258.944C224.528 258.845 224.469 258.743 224.391 258.639L224.808 258.348L224.576 258.034L224.928 257.788L224.603 257.348L224.743 257.013C224.728 256.992 224.723 256.963 224.729 256.927C224.735 256.892 224.722 256.853 224.691 256.811L225.108 256.52L224.806 256.112L224.946 255.776C224.915 255.734 224.895 255.685 224.885 255.628L225.334 255.315L225.009 254.876L225.149 254.54C225.134 254.519 225.129 254.491 225.135 254.455C225.141 254.419 225.128 254.38 225.097 254.338L225.514 254.048L225.235 253.671L226.004 253.135L225.725 252.758L226.43 252.266L226.198 251.952L228.473 250.366L228.195 249.989L229.38 249.162L229.659 249.539L232.222 247.752L232.454 248.066L233.223 247.53L233.546 247.638C233.61 247.593 233.722 247.547 233.881 247.5C234.04 247.452 234.141 247.413 234.184 247.384L234.486 247.792L234.87 247.524L235.202 247.578C235.244 247.549 235.284 247.537 235.321 247.543C235.358 247.549 235.398 247.537 235.44 247.507L235.812 248.01L236.164 247.764L236.397 248.078L236.749 247.832L237.028 248.209L237.412 247.941L237.969 248.695L238.354 248.427L238.865 249.118L239.217 248.872L239.517 248.949C239.538 248.934 239.559 248.919 239.581 248.904C239.618 248.91 239.647 248.906 239.668 248.891L241.195 250.826L241.579 250.557L241.904 250.997L241.805 251.257C242.022 251.55 242.199 251.855 242.336 252.172C242.473 252.489 242.65 252.794 242.867 253.087L242.482 253.355L243.016 254.078L242.696 254.301L243.23 255.024L242.845 255.292L243.124 255.669L242.992 255.951C243.023 255.993 243.044 256.042 243.053 256.099C243.063 256.156 243.083 256.205 243.114 256.247L242.665 256.56L242.898 256.874L242.161 257.388L242.439 257.765L242.055 258.033L242.31 258.378L242.211 258.638C242.273 258.722 242.316 258.803 242.341 258.88L242.356 258.965L241.875 259.301L242.13 259.646L241.393 260.16L242.16 261.197L242.544 260.928L242.776 261.243L243.129 260.997L243.407 261.374L243.824 261.083L244.123 261.16C244.145 261.145 244.174 261.141 244.211 261.147C244.248 261.153 244.287 261.141 244.33 261.111L244.702 261.614L245.471 261.078L245.981 261.769L246.366 261.501L246.689 261.609C246.71 261.594 246.739 261.59 246.776 261.596C246.813 261.602 246.853 261.59 246.895 261.56L247.731 262.691L248.116 262.423L248.975 263.585L249.359 263.317L250.218 264.479L249.834 264.747L250.646 265.847L250.515 266.129L250.837 266.761C250.918 266.959 250.989 267.099 251.051 267.183L250.952 267.443C251.029 267.547 251.085 267.667 251.12 267.801C251.155 267.936 251.211 268.056 251.288 268.16L251.157 268.442C251.219 268.526 251.262 268.607 251.287 268.685L250.775 269.042L251.053 269.419L250.669 269.687L250.901 270.001L250.164 270.515L250.466 270.923L250.113 271.169L250.369 271.515L249.215 272.319L249.494 272.696L248.436 273.433L248.692 273.779Z" fill="#374824" fill-opacity="0.7"/>
<path d="M199.218 279.553L195.62 280.462L195.309 280.057L188.53 281.771L188.652 282.224L186.001 282.894L185.73 282.64C185.705 282.646 185.61 282.644 185.445 282.632L185.324 282.179L184.907 282.284L184.533 280.888L184.737 280.595C184.704 280.469 184.699 280.349 184.722 280.236C184.72 280.129 184.703 280.013 184.669 279.887L186.449 279.437L186.338 279.022L199.138 275.786L199.388 275.964C199.413 275.958 199.439 275.951 199.464 275.945C199.496 275.964 199.525 275.97 199.55 275.964L199.777 276.51L200.194 276.405L200.699 278.292L200.513 278.5C200.526 278.55 200.524 278.591 200.505 278.623C200.487 278.654 200.484 278.695 200.498 278.746L199.096 279.1L199.218 279.553Z" fill="#374824" fill-opacity="0.7"/>
</svg>
