<svg width="587" height="585" viewBox="0 0 587 585" fill="none" xmlns="http://www.w3.org/2000/svg">
<path d="M227.106 571.194L223.041 570.064L222.936 569.71C222.61 569.619 222.29 569.503 221.978 569.363C221.666 569.222 221.334 569.102 220.983 569.005L220.905 568.699C220.302 568.532 219.698 568.323 219.092 568.073C218.478 567.849 217.845 567.646 217.193 567.464L217.296 567.088L216.92 566.983L217.158 566.117L216.707 565.991L216.748 565.841L217.241 565.816L218.609 560.844L218.157 560.718L218.199 560.568L218.552 560.463C218.559 560.438 218.578 560.416 218.61 560.398C218.642 560.38 218.665 560.346 218.679 560.296L219.13 560.421L219.244 560.007L220.298 560.3L220.424 560.578C220.474 560.592 220.512 560.603 220.537 560.61C220.53 560.635 220.539 560.651 220.564 560.658L220.284 561.675L220.774 561.811L220.162 564.033L220.576 564.148L220.349 564.977L220.838 565.113L220.964 565.391C220.989 565.398 221.01 565.418 221.029 565.45L220.928 566.111L221.455 566.257L221.581 566.536C221.656 566.557 221.762 566.613 221.899 566.705C222.035 566.797 222.129 566.85 222.179 566.864L222.044 567.354L228.028 569.018L228.153 568.566L229.018 568.806L229.132 568.392L229.998 568.633L230.122 568.181L230.485 568.038C230.499 567.988 230.522 567.954 230.554 567.936C230.586 567.918 230.609 567.884 230.623 567.833L231.15 567.98L231.274 567.528L231.627 567.423C231.661 567.298 231.721 567.179 231.806 567.068C231.858 566.974 231.902 566.865 231.937 566.739L232.252 566.624C232.259 566.599 232.278 566.577 232.31 566.559C232.342 566.541 232.365 566.507 232.379 566.457L232.944 566.614L233.182 565.747L233.497 565.632C233.552 565.431 233.633 565.238 233.738 565.051C233.837 564.889 233.91 564.72 233.958 564.544L234.335 564.649L234.822 562.879L235.175 562.774C235.347 562.146 235.558 561.529 235.806 560.922C236.028 560.309 236.223 559.7 236.388 559.098L236.693 559.02L237.362 557.179L236.948 557.064L237.911 553.561L237.422 553.425L237.899 551.693L237.522 551.588L237.885 550.27L237.471 550.155L237.366 549.801C237.316 549.787 237.222 549.734 237.085 549.642L237.334 548.738L236.958 548.633L236.852 548.28C236.827 548.273 236.772 548.23 236.685 548.152L236.723 548.163C236.704 548.131 236.67 548.108 236.62 548.094L236.755 547.604L236.341 547.489L236.236 547.135C236.11 547.1 236.004 547.044 235.918 546.966C235.799 546.906 235.677 546.858 235.552 546.823L235.474 546.518C235.348 546.483 235.242 546.427 235.156 546.348C235.037 546.288 234.915 546.241 234.79 546.206L234.935 545.679L234.069 545.438L234.032 544.982L229.479 543.716L229.365 544.13L228.499 543.889L228.364 544.379L227.499 544.138L227.395 544.515L226.906 544.379L226.782 544.831L226.405 544.726L226.157 545.63L225.705 545.505L225.601 545.881L225.334 545.969L225.344 545.931C225.25 546.176 225.16 546.407 225.072 546.626C224.992 546.82 224.915 547.001 224.842 547.17C224.768 547.339 224.721 547.461 224.7 547.536L224.211 547.4L223.849 548.719L223.472 548.614L223.348 549.066L223.081 549.154C223.06 549.229 223.011 549.31 222.933 549.396L222.218 549.198L222.332 548.783L221.504 548.553L222.861 543.619L223.214 543.515C223.221 543.489 223.24 543.468 223.272 543.45C223.279 543.425 223.286 543.4 223.293 543.374L223.803 543.435L223.938 542.945L224.328 542.851C224.335 542.826 224.354 542.805 224.386 542.786C224.393 542.761 224.4 542.736 224.407 542.711L225.406 542.908L225.531 542.456L225.846 542.341C225.86 542.291 225.886 542.244 225.925 542.201L226.904 542.473L227.038 541.983L227.941 542.234L228.055 541.82L229.787 542.301L229.911 541.849L231.642 542.331L231.756 541.916L233.563 542.419L233.449 542.833L235.669 543.45L235.545 543.902L236.862 544.269L236.988 544.547C237.113 544.582 237.232 544.642 237.344 544.727C237.43 544.805 237.511 544.855 237.586 544.875L237.441 545.403L238.307 545.643L238.203 546.02L238.655 546.146L238.781 546.424C238.806 546.431 238.831 546.438 238.856 546.445C238.874 546.477 238.896 546.496 238.921 546.503L238.831 547.127L239.282 547.253L239.398 547.569C239.423 547.576 239.452 547.57 239.484 547.552C239.484 547.552 239.496 547.555 239.521 547.562C239.546 547.569 239.559 547.573 239.559 547.573C239.552 547.598 239.561 547.614 239.586 547.621L239.485 548.282L239.862 548.387L239.623 549.253L240.113 549.389L240.239 549.667C240.264 549.674 240.285 549.694 240.303 549.726C240.322 549.758 240.356 549.781 240.406 549.795L240.251 550.36L240.74 550.496L240.388 551.777L240.802 551.892L240.543 552.833L240.994 552.959L240.652 554.202L241.066 554.317L240.455 556.539L240.907 556.664L239.456 561.937L239.004 561.812L238.528 563.544L238.114 563.429L237.751 564.747L237.3 564.622L236.937 565.94L236.67 566.028C236.642 566.128 236.583 566.247 236.491 566.384C236.392 566.545 236.333 566.664 236.312 566.739L235.785 566.593L235.547 567.459L235.28 567.547C235.273 567.572 235.262 567.61 235.249 567.66C235.228 567.735 235.198 567.795 235.159 567.838L234.557 567.67L234.329 568.499L233.953 568.394L233.828 568.846L233.339 568.71L233.215 569.162L232.947 569.25C232.934 569.3 232.907 569.347 232.868 569.39C232.83 569.434 232.803 569.48 232.789 569.531L232.225 569.374L232.121 569.75L231.707 569.635L231.573 570.125L231.305 570.213C231.278 570.313 231.241 570.397 231.195 570.466L230.217 570.194L230.092 570.646L229.603 570.51L229.499 570.886L228.634 570.646L228.51 571.098L227.23 570.742L227.106 571.194Z" fill="#BB3A30" fill-opacity="0.7"/>
<path d="M177.074 527.471L176.66 527.251L174.57 531.228L174.984 531.448L174.973 531.973L181.114 535.234L181.332 534.819L182.574 535.479L182.792 535.064L183.585 535.485L183.803 535.071L184.597 535.492L184.833 535.042L185.2 535.016C185.224 534.97 185.26 534.93 185.307 534.896L185.755 535.134L186.21 534.27L186.593 534.297L187.876 532.191L187.427 531.953L187.863 531.123L187.104 530.72L187.304 530.34L186.511 529.918L186.484 529.55C186.139 529.367 185.794 529.154 185.451 528.913C185.084 528.659 184.705 528.428 184.314 528.221L184.303 527.905L183.375 527.236L183.176 527.616L181.14 526.535L180.922 526.95L180.094 526.51L179.894 526.89L179.135 526.487L178.917 526.902L178.089 526.462L177.871 526.877L177.492 526.676L177.074 527.471ZM174.671 543.799L170.29 541.472L169.68 540.617L169.163 540.342L169.363 539.962L168.569 539.54L168.558 539.225C168.489 539.188 168.398 539.11 168.284 538.991L168.557 538.472L168.177 538.271L168.167 537.955C168.075 537.906 168 537.852 167.943 537.792L167.874 537.756L168.347 536.857L168.002 536.673L169.982 532.904L170.327 533.088L175.161 523.89L172.884 522.68L172.684 523.061L172.167 522.786L172.367 522.405L171.987 522.204L171.96 521.836C171.937 521.823 171.869 521.758 171.755 521.638L172.064 521.05L172.431 521.024C172.443 521.001 172.466 520.984 172.502 520.973C172.514 520.95 172.526 520.927 172.538 520.904L174.334 521.769L174.533 521.389L175.706 522.012L175.943 521.563L178.013 522.662L177.776 523.112L178.259 523.368L178.323 523.667C178.392 523.704 178.483 523.782 178.597 523.901C178.711 524.021 178.791 524.093 178.837 524.117L178.6 524.567L180.118 525.373L180.336 524.958L181.509 525.581L181.709 525.2L183.399 526.098L183.636 525.649L188.5 528.233L188.264 528.682L189.057 529.104L189.155 529.421C189.27 529.482 189.373 529.566 189.464 529.673C189.531 529.768 189.6 529.834 189.669 529.871L189.433 530.32L190.261 530.76L190.061 531.14L190.509 531.379L190.073 532.209L190.418 532.392L190.018 533.153L190.432 533.372L189.287 535.551L188.873 535.331L188.474 536.092L188.129 535.908L187.693 536.738L187.244 536.5L187.008 536.95L186.728 536.978C186.68 537.07 186.626 537.145 186.567 537.202L185.635 536.707L185.417 537.122L184.589 536.682L184.389 537.063L183.596 536.641L183.378 537.056L182.17 536.415L181.952 536.83L180.331 535.968L180.113 536.383L175.283 533.818L175.101 534.164L173.894 533.522L173.658 533.972L173.244 533.752L173.044 534.132L172.592 534.069L170.575 537.907L170.989 538.127L171.052 538.426C171.075 538.439 171.098 538.451 171.121 538.463C171.132 538.498 171.149 538.522 171.172 538.534L170.932 539.159L171.346 539.379L171.409 539.678C171.501 539.727 171.593 539.805 171.684 539.912C171.774 540.019 171.877 540.103 171.992 540.164L171.894 540.687L175.689 542.703L175.907 542.288L176.7 542.709L176.9 542.329L177.694 542.75L177.948 542.266L178.28 542.222C178.292 542.198 178.316 542.182 178.351 542.171C178.386 542.16 178.416 542.131 178.44 542.085L178.958 542.36L179.594 541.15L179.939 541.333L180.193 540.849L180.594 540.841C180.619 540.795 180.7 540.779 180.84 540.794C180.967 540.832 181.117 540.883 181.29 540.945C181.451 541.031 181.612 541.116 181.773 541.202C181.911 541.275 182.026 541.336 182.118 541.385L181.9 541.8L182.279 542.001L182.341 542.388C182.364 542.4 182.393 542.401 182.428 542.39C182.428 542.39 182.439 542.396 182.462 542.408C182.485 542.421 182.478 542.49 182.441 542.618C182.391 542.768 182.335 542.93 182.273 543.104C182.176 543.288 182.086 543.461 182.001 543.623C181.904 543.807 181.837 543.934 181.801 544.003L181.352 543.765L180.935 544.56L180.141 544.139L179.941 544.519L179.148 544.098L178.912 544.547L178.118 544.126L177.918 544.506L177.125 544.085L176.925 544.465L174.889 543.384L174.671 543.799ZM177.52 536.112L177.48 535.516L177.698 535.101L177.974 535.247L177.52 536.112Z" fill="#BB3A30" fill-opacity="0.7"/>
<path d="M114.696 517.641L112.554 515.819L112.806 515.52L108.938 512.229L109.016 511.834C108.996 511.817 108.943 511.738 108.858 511.597L110.166 510.043L110.909 510.675L111.211 510.317L111.575 510.37C111.609 510.33 111.722 510.358 111.914 510.453C112.089 510.568 112.294 510.708 112.529 510.874C112.748 511.06 112.966 511.245 113.184 511.431C113.382 511.6 113.531 511.726 113.63 511.81L113.328 512.169L115.084 513.663L114.926 514.092L118.169 516.851L118.446 516.523L119.189 517.156L119.491 516.797L119.789 517.05L120.091 516.691L120.484 516.77C120.568 516.67 120.663 516.597 120.77 516.551C120.857 516.489 120.942 516.407 121.026 516.308L121.383 516.612L124.855 512.487L124.527 512.209L124.804 511.88L124.417 511.551L124.57 511.066L118.56 505.953L118.259 506.312L117.485 505.653L117.537 505.288C117.438 505.203 117.366 505.108 117.32 505C117.238 504.896 117.147 504.802 117.048 504.717L117.727 503.91L118.12 503.989C118.137 503.969 118.164 503.957 118.2 503.954C118.217 503.934 118.234 503.914 118.251 503.894L125.352 509.834L125.654 509.475L126.338 510.057L135.419 499.268L135.032 498.939L135.611 498.252L135.313 497.999L135.37 497.689C134.756 497.165 134.157 496.622 133.576 496.059C132.995 495.496 132.387 494.945 131.752 494.405L131.83 494.009L130.413 492.599L130.086 492.988L130.026 492.937L130.104 492.541C130.025 492.474 129.962 492.386 129.916 492.279C129.834 492.175 129.743 492.08 129.644 491.996L130.323 491.189L130.621 491.442L130.897 491.114L143.542 501.871L143.54 502.177C143.58 502.211 143.609 502.236 143.629 502.253C143.612 502.273 143.614 502.291 143.634 502.308L143.131 502.906L142.833 502.653L142.582 502.952L141.868 502.344L141.541 502.733L139.131 500.682L138.854 501.011L138.14 500.404L137.813 500.792L137.456 500.488L128.425 511.217L128.782 511.521L128.481 511.88L129.224 512.512L129.222 512.818C129.559 513.105 129.898 513.41 130.238 513.734C130.559 514.041 130.922 514.418 131.328 514.866L131.001 515.255L131.328 515.533L130.699 516.28L130.015 515.698L129.713 516.057L127.303 514.006L127.027 514.335L126.747 514.303C126.378 514.741 125.971 515.164 125.526 515.572C125.081 515.979 124.674 516.402 124.305 516.841L123.948 516.537L122.741 517.971L122.443 517.718L121.89 518.376L121.503 518.047L120.899 518.764L120.62 518.732C120.603 518.752 120.578 518.781 120.545 518.821C120.494 518.881 120.442 518.922 120.389 518.945L119.883 518.515L119.581 518.874L119.284 518.621L119.032 518.919L118.318 518.312L117.991 518.7L117.634 518.397L117.358 518.725L116.673 518.143L116.346 518.532L114.948 517.342L114.696 517.641ZM131.998 492.05L132.652 491.273L132.703 491.88L132.325 492.329L131.998 492.05ZM132.051 516.251L131.312 516.34L131.463 516.161L131.077 515.832L131.278 515.593L132.051 516.251ZM119.164 504.569L119.765 504.157L119.825 504.208L119.372 504.746L119.164 504.569ZM108.633 510.893L108.683 510.833L109.185 511.208L108.983 511.447L108.633 510.893Z" fill="#BB3A30" fill-opacity="0.7"/>
<path d="M83.244 471.959L82.8734 472.246L79.3824 467.687L79.5583 467.402C79.4791 467.299 79.4285 467.19 79.4063 467.075C79.3636 466.977 79.2868 466.855 79.176 466.71L79.3519 466.426C79.2727 466.323 79.2221 466.214 79.1999 466.099C79.1414 465.98 79.0646 465.858 78.9696 465.734L79.3403 465.447L79.0316 465.044L79.2075 464.76C79.16 464.697 79.1172 464.599 79.0793 464.464C79.0413 464.328 78.9748 464.199 78.8798 464.075L79.2505 463.788L78.9893 463.447L79.1105 463.155C79.0947 463.134 79.0709 463.103 79.0393 463.062C79.0076 463.021 78.9863 462.971 78.9752 462.914L79.4386 462.555L79.1298 462.152L79.8712 461.578L79.61 461.237L79.7859 460.953C79.7225 460.87 79.664 460.751 79.6102 460.595L80.4134 459.973L80.1521 459.632L81.2024 458.819L80.9175 458.447L83.327 456.582L83.6714 456.711C83.7332 456.663 83.7926 456.634 83.8496 456.622L84.752 457.801L85.1227 457.514L92.3421 466.943L92.7128 466.656L94.1139 468.486L94.4846 468.199L94.7221 468.509L96.2976 467.289L96.0601 466.979L96.8015 466.405L96.4928 466.002L97.2341 465.428L96.9967 465.118L97.1179 464.827C97.0704 464.765 97.0411 464.705 97.0301 464.648C97.0032 464.57 96.9739 464.51 96.9422 464.469L97.3747 464.134L97.1372 463.824L97.3131 463.54C97.2339 463.436 97.1754 463.317 97.1374 463.182C97.063 463.042 96.9862 462.92 96.9071 462.817L97.3087 462.506L96.7387 461.762L97.0785 461.499L95.9861 460.072L96.2856 459.692L93.7208 456.342L93.3501 456.629L91.6877 454.458L91.3479 454.721L90.5167 453.636L90.146 453.923L89.3386 452.868L88.9679 453.155L88.2317 452.194L88.4076 451.909C88.3601 451.847 88.3095 451.738 88.2557 451.582L88.8735 451.104L89.2488 451.209C89.29 451.177 89.3288 451.163 89.3652 451.168C89.4017 451.173 89.4405 451.159 89.4817 451.127L89.8141 451.562L90.1848 451.275L90.731 451.988L91.0708 451.725L91.6408 452.469L92.0115 452.183L93.1276 453.64L93.4674 453.377L94.5598 454.804L94.9614 454.493L96.3388 456.292L96.6786 456.029L99.0534 459.13L99.0106 459.46L99.4403 460.214C99.4989 460.333 99.5678 460.445 99.6469 460.548C99.7055 460.667 99.7744 460.779 99.8535 460.882L99.4519 461.193L100.259 462.247L100.193 462.546C100.256 462.629 100.307 462.738 100.345 462.873C100.367 462.987 100.417 463.096 100.497 463.2L100.095 463.511L100.404 463.914L100.064 464.177L100.325 464.518L99.9545 464.805L100.477 465.487L100.41 465.786C100.49 465.889 100.524 465.977 100.515 466.051L99.7116 466.672L100.02 467.075L99.6188 467.386L99.88 467.727L99.1077 468.325L99.4165 468.728L97.6248 470.115L97.8622 470.425L95.1438 472.529L94.9063 472.219L93.1146 473.606L92.8059 473.202L92.1572 473.705L91.8603 473.638C91.7573 473.718 91.6488 473.769 91.5347 473.791C91.4001 473.829 91.271 473.896 91.1474 473.992L90.815 473.558L90.1045 474.108L89.8384 474.017C89.7972 474.049 89.7584 474.063 89.722 474.058C89.665 474.069 89.5953 474.107 89.5129 474.17L89.1567 473.705L88.786 473.992L88.5248 473.651L87.8143 474.201L87.5482 474.11C87.507 474.142 87.4088 474.185 87.2536 474.24L86.8736 473.743L86.5338 474.006L86.0113 473.324L85.6098 473.635L85.0398 472.891L84.7 473.154L84.1538 472.44L83.814 472.703L83.244 471.959ZM84.0885 460.34L83.378 460.89L83.1167 460.548L82.2209 461.242L82.4821 461.583L81.8025 462.109L82.0875 462.481L81.9591 462.827C82.0224 462.91 82.0493 462.988 82.0398 463.061L81.5764 463.42L81.8852 463.823L81.1747 464.373L81.6971 465.055L81.6305 465.354C81.7097 465.457 81.7445 465.546 81.735 465.619L81.2407 466.001L82.0719 467.087L82.0053 467.385C82.3805 467.918 82.7794 468.482 83.2021 469.077C83.5884 469.667 83.9691 470.229 84.3444 470.761L84.6842 470.499L85.2541 471.243L85.6557 470.932L86.0001 471.061C86.0413 471.029 86.0801 471.015 86.1166 471.02C86.153 471.025 86.1918 471.011 86.233 470.979L86.5655 471.413L86.9361 471.127L87.3115 471.231C87.3733 471.183 87.4327 471.154 87.4897 471.143L87.7984 471.546L88.1691 471.259L88.6228 471.402C88.6434 471.386 88.6822 471.372 88.7392 471.361C88.7598 471.345 88.7907 471.321 88.8319 471.289L89.1406 471.692L89.8202 471.167L90.3143 471.426L92.4458 469.777L87.5775 463.419L87.2686 463.658L84.775 460.401L84.3734 460.712L84.0885 460.34ZM78.7604 474.392L78.6866 474.745L78.632 474.738L76.753 474.019L76.6723 473.785L73.0047 472.079C72.9999 472.116 72.9825 472.179 72.9524 472.268C72.9064 472.336 72.8732 472.379 72.8526 472.395L71.6078 471.926L71.76 471.61L71.4939 471.52L71.5914 471.197L71.3254 471.107L71.8578 470.003L72.0764 470.032L72.2809 469.528L73.1503 469.892L73.3404 469.498L80.1223 472.251L80.0914 472.275L80.146 472.282L79.9464 472.535C80.0557 472.549 80.1341 472.588 80.1816 472.65L80.0841 472.972L80.3264 473.032L79.7748 474.496L79.5253 474.491C79.511 474.601 79.4833 474.672 79.4421 474.704L78.7604 474.392ZM80.2364 472.014L80.1223 472.251L80.146 472.282C80.2189 472.291 80.2791 472.327 80.3265 472.389L80.1816 472.65C80.2908 472.664 80.3692 472.702 80.4167 472.764C80.4056 472.707 80.4025 472.66 80.4073 472.623C80.3962 472.566 80.3851 472.509 80.374 472.451L80.2364 472.014ZM71.2041 471.398L71.3252 471.749L71.3489 471.78L71.4939 471.52L71.2041 471.398ZM78.8362 474.876L78.6866 474.745L78.632 474.738L78.4561 475.022L78.8362 474.876ZM71.4391 472.155L71.6078 471.926L71.5532 471.918L71.5841 471.895L71.3727 471.811L71.4391 472.155ZM71.6393 469.975L71.827 470.027C71.8475 470.011 71.8626 469.967 71.8721 469.893C71.8309 469.925 71.7921 469.939 71.7557 469.934C71.6987 469.945 71.6599 469.959 71.6393 469.975ZM79.7058 474.598L79.9933 474.524L79.7439 474.52C79.7233 474.536 79.7209 474.554 79.7367 474.575C79.7367 474.575 79.7264 474.583 79.7058 474.598ZM71.3727 471.811L71.318 471.804L71.3727 471.811Z" fill="#BB3A30" fill-opacity="0.7"/>
<path d="M24.6274 383.683L24.9544 383.392L22.4521 373.993L21.9994 374.115L20.2307 367.471L20.4822 367.201C20.4488 367.076 20.4471 366.968 20.4773 366.879C20.4756 366.772 20.4581 366.655 20.4246 366.529L21.2921 366.296L21.1816 365.881L24.3879 365.018L24.6468 365.231C25.1246 365.103 25.6091 364.999 26.1003 364.921C26.5915 364.843 27.0886 364.736 27.5915 364.601L27.8605 364.852C27.8856 364.845 27.9141 364.851 27.946 364.869C27.9778 364.888 28.0189 364.89 28.0692 364.877L28.24 365.518L28.064 365.768C28.0707 365.793 28.0774 365.818 28.0841 365.844C28.0656 365.875 28.0597 365.904 28.0664 365.929L27.483 366.167L27.5835 366.545L24.5281 367.367L24.6487 367.82L24.4827 368.107C24.4961 368.157 24.4936 368.199 24.4751 368.231C24.4567 368.262 24.4541 368.304 24.4675 368.354L23.864 368.516L24.2157 369.837L24.0397 370.087L24.0296 370.049L24.1351 370.749C24.1568 370.932 24.1786 371.115 24.2003 371.298C24.2221 371.481 24.2396 371.597 24.253 371.648L23.8004 371.77L24.9762 376.186L24.5612 376.298L25.4657 379.695L25.8806 379.583L26.1017 380.414L36.06 377.734L35.8389 376.904L36.2413 376.593L35.2564 372.894L34.8038 373.016L34.3415 371.279L32.6064 371.746L32.4858 371.293L31.1655 371.648L30.9043 370.667L31.1281 370.445C31.1013 370.344 31.0938 370.265 31.1055 370.208L39.6304 367.914L39.9017 368.934L39.7257 369.183C39.7391 369.234 39.7491 369.271 39.7558 369.296C39.7307 369.303 39.7214 369.319 39.7281 369.344L38.2193 369.75L38.3399 370.203L37.0574 370.548L37.1679 370.964L36.6776 371.096L37.1599 372.908L36.7827 373.009L37.6872 376.406L38.0644 376.305L38.1649 376.682L38.693 376.54L38.962 376.791C39.314 376.697 39.7105 376.617 40.1514 376.552C40.5923 376.488 41.0014 376.404 41.3786 376.303L41.6752 376.506L44.0642 376.066L45.7616 375.609L45.641 375.156L48.2814 374.445L48.1609 373.992L48.4124 373.722C48.3923 373.647 48.3881 373.581 48.3998 373.524L48.8902 373.392L48.5284 372.033L48.8177 371.753C48.7172 371.375 48.6385 370.978 48.5816 370.562C48.5247 370.146 48.4393 369.724 48.3254 369.296L48.5492 369.074C48.5358 369.024 48.5342 368.916 48.5443 368.752L49.1478 368.589L49.4168 368.841C49.4923 368.82 49.5585 368.816 49.6155 368.828L49.8216 369.298L50.2365 369.186L52.9599 379.416L52.7838 379.666C52.8106 379.766 52.8156 379.886 52.7988 380.026C52.7753 380.14 52.7769 380.247 52.8037 380.348L51.7853 380.622L51.6546 380.131L51.2397 380.243L51.0186 379.413L50.5283 379.545L49.9454 377.355L49.1155 377.578L48.995 377.125L41.9789 379.013L41.8784 378.636L39.3889 379.306L39.4893 379.683L36.7735 380.414L36.673 380.037L33.7308 380.828L33.8312 381.206L27.2679 382.972L27.3884 383.425L26.9358 383.547L27.3981 385.283L26.9831 385.395L27.3047 386.603L27.7196 386.491L27.7875 386.594L27.3248 386.678L27.566 387.584L26.1703 387.96L25.0046 383.581L24.6274 383.683ZM43.8029 375.084L44.3007 375.436L44.4414 375.964L44.0642 376.066L43.8029 375.084ZM27.2615 388.718L26.8391 388.346L26.6984 387.818L27.0002 387.737L27.2615 388.718ZM30.3057 371.152L30.444 370.912L30.9344 370.78L31.0249 371.12L30.3057 371.152ZM40.4903 368.411L40.5305 368.562L40.3419 368.613L39.8515 368.745L39.761 368.405L40.4903 368.411Z" fill="#BB3A30" fill-opacity="0.7"/>
<path d="M11.5146 324.256L11.0851 324.267L10.9808 320.284L11.4062 320.117L11.3244 316.993L11.2876 315.587L12.5372 315.554L12.7396 315.822C12.7916 315.821 12.831 315.833 12.8577 315.858C12.8844 315.883 12.9238 315.895 12.9759 315.894L13.027 317.846L13.4956 317.834L13.699 318.141C13.9073 318.136 14.1162 318.156 14.3259 318.203C14.5094 318.25 14.7054 318.271 14.9136 318.265L15.116 318.533C16.7568 318.516 18.489 318.509 20.3126 318.513C22.1095 318.492 23.8153 318.473 25.43 318.456L25.4178 317.987L35.7267 317.714L35.7154 317.285L36.0617 317.08C36.0611 317.054 36.0847 316.962 36.1327 316.805L36.6403 316.791L36.627 316.284L37.1347 316.27L37.1244 315.88L37.3937 315.716C37.3903 315.586 37.4129 315.455 37.4615 315.324C37.4835 315.167 37.4928 315.023 37.4894 314.893L38.036 314.879L38.0125 313.981L38.438 313.813L38.3245 309.479L37.8949 309.49L37.8458 307.616L37.3382 307.629L37.3147 306.731L36.8852 306.742L36.8729 306.274L36.4043 306.286L36.242 306.056C36.1899 306.057 36.0851 306.034 35.9275 305.986L35.9101 305.322L35.012 305.346L34.8497 305.116C34.1468 305.135 33.4563 305.127 32.7781 305.093C32.0731 305.033 31.3823 305.012 30.7054 305.03L30.6931 304.562L29.5998 304.591L29.612 305.059L14.5782 305.457L14.5895 305.887L13.1837 305.924L13.2093 306.9L12.7407 306.913L12.7755 308.24L12.5463 308.442C12.547 308.468 12.5483 308.52 12.5504 308.598C12.5517 308.65 12.5271 308.703 12.4764 308.756L11.8125 308.774L11.8258 309.281L11.5915 309.288L11.5783 308.78L11.1097 308.792L10.8949 300.592L11.2043 300.467C11.2029 300.414 11.2262 300.31 11.2742 300.152L12.5628 300.118L12.5863 301.016L13.0549 301.004L13.0907 302.37L14.0669 302.345L14.2703 302.652C14.6361 302.694 14.9496 302.725 15.2106 302.744C15.4455 302.764 15.6932 302.77 15.9535 302.764L15.9668 303.271L34.2807 302.786L34.4831 303.055C34.6653 303.05 34.8482 303.071 35.0318 303.118C35.2154 303.166 35.4114 303.186 35.6196 303.181L35.8621 303.487C36.0183 303.483 36.1491 303.506 36.2546 303.555C36.3334 303.579 36.4509 303.589 36.6071 303.585L36.6204 304.092L37.5575 304.067L37.5708 304.575L38.0785 304.562L38.2809 304.83C38.3329 304.828 38.3723 304.84 38.399 304.866C38.4258 304.891 38.4652 304.903 38.5172 304.902L38.5438 305.917L39.0514 305.904L39.0647 306.411L39.4943 306.4L39.5301 307.767L39.9596 307.755L39.9841 308.692L40.4918 308.679L40.6717 315.552L40.1641 315.565L40.1876 316.463L39.9584 316.665C39.9618 316.795 39.9392 316.926 39.8906 317.057C39.8412 317.163 39.8183 317.28 39.8217 317.411L39.5534 317.613C39.5568 317.743 39.5342 317.874 39.4856 318.006C39.4369 318.137 39.4143 318.268 39.4177 318.398L38.871 318.413L38.8823 318.842L38.6531 319.044C38.6565 319.174 38.6328 319.266 38.5821 319.319L37.4888 319.348L37.5031 319.895L36.605 319.918L36.6162 320.348L35.1714 320.386L35.1837 320.855L14.0583 321.414L14.0695 321.844L13.8023 322.085C13.805 322.189 13.781 322.268 13.7303 322.321L13.1446 322.337L13.1927 324.172L12.9635 324.374C12.9662 324.478 12.9433 324.596 12.8946 324.727C12.8459 324.859 12.8237 325.003 12.8277 325.159L11.5391 325.193L11.5146 324.256ZM10.6595 316.971L11.3234 316.954L11.3193 316.797L10.8867 316.692L10.6595 316.971ZM11.5435 314.916L11.5579 315.462L11.5959 315.422C11.5945 315.37 11.6178 315.265 11.6658 315.108L11.7439 315.106L11.5435 314.916Z" fill="#BB3A30" fill-opacity="0.7"/>
<path d="M14.675 247.295L15.7227 242.326L16.0686 242.2C16.1384 241.869 16.2337 241.543 16.3545 241.223C16.4753 240.902 16.5733 240.564 16.6485 240.207L16.9482 240.111C17.0771 239.499 17.247 238.883 17.4577 238.262C17.643 237.636 17.8054 236.992 17.9451 236.329L18.3272 236.411L18.4158 235.99L19.2945 236.178L19.3912 235.719L20.4227 235.939L20.5493 236.285C21.2115 236.426 21.9193 236.604 22.6726 236.818C23.4005 237.026 24.1083 237.204 24.796 237.35L24.9306 237.658C25.007 237.675 25.1035 237.722 25.2201 237.8C25.3166 237.847 25.4158 237.882 25.5177 237.903L25.2034 239.394L24.3629 239.215L24.2823 239.597L22.0664 239.125L21.9617 239.622L21.0447 239.426L20.9561 239.847L20.0774 239.659L19.9887 240.08L19.5303 239.982L19.4336 240.441L19.156 240.621C19.1291 240.749 19.0768 240.871 18.999 240.987C18.9266 241.078 18.8823 241.162 18.8662 241.239L18.3695 241.133L18.1761 242.05L17.7559 241.96L16.6679 247.12L17.0882 247.21L16.9028 248.089L17.3613 248.187L17.0792 249.525L17.5377 249.622L17.6723 249.931C17.7232 249.941 17.756 249.975 17.7708 250.031C17.7909 250.062 17.8264 250.083 17.8773 250.094L17.7645 250.629L18.2229 250.727L18.1424 251.109L18.6008 251.207L18.7274 251.553C18.7528 251.559 18.7756 251.577 18.7957 251.608C18.8158 251.639 18.8513 251.66 18.9023 251.671L18.7894 252.206L19.7446 252.409L19.8711 252.756C19.9475 252.772 20.044 252.819 20.1606 252.897C20.2571 252.944 20.3563 252.979 20.4582 253.001L20.3615 253.459L21.3548 253.671L21.4733 254.056C21.5497 254.072 21.6462 254.119 21.7628 254.197C21.8593 254.244 21.9585 254.279 22.0604 254.301L22.2332 254.617C22.5643 254.688 22.8901 254.784 23.2104 254.905C23.5053 255.021 23.8438 255.12 24.2258 255.201L24.29 255.654L31.5107 257.193L31.5993 256.773L33.8152 257.245L33.8958 256.863L35.2329 257.148L35.3377 256.651L35.6373 256.555C35.6427 256.53 35.687 256.446 35.7702 256.304L36.7635 256.515L36.8602 256.057L37.7007 256.236L37.7974 255.777L38.1433 255.651C38.1702 255.524 38.2172 255.427 38.2842 255.362C38.3566 255.271 38.4063 255.161 38.4331 255.034L38.8916 255.132L38.9883 254.673L39.3342 254.547C39.3396 254.522 39.3839 254.438 39.4671 254.296L39.9255 254.394L40.2076 253.056L40.5917 252.938C40.6132 252.836 40.6602 252.74 40.7326 252.648C40.7849 252.526 40.8245 252.402 40.8514 252.274L41.3098 252.372L42.3172 247.594L41.897 247.505L42.0823 246.626L41.5856 246.52L41.771 245.641L41.389 245.559L41.5743 244.68L41.1159 244.582L41.0517 244.129L36.0087 243.055L35.92 243.475L35.4234 243.369L35.3267 243.828L34.9446 243.747L34.1952 247.301L33.7367 247.203L33.6561 247.586L32.6246 247.366L32.8099 246.487L32.4279 246.405L34.2089 237.958L34.591 238.04L34.6796 237.619L35.7493 237.847L35.8839 238.155C35.9094 238.161 35.9322 238.179 35.9523 238.21C35.9778 238.215 36.0032 238.221 36.0287 238.226L35.8956 239.236L36.2776 239.318L36.0923 240.197L42.8163 241.63L42.9428 241.976C42.9683 241.982 42.9911 242 43.0112 242.031C43.0366 242.036 43.0621 242.042 43.0876 242.047L42.6805 244.357L43.1007 244.446L42.9153 245.325L43.2974 245.407L43.104 246.324L43.6006 246.43L43.4153 247.309L43.8355 247.399L43.5696 248.66L44.028 248.758L43.7379 250.134L44.1582 250.223L43.8519 251.676L43.4317 251.586L42.8756 254.223L42.4172 254.126L42.2318 255.005L41.9542 255.185C41.9113 255.389 41.8455 255.575 41.7569 255.742C41.6429 255.904 41.5698 256.062 41.5376 256.215L41.0409 256.109L40.8475 257.026L40.4654 256.945L40.3607 257.442L40.0912 257.584C40.0804 257.635 40.0724 257.673 40.067 257.699C40.0415 257.693 40.0261 257.703 40.0207 257.729L39.4094 257.599L39.3047 258.095L38.997 258.23C38.9916 258.255 38.9862 258.281 38.9808 258.306C38.95 258.326 38.9319 258.349 38.9265 258.374L38.2991 258.32L38.2185 258.703L37.8365 258.621L37.7317 259.118L36.8148 258.923L36.7262 259.343L35.8857 259.164L35.789 259.623L35.2923 259.517L35.2117 259.899L34.333 259.712L34.2282 260.209L32.4708 259.834L32.3822 260.255L29.2494 259.587L29.1527 260.046L25.5615 259.28L25.6582 258.822L23.0221 258.26L22.8794 257.99C22.7467 257.988 22.4592 257.9 22.0168 257.726C21.5745 257.552 21.1878 257.43 20.8567 257.359L20.9614 256.862L20.1591 256.691L20.2397 256.309L19.2846 256.105L19.3813 255.647L18.4644 255.451L18.3599 255.189C18.2581 255.168 18.1488 255.118 18.0322 255.04C17.8901 254.956 17.7809 254.906 17.7045 254.89L17.8173 254.355L17.3589 254.257L17.4394 253.875L16.981 253.777L17.0777 253.319L16.6192 253.221L16.5148 252.959C16.4893 252.954 16.4665 252.935 16.4464 252.904C16.4009 252.868 16.3553 252.832 16.3097 252.795L16.4145 252.299L15.9178 252.193L16.1032 251.314L15.6829 251.224L15.7877 250.727L15.3292 250.629L15.5146 249.75L15.1326 249.669L15.3179 248.79L14.8595 248.692L15.1335 247.393L14.675 247.295ZM25.3887 238.515L26.0361 238.853L26.02 238.929L25.3323 238.782L25.3887 238.515Z" fill="#BB3A30" fill-opacity="0.7"/>
<path d="M28.9956 192.66L33.6575 182.809L34.023 182.767C34.0787 182.65 34.1523 182.555 34.2438 182.483C34.323 182.377 34.396 182.253 34.4629 182.112L35.4143 182.567L35.4234 183.004C35.4469 183.015 35.4648 183.038 35.4772 183.073C35.5007 183.084 35.5242 183.096 35.5477 183.107L35.1837 184.059L35.5713 184.244L34.6022 186.292L35.025 186.494L34.8579 186.847L35.2808 187.05L35.2565 187.558L37.8289 188.788L38.0294 188.364L38.5227 188.6L38.5653 188.967L40.2956 189.968L40.4961 189.544L41.4123 189.983L41.388 190.491L54.9548 196.98L55.1553 196.556L55.9306 196.927L56.3149 196.115L56.8565 196.158L59.246 191.109L58.7879 190.89L60.3084 187.676L59.956 187.508L60.5409 186.272L60.118 186.07L60.519 185.222L58.4752 184.245L58.6423 183.892L56.1756 182.712L56.3761 182.288L55.9885 182.103L56.6067 180.796L56.9944 180.982L57.2116 180.523L62.9555 183.27L63.1393 182.882L63.6678 183.135L63.7271 183.466C63.915 183.556 64.08 183.664 64.2222 183.79C64.3409 183.904 64.4825 184.001 64.6469 184.079L64.2459 184.927L64.6687 185.129L63.6662 187.247L63.2433 187.045L55.3064 203.817L55.0114 203.892C54.9668 203.986 54.8932 204.081 54.7905 204.176C54.699 204.248 54.6309 204.331 54.5864 204.425L53.6349 203.97L53.8521 203.511L53.4645 203.325L53.6316 202.972L53.1735 202.753L54.3432 200.282L53.9908 200.113L54.1579 199.76L36.9967 191.551L37.1972 191.127L34.0258 189.61L33.8086 190.069L33.5136 190.145C33.4913 190.192 33.4746 190.227 33.4634 190.251C33.44 190.239 33.4226 190.245 33.4115 190.269L32.8477 189.999L31.1099 193.671L30.7223 193.486L30.338 194.298L29.0341 193.674L29.4185 192.862L28.9956 192.66ZM53.5826 204.811L53.5568 204.409L53.7406 204.02L54.0578 204.172L53.5826 204.811ZM35.4183 181.919L35.4888 181.953L35.2734 182.499L34.9915 182.365L35.4183 181.919Z" fill="#BB3A30" fill-opacity="0.7"/>
<path d="M61.1592 132.86L73.9279 116.963L74.238 117.013C74.2706 116.973 74.3398 116.928 74.4454 116.88L74.421 116.91C74.4575 116.906 74.4921 116.884 74.5247 116.844L75.5861 117.705L75.8797 117.34L76.6985 118.005L76.6544 118.371C76.9173 118.585 77.1739 118.827 77.4243 119.097C77.6545 119.351 77.9112 119.593 78.1942 119.823L78.1502 120.189C78.2917 120.304 78.4068 120.431 78.4955 120.57C78.5842 120.709 78.7094 120.845 78.8712 120.976L78.6265 121.28L79.0208 121.601L78.3603 122.423L77.6628 121.857L77.3693 122.222L75.6103 120.794L75.3413 121.129L74.6134 120.538L74.0264 121.269L73.7221 121.274L72.7505 122.296C72.6488 122.381 72.5245 122.515 72.3777 122.698C72.227 122.844 72.1109 122.968 72.0294 123.069L71.6655 122.774L66.92 128.682L67.3143 129.002L67.2702 129.369C67.9576 129.927 68.6591 130.53 69.3745 131.178C70.0697 131.809 70.7914 132.429 71.5394 133.036L71.5257 133.427L72.9442 134.78L73.2377 134.415L74.2992 135.277L74.5927 134.911L75.0242 135.06L78.5221 130.705L77.7942 130.114L78.0878 129.749L77.4206 129.207L77.4705 128.895C77.3936 128.866 77.2784 128.739 77.1252 128.514C76.9517 128.273 76.7942 128.095 76.6527 127.98L76.9462 127.614L76.6126 127.343L76.686 127.252L76.9961 127.303C77.0614 127.221 77.1204 127.169 77.1732 127.145L83.9968 132.684L83.6788 133.08L83.3149 132.785L83.0213 133.15L82.3238 132.584L82.0303 132.949L81.3328 132.383L81.0392 132.748L80.3114 132.158L80.0668 132.462L79.7635 132.216L78.9074 133.282L78.5434 132.986L76.0484 136.093L76.7156 136.634L76.7019 137.026C76.7625 137.075 76.8049 137.126 76.829 137.179L76.5228 137.685L84.1651 143.89L84.4587 143.524L85.1259 144.066L85.4194 143.701L85.9359 143.868L91.4152 137.046L91.021 136.726L92.1462 135.325L91.8429 135.079L92.3811 134.409L92.0172 134.114L92.3107 133.748L91.5828 133.157L91.6083 132.876L91.6386 132.901C91.473 132.733 91.3073 132.565 91.1417 132.397C90.9962 132.245 90.8609 132.102 90.7357 131.966C90.6105 131.831 90.5175 131.739 90.4569 131.69L90.7749 131.294L89.7134 130.432L89.7389 130.151C89.658 130.085 89.5954 130.018 89.5511 129.948L89.9914 129.4L90.3015 129.45C90.3341 129.41 90.4196 129.345 90.5578 129.256L91.3463 129.896L91.6399 129.531L95.916 133.002L95.8719 133.369C95.9326 133.418 95.975 133.469 95.9991 133.522L95.6928 134.029L96.0264 134.299L95.4883 134.969L95.8522 135.265L95.7847 135.411L95.4149 135.061L83.5023 149.893L83.1981 149.897C83.1654 149.938 83.141 149.968 83.1247 149.988C83.0881 149.992 83.0617 150.004 83.0454 150.025L82.5299 149.606L82.3831 149.789L82.4995 149.582L82.1356 149.286L82.6982 148.586L82.3646 148.315L83.2208 147.249L82.8265 146.929L83.12 146.563L82.8168 146.317L83.0614 146.013L65.2292 131.536L64.6911 132.206L64.3271 131.91L62.9084 133.677L62.5748 133.406L62.2813 133.771L61.9173 133.476L61.6483 133.811L61.254 133.491L61.2492 133.185L61.1592 132.86ZM78.36 127.102L78.359 127.352L77.9921 127.809L77.6888 127.563L78.36 127.102Z" fill="#BB3A30" fill-opacity="0.7"/>
<path d="M122.727 80.5768L122.975 80.1916L120.599 77.0416L120.258 77.3021L119.434 76.2105L119.093 76.471L118.787 76.0655L118.414 76.3497L118.087 76.3046C117.983 76.3836 117.854 76.4496 117.698 76.5027C117.563 76.5401 117.464 76.5825 117.402 76.6298L117.073 76.1932L116.7 76.4773L116.38 76.3774L116.411 76.3537L115.743 76.765C115.562 76.8705 115.38 76.976 115.199 77.0815C115.038 77.1712 114.937 77.2318 114.896 77.2634L114.614 76.8892L110.264 80.2044L110.57 80.6098L110.47 80.9315C110.564 81.0563 110.622 81.176 110.643 81.2908C110.685 81.3897 110.745 81.4912 110.824 81.5952L110.389 81.9267L116.245 89.6926L116.649 89.3847L117.032 89.6331L122.748 85.2759L122.49 84.9328L123.235 84.3645L122.929 83.959L123.333 83.6512L123.051 83.2769L123.143 83.0101C123.112 82.9685 123.091 82.9191 123.08 82.8617C123.07 82.8043 123.049 82.7548 123.017 82.7132L123.514 82.3344L123.256 81.9913L123.348 81.7245L122.727 80.5768ZM103.807 82.6706L105.36 81.4866L105.649 81.6102L106.986 80.7878L106.727 80.4447L107.255 80.0421L107.638 80.2905L111.491 77.3541L111.232 77.011L112.071 76.3717L112.391 76.4716C112.929 76.0611 113.525 75.6399 114.177 75.2079C114.851 74.7601 115.488 74.3073 116.088 73.8494L116.432 73.9805C116.598 73.8542 116.769 73.7566 116.945 73.6877C117.142 73.603 117.313 73.5054 117.458 73.3949L117.801 73.526C117.822 73.5102 117.851 73.5048 117.887 73.5098C117.944 73.499 118.004 73.47 118.066 73.4226L118.372 73.8281L118.776 73.5202L119.081 73.9257L119.423 73.6652L119.712 73.7888C119.753 73.7572 119.852 73.7148 120.008 73.6617L120.36 74.1295L120.733 73.8454L121.022 73.969C121.105 73.9058 121.185 73.861 121.263 73.8344L121.325 73.787L121.984 74.6603L122.325 74.3998L123.454 75.8968L123.858 75.589L125.34 77.5539L125.201 77.9541C125.327 78.1205 125.432 78.3026 125.516 78.5005C125.6 78.6984 125.704 78.8805 125.83 79.0469L125.73 79.3686C125.808 79.4725 125.858 79.5819 125.879 79.6966C125.922 79.7956 125.982 79.897 126.06 80.001L125.625 80.3325L125.907 80.7068L125.808 81.0285C125.886 81.1324 125.944 81.2522 125.981 81.3877C126.018 81.5233 126.067 81.6326 126.13 81.7158L125.385 82.2841L125.667 82.6584L125.263 82.9662L125.522 83.3093L124.776 83.8776L125.105 84.3142L124.391 84.8589L124.65 85.202L123.935 85.7466L124.194 86.0897L123.417 86.6817L124.452 88.054L124.794 87.7935L125.123 88.2301L125.9 87.6381L126.188 87.7617C126.23 87.7301 126.328 87.6878 126.484 87.6346L126.813 88.0713L127.186 87.7871L127.475 87.9107C127.496 87.8949 127.584 87.8605 127.74 87.8073L128.092 88.2751L128.465 87.991L128.809 88.1221C128.829 88.1063 128.858 88.1009 128.894 88.1059C128.951 88.0951 129.011 88.0661 129.073 88.0187L129.685 88.8296L130.088 88.5217L130.432 88.6529C130.473 88.6213 130.551 88.5947 130.665 88.5731L130.971 88.9786L131.344 88.6944L131.955 89.5053L132.328 89.2212L132.869 89.9385L133.273 89.6306L133.617 89.7618C133.658 89.7302 133.736 89.7036 133.85 89.682L134.462 90.4929L134.865 90.1851L135.43 90.9336L135.772 90.6731L136.336 91.4217L137.082 90.8533L137.449 91.0156C137.552 90.9367 137.661 90.8864 137.775 90.8649C137.895 90.8067 138.006 90.7382 138.109 90.6593L138.392 91.0335L140.256 89.6127L140.561 90.0181L140.934 89.734L141.311 90.233L141.18 90.5784C141.258 90.6823 141.308 90.7917 141.329 90.9064C141.371 91.0054 141.431 91.1068 141.51 91.2108L137.254 94.455L136.948 94.0496L136.575 94.3337L136.279 94.265C136.258 94.2808 136.237 94.2966 136.217 94.3124C136.18 94.3073 136.152 94.3127 136.131 94.3285L135.716 93.9081L135.343 94.1922L134.779 93.4437L134.375 93.7516L134.069 93.3461L133.727 93.6066L133.163 92.8581L132.728 93.1896L132.432 93.1209C132.411 93.1367 132.382 93.142 132.346 93.137C132.309 93.132 132.271 93.1453 132.229 93.1769L131.571 92.3036L131.229 92.5641L130.688 91.8468L130.315 92.1309L129.727 91.3512L129.354 91.6354L128.766 90.8557L128.362 91.1635L127.798 90.415L127.456 90.6755L126.892 89.927L126.488 90.2348L125.947 89.5175L125.201 90.0858L124.896 89.6804L124.492 89.9882L123.951 89.2709L123.578 89.555L123.272 89.1496L122.899 89.4338L122.603 89.365C122.499 89.444 122.37 89.51 122.214 89.5631C122.079 89.6005 121.981 89.6428 121.919 89.6902L121.589 89.2536L121.186 89.5614L120.803 89.3131L118.131 91.3496L118.413 91.7238L118.127 92.1876L124.407 100.515L124.81 100.207L125.177 100.369C125.281 100.29 125.39 100.24 125.504 100.219C125.623 100.16 125.735 100.092 125.838 100.013L126.12 100.387L128.295 98.7296L128.601 99.135L129.378 98.543L129.754 99.0421L129.63 99.3326L129.678 99.5907L121.663 105.7L121.367 105.632C121.346 105.647 121.318 105.653 121.281 105.648C121.245 105.643 121.206 105.656 121.164 105.688L120.741 105.126L120.833 104.859C120.739 104.735 120.679 104.633 120.653 104.555L121.181 104.152L120.922 103.809L122.01 102.981L121.704 102.575L122.449 102.007L108.126 83.0131L107.753 83.2973L107.402 83.221C107.361 83.2526 107.322 83.2659 107.285 83.2609C107.249 83.2559 107.21 83.2692 107.169 83.3007L106.816 82.8329L104.61 84.5142L104.283 84.4692C104.241 84.5007 104.202 84.514 104.166 84.509C104.129 84.504 104.091 84.5173 104.049 84.5489L103.602 83.9563L103.695 83.6894C103.663 83.6479 103.642 83.5984 103.632 83.541C103.621 83.4836 103.6 83.4342 103.569 83.3926L104.066 83.0137L103.807 82.6706ZM105.997 84.3415L105.934 84.3889L105.755 84.2803L105.449 83.8748L105.729 83.6617L105.997 84.3415Z" fill="#BB3A30" fill-opacity="0.7"/>
<path d="M163.259 42.6984L181.977 34.6105L182.228 34.7999C182.276 34.7792 182.358 34.7722 182.474 34.7788L182.438 34.7943C182.472 34.8079 182.513 34.8044 182.561 34.7837L183.098 36.0408L183.529 35.8549L183.943 36.8247L183.733 37.1282C183.866 37.4395 183.98 37.7731 184.076 38.129C184.161 38.461 184.276 38.7946 184.419 39.1298L184.209 39.4333C184.28 39.601 184.323 39.7669 184.337 39.9313C184.35 40.0956 184.398 40.2736 184.48 40.4651L184.121 40.6201L184.321 41.087L183.353 41.5053L183 40.6792L182.569 40.8651L181.679 38.7819L181.284 38.9523L180.916 38.0903L180.055 38.4622L179.784 38.3241L178.447 38.7742C178.317 38.8019 178.145 38.8622 177.929 38.9552C177.728 39.0138 177.567 39.069 177.448 39.1207L177.264 38.6896L170.307 41.6955L170.507 42.1625L170.297 42.466C170.645 43.2801 170.984 44.1405 171.315 45.0472C171.636 45.9299 171.986 46.8142 172.364 47.7002L172.17 48.0397L172.794 49.8975L173.224 49.7116L173.762 50.9687L174.192 50.7828L174.504 51.1159L179.632 48.9003L179.263 48.0382L179.694 47.8523L179.356 47.0621L179.546 46.81C179.491 46.7485 179.448 46.5825 179.418 46.312C179.377 46.0177 179.32 45.7867 179.249 45.619L179.679 45.4331L179.51 45.038L179.618 44.9915L179.869 45.181C179.964 45.1397 180.041 45.1206 180.099 45.1239L183.554 53.2055L183.088 53.4069L182.904 52.9759L182.473 53.1618L182.12 52.3357L181.69 52.5217L181.337 51.6955L180.906 51.8815L180.538 51.0194L180.179 51.1744L180.026 50.8152L178.771 51.3575L178.586 50.9265L174.929 52.5069L175.267 53.2971L175.072 53.6365C175.103 53.7084 175.116 53.7734 175.113 53.8316L174.606 54.1359L178.475 63.1873L178.905 63.0013L179.243 63.7915L179.674 63.6056L180.052 63.9951L188.085 60.5244L187.885 60.0574L189.535 59.3447L189.381 58.9855L190.17 58.6446L189.986 58.2136L190.416 58.0277L190.047 57.1657L190.201 56.929L190.216 56.9649C190.148 56.7391 190.08 56.5133 190.012 56.2874C189.954 56.0855 189.901 55.8956 189.853 55.7177C189.805 55.5397 189.766 55.4148 189.736 55.343L190.202 55.1416L189.664 53.8844L189.818 53.6478C189.777 53.552 189.753 53.463 189.746 53.3809L190.392 53.102L190.643 53.2914C190.691 53.2708 190.796 53.2534 190.96 53.2393L191.36 54.1732L191.79 53.9872L193.955 59.0517L193.745 59.3552C193.775 59.4271 193.789 59.4921 193.786 59.5503L193.278 59.8546L193.447 60.2497L192.659 60.5906L192.843 61.0216L192.715 61.1195L192.551 60.637L175.088 68.1827L174.817 68.0447C174.769 68.0653 174.733 68.0808 174.709 68.0912C174.675 68.0775 174.646 68.0759 174.622 68.0862L174.361 67.4756L174.146 67.5686L174.346 67.4397L174.161 67.0087L174.986 66.6523L174.817 66.2572L176.072 65.7149L175.873 65.248L176.303 65.062L176.149 64.7029L176.508 64.5479L167.479 43.428L166.69 43.7689L166.506 43.3379L164.426 44.2366L164.258 43.8415L163.827 44.0274L163.643 43.5964L163.249 43.7668L163.049 43.2999L163.187 43.0273L163.259 42.6984ZM181.17 45.6402L181.052 45.8613L180.514 46.0937L180.36 45.7345L181.17 45.6402Z" fill="#BB3A30" fill-opacity="0.7"/>
<path d="M245.268 31.7632L245.472 31.5684L245.246 29.1488L244.823 29.2238L244.283 26.1458L243.822 26.2276L243.579 24.8425L243.194 24.9107L242.965 23.6025L242.503 23.6843L242.422 23.2226L241.961 23.3044L241.805 22.4195L241.382 22.4945L241.301 22.0328L240.801 22.1214L240.639 21.198L239.755 21.3548L239.522 21.158C239.496 21.1626 239.468 21.1543 239.438 21.1332C239.408 21.1121 239.367 21.1061 239.316 21.1152L239.222 20.5765L238.683 20.6719L238.45 20.4752C238.425 20.4797 238.397 20.4714 238.367 20.4503L238.175 19.8099L236.367 20.1303L236.139 19.7343L231.062 20.6343L231.143 21.096L230.869 21.3429C230.874 21.3685 230.865 21.3964 230.844 21.4266C230.849 21.4523 230.853 21.4779 230.858 21.5036L230.294 21.6828L232.71 35.457L232.325 35.5252L232.703 37.6798L233.087 37.6116L234.174 43.8062L234.635 43.7244L234.888 44.0366C235.068 44.0047 235.252 43.9986 235.44 44.0181C235.654 44.033 235.851 44.0246 236.031 43.9927L236.259 44.3887L239.567 43.8024L239.492 43.3792L240.839 43.1406L240.751 42.6404L242.136 42.395L242.068 42.0102L242.953 41.8534L242.872 41.3917L243.756 41.2349L243.594 40.3115L243.979 40.2433L243.912 39.8586L244.412 39.7699L244.331 39.3082L244.534 39.1134C244.516 39.0108 244.517 38.8652 244.537 38.6766C244.557 38.4879 244.562 38.3679 244.553 38.3166L245.053 38.228L244.898 37.3431L245.088 37.0713C245.053 36.8661 245.059 36.6797 245.109 36.5122C245.155 36.319 245.16 36.1198 245.124 35.9146L245.508 35.8465L245.279 34.5383L245.74 34.4565L245.268 31.7632ZM223.888 19.5256L226.234 19.1097L226.469 19.5442L231.969 18.5693L231.888 18.1076L231.965 18.0939L232.205 18.3292C232.871 18.211 233.57 18.1268 234.302 18.0765C235.029 18.0005 235.764 17.8966 236.508 17.7648L236.575 18.1496L237.921 17.911L238.168 18.1847C238.245 18.171 238.364 18.1762 238.527 18.2003C238.686 18.1986 238.816 18.1887 238.919 18.1706L239 18.6323L239.846 18.4823L240.099 18.7945C240.227 18.7718 240.347 18.777 240.459 18.8101C240.591 18.813 240.722 18.8031 240.85 18.7804L241.051 19.0224C241.077 19.0179 241.171 19.0276 241.334 19.0517L241.428 19.5903L241.813 19.5221L242.014 19.7642C242.091 19.7506 242.211 19.7558 242.374 19.7798L242.475 20.3569L242.898 20.2819L243.099 20.524C243.15 20.5149 243.257 20.5224 243.42 20.5464L243.508 21.0466L243.931 20.9716L244.177 21.2453C244.203 21.2408 244.297 21.2505 244.46 21.2745L244.629 22.2364L245.052 22.1614L245.298 22.4351C245.324 22.4306 245.367 22.4494 245.427 22.4916C245.483 22.5082 245.538 22.5248 245.594 22.5413L245.749 23.4263L246.173 23.3513L246.409 24.6979L246.87 24.6161L247.187 26.4244L247.61 26.3494L247.988 28.5041L248.488 28.4154L249.062 31.6859L248.749 31.9396C248.812 32.2987 248.856 32.7008 248.882 33.146C248.907 33.5911 248.955 34.0189 249.027 34.4293L248.792 34.6694C248.823 34.8489 248.831 35.0459 248.816 35.2601C248.796 35.4488 248.802 35.6329 248.834 35.8124L248.56 36.0594C248.596 36.2646 248.606 36.4743 248.591 36.6886C248.575 36.9029 248.583 37.0998 248.615 37.2794L248.192 37.3544L248.361 38.3162L248.087 38.5632C248.1 38.6401 248.092 38.7473 248.064 38.8846C248.056 38.9917 248.061 39.0966 248.079 39.1992L247.618 39.281L247.692 39.7043L247.425 39.9896C247.438 40.0666 247.436 40.133 247.42 40.1888L246.895 40.3612L246.969 40.7845L246.695 41.0314C246.718 41.1596 246.712 41.2796 246.679 41.3913C246.671 41.4984 246.679 41.6161 246.701 41.7444L245.74 41.9148L245.821 42.3765L245.436 42.4447L245.517 42.9064L245.281 43.1465C245.29 43.1978 245.287 43.2514 245.27 43.3072L244.231 43.4913L244.326 44.03L244.052 44.2769C244.056 44.3025 244.048 44.3305 244.027 44.3606C244.006 44.3908 244 44.4316 244.009 44.4829L241.278 44.9669L241.359 45.4286L229.32 47.5625L229.239 47.1008L228.7 47.1962L228.468 46.9995C228.442 47.004 228.414 46.9957 228.384 46.9746C228.354 46.9535 228.313 46.9475 228.262 46.9566L228.147 46.3025L229.07 46.1389L228.989 45.6772L230.259 45.4522L230.184 45.029L231.069 44.8722L230.981 44.372L231.443 44.2902L228.488 27.438L228.691 27.2432L228.416 24.3166L227.955 24.3984L227.934 24.283L228.138 24.0882L228.106 22.5467L227.644 22.6286L227.482 21.7051L226.982 21.7938L226.75 21.597C226.544 21.6334 226.348 21.6418 226.159 21.6223C225.992 21.5726 225.818 21.5637 225.639 21.5955L225.558 21.1338L223.789 21.4474L223.714 21.0242L223.253 21.106L223.152 20.5289L223.613 20.4471L223.546 20.0623L223.743 19.829L223.888 19.5256Z" fill="#BB3A30" fill-opacity="0.7"/>
<path d="M288.989 10.9079L309.346 12.0738L309.487 12.3558C309.539 12.3587 309.615 12.3892 309.716 12.4472L309.677 12.4449C309.702 12.4724 309.74 12.4877 309.792 12.4906L309.715 13.8556L310.183 13.8824L310.123 14.9354L309.8 15.1126C309.781 15.4506 309.735 15.8001 309.662 16.1611C309.591 16.4961 309.545 16.8456 309.525 17.2096L309.202 17.3868C309.191 17.5688 309.156 17.7363 309.095 17.8893C309.034 18.0423 308.998 18.2228 308.986 18.4308L308.596 18.4085L308.567 18.9155L307.514 18.8552L307.565 17.9582L307.097 17.9314L307.225 15.6694L306.796 15.6448L306.849 14.7088L305.913 14.6552L305.732 14.41L304.334 14.2126C304.206 14.1792 304.025 14.1558 303.791 14.1424C303.584 14.1045 303.416 14.0818 303.286 14.0743L303.312 13.6063L295.747 13.173L295.718 13.68L295.395 13.8572C295.345 14.7412 295.266 15.6627 295.16 16.6217C295.055 17.5547 294.975 18.5022 294.921 19.4642L294.595 19.6803L294.329 21.6214L294.797 21.6482L294.72 23.0132L295.188 23.04L295.319 23.4779L300.896 23.7973L300.949 22.8613L301.417 22.8881L301.466 22.0301L301.747 21.8898C301.726 21.8103 301.761 21.6428 301.854 21.3872C301.948 21.1057 302.001 20.8739 302.011 20.6919L302.479 20.7188L302.503 20.2898L302.62 20.2965L302.761 20.5784C302.865 20.5843 302.942 20.6018 302.993 20.6308L302.495 29.4058L301.988 29.3767L302.015 28.9087L301.547 28.8819L301.598 27.9849L301.13 27.9581L301.181 27.0611L300.713 27.0343L300.766 26.0983L300.376 26.076L300.398 25.686L299.033 25.6078L299.059 25.1398L295.081 24.912L295.033 25.77L294.708 25.9861C294.703 26.0641 294.687 26.1284 294.658 26.1789L294.068 26.2234L293.511 36.0514L293.979 36.0782L293.931 36.9362L294.399 36.963L294.565 37.4812L303.301 37.9815L303.329 37.4745L305.123 37.5772L305.145 37.1872L306.003 37.2363L306.03 36.7684L306.498 36.7952L306.551 35.8592L306.794 35.7166L306.791 35.7556C306.831 35.523 306.87 35.2905 306.909 35.058C306.947 34.8515 306.984 34.658 307.02 34.4775C307.057 34.297 307.077 34.1677 307.081 34.0897L307.588 34.1188L307.666 32.7538L307.909 32.6112C307.915 32.5072 307.933 32.4169 307.963 32.3404L308.665 32.3806L308.806 32.6625C308.858 32.6655 308.96 32.6975 309.113 32.7584L309.056 33.7724L309.524 33.7992L309.212 39.2982L308.889 39.4753C308.885 39.5533 308.868 39.6176 308.839 39.6681L308.25 39.7126L308.225 40.1416L307.367 40.0925L307.341 40.5605L307.183 40.5905L307.25 40.0858L288.258 38.998L288.076 38.7529C288.024 38.7499 287.985 38.7476 287.959 38.7462C287.935 38.7187 287.91 38.7042 287.884 38.7027L287.921 38.0397L287.687 38.0263L287.923 38.0007L287.95 37.5327L288.847 37.5841L288.871 37.1551L290.236 37.2332L290.265 36.7262L290.733 36.753L290.755 36.363L291.145 36.3854L292.444 13.4534L291.586 13.4043L291.613 12.9363L289.351 12.8067L289.375 12.3777L288.907 12.3509L288.934 11.8829L288.505 11.8584L288.533 11.3514L288.778 11.1698L288.989 10.9079ZM303.722 21.5725L303.518 21.7173L302.933 21.6838L302.955 21.2938L303.722 21.5725Z" fill="#BB3A30" fill-opacity="0.7"/>
<path d="M353.21 16.8148L355.045 17.3618L355.143 17.7173C355.717 17.8884 356.309 18.092 356.918 18.328C357.527 18.564 358.156 18.7787 358.805 18.9722L358.877 19.2791C358.927 19.294 358.995 19.3413 359.08 19.421L359.042 19.4098C359.06 19.4423 359.094 19.4659 359.144 19.4808L358.878 20.38L359.253 20.4916L358.988 21.3908L359.474 21.5359L359.231 22.3601L359.643 22.4829L359.715 22.7898C359.765 22.8047 359.858 22.8595 359.993 22.9541L359.584 24.3403L359.958 24.4519L359.693 25.3511L360.142 25.4851L360.214 25.792C360.264 25.8069 360.357 25.8616 360.492 25.9562L360.204 26.9303L360.579 27.042L360.324 27.9037L360.811 28.0488L360.557 28.9105L360.969 29.0333L360.703 29.9325L361.153 30.0664L361.225 30.3733C361.25 30.3808 361.33 30.4318 361.465 30.5264L361.31 31.0509L361.834 31.2072L361.58 32.0689L361.954 32.1805L361.7 33.0423L362.149 33.1762L361.895 34.0379L362.344 34.1719L362.417 34.4788C362.467 34.4937 362.559 34.5484 362.694 34.643L362.407 35.6171L362.781 35.7287L362.671 36.1034L363.12 36.2373L362.866 37.0991L363.315 37.233L363.061 38.0947L363.435 38.2064L363.534 38.5619C363.559 38.5693 363.639 38.6204 363.774 38.715L363.619 39.2395L364.068 39.3734L363.814 40.2352L364.675 40.4919L364.774 40.8474L365.778 41.3098L369.193 29.7327L368.743 29.5988L369.771 26.1144L369.322 25.9805L369.587 25.0813L369.101 24.9362L368.98 24.6556L369.017 24.6667L368.366 24.3909C368.198 24.3138 368.031 24.2368 367.864 24.1597C367.721 24.0901 367.625 24.0478 367.575 24.0329L367.708 23.5833L366.847 23.3266L366.968 22.9145L366.107 22.6578L366.384 21.7211L366.664 21.6007C366.693 21.5008 366.731 21.4171 366.778 21.3496L375.201 23.861L375.311 24.1791C375.343 24.1616 375.377 24.1852 375.412 24.2501C375.447 24.3149 375.49 24.3548 375.54 24.3696L375.23 25.4187L374.913 25.5279C374.898 25.5779 374.867 25.6366 374.82 25.7041L373.81 25.4027L373.677 25.8523L372.816 25.5956L372.175 27.7686L371.869 27.8404L371.133 29.7814L371.545 29.9042L371.158 31.2155L370.68 31.3175L367.961 40.5343L368.373 40.657L365.643 49.9112L365.326 50.0204C365.318 50.0454 365.299 50.0666 365.266 50.0842C365.234 50.1017 365.21 50.1355 365.196 50.1854L364.297 49.9175L364.165 50.3671L363.566 50.1885L363.698 49.739L363.286 49.6162L363.166 49.3356C363.141 49.3281 363.116 49.3207 363.091 49.3132C363.073 49.2808 363.052 49.2609 363.027 49.2535L363.14 48.5942L362.691 48.4603L362.923 47.6735L362.474 47.5395L362.739 46.6403L362.327 46.5176L362.57 45.6933L362.084 45.5482L362.349 44.649L361.975 44.5374L362.218 43.7131L361.806 43.5903L362.071 42.6912L361.622 42.5572L362.031 41.171L361.619 41.0482L361.73 40.6735L361.28 40.5396L361.656 39.2657L361.244 39.1429L361.377 38.6933L360.89 38.5482L361.156 37.649L360.744 37.5263L360.623 37.2457C360.598 37.2382 360.573 37.2308 360.548 37.2233C360.531 37.1909 360.509 37.171 360.484 37.1636L360.708 36.1296L360.296 36.0069L360.55 35.1451L360.026 34.9889L360.281 34.1271L359.869 34.0044L360.001 33.5548L359.552 33.4208L359.806 32.5591L359.395 32.4363L359.638 31.6121L359.189 31.4781L359.454 30.5789L359.042 30.4561L359.175 30.0066L358.8 29.8949L359.055 29.0332L358.568 28.8881L358.822 28.0264L358.41 27.9036L358.665 27.0419L358.178 26.8968L358.057 26.6162C358.007 26.6013 357.97 26.5901 357.945 26.5827C357.927 26.5503 357.906 26.5303 357.881 26.5229L358.201 25.4364L357.34 25.1796L357.451 24.805L356.216 24.4366L355.95 25.3358L355.494 25.3629L351.88 37.6144L352.292 37.7372L351.143 41.6337L351.592 41.7676L351.327 42.6668L351.776 42.8008L351.875 43.1563C352.049 43.2084 352.217 43.2855 352.376 43.3875C352.561 43.497 352.754 43.5815 352.953 43.641L352.843 44.0157L354.527 44.518L354.615 44.911C354.64 44.9184 354.72 44.9694 354.855 45.064L354.711 45.5511L355.086 45.6627L354.798 46.6368L352.29 45.889L352.169 46.3011L346.029 44.4706L345.871 44.1788C345.771 44.1491 345.654 44.0869 345.519 43.9923C345.384 43.8977 345.291 43.8429 345.242 43.828L345.54 42.8165L345.989 42.9504L346.111 42.5383L346.38 42.4554C346.394 42.4054 346.422 42.3592 346.461 42.3167C346.508 42.2492 346.539 42.1905 346.554 42.1405L347.153 42.3191L347.263 41.9444L347.638 42.056L347.77 41.6064L348.669 41.8743L355.035 20.2937L354.586 20.1598L354.718 19.7102L352.547 19.0628L352.669 18.6507L352.257 18.5279L352.666 17.1417L352.935 17.0588L353.21 16.8148ZM344.703 42.893L345.507 42.9289L345.407 43.2661L344.703 42.893Z" fill="#BB3A30" fill-opacity="0.7"/>
<path d="M458.722 74.7489L459.909 75.7043L459.665 76.0098L461.065 77.1367L461.022 77.5036C461.428 77.8303 461.848 78.2018 462.282 78.6182C462.716 79.0345 463.167 79.4305 463.633 79.8062L463.59 80.1731C463.672 80.2384 463.724 80.2976 463.749 80.3506L463.384 80.8089L463.749 81.1029L462.629 82.5084L462.994 82.8023L462.045 83.9939L461.68 83.9507C461.55 84.1137 461.408 84.2501 461.254 84.36C461.1 84.4699 460.966 84.5962 460.852 84.7388L459.331 83.5139L459.867 82.8417L459.501 82.5477L460.11 81.7839L459.806 81.5389L460.633 80.5001L460.268 80.2061L460.584 79.8089L459.489 78.927L459.635 78.4929L455.223 74.9407L454.956 75.2768L454.256 74.7134L453.915 75.1411L453.58 75.1224C453.548 75.1631 453.505 75.1957 453.453 75.2201L452.966 74.8282L452.382 75.5614L452.078 75.3165L450.666 77.0886L450.97 77.3336L450.435 78.0057L450.83 78.3242L450.788 78.6911C450.828 78.7238 450.873 78.7932 450.922 78.8992L450.581 79.327L451.615 80.1599L451.348 80.496L453.903 82.5538L453.855 82.8657C454.159 83.1106 454.467 83.3923 454.78 83.7107C455.092 84.0291 455.421 84.3271 455.765 84.6047L455.723 84.9717C455.824 85.0533 455.94 85.1798 456.07 85.3512C456.2 85.5226 456.346 85.6737 456.508 85.8043L456.465 86.1712C456.567 86.2529 456.642 86.3468 456.69 86.4528C456.776 86.5548 456.869 86.6467 456.97 86.7283L456.654 87.1255L457.354 87.689L457.086 88.0251L457.421 88.2946L457.378 88.6615C457.398 88.6778 457.453 88.7553 457.542 88.8941L457.226 89.2913L457.591 89.5852L457.524 89.9827C457.545 89.999 457.599 90.0766 457.689 90.2153L456.812 91.3152L457.117 91.5602L455.632 93.424L455.328 93.179L454.987 93.6068L454.622 93.5635C454.606 93.5839 454.579 93.5961 454.543 93.6002C454.506 93.6042 454.472 93.6266 454.439 93.6673L454.013 93.3243L453.405 94.0882L453.04 94.045C453.024 94.0653 452.997 94.0775 452.961 94.0816C452.924 94.0856 452.89 94.108 452.857 94.1487L452.462 93.8303L452.17 94.1969L451.47 93.6335L451.153 94.0307L450.758 93.9629C450.742 93.9833 450.715 93.9955 450.679 93.9996C450.642 94.0036 450.608 94.026 450.575 94.0667L449.784 93.4298L449.468 93.827L447.399 92.1611L447.156 92.4667L444.539 90.3598L444.782 90.0543L442.713 88.3885L443.03 87.9913L442.026 87.1828L441.709 87.58L440.553 86.6491L440.87 86.2519L440.474 85.9334L440.468 85.6276C440.448 85.6113 440.427 85.595 440.407 85.5786C440.403 85.5419 440.391 85.5154 440.371 85.4991L440.699 84.9612L440.334 84.6673L441.478 83.2312L441.174 82.9863L441.49 82.5891L441.794 82.834L442.646 81.7647L442.555 81.6912L442.67 81.7341L443.23 81.0314L443.595 81.3253L443.912 80.9282L444.703 81.5651L444.66 81.932C444.681 81.9483 444.735 82.0259 444.825 82.1646L444.484 82.5924L444.849 82.8863L443.997 83.9557L444.362 84.2497L443.802 84.9524L444.168 85.2464L444.125 85.6133C444.186 85.6623 444.228 85.7133 444.253 85.7663L443.888 86.2247L444.618 86.8126L444.575 87.1795C444.677 87.2612 444.742 87.3469 444.77 87.4366C444.835 87.5223 444.928 87.6141 445.05 87.7121L444.734 88.1093L449.297 91.784L449.59 91.4174L450.289 91.9808L450.581 91.6142L451.312 92.2021L451.604 91.8355L451.908 92.0805L452.443 91.4083L452.808 91.7023L455.072 88.8608L454.676 88.5423L454.67 88.2365C454.609 88.1875 454.534 88.0936 454.445 87.9549C454.376 87.8325 454.321 87.755 454.281 87.7223L454.597 87.3251L453.532 86.4677L453.8 86.1316L452.37 84.9802L452.662 84.6136L449.802 82.3108L449.796 82.0049C449.674 81.907 449.53 81.7743 449.364 81.6069C449.214 81.4192 449.094 81.256 449.005 81.1172L449.321 80.72L448.621 80.1566L448.865 79.8511L448.135 79.2631L448.451 78.8659L448.086 78.5719L448.08 78.2661C448.06 78.2498 448.039 78.2335 448.019 78.2171C448.015 78.1804 448.003 78.1539 447.982 78.1376L448.335 77.5692L448.001 77.2997L448.512 76.6581L448.147 76.3641L448.731 75.6308L448.366 75.3368L449.339 74.1147L449.65 74.164C449.731 74.0621 449.796 73.9806 449.844 73.9195C449.929 73.8544 450.015 73.7893 450.1 73.7241L450.532 73.3699L450.897 73.6638L451.189 73.2972L451.524 73.5667L451.816 73.2L452.181 73.494L452.473 73.1273L452.753 73.1521C452.785 73.1114 452.82 73.089 452.856 73.085C452.893 73.0809 452.927 73.0585 452.96 73.0178L453.447 73.4098L453.739 73.0431L454.019 73.0679C454.051 73.0272 454.094 72.9946 454.146 72.9702C454.199 72.9458 454.242 72.9132 454.274 72.8725L455.065 73.5094L455.357 73.1428L456.087 73.7307L456.379 73.3641L458.479 75.0544L458.722 74.7489ZM448.999 81.0622C448.983 81.0826 448.964 81.0846 448.944 81.0682C448.944 81.0682 448.952 81.0581 448.968 81.0377L448.999 81.0622ZM460.426 84.3958L459.782 84.8293L459.721 84.7803L460.183 84.1998L460.426 84.3958Z" fill="#BB3A30" fill-opacity="0.7"/>
<path d="M503.933 104.758L504.884 105.897L504.775 106.193C504.876 106.313 504.931 106.42 504.941 106.514C504.988 106.61 505.061 106.719 505.161 106.839L504.744 107.191L505.069 107.581L504.77 107.833L505.046 108.163L503.523 109.448L503.199 109.364C503.179 109.381 503.151 109.387 503.114 109.384C503.077 109.381 503.039 109.396 502.999 109.43L502.624 108.98L502.206 109.333L501.956 109.033L501.627 109.31L501.253 109.166C501.233 109.183 501.146 109.222 500.994 109.282L500.318 108.473L499.989 108.75L499.639 108.33L499.693 108.029C499.559 107.869 499.462 107.712 499.402 107.559C499.362 107.388 499.275 107.223 499.141 107.063L499.529 106.736L499.204 106.346L499.502 106.094L499.227 105.764L500.749 104.479L501.019 104.559C501.099 104.491 501.225 104.419 501.398 104.341C501.57 104.264 501.676 104.208 501.716 104.175L502.067 104.595L502.365 104.343L502.616 104.642L503.004 104.315L503.605 105.035L503.933 104.758ZM496.672 110.323L497.273 111.042L497.184 111.424C497.267 111.524 497.333 111.622 497.379 111.719C497.443 111.836 497.497 111.961 497.54 112.094L496.495 112.976L496.821 113.366L496.403 113.718L495.958 113.429L484.613 123.002L484.939 123.392L484.61 123.669L485.186 124.359L485.073 124.71C485.807 125.59 486.513 126.476 487.191 127.37C487.885 128.283 488.641 129.229 489.459 130.209L489.35 130.505C489.467 130.645 489.531 130.762 489.541 130.855C489.568 130.969 489.64 131.095 489.757 131.235L488.921 131.941L488.546 131.797C488.526 131.814 488.498 131.82 488.461 131.817C488.442 131.834 488.422 131.851 488.402 131.868L487.716 131.168L487.388 131.445L486.386 130.246L486.615 129.849L476.877 118.184L476.578 118.436L476.552 118.1C476.485 118.02 476.422 117.904 476.361 117.75C476.301 117.596 476.254 117.5 476.221 117.46L477.385 116.477L477.685 116.531C477.764 116.464 477.842 116.415 477.919 116.385L480.948 120.013L481.306 119.711L481.882 120.401L482.21 120.124L482.811 120.843L493.917 111.472L493.015 110.392L493.404 110.065L490.85 107.006L490.462 107.334L489.811 106.554L490.199 106.227L489.899 105.867L489.953 105.566C489.936 105.546 489.909 105.534 489.873 105.531C489.873 105.531 489.864 105.521 489.848 105.501C489.814 105.461 489.859 105.372 489.982 105.235C490.124 105.08 490.245 104.961 490.345 104.877L490.67 105.267L491.028 104.965L493.332 107.723L493.63 107.472L496.284 110.65L496.672 110.323ZM476.052 116.222L476.592 116.38L476.967 116.83L476.728 117.031L476.052 116.222Z" fill="#BB3A30" fill-opacity="0.7"/>
<path d="M516.707 156.961L516.925 157.376L515.338 158.219L515.556 158.634L514.797 159.037L514.997 159.417L514.777 159.755C514.801 159.801 514.814 159.882 514.817 159.999L514.799 159.964C514.788 160 514.794 160.04 514.819 160.086L513.956 160.544L514.138 160.89L513.953 161.21C513.977 161.256 514.002 161.36 514.029 161.523L513.546 161.779L513.746 162.16L513.366 162.361L513.784 163.157L513.599 163.476C513.829 163.914 514.03 164.353 514.202 164.792C514.386 165.255 514.611 165.74 514.877 166.247L514.709 166.513L515.279 167.935L515.658 167.734L516.512 169.359L516.926 169.14L517.362 169.969L517.742 169.768L517.959 170.183L518.374 169.963L518.555 170.309L522.212 168.368L522.448 168.817L528.762 165.465L528.526 165.016L530.182 164.137L529.783 163.376L530.197 163.156L529.743 162.291L529.859 162.009C529.762 161.824 529.7 161.65 529.674 161.488C529.67 161.313 529.62 161.133 529.523 160.949L529.971 160.711L528.101 157.148L527.652 157.387L526.998 156.142L526.619 156.343L526.201 155.548L525.787 155.767L525.351 154.937L524.557 155.359L524.376 155.013L523.893 155.269L523.575 155.084C523.552 155.096 523.523 155.097 523.488 155.086C523.465 155.099 523.442 155.111 523.419 155.123L523.077 154.641L522.249 155.08L521.931 154.895C521.77 154.981 521.586 155.049 521.378 155.101C521.169 155.152 520.985 155.221 520.824 155.306L520.506 155.121L516.707 156.961ZM543.034 158.951L543.706 160.23L542.533 160.853L542.714 161.199L541.817 161.675L541.636 161.329L539.255 162.593L539.437 162.939L538.988 163.177L538.806 162.831L520.313 172.648L520.495 172.994L519.667 173.434L520.757 175.509L520.377 175.71L520.813 176.54L519.881 177.035L519.564 176.85C519.541 176.862 519.512 176.863 519.476 176.852C519.453 176.864 519.43 176.876 519.407 176.888L518.412 175.161L518.033 175.363L517.415 174.187L516.967 174.425L516.058 172.696L516.507 172.458L515.09 169.76L514.642 169.998L513.788 168.373L513.408 168.575L510.993 163.975L511.109 163.692C511.073 163.623 511.041 163.507 511.014 163.344C511 163.205 510.981 163.112 510.956 163.066L511.439 162.809L510.985 161.945L511.101 161.662C511.089 161.639 511.066 161.622 511.031 161.611C511.031 161.611 511.025 161.599 511.012 161.576C511 161.553 510.994 161.542 510.994 161.542C511.017 161.53 511.023 161.512 511.011 161.489L511.561 161.108L511.179 160.382L511.559 160.181L511.323 159.731L511.737 159.511L511.519 159.096L511.635 158.813C511.623 158.79 511.599 158.773 511.564 158.763C511.564 158.763 511.558 158.751 511.546 158.728C511.534 158.705 511.528 158.693 511.528 158.693C511.551 158.681 511.556 158.664 511.544 158.641L512.474 158.059L512.292 157.713L512.741 157.475L512.523 157.06L513.386 156.602L513.168 156.187L514.72 155.362L514.502 154.947L518.608 152.768L518.826 153.183L520.068 152.523L520.315 152.658C520.522 152.548 520.77 152.46 521.06 152.395L521.475 152.263L521.712 152.712L522.574 152.254L522.756 152.6L523.101 152.417L523.337 152.867L523.751 152.647L524.032 152.763C524.124 152.714 524.211 152.683 524.292 152.669L524.601 153.257L525.015 153.037L525.196 153.383L525.61 153.163L525.857 153.298C525.949 153.249 526.036 153.218 526.117 153.204L526.626 154.172L527.005 153.971L527.423 154.766L527.872 154.528L528.307 155.358L528.687 155.157L531.72 160.932L531.551 161.199L532.322 163.001L533.495 162.378L533.731 162.828L535.283 162.004L535.047 161.554L536.738 160.656L536.974 161.106L538.906 160.08L538.67 159.631L539.463 159.21L538.828 157.999L538.944 157.716L538.503 156.624C538.465 156.496 538.404 156.352 538.319 156.191C538.269 156.04 538.214 155.907 538.154 155.792L539.051 155.316L539.287 155.765L539.736 155.527L540.153 156.322L540.533 156.121L541.568 158.092L542.017 157.854L542.689 159.134L543.034 158.951Z" fill="#BB3A30" fill-opacity="0.7"/>
<path d="M549.633 220.998L549.747 221.412L550.989 221.067L550.875 220.653L551.703 220.423L551.568 219.933L551.817 219.661C551.811 219.636 551.816 219.608 551.834 219.575C551.853 219.543 551.855 219.502 551.841 219.452L552.406 219.295L552.271 218.806L553.137 218.565L552.888 217.661L553.062 217.41C553.055 217.385 553.061 217.356 553.079 217.324C553.097 217.292 553.1 217.251 553.086 217.201L553.688 217.033L553.305 215.64L553.678 215.374L552.56 211.306L552.146 211.421L551.897 210.517L551.37 210.664L551.099 210.415C551.074 210.422 551.046 210.416 551.014 210.398C550.982 210.38 550.94 210.378 550.89 210.392L550.745 209.864L550.294 209.99L549.985 209.751C549.91 209.772 549.844 209.777 549.787 209.766L549.652 209.276L549.163 209.412L548.919 209.115C548.862 209.104 548.805 209.092 548.748 209.081C548.723 209.088 548.672 209.102 548.597 209.123L548.463 208.633L547.635 208.863L547.274 208.437L544.527 209.2L546.69 217.072L547.067 216.967L548.153 220.922L548.643 220.786L548.767 221.238L549.633 220.998ZM554.373 210.681L555.853 216.067L555.604 216.339C555.638 216.465 555.644 216.585 555.622 216.699C555.624 216.806 555.643 216.923 555.677 217.048L555.428 217.32C555.455 217.421 555.458 217.528 555.435 217.643C555.445 217.775 555.467 217.904 555.501 218.03L555.05 218.155L555.184 218.645L554.935 218.917C554.962 219.017 554.965 219.125 554.942 219.239C554.927 219.379 554.933 219.499 554.96 219.599L554.509 219.725L554.633 220.177L554.411 220.4C554.438 220.501 554.446 220.58 554.435 220.637L553.871 220.794L554.005 221.283L553.102 221.534L553.216 221.949L552.966 222.221C552.98 222.271 552.983 222.378 552.974 222.543L551.995 222.815L552.109 223.229L550.83 223.584L550.954 224.036L548.131 224.821L547.86 224.571C547.81 224.585 547.756 224.587 547.699 224.576L547.306 223.144L546.854 223.27L543.707 211.819L543.256 211.945L542.645 209.723L542.193 209.848L542.09 209.471L540.02 210.046L540.123 210.423L539.22 210.674L539.354 211.164L538.451 211.415L538.565 211.829L538.343 212.053C538.371 212.153 538.382 212.245 538.378 212.327L538.398 212.402L537.834 212.559L537.937 212.936L537.688 213.208C537.709 213.283 537.715 213.403 537.706 213.568C537.722 213.725 537.744 213.854 537.772 213.955L537.283 214.091L537.531 214.995L537.117 215.11L537.593 216.842L537.193 217.156L538.332 221.299L538.784 221.174L539.508 223.81L539.922 223.695L540.285 225.014L540.736 224.888L541.088 226.169L541.54 226.043L541.819 227.06L541.57 227.332C541.577 227.357 541.576 227.452 541.567 227.617L540.965 227.784L540.656 227.546C540.606 227.56 540.565 227.557 540.533 227.539C540.501 227.521 540.46 227.519 540.41 227.533L540.265 227.006L539.813 227.131L539.575 226.265L539.161 226.38L538.913 225.476L538.461 225.601L537.974 223.831L537.56 223.946L537.084 222.213L536.595 222.349L535.995 220.165L535.581 220.28L534.566 216.588L534.74 216.337L534.751 216.375L534.639 215.676C534.609 215.468 534.583 215.273 534.559 215.09C534.543 214.933 534.525 214.816 534.504 214.741L534.993 214.605L534.621 213.249L534.795 212.998C534.774 212.923 534.768 212.803 534.777 212.638C534.792 212.499 534.793 212.404 534.78 212.353L535.269 212.218L535.134 211.728L535.548 211.613L535.434 211.199L535.886 211.073L535.638 210.169L535.812 209.918C535.805 209.893 535.81 209.864 535.829 209.832C535.847 209.8 535.849 209.759 535.835 209.709L536.814 209.437L536.679 208.947L537.168 208.811L537.055 208.397L537.996 208.136L537.861 207.646L540.044 207.04L539.94 206.663L543.102 205.785L543.205 206.161L545.388 205.555L545.523 206.045L546.351 205.815L546.601 205.988C546.702 205.96 546.834 205.951 546.998 205.959C547.163 205.967 547.283 205.961 547.358 205.94L547.503 206.468L548.406 206.217L548.619 206.401C548.669 206.387 548.723 206.386 548.78 206.397C548.837 206.408 548.89 206.406 548.941 206.393L549.096 206.958L549.547 206.832L549.661 207.246L550.565 206.995L550.777 207.18C550.878 207.152 550.969 207.14 551.051 207.144L551.227 207.784L551.641 207.669L551.869 208.498L552.358 208.362L552.607 209.266L553.021 209.151L553.259 210.017L553.673 209.902L553.921 210.806L554.373 210.681Z" fill="#BB3A30" fill-opacity="0.7"/>
<path d="M566.506 274.494L566.643 277.773L566.339 277.981C566.34 278.007 566.317 278.099 566.272 278.258L565.765 278.279L565.8 279.138L565.496 279.346C565.502 279.476 565.481 279.594 565.433 279.701C565.412 279.832 565.405 279.962 565.41 280.093L564.903 280.114L564.922 280.582L564.532 280.599L564.55 281.028L564.246 281.236C564.247 281.262 564.225 281.355 564.179 281.513L563.165 281.556L563.186 282.063L561.781 282.122L561.8 282.591L549.038 283.13L549.056 283.559L548.752 283.767C548.767 284.131 548.756 284.484 548.718 284.824C548.68 285.165 548.669 285.517 548.684 285.881L548.419 286.088C548.423 286.192 548.402 286.297 548.354 286.403C548.307 286.536 548.286 286.654 548.291 286.758L546.769 286.822L546.733 285.964L546.303 285.982L546.183 283.094L546.409 282.889C546.376 282.108 546.384 281.365 546.433 280.659C546.456 279.954 546.452 279.251 546.423 278.548L547.438 278.505L547.457 278.974L547.926 278.954L547.944 279.383L548.412 279.364L548.431 279.832L548.9 279.812L549.066 280.04C549.872 280.006 550.732 279.995 551.645 280.009C552.559 280.049 553.471 280.049 554.382 280.011L554.4 280.44L559.278 280.234L559.26 279.805L561.563 279.708L561.545 279.278L562.52 279.237L562.501 278.769L562.891 278.752L562.873 278.323L563.381 278.302L563.359 277.794L563.585 277.589C563.582 277.511 563.603 277.38 563.647 277.196C563.693 277.037 563.714 276.932 563.712 276.88L564.259 276.857L564.094 272.915L563.587 272.937L563.547 272L563.118 272.018L563.061 270.652L562.554 270.673L562.515 269.737L562.124 269.753L562.067 268.387L561.053 268.43L560.844 268.126C560.194 268.153 559.542 268.155 558.89 268.13C558.263 268.105 557.625 268.106 556.974 268.133L556.759 267.673L551.139 267.91L551.159 268.379L548.427 268.494L548.447 268.962L548.143 269.171C548.157 269.509 548.145 269.848 548.107 270.189C548.07 270.555 548.059 270.92 548.074 271.285L547.808 271.452C547.813 271.582 547.792 271.701 547.744 271.807C547.698 271.939 547.677 272.07 547.683 272.2L547.175 272.222L547.195 272.69L546.648 272.713L546.629 272.245L546.161 272.265L545.833 264.42L546.301 264.4L546.28 263.893L546.431 263.769L546.438 263.925L547.296 263.889L547.316 264.357L547.784 264.338L547.822 265.235L548.29 265.215L548.466 265.677L562.828 265.071L562.807 264.564L563.033 264.359C563.013 263.89 563.019 263.408 563.051 262.911C563.109 262.44 563.126 261.917 563.102 261.345L563.61 261.324L563.592 260.894L564.099 260.873L564.265 261.101C564.291 261.099 564.33 261.098 564.382 261.096C564.46 261.092 564.526 261.103 564.579 261.126L564.625 262.219L565.093 262.199L565.189 264.502L565.579 264.486L565.659 266.398L565.269 266.414L565.289 266.883L564.985 267.091C564.989 267.195 564.979 267.274 564.955 267.327L563.98 267.368L564.089 269.983L564.479 269.967L564.499 270.435L564.967 270.415L565.006 271.352L565.474 271.332L565.551 273.166L565.941 273.15L565.998 274.516L566.506 274.494ZM547.005 277.507L547.337 277.962L547.36 278.509L547.047 278.522L547.005 277.507ZM546.927 263.475L546.42 263.496C546.526 263.544 546.567 263.581 546.542 263.608C546.517 263.635 546.506 263.675 546.508 263.727L546.43 263.73L546.397 262.95L546.927 263.475ZM547.117 272.693L546.831 273.331L546.87 273.329L546.805 272.707L547.117 272.693Z" fill="#BB3A30" fill-opacity="0.7"/>
<path d="M563.205 385.168L562.883 386.048L562.523 386.123C562.505 386.172 562.445 386.261 562.342 386.389L561.866 386.213L561.732 386.58L549.788 382.162L549.923 381.795L548.714 381.348L548.579 381.715L547.224 381.213L547.358 380.846L546.186 380.413L546.052 380.779L544.659 380.264L544.794 379.898L542.815 379.166L542.681 379.533L541.728 379.18L541.863 378.813L537.686 377.268L537.552 377.635L536.709 377.324L536.548 377.764L536.238 377.816C536.229 377.84 536.173 377.917 536.071 378.045L535.521 377.842L533.185 384.225L532.819 384.089L532.658 384.529L531.302 384.028L536.914 368.695L537.28 368.83L537.603 367.95L538.592 368.316L538.431 368.756L538.797 368.891L537.253 373.11L537.729 373.286L537.421 374.13L537.824 374.279L537.662 374.719L545.21 377.511L545.371 377.071L546.36 377.437L546.199 377.877L551.987 380.018L552.148 379.578L555.226 380.716L555.065 381.156L560.487 383.162L560.648 382.722L561.014 382.858L562.209 379.593L561.843 379.457L562.796 376.853L563.602 377.151L563.763 376.711L564.313 376.914L564.151 377.354L564.518 377.49L564.384 377.857L564.86 378.033L563.155 382.692L563.558 382.841L562.766 385.005L563.205 385.168ZM539.598 369.771L539.051 369.902L538.502 369.698L538.609 369.405L539.598 369.771Z" fill="#BB3A30" fill-opacity="0.7"/>
<path d="M533.174 425.894L532.93 426.294L531.401 425.352L531.157 425.752L530.789 425.755C530.748 425.822 530.703 425.87 530.654 425.901L529.789 425.368L529.545 425.769L529.211 425.792C529.197 425.814 529.128 425.878 529.002 425.984L528.503 425.677L528.056 426.411L527.742 426.401C527.66 426.534 527.571 426.632 527.472 426.693C527.382 426.791 527.303 426.895 527.235 427.006L526.803 426.74L524.77 430.075L525.169 430.321L524.661 431.155L525.026 431.381L524.782 431.781L525.215 432.047L525.011 432.381L525.377 432.606L524.889 433.407L525.621 433.857L525.377 434.258L525.809 434.524L525.586 434.891L525.951 435.116L525.861 435.565L531.414 438.987L531.638 438.62L532.436 439.112L532.66 438.745L533.392 439.196L533.636 438.796L534.434 439.288L534.657 438.921L535.056 439.167L535.321 438.733L535.653 438.938L536.121 438.171L536.455 438.148C536.564 437.97 536.688 437.817 536.827 437.688C536.975 437.596 537.103 437.461 537.211 437.283L537.61 437.529L538.993 435.261L538.594 435.015L539.041 434.281L538.642 434.035L539.13 433.235L538.798 433.03L539.245 432.296L538.813 432.029L538.789 431.694C538.767 431.68 538.751 431.655 538.742 431.619C538.734 431.583 538.707 431.552 538.663 431.524L538.968 431.024L538.203 430.553L538.406 430.219L537.974 429.953L537.971 429.584C537.616 429.365 537.275 429.124 536.947 428.861C536.619 428.598 536.267 428.35 535.89 428.118L535.887 427.749L533.174 425.894ZM540.44 436.565L539.443 438.199L539.076 438.202C538.967 438.38 538.837 438.544 538.684 438.695C538.531 438.845 538.4 439.01 538.292 439.187L537.978 439.177C537.883 439.333 537.766 439.475 537.627 439.603C537.474 439.754 537.343 439.918 537.235 440.096L536.867 440.099C536.799 440.21 536.723 440.285 536.638 440.325C536.539 440.386 536.456 440.473 536.388 440.584L536.074 440.574C536.061 440.596 535.991 440.66 535.865 440.766L535.4 440.479L534.912 441.28L534.598 441.27C534.571 441.314 534.494 441.39 534.369 441.496L533.504 440.963L533.28 441.33L532.948 441.125L532.704 441.525L531.906 441.033L531.682 441.4L530.95 440.949L530.706 441.35L529.908 440.858L529.684 441.225L527.756 440.036L527.512 440.437L521.226 436.564L521.223 436.194C521.023 436.071 520.815 435.913 520.598 435.718C520.404 435.537 520.195 435.378 519.974 435.241L520.197 434.874L518.634 433.911L518.631 433.542C518.409 433.405 518.19 433.24 517.973 433.045C517.778 432.864 517.57 432.705 517.349 432.568L517.291 432.212C517.203 432.157 517.116 432.074 517.033 431.961C516.958 431.884 516.876 431.818 516.787 431.764L517.051 431.33L516.253 430.838L516.477 430.471L516.078 430.225L516.074 429.856C515.963 429.788 515.877 429.704 515.815 429.605C515.762 429.542 515.681 429.476 515.57 429.408L515.814 429.007L515.381 428.741L515.398 428.338C515.332 428.297 515.256 428.22 515.173 428.108C515.098 428.031 515.016 427.965 514.927 427.91L515.171 427.51L514.739 427.244L514.942 426.91L514.543 426.664L514.539 426.295C514.517 426.281 514.502 426.257 514.493 426.221C514.471 426.207 514.449 426.193 514.427 426.18L514.665 425.638L514.333 425.434L514.296 425.044C514.229 425.003 514.181 424.958 514.15 424.908L514.348 424.433L513.982 424.208L514.49 423.374L514.091 423.128L514.538 422.394L514.139 422.149L514.627 421.348L514.295 421.143L514.783 420.343L514.384 420.097L515.055 418.996L514.689 418.771L515.644 417.203L515.212 416.937L515.24 416.816L515.685 417.136L516.641 415.569L517.871 416.327L517.383 417.127L517.749 417.353L516.814 418.887L517.213 419.133L516.521 420.267L516.854 420.472L516.163 421.606L516.595 421.872L516.127 422.639L516.493 422.865L516.005 423.665L516.77 424.137L516.526 424.537L516.925 424.783L516.437 425.583L516.803 425.809L516.814 426.091C516.858 426.118 516.896 426.157 516.927 426.206C516.957 426.256 516.995 426.294 517.039 426.321L516.734 426.822L517.499 427.293L517.296 427.627L518.094 428.118L517.83 428.552L518.561 429.003L518.572 429.285C518.661 429.34 518.769 429.437 518.898 429.577C519.026 429.717 519.112 429.801 519.156 429.828L518.892 430.262L519.657 430.733L519.433 431.1L522.393 432.924L523.023 431.89L522.691 431.685L523.179 430.884L522.78 430.638L523.227 429.905L522.861 429.679L523.369 428.845L522.937 428.579L525.072 425.077L525.504 425.343L526.257 424.109L526.558 424.065C526.626 423.954 526.716 423.857 526.828 423.773C526.926 423.711 526.996 423.647 527.037 423.58L527.469 423.847L527.693 423.48L528.025 423.685L528.289 423.251L528.722 423.518L528.966 423.117L529.267 423.074C529.28 423.051 529.294 423.029 529.308 423.007C529.343 422.998 529.368 422.983 529.382 422.961L529.888 423.181L530.091 422.847L530.889 423.339L531.154 422.905L531.918 423.377L532.142 423.01L532.907 423.481L533.11 423.148L534.308 423.885L534.552 423.485L538.077 425.657L537.833 426.057L538.997 426.775L538.793 427.108L539.957 427.825L539.968 428.107C540.057 428.162 540.165 428.26 540.293 428.4C540.422 428.54 540.508 428.623 540.552 428.651L540.267 429.118L540.6 429.323L540.397 429.656L541.195 430.148L540.951 430.548L541.317 430.774L540.829 431.574L541.228 431.82L541.239 432.102C541.283 432.129 541.31 432.161 541.318 432.197C541.327 432.233 541.353 432.264 541.398 432.292L540.869 433.159L541.301 433.425L540.834 434.192L541.199 434.418L540.041 436.319L540.44 436.565ZM517.602 414.968L517.69 415.573L517.406 416.04L517.073 415.835L517.602 414.968Z" fill="#BB3A30" fill-opacity="0.7"/>
<path d="M503.022 470.658L502.704 471.003L501.389 469.779L501.071 470.123L500.71 470.054C500.657 470.111 500.604 470.15 500.549 470.171L499.806 469.479L499.489 469.824L499.156 469.781C499.138 469.8 499.058 469.849 498.914 469.929L498.485 469.53L497.903 470.162L497.597 470.09C497.491 470.205 497.383 470.283 497.275 470.324C497.167 470.402 497.07 470.489 496.981 470.585L496.61 470.239L493.963 473.112L494.306 473.431L493.644 474.149L493.959 474.442L493.641 474.787L494.013 475.133L493.748 475.42L494.063 475.713L493.428 476.403L494.056 476.988L493.739 477.333L494.111 477.679L493.819 477.995L494.134 478.288L493.957 478.71L498.731 483.156L499.022 482.84L499.708 483.479L500 483.163L500.628 483.749L500.946 483.404L501.632 484.043L501.923 483.727L502.266 484.046L502.61 483.673L502.896 483.939L503.505 483.278L503.837 483.321C503.979 483.168 504.13 483.042 504.292 482.943C504.455 482.881 504.607 482.774 504.748 482.621L505.091 482.94L506.891 480.987L506.548 480.667L507.13 480.035L506.787 479.716L507.422 479.026L507.136 478.76L507.719 478.128L507.347 477.782L507.389 477.448C507.37 477.43 507.36 477.403 507.359 477.366C507.357 477.329 507.337 477.293 507.299 477.257L507.696 476.826L507.039 476.214L507.303 475.927L506.932 475.581L507.001 475.218C506.696 474.934 506.408 474.631 506.139 474.308C505.869 473.986 505.572 473.674 505.248 473.372L505.317 473.009L503.022 470.658ZM508.053 482.55L506.756 483.957L506.395 483.888C506.254 484.041 506.094 484.177 505.915 484.294C505.736 484.412 505.575 484.548 505.434 484.701L505.128 484.629C505.005 484.763 504.862 484.88 504.7 484.978C504.521 485.096 504.361 485.232 504.22 485.385L503.859 485.315C503.771 485.411 503.681 485.47 503.59 485.492C503.481 485.533 503.383 485.602 503.294 485.697L502.988 485.626C502.971 485.645 502.89 485.694 502.746 485.774L502.346 485.401L501.711 486.091L501.405 486.019C501.369 486.058 501.28 486.116 501.136 486.196L500.392 485.504L500.101 485.82L499.815 485.553L499.498 485.898L498.812 485.259L498.521 485.575L497.892 484.99L497.574 485.334L496.888 484.696L496.597 485.012L494.939 483.468L494.621 483.812L489.218 478.781L489.287 478.418C489.115 478.258 488.942 478.062 488.768 477.828C488.613 477.613 488.44 477.416 488.249 477.238L488.54 476.922L487.197 475.671L487.266 475.308C487.075 475.131 486.893 474.925 486.718 474.692C486.563 474.476 486.39 474.28 486.199 474.102L486.213 473.741C486.137 473.67 486.069 473.571 486.009 473.444C485.95 473.354 485.883 473.273 485.807 473.202L486.151 472.829L485.465 472.19L485.756 471.874L485.413 471.555L485.481 471.192C485.386 471.103 485.318 471.004 485.277 470.895C485.238 470.822 485.17 470.742 485.075 470.653L485.392 470.308L485.021 469.962L485.116 469.57C485.059 469.517 485 469.427 484.94 469.3C484.882 469.21 484.814 469.129 484.738 469.058L485.056 468.714L484.684 468.368L484.949 468.08L484.606 467.761L484.674 467.398C484.655 467.38 484.645 467.353 484.644 467.316C484.625 467.298 484.606 467.28 484.587 467.263L484.926 466.779L484.641 466.512L484.681 466.123C484.624 466.07 484.585 466.016 484.564 465.961L484.851 465.534L484.537 465.241L485.198 464.523L484.855 464.204L485.438 463.572L485.095 463.252L485.73 462.563L485.444 462.297L486.079 461.607L485.736 461.288L486.61 460.339L486.295 460.047L487.539 458.696L487.167 458.35L487.218 458.238L487.592 458.639L488.836 457.289L489.894 458.274L489.258 458.963L489.573 459.256L488.355 460.577L488.698 460.897L487.799 461.874L488.084 462.14L487.185 463.117L487.556 463.463L486.947 464.124L487.262 464.416L486.627 465.106L487.284 465.718L486.967 466.063L487.31 466.382L486.674 467.072L486.989 467.365L486.944 467.644C486.983 467.679 487.012 467.724 487.032 467.779C487.053 467.833 487.082 467.878 487.12 467.914L486.723 468.345L487.381 468.957L487.116 469.244L487.802 469.883L487.458 470.257L488.087 470.842L488.043 471.121C488.119 471.192 488.206 471.309 488.304 471.472C488.402 471.634 488.47 471.733 488.508 471.769L488.164 472.142L488.822 472.754L488.531 473.07L491.075 475.44L491.895 474.549L491.61 474.283L492.245 473.593L491.902 473.274L492.484 472.642L492.17 472.349L492.831 471.631L492.46 471.285L495.239 468.268L495.61 468.614L496.59 467.551L496.893 467.567C496.982 467.472 497.089 467.393 497.215 467.333C497.324 467.292 497.405 467.243 497.458 467.185L497.829 467.531L498.121 467.215L498.406 467.482L498.75 467.108L499.122 467.454L499.44 467.109L499.744 467.126C499.761 467.106 499.779 467.087 499.796 467.068C499.833 467.067 499.86 467.056 499.878 467.037L500.331 467.352L500.596 467.065L501.282 467.704L501.626 467.331L502.284 467.943L502.575 467.627L503.232 468.239L503.497 467.952L504.526 468.91L504.844 468.565L507.874 471.387L507.556 471.732L508.557 472.664L508.292 472.951L509.293 473.883L509.248 474.161C509.324 474.232 509.412 474.349 509.51 474.512C509.608 474.674 509.676 474.773 509.714 474.809L509.344 475.211L509.629 475.477L509.365 475.764L510.051 476.403L509.733 476.748L510.048 477.041L509.413 477.73L509.756 478.05L509.711 478.329C509.749 478.364 509.769 478.4 509.77 478.437C509.772 478.474 509.792 478.51 509.83 478.546L509.142 479.293L509.513 479.639L508.904 480.3L509.219 480.593L507.71 482.23L508.053 482.55ZM489.896 456.888L489.864 457.499L489.493 457.901L489.208 457.635L489.896 456.888Z" fill="#BB3A30" fill-opacity="0.7"/>
<path d="M458.12 499.577L457.74 499.852L456.673 498.358L456.293 498.632L455.748 497.869L455.368 498.143L454.846 497.412L454.529 497.641L454.28 497.291L453.868 497.588L453.528 497.448C453.486 497.479 453.407 497.503 453.293 497.522L452.997 497.109L451.889 497.909L451.549 497.769C451.443 497.845 451.27 497.938 451.028 498.048L450.517 498.273L450.29 497.955L448.168 499.486L448.395 499.804L447.286 500.604L447.581 501.018L446.853 501.544L447.102 501.893L446.374 502.419L446.646 502.8L446.266 503.075L446.516 503.425L446.167 503.676L446.689 504.407L446.309 504.681L446.582 505.063L446.505 505.359C446.641 505.55 446.767 505.748 446.882 505.954C447.012 506.181 447.162 506.459 447.332 506.786L447.201 507.073L448.2 508.808L448.549 508.557L449.593 510.019L449.941 509.768L450.486 510.531L450.866 510.257L451.388 510.988L451.737 510.736L451.964 511.054L452.344 510.78L452.639 511.193L453.367 510.667L453.694 510.721C453.799 510.645 453.92 510.59 454.056 510.556C454.192 510.522 454.291 510.482 454.355 510.437L454.649 510.513C454.734 510.452 454.844 510.405 454.98 510.371C455.115 510.337 455.236 510.282 455.342 510.206L455.66 510.651L458.098 508.891L457.803 508.477L459.292 507.403L459.065 507.085L459.762 506.582L459.49 506.201L459.598 505.882C459.583 505.86 459.551 505.771 459.502 505.613L459.977 505.27L459.75 504.953L460.067 504.724L459.545 503.993L459.662 503.619C459.586 503.513 459.54 503.403 459.521 503.287C459.482 503.187 459.424 503.084 459.349 502.978L459.76 502.681L458.943 501.537L459.083 501.195L458.12 499.577ZM456.927 518.745L456.547 519.019L457.818 520.799L458.198 520.525L459.265 522.019L459.645 521.745L459.94 521.821C459.961 521.806 459.982 521.791 460.003 521.775C460.039 521.781 460.068 521.777 460.089 521.761L460.743 522.542L461.123 522.268L461.44 522.376C461.503 522.33 461.613 522.283 461.77 522.234C461.927 522.185 462.027 522.145 462.069 522.115L462.364 522.528L463.124 521.979L463.501 522.237L466.573 520.02L466.324 519.67L467.052 519.144L466.78 518.763L467.508 518.237L467.213 517.824L467.353 517.482C467.323 517.44 467.303 517.39 467.294 517.332L467.737 517.012L467.442 516.599L467.614 516.234C467.493 516.065 467.4 515.89 467.337 515.712C467.288 515.554 467.211 515.401 467.105 515.253L467.422 515.024L465.106 511.781L464.79 512.01L464.222 511.215L463.81 511.512L463.583 511.194L463.235 511.446L462.949 511.315C462.907 511.345 462.807 511.385 462.651 511.434L462.31 510.957L461.993 511.186L461.708 511.055C461.581 511.146 461.46 511.201 461.346 511.22C461.225 511.275 461.112 511.34 461.006 511.417L460.711 511.003L459.634 511.781L459.384 511.431L457.294 512.94L457.544 513.289L456.752 513.861L457.024 514.242L456.296 514.768L456.545 515.118L455.817 515.644L456.362 516.407L455.981 516.681L456.481 517.38L456.132 517.632L456.927 518.745ZM467.432 521.761L464.803 523.658L464.553 523.308L463.033 524.406L462.693 524.266C462.588 524.342 462.488 524.382 462.394 524.385C462.295 524.425 462.192 524.483 462.087 524.559L461.814 524.177L461.054 524.726L460.714 524.586C460.708 524.622 460.679 524.627 460.628 524.6C460.555 524.588 460.498 524.597 460.456 524.628L460.183 524.246L459.803 524.521L459.281 523.789L458.933 524.041L458.57 523.869C458.549 523.884 458.46 523.917 458.303 523.966L457.781 523.234L457.433 523.486L456.888 522.723L456.508 522.997L454.329 519.945L454.468 519.604C454.423 519.54 454.376 519.429 454.328 519.272C454.258 519.129 454.2 519.026 454.155 518.963L454.535 518.688L453.99 517.925L454.13 517.584C454.115 517.562 454.11 517.534 454.116 517.497C454.101 517.476 454.086 517.455 454.071 517.434L454.469 517.05L454.174 516.637L454.314 516.295C454.284 516.252 454.264 516.202 454.255 516.145L454.698 515.825L454.426 515.443L454.511 515.093C454.481 515.05 454.469 515.011 454.475 514.974C454.481 514.938 454.469 514.898 454.438 514.856L454.914 514.513L453.937 513.146L453.557 513.421L453.217 513.281C453.196 513.296 453.107 513.328 452.95 513.377L452.655 512.964L451.927 513.489L451.564 513.318C451.48 513.379 451.409 513.414 451.351 513.423L451.033 512.978L450.653 513.252L450.313 513.112C450.271 513.143 450.193 513.167 450.078 513.186L449.806 512.804L449.425 513.079L448.881 512.316L448.532 512.567L448.305 512.249L447.925 512.524L447.38 511.761L447.032 512.012L445.988 510.55L445.576 510.847L444.441 509.258L444.613 508.893C444.446 508.66 444.308 508.422 444.199 508.179C444.105 507.958 443.975 507.731 443.809 507.498L443.894 507.147C443.819 507.041 443.772 506.931 443.753 506.815C443.714 506.715 443.656 506.612 443.581 506.506L443.992 506.209L443.765 505.891L444.114 505.64L443.796 505.195L443.936 504.853C443.921 504.832 443.916 504.803 443.922 504.767C443.928 504.73 443.916 504.691 443.886 504.648L444.298 504.351L444.002 503.938L444.142 503.596C444.112 503.554 444.092 503.504 444.083 503.446L444.527 503.126L444.209 502.681L444.349 502.339C444.334 502.318 444.329 502.289 444.335 502.253C444.341 502.216 444.329 502.177 444.299 502.134L444.71 501.837L444.438 501.456L445.198 500.907L444.926 500.526L445.623 500.023L445.396 499.705L447.645 498.082L447.372 497.7L448.544 496.854L448.816 497.236L451.35 495.407L451.577 495.725L452.338 495.176L452.655 495.284C452.718 495.239 452.828 495.191 452.985 495.142C453.142 495.093 453.242 495.053 453.284 495.023L453.579 495.436L453.959 495.162L454.286 495.215C454.328 495.185 454.367 495.173 454.403 495.179C454.44 495.185 454.479 495.172 454.521 495.142L454.884 495.65L455.233 495.399L455.46 495.717L455.808 495.465L456.08 495.847L456.461 495.573L457.005 496.336L457.385 496.061L457.885 496.761L458.233 496.509L458.528 496.586C458.549 496.57 458.57 496.555 458.591 496.54C458.627 496.546 458.656 496.541 458.677 496.526L460.171 498.483L460.551 498.209L460.868 498.654L460.769 498.918C460.981 499.215 461.154 499.524 461.287 499.845C461.42 500.166 461.593 500.475 461.805 500.772L461.425 501.046L461.947 501.777L461.63 502.006L462.152 502.737L461.772 503.012L462.045 503.393L461.914 503.68C461.944 503.723 461.964 503.773 461.973 503.83C461.982 503.888 462.002 503.938 462.032 503.98L461.588 504.3L461.815 504.618L461.087 505.144L461.359 505.525L460.979 505.8L461.229 506.149L461.13 506.414C461.19 506.499 461.233 506.58 461.257 506.659L461.271 506.746L460.796 507.089L461.045 507.438L460.317 507.964L461.066 509.013L461.446 508.739L461.673 509.057L462.021 508.805L462.294 509.187L462.705 508.889L463 508.966C463.021 508.951 463.05 508.946 463.086 508.952C463.122 508.958 463.162 508.946 463.204 508.915L463.567 509.424L464.327 508.875L464.827 509.575L465.207 509.3L465.524 509.408C465.545 509.393 465.574 509.389 465.61 509.395C465.646 509.4 465.685 509.388 465.728 509.358L466.545 510.502L466.925 510.228L467.765 511.404L468.145 511.13L468.985 512.306L468.605 512.58L469.399 513.693L469.268 513.98L469.582 514.621C469.661 514.821 469.73 514.963 469.791 515.048L469.692 515.313C469.767 515.418 469.822 515.54 469.855 515.676C469.889 515.813 469.943 515.934 470.019 516.04L469.888 516.327C469.949 516.412 469.991 516.494 470.015 516.572L469.508 516.938L469.781 517.32L469.401 517.594L469.628 517.912L468.899 518.438L469.194 518.851L468.846 519.102L469.096 519.452L467.955 520.275L468.228 520.656L467.182 521.411L467.432 521.761Z" fill="#BB3A30" fill-opacity="0.7"/>
<path d="M373.988 552.496L370.398 553.436L370.092 553.032L363.328 554.802L363.445 555.256L360.8 555.948L360.532 555.695C360.507 555.701 360.413 555.699 360.248 555.688L360.131 555.235L359.715 555.343L359.353 553.944L359.559 553.648C359.526 553.522 359.522 553.402 359.546 553.288C359.545 553.18 359.528 553.064 359.496 552.938L361.272 552.473L361.164 552.057L373.937 548.714L374.185 548.892C374.21 548.885 374.235 548.879 374.261 548.872C374.292 548.891 374.321 548.897 374.346 548.89L374.568 549.437L374.984 549.329L375.474 551.219L375.286 551.43C375.299 551.481 375.296 551.522 375.278 551.553C375.259 551.585 375.256 551.626 375.269 551.677L373.871 552.043L373.988 552.496Z" fill="#BB3A30" fill-opacity="0.7"/>
</svg>
