<svg width="424" height="419" viewBox="0 0 424 419" fill="none" xmlns="http://www.w3.org/2000/svg">
<path d="M161.743 406.186L157.677 405.062L157.572 404.708C157.245 404.618 156.926 404.503 156.614 404.362C156.301 404.222 155.969 404.103 155.618 404.006L155.54 403.701C154.938 403.534 154.333 403.326 153.727 403.078C153.113 402.854 152.48 402.652 151.827 402.471L151.931 402.095L151.555 401.991L151.794 401.125L151.343 401L151.384 400.849L151.878 400.824L153.252 395.854L152.8 395.729L152.842 395.578L153.195 395.473C153.202 395.448 153.222 395.427 153.254 395.408C153.286 395.39 153.309 395.356 153.323 395.306L153.774 395.431L153.889 395.017L154.943 395.308L155.069 395.586C155.119 395.6 155.157 395.611 155.182 395.617C155.175 395.643 155.184 395.659 155.209 395.666L154.928 396.682L155.417 396.817L154.803 399.039L155.217 399.153L154.988 399.982L155.477 400.117L155.603 400.395C155.628 400.402 155.65 400.421 155.668 400.453L155.566 401.114L156.094 401.26L156.219 401.538C156.295 401.559 156.401 401.615 156.537 401.707C156.674 401.799 156.767 401.852 156.818 401.866L156.682 402.355L162.669 404.011L162.794 403.559L163.659 403.798L163.774 403.384L164.64 403.624L164.765 403.172L165.129 403.029C165.142 402.979 165.165 402.945 165.197 402.927C165.229 402.908 165.252 402.874 165.266 402.824L165.793 402.97L165.918 402.518L166.272 402.413C166.306 402.288 166.366 402.169 166.451 402.057C166.504 401.964 166.548 401.855 166.582 401.729L166.898 401.614C166.905 401.589 166.924 401.567 166.956 401.549C166.988 401.531 167.011 401.496 167.025 401.446L167.59 401.602L167.83 400.736L168.145 400.621C168.201 400.42 168.281 400.226 168.387 400.04C168.486 399.878 168.56 399.709 168.608 399.533L168.985 399.637L169.474 397.868L169.827 397.763C170.001 397.135 170.212 396.518 170.461 395.912C170.685 395.298 170.88 394.69 171.046 394.088L171.352 394.01L172.023 392.169L171.609 392.055L172.577 388.553L172.087 388.418L172.566 386.686L172.19 386.582L172.554 385.264L172.14 385.15L172.035 384.796C171.985 384.783 171.892 384.73 171.755 384.638L172.005 383.734L171.628 383.63L171.523 383.277C171.498 383.27 171.442 383.228 171.356 383.15L171.394 383.16C171.375 383.128 171.341 383.105 171.291 383.091L171.426 382.602L171.012 382.487L170.907 382.134C170.782 382.099 170.676 382.043 170.589 381.965C170.471 381.905 170.349 381.858 170.223 381.823L170.146 381.518C170.02 381.483 169.914 381.427 169.828 381.349C169.709 381.289 169.587 381.242 169.461 381.207L169.607 380.68L168.741 380.441L168.705 379.985L164.15 378.725L164.035 379.139L163.169 378.899L163.034 379.389L162.168 379.149L162.064 379.526L161.574 379.391L161.449 379.842L161.073 379.738L160.823 380.642L160.371 380.517L160.267 380.893L160 380.982L160.01 380.944C159.915 381.188 159.824 381.419 159.737 381.638C159.656 381.832 159.579 382.014 159.505 382.182C159.432 382.351 159.384 382.473 159.364 382.548L158.874 382.413L158.51 383.731L158.133 383.627L158.008 384.078L157.741 384.167C157.72 384.242 157.671 384.323 157.593 384.409L156.877 384.211L156.992 383.797L156.163 383.568L157.527 378.636L157.881 378.531C157.888 378.506 157.907 378.484 157.939 378.466C157.946 378.441 157.953 378.416 157.96 378.391L158.47 378.451L158.606 377.962L158.997 377.867C159.003 377.842 159.023 377.82 159.055 377.802C159.062 377.777 159.069 377.752 159.076 377.727L160.076 377.922L160.201 377.471L160.516 377.355C160.53 377.305 160.556 377.258 160.595 377.215L161.574 377.486L161.71 376.996L162.613 377.246L162.728 376.832L164.46 377.311L164.585 376.859L166.316 377.338L166.431 376.924L168.238 377.424L168.124 377.838L170.345 378.452L170.22 378.904L171.538 379.269L171.663 379.546C171.789 379.581 171.908 379.641 172.019 379.726C172.106 379.804 172.187 379.853 172.262 379.874L172.116 380.401L172.982 380.641L172.878 381.017L173.33 381.142L173.455 381.42C173.481 381.427 173.506 381.434 173.531 381.441C173.549 381.473 173.571 381.492 173.596 381.499L173.504 382.123L173.956 382.247L174.071 382.563C174.097 382.57 174.125 382.564 174.157 382.546C174.157 382.546 174.17 382.55 174.195 382.557C174.22 382.564 174.232 382.567 174.232 382.567C174.226 382.592 174.235 382.608 174.26 382.615L174.158 383.276L174.535 383.38L174.295 384.246L174.784 384.381L174.91 384.659C174.935 384.666 174.957 384.686 174.975 384.718C174.993 384.75 175.027 384.773 175.078 384.787L174.921 385.351L175.411 385.487L175.057 386.767L175.471 386.881L175.211 387.823L175.663 387.948L175.319 389.19L175.733 389.305L175.119 391.526L175.571 391.651L174.113 396.922L173.661 396.797L173.182 398.529L172.768 398.414L172.403 399.732L171.952 399.607L171.587 400.925L171.32 401.013C171.292 401.113 171.232 401.232 171.14 401.368C171.041 401.53 170.982 401.649 170.961 401.724L170.434 401.578L170.194 402.444L169.927 402.532C169.92 402.557 169.909 402.595 169.895 402.645C169.875 402.721 169.845 402.78 169.806 402.823L169.203 402.657L168.974 403.485L168.598 403.381L168.473 403.832L167.983 403.697L167.858 404.149L167.591 404.237C167.577 404.287 167.551 404.334 167.512 404.377C167.473 404.42 167.446 404.467 167.432 404.517L166.868 404.361L166.763 404.738L166.349 404.623L166.214 405.113L165.946 405.201C165.919 405.301 165.882 405.386 165.836 405.454L164.857 405.183L164.732 405.635L164.243 405.5L164.139 405.876L163.273 405.637L163.148 406.088L161.868 405.734L161.743 406.186Z" fill="#4D2F14" fill-opacity="0.7"/>
<path d="M128.345 367.872L127.931 367.653L125.832 371.625L126.247 371.844L126.235 372.368L132.383 375.616L132.602 375.201L133.845 375.858L134.064 375.444L134.859 375.864L135.078 375.449L135.872 375.869L136.109 375.42L136.477 375.393C136.501 375.347 136.537 375.307 136.584 375.273L137.033 375.51L137.49 374.647L137.873 374.673L139.161 372.57L138.712 372.333L139.15 371.504L138.39 371.103L138.591 370.723L137.797 370.303L137.77 369.935C137.424 369.753 137.08 369.541 136.736 369.301C136.369 369.048 135.989 368.818 135.598 368.611L135.587 368.296L134.659 367.629L134.458 368.009L132.42 366.932L132.201 367.347L131.372 366.909L131.172 367.289L130.412 366.887L130.193 367.302L129.364 366.864L129.145 367.278L128.765 367.078L128.345 367.872ZM125.918 384.173L121.532 381.855L120.922 381.003L120.404 380.729L120.604 380.349L119.81 379.93L119.8 379.615C119.731 379.578 119.639 379.501 119.525 379.382L119.799 378.864L119.419 378.663L119.409 378.348C119.317 378.299 119.242 378.245 119.185 378.186L119.116 378.149L119.591 377.251L119.245 377.069L121.234 373.304L121.58 373.487L126.433 364.299L124.154 363.095L123.953 363.475L123.435 363.201L123.636 362.821L123.256 362.621L123.229 362.253C123.206 362.241 123.138 362.175 123.024 362.056L123.334 361.469L123.702 361.442C123.714 361.419 123.738 361.402 123.773 361.392C123.785 361.369 123.797 361.346 123.809 361.323L125.607 362.184L125.808 361.804L126.982 362.425L127.219 361.976L129.292 363.07L129.054 363.519L129.538 363.775L129.601 364.073C129.67 364.11 129.762 364.188 129.876 364.307C129.989 364.426 130.069 364.497 130.115 364.522L129.878 364.971L131.398 365.774L131.617 365.359L132.791 365.98L132.992 365.6L134.684 366.494L134.921 366.045L139.791 368.618L139.554 369.067L140.349 369.486L140.446 369.803C140.561 369.864 140.664 369.948 140.755 370.055C140.823 370.149 140.891 370.215 140.96 370.251L140.723 370.7L141.552 371.138L141.351 371.518L141.8 371.756L141.362 372.585L141.708 372.767L141.306 373.527L141.721 373.746L140.571 375.922L140.157 375.703L139.755 376.463L139.41 376.28L138.972 377.109L138.523 376.872L138.286 377.321L138.006 377.349C137.957 377.442 137.903 377.516 137.843 377.573L136.911 377.08L136.692 377.495L135.863 377.057L135.662 377.437L134.868 377.017L134.649 377.432L133.44 376.793L133.221 377.207L131.598 376.35L131.379 376.764L126.543 374.209L126.361 374.555L125.152 373.916L124.915 374.365L124.5 374.146L124.3 374.526L123.847 374.464L121.821 378.297L122.236 378.516L122.299 378.815C122.322 378.827 122.345 378.839 122.368 378.851C122.379 378.886 122.396 378.91 122.419 378.922L122.178 379.546L122.592 379.765L122.655 380.063C122.747 380.112 122.839 380.19 122.93 380.297C123.02 380.404 123.123 380.487 123.239 380.548L123.139 381.07L126.939 383.077L127.158 382.663L127.952 383.083L128.153 382.703L128.947 383.122L129.203 382.639L129.536 382.594C129.548 382.571 129.572 382.554 129.607 382.543C129.642 382.532 129.672 382.504 129.696 382.458L130.214 382.731L130.853 381.523L131.198 381.705L131.454 381.222L131.856 381.213C131.88 381.167 131.962 381.151 132.101 381.166C132.229 381.204 132.379 381.254 132.552 381.316C132.713 381.401 132.875 381.486 133.036 381.572C133.174 381.645 133.289 381.705 133.381 381.754L133.162 382.169L133.542 382.369L133.603 382.755C133.626 382.767 133.656 382.768 133.691 382.757C133.691 382.757 133.702 382.763 133.725 382.775C133.748 382.787 133.741 382.857 133.703 382.984C133.653 383.135 133.597 383.297 133.535 383.47C133.438 383.654 133.346 383.827 133.261 383.988C133.164 384.172 133.097 384.299 133.061 384.368L132.612 384.131L132.192 384.925L131.397 384.505L131.197 384.885L130.402 384.466L130.165 384.915L129.371 384.495L129.17 384.875L128.376 384.455L128.175 384.835L126.137 383.758L125.918 384.173ZM128.781 376.496L128.742 375.901L128.961 375.487L129.237 375.633L128.781 376.496Z" fill="#4D2F14" fill-opacity="0.7"/>
<path d="M81.3906 367.158L79.2437 365.341L79.496 365.043L75.6195 361.762L75.6975 361.368C75.6777 361.351 75.6249 361.272 75.5393 361.132L76.8514 359.581L77.5969 360.212L77.8997 359.854L78.2644 359.907C78.298 359.867 78.4112 359.895 78.6039 359.989C78.7797 360.104 78.9854 360.244 79.2209 360.409C79.4396 360.594 79.6582 360.779 79.8769 360.964C80.0757 361.133 80.2248 361.259 80.3242 361.343L80.0214 361.701L81.7807 363.189L81.6224 363.618L84.8727 366.369L85.1502 366.041L85.8957 366.672L86.1985 366.314L86.4967 366.566L86.7995 366.208L87.194 366.286C87.2781 366.187 87.3737 366.114 87.4808 366.068C87.5679 366.006 87.6536 365.925 87.7377 365.825L88.0955 366.128L91.5777 362.013L91.2497 361.735L91.5272 361.407L91.1396 361.079L91.2933 360.595L85.2699 355.498L84.9671 355.856L84.1918 355.2L84.2446 354.835C84.1452 354.751 84.0725 354.656 84.0267 354.549C83.9441 354.445 83.8531 354.351 83.7537 354.267L84.435 353.461L84.8295 353.539C84.8464 353.52 84.8731 353.508 84.9098 353.505C84.9266 353.485 84.9435 353.465 84.9603 353.445L92.0778 359.366L92.3806 359.008L93.0665 359.589L102.176 348.824L101.788 348.496L102.368 347.81L102.07 347.558L102.128 347.248C101.511 346.727 100.912 346.185 100.329 345.624C99.7466 345.063 99.1372 344.513 98.5011 343.975L98.5791 343.58L97.1592 342.174L96.8312 342.562L96.7716 342.511L96.8496 342.117C96.7701 342.049 96.7074 341.962 96.6615 341.855C96.5789 341.751 96.4879 341.657 96.3885 341.573L97.0698 340.768L97.368 341.02L97.6456 340.692L110.319 351.416L110.316 351.721C110.356 351.755 110.386 351.78 110.406 351.797C110.389 351.817 110.39 351.835 110.41 351.852L109.906 352.448L109.608 352.196L109.355 352.494L108.64 351.889L108.312 352.276L105.896 350.232L105.619 350.56L104.903 349.955L104.575 350.342L104.217 350.04L95.1584 360.745L95.5162 361.047L95.2134 361.405L95.9589 362.036L95.9566 362.341C96.2945 362.627 96.634 362.932 96.975 363.254C97.2962 363.56 97.6601 363.936 98.0669 364.383L97.7388 364.77L98.0668 365.048L97.436 365.793L96.7502 365.213L96.4474 365.571L94.032 363.527L93.7545 363.855L93.4746 363.823C93.1045 364.26 92.6962 364.682 92.2497 365.089C91.8031 365.496 91.3948 365.918 91.0247 366.355L90.6669 366.052L89.4557 367.484L89.1575 367.231L88.6024 367.887L88.2147 367.559L87.6092 368.275L87.3293 368.243C87.3125 368.263 87.2873 368.293 87.2536 368.332C87.2031 368.392 87.1511 368.433 87.0976 368.456L86.5907 368.027L86.2879 368.385L85.9897 368.133L85.7374 368.431L85.0217 367.825L84.6937 368.213L84.3359 367.91L84.0583 368.238L83.3725 367.658L83.0444 368.046L81.643 366.86L81.3906 367.158ZM98.7489 341.626L99.4049 340.85L99.4554 341.456L99.0769 341.903L98.7489 341.626ZM98.7917 365.764L98.0507 365.853L98.2021 365.674L97.8145 365.346L98.0164 365.108L98.7917 365.764ZM85.8755 354.117L86.4788 353.707L86.5384 353.757L86.0842 354.294L85.8755 354.117ZM75.3145 360.43L75.365 360.37L75.8673 360.744L75.6654 360.983L75.3145 360.43Z" fill="#4D2F14" fill-opacity="0.7"/>
<path d="M62.7608 333.403L62.3894 333.689L58.8866 329.139L59.0628 328.856C58.9833 328.752 58.9325 328.644 58.9102 328.529C58.8673 328.431 58.7903 328.309 58.6791 328.165L58.8552 327.882C58.7758 327.778 58.7249 327.67 58.7027 327.555C58.6439 327.436 58.5668 327.315 58.4715 327.191L58.8429 326.905L58.5332 326.503L58.7093 326.219C58.6617 326.157 58.6188 326.059 58.5806 325.924C58.5424 325.789 58.4757 325.66 58.3804 325.536L58.7518 325.25L58.4897 324.909L58.6111 324.619C58.5952 324.598 58.5714 324.567 58.5396 324.526C58.5078 324.485 58.4864 324.435 58.4752 324.378L58.9395 324.021L58.6298 323.618L59.3726 323.047L59.1105 322.706L59.2867 322.423C59.2231 322.34 59.1643 322.221 59.1103 322.065L59.9151 321.446L59.653 321.105L60.7054 320.295L60.4194 319.924L62.8338 318.065L63.1792 318.194C63.2411 318.146 63.3006 318.117 63.3578 318.105L64.2632 319.282L64.6347 318.996L71.8784 328.405L72.2499 328.12L73.6557 329.946L74.0272 329.66L74.2655 329.969L75.8441 328.754L75.6058 328.445L76.3487 327.873L76.0389 327.47L76.7818 326.898L76.5435 326.589L76.6649 326.298C76.6172 326.236 76.5878 326.177 76.5767 326.12C76.5496 326.042 76.5203 325.982 76.4885 325.941L76.9218 325.608L76.6835 325.298L76.8597 325.015C76.7803 324.911 76.7215 324.792 76.6833 324.657C76.6086 324.518 76.5316 324.396 76.4521 324.293L76.8545 323.983L76.2827 323.24L76.6231 322.978L75.5271 321.554L75.827 321.176L73.2536 317.833L72.8821 318.119L71.2141 315.952L70.8737 316.214L70.0397 315.131L69.6682 315.417L68.8581 314.364L68.4866 314.65L67.748 313.691L67.9241 313.407C67.8765 313.345 67.8256 313.236 67.7716 313.081L68.3906 312.604L68.767 312.709C68.8082 312.677 68.8471 312.664 68.8837 312.668C68.9202 312.673 68.9591 312.66 69.0003 312.628L69.3339 313.061L69.7054 312.775L70.2534 313.487L70.5939 313.225L71.1658 313.968L71.5372 313.682L72.6572 315.137L72.9976 314.875L74.0937 316.299L74.4961 315.989L75.8782 317.784L76.2186 317.522L78.6015 320.617L78.5587 320.946L78.9901 321.698C79.0489 321.818 79.118 321.929 79.1974 322.032C79.2562 322.151 79.3253 322.262 79.4047 322.365L79.0023 322.675L79.8125 323.727L79.7459 324.025C79.8095 324.108 79.8603 324.216 79.8985 324.351C79.9207 324.466 79.9716 324.574 80.051 324.678L79.6486 324.987L79.9584 325.39L79.6179 325.652L79.88 325.992L79.5086 326.278L80.0328 326.959L79.9662 327.257C80.0456 327.36 80.0806 327.448 80.0711 327.521L79.2663 328.141L79.5761 328.543L79.1737 328.853L79.4358 329.193L78.662 329.789L78.9718 330.192L77.1765 331.574L77.4148 331.883L74.6909 333.98L74.4526 333.67L72.6573 335.052L72.3475 334.65L71.6975 335.15L71.3998 335.084C71.2966 335.163 71.1879 335.214 71.0736 335.236C70.9386 335.275 70.8092 335.341 70.6854 335.437L70.3518 335.003L69.6399 335.551L69.3731 335.461C69.3319 335.493 69.293 335.506 69.2564 335.501C69.1993 335.513 69.1294 335.55 69.0469 335.614L68.6895 335.149L68.318 335.435L68.0559 335.095L67.344 335.643L67.0772 335.552C67.0359 335.584 66.9375 335.627 66.7819 335.681L66.4007 335.186L66.0602 335.448L65.536 334.767L65.1336 335.077L64.5617 334.334L64.2212 334.596L63.6732 333.884L63.3327 334.146L62.7608 333.403ZM63.5997 321.814L62.8878 322.362L62.6256 322.021L61.728 322.712L61.9901 323.053L61.3091 323.577L61.5951 323.948L61.4666 324.294C61.5301 324.376 61.5572 324.454 61.5477 324.527L61.0834 324.885L61.3931 325.287L60.6812 325.835L61.2054 326.516L61.1389 326.814C61.2183 326.917 61.2532 327.005 61.2437 327.078L60.7485 327.459L61.5825 328.543L61.5159 328.84C61.8924 329.372 62.2927 329.935 62.7169 330.529C63.1045 331.117 63.4866 331.678 63.8631 332.21L64.2036 331.947L64.7755 332.69L65.1778 332.381L65.5232 332.509C65.5645 332.477 65.6034 332.464 65.6399 332.469C65.6764 332.473 65.7153 332.46 65.7566 332.428L66.0902 332.861L66.4616 332.575L66.838 332.68C66.8999 332.632 66.9594 332.603 67.0166 332.592L67.3264 332.994L67.6978 332.708L68.1527 332.851C68.1734 332.835 68.2123 332.822 68.2694 332.811C68.2901 332.795 68.321 332.771 68.3623 332.739L68.6721 333.141L69.353 332.617L69.8485 332.877L71.9843 331.233L67.0995 324.887L66.79 325.125L64.288 321.875L63.8856 322.185L63.5997 321.814ZM58.2675 335.827L58.1938 336.18L58.139 336.172L56.2548 335.454L56.1737 335.22L52.4958 333.517C52.4911 333.553 52.4736 333.616 52.4435 333.705C52.3975 333.773 52.3641 333.815 52.3435 333.831L51.0953 333.362L51.2476 333.048L50.9808 332.957L51.0784 332.636L50.8116 332.545L51.3447 331.445L51.5638 331.473L51.7685 330.971L52.6403 331.335L52.8307 330.942L59.6314 333.693L59.6004 333.716L59.6552 333.724L59.4552 333.976C59.5648 333.99 59.6434 334.028 59.6911 334.09L59.5935 334.412L59.8365 334.471L59.2845 335.931L59.0344 335.927C59.0202 336.036 58.9924 336.107 58.9511 336.139L58.2675 335.827ZM59.7456 333.457L59.6314 333.693L59.6552 333.724C59.7283 333.733 59.7886 333.769 59.8363 333.831L59.6911 334.09C59.8006 334.105 59.8793 334.143 59.9269 334.205C59.9158 334.147 59.9126 334.101 59.9173 334.064C59.9062 334.007 59.8951 333.95 59.8839 333.893L59.7456 333.457ZM50.6902 332.836L50.8118 333.186L50.8357 333.217L50.9808 332.957L50.6902 332.836ZM58.3439 336.31L58.1938 336.18L58.139 336.172L57.9628 336.456L58.3439 336.31ZM50.9263 333.591L51.0953 333.362L51.0405 333.355L51.0715 333.331L50.8595 333.248L50.9263 333.591ZM51.1256 331.416L51.3137 331.469C51.3344 331.453 51.3494 331.408 51.3589 331.335C51.3177 331.367 51.2788 331.381 51.2423 331.376C51.1851 331.387 51.1462 331.401 51.1256 331.416ZM59.2155 336.034L59.5036 335.96L59.2535 335.955C59.2329 335.971 59.2305 335.989 59.2464 336.01C59.2464 336.01 59.2361 336.018 59.2155 336.034ZM50.8595 333.248L50.8047 333.241L50.8595 333.248Z" fill="#4D2F14" fill-opacity="0.7"/>
<path d="M20.1309 272.842L20.4578 272.552L17.9429 263.156L17.4901 263.278L15.7126 256.636L15.9639 256.367C15.9303 256.241 15.9285 256.134 15.9586 256.045C15.9568 255.937 15.9391 255.821 15.9054 255.695L16.7733 255.463L16.6622 255.048L19.8696 254.189L20.129 254.403C20.607 254.275 21.0917 254.172 21.5831 254.095C22.0745 254.017 22.5718 253.911 23.075 253.776L23.3444 254.027C23.3696 254.021 23.3981 254.027 23.43 254.045C23.4619 254.063 23.503 254.066 23.5533 254.052L23.725 254.694L23.5491 254.943C23.5558 254.968 23.5625 254.994 23.5693 255.019C23.5509 255.051 23.545 255.079 23.5517 255.104L22.9682 255.341L23.0692 255.719L20.0127 256.537L20.1339 256.99L19.9681 257.277C19.9816 257.327 19.9791 257.368 19.9607 257.4C19.9423 257.432 19.9398 257.473 19.9532 257.523L19.3495 257.685L19.703 259.005L19.5271 259.255L19.517 259.217L19.6233 259.916C19.6453 260.099 19.6673 260.282 19.6892 260.465C19.7112 260.648 19.7289 260.764 19.7424 260.815L19.2896 260.936L20.4713 265.351L20.0562 265.462L20.9652 268.858L21.3802 268.747L21.6024 269.577L31.5643 266.911L31.3421 266.08L31.7444 265.771L30.7546 262.073L30.3018 262.194L29.8372 260.458L28.1014 260.923L27.9802 260.47L26.6595 260.823L26.397 259.842L26.6207 259.621C26.5938 259.52 26.5861 259.441 26.5978 259.384L35.1258 257.102L35.3985 258.12L35.2226 258.37C35.236 258.42 35.2461 258.458 35.2529 258.483C35.2277 258.49 35.2185 258.505 35.2252 258.531L33.7159 258.935L33.837 259.387L32.5541 259.731L32.6652 260.146L32.1746 260.277L32.6594 262.088L32.2821 262.189L33.1911 265.586L33.5684 265.485L33.6694 265.862L34.1977 265.72L34.4672 265.972C34.8193 265.878 35.216 265.798 35.6571 265.734C36.0982 265.67 36.5075 265.588 36.8848 265.487L37.1819 265.69L39.5719 265.253L41.27 264.798L41.1488 264.345L43.7902 263.638L43.669 263.185L43.9204 262.916C43.9002 262.84 43.8959 262.774 43.9076 262.717L44.3981 262.586L44.0345 261.227L44.3237 260.948C44.2227 260.571 44.1434 260.174 44.086 259.758C44.0286 259.342 43.9427 258.92 43.8282 258.493L44.0519 258.271C44.0385 258.221 44.0367 258.113 44.0466 257.949L44.6504 257.787L44.9198 258.039C44.9953 258.018 45.0616 258.014 45.1186 258.026L45.3254 258.496L45.7404 258.385L48.4775 268.611L48.3016 268.86C48.3285 268.961 48.3337 269.081 48.317 269.22C48.2936 269.334 48.2954 269.442 48.3223 269.542L47.3035 269.815L47.1722 269.324L46.7571 269.435L46.5349 268.605L46.0444 268.737L45.4586 266.548L44.6285 266.77L44.5073 266.317L37.4887 268.196L37.3877 267.819L34.8972 268.485L34.9982 268.863L32.2814 269.59L32.1804 269.212L29.2371 270L29.3381 270.377L22.7723 272.135L22.8935 272.588L22.4407 272.709L22.9053 274.445L22.4902 274.556L22.8134 275.763L23.2285 275.652L23.2965 275.755L22.8336 275.839L23.076 276.744L21.6799 277.118L20.5083 272.741L20.1309 272.842ZM39.3093 264.271L39.8079 264.623L39.9493 265.152L39.5719 265.253L39.3093 264.271ZM22.7726 277.877L22.3495 277.505L22.2081 276.977L22.51 276.896L22.7726 277.877ZM25.7985 260.326L25.9367 260.087L26.4273 259.955L26.5181 260.295L25.7985 260.326ZM35.9868 257.599L36.0272 257.75L35.8385 257.8L35.348 257.932L35.2571 257.592L35.9868 257.599Z" fill="#4D2F14" fill-opacity="0.7"/>
<path d="M11.1687 232.005L10.7391 232.017L10.6343 228.034L11.0597 227.866L10.9774 224.742L10.9404 223.336L12.19 223.303L12.3924 223.572C12.4445 223.57 12.4839 223.582 12.5106 223.608C12.5373 223.633 12.5767 223.645 12.6288 223.644L12.6802 225.596L13.1488 225.584L13.3522 225.891C13.5605 225.885 13.7695 225.906 13.9791 225.953C14.1627 226 14.3586 226.021 14.5669 226.015L14.7693 226.283C16.4101 226.266 18.1423 226.26 19.9659 226.264C21.7629 226.243 23.4687 226.224 25.0834 226.207L25.0711 225.739L35.38 225.467L35.3687 225.038L35.715 224.833C35.7143 224.807 35.7379 224.715 35.7859 224.558L36.2935 224.545L36.2801 224.037L36.7878 224.024L36.7775 223.633L37.0467 223.47C37.0433 223.34 37.0659 223.209 37.1146 223.077C37.1365 222.92 37.1457 222.777 37.1423 222.647L37.689 222.632L37.6653 221.734L38.0908 221.567L37.9766 217.232L37.5471 217.243L37.4978 215.369L36.9901 215.382L36.9665 214.484L36.5369 214.496L36.5246 214.027L36.056 214.039L35.8937 213.809C35.8416 213.811 35.7368 213.787 35.5792 213.739L35.5617 213.075L34.6636 213.099L34.5012 212.869C33.7984 212.887 33.1078 212.88 32.4296 212.845C31.7247 212.786 31.0338 212.765 30.3569 212.783L30.3446 212.314L29.2512 212.343L29.2635 212.811L14.2297 213.207L14.241 213.637L12.8352 213.674L12.8609 214.65L12.3923 214.662L12.4273 215.99L12.1981 216.191C12.1988 216.217 12.2002 216.27 12.2023 216.348C12.2036 216.4 12.179 216.452 12.1283 216.506L11.4644 216.523L11.4778 217.031L11.2435 217.037L11.2301 216.53L10.7616 216.542L10.5457 208.342L10.855 208.216C10.8536 208.164 10.8769 208.059 10.9249 207.902L12.2135 207.868L12.2371 208.766L12.7057 208.754L12.7417 210.12L13.7179 210.095L13.9214 210.402C14.2872 210.444 14.6006 210.475 14.8616 210.494C15.0966 210.514 15.3443 210.521 15.6046 210.514L15.618 211.021L33.9319 210.539L34.1344 210.808C34.3166 210.803 34.4995 210.824 34.6831 210.871C34.8667 210.919 35.0626 210.939 35.2709 210.934L35.5134 211.24C35.6696 211.236 35.8005 211.259 35.906 211.308C35.9847 211.332 36.1022 211.342 36.2584 211.338L36.2718 211.845L37.209 211.821L37.2223 212.328L37.73 212.315L37.9324 212.583C37.9845 212.582 38.0239 212.594 38.0506 212.619C38.0773 212.645 38.1167 212.657 38.1688 212.655L38.1955 213.67L38.7031 213.657L38.7165 214.165L39.146 214.153L39.182 215.52L39.6115 215.509L39.6362 216.446L40.1439 216.433L40.3248 223.305L39.8172 223.319L39.8408 224.217L39.6116 224.418C39.6151 224.548 39.5925 224.679 39.5438 224.811C39.4945 224.916 39.4716 225.034 39.475 225.164L39.2068 225.367C39.2102 225.497 39.1876 225.628 39.139 225.759C39.0903 225.891 39.0677 226.022 39.0711 226.152L38.5245 226.166L38.5358 226.596L38.3066 226.797C38.31 226.927 38.2864 227.019 38.2357 227.072L37.1423 227.101L37.1567 227.648L36.2586 227.672L36.2699 228.101L34.8251 228.139L34.8374 228.608L13.7119 229.164L13.7233 229.593L13.4561 229.835C13.4588 229.939 13.4348 230.018 13.3841 230.071L12.7984 230.087L12.8467 231.922L12.6176 232.123C12.6203 232.228 12.5974 232.345 12.5487 232.477C12.5001 232.608 12.4778 232.752 12.4819 232.908L11.1933 232.942L11.1687 232.005ZM10.3126 224.721L10.9764 224.703L10.9723 224.547L10.5397 224.441L10.3126 224.721ZM11.1963 222.665L11.2107 223.212L11.2487 223.172C11.2473 223.12 11.2706 223.015 11.3186 222.857L11.3967 222.855L11.1963 222.665Z" fill="#4D2F14" fill-opacity="0.7"/>
<path d="M14.0336 175.093L15.0866 170.125L15.4328 169.999C15.503 169.668 15.5987 169.342 15.7198 169.021C15.841 168.701 15.9394 168.363 16.015 168.006L16.3149 167.91C16.4445 167.298 16.615 166.682 16.8264 166.062C17.0124 165.436 17.1756 164.791 17.316 164.129L17.6981 164.21L17.7872 163.79L18.6661 163.976L18.7633 163.517L19.7951 163.736L19.9214 164.082C20.5837 164.223 21.2916 164.399 22.0451 164.612C22.7731 164.82 23.481 164.997 24.1689 165.142L24.3032 165.45C24.3796 165.467 24.4761 165.514 24.5927 165.592C24.6892 165.639 24.7884 165.673 24.8903 165.695L24.5744 167.185L23.7337 167.007L23.6527 167.389L21.4363 166.919L21.331 167.416L20.4139 167.221L20.3248 167.642L19.4459 167.455L19.3568 167.876L18.8982 167.779L18.801 168.237L18.5232 168.418C18.4962 168.545 18.4437 168.667 18.3657 168.784C18.2932 168.875 18.2488 168.959 18.2326 169.035L17.7358 168.93L17.5414 169.847L17.1211 169.758L16.0275 174.917L16.4479 175.006L16.2616 175.885L16.7201 175.982L16.4366 177.319L16.8952 177.416L17.0295 177.724C17.0805 177.735 17.1133 177.769 17.128 177.825C17.148 177.856 17.1836 177.877 17.2345 177.888L17.1211 178.423L17.5797 178.52L17.4987 178.902L17.9572 178.999L18.0835 179.345C18.109 179.351 18.1317 179.369 18.1518 179.4C18.1719 179.431 18.2074 179.452 18.2584 179.462L18.145 179.997L19.1003 180.2L19.2266 180.546C19.303 180.562 19.3995 180.609 19.5161 180.687C19.6126 180.734 19.7118 180.769 19.8137 180.79L19.7165 181.249L20.71 181.459L20.8282 181.844C20.9046 181.86 21.0011 181.907 21.1177 181.985C21.2142 182.032 21.3134 182.067 21.4153 182.088L21.5879 182.404C21.919 182.474 22.2448 182.57 22.5652 182.691C22.8601 182.807 23.1986 182.905 23.5808 182.986L23.6445 183.439L30.8669 184.97L30.956 184.55L33.1723 185.02L33.2533 184.637L34.5908 184.921L34.6961 184.424L34.996 184.328C35.0014 184.303 35.0458 184.219 35.1291 184.077L36.1227 184.287L36.2199 183.829L37.0606 184.007L37.1578 183.548L37.504 183.422C37.531 183.295 37.5781 183.198 37.6452 183.133C37.7178 183.042 37.7676 182.932 37.7946 182.805L38.2531 182.902L38.3503 182.444L38.6965 182.317C38.7019 182.292 38.7463 182.208 38.8297 182.066L39.2882 182.163L39.5717 180.826L39.9562 180.708C39.9778 180.606 40.0248 180.509 40.0974 180.418C40.1499 180.296 40.1896 180.171 40.2166 180.044L40.6752 180.141L41.6877 175.365L41.2674 175.275L41.4537 174.397L40.9569 174.291L41.1432 173.412L40.7611 173.331L40.9474 172.452L40.4888 172.355L40.4251 171.902L35.3809 170.833L35.2918 171.254L34.795 171.148L34.6978 171.607L34.3157 171.526L33.5623 175.08L33.1038 174.982L33.0228 175.365L31.991 175.146L32.1773 174.267L31.7952 174.186L33.5854 165.741L33.9675 165.822L34.0566 165.402L35.1266 165.628L35.2609 165.936C35.2864 165.942 35.3092 165.96 35.3293 165.991C35.3547 165.996 35.3802 166.002 35.4057 166.007L35.2715 167.017L35.6536 167.098L35.4673 167.977L42.1929 169.402L42.3192 169.748C42.3446 169.754 42.3674 169.772 42.3875 169.803C42.413 169.808 42.4384 169.814 42.4639 169.819L42.0543 172.128L42.4747 172.217L42.2884 173.096L42.6705 173.177L42.4761 174.094L42.9729 174.2L42.7866 175.078L43.2069 175.168L42.9396 176.429L43.3982 176.526L43.1065 177.901L43.5269 177.991L43.2191 179.443L42.7987 179.354L42.2398 181.99L41.7812 181.893L41.5949 182.772L41.3171 182.953C41.2739 183.156 41.2079 183.342 41.1191 183.51C41.0049 183.672 40.9316 183.829 40.8992 183.982L40.4024 183.877L40.208 184.794L39.8259 184.713L39.7206 185.21L39.4508 185.352C39.44 185.403 39.4319 185.441 39.4265 185.467C39.401 185.461 39.3856 185.471 39.3802 185.497L38.7687 185.367L38.6634 185.864L38.3554 185.998C38.35 186.024 38.3446 186.049 38.3392 186.075C38.3084 186.095 38.2902 186.118 38.2848 186.143L37.6572 186.09L37.5762 186.472L37.1941 186.391L37.0888 186.888L36.1717 186.694L36.0825 187.114L35.2419 186.936L35.1446 187.394L34.6479 187.289L34.5669 187.671L33.688 187.485L33.5827 187.982L31.8248 187.609L31.7357 188.029L28.6022 187.365L28.505 187.824L24.913 187.062L25.0102 186.604L22.3735 186.045L22.231 185.775C22.0982 185.773 21.8106 185.686 21.3683 185.512C20.9259 185.339 20.5392 185.217 20.208 185.146L20.3133 184.65L19.5108 184.48L19.5918 184.097L18.6365 183.895L18.7337 183.436L17.8165 183.242L17.7123 182.98C17.6104 182.959 17.5012 182.909 17.3846 182.831C17.2425 182.748 17.1333 182.698 17.0569 182.682L17.1703 182.147L16.7117 182.049L16.7927 181.667L16.3341 181.57L16.4313 181.112L15.9728 181.014L15.8685 180.753C15.8431 180.747 15.8203 180.729 15.8002 180.698C15.7547 180.662 15.7091 180.626 15.6636 180.589L15.7689 180.093L15.2721 179.987L15.4584 179.108L15.038 179.019L15.1433 178.523L14.6848 178.425L14.8711 177.546L14.489 177.465L14.6753 176.586L14.2167 176.489L14.4921 175.19L14.0336 175.093ZM24.7607 166.306L25.4081 166.643L25.3919 166.719L24.704 166.573L24.7607 166.306Z" fill="#4D2F14" fill-opacity="0.7"/>
<path d="M23.776 138.948L28.4584 129.107L28.8245 129.065C28.8804 128.947 28.9543 128.852 29.0461 128.781C29.1255 128.674 29.1988 128.551 29.266 128.409L30.2184 128.863L30.2269 129.299C30.2504 129.31 30.2683 129.333 30.2807 129.368C30.3042 129.379 30.3277 129.39 30.3512 129.402L29.9854 130.352L30.3734 130.537L29.4 132.583L29.8233 132.784L29.6555 133.137L30.0788 133.338L30.0537 133.846L32.6287 135.071L32.8301 134.647L33.3239 134.882L33.366 135.248L35.0979 136.245L35.2992 135.822L36.2164 136.259L36.1913 136.766L49.7716 143.227L49.973 142.804L50.7491 143.173L51.1351 142.362L51.6775 142.403L54.0774 137.359L53.6189 137.141L55.1461 133.931L54.7934 133.763L55.3808 132.529L54.9575 132.327L55.3603 131.481L53.3144 130.508L53.4822 130.155L51.0131 128.98L51.2145 128.557L50.8265 128.372L51.4474 127.067L51.8354 127.252L52.0536 126.793L57.8032 129.529L57.9878 129.141L58.5169 129.392L58.5758 129.723C58.7639 129.813 58.9291 129.92 59.0713 130.045C59.19 130.16 59.3317 130.256 59.4963 130.334L59.0935 131.181L59.5168 131.382L58.5099 133.499L58.0866 133.297L50.1148 150.052L49.8193 150.128C49.7745 150.222 49.7006 150.316 49.5977 150.412C49.5059 150.483 49.4376 150.566 49.3929 150.66L48.4405 150.207L48.6587 149.749L48.2706 149.564L48.4385 149.211L47.9799 148.993L49.1547 146.524L48.802 146.356L48.9698 146.003L31.7916 137.83L31.993 137.407L28.8184 135.897L28.6002 136.355L28.3046 136.431C28.2823 136.478 28.2655 136.513 28.2543 136.537C28.2308 136.525 28.2134 136.532 28.2022 136.555L27.6378 136.287L25.8925 139.955L25.5044 139.77L25.1184 140.582L23.8133 139.961L24.1993 139.149L23.776 138.948ZM48.387 151.047L48.3617 150.646L48.5463 150.258L48.8638 150.409L48.387 151.047ZM30.2232 128.216L30.2937 128.25L30.0773 128.795L29.7951 128.661L30.2232 128.216Z" fill="#4D2F14" fill-opacity="0.7"/>
<path d="M46.752 96.8849L59.5623 81.0207L59.8732 81.0709C59.9059 81.0304 59.9753 80.986 60.0812 80.9376L60.0567 80.968C60.0933 80.9641 60.128 80.9419 60.1607 80.9014L61.2244 81.7603L61.5189 81.3956L62.3394 82.0582L62.2951 82.4241C62.5585 82.6368 62.8156 82.8779 63.0666 83.1475C63.2972 83.4007 63.5544 83.6418 63.838 83.8708L63.7937 84.2367C63.9355 84.3512 64.0508 84.4778 64.1397 84.6165C64.2285 84.7552 64.354 84.89 64.5161 85.0208L64.2707 85.3247L64.6658 85.6438L64.0032 86.4643L63.3042 85.8999L63.0097 86.2646L61.247 84.8412L60.977 85.1755L60.2476 84.5866L59.6587 85.316L59.3536 85.3207L58.379 86.3411C58.2769 86.4261 58.1522 86.5597 58.005 86.7421C57.8539 86.8878 57.7374 87.0113 57.6556 87.1126L57.2909 86.8181L52.53 92.714L52.9251 93.0331L52.8807 93.3989C53.5696 93.9551 54.2725 94.5562 54.9894 95.2021C55.6861 95.8316 56.4092 96.449 57.1589 97.0543L57.1449 97.4447L58.5663 98.7933L58.8608 98.4286L59.9245 99.2875L60.219 98.9228L60.6514 99.0712L64.1608 94.7253L63.4314 94.1363L63.7259 93.7716L63.0573 93.2317L63.1075 92.9208C63.0303 92.892 62.915 92.7654 62.7615 92.541C62.5877 92.3002 62.4299 92.1226 62.288 92.0081L62.5825 91.6434L62.2482 91.3734L62.3219 91.2823L62.6328 91.3325C62.6982 91.2514 62.7574 91.1988 62.8104 91.1747L69.6484 96.6964L69.3294 97.0914L68.9647 96.7969L68.6702 97.1616L67.9712 96.5972L67.6767 96.9619L66.9777 96.3975L66.6832 96.7622L65.9538 96.1732L65.7084 96.4771L65.4045 96.2317L64.5456 97.2954L64.1809 97.0009L61.6777 100.101L62.3463 100.641L62.3324 101.031C62.3932 101.08 62.4356 101.131 62.4598 101.184L62.1525 101.689L69.8111 107.873L70.1055 107.509L70.7742 108.049L71.0686 107.684L71.5864 107.851L77.0836 101.043L76.6885 100.724L77.8174 99.3263L77.5134 99.0809L78.0533 98.4123L77.6886 98.1178L77.9831 97.7531L77.2537 97.1641L77.2794 96.8836L77.3098 96.9082C77.1438 96.7406 76.9778 96.5731 76.8119 96.4056C76.6661 96.2545 76.5305 96.1115 76.4051 95.9767C76.2796 95.842 76.1865 95.75 76.1257 95.7009L76.4447 95.3059L75.381 94.4469L75.4067 94.1664C75.3257 94.101 75.2629 94.0336 75.2185 93.9642L75.6602 93.4172L75.9711 93.4674C76.0039 93.4269 76.0896 93.3622 76.2283 93.2734L77.0184 93.9114L77.3129 93.5467L81.5981 97.007L81.5537 97.3728C81.6145 97.4219 81.657 97.4729 81.6811 97.5259L81.3738 98.0309L81.7081 98.3008L81.1682 98.9694L81.5329 99.2639L81.4651 99.41L81.0946 99.0606L69.1432 113.861L68.8382 113.866C68.8055 113.906 68.7809 113.937 68.7646 113.957C68.7279 113.961 68.7014 113.973 68.6851 113.993L68.1684 113.576L68.0212 113.758L68.138 113.552L67.7733 113.257L68.3378 112.558L68.0035 112.288L68.8624 111.224L68.4673 110.905L68.7618 110.541L68.4579 110.295L68.7033 109.991L50.8332 95.5614L50.2933 96.23L49.9286 95.9355L48.5053 97.6982L48.171 97.4282L47.8765 97.7929L47.5118 97.4984L47.2418 97.8328L46.8468 97.5137L46.842 97.2087L46.752 96.8849ZM64.0002 91.1313L63.9991 91.3814L63.631 91.8373L63.327 91.5919L64.0002 91.1313Z" fill="#4D2F14" fill-opacity="0.7"/>
<path d="M95.9895 59.1269L96.2375 58.7428L93.8539 55.5989L93.5115 55.8585L92.6855 54.769L92.3431 55.0286L92.0363 54.624L91.6628 54.9072L91.3344 54.862C91.2307 54.9407 91.1008 55.0064 90.9448 55.0593C90.8096 55.0965 90.7109 55.1387 90.6486 55.1859L90.3182 54.7501L89.9447 55.0333L89.6238 54.9334L89.655 54.9098L88.9852 55.3196C88.8035 55.4247 88.6217 55.5298 88.44 55.6349C88.279 55.7243 88.1777 55.7847 88.1362 55.8162L87.853 55.4426L83.4952 58.7466L83.802 59.1513L83.7021 59.4721C83.7965 59.5966 83.8544 59.7161 83.8758 59.8306C83.918 59.9293 83.9784 60.0306 84.0571 60.1344L83.6213 60.4648L89.4977 68.2155L89.9024 67.9087L90.2865 68.1567L96.0139 63.8143L95.7543 63.4719L96.5014 62.9055L96.1946 62.5008L96.5992 62.194L96.316 61.8205L96.4084 61.5544C96.3769 61.5129 96.3559 61.4635 96.3451 61.4063C96.3344 61.3491 96.3133 61.2997 96.2819 61.2582L96.7799 60.8806L96.5203 60.5382L96.6127 60.2721L95.9895 59.1269ZM77.0235 61.2023L78.5799 60.0223L78.8696 60.1457L80.2091 59.3263L79.9495 58.9839L80.4787 58.5827L80.8628 58.8307L84.7226 55.9043L84.463 55.5619L85.3034 54.9247L85.6243 55.0246C86.1638 54.6155 86.7606 54.1957 87.4146 53.7652C88.0894 53.319 88.7276 52.8677 89.3294 52.4115L89.6739 52.5425C89.8399 52.4166 90.0113 52.3194 90.188 52.2507C90.3855 52.1664 90.5568 52.0691 90.7021 51.959L91.0465 52.09C91.0673 52.0743 91.0959 52.0689 91.1324 52.0739C91.1896 52.0632 91.2494 52.0343 91.3116 51.9871L91.6184 52.3917L92.0231 52.0849L92.3299 52.4896L92.6723 52.23L92.962 52.3535C93.0035 52.322 93.1022 52.2798 93.2582 52.2269L93.6122 52.6939L93.9857 52.4107L94.2755 52.5341C94.3585 52.4712 94.439 52.4265 94.517 52.4001L94.5792 52.3529L95.24 53.2244L95.5824 52.9648L96.7152 54.459L97.1199 54.1522L98.6067 56.1132L98.4681 56.5124C98.594 56.6784 98.6991 56.8601 98.7835 57.0576C98.8678 57.2551 98.9729 57.4368 99.0988 57.6028L98.9989 57.9237C99.0776 58.0274 99.1276 58.1366 99.1491 58.251C99.1912 58.3498 99.2517 58.451 99.3303 58.5548L98.8945 58.8852L99.1777 59.2587L99.0778 59.5795C99.1565 59.6833 99.2144 59.8028 99.2516 59.938C99.2888 60.0732 99.3388 60.1824 99.4017 60.2654L98.6547 60.8318L98.9379 61.2053L98.5332 61.5121L98.7928 61.8545L98.0458 62.4209L98.3762 62.8567L97.6602 63.3995L97.9198 63.7419L97.2039 64.2847L97.4635 64.6271L96.6853 65.2171L97.7237 66.5867L98.0661 66.3271L98.3965 66.7629L99.1747 66.1729L99.4644 66.2964C99.5059 66.2649 99.6046 66.2227 99.7606 66.1698L100.091 66.6056L100.465 66.3224L100.754 66.4459C100.775 66.4302 100.863 66.3959 101.019 66.343L101.373 66.8099L101.747 66.5267L102.091 66.6577C102.112 66.642 102.141 66.6366 102.177 66.6416C102.234 66.6309 102.294 66.6019 102.356 66.5547L102.97 67.3641L103.375 67.0573L103.719 67.1883C103.761 67.1568 103.839 67.1304 103.953 67.1089L104.26 67.5136L104.633 67.2304L105.247 68.0397L105.621 67.7565L106.163 68.4724L106.568 68.1656L106.912 68.2967C106.954 68.2652 107.032 68.2387 107.146 68.2173L107.76 69.0266L108.165 68.7198L108.731 69.4669L109.073 69.2073L109.64 69.9543L110.387 69.3879L110.755 69.5501C110.859 69.4714 110.968 69.4214 111.082 69.4C111.202 69.342 111.313 69.2737 111.417 69.1951L111.7 69.5686L113.568 68.1526L113.875 68.5573L114.248 68.2741L114.626 68.7721L114.495 69.1165C114.574 69.2203 114.624 69.3294 114.645 69.4439C114.687 69.5426 114.748 69.6439 114.826 69.7476L110.562 72.9808L110.255 72.5762L109.882 72.8594L109.584 72.7906C109.564 72.8063 109.543 72.8221 109.522 72.8378C109.486 72.8328 109.457 72.8382 109.436 72.8539L109.02 72.4342L108.646 72.7174L108.08 71.9703L107.675 72.2771L107.369 71.8725L107.026 72.1321L106.46 71.385L106.024 71.7154L105.727 71.6466C105.706 71.6624 105.677 71.6677 105.641 71.6627C105.604 71.6577 105.565 71.6709 105.524 71.7024L104.863 70.8308L104.521 71.0904L103.978 70.3745L103.604 70.6577L103.014 69.8795L102.641 70.1627L102.051 69.3845L101.646 69.6913L101.08 68.9442L100.737 69.2038L100.171 68.4568L99.7663 68.7636L99.2235 68.0476L98.4765 68.614L98.1697 68.2094L97.765 68.5162L97.2222 67.8003L96.8487 68.0835L96.5419 67.6788L96.1683 67.962L95.8711 67.8932C95.7674 67.9719 95.6375 68.0377 95.4815 68.0906C95.3463 68.1277 95.2475 68.1699 95.1853 68.2171L94.8549 67.7813L94.4502 68.0881L94.0661 67.8401L91.3892 69.8697L91.6724 70.2433L91.3857 70.7057L97.6869 79.0167L98.0915 78.7099L98.4596 78.8721C98.5633 78.7934 98.6725 78.7434 98.7869 78.7219C98.9064 78.664 99.0181 78.5957 99.1218 78.5171L99.405 78.8906L101.584 77.2386L101.891 77.6433L102.669 77.0533L103.047 77.5513L102.923 77.841L102.971 78.0986L94.9404 84.1874L94.6431 84.1186C94.6224 84.1343 94.5937 84.1397 94.5573 84.1347C94.5208 84.1297 94.4818 84.1429 94.4403 84.1743L94.0155 83.614L94.1078 83.3479C94.0134 83.2234 93.953 83.1222 93.9266 83.0442L94.4557 82.643L94.1961 82.3006L95.2856 81.4746L94.9788 81.0699L95.7259 80.5035L81.3535 61.5469L80.98 61.8301L80.628 61.7538C80.5865 61.7853 80.5475 61.7985 80.511 61.7935C80.4745 61.7885 80.4355 61.8017 80.394 61.8331L80.04 61.3662L77.83 63.0418L77.5016 62.9967C77.4601 63.0281 77.4211 63.0414 77.3846 63.0363C77.3481 63.0313 77.3091 63.0445 77.2676 63.076L76.8192 62.4846L76.9116 62.2185C76.8801 62.177 76.859 62.1276 76.8483 62.0704C76.8376 62.0131 76.8165 61.9638 76.7851 61.9223L77.2831 61.5447L77.0235 61.2023ZM79.2197 62.8705L79.1575 62.9177L78.9772 62.8093L78.6704 62.4046L78.9506 62.1922L79.2197 62.8705Z" fill="#4D2F14" fill-opacity="0.7"/>
<path d="M119.365 33.2681L138.099 25.2166L138.35 25.4062C138.398 25.3856 138.48 25.3787 138.596 25.3854L138.56 25.4008C138.595 25.4145 138.636 25.411 138.683 25.3904L139.223 26.6465L139.654 26.4614L140.07 27.4304L139.86 27.7332C139.994 28.0443 140.109 28.3776 140.205 28.7331C140.291 29.0647 140.406 29.398 140.55 29.7329L140.34 30.0357C140.412 30.2032 140.455 30.369 140.469 30.5331C140.482 30.6973 140.53 30.875 140.613 31.0664L140.254 31.2207L140.454 31.6872L139.485 32.1037L139.131 31.2782L138.7 31.4633L137.805 29.3818L137.411 29.5515L137.04 28.6902L136.179 29.0603L135.907 28.9221L134.569 29.3697C134.439 29.3972 134.266 29.4573 134.051 29.5498C133.849 29.6081 133.689 29.663 133.569 29.7144L133.384 29.2838L126.422 32.2761L126.622 32.7426L126.412 33.0455C126.762 33.8589 127.103 34.7186 127.435 35.6244C127.758 36.5063 128.109 37.3898 128.49 38.2751L128.295 38.6138L128.923 40.4699L129.353 40.2848L129.893 41.5409L130.324 41.3558L130.637 41.6889L135.769 39.4832L135.399 38.6219L135.83 38.4368L135.49 37.6473L135.68 37.3957C135.625 37.3343 135.582 37.1685 135.551 36.8983C135.51 36.6043 135.453 36.3736 135.381 36.2061L135.812 36.021L135.642 35.6262L135.75 35.58L136.001 35.7695C136.097 35.7283 136.174 35.7095 136.232 35.7128L139.703 43.7877L139.236 43.9882L139.051 43.5575L138.62 43.7426L138.265 42.9172L137.835 43.1023L137.48 42.2769L137.049 42.4619L136.679 41.6006L136.32 41.7549L136.166 41.396L134.91 41.9358L134.725 41.5052L131.064 43.0785L131.404 43.868L131.209 44.2067C131.24 44.2785 131.254 44.3435 131.25 44.4016L130.743 44.7047L134.63 53.7486L135.06 53.5635L135.4 54.353L135.83 54.1679L136.21 54.5574L144.249 51.1023L144.049 50.6358L145.7 49.9263L145.545 49.5674L146.335 49.228L146.15 48.7974L146.581 48.6123L146.21 47.751L146.364 47.5149L146.379 47.5508C146.311 47.3251 146.242 47.0995 146.174 46.8739C146.115 46.6722 146.062 46.4825 146.014 46.3047C145.966 46.127 145.926 46.0022 145.896 45.9304L146.362 45.7299L145.822 44.4738L145.976 44.2377C145.935 44.142 145.911 44.0532 145.904 43.9711L146.55 43.6935L146.801 43.883C146.849 43.8624 146.955 43.8452 147.119 43.8314L147.52 44.7645L147.951 44.5794L150.126 49.6396L149.916 49.9424C149.947 50.0142 149.96 50.0792 149.957 50.1373L149.45 50.4405L149.619 50.8352L148.83 51.1746L149.015 51.6052L148.887 51.7028L148.722 51.2208L131.244 58.7325L130.973 58.5943C130.925 58.6148 130.889 58.6303 130.865 58.6405C130.831 58.6269 130.802 58.6252 130.778 58.6355L130.515 58.0254L130.3 58.1179L130.5 57.9895L130.315 57.5589L131.14 57.2041L130.971 56.8093L132.227 56.2695L132.026 55.8029L132.457 55.6178L132.303 55.2589L132.662 55.1047L123.592 34.0024L122.803 34.3417L122.617 33.9111L120.536 34.8057L120.366 34.4109L119.936 34.596L119.75 34.1653L119.356 34.335L119.155 33.8685L119.293 33.5965L119.365 33.2681ZM137.305 36.2298L137.187 36.4504L136.649 36.6818L136.494 36.3229L137.305 36.2298Z" fill="#4D2F14" fill-opacity="0.7"/>
<path d="M183.975 29.1764L184.179 28.9818L183.95 26.5628L183.527 26.6374L182.985 23.5599L182.523 23.6413L182.279 22.2564L181.894 22.3242L181.664 21.0163L181.202 21.0976L181.121 20.636L180.659 20.7174L180.503 19.8326L180.08 19.9072L179.998 19.4456L179.498 19.5337L179.336 18.6105L178.451 18.7665L178.218 18.5696C178.192 18.5741 178.164 18.5658 178.134 18.5447C178.104 18.5235 178.063 18.5175 178.012 18.5265L177.917 17.988L177.378 18.0829L177.145 17.886C177.12 17.8905 177.092 17.8822 177.062 17.8611L176.869 17.2207L175.061 17.5395L174.833 17.1434L169.755 18.0387L169.836 18.5003L169.562 18.7469C169.567 18.7725 169.559 18.8004 169.537 18.8306C169.542 18.8563 169.547 18.8819 169.551 18.9076L168.988 19.0862L171.416 32.8582L171.031 32.926L171.411 35.0803L171.795 35.0125L172.887 41.206L173.349 41.1246L173.602 41.437C173.782 41.4053 173.966 41.3993 174.154 41.4189C174.369 41.4341 174.566 41.4258 174.745 41.3942L174.974 41.7902L178.282 41.2069L178.207 40.7838L179.554 40.5464L179.466 40.0463L180.85 39.8021L180.783 39.4174L181.667 39.2615L181.586 38.7998L182.471 38.6438L182.308 37.7206L182.693 37.6527L182.625 37.2681L183.125 37.1799L183.044 36.7183L183.247 36.5237C183.229 36.4211 183.23 36.2755 183.25 36.087C183.269 35.8984 183.275 35.7785 183.266 35.7272L183.766 35.639L183.61 34.7542L183.8 34.4827C183.764 34.2775 183.77 34.0912 183.82 33.9238C183.866 33.7307 183.87 33.5316 183.834 33.3264L184.219 33.2586L183.988 31.9506L184.45 31.8692L183.975 29.1764ZM162.577 16.9242L164.924 16.5105L165.159 16.945L170.66 15.9751L170.579 15.5135L170.656 15.4999L170.896 15.7353C171.562 15.6177 172.262 15.5341 172.993 15.4845C173.72 15.4092 174.456 15.3059 175.2 15.1748L175.267 15.5595L176.614 15.3221L176.861 15.596C176.937 15.5824 177.057 15.5877 177.22 15.6119C177.379 15.6104 177.509 15.6006 177.612 15.5825L177.693 16.0442L178.539 15.895L178.793 16.2073C178.921 16.1847 179.041 16.19 179.153 16.2232C179.285 16.2262 179.416 16.2164 179.544 16.1938L179.745 16.436C179.771 16.4314 179.865 16.4413 180.028 16.4654L180.123 17.004L180.508 16.9362L180.709 17.1783C180.786 17.1648 180.906 17.1701 181.069 17.1942L181.171 17.7713L181.594 17.6967L181.795 17.9388C181.847 17.9298 181.954 17.9373 182.117 17.9615L182.205 18.4616L182.628 18.387L182.875 18.6608C182.9 18.6563 182.995 18.6661 183.157 18.6903L183.327 19.652L183.75 19.5774L183.997 19.8513C184.022 19.8468 184.065 19.8656 184.126 19.9079C184.182 19.9245 184.237 19.9411 184.293 19.9577L184.449 20.8425L184.872 20.7679L185.11 22.1143L185.571 22.0329L185.89 23.841L186.313 23.7664L186.693 25.9206L187.193 25.8325L187.77 29.1024L187.457 29.3557C187.521 29.7148 187.565 30.1168 187.591 30.5618C187.616 31.0069 187.665 31.4346 187.738 31.8449L187.502 32.0847C187.534 32.2642 187.542 32.4611 187.527 32.6753C187.507 32.8639 187.513 33.0479 187.545 33.2275L187.271 33.4741C187.307 33.6792 187.318 33.8889 187.303 34.1031C187.288 34.3173 187.296 34.5142 187.327 34.6937L186.904 34.7683L187.074 35.7301L186.8 35.9767C186.814 36.0536 186.806 36.1607 186.777 36.298C186.77 36.4051 186.775 36.5099 186.793 36.6125L186.332 36.6939L186.406 37.1171L186.139 37.4021C186.153 37.4791 186.151 37.5455 186.134 37.6013L185.609 37.7732L185.684 38.1963L185.41 38.4429C185.433 38.5712 185.428 38.6911 185.394 38.8027C185.387 38.9098 185.394 39.0275 185.417 39.1557L184.455 39.3253L184.537 39.7869L184.152 39.8547L184.233 40.3164L183.998 40.5562C184.007 40.6075 184.003 40.661 183.987 40.7168L182.948 40.9L183.043 41.4385L182.769 41.6851C182.774 41.7108 182.765 41.7387 182.744 41.7688C182.723 41.799 182.717 41.8397 182.726 41.891L179.995 42.3726L180.076 42.8342L168.035 44.957L167.954 44.4954L167.415 44.5903L167.182 44.3934C167.157 44.3979 167.129 44.3896 167.098 44.3685C167.068 44.3474 167.028 44.3413 166.976 44.3504L166.861 43.6964L167.784 43.5336L167.703 43.072L168.972 42.8482L168.898 42.425L169.783 42.2691L169.694 41.769L170.156 41.6876L167.185 24.838L167.389 24.6435L167.111 21.7176L166.65 21.799L166.629 21.6836L166.833 21.489L166.799 19.948L166.338 20.0294L166.175 19.1061L165.675 19.1943L165.442 18.9974C165.237 19.0336 165.04 19.0418 164.851 19.0222C164.684 18.9724 164.51 18.9633 164.331 18.9949L164.249 18.5333L162.48 18.8453L162.405 18.4221L161.943 18.5035L161.842 17.9265L162.303 17.8451L162.236 17.4604L162.432 17.2274L162.577 16.9242Z" fill="#4D2F14" fill-opacity="0.7"/>
<path d="M208.706 10.9073L229.064 12.067L229.204 12.3488C229.256 12.3518 229.332 12.3822 229.434 12.4402L229.395 12.4379C229.419 12.4654 229.457 12.4806 229.509 12.4836L229.432 13.8486L229.9 13.8752L229.84 14.9282L229.516 15.1054C229.497 15.4434 229.451 15.7929 229.378 16.154C229.307 16.489 229.261 16.8385 229.24 17.2025L228.917 17.3797C228.907 17.5617 228.871 17.7293 228.81 17.8823C228.75 18.0353 228.713 18.2158 228.701 18.4238L228.311 18.4016L228.283 18.9086L227.23 18.8486L227.281 17.9516L226.813 17.925L226.941 15.663L226.513 15.6386L226.566 14.7026L225.63 14.6493L225.448 14.4042L224.051 14.2072C223.922 14.1738 223.741 14.1504 223.507 14.1371C223.301 14.0993 223.132 14.0766 223.002 14.0692L223.029 13.6012L215.463 13.1702L215.434 13.6772L215.111 13.8544C215.061 14.7384 214.982 15.6599 214.875 16.619C214.77 17.552 214.69 18.4995 214.635 19.4615L214.31 19.6777L214.043 21.6188L214.511 21.6454L214.433 23.0104L214.901 23.0371L215.033 23.4749L220.61 23.7926L220.663 22.8566L221.131 22.8833L221.18 22.0253L221.462 21.8849C221.44 21.8054 221.476 21.6379 221.568 21.3823C221.663 21.1008 221.715 20.869 221.725 20.687L222.193 20.7137L222.218 20.2847L222.335 20.2913L222.475 20.5732C222.579 20.5791 222.657 20.5966 222.707 20.6255L222.207 29.4004L221.7 29.3715L221.727 28.9035L221.259 28.8768L221.31 27.9799L220.842 27.9532L220.893 27.0562L220.425 27.0296L220.478 26.0936L220.088 26.0714L220.111 25.6814L218.746 25.6036L218.772 25.1356L214.794 24.909L214.746 25.767L214.42 25.9832C214.416 26.0612 214.399 26.1255 214.37 26.176L213.781 26.2207L213.221 36.0485L213.689 36.0751L213.64 36.9331L214.108 36.9598L214.274 37.4779L223.01 37.9755L223.039 37.4685L224.833 37.5707L224.855 37.1807L225.713 37.2296L225.74 36.7616L226.208 36.7883L226.261 35.8523L226.504 35.7096L226.502 35.7486C226.541 35.5161 226.58 35.2836 226.62 35.0511C226.657 34.8446 226.695 34.6511 226.731 34.4706C226.767 34.29 226.788 34.1608 226.792 34.0828L227.299 34.1117L227.377 32.7467L227.62 32.604C227.626 32.5 227.644 32.4098 227.674 32.3332L228.376 32.3732L228.517 32.6551C228.569 32.6581 228.671 32.69 228.824 32.7509L228.766 33.7649L229.234 33.7915L228.921 39.2904L228.598 39.4676C228.594 39.5456 228.577 39.6099 228.548 39.6604L227.959 39.7051L227.934 40.1341L227.076 40.0852L227.05 40.5532L226.891 40.5833L226.959 40.0785L207.967 38.9966L207.785 38.7515C207.733 38.7486 207.694 38.7463 207.668 38.7448C207.643 38.7174 207.618 38.7029 207.592 38.7014L207.63 38.0384L207.396 38.0251L207.632 37.9994L207.659 37.5314L208.556 37.5825L208.58 37.1535L209.945 37.2313L209.974 36.7243L210.442 36.751L210.464 36.361L210.854 36.3832L212.161 13.4516L211.303 13.4027L211.329 12.9347L209.067 12.8059L209.092 12.3769L208.624 12.3502L208.65 11.8822L208.221 11.8578L208.25 11.3508L208.495 11.1692L208.706 10.9073ZM223.436 21.567L223.232 21.7118L222.647 21.6785L222.669 21.2885L223.436 21.567Z" fill="#4D2F14" fill-opacity="0.7"/>
<path d="M254.353 14.9929L256.188 15.5372L256.286 15.8923C256.861 16.0626 257.452 16.2653 258.062 16.5003C258.671 16.7354 259.3 16.9492 259.95 17.1417L260.022 17.4483C260.072 17.4631 260.139 17.5103 260.224 17.5898L260.187 17.5787C260.204 17.6111 260.238 17.6347 260.288 17.6495L260.021 18.5483L260.396 18.6593L260.129 19.5582L260.616 19.7025L260.372 20.5264L260.784 20.6486L260.856 20.9552C260.906 20.97 260.998 21.0246 261.133 21.119L260.722 22.5046L261.097 22.6157L260.83 23.5145L261.28 23.6478L261.352 23.9544C261.402 23.9692 261.494 24.0237 261.629 24.1181L261.34 25.0918L261.715 25.2029L261.459 26.0642L261.946 26.2086L261.691 27.07L262.103 27.1922L261.836 28.091L262.285 28.2242L262.357 28.5308C262.382 28.5382 262.462 28.5891 262.597 28.6835L262.442 29.2078L262.966 29.3633L262.711 30.2246L263.085 30.3357L262.83 31.197L263.279 31.3303L263.024 32.1917L263.473 32.325L263.545 32.6315C263.595 32.6464 263.688 32.7009 263.823 32.7953L263.534 33.769L263.908 33.8801L263.797 34.2546L264.247 34.3879L263.991 35.2492L264.441 35.3825L264.185 36.2439L264.56 36.3549L264.658 36.7101C264.683 36.7175 264.763 36.7683 264.898 36.8627L264.742 37.387L265.192 37.5203L264.936 38.3816L265.798 38.6371L265.896 38.9922L266.9 39.453L270.332 27.8809L269.883 27.7477L270.916 24.2648L270.466 24.1315L270.733 23.2327L270.246 23.0883L270.126 22.8081L270.163 22.8192L269.511 22.5444C269.344 22.4676 269.176 22.3908 269.009 22.314C268.867 22.2446 268.771 22.2025 268.721 22.1877L268.854 21.7382L267.993 21.4828L268.115 21.0708L267.253 20.8154L267.531 19.8791L267.811 19.7585C267.841 19.6586 267.879 19.575 267.926 19.5075L276.353 22.0065L276.462 22.3242C276.495 22.3067 276.528 22.3302 276.563 22.395C276.599 22.4597 276.641 22.4995 276.691 22.5143L276.38 23.5629L276.062 23.6724C276.048 23.7224 276.017 23.7811 275.969 23.8486L274.958 23.5487L274.825 23.9981L273.964 23.7426L273.319 25.9147L273.013 25.9868L272.274 27.9272L272.686 28.0494L272.298 29.3601L271.819 29.4627L269.087 38.6754L269.499 38.7976L266.755 48.0478L266.438 48.1573C266.43 48.1822 266.41 48.2035 266.378 48.2211C266.345 48.2386 266.322 48.2724 266.307 48.3223L265.408 48.0558L265.275 48.5052L264.676 48.3274L264.809 47.878L264.397 47.7559L264.277 47.4756C264.252 47.4682 264.227 47.4608 264.202 47.4534C264.184 47.421 264.163 47.4012 264.138 47.3938L264.252 46.7349L263.802 46.6016L264.036 45.8151L263.586 45.6819L263.853 44.7831L263.441 44.6609L263.685 43.837L263.198 43.6926L263.465 42.7938L263.09 42.6827L263.335 41.8588L262.923 41.7366L263.189 40.8378L262.74 40.7045L263.151 39.3189L262.739 39.1967L262.85 38.8222L262.401 38.6889L262.778 37.4156L262.366 37.2935L262.5 36.844L262.013 36.6997L262.279 35.8009L261.867 35.6787L261.747 35.3984C261.722 35.391 261.697 35.3836 261.672 35.3762C261.654 35.3439 261.633 35.324 261.608 35.3166L261.833 34.2832L261.421 34.161L261.677 33.2997L261.152 33.1442L261.408 32.2828L260.996 32.1606L261.129 31.7112L260.68 31.578L260.935 30.7166L260.523 30.5944L260.767 29.7705L260.318 29.6372L260.585 28.7384L260.173 28.6163L260.306 28.1669L259.931 28.0558L260.187 27.1944L259.7 27.05L259.956 26.1887L259.544 26.0665L259.799 25.2052L259.312 25.0608L259.192 24.7805C259.142 24.7657 259.104 24.7546 259.079 24.7472C259.062 24.7148 259.04 24.6949 259.015 24.6875L259.338 23.6015L258.476 23.346L258.587 22.9715L257.351 22.605L257.085 23.5038L256.628 23.5314L252.996 35.7776L253.408 35.8998L252.253 39.7946L252.703 39.9279L252.436 40.8267L252.886 40.96L252.984 41.3151C253.159 41.367 253.326 41.4438 253.486 41.5455C253.671 41.6547 253.863 41.7389 254.063 41.7981L253.952 42.1726L255.637 42.6725L255.724 43.065C255.749 43.0724 255.829 43.1233 255.964 43.2177L255.82 43.7045L256.195 43.8156L255.906 44.7893L253.397 44.0452L253.274 44.4571L247.133 42.6356L246.975 42.3442C246.875 42.3146 246.757 42.2526 246.622 42.1583C246.487 42.0639 246.395 42.0093 246.345 41.9945L246.645 40.9833L247.094 41.1166L247.216 40.7047L247.485 40.6215C247.5 40.5716 247.528 40.5253 247.567 40.4828C247.615 40.4153 247.645 40.3566 247.66 40.3067L248.26 40.4844L248.371 40.1099L248.745 40.221L248.878 39.7716L249.777 40.0381L256.175 18.4668L255.725 18.3335L255.859 17.8841L253.687 17.2399L253.809 16.828L253.397 16.7058L253.808 15.3202L254.077 15.237L254.353 14.9929ZM245.807 41.0608L246.611 41.0957L246.511 41.4327L245.807 41.0608Z" fill="#4D2F14" fill-opacity="0.7"/>
<path d="M329.792 59.3369L330.981 60.2893L330.737 60.5942L332.139 61.7174L332.096 62.0834C332.503 62.409 332.924 62.7793 333.359 63.1944C333.793 63.6094 334.245 64.0042 334.712 64.3786L334.669 64.7446C334.751 64.8097 334.803 64.8687 334.828 64.9216L334.462 65.3789L334.827 65.672L333.704 67.0745L334.07 67.3675L333.118 68.5566L332.752 68.5137C332.622 68.6763 332.479 68.8125 332.325 68.9222C332.17 69.032 332.036 69.158 331.922 69.3002L330.397 68.0793L330.934 67.4086L330.569 67.1155L331.179 66.3533L330.874 66.1091L331.704 65.0725L331.338 64.7794L331.656 64.3831L330.558 63.504L330.705 63.071L326.284 59.5303L326.015 59.8657L325.314 59.3041L324.972 59.731L324.637 59.7125C324.604 59.7531 324.561 59.7856 324.508 59.81L324.021 59.4193L323.435 60.1511L323.13 59.9069L321.713 61.6753L322.018 61.9195L321.481 62.5903L321.877 62.9077L321.835 63.2737C321.875 63.3063 321.92 63.3754 321.969 63.4812L321.627 63.9081L322.663 64.7383L322.395 65.0737L324.956 67.1248L324.907 67.4359C325.212 67.6801 325.521 67.9609 325.834 68.2783C326.147 68.5957 326.476 68.8927 326.822 69.1695L326.779 69.5355C326.88 69.6169 326.996 69.743 327.126 69.9139C327.256 70.0848 327.403 70.2353 327.565 70.3656L327.522 70.7316C327.624 70.813 327.699 70.9065 327.748 71.0123C327.833 71.114 327.927 71.2056 328.029 71.287L327.711 71.6833L328.412 72.245L328.144 72.5804L328.479 72.849L328.436 73.215C328.457 73.2312 328.511 73.3085 328.601 73.4469L328.283 73.8432L328.649 74.1363L328.582 74.5328C328.602 74.549 328.657 74.6263 328.747 74.7647L327.867 75.8623L328.172 76.1065L326.683 77.9664L326.378 77.7222L326.036 78.149L325.67 78.1061C325.654 78.1265 325.627 78.1387 325.591 78.1427C325.554 78.1468 325.52 78.1691 325.487 78.2098L325.06 77.8679L324.45 78.6302L324.084 78.5873C324.067 78.6076 324.041 78.6198 324.004 78.6238C323.968 78.6279 323.933 78.6502 323.901 78.6909L323.504 78.3734L323.211 78.7393L322.51 78.1777L322.193 78.5741L321.796 78.5067C321.78 78.5271 321.753 78.5393 321.717 78.5433C321.68 78.5474 321.646 78.5697 321.613 78.6104L320.82 77.9755L320.503 78.3719L318.43 76.7114L318.185 77.0163L315.563 74.9164L315.807 74.6115L313.734 72.951L314.052 72.5547L313.045 71.7489L312.728 72.1452L311.569 71.2173L311.887 70.821L311.49 70.5035L311.484 70.1985C311.464 70.1822 311.444 70.1659 311.423 70.1497C311.419 70.1131 311.407 70.0866 311.387 70.0703L311.717 69.5337L311.351 69.2407L312.498 67.8076L312.193 67.5634L312.511 67.1671L312.816 67.4113L313.67 66.3441L313.579 66.2709L313.695 66.3136L314.256 65.6124L314.622 65.9054L314.94 65.509L315.733 66.1439L315.69 66.5099C315.71 66.5262 315.765 66.6035 315.854 66.7418L315.512 67.1687L315.878 67.4617L315.024 68.5288L315.389 68.8218L314.828 69.5231L315.194 69.8161L315.151 70.1821C315.212 70.231 315.255 70.2818 315.279 70.3347L314.913 70.7921L315.644 71.3781L315.601 71.7441C315.703 71.8255 315.768 71.9109 315.797 72.0004C315.862 72.0859 315.955 72.1774 316.077 72.2751L315.76 72.6715L320.333 76.3342L320.626 75.9683L321.327 76.5299L321.62 76.164L322.352 76.7501L322.645 76.3842L322.95 76.6284L323.487 75.9576L323.853 76.2506L326.124 73.4151L325.728 73.0976L325.722 72.7926C325.661 72.7438 325.586 72.6502 325.496 72.5119C325.427 72.3898 325.372 72.3125 325.332 72.28L325.649 71.8836L324.582 71.0289L324.85 70.6936L323.417 69.5459L323.71 69.18L320.844 66.8847L320.838 66.5797C320.716 66.482 320.572 66.3498 320.406 66.1829C320.255 65.9958 320.135 65.833 320.046 65.6947L320.363 65.2983L319.662 64.7367L319.906 64.4318L319.174 63.8458L319.492 63.4494L319.126 63.1564L319.12 62.8514C319.1 62.8351 319.079 62.8188 319.059 62.8025C319.055 62.7659 319.043 62.7395 319.023 62.7232L319.377 62.156L319.041 61.8874L319.554 61.2471L319.188 60.9541L319.774 60.2224L319.408 59.9294L320.385 58.7098L320.696 58.7587C320.778 58.6571 320.843 58.5758 320.891 58.5148C320.977 58.4498 321.062 58.3848 321.148 58.3197L321.581 57.9661L321.947 58.2591L322.24 57.8933L322.575 58.1619L322.868 57.796L323.234 58.089L323.527 57.7231L323.808 57.7477C323.84 57.707 323.875 57.6847 323.912 57.6806C323.948 57.6766 323.983 57.6542 324.015 57.6136L324.503 58.0043L324.796 57.6384L325.077 57.6629C325.109 57.6223 325.152 57.5898 325.205 57.5654C325.258 57.541 325.301 57.5085 325.333 57.4678L326.126 58.1027L326.419 57.7368L327.151 58.3229L327.444 57.957L329.548 59.6418L329.792 59.3369ZM320.04 65.6398C320.023 65.6601 320.005 65.6621 319.985 65.6459C319.985 65.6459 319.993 65.6357 320.009 65.6154L320.04 65.6398ZM331.495 68.9584L330.848 69.3912L330.787 69.3424L331.251 68.763L331.495 68.9584Z" fill="#4D2F14" fill-opacity="0.7"/>
<path d="M363.18 78.9931L364.134 80.13L364.025 80.4255C364.125 80.5452 364.181 80.6517 364.191 80.745C364.238 80.8416 364.312 80.9497 364.412 81.0693L363.993 81.4209L364.32 81.8099L364.021 82.061L364.297 82.3901L362.771 83.6709L362.445 83.587C362.426 83.6038 362.397 83.6105 362.361 83.6073C362.324 83.6041 362.286 83.6192 362.246 83.6527L361.869 83.2039L361.45 83.5555L361.199 83.2563L360.87 83.5325L360.494 83.3888C360.474 83.4056 360.388 83.4442 360.235 83.5048L359.556 82.6969L359.227 82.9732L358.876 82.5543L358.93 82.254C358.796 82.0944 358.699 81.9381 358.638 81.7849C358.597 81.615 358.51 81.4502 358.376 81.2907L358.765 80.9642L358.439 80.5752L358.738 80.3241L358.462 79.995L359.988 78.7142L360.258 78.7933C360.338 78.7263 360.464 78.6542 360.637 78.5769C360.81 78.4996 360.917 78.4442 360.957 78.4107L361.308 78.8296L361.608 78.5785L361.859 78.8777L362.248 78.5512L362.85 79.2693L363.18 78.9931ZM355.902 84.5403L356.505 85.2584L356.416 85.6389C356.5 85.7386 356.565 85.8367 356.612 85.9332C356.676 86.0497 356.73 86.1746 356.773 86.3078L355.726 87.1867L356.053 87.5757L355.634 87.9273L355.188 87.6388L343.818 97.1816L344.144 97.5706L343.815 97.8468L344.393 98.535L344.279 98.8855C345.016 99.7632 345.724 100.648 346.404 101.539C347.101 102.45 347.859 103.394 348.68 104.372L348.571 104.667C348.688 104.807 348.752 104.923 348.762 105.017C348.789 105.13 348.861 105.256 348.978 105.396L348.141 106.099L347.765 105.955C347.745 105.972 347.717 105.979 347.68 105.976C347.66 105.992 347.64 106.009 347.62 106.026L346.933 105.328L346.603 105.604L345.599 104.407L345.828 104.012L336.059 92.3726L335.759 92.6237L335.733 92.2887C335.666 92.2089 335.603 92.0924 335.542 91.9392C335.481 91.7861 335.434 91.6895 335.401 91.6497L336.568 90.6703L336.868 90.7242C336.948 90.6572 337.026 90.6086 337.103 90.5783L340.141 94.1987L340.5 93.8974L341.078 94.5855L341.407 94.3093L342.01 95.0274L353.14 85.6854L352.236 84.6083L352.625 84.2818L350.064 81.2299L349.675 81.5564L349.022 80.7785L349.411 80.452L349.109 80.093L349.163 79.7927C349.146 79.7727 349.12 79.7612 349.083 79.758C349.083 79.758 349.075 79.748 349.058 79.728C349.024 79.6881 349.069 79.5996 349.192 79.4625C349.335 79.3086 349.456 79.1898 349.556 79.1061L349.882 79.4951L350.241 79.1937L352.552 81.9464L352.851 81.6953L355.513 84.8668L355.902 84.5403ZM335.232 90.4149L335.772 90.573L336.149 91.0218L335.91 91.2227L335.232 90.4149Z" fill="#4D2F14" fill-opacity="0.7"/>
<path d="M365.558 117.623L365.777 118.038L364.188 118.877L364.407 119.291L363.647 119.692L363.847 120.072L363.628 120.409C363.652 120.455 363.665 120.537 363.668 120.653L363.65 120.618C363.639 120.654 363.646 120.694 363.67 120.74L362.806 121.196L362.989 121.542L362.804 121.86C362.828 121.906 362.853 122.011 362.88 122.173L362.397 122.429L362.597 122.809L362.217 123.009L362.637 123.804L362.452 124.122C362.683 124.56 362.885 124.998 363.058 125.437C363.243 125.899 363.469 126.383 363.736 126.89L363.568 127.155L364.141 128.576L364.521 128.375L365.378 129.998L365.792 129.78L366.23 130.609L366.61 130.408L366.829 130.822L367.244 130.604L367.426 130.949L371.087 129.016L371.325 129.465L377.646 126.127L377.409 125.678L379.067 124.802L378.666 124.042L379.08 123.823L378.624 122.96L378.74 122.678C378.643 122.493 378.581 122.32 378.554 122.158C378.55 121.983 378.499 121.804 378.402 121.619L378.851 121.382L376.973 117.824L376.523 118.061L375.867 116.818L375.487 117.019L375.067 116.224L374.653 116.443L374.215 115.614L373.421 116.033L373.238 115.688L372.755 115.943L372.436 115.758C372.413 115.77 372.384 115.771 372.349 115.76C372.326 115.772 372.303 115.784 372.28 115.797L371.937 115.315L371.108 115.753L370.789 115.568C370.628 115.653 370.443 115.721 370.235 115.772C370.026 115.823 369.841 115.891 369.68 115.977L369.361 115.791L365.558 117.623ZM391.935 119.642L392.61 120.92L391.436 121.54L391.618 121.885L390.72 122.36L390.538 122.014L388.154 123.273L388.336 123.618L387.887 123.855L387.705 123.51L369.19 133.286L369.373 133.632L368.544 134.069L369.638 136.142L369.258 136.343L369.696 137.172L368.763 137.664L368.444 137.479C368.421 137.491 368.392 137.492 368.357 137.481C368.334 137.493 368.311 137.505 368.288 137.517L367.289 135.792L366.909 135.993L366.289 134.818L365.84 135.056L364.928 133.328L365.377 133.091L363.954 130.397L363.505 130.634L362.648 129.011L362.268 129.211L359.842 124.617L359.958 124.335C359.921 124.266 359.89 124.15 359.863 123.987C359.848 123.848 359.828 123.755 359.804 123.709L360.288 123.454L359.832 122.59L359.948 122.308C359.936 122.285 359.912 122.268 359.877 122.257C359.877 122.257 359.871 122.246 359.859 122.223C359.846 122.2 359.84 122.188 359.84 122.188C359.863 122.176 359.869 122.158 359.857 122.135L360.407 121.756L360.024 121.031L360.404 120.83L360.167 120.381L360.582 120.162L360.363 119.748L360.479 119.466C360.467 119.443 360.443 119.426 360.408 119.415C360.408 119.415 360.402 119.403 360.39 119.38C360.377 119.357 360.371 119.346 360.371 119.346C360.394 119.334 360.4 119.316 360.388 119.293L361.318 118.713L361.136 118.368L361.585 118.131L361.366 117.716L362.23 117.26L362.011 116.846L363.565 116.025L363.346 115.61L367.457 113.44L367.676 113.854L368.919 113.198L369.167 113.332C369.374 113.223 369.623 113.135 369.913 113.071L370.329 112.939L370.566 113.388L371.43 112.932L371.612 113.278L371.958 113.095L372.195 113.544L372.609 113.326L372.891 113.442C372.983 113.393 373.07 113.362 373.151 113.348L373.461 113.936L373.876 113.717L374.058 114.062L374.473 113.843L374.72 113.978C374.813 113.929 374.899 113.898 374.981 113.885L375.491 114.852L375.871 114.651L376.291 115.446L376.74 115.208L377.178 116.037L377.557 115.837L380.603 121.605L380.435 121.871L381.208 123.671L382.383 123.051L382.62 123.5L384.174 122.68L383.937 122.23L385.63 121.337L385.867 121.786L387.801 120.764L387.564 120.315L388.359 119.896L387.72 118.687L387.836 118.405L387.393 117.314C387.355 117.186 387.294 117.042 387.209 116.881C387.159 116.731 387.103 116.598 387.042 116.483L387.941 116.008L388.178 116.458L388.627 116.22L389.046 117.015L389.426 116.814L390.466 118.783L390.915 118.546L391.59 119.824L391.935 119.642Z" fill="#4D2F14" fill-opacity="0.7"/>
<path d="M390.792 165.238L390.906 165.653L392.149 165.309L392.035 164.895L392.863 164.666L392.728 164.177L392.977 163.905C392.97 163.88 392.975 163.852 392.994 163.819C393.012 163.787 393.014 163.746 393 163.696L393.565 163.54L393.43 163.051L394.296 162.811L394.046 161.908L394.22 161.657C394.213 161.632 394.219 161.603 394.237 161.571C394.255 161.539 394.257 161.498 394.243 161.448L394.846 161.281L394.461 159.888L394.833 159.623L393.71 155.557L393.295 155.671L393.046 154.768L392.519 154.913L392.247 154.664C392.222 154.671 392.193 154.666 392.161 154.647C392.129 154.629 392.088 154.627 392.038 154.641L391.892 154.114L391.441 154.239L391.131 154C391.056 154.021 390.99 154.025 390.933 154.014L390.798 153.525L390.308 153.66L390.064 153.363C390.007 153.352 389.95 153.34 389.892 153.329C389.867 153.336 389.817 153.35 389.742 153.371L389.607 152.881L388.778 153.11L388.417 152.683L385.669 153.442L387.843 161.312L388.219 161.208L389.312 165.161L389.801 165.026L389.926 165.478L390.792 165.238ZM395.523 154.934L397.011 160.318L396.762 160.59C396.796 160.715 396.803 160.835 396.78 160.95C396.783 161.057 396.801 161.173 396.836 161.299L396.587 161.57C396.615 161.671 396.617 161.778 396.595 161.892C396.604 162.025 396.627 162.154 396.661 162.279L396.209 162.404L396.345 162.894L396.095 163.165C396.123 163.265 396.126 163.373 396.103 163.487C396.088 163.626 396.094 163.746 396.122 163.847L395.67 163.972L395.795 164.423L395.573 164.647C395.601 164.747 395.609 164.826 395.598 164.883L395.033 165.039L395.168 165.529L394.264 165.778L394.379 166.193L394.13 166.464C394.144 166.514 394.146 166.622 394.138 166.786L393.159 167.057L393.273 167.471L391.993 167.824L392.118 168.276L389.294 169.057L389.022 168.807C388.972 168.821 388.919 168.823 388.861 168.811L388.466 167.381L388.014 167.505L384.852 156.059L384.4 156.184L383.786 153.963L383.334 154.087L383.23 153.711L381.159 154.283L381.263 154.66L380.36 154.909L380.495 155.399L379.591 155.649L379.706 156.063L379.484 156.286C379.511 156.387 379.523 156.478 379.519 156.56L379.54 156.635L378.975 156.791L379.079 157.168L378.83 157.439C378.851 157.515 378.857 157.635 378.848 157.799C378.865 157.957 378.887 158.086 378.914 158.186L378.425 158.321L378.675 159.225L378.261 159.339L378.739 161.071L378.339 161.384L379.484 165.526L379.935 165.401L380.664 168.037L381.078 167.922L381.442 169.24L381.894 169.115L382.248 170.396L382.699 170.271L382.98 171.287L382.731 171.559C382.738 171.584 382.737 171.679 382.729 171.843L382.126 172.01L381.817 171.771C381.767 171.785 381.726 171.783 381.694 171.764C381.662 171.746 381.621 171.744 381.57 171.758L381.425 171.231L380.973 171.356L380.734 170.49L380.319 170.604L380.07 169.7L379.618 169.825L379.129 168.056L378.715 168.17L378.236 166.438L377.747 166.573L377.143 164.39L376.729 164.504L375.71 160.814L375.884 160.564L375.894 160.601L375.782 159.903C375.752 159.695 375.725 159.5 375.701 159.317C375.685 159.16 375.666 159.043 375.645 158.968L376.135 158.833L375.76 157.477L375.934 157.226C375.913 157.151 375.907 157.031 375.916 156.867C375.931 156.727 375.932 156.633 375.918 156.582L376.408 156.447L376.272 155.958L376.687 155.843L376.572 155.429L377.024 155.304L376.774 154.401L376.948 154.15C376.941 154.125 376.947 154.096 376.965 154.064C376.983 154.032 376.985 153.991 376.971 153.941L377.95 153.67L377.815 153.181L378.305 153.046L378.19 152.631L379.132 152.371L378.996 151.882L381.18 151.278L381.076 150.902L384.239 150.028L384.343 150.405L386.527 149.801L386.662 150.291L387.49 150.062L387.741 150.236C387.841 150.208 387.974 150.198 388.138 150.207C388.303 150.216 388.423 150.209 388.498 150.189L388.644 150.716L389.547 150.466L389.76 150.65C389.81 150.636 389.864 150.635 389.921 150.646C389.978 150.658 390.032 150.656 390.082 150.642L390.238 151.207L390.69 151.082L390.805 151.497L391.708 151.247L391.921 151.431C392.022 151.403 392.113 151.392 392.195 151.396L392.372 152.036L392.786 151.922L393.015 152.75L393.505 152.615L393.754 153.518L394.168 153.404L394.408 154.27L394.822 154.155L395.071 155.059L395.523 154.934Z" fill="#4D2F14" fill-opacity="0.7"/>
<path d="M403.564 201.308L403.702 204.587L403.398 204.795C403.399 204.821 403.377 204.913 403.331 205.072L402.824 205.093L402.86 205.951L402.556 206.16C402.561 206.29 402.54 206.408 402.492 206.514C402.472 206.645 402.464 206.776 402.47 206.906L401.962 206.927L401.982 207.396L401.592 207.412L401.61 207.842L401.306 208.05C401.307 208.076 401.285 208.168 401.239 208.326L400.224 208.369L400.246 208.876L398.841 208.935L398.86 209.404L386.098 209.939L386.116 210.369L385.812 210.577C385.828 210.941 385.816 211.294 385.778 211.634C385.741 211.974 385.729 212.327 385.745 212.691L385.48 212.898C385.484 213.002 385.462 213.107 385.415 213.213C385.368 213.345 385.347 213.464 385.351 213.568L383.829 213.632L383.793 212.773L383.364 212.791L383.243 209.903L383.469 209.698C383.436 208.917 383.444 208.174 383.492 207.468C383.515 206.764 383.511 206.06 383.482 205.358L384.497 205.315L384.516 205.783L384.985 205.764L385.003 206.193L385.471 206.173L385.491 206.642L385.959 206.622L386.125 206.85C386.931 206.816 387.791 206.806 388.704 206.82C389.618 206.859 390.53 206.86 391.441 206.822L391.459 207.251L396.337 207.046L396.319 206.617L398.622 206.52L398.604 206.091L399.58 206.05L399.56 205.582L399.95 205.565L399.932 205.136L400.44 205.115L400.418 204.607L400.644 204.402C400.641 204.324 400.662 204.193 400.706 204.009C400.752 203.851 400.773 203.745 400.771 203.693L401.317 203.67L401.152 199.729L400.645 199.75L400.605 198.813L400.176 198.831L400.119 197.465L399.611 197.487L399.572 196.55L399.182 196.566L399.124 195.2L398.109 195.243L397.901 194.939C397.251 194.966 396.599 194.967 395.947 194.943C395.32 194.917 394.681 194.918 394.031 194.945L393.816 194.485L388.196 194.721L388.216 195.189L385.484 195.304L385.503 195.772L385.199 195.98C385.214 196.319 385.202 196.658 385.164 196.998C385.127 197.365 385.116 197.73 385.132 198.095L384.865 198.262C384.871 198.392 384.849 198.51 384.802 198.617C384.755 198.749 384.735 198.88 384.74 199.01L384.233 199.032L384.252 199.5L383.706 199.523L383.686 199.054L383.218 199.074L382.889 191.229L383.357 191.21L383.336 190.702L383.487 190.579L383.493 190.735L384.352 190.699L384.372 191.167L384.84 191.148L384.878 192.045L385.346 192.026L385.522 192.487L399.884 191.884L399.863 191.377L400.089 191.172C400.069 190.704 400.075 190.221 400.106 189.725C400.165 189.253 400.182 188.731 400.158 188.159L400.665 188.137L400.647 187.708L401.154 187.687L401.32 187.914C401.346 187.913 401.385 187.912 401.438 187.909C401.516 187.906 401.581 187.916 401.634 187.94L401.68 189.033L402.149 189.013L402.245 191.316L402.635 191.3L402.716 193.212L402.326 193.228L402.345 193.697L402.041 193.905C402.046 194.009 402.036 194.088 402.012 194.141L401.036 194.182L401.146 196.797L401.536 196.78L401.556 197.249L402.024 197.229L402.064 198.166L402.532 198.146L402.609 199.98L402.999 199.964L403.057 201.33L403.564 201.308ZM384.064 204.317L384.396 204.772L384.419 205.318L384.106 205.331L384.064 204.317ZM383.983 190.284L383.475 190.306C383.582 190.353 383.622 190.391 383.597 190.418C383.572 190.445 383.561 190.484 383.563 190.537L383.485 190.54L383.452 189.759L383.983 190.284ZM384.174 199.503L383.888 200.141L383.927 200.139L383.862 199.516L384.174 199.503Z" fill="#4D2F14" fill-opacity="0.7"/>
<path d="M403.145 277.99L402.821 278.87L402.461 278.945C402.443 278.994 402.382 279.083 402.279 279.212L401.803 279.036L401.668 279.403L389.717 275.005L389.852 274.639L388.642 274.194L388.507 274.56L387.151 274.061L387.285 273.695L386.112 273.263L385.977 273.63L384.584 273.117L384.719 272.75L382.74 272.022L382.605 272.389L381.652 272.038L381.787 271.671L377.607 270.134L377.472 270.5L376.629 270.19L376.467 270.63L376.157 270.682C376.148 270.707 376.092 270.783 375.989 270.912L375.439 270.709L373.092 277.088L372.726 276.953L372.564 277.393L371.207 276.894L376.846 261.57L377.212 261.705L377.536 260.825L378.526 261.19L378.364 261.63L378.73 261.764L377.179 265.98L377.656 266.156L377.346 266.999L377.749 267.147L377.587 267.587L385.139 270.366L385.301 269.926L386.291 270.29L386.129 270.73L391.921 272.861L392.083 272.421L395.162 273.554L395 273.994L400.426 275.991L400.588 275.551L400.954 275.686L402.155 272.423L401.788 272.288L402.746 269.685L403.553 269.982L403.714 269.542L404.264 269.744L404.102 270.184L404.469 270.319L404.334 270.686L404.811 270.861L403.098 275.517L403.501 275.665L402.705 277.828L403.145 277.99ZM379.531 262.642L378.984 262.773L378.434 262.571L378.542 262.278L379.531 262.642Z" fill="#4D2F14" fill-opacity="0.7"/>
<path d="M379.2 303.561L378.955 303.961L377.423 303.022L377.178 303.421L376.81 303.425C376.769 303.491 376.724 303.54 376.674 303.571L375.808 303.04L375.563 303.44L375.228 303.463C375.215 303.486 375.145 303.55 375.019 303.656L374.519 303.349L374.07 304.082L373.755 304.073C373.674 304.206 373.583 304.303 373.485 304.365C373.394 304.462 373.315 304.566 373.247 304.677L372.814 304.412L370.773 307.743L371.173 307.987L370.662 308.82L371.029 309.045L370.784 309.444L371.217 309.71L371.013 310.043L371.379 310.267L370.889 311.067L371.622 311.516L371.377 311.915L371.81 312.181L371.585 312.547L371.952 312.772L371.86 313.22L377.422 316.628L377.647 316.262L378.446 316.752L378.671 316.386L379.403 316.835L379.648 316.435L380.448 316.925L380.672 316.558L381.072 316.803L381.337 316.37L381.67 316.575L382.14 315.809L382.475 315.785C382.584 315.607 382.708 315.454 382.848 315.326C382.996 315.234 383.124 315.099 383.233 314.921L383.633 315.166L385.021 312.901L384.621 312.656L385.07 311.924L384.671 311.679L385.161 310.879L384.828 310.675L385.277 309.943L384.844 309.677L384.82 309.342C384.798 309.328 384.782 309.304 384.774 309.268C384.765 309.232 384.739 309.201 384.694 309.173L385.001 308.674L384.235 308.204L384.439 307.871L384.006 307.606L384.002 307.237C383.647 307.02 383.306 306.78 382.978 306.518C382.649 306.255 382.297 306.009 381.919 305.777L381.916 305.409L379.2 303.561ZM386.469 314.201L385.469 315.833L385.101 315.836C384.992 316.014 384.861 316.178 384.707 316.329C384.554 316.479 384.423 316.643 384.314 316.821L383.999 316.811C383.904 316.966 383.787 317.108 383.647 317.236C383.494 317.387 383.363 317.551 383.254 317.728L382.885 317.732C382.817 317.843 382.741 317.918 382.655 317.957C382.557 318.019 382.473 318.105 382.405 318.216L382.09 318.207C382.077 318.229 382.007 318.293 381.881 318.399L381.414 318.113L380.925 318.912L380.61 318.903C380.583 318.947 380.506 319.022 380.38 319.128L379.514 318.598L379.289 318.964L378.956 318.76L378.711 319.159L377.912 318.67L377.688 319.036L376.955 318.587L376.71 318.987L375.911 318.497L375.686 318.863L373.754 317.679L373.509 318.079L367.215 314.221L367.212 313.852C367.012 313.73 366.803 313.572 366.586 313.378C366.391 313.197 366.183 313.039 365.961 312.903L366.186 312.536L364.62 311.577L364.617 311.208C364.395 311.072 364.175 310.907 363.958 310.713C363.764 310.533 363.555 310.374 363.333 310.238L363.276 309.883C363.187 309.828 363.101 309.745 363.017 309.632C362.942 309.556 362.86 309.49 362.771 309.436L363.037 309.003L362.237 308.513L362.462 308.147L362.062 307.902L362.059 307.533C361.948 307.465 361.862 307.382 361.8 307.283C361.747 307.22 361.665 307.154 361.554 307.086L361.799 306.687L361.366 306.421L361.383 306.019C361.317 305.979 361.241 305.902 361.158 305.789C361.082 305.713 361 305.647 360.912 305.593L361.156 305.193L360.723 304.928L360.928 304.595L360.528 304.35L360.525 303.981C360.503 303.968 360.487 303.943 360.479 303.907C360.456 303.894 360.434 303.88 360.412 303.866L360.651 303.326L360.318 303.122L360.282 302.733C360.215 302.692 360.167 302.647 360.136 302.598L360.335 302.124L359.968 301.899L360.478 301.067L360.079 300.822L360.528 300.089L360.128 299.844L360.618 299.045L360.285 298.841L360.775 298.041L360.375 297.796L361.049 296.697L360.683 296.473L361.642 294.907L361.209 294.642L361.237 294.522L361.683 294.841L362.642 293.275L363.874 294.031L363.385 294.83L363.751 295.055L362.812 296.587L363.212 296.832L362.518 297.964L362.851 298.168L362.157 299.3L362.59 299.566L362.12 300.332L362.486 300.556L361.997 301.356L362.763 301.825L362.518 302.225L362.917 302.47L362.427 303.269L362.794 303.494L362.804 303.775C362.849 303.802 362.886 303.841 362.917 303.89C362.948 303.939 362.986 303.978 363.03 304.005L362.724 304.505L363.49 304.974L363.286 305.307L364.085 305.797L363.82 306.23L364.552 306.679L364.563 306.96C364.652 307.015 364.761 307.112 364.889 307.252C365.017 307.391 365.103 307.475 365.148 307.502L364.882 307.935L365.648 308.404L365.424 308.771L368.388 310.587L369.021 309.555L368.688 309.351L369.178 308.552L368.778 308.307L369.227 307.574L368.861 307.349L369.371 306.517L368.938 306.251L371.081 302.754L371.514 303.02L372.269 301.787L372.571 301.743C372.639 301.632 372.73 301.535 372.842 301.451C372.941 301.39 373.011 301.325 373.052 301.259L373.485 301.524L373.709 301.158L374.042 301.362L374.307 300.929L374.74 301.194L374.985 300.795L375.287 300.751C375.301 300.728 375.314 300.706 375.328 300.684C375.364 300.675 375.389 300.66 375.402 300.638L375.909 300.857L376.113 300.524L376.913 301.014L377.178 300.581L377.944 301.05L378.169 300.684L378.935 301.153L379.139 300.82L380.338 301.555L380.583 301.156L384.113 303.319L383.868 303.719L385.034 304.433L384.83 304.766L385.995 305.481L386.006 305.762C386.095 305.817 386.203 305.914 386.332 306.053C386.46 306.193 386.546 306.277 386.591 306.304L386.305 306.77L386.638 306.974L386.434 307.307L387.233 307.797L386.988 308.197L387.354 308.421L386.865 309.221L387.264 309.466L387.275 309.747C387.319 309.774 387.346 309.806 387.354 309.842C387.363 309.877 387.39 309.909 387.434 309.936L386.903 310.802L387.336 311.067L386.867 311.833L387.233 312.058L386.07 313.956L386.469 314.201ZM363.606 292.675L363.694 293.279L363.408 293.745L363.075 293.541L363.606 292.675Z" fill="#4D2F14" fill-opacity="0.7"/>
<path d="M357.937 334.65L357.618 334.993L356.3 333.772L355.981 334.116L355.619 334.047C355.566 334.105 355.513 334.144 355.458 334.164L354.713 333.474L354.394 333.818L354.061 333.775C354.043 333.794 353.962 333.844 353.818 333.923L353.388 333.525L352.804 334.155L352.497 334.084C352.391 334.199 352.284 334.276 352.175 334.317C352.067 334.395 351.969 334.482 351.881 334.577L351.508 334.232L348.854 337.098L349.197 337.417L348.534 338.133L348.849 338.425L348.531 338.769L348.903 339.114L348.638 339.401L348.953 339.693L348.316 340.381L348.946 340.965L348.628 341.308L349 341.654L348.708 341.969L349.024 342.261L348.846 342.682L353.632 347.115L353.924 346.8L354.612 347.437L354.904 347.122L355.535 347.705L355.853 347.362L356.541 347.999L356.833 347.683L357.177 348.002L357.522 347.629L357.808 347.895L358.419 347.236L358.752 347.278C358.894 347.125 359.046 347 359.208 346.901C359.371 346.84 359.524 346.733 359.665 346.58L360.009 346.898L361.814 344.95L361.47 344.631L362.054 344.001L361.71 343.682L362.347 342.994L362.061 342.729L362.645 342.098L362.272 341.753L362.315 341.42C362.296 341.402 362.285 341.375 362.284 341.338C362.283 341.301 362.263 341.265 362.225 341.23L362.623 340.8L361.964 340.189L362.229 339.903L361.856 339.558L361.925 339.196C361.62 338.913 361.332 338.61 361.062 338.289C360.791 337.968 360.494 337.657 360.169 337.356L360.238 336.994L357.937 334.65ZM362.98 346.508L361.679 347.912L361.317 347.843C361.175 347.996 361.015 348.131 360.835 348.249C360.655 348.366 360.494 348.501 360.353 348.654L360.046 348.583C359.922 348.717 359.779 348.833 359.617 348.931C359.437 349.049 359.277 349.184 359.135 349.337L358.773 349.268C358.685 349.363 358.595 349.422 358.504 349.444C358.395 349.485 358.296 349.553 358.207 349.649L357.901 349.577C357.883 349.597 357.802 349.646 357.657 349.725L357.256 349.353L356.619 350.041L356.312 349.97C356.277 350.008 356.187 350.067 356.043 350.146L355.298 349.456L355.006 349.771L354.719 349.506L354.4 349.85L353.713 349.213L353.421 349.528L352.79 348.944L352.472 349.288L351.784 348.651L351.492 348.966L349.83 347.426L349.511 347.77L344.095 342.754L344.164 342.392C343.992 342.232 343.818 342.036 343.644 341.803C343.488 341.588 343.315 341.392 343.124 341.215L343.416 340.9L342.069 339.652L342.138 339.29C341.947 339.113 341.764 338.909 341.589 338.676C341.433 338.461 341.26 338.264 341.069 338.088L341.083 337.728C341.006 337.657 340.938 337.558 340.878 337.431C340.819 337.342 340.752 337.261 340.675 337.19L341.02 336.818L340.332 336.181L340.624 335.866L340.281 335.547L340.35 335.185C340.254 335.097 340.186 334.998 340.145 334.889C340.105 334.817 340.038 334.736 339.942 334.648L340.261 334.304L339.888 333.959L339.984 333.568C339.926 333.515 339.868 333.425 339.807 333.299C339.749 333.209 339.681 333.128 339.605 333.058L339.923 332.714L339.551 332.369L339.816 332.082L339.472 331.763L339.541 331.401C339.522 331.384 339.512 331.357 339.51 331.32C339.491 331.302 339.472 331.284 339.453 331.267L339.794 330.784L339.507 330.518L339.548 330.13C339.491 330.077 339.452 330.023 339.431 329.968L339.719 329.543L339.404 329.251L340.067 328.534L339.723 328.216L340.307 327.585L339.963 327.267L340.6 326.579L340.314 326.313L340.951 325.626L340.607 325.307L341.483 324.361L341.168 324.069L342.415 322.722L342.043 322.377L342.094 322.265L342.468 322.665L343.716 321.318L344.776 322.3L344.139 322.988L344.454 323.28L343.233 324.598L343.577 324.917L342.675 325.891L342.961 326.157L342.059 327.131L342.431 327.476L341.821 328.135L342.136 328.427L341.499 329.115L342.158 329.726L341.84 330.07L342.184 330.388L341.547 331.076L341.862 331.368L341.817 331.646C341.855 331.681 341.885 331.726 341.905 331.781C341.926 331.835 341.955 331.88 341.993 331.916L341.595 332.346L342.254 332.956L341.989 333.243L342.677 333.88L342.332 334.252L342.962 334.836L342.918 335.114C342.994 335.185 343.081 335.302 343.18 335.464C343.278 335.626 343.346 335.724 343.385 335.76L343.039 336.132L343.699 336.743L343.407 337.058L345.957 339.421L346.78 338.532L346.494 338.267L347.131 337.579L346.787 337.26L347.371 336.63L347.055 336.338L347.719 335.621L347.346 335.276L350.134 332.267L350.506 332.612L351.488 331.552L351.793 331.568C351.881 331.472 351.989 331.395 352.116 331.334C352.225 331.293 352.306 331.244 352.359 331.187L352.731 331.532L353.023 331.217L353.31 331.482L353.655 331.11L354.028 331.455L354.346 331.111L354.651 331.127C354.668 331.108 354.686 331.089 354.704 331.069C354.741 331.068 354.768 331.058 354.786 331.039L355.24 331.353L355.505 331.066L356.193 331.703L356.538 331.331L357.197 331.941L357.489 331.626L358.148 332.237L358.414 331.95L359.446 332.906L359.764 332.562L362.802 335.375L362.483 335.719L363.486 336.648L363.221 336.935L364.224 337.864L364.179 338.142C364.256 338.213 364.343 338.329 364.442 338.491C364.54 338.653 364.608 338.752 364.646 338.788L364.275 339.189L364.561 339.454L364.296 339.741L364.984 340.378L364.665 340.722L364.98 341.014L364.343 341.702L364.687 342.02L364.643 342.298C364.681 342.334 364.701 342.37 364.702 342.406C364.703 342.443 364.723 342.479 364.762 342.515L364.071 343.26L364.444 343.605L363.833 344.264L364.149 344.556L362.636 346.19L362.98 346.508ZM344.779 320.918L344.747 321.528L344.375 321.929L344.088 321.663L344.779 320.918Z" fill="#4D2F14" fill-opacity="0.7"/>
<path d="M324.408 351.891L324.027 352.164L322.957 350.673L322.576 350.946L322.029 350.185L321.648 350.458L321.124 349.728L320.807 349.956L320.557 349.607L320.144 349.903L319.803 349.763C319.761 349.794 319.682 349.818 319.567 349.836L319.271 349.424L318.16 350.221L317.819 350.081C317.714 350.157 317.54 350.25 317.298 350.36L316.785 350.583L316.558 350.266L314.431 351.792L314.659 352.109L313.549 352.907L313.845 353.319L313.115 353.843L313.366 354.192L312.636 354.716L312.909 355.097L312.528 355.37L312.779 355.719L312.43 355.97L312.954 356.7L312.573 356.973L312.846 357.354L312.77 357.649C312.906 357.84 313.033 358.038 313.148 358.243C313.279 358.47 313.429 358.747 313.6 359.073L313.469 359.36L314.472 361.092L314.821 360.841L315.869 362.301L316.218 362.05L316.764 362.812L317.145 362.539L317.669 363.269L318.018 363.018L318.246 363.335L318.627 363.062L318.923 363.474L319.653 362.95L319.98 363.004C320.086 362.928 320.207 362.873 320.343 362.84C320.479 362.806 320.579 362.767 320.642 362.721L320.938 362.798C321.022 362.737 321.133 362.69 321.269 362.656C321.405 362.622 321.526 362.568 321.632 362.492L321.95 362.936L324.394 361.182L324.098 360.769L325.589 359.699L325.361 359.381L326.059 358.88L325.786 358.499L325.894 358.181C325.879 358.16 325.847 358.071 325.798 357.914L326.274 357.572L326.047 357.255L326.364 357.027L325.84 356.297L325.957 355.924C325.881 355.819 325.834 355.708 325.816 355.593C325.776 355.493 325.718 355.391 325.642 355.285L326.055 354.989L325.235 353.846L325.375 353.505L324.408 351.891ZM323.228 371.011L322.847 371.285L324.122 373.062L324.503 372.788L325.574 374.28L325.955 374.006L326.25 374.083C326.271 374.068 326.292 374.052 326.313 374.037C326.35 374.043 326.379 374.039 326.4 374.023L327.055 374.803L327.436 374.53L327.754 374.638C327.818 374.592 327.928 374.545 328.086 374.496C328.243 374.447 328.343 374.408 328.385 374.377L328.681 374.79L329.443 374.243L329.82 374.501L332.898 372.292L332.648 371.942L333.377 371.419L333.104 371.038L333.834 370.514L333.538 370.101L333.678 369.76C333.647 369.718 333.628 369.668 333.618 369.611L334.063 369.292L333.767 368.879L333.938 368.516C333.817 368.346 333.724 368.172 333.66 367.994C333.611 367.837 333.534 367.684 333.427 367.536L333.745 367.308L331.421 364.071L331.104 364.299L330.534 363.506L330.122 363.802L329.894 363.485L329.545 363.735L329.258 363.604C329.216 363.635 329.116 363.674 328.959 363.723L328.617 363.247L328.3 363.475L328.014 363.344C327.887 363.435 327.766 363.49 327.651 363.508C327.53 363.563 327.416 363.628 327.311 363.704L327.014 363.292L325.936 364.066L325.685 363.717L323.591 365.221L323.841 365.57L323.048 366.139L323.321 366.52L322.591 367.044L322.842 367.393L322.112 367.917L322.659 368.679L322.278 368.952L322.779 369.65L322.43 369.901L323.228 371.011ZM333.761 374.029L331.127 375.919L330.876 375.57L329.353 376.664L329.012 376.524C328.906 376.6 328.807 376.639 328.713 376.643C328.613 376.682 328.51 376.74 328.404 376.816L328.131 376.435L327.369 376.982L327.029 376.842C327.023 376.878 326.994 376.883 326.942 376.856C326.87 376.844 326.812 376.853 326.77 376.883L326.496 376.503L326.116 376.776L325.592 376.046L325.243 376.297L324.879 376.125C324.858 376.14 324.769 376.172 324.611 376.221L324.087 375.491L323.738 375.742L323.192 374.98L322.811 375.253L320.624 372.207L320.764 371.866C320.718 371.803 320.671 371.692 320.622 371.535C320.552 371.393 320.495 371.29 320.449 371.227L320.83 370.953L320.283 370.192L320.423 369.851C320.408 369.83 320.403 369.801 320.409 369.765C320.394 369.743 320.379 369.722 320.364 369.701L320.762 369.319L320.466 368.906L320.606 368.565C320.576 368.523 320.556 368.473 320.547 368.416L320.991 368.097L320.718 367.716L320.803 367.366C320.773 367.324 320.76 367.284 320.766 367.248C320.772 367.212 320.76 367.172 320.73 367.13L321.206 366.788L320.226 365.424L319.846 365.697L319.505 365.557C319.483 365.573 319.394 365.605 319.237 365.653L318.941 365.241L318.211 365.765L317.847 365.593C317.763 365.654 317.692 365.689 317.634 365.698L317.315 365.254L316.934 365.527L316.593 365.387C316.551 365.418 316.473 365.442 316.358 365.46L316.084 365.08L315.703 365.353L315.157 364.591L314.808 364.842L314.58 364.525L314.199 364.798L313.652 364.036L313.303 364.287L312.255 362.827L311.843 363.123L310.704 361.537L310.876 361.173C310.708 360.94 310.57 360.703 310.461 360.461C310.366 360.24 310.236 360.014 310.068 359.781L310.154 359.431C310.078 359.325 310.031 359.215 310.012 359.1C309.973 359 309.915 358.897 309.839 358.792L310.252 358.495L310.024 358.178L310.373 357.928L310.054 357.483L310.194 357.142C310.179 357.121 310.174 357.092 310.18 357.056C310.186 357.02 310.174 356.98 310.143 356.938L310.556 356.642L310.26 356.229L310.4 355.889C310.369 355.846 310.35 355.796 310.34 355.739L310.785 355.42L310.466 354.976L310.606 354.635C310.59 354.614 310.586 354.585 310.592 354.549C310.598 354.512 310.586 354.473 310.555 354.431L310.968 354.134L310.694 353.754L311.456 353.207L311.183 352.826L311.881 352.325L311.653 352.008L313.906 350.39L313.633 350.009L314.807 349.167L315.08 349.547L317.619 347.725L317.846 348.042L318.608 347.496L318.926 347.604C318.99 347.558 319.1 347.511 319.257 347.462C319.415 347.413 319.514 347.374 319.557 347.344L319.853 347.756L320.234 347.483L320.561 347.536C320.603 347.506 320.642 347.494 320.679 347.5C320.715 347.506 320.754 347.494 320.797 347.463L321.161 347.971L321.51 347.72L321.738 348.038L322.087 347.787L322.36 348.168L322.741 347.894L323.288 348.656L323.669 348.383L324.17 349.081L324.519 348.83L324.814 348.907C324.835 348.892 324.857 348.876 324.878 348.861C324.914 348.867 324.943 348.863 324.964 348.847L326.463 350.801L326.843 350.528L327.162 350.972L327.063 351.235C327.276 351.532 327.449 351.84 327.583 352.161C327.717 352.481 327.89 352.789 328.103 353.086L327.722 353.359L328.246 354.089L327.929 354.317L328.453 355.047L328.072 355.32L328.345 355.701L328.214 355.987C328.244 356.029 328.264 356.079 328.273 356.137C328.283 356.194 328.303 356.244 328.333 356.286L327.889 356.605L328.116 356.923L327.387 357.447L327.66 357.827L327.279 358.101L327.53 358.45L327.43 358.713C327.491 358.798 327.534 358.88 327.558 358.958L327.572 359.045L327.096 359.386L327.347 359.735L326.617 360.259L327.369 361.306L327.749 361.033L327.977 361.35L328.326 361.1L328.6 361.481L329.012 361.185L329.307 361.261C329.329 361.246 329.357 361.241 329.394 361.247C329.43 361.253 329.469 361.241 329.512 361.211L329.876 361.718L330.638 361.172L331.139 361.87L331.52 361.596L331.838 361.705C331.859 361.689 331.888 361.685 331.924 361.691C331.96 361.697 332 361.685 332.042 361.654L332.862 362.796L333.243 362.523L334.086 363.697L334.466 363.424L335.309 364.598L334.929 364.871L335.726 365.982L335.595 366.268L335.91 366.908C335.989 367.108 336.059 367.25 336.12 367.334L336.02 367.598C336.096 367.704 336.151 367.825 336.185 367.961C336.218 368.097 336.273 368.218 336.349 368.324L336.218 368.61C336.279 368.695 336.321 368.776 336.346 368.855L335.838 369.219L336.111 369.6L335.731 369.874L335.958 370.191L335.229 370.715L335.525 371.127L335.176 371.378L335.426 371.727L334.284 372.547L334.557 372.928L333.51 373.68L333.761 374.029Z" fill="#4D2F14" fill-opacity="0.7"/>
<path d="M267.212 389.858L263.621 390.793L263.314 390.389L256.547 392.15L256.665 392.604L254.019 393.292L253.751 393.039C253.726 393.046 253.631 393.043 253.467 393.032L253.349 392.579L252.933 392.687L252.569 391.288L252.775 390.993C252.742 390.867 252.737 390.747 252.762 390.633C252.761 390.525 252.744 390.409 252.711 390.283L254.488 389.82L254.379 389.404L267.157 386.078L267.405 386.256C267.43 386.25 267.455 386.243 267.48 386.236C267.512 386.255 267.541 386.261 267.566 386.255L267.789 386.802L268.205 386.694L268.697 388.584L268.509 388.794C268.523 388.844 268.52 388.886 268.501 388.917C268.483 388.949 268.48 388.99 268.493 389.041L267.094 389.405L267.212 389.858Z" fill="#4D2F14" fill-opacity="0.7"/>
</svg>
