<svg width="477" height="474" viewBox="0 0 477 474" fill="none" xmlns="http://www.w3.org/2000/svg">
<path d="M182.917 461.168L178.853 460.038L178.748 459.685C178.421 459.594 178.102 459.478 177.79 459.337C177.477 459.196 177.146 459.077 176.794 458.979L176.716 458.674C176.114 458.506 175.51 458.298 174.903 458.048C174.29 457.823 173.657 457.62 173.005 457.439L173.108 457.062L172.732 456.958L172.97 456.091L172.519 455.966L172.56 455.815L173.053 455.79L174.421 450.819L173.969 450.693L174.01 450.542L174.363 450.438C174.37 450.413 174.39 450.391 174.422 450.373C174.454 450.355 174.477 450.321 174.49 450.27L174.942 450.396L175.056 449.982L176.11 450.275L176.236 450.553C176.286 450.567 176.324 450.577 176.349 450.584C176.342 450.609 176.351 450.626 176.376 450.632L176.096 451.649L176.586 451.785L175.974 454.008L176.388 454.123L176.16 454.951L176.65 455.087L176.776 455.366C176.801 455.373 176.822 455.392 176.84 455.424L176.74 456.085L177.266 456.232L177.392 456.51C177.468 456.531 177.574 456.588 177.71 456.68C177.847 456.772 177.941 456.825 177.991 456.839L177.856 457.328L183.84 458.992L183.964 458.54L184.83 458.781L184.944 458.367L185.81 458.607L185.934 458.155L186.297 458.013C186.311 457.963 186.334 457.929 186.366 457.911C186.398 457.892 186.421 457.858 186.435 457.808L186.961 457.955L187.086 457.503L187.439 457.398C187.473 457.272 187.533 457.154 187.618 457.042C187.67 456.949 187.714 456.839 187.748 456.714L188.064 456.599C188.071 456.574 188.09 456.552 188.122 456.534C188.154 456.516 188.177 456.482 188.191 456.431L188.755 456.588L188.994 455.722L189.309 455.607C189.364 455.406 189.444 455.212 189.55 455.025C189.648 454.863 189.722 454.695 189.77 454.519L190.147 454.624L190.633 452.853L190.986 452.749C191.159 452.121 191.369 451.504 191.617 450.897C191.84 450.283 192.034 449.675 192.2 449.072L192.505 448.995L193.174 447.154L192.76 447.039L193.723 443.536L193.234 443.4L193.711 441.667L193.334 441.563L193.697 440.244L193.283 440.129L193.178 439.776C193.127 439.762 193.034 439.709 192.897 439.617L193.146 438.713L192.77 438.608L192.664 438.254C192.639 438.247 192.583 438.205 192.497 438.127L192.534 438.137C192.516 438.105 192.482 438.082 192.432 438.068L192.567 437.579L192.153 437.463L192.047 437.11C191.922 437.075 191.816 437.018 191.729 436.94C191.611 436.88 191.489 436.833 191.363 436.798L191.285 436.493C191.16 436.458 191.054 436.401 190.967 436.323C190.849 436.263 190.727 436.216 190.601 436.181L190.746 435.653L189.881 435.413L189.844 434.957L185.29 433.69L185.176 434.105L184.311 433.864L184.176 434.354L183.311 434.113L183.207 434.49L182.718 434.354L182.593 434.806L182.217 434.701L181.968 435.605L181.517 435.479L181.413 435.856L181.146 435.944L181.156 435.906C181.062 436.15 180.971 436.382 180.884 436.601C180.804 436.795 180.727 436.976 180.653 437.145C180.58 437.314 180.533 437.436 180.512 437.511L180.023 437.375L179.66 438.693L179.284 438.589L179.16 439.04L178.892 439.128C178.872 439.204 178.822 439.285 178.745 439.371L178.03 439.172L178.143 438.758L177.316 438.528L178.673 433.594L179.026 433.489C179.033 433.464 179.052 433.442 179.084 433.424C179.091 433.399 179.098 433.374 179.105 433.349L179.615 433.41L179.749 432.92L180.14 432.826C180.147 432.801 180.166 432.779 180.198 432.761C180.205 432.736 180.212 432.711 180.219 432.686L181.218 432.883L181.343 432.431L181.658 432.315C181.672 432.265 181.698 432.219 181.737 432.175L182.715 432.447L182.85 431.958L183.753 432.209L183.867 431.795L185.598 432.276L185.723 431.824L187.454 432.305L187.568 431.891L189.374 432.393L189.26 432.808L191.481 433.425L191.357 433.877L192.674 434.243L192.8 434.522C192.925 434.556 193.044 434.616 193.155 434.701C193.242 434.78 193.323 434.829 193.398 434.85L193.253 435.377L194.119 435.618L194.015 435.995L194.467 436.12L194.593 436.399C194.618 436.406 194.643 436.413 194.668 436.419C194.686 436.452 194.708 436.471 194.733 436.478L194.642 437.102L195.094 437.227L195.21 437.543C195.235 437.55 195.263 437.545 195.295 437.526C195.295 437.526 195.308 437.53 195.333 437.537C195.358 437.544 195.371 437.547 195.371 437.547C195.364 437.572 195.373 437.588 195.398 437.595L195.297 438.257L195.673 438.361L195.435 439.228L195.924 439.364L196.05 439.642C196.075 439.649 196.097 439.668 196.115 439.701C196.133 439.733 196.168 439.756 196.218 439.77L196.062 440.335L196.552 440.471L196.199 441.751L196.613 441.866L196.354 442.808L196.806 442.933L196.464 444.176L196.878 444.291L196.267 446.514L196.718 446.639L195.268 451.912L194.816 451.786L194.34 453.519L193.926 453.404L193.563 454.722L193.111 454.596L192.749 455.915L192.482 456.003C192.454 456.103 192.394 456.222 192.303 456.358C192.204 456.52 192.145 456.639 192.124 456.714L191.597 456.567L191.359 457.434L191.091 457.522C191.084 457.547 191.074 457.584 191.06 457.635C191.04 457.71 191.01 457.769 190.971 457.812L190.369 457.645L190.141 458.474L189.764 458.369L189.64 458.821L189.151 458.685L189.027 459.137L188.759 459.225C188.745 459.275 188.719 459.322 188.68 459.365C188.641 459.408 188.615 459.455 188.601 459.505L188.037 459.348L187.933 459.725L187.519 459.61L187.384 460.099L187.117 460.187C187.089 460.288 187.053 460.372 187.007 460.44L186.028 460.168L185.904 460.62L185.415 460.484L185.311 460.861L184.446 460.62L184.321 461.072L183.042 460.716L182.917 461.168Z" fill="#BB3A30" fill-opacity="0.7"/>
<path d="M144.102 421.02L143.688 420.8L141.599 424.777L142.013 424.996L142.001 425.521L148.142 428.783L148.36 428.368L149.602 429.028L149.82 428.613L150.614 429.034L150.832 428.619L151.625 429.041L151.861 428.591L152.228 428.565C152.252 428.519 152.288 428.479 152.335 428.445L152.784 428.683L153.238 427.819L153.621 427.845L154.904 425.74L154.456 425.502L154.892 424.672L154.133 424.269L154.333 423.889L153.539 423.467L153.512 423.099C153.167 422.916 152.823 422.703 152.479 422.462C152.112 422.208 151.733 421.977 151.342 421.77L151.332 421.454L150.404 420.784L150.204 421.165L148.169 420.084L147.95 420.499L147.123 420.059L146.923 420.439L146.164 420.036L145.946 420.451L145.118 420.011L144.9 420.426L144.52 420.225L144.102 421.02ZM141.7 437.348L137.319 435.02L136.709 434.166L136.191 433.891L136.391 433.511L135.598 433.089L135.587 432.774C135.518 432.737 135.426 432.659 135.313 432.54L135.585 432.021L135.206 431.819L135.195 431.504C135.103 431.455 135.029 431.401 134.972 431.341L134.903 431.305L135.375 430.405L135.03 430.222L137.011 426.453L137.356 426.636L142.189 417.438L139.912 416.229L139.713 416.609L139.195 416.335L139.395 415.954L139.016 415.753L138.988 415.384C138.965 415.372 138.897 415.306 138.783 415.187L139.092 414.599L139.459 414.573C139.471 414.55 139.495 414.533 139.53 414.522C139.542 414.499 139.554 414.476 139.566 414.453L141.362 415.318L141.562 414.938L142.735 415.561L142.971 415.111L145.041 416.211L144.805 416.66L145.288 416.917L145.351 417.216C145.42 417.253 145.511 417.331 145.625 417.45C145.739 417.569 145.819 417.641 145.865 417.666L145.629 418.115L147.147 418.922L147.365 418.507L148.537 419.13L148.737 418.749L150.428 419.647L150.664 419.198L155.528 421.781L155.292 422.231L156.085 422.652L156.183 422.97C156.298 423.031 156.401 423.115 156.492 423.222C156.56 423.317 156.628 423.383 156.697 423.42L156.461 423.869L157.289 424.309L157.089 424.689L157.537 424.927L157.101 425.757L157.446 425.941L157.047 426.701L157.461 426.921L156.316 429.1L155.902 428.88L155.502 429.641L155.157 429.457L154.721 430.287L154.272 430.049L154.036 430.498L153.757 430.527C153.708 430.619 153.654 430.694 153.595 430.751L152.663 430.256L152.445 430.671L151.617 430.231L151.418 430.611L150.624 430.19L150.406 430.605L149.199 429.963L148.981 430.378L147.359 429.517L147.141 429.932L142.311 427.367L142.13 427.713L140.922 427.071L140.686 427.521L140.272 427.301L140.072 427.681L139.62 427.618L137.603 431.456L138.017 431.676L138.08 431.975C138.103 431.987 138.126 432 138.149 432.012C138.16 432.047 138.177 432.071 138.2 432.083L137.96 432.708L138.374 432.927L138.438 433.227C138.53 433.275 138.621 433.353 138.712 433.461C138.803 433.568 138.906 433.652 139.021 433.713L138.922 434.236L142.717 436.251L142.935 435.837L143.729 436.258L143.928 435.878L144.722 436.299L144.976 435.815L145.309 435.77C145.321 435.747 145.344 435.73 145.379 435.72C145.415 435.709 145.444 435.68 145.468 435.634L145.986 435.909L146.622 434.699L146.967 434.882L147.221 434.398L147.623 434.39C147.647 434.344 147.729 434.328 147.868 434.343C147.995 434.381 148.145 434.431 148.318 434.494C148.479 434.579 148.64 434.665 148.801 434.75C148.939 434.824 149.054 434.885 149.146 434.934L148.928 435.349L149.308 435.55L149.369 435.937C149.392 435.949 149.421 435.95 149.456 435.939C149.456 435.939 149.468 435.945 149.491 435.957C149.514 435.969 149.507 436.039 149.469 436.167C149.419 436.317 149.364 436.479 149.302 436.653C149.205 436.837 149.114 437.01 149.029 437.172C148.932 437.356 148.866 437.483 148.829 437.552L148.381 437.314L147.963 438.109L147.169 437.688L146.97 438.068L146.176 437.646L145.94 438.096L145.146 437.675L144.947 438.055L144.153 437.633L143.953 438.014L141.918 436.933L141.7 437.348ZM144.548 429.661L144.508 429.064L144.726 428.649L145.002 428.796L144.548 429.661Z" fill="#BB3A30" fill-opacity="0.7"/>
<path d="M92.1876 417.284L90.0454 415.461L90.297 415.162L86.4292 411.872L86.5068 411.476C86.487 411.459 86.4343 411.38 86.3489 411.239L87.6569 409.685L88.4007 410.318L88.7025 409.959L89.0663 410.012C89.0999 409.973 89.2128 410 89.405 410.095C89.5804 410.21 89.7856 410.351 90.0206 410.517C90.2387 410.702 90.4569 410.888 90.6751 411.073C90.8735 411.242 91.0222 411.369 91.1214 411.453L90.8195 411.812L92.5749 413.305L92.4172 413.735L95.6602 416.494L95.9369 416.165L96.6807 416.798L96.9826 416.439L97.2801 416.693L97.5819 416.334L97.9755 416.412C98.0593 416.313 98.1546 416.24 98.2614 416.194C98.3483 416.131 98.4337 416.05 98.5175 415.95L98.8745 416.254L102.346 412.13L102.019 411.851L102.295 411.523L101.908 411.194L102.062 410.708L96.0516 405.595L95.7498 405.954L94.9762 405.296L95.0287 404.93C94.9295 404.846 94.857 404.75 94.8112 404.643C94.7288 404.538 94.638 404.444 94.5389 404.36L95.218 403.553L95.6116 403.631C95.6283 403.611 95.655 403.6 95.6916 403.597C95.7084 403.577 95.7252 403.557 95.7419 403.537L102.844 409.476L103.145 409.118L103.83 409.7L112.91 398.911L112.524 398.582L113.102 397.895L112.805 397.642L112.862 397.331C112.247 396.808 111.649 396.265 111.067 395.702C110.486 395.139 109.878 394.588 109.243 394.048L109.321 393.652L107.904 392.242L107.577 392.63L107.518 392.579L107.595 392.184C107.516 392.116 107.453 392.029 107.408 391.922C107.325 391.817 107.234 391.723 107.135 391.639L107.814 390.832L108.112 391.085L108.389 390.756L121.033 401.514L121.031 401.82C121.071 401.853 121.1 401.879 121.12 401.895C121.104 401.915 121.105 401.934 121.125 401.951L120.622 402.548L120.324 402.295L120.073 402.594L119.359 401.987L119.032 402.375L116.622 400.325L116.345 400.654L115.631 400.046L115.304 400.435L114.947 400.131L105.917 410.86L106.274 411.164L105.972 411.522L106.716 412.155L106.713 412.461C107.051 412.748 107.389 413.053 107.73 413.377C108.05 413.683 108.413 414.061 108.819 414.509L108.492 414.897L108.819 415.176L108.19 415.923L107.506 415.341L107.204 415.699L104.794 413.649L104.518 413.978L104.239 413.945C103.87 414.384 103.463 414.807 103.017 415.214C102.572 415.622 102.165 416.045 101.796 416.483L101.439 416.179L100.232 417.614L99.9342 417.361L99.3809 418.018L98.9941 417.689L98.3904 418.406L98.1112 418.374C98.0945 418.394 98.0693 418.424 98.0358 418.464C97.9855 418.524 97.9336 418.565 97.8803 418.588L97.3745 418.158L97.0726 418.516L96.7751 418.263L96.5236 418.562L95.8095 417.955L95.4825 418.343L95.1255 418.039L94.8488 418.368L94.1645 417.786L93.8375 418.174L92.4391 416.985L92.1876 417.284ZM109.489 391.693L110.143 390.916L110.194 391.523L109.817 391.971L109.489 391.693ZM109.543 415.893L108.804 415.983L108.955 415.804L108.568 415.474L108.769 415.235L109.543 415.893ZM96.6551 404.211L97.2566 403.8L97.3161 403.851L96.8633 404.388L96.6551 404.211ZM86.1244 410.535L86.1747 410.476L86.6759 410.851L86.4746 411.09L86.1244 410.535Z" fill="#BB3A30" fill-opacity="0.7"/>
<path d="M69.3905 379.547L69.0198 379.834L65.5289 375.274L65.7048 374.99C65.6256 374.887 65.575 374.778 65.5528 374.663C65.5101 374.565 65.4333 374.443 65.3225 374.298L65.4984 374.014C65.4192 373.91 65.3686 373.801 65.3464 373.687C65.2879 373.568 65.2111 373.446 65.1161 373.322L65.4868 373.035L65.1781 372.632L65.3539 372.347C65.3064 372.285 65.2637 372.187 65.2257 372.051C65.1878 371.916 65.1213 371.787 65.0263 371.662L65.397 371.376L65.1358 371.034L65.257 370.743C65.2412 370.722 65.2174 370.691 65.1858 370.65C65.1541 370.609 65.1327 370.559 65.1217 370.502L65.585 370.143L65.2763 369.74L66.0177 369.166L65.7565 368.825L65.9324 368.541C65.869 368.458 65.8105 368.339 65.7567 368.183L66.5598 367.561L66.2986 367.22L67.3489 366.407L67.0639 366.035L69.4735 364.17L69.8179 364.299C69.8797 364.251 69.9391 364.222 69.9961 364.21L70.8985 365.389L71.2692 365.102L78.4886 374.53L78.8593 374.244L80.2604 376.073L80.6311 375.787L80.8686 376.097L82.4441 374.877L82.2066 374.567L82.948 373.993L82.6392 373.59L83.3806 373.016L83.1432 372.706L83.2644 372.415C83.2169 372.353 83.1876 372.293 83.1766 372.236C83.1496 372.158 83.1204 372.098 83.0887 372.057L83.5212 371.722L83.2837 371.412L83.4596 371.128C83.3804 371.024 83.3219 370.905 83.2839 370.77C83.2095 370.63 83.1327 370.508 83.0536 370.405L83.4551 370.094L82.8852 369.349L83.225 369.086L82.1326 367.66L82.432 367.28L79.8673 363.93L79.4966 364.217L77.8342 362.046L77.4944 362.309L76.6632 361.224L76.2925 361.511L75.4851 360.456L75.1144 360.743L74.3782 359.781L74.5541 359.497C74.5066 359.435 74.4559 359.326 74.4021 359.17L75.02 358.692L75.3953 358.797C75.4365 358.765 75.4753 358.751 75.5117 358.756C75.5482 358.761 75.587 358.747 75.6281 358.715L75.9606 359.15L76.3313 358.863L76.8775 359.576L77.2173 359.313L77.7873 360.057L78.158 359.77L79.2741 361.228L79.6139 360.965L80.7063 362.392L81.1079 362.081L82.4853 363.88L82.8251 363.617L85.1999 366.718L85.157 367.048L85.5868 367.802C85.6454 367.921 85.7143 368.033 85.7934 368.136C85.852 368.255 85.9208 368.367 86 368.47L85.5984 368.781L86.4058 369.835L86.3392 370.134C86.4026 370.217 86.4532 370.326 86.4912 370.461C86.5133 370.575 86.564 370.684 86.6431 370.788L86.2416 371.099L86.5503 371.502L86.2105 371.765L86.4717 372.106L86.101 372.393L86.6235 373.075L86.5569 373.374C86.636 373.477 86.6708 373.565 86.6613 373.639L85.8581 374.26L86.1669 374.663L85.7653 374.974L86.0265 375.315L85.2542 375.913L85.5629 376.316L83.7712 377.703L84.0087 378.013L81.2903 380.117L81.0528 379.807L79.2611 381.194L78.9524 380.79L78.3037 381.292L78.0067 381.226C77.9038 381.306 77.7953 381.357 77.6812 381.379C77.5466 381.417 77.4175 381.484 77.2939 381.58L76.9614 381.146L76.251 381.696L75.9849 381.605C75.9437 381.637 75.9049 381.651 75.8685 381.646C75.8115 381.657 75.7418 381.695 75.6594 381.758L75.3032 381.293L74.9325 381.58L74.6712 381.239L73.9607 381.789L73.6947 381.698C73.6535 381.73 73.5553 381.773 73.4001 381.828L73.0201 381.331L72.6803 381.594L72.1578 380.912L71.7562 381.223L71.1863 380.478L70.8465 380.741L70.3003 380.028L69.9605 380.291L69.3905 379.547ZM70.235 367.928L69.5245 368.478L69.2632 368.136L68.3674 368.83L68.6286 369.171L67.949 369.697L68.234 370.069L68.1056 370.415C68.1689 370.498 68.1958 370.576 68.1863 370.649L67.7229 371.008L68.0316 371.411L67.3211 371.961L67.8436 372.643L67.777 372.942C67.8562 373.045 67.891 373.133 67.8814 373.207L67.3872 373.589L68.2184 374.675L68.1518 374.973C68.527 375.506 68.9259 376.07 69.3486 376.665C69.7349 377.255 70.1156 377.817 70.4908 378.349L70.8306 378.086L71.4006 378.831L71.8022 378.52L72.1466 378.649C72.1878 378.617 72.2266 378.603 72.263 378.608C72.2995 378.613 72.3383 378.599 72.3795 378.567L72.7119 379.001L73.0826 378.714L73.458 378.819C73.5197 378.771 73.5791 378.742 73.6362 378.731L73.9449 379.134L74.3156 378.847L74.7693 378.99C74.7899 378.974 74.8287 378.96 74.8857 378.949C74.9063 378.933 74.9372 378.909 74.9784 378.877L75.2871 379.28L75.9667 378.754L76.4608 379.014L78.5923 377.364L73.724 371.006L73.4151 371.246L70.9215 367.989L70.5199 368.3L70.235 367.928ZM64.9069 381.98L64.8331 382.333L64.7785 382.326L62.8995 381.607L62.8188 381.373L59.1512 379.667C59.1464 379.704 59.129 379.767 59.0989 379.856C59.0529 379.924 59.0196 379.967 58.999 379.982L57.7543 379.513L57.9065 379.198L57.6404 379.108L57.7379 378.785L57.4718 378.695L58.0043 377.591L58.2229 377.62L58.4273 377.116L59.2967 377.48L59.4869 377.086L66.2688 379.839L66.2379 379.863L66.2925 379.87L66.0929 380.123C66.2022 380.137 66.2805 380.176 66.328 380.238L66.2305 380.56L66.4728 380.619L65.9212 382.084L65.6718 382.079C65.6575 382.189 65.6298 382.26 65.5886 382.292L64.9069 381.98ZM66.3829 379.602L66.2688 379.839L66.2925 379.87C66.3654 379.879 66.4255 379.915 66.473 379.977L66.328 380.238C66.4373 380.252 66.5157 380.29 66.5632 380.352C66.5521 380.295 66.549 380.248 66.5537 380.211C66.5427 380.154 66.5316 380.096 66.5205 380.039L66.3829 379.602ZM57.3506 378.986L57.4717 379.337L57.4954 379.368L57.6404 379.108L57.3506 378.986ZM64.9827 382.464L64.8331 382.333L64.7785 382.326L64.6026 382.61L64.9827 382.464ZM57.5856 379.743L57.7543 379.513L57.6997 379.506L57.7306 379.482L57.5192 379.399L57.5856 379.743ZM57.7858 377.563L57.9734 377.615C57.994 377.599 58.0091 377.554 58.0186 377.481C57.9774 377.513 57.9386 377.527 57.9022 377.522C57.8452 377.533 57.8064 377.547 57.7858 377.563ZM65.8523 382.186L66.1398 382.112L65.8904 382.108C65.8698 382.123 65.8674 382.142 65.8832 382.162C65.8832 382.162 65.8729 382.17 65.8523 382.186ZM57.5192 379.399L57.4645 379.392L57.5192 379.399Z" fill="#BB3A30" fill-opacity="0.7"/>
<path d="M21.5913 309.772L21.9182 309.482L19.4159 300.083L18.9633 300.205L17.1946 293.561L17.4461 293.291C17.4126 293.166 17.411 293.058 17.4412 292.969C17.4395 292.862 17.4219 292.745 17.3884 292.619L18.256 292.386L18.1455 291.97L21.3517 291.108L21.6107 291.321C22.0885 291.193 22.573 291.089 23.0642 291.011C23.5554 290.933 24.0524 290.826 24.5554 290.691L24.8244 290.942C24.8495 290.935 24.878 290.941 24.9099 290.959C24.9417 290.978 24.9828 290.98 25.0331 290.967L25.2039 291.608L25.0278 291.858C25.0345 291.883 25.0412 291.908 25.0479 291.933C25.0295 291.965 25.0236 291.994 25.0303 292.019L24.4469 292.257L24.5474 292.634L21.492 293.457L21.6126 293.91L21.4466 294.197C21.46 294.247 21.4574 294.288 21.439 294.32C21.4205 294.352 21.418 294.393 21.4314 294.444L20.8279 294.606L21.1796 295.927L21.0035 296.177L20.9935 296.139L21.0989 296.839C21.1207 297.022 21.1424 297.205 21.1642 297.388C21.1859 297.571 21.2035 297.687 21.2169 297.738L20.7643 297.859L21.94 302.276L21.5251 302.388L22.4296 305.785L22.8445 305.673L23.0656 306.504L33.0238 303.824L32.8027 302.994L33.2051 302.683L32.2203 298.984L31.7676 299.106L31.3054 297.369L29.5702 297.836L29.4496 297.383L28.1294 297.738L27.8681 296.757L28.092 296.535C28.0652 296.434 28.0576 296.355 28.0694 296.298L36.5943 294.004L36.8656 295.023L36.6895 295.273C36.7029 295.323 36.713 295.361 36.7197 295.386C36.6945 295.393 36.6853 295.409 36.692 295.434L35.1832 295.84L35.3038 296.293L34.0213 296.638L34.1318 297.054L33.6414 297.185L34.1238 298.997L33.7466 299.099L34.651 302.496L35.0283 302.395L35.1287 302.772L35.6568 302.63L35.9258 302.881C36.2779 302.787 36.6744 302.707 37.1153 302.642C37.5562 302.577 37.9652 302.494 38.3424 302.393L38.6391 302.596L41.028 302.156L42.7255 301.699L42.6049 301.246L45.2453 300.535L45.1247 300.082L45.3762 299.812C45.3561 299.737 45.352 299.671 45.3637 299.613L45.8541 299.481L45.4923 298.123L45.7815 297.842C45.6811 297.465 45.6024 297.068 45.5455 296.652C45.4886 296.236 45.4032 295.814 45.2893 295.386L45.5131 295.164C45.4997 295.114 45.4981 295.006 45.5082 294.842L46.1117 294.679L46.3807 294.931C46.4561 294.91 46.5223 294.906 46.5793 294.918L46.7854 295.388L47.2004 295.276L49.9237 305.506L49.7477 305.756C49.7745 305.856 49.7795 305.976 49.7627 306.116C49.7392 306.23 49.7408 306.337 49.7676 306.438L48.7492 306.712L48.6185 306.221L48.2036 306.333L47.9825 305.502L47.4921 305.634L46.9093 303.445L46.0794 303.668L45.9588 303.215L38.9428 305.103L38.8423 304.726L36.3527 305.396L36.4532 305.773L33.7373 306.504L33.6368 306.127L30.6946 306.918L30.7951 307.296L24.2317 309.062L24.3523 309.515L23.8997 309.637L24.3619 311.373L23.947 311.485L24.2686 312.693L24.6835 312.581L24.7514 312.684L24.2887 312.768L24.5299 313.674L23.1342 314.05L21.9685 309.671L21.5913 309.772ZM40.7667 301.174L41.2645 301.526L41.4052 302.054L41.028 302.156L40.7667 301.174ZM24.2253 314.808L23.803 314.436L23.6623 313.908L23.9641 313.826L24.2253 314.808ZM27.2695 297.242L27.4079 297.002L27.8983 296.87L27.9887 297.21L27.2695 297.242ZM37.4541 294.501L37.4943 294.652L37.3057 294.703L36.8154 294.835L36.7249 294.495L37.4541 294.501Z" fill="#BB3A30" fill-opacity="0.7"/>
<path d="M11.2812 262.75L10.8517 262.761L10.7474 258.778L11.1728 258.611L11.091 255.487L11.0542 254.081L12.3038 254.048L12.5062 254.316C12.5582 254.315 12.5976 254.327 12.6243 254.352C12.651 254.377 12.6904 254.389 12.7425 254.388L12.7936 256.34L13.2622 256.328L13.4656 256.635C13.6739 256.63 13.8828 256.65 14.0925 256.697C14.276 256.744 14.472 256.765 14.6802 256.759L14.8826 257.028C16.5234 257.01 18.2556 257.003 20.0792 257.007C21.8761 256.986 23.5819 256.967 25.1966 256.95L25.1844 256.481L35.4933 256.209L35.482 255.779L35.8283 255.574C35.8277 255.548 35.8513 255.457 35.8993 255.299L36.4069 255.286L36.3936 254.778L36.9013 254.765L36.891 254.374L37.1603 254.211C37.1569 254.08 37.1795 253.95 37.2282 253.818C37.2501 253.661 37.2594 253.518 37.256 253.387L37.8026 253.373L37.7791 252.475L38.2046 252.307L38.0911 247.973L37.6615 247.984L37.6124 246.11L37.1048 246.123L37.0813 245.225L36.6518 245.237L36.6395 244.768L36.1709 244.78L36.0086 244.55C35.9565 244.552 35.8517 244.528 35.6941 244.48L35.6767 243.817L34.7786 243.84L34.6163 243.61C33.9134 243.629 33.2229 243.621 32.5447 243.587C31.8397 243.527 31.1489 243.507 30.472 243.524L30.4597 243.056L29.3664 243.085L29.3786 243.553L14.3448 243.951L14.3561 244.381L12.9503 244.418L12.9759 245.394L12.5073 245.407L12.5421 246.734L12.3129 246.936C12.3136 246.962 12.3149 247.014 12.317 247.092C12.3184 247.144 12.2937 247.197 12.243 247.25L11.5791 247.268L11.5924 247.775L11.3581 247.782L11.3449 247.274L10.8763 247.286L10.6615 239.086L10.9709 238.961C10.9695 238.909 10.9928 238.804 11.0408 238.646L12.3294 238.612L12.3529 239.51L12.8215 239.498L12.8573 240.865L13.8335 240.839L14.0369 241.146C14.4027 241.188 14.7162 241.219 14.9772 241.238C15.2121 241.258 15.4598 241.265 15.7201 241.258L15.7334 241.765L34.0473 241.281L34.2497 241.549C34.4319 241.544 34.6148 241.565 34.7984 241.612C34.982 241.66 35.178 241.681 35.3862 241.675L35.6287 241.981C35.7849 241.977 35.9157 242 36.0212 242.049C36.1 242.073 36.2175 242.083 36.3737 242.079L36.387 242.586L37.3241 242.562L37.3374 243.069L37.8451 243.056L38.0475 243.324C38.0995 243.323 38.1389 243.335 38.1656 243.36C38.1924 243.385 38.2318 243.397 38.2838 243.396L38.3104 244.411L38.818 244.398L38.8313 244.905L39.2609 244.894L39.2967 246.261L39.7262 246.249L39.7507 247.186L40.2584 247.173L40.4383 254.046L39.9307 254.059L39.9542 254.957L39.725 255.159C39.7284 255.289 39.7058 255.42 39.6572 255.551C39.6078 255.657 39.5849 255.775 39.5883 255.905L39.32 256.107C39.3235 256.237 39.3008 256.368 39.2522 256.5C39.2035 256.631 39.1809 256.762 39.1843 256.892L38.6376 256.907L38.6489 257.336L38.4197 257.538C38.4231 257.668 38.3994 257.76 38.3487 257.813L37.2554 257.842L37.2697 258.389L36.3716 258.413L36.3828 258.842L34.938 258.88L34.9503 259.349L13.8249 259.908L13.8361 260.338L13.5689 260.579C13.5716 260.683 13.5476 260.762 13.4969 260.816L12.9112 260.831L12.9593 262.666L12.7301 262.868C12.7328 262.972 12.7099 263.09 12.6612 263.221C12.6125 263.353 12.5903 263.497 12.5943 263.653L11.3057 263.687L11.2812 262.75ZM10.4262 255.465L11.09 255.448L11.0859 255.291L10.6533 255.186L10.4262 255.465ZM11.3102 253.41L11.3245 253.957L11.3625 253.916C11.3611 253.864 11.3844 253.76 11.4324 253.602L11.5105 253.6L11.3102 253.41Z" fill="#BB3A30" fill-opacity="0.7"/>
<path d="M14.2326 199.162L15.2803 194.193L15.6262 194.067C15.6961 193.736 15.7914 193.41 15.9121 193.09C16.0329 192.769 16.1309 192.431 16.2061 192.074L16.5058 191.978C16.6348 191.367 16.8046 190.75 17.0153 190.13C17.2006 189.503 17.363 188.859 17.5027 188.197L17.8848 188.278L17.9734 187.858L18.8521 188.045L18.9488 187.586L19.9804 187.806L20.1069 188.152C20.7691 188.294 21.4769 188.471 22.2302 188.685C22.9581 188.893 23.6659 189.071 24.3536 189.217L24.4882 189.526C24.5646 189.542 24.6611 189.589 24.7777 189.667C24.8742 189.714 24.9734 189.749 25.0753 189.77L24.761 191.261L23.9205 191.082L23.8399 191.464L21.624 190.992L21.5193 191.489L20.6024 191.293L20.5137 191.714L19.635 191.527L19.5464 191.947L19.0879 191.849L18.9912 192.308L18.7136 192.489C18.6868 192.616 18.6344 192.738 18.5566 192.854C18.4842 192.946 18.4399 193.029 18.4238 193.106L17.9271 193L17.7337 193.917L17.3135 193.828L16.2255 198.988L16.6458 199.077L16.4604 199.956L16.9189 200.054L16.6368 201.392L17.0953 201.49L17.2299 201.798C17.2808 201.809 17.3137 201.842 17.3284 201.899C17.3485 201.93 17.384 201.95 17.4349 201.961L17.3221 202.496L17.7806 202.594L17.7 202.976L18.1584 203.074L18.285 203.421C18.3105 203.426 18.3332 203.444 18.3533 203.475C18.3734 203.506 18.4089 203.527 18.4599 203.538L18.3471 204.073L19.3022 204.276L19.4287 204.623C19.5051 204.639 19.6016 204.686 19.7182 204.764C19.8148 204.812 19.9139 204.846 20.0158 204.868L19.9191 205.326L20.9124 205.538L21.0309 205.923C21.1073 205.939 21.2038 205.986 21.3204 206.064C21.417 206.112 21.5161 206.146 21.618 206.168L21.7908 206.484C22.1219 206.555 22.4477 206.651 22.768 206.772C23.0629 206.888 23.4014 206.987 23.7834 207.069L23.8476 207.522L31.0683 209.06L31.1569 208.64L33.3728 209.112L33.4534 208.73L34.7905 209.015L34.8953 208.518L35.195 208.422C35.2003 208.397 35.2446 208.313 35.3278 208.171L36.3211 208.383L36.4178 207.924L37.2583 208.103L37.355 207.644L37.7009 207.518C37.7278 207.391 37.7748 207.295 37.8418 207.229C37.9143 207.138 37.9639 207.029 37.9908 206.901L38.4492 206.999L38.5459 206.54L38.8919 206.414C38.8972 206.389 38.9415 206.305 39.0247 206.163L39.4831 206.261L39.7652 204.923L40.1493 204.805C40.1708 204.703 40.2178 204.607 40.2902 204.516C40.3425 204.394 40.3821 204.269 40.409 204.142L40.8675 204.239L41.8748 199.461L41.4546 199.372L41.6399 198.493L41.1433 198.387L41.3286 197.508L40.9466 197.426L41.1319 196.547L40.6735 196.45L40.6093 195.997L35.5663 194.922L35.4777 195.342L34.981 195.236L34.8843 195.695L34.5022 195.614L33.7528 199.168L33.2943 199.071L33.2137 199.453L32.1822 199.233L32.3676 198.354L31.9855 198.273L33.7665 189.825L34.1486 189.907L34.2372 189.486L35.3069 189.714L35.4416 190.023C35.467 190.028 35.4898 190.046 35.5099 190.077C35.5354 190.083 35.5608 190.088 35.5863 190.093L35.4532 191.104L35.8352 191.185L35.6499 192.064L42.3739 193.497L42.5004 193.844C42.5259 193.849 42.5487 193.867 42.5688 193.898C42.5943 193.903 42.6197 193.909 42.6452 193.914L42.2381 196.224L42.6583 196.313L42.473 197.193L42.855 197.274L42.6616 198.191L43.1583 198.297L42.9729 199.176L43.3932 199.266L43.1272 200.527L43.5857 200.625L43.2955 202.001L43.7158 202.09L43.4096 203.543L42.9893 203.453L42.4332 206.091L41.9748 205.993L41.7894 206.872L41.5119 207.053C41.4689 207.256 41.4031 207.442 41.3146 207.61C41.2005 207.772 41.1274 207.929 41.0952 208.082L40.5985 207.976L40.4051 208.894L40.0231 208.812L39.9183 209.309L39.6488 209.451C39.638 209.502 39.63 209.54 39.6246 209.566C39.5991 209.561 39.5837 209.571 39.5783 209.596L38.9671 209.466L38.8623 209.963L38.5546 210.097C38.5492 210.122 38.5438 210.148 38.5385 210.173C38.5076 210.193 38.4895 210.216 38.4841 210.241L37.8567 210.188L37.7762 210.57L37.3941 210.488L37.2893 210.985L36.3724 210.79L36.2838 211.21L35.4433 211.031L35.3466 211.49L34.8499 211.384L34.7693 211.766L33.8906 211.579L33.7859 212.076L32.0285 211.701L31.9398 212.122L28.807 211.454L28.7103 211.913L25.1191 211.148L25.2158 210.689L22.5797 210.127L22.437 209.857C22.3043 209.855 22.0168 209.767 21.5744 209.593C21.1321 209.419 20.7454 209.297 20.4143 209.226L20.519 208.729L19.7167 208.558L19.7973 208.176L18.8422 207.973L18.9389 207.514L18.022 207.319L17.9176 207.057C17.8157 207.035 17.7064 206.985 17.5898 206.907C17.4478 206.823 17.3385 206.773 17.2621 206.757L17.3749 206.222L16.9165 206.124L16.9971 205.742L16.5386 205.644L16.6353 205.186L16.1769 205.088L16.0724 204.826C16.0469 204.821 16.0241 204.803 16.004 204.772C15.9585 204.735 15.9129 204.699 15.8673 204.663L15.9721 204.166L15.4755 204.06L15.6608 203.181L15.2406 203.091L15.3453 202.594L14.8869 202.497L15.0722 201.618L14.6902 201.536L14.8755 200.657L14.4171 200.559L14.6911 199.26L14.2326 199.162ZM24.9463 190.382L25.5937 190.72L25.5776 190.796L24.8899 190.65L24.9463 190.382Z" fill="#BB3A30" fill-opacity="0.7"/>
<path d="M25.4585 156.861L30.1204 147.01L30.4859 146.968C30.5416 146.851 30.6152 146.756 30.7067 146.684C30.7859 146.578 30.8589 146.454 30.9258 146.313L31.8772 146.768L31.8863 147.205C31.9098 147.217 31.9277 147.24 31.9401 147.274C31.9636 147.286 31.9871 147.297 32.0105 147.308L31.6466 148.26L32.0342 148.445L31.0651 150.493L31.4879 150.695L31.3208 151.048L31.7437 151.251L31.7194 151.759L34.2918 152.989L34.4923 152.566L34.9856 152.802L35.0282 153.168L36.7585 154.169L36.959 153.745L37.8752 154.184L37.8509 154.692L51.4177 161.181L51.6182 160.758L52.3935 161.128L52.7778 160.316L53.3194 160.359L55.7089 155.31L55.2508 155.091L56.7713 151.878L56.4189 151.709L57.0038 150.473L56.5809 150.271L56.9819 149.424L54.9381 148.446L55.1052 148.093L52.6385 146.913L52.839 146.489L52.4514 146.304L53.0696 144.997L53.4572 145.183L53.6745 144.724L59.4183 147.471L59.6021 147.083L60.1307 147.336L60.1899 147.667C60.3779 147.757 60.5429 147.865 60.6851 147.991C60.8038 148.105 60.9453 148.202 61.1098 148.28L60.7088 149.128L61.1316 149.33L60.1291 151.449L59.7062 151.246L51.7692 168.018L51.4743 168.093C51.4297 168.187 51.3561 168.282 51.2534 168.377C51.1619 168.449 51.0938 168.532 51.0493 168.626L50.0978 168.171L50.315 167.712L49.9274 167.527L50.0945 167.173L49.6364 166.954L50.8061 164.483L50.4537 164.314L50.6208 163.961L33.4596 155.752L33.6601 155.328L30.4887 153.811L30.2714 154.27L29.9765 154.346C29.9542 154.393 29.9375 154.428 29.9263 154.452C29.9028 154.441 29.8855 154.447 29.8744 154.47L29.3106 154.201L27.5728 157.873L27.1852 157.687L26.8009 158.499L25.497 157.876L25.8814 157.063L25.4585 156.861ZM50.0455 169.012L50.0197 168.61L50.2035 168.221L50.5207 168.373L50.0455 169.012ZM31.8812 146.12L31.9517 146.154L31.7363 146.701L31.4543 146.566L31.8812 146.12Z" fill="#BB3A30" fill-opacity="0.7"/>
<path d="M51.4067 108.888L64.1754 92.9901L64.4856 93.0406C64.5182 93 64.5873 92.9555 64.693 92.9071L64.6685 92.9376C64.7051 92.9337 64.7396 92.9115 64.7722 92.8708L65.8337 93.7326L66.1272 93.3671L66.946 94.0318L66.902 94.3986C67.1648 94.612 67.4215 94.8539 67.6719 95.1243C67.9021 95.3782 68.1587 95.6201 68.4418 95.8499L68.3977 96.2167C68.5393 96.3316 68.6544 96.4585 68.7431 96.5976C68.8318 96.7367 68.957 96.8719 69.1187 97.0032L68.8741 97.3078L69.2684 97.6278L68.6079 98.4501L67.9104 97.8839L67.6169 98.2493L65.8579 96.8214L65.5888 97.1564L64.861 96.5655L64.2739 97.2964L63.9696 97.301L62.9981 98.3235C62.8963 98.4086 62.772 98.5425 62.6253 98.7253C62.4746 98.8713 62.3585 98.995 62.277 99.0966L61.913 98.8011L57.1676 104.709L57.5618 105.03L57.5178 105.396C58.2052 105.954 58.9066 106.557 59.6221 107.205C60.3173 107.837 61.0389 108.456 61.787 109.063L61.7733 109.455L63.1918 110.808L63.4853 110.442L64.5467 111.304L64.8403 110.938L65.2717 111.087L68.7697 106.732L68.0418 106.141L68.3353 105.776L67.6682 105.234L67.7181 104.923C67.6411 104.894 67.526 104.767 67.3727 104.542C67.1993 104.3 67.0418 104.122 66.9002 104.007L67.1938 103.642L66.8602 103.371L66.9336 103.279L67.2437 103.33C67.3089 103.249 67.368 103.196 67.4208 103.172L74.2443 108.711L73.9263 109.107L73.5624 108.812L73.2689 109.177L72.5714 108.611L72.2778 108.977L71.5803 108.41L71.2868 108.776L70.5589 108.185L70.3143 108.489L70.0111 108.243L69.1549 109.309L68.791 109.014L66.296 112.12L66.9632 112.662L66.9494 113.053C67.0101 113.102 67.0525 113.154 67.0766 113.207L66.7703 113.713L74.4127 119.917L74.7062 119.552L75.3734 120.093L75.667 119.728L76.1835 119.896L81.6628 113.074L81.2686 112.754L82.3938 111.353L82.0905 111.106L82.6286 110.436L82.2647 110.141L82.5582 109.776L81.8304 109.185L81.8559 108.903L81.8862 108.928C81.7205 108.76 81.5549 108.592 81.3892 108.424C81.2438 108.272 81.1085 108.129 80.9833 107.994C80.858 107.859 80.7651 107.766 80.7044 107.717L81.0224 107.321L79.961 106.459L79.9865 106.178C79.9056 106.113 79.843 106.045 79.7986 105.975L80.2389 105.427L80.5491 105.478C80.5817 105.437 80.6671 105.372 80.8054 105.283L81.5939 105.923L81.8874 105.558L86.1635 109.029L86.1195 109.396C86.1801 109.445 86.2225 109.497 86.2466 109.55L85.9404 110.056L86.274 110.327L85.7358 110.997L86.0997 111.292L86.0322 111.439L85.6624 111.088L73.7499 125.92L73.4456 125.924C73.413 125.965 73.3885 125.995 73.3722 126.016C73.3357 126.02 73.3093 126.032 73.293 126.052L72.7774 125.634L72.6307 125.816L72.7471 125.609L72.3832 125.313L72.9458 124.613L72.6122 124.342L73.4683 123.276L73.0741 122.956L73.3676 122.591L73.0643 122.344L73.3089 122.04L55.4768 107.563L54.9386 108.233L54.5747 107.938L53.156 109.704L52.8224 109.433L52.5288 109.799L52.1649 109.503L51.8958 109.838L51.5016 109.518L51.4967 109.212L51.4067 108.888ZM68.6075 103.129L68.6065 103.38L68.2396 103.837L67.9363 103.59L68.6075 103.129Z" fill="#BB3A30" fill-opacity="0.7"/>
<path d="M104.608 66.2712L104.855 65.8859L102.48 62.7359L102.138 62.9964L101.315 61.9048L100.973 62.1653L100.667 61.7599L100.295 62.044L99.967 61.999C99.8635 62.0779 99.7339 62.1439 99.5783 62.1971C99.4433 62.2344 99.3448 62.2768 99.2827 62.3241L98.9534 61.8875L98.5806 62.1717L98.2606 62.0718L98.2917 62.0481L97.6233 62.4593C97.442 62.5648 97.2606 62.6703 97.0792 62.7758C96.9186 62.8655 96.8175 62.9262 96.7761 62.9578L96.4939 62.5835L92.1446 65.8987L92.4503 66.3042L92.3505 66.6259C92.4446 66.7506 92.5022 66.8704 92.5235 66.9851C92.5655 67.0841 92.6258 67.1855 92.7041 67.2895L92.2692 67.621L98.1256 75.3869L98.5295 75.079L98.9125 75.3274L104.629 70.9702L104.37 70.6272L105.116 70.0588L104.81 69.6534L105.214 69.3455L104.931 68.9713L105.024 68.7044C104.992 68.6629 104.971 68.6134 104.961 68.556C104.95 68.4986 104.929 68.4492 104.898 68.4076L105.395 68.0287L105.136 67.6856L105.228 67.4188L104.608 66.2712ZM85.6873 68.365L87.2406 67.1809L87.5295 67.3045L88.8663 66.4821L88.6076 66.139L89.1357 65.7365L89.5187 65.9848L93.3709 63.0484L93.1122 62.7054L93.951 62.066L94.271 62.1659C94.8094 61.7555 95.405 61.3342 96.0577 60.9022C96.7311 60.4544 97.3681 60.0016 97.9687 59.5438L98.3122 59.6749C98.4779 59.5486 98.6489 59.451 98.8253 59.382C99.0223 59.2973 99.1933 59.1997 99.3383 59.0892L99.6818 59.2203C99.7025 59.2045 99.7311 59.1991 99.7674 59.2042C99.8245 59.1934 99.8842 59.1643 99.9463 59.1169L100.252 59.5224L100.656 59.2145L100.962 59.62L101.303 59.3595L101.592 59.4831C101.634 59.4515 101.732 59.4092 101.888 59.356L102.241 59.8239L102.613 59.5397L102.902 59.6633C102.985 59.6001 103.066 59.5553 103.143 59.5287L103.205 59.4814L103.864 60.3546L104.206 60.0941L105.335 61.5912L105.739 61.2833L107.22 63.2482L107.082 63.6485C107.207 63.8148 107.312 63.9969 107.396 64.1948C107.48 64.3927 107.585 64.5749 107.71 64.7412L107.61 65.0629C107.689 65.1669 107.739 65.2762 107.76 65.391C107.802 65.4899 107.862 65.5914 107.94 65.6953L107.506 66.0269L107.788 66.4011L107.688 66.7228C107.766 66.8268 107.824 66.9465 107.861 67.0821C107.898 67.2176 107.948 67.3269 108.011 67.4101L107.265 67.9784L107.547 68.3527L107.143 68.6605L107.402 69.0036L106.656 69.5719L106.986 70.0086L106.271 70.5532L106.53 70.8963L105.815 71.4409L106.074 71.784L105.297 72.376L106.332 73.7483L106.674 73.4878L107.003 73.9244L107.78 73.3324L108.069 73.456C108.11 73.4245 108.209 73.3821 108.364 73.329L108.694 73.7656L109.066 73.4814L109.355 73.605C109.376 73.5893 109.464 73.5548 109.62 73.5017L109.973 73.9695L110.345 73.6853L110.689 73.8164C110.71 73.8006 110.738 73.7952 110.775 73.8002C110.832 73.7895 110.891 73.7604 110.953 73.713L111.565 74.5239L111.969 74.2161L112.312 74.3472C112.354 74.3156 112.432 74.289 112.546 74.2675L112.852 74.6729L113.224 74.3888L113.836 75.1997L114.209 74.9155L114.75 75.6328L115.153 75.325L115.497 75.4561C115.538 75.4245 115.616 75.3979 115.73 75.3764L116.342 76.1873L116.746 75.8794L117.31 76.628L117.652 76.3675L118.216 77.116L118.962 76.5477L119.329 76.71C119.433 76.631 119.541 76.5808 119.656 76.5592C119.775 76.5011 119.886 76.4325 119.99 76.3536L120.272 76.7279L122.136 75.307L122.442 75.7125L122.815 75.4283L123.191 75.9273L123.06 76.2727C123.138 76.3767 123.188 76.486 123.21 76.6008C123.252 76.6997 123.312 76.8012 123.39 76.9051L119.134 80.1493L118.828 79.7439L118.456 80.0281L118.159 79.9593C118.138 79.9751 118.118 79.9909 118.097 80.0067C118.061 80.0017 118.032 80.0071 118.011 80.0229L117.596 79.6024L117.224 79.8866L116.659 79.138L116.255 79.4459L115.949 79.0404L115.608 79.3009L115.043 78.5524L114.608 78.8839L114.312 78.8152C114.291 78.831 114.263 78.8364 114.226 78.8314C114.19 78.8264 114.151 78.8397 114.11 78.8712L113.451 77.998L113.109 78.2584L112.568 77.5411L112.195 77.8253L111.607 77.0456L111.235 77.3297L110.647 76.55L110.243 76.8579L109.678 76.1093L109.337 76.3698L108.772 75.6213L108.368 75.9292L107.827 75.2118L107.082 75.7802L106.776 75.3747L106.372 75.6826L105.831 74.9652L105.458 75.2494L105.153 74.8439L104.78 75.1281L104.483 75.0594C104.38 75.1383 104.25 75.2043 104.095 75.2575C103.96 75.2948 103.861 75.3372 103.799 75.3845L103.47 74.9479L103.066 75.2558L102.683 75.0074L100.011 77.0439L100.293 77.4182L100.007 77.8819L106.287 86.2092L106.691 85.9014L107.058 86.0637C107.161 85.9847 107.27 85.9345 107.384 85.9129C107.504 85.8548 107.615 85.7862 107.719 85.7073L108.001 86.0816L110.175 84.4239L110.481 84.8294L111.258 84.2374L111.634 84.7364L111.511 85.0269L111.559 85.2851L103.544 91.3946L103.247 91.3259C103.226 91.3416 103.198 91.347 103.162 91.342C103.125 91.337 103.086 91.3503 103.045 91.3819L102.621 90.8205L102.714 90.5537C102.62 90.4289 102.559 90.3274 102.533 90.2493L103.061 89.8467L102.803 89.5036L103.89 88.6748L103.584 88.2694L104.33 87.7011L90.0063 68.7074L89.6335 68.9916L89.2824 68.9154C89.241 68.9469 89.2021 68.9602 89.1657 68.9552C89.1293 68.9502 89.0904 68.9635 89.049 68.9951L88.6962 68.5272L86.4905 70.2085L86.163 70.1635C86.1216 70.1951 86.0826 70.2083 86.0463 70.2033C86.0099 70.1983 85.971 70.2116 85.9295 70.2432L85.4827 69.6506L85.575 69.3838C85.5436 69.3422 85.5226 69.2927 85.512 69.2353C85.5013 69.178 85.4803 69.1285 85.449 69.0869L85.946 68.708L85.6873 68.365ZM87.8769 70.0358L87.8148 70.0832L87.635 69.9746L87.3293 69.5692L87.6089 69.356L87.8769 70.0358Z" fill="#BB3A30" fill-opacity="0.7"/>
<path d="M133.576 36.4152L152.294 28.3273L152.544 28.5167C152.592 28.496 152.674 28.489 152.79 28.4956L152.754 28.5111C152.789 28.5247 152.83 28.5212 152.877 28.5005L153.415 29.7576L153.845 29.5717L154.26 30.5415L154.05 30.845C154.183 31.1563 154.297 31.4899 154.392 31.8458C154.478 32.1778 154.592 32.5114 154.735 32.8466L154.525 33.1501C154.597 33.3178 154.639 33.4837 154.653 33.6481C154.667 33.8124 154.714 33.9903 154.796 34.1819L154.438 34.3369L154.637 34.8038L153.669 35.2221L153.316 34.396L152.886 34.5819L151.995 32.4987L151.601 32.6691L151.232 31.8071L150.372 32.179L150.1 32.0409L148.763 32.491C148.633 32.5187 148.461 32.579 148.246 32.672C148.044 32.7306 147.884 32.7858 147.764 32.8375L147.58 32.4064L140.624 35.4123L140.823 35.8792L140.613 36.1828C140.961 36.9969 141.301 37.8573 141.632 38.764C141.952 39.6467 142.302 40.531 142.681 41.417L142.486 41.7564L143.11 43.6143L143.541 43.4284L144.078 44.6855L144.508 44.4996L144.821 44.8327L149.948 42.6171L149.58 41.755L150.01 41.5691L149.672 40.7789L149.862 40.5268C149.807 40.4653 149.765 40.2993 149.734 40.0288C149.693 39.7345 149.637 39.5034 149.565 39.3358L149.996 39.1499L149.827 38.7548L149.934 38.7083L150.185 38.8978C150.281 38.8565 150.358 38.8374 150.416 38.8407L153.87 46.9223L153.404 47.1237L153.22 46.6927L152.79 46.8786L152.437 46.0525L152.006 46.2385L151.653 45.4123L151.223 45.5983L150.854 44.7362L150.496 44.8912L150.342 44.532L149.087 45.0743L148.903 44.6433L145.245 46.2237L145.583 47.0139L145.388 47.3533C145.419 47.4252 145.433 47.4902 145.429 47.5484L144.922 47.8527L148.792 56.9041L149.222 56.7181L149.56 57.5083L149.99 57.3224L150.369 57.7119L158.401 54.2412L158.201 53.7742L159.851 53.0615L159.697 52.7023L160.486 52.3614L160.302 51.9304L160.732 51.7445L160.364 50.8825L160.518 50.6458L160.533 50.6817C160.465 50.4559 160.396 50.2301 160.328 50.0042C160.27 49.8023 160.217 49.6124 160.17 49.4345C160.122 49.2565 160.083 49.1316 160.052 49.0598L160.518 48.8584L159.981 47.6012L160.134 47.3646C160.093 47.2688 160.07 47.1798 160.063 47.0977L160.708 46.8188L160.959 47.0082C161.007 46.9876 161.113 46.9702 161.277 46.9561L161.676 47.89L162.106 47.704L164.271 52.7685L164.061 53.072C164.092 53.1439 164.105 53.2089 164.102 53.2671L163.595 53.5714L163.764 53.9665L162.975 54.3074L163.159 54.7384L163.031 54.8363L162.867 54.3538L145.404 61.8995L145.133 61.7615C145.085 61.7821 145.049 61.7976 145.025 61.8079C144.991 61.7943 144.962 61.7927 144.938 61.803L144.677 61.1924L144.462 61.2854L144.662 61.1565L144.478 60.7255L145.302 60.3691L145.134 59.974L146.389 59.4317L146.189 58.9648L146.619 58.7788L146.466 58.4197L146.824 58.2647L137.796 37.1448L137.007 37.4857L136.823 37.0547L134.743 37.9534L134.574 37.5583L134.144 37.7442L133.959 37.3132L133.565 37.4836L133.365 37.0167L133.504 36.7441L133.576 36.4152ZM151.486 39.357L151.368 39.5781L150.83 39.8105L150.677 39.4513L151.486 39.357Z" fill="#BB3A30" fill-opacity="0.7"/>
<path d="M203.819 30.0288L204.023 29.834L203.797 27.4145L203.374 27.4894L202.834 24.4114L202.373 24.4932L202.13 23.1081L201.745 23.1763L201.516 21.8681L201.054 21.9499L200.973 21.4882L200.512 21.57L200.357 20.6851L199.934 20.7601L199.853 20.2984L199.353 20.387L199.191 19.4636L198.306 19.6204L198.073 19.4236C198.048 19.4282 198.02 19.4199 197.989 19.3988C197.959 19.3777 197.919 19.3717 197.867 19.3808L197.773 18.8421L197.234 18.9376L197.002 18.7408C196.976 18.7453 196.948 18.7371 196.918 18.716L196.726 18.0755L194.919 18.3959L194.69 18L189.613 18.8999L189.694 19.3616L189.42 19.6085C189.425 19.6342 189.417 19.6621 189.395 19.6923C189.4 19.7179 189.404 19.7436 189.409 19.7692L188.845 19.9484L191.261 33.7226L190.876 33.7908L191.254 35.9454L191.639 35.8773L192.725 42.0718L193.186 41.99L193.44 42.3022C193.619 42.2704 193.803 42.2642 193.992 42.2837C194.206 42.2986 194.402 42.2902 194.582 42.2584L194.81 42.6543L198.118 42.068L198.044 41.6448L199.39 41.4062L199.302 40.906L200.687 40.6606L200.619 40.2758L201.504 40.119L201.423 39.6573L202.308 39.5005L202.146 38.5771L202.53 38.5089L202.463 38.1242L202.963 38.0356L202.882 37.5738L203.086 37.379C203.068 37.2764 203.069 37.1308 203.088 36.9422C203.108 36.7535 203.114 36.6336 203.105 36.5823L203.605 36.4936L203.449 35.6087L203.64 35.3369C203.604 35.1317 203.611 34.9454 203.661 34.7778C203.706 34.5846 203.711 34.3855 203.675 34.1803L204.06 34.1121L203.83 32.8039L204.292 32.7221L203.819 30.0288ZM182.439 17.7912L184.785 17.3754L185.02 17.8098L190.52 16.8349L190.439 16.3732L190.516 16.3596L190.756 16.5948C191.423 16.4766 192.122 16.3924 192.853 16.3421C193.58 16.2661 194.315 16.1622 195.059 16.0304L195.126 16.4152L196.473 16.1766L196.719 16.4503C196.796 16.4367 196.916 16.4419 197.079 16.4659C197.237 16.4643 197.367 16.4544 197.47 16.4362L197.551 16.8979L198.397 16.7479L198.65 17.0601C198.778 17.0374 198.898 17.0426 199.01 17.0757C199.143 17.0786 199.273 17.0687 199.401 17.046L199.602 17.2881C199.628 17.2835 199.722 17.2933 199.885 17.3173L199.979 17.8559L200.364 17.7878L200.565 18.0298C200.642 18.0162 200.762 18.0214 200.925 18.0454L201.026 18.6225L201.449 18.5476L201.65 18.7896C201.701 18.7805 201.809 18.788 201.971 18.812L202.059 19.3122L202.482 19.2372L202.729 19.5109C202.754 19.5064 202.848 19.5161 203.011 19.5402L203.18 20.502L203.603 20.4271L203.849 20.7008C203.875 20.6962 203.918 20.7151 203.978 20.7573C204.034 20.7738 204.09 20.7904 204.146 20.8069L204.301 21.6919L204.724 21.6169L204.96 22.9635L205.421 22.8817L205.739 24.6901L206.162 24.6151L206.54 26.7697L207.04 26.6811L207.613 29.9515L207.301 30.2052C207.364 30.5643 207.408 30.9664 207.433 31.4116C207.458 31.8567 207.507 32.2845 207.579 32.6949L207.343 32.935C207.375 33.1146 207.383 33.3115 207.367 33.5258C207.348 33.7144 207.353 33.8985 207.385 34.0781L207.111 34.325C207.147 34.5302 207.157 34.7399 207.142 34.9542C207.127 35.1685 207.135 35.3654 207.166 35.545L206.743 35.62L206.912 36.5819L206.638 36.8288C206.651 36.9057 206.644 37.0129 206.615 37.1502C206.607 37.2574 206.612 37.3622 206.63 37.4648L206.169 37.5467L206.243 37.9699L205.976 38.2553C205.989 38.3322 205.988 38.3986 205.971 38.4545L205.446 38.6269L205.52 39.0501L205.246 39.297C205.269 39.4253 205.263 39.5452 205.23 39.6569C205.222 39.7641 205.23 39.8818 205.252 40.01L204.291 40.1805L204.372 40.6422L203.987 40.7103L204.068 41.172L203.833 41.4121C203.842 41.4634 203.838 41.517 203.821 41.5729L202.783 41.7569L202.877 42.2956L202.603 42.5425C202.608 42.5682 202.599 42.5961 202.578 42.6263C202.557 42.6565 202.551 42.6972 202.56 42.7485L199.829 43.2326L199.91 43.6943L187.871 45.8281L187.79 45.3664L187.252 45.4619L187.019 45.2651C186.993 45.2696 186.965 45.2614 186.935 45.2403C186.905 45.2192 186.864 45.2132 186.813 45.2222L186.698 44.5682L187.621 44.4045L187.541 43.9428L188.81 43.7179L188.736 43.2946L189.62 43.1378L189.533 42.6376L189.994 42.5558L187.039 25.7036L187.243 25.5088L186.967 22.5822L186.506 22.664L186.486 22.5486L186.689 22.3538L186.657 20.8124L186.196 20.8942L186.034 19.9708L185.534 20.0594L185.301 19.8626C185.096 19.899 184.899 19.9074 184.71 19.8879C184.543 19.8383 184.37 19.8293 184.19 19.8611L184.109 19.3994L182.34 19.713L182.266 19.2898L181.804 19.3716L181.703 18.7945L182.164 18.7127L182.097 18.3279L182.294 18.0946L182.439 17.7912Z" fill="#BB3A30" fill-opacity="0.7"/>
<path d="M234.725 10.9079L255.082 12.0738L255.223 12.3558C255.275 12.3587 255.351 12.3892 255.452 12.4472L255.413 12.4449C255.438 12.4724 255.476 12.4877 255.528 12.4906L255.451 13.8556L255.919 13.8824L255.859 14.9354L255.536 15.1126C255.517 15.4506 255.471 15.8001 255.398 16.1611C255.327 16.4961 255.281 16.8456 255.261 17.2096L254.938 17.3868C254.927 17.5688 254.892 17.7363 254.831 17.8893C254.77 18.0423 254.734 18.2228 254.722 18.4308L254.332 18.4085L254.303 18.9155L253.25 18.8552L253.301 17.9582L252.833 17.9314L252.961 15.6694L252.532 15.6448L252.585 14.7088L251.649 14.6552L251.468 14.41L250.07 14.2126C249.942 14.1792 249.76 14.1558 249.526 14.1424C249.32 14.1045 249.152 14.0818 249.022 14.0743L249.048 13.6063L241.482 13.173L241.454 13.68L241.131 13.8572C241.081 14.7412 241.002 15.6627 240.896 16.6217C240.791 17.5547 240.711 18.5022 240.656 19.4642L240.331 19.6803L240.065 21.6214L240.533 21.6482L240.455 23.0132L240.923 23.04L241.055 23.4779L246.632 23.7973L246.685 22.8613L247.153 22.8881L247.202 22.0301L247.483 21.8898C247.462 21.8103 247.497 21.6428 247.59 21.3872C247.684 21.1057 247.737 20.8739 247.747 20.6919L248.215 20.7188L248.239 20.2898L248.356 20.2965L248.497 20.5784C248.601 20.5843 248.678 20.6018 248.728 20.6308L248.231 29.4058L247.724 29.3767L247.751 28.9087L247.283 28.8819L247.334 27.9849L246.866 27.9581L246.916 27.0611L246.448 27.0343L246.501 26.0983L246.112 26.076L246.134 25.686L244.769 25.6078L244.795 25.1398L240.817 24.912L240.769 25.77L240.443 25.9861C240.439 26.0641 240.422 26.1284 240.393 26.1789L239.804 26.2234L239.247 36.0514L239.715 36.0782L239.667 36.9362L240.134 36.963L240.301 37.4812L249.036 37.9815L249.065 37.4745L250.859 37.5772L250.881 37.1872L251.739 37.2363L251.766 36.7684L252.234 36.7952L252.287 35.8592L252.53 35.7166L252.527 35.7556C252.567 35.523 252.606 35.2905 252.645 35.058C252.683 34.8515 252.72 34.658 252.756 34.4775C252.793 34.297 252.813 34.1677 252.817 34.0897L253.324 34.1188L253.402 32.7538L253.644 32.6112C253.65 32.5072 253.669 32.4169 253.699 32.3404L254.401 32.3806L254.541 32.6625C254.593 32.6655 254.696 32.6975 254.849 32.7584L254.792 33.7724L255.26 33.7992L254.948 39.2982L254.625 39.4753C254.621 39.5533 254.604 39.6176 254.575 39.6681L253.985 39.7126L253.961 40.1416L253.103 40.0925L253.077 40.5605L252.918 40.5905L252.986 40.0858L233.994 38.998L233.812 38.7529C233.76 38.7499 233.721 38.7476 233.695 38.7462C233.671 38.7187 233.645 38.7042 233.619 38.7027L233.657 38.0397L233.423 38.0263L233.659 38.0007L233.686 37.5327L234.583 37.5841L234.607 37.1551L235.972 37.2332L236.001 36.7262L236.469 36.753L236.491 36.363L236.881 36.3854L238.18 13.4534L237.322 13.4043L237.349 12.9363L235.087 12.8067L235.111 12.3777L234.643 12.3509L234.67 11.8829L234.241 11.8584L234.269 11.3514L234.514 11.1698L234.725 10.9079ZM249.458 21.5725L249.254 21.7173L248.669 21.6838L248.691 21.2938L249.458 21.5725Z" fill="#BB3A30" fill-opacity="0.7"/>
<path d="M286.398 15.6039L288.232 16.1508L288.331 16.5064C288.905 16.6775 289.497 16.8811 290.106 17.1171C290.715 17.353 291.344 17.5678 291.993 17.7612L292.065 18.0682C292.115 18.083 292.183 18.1303 292.268 18.2101L292.23 18.1989C292.248 18.2313 292.282 18.255 292.331 18.2698L292.066 19.169L292.441 19.2807L292.175 20.1799L292.662 20.325L292.419 21.1492L292.831 21.272L292.903 21.5789C292.953 21.5938 293.045 21.6485 293.18 21.7431L292.771 23.1294L293.146 23.241L292.88 24.1402L293.33 24.2741L293.402 24.581C293.452 24.5959 293.544 24.6507 293.679 24.7453L293.392 25.7194L293.766 25.831L293.512 26.6927L293.999 26.8378L293.745 27.6996L294.156 27.8223L293.891 28.7215L294.34 28.8555L294.413 29.1624C294.438 29.1698 294.518 29.2209 294.653 29.3155L294.498 29.84L295.022 29.9962L294.768 30.858L295.142 30.9696L294.888 31.8313L295.337 31.9653L295.083 32.827L295.532 32.9609L295.604 33.2678C295.654 33.2827 295.747 33.3375 295.882 33.4321L295.594 34.4062L295.969 34.5178L295.858 34.8925L296.308 35.0264L296.053 35.8881L296.503 36.0221L296.248 36.8838L296.623 36.9954L296.721 37.351C296.746 37.3584 296.826 37.4094 296.961 37.504L296.807 38.0286L297.256 38.1625L297.002 39.0242L297.863 39.2809L297.961 39.6365L298.965 40.0989L302.38 28.5218L301.931 28.3878L302.959 24.9035L302.51 24.7695L302.775 23.8703L302.289 23.7252L302.168 23.4446L302.205 23.4558L301.553 23.1799C301.386 23.1029 301.219 23.0258 301.051 22.9488C300.909 22.8791 300.813 22.8369 300.763 22.822L300.896 22.3724L300.035 22.1157L300.156 21.7035L299.295 21.4468L299.572 20.5102L299.851 20.3898C299.881 20.2899 299.919 20.2062 299.966 20.1387L308.389 22.6501L308.499 22.9682C308.531 22.9506 308.565 22.9743 308.6 23.0391C308.635 23.104 308.678 23.1438 308.728 23.1587L308.418 24.2078L308.101 24.317C308.086 24.3669 308.055 24.4256 308.008 24.4931L306.997 24.1918L306.865 24.6414L306.004 24.3846L305.363 26.5577L305.056 26.6294L304.321 28.5705L304.733 28.6933L304.346 30.0046L303.868 30.1066L301.149 39.3233L301.561 39.4461L298.831 48.7003L298.513 48.8095C298.506 48.8345 298.486 48.8557 298.454 48.8732C298.422 48.8908 298.398 48.9245 298.383 48.9745L297.485 48.7066L297.352 49.1562L296.753 48.9776L296.886 48.528L296.474 48.4052L296.353 48.1246C296.328 48.1172 296.303 48.1097 296.278 48.1023C296.261 48.0699 296.24 48.05 296.215 48.0425L296.328 47.3833L295.878 47.2493L296.111 46.4625L295.661 46.3286L295.927 45.4294L295.515 45.3066L295.758 44.4824L295.271 44.3373L295.537 43.4381L295.162 43.3264L295.405 42.5022L294.994 42.3794L295.259 41.4802L294.81 41.3463L295.219 39.96L294.807 39.8372L294.917 39.4626L294.468 39.3286L294.844 38.0548L294.432 37.932L294.565 37.4824L294.078 37.3373L294.343 36.4381L293.932 36.3153L293.811 36.0347C293.786 36.0273 293.761 36.0198 293.736 36.0124C293.718 35.98 293.697 35.9601 293.672 35.9526L293.896 34.9187L293.484 34.7959L293.738 33.9342L293.214 33.7779L293.468 32.9162L293.056 32.7934L293.189 32.3438L292.74 32.2099L292.994 31.3482L292.582 31.2254L292.825 30.4011L292.376 30.2672L292.642 29.368L292.23 29.2452L292.362 28.7956L291.988 28.684L292.242 27.8223L291.756 27.6772L292.01 26.8154L291.598 26.6927L291.852 25.8309L291.366 25.6858L291.245 25.4052C291.195 25.3903 291.157 25.3792 291.132 25.3717C291.115 25.3393 291.094 25.3194 291.069 25.312L291.389 24.2254L290.528 23.9687L290.639 23.594L289.403 23.2257L289.138 24.1249L288.682 24.152L285.068 36.4035L285.48 36.5263L284.33 40.4227L284.78 40.5567L284.514 41.4559L284.964 41.5898L285.062 41.9454C285.237 41.9974 285.404 42.0745 285.564 42.1766C285.749 42.286 285.941 42.3706 286.141 42.4301L286.031 42.8047L287.715 43.307L287.803 43.7C287.828 43.7075 287.908 43.7585 288.043 43.8531L287.899 44.3402L288.273 44.4518L287.986 45.4259L285.478 44.6781L285.356 45.0902L279.217 43.2597L279.059 42.9679C278.959 42.9381 278.842 42.8759 278.707 42.7813C278.572 42.6867 278.479 42.632 278.429 42.6171L278.728 41.6055L279.177 41.7395L279.299 41.3273L279.567 41.2444C279.582 41.1945 279.609 41.1482 279.649 41.1057C279.696 41.0382 279.727 40.9795 279.742 40.9296L280.341 41.1082L280.451 40.7335L280.825 40.8451L280.958 40.3955L281.856 40.6634L288.223 19.0828L287.773 18.9489L287.906 18.4993L285.735 17.8519L285.856 17.4397L285.445 17.317L285.854 15.9307L286.122 15.8478L286.398 15.6039ZM277.891 41.682L278.695 41.7179L278.595 42.0551L277.891 41.682Z" fill="#BB3A30" fill-opacity="0.7"/>
<path d="M371.587 64.5067L372.774 65.4621L372.531 65.7676L373.93 66.8945L373.888 67.2615C374.293 67.5881 374.713 67.9596 375.147 68.376C375.581 68.7923 376.032 69.1883 376.498 69.564L376.456 69.9309C376.537 69.9962 376.59 70.0554 376.614 70.1084L376.249 70.5667L376.614 70.8607L375.494 72.2662L375.86 72.5602L374.91 73.7517L374.545 73.7085C374.415 73.8715 374.273 74.0079 374.119 74.1178C373.965 74.2278 373.831 74.354 373.718 74.4966L372.196 73.2717L372.732 72.5995L372.367 72.3056L372.975 71.5417L372.671 71.2967L373.498 70.2579L373.133 69.9639L373.45 69.5667L372.354 68.6848L372.5 68.2507L368.089 64.6985L367.821 65.0346L367.121 64.4712L366.78 64.8989L366.446 64.8802C366.413 64.921 366.371 64.9535 366.318 64.9779L365.831 64.586L365.247 65.3193L364.943 65.0743L363.531 66.8464L363.835 67.0914L363.3 67.7635L363.695 68.082L363.653 68.4489C363.693 68.4816 363.738 68.551 363.787 68.657L363.446 69.0848L364.481 69.9177L364.213 70.2538L366.769 72.3116L366.72 72.6235C367.024 72.8685 367.332 73.1501 367.645 73.4685C367.957 73.7869 368.286 74.0849 368.631 74.3626L368.588 74.7295C368.69 74.8111 368.805 74.9377 368.935 75.1091C369.065 75.2804 369.211 75.4315 369.373 75.5621L369.331 75.929C369.432 76.0107 369.507 76.1046 369.556 76.2106C369.641 76.3127 369.734 76.4045 369.836 76.4862L369.519 76.8834L370.219 77.4468L369.951 77.7829L370.286 78.0524L370.243 78.4193C370.264 78.4356 370.318 78.5132 370.408 78.6519L370.091 79.0491L370.456 79.3431L370.389 79.7405C370.41 79.7569 370.465 79.8344 370.554 79.9731L369.678 81.073L369.982 81.318L368.497 83.1818L368.193 82.9368L367.852 83.3646L367.487 83.3214C367.471 83.3417 367.445 83.3539 367.408 83.358C367.371 83.362 367.337 83.3844 367.305 83.4251L366.879 83.0822L366.27 83.846L365.905 83.8028C365.889 83.8232 365.862 83.8354 365.826 83.8394C365.789 83.8434 365.755 83.8658 365.723 83.9066L365.327 83.5881L365.035 83.9547L364.335 83.3913L364.019 83.7885L363.623 83.7208C363.607 83.7411 363.581 83.7533 363.544 83.7574C363.508 83.7614 363.473 83.7838 363.441 83.8245L362.65 83.1876L362.333 83.5848L360.264 81.9189L360.021 82.2245L357.404 80.1177L357.648 79.8121L355.579 78.1463L355.895 77.7491L354.891 76.9406L354.575 77.3378L353.418 76.4069L353.735 76.0097L353.339 75.6912L353.333 75.3854C353.313 75.3691 353.293 75.3528 353.272 75.3364C353.268 75.2997 353.256 75.2732 353.236 75.2569L353.564 74.719L353.199 74.4251L354.343 72.989L354.039 72.7441L354.355 72.3469L354.66 72.5918L355.511 71.5225L355.42 71.449L355.536 71.4919L356.096 70.7892L356.461 71.0832L356.777 70.686L357.568 71.3229L357.526 71.6898C357.546 71.7062 357.601 71.7837 357.69 71.9224L357.349 72.3502L357.714 72.6441L356.862 73.7135L357.227 74.0075L356.668 74.7102L357.033 75.0042L356.99 75.3711C357.051 75.4201 357.094 75.4711 357.118 75.5242L356.753 75.9825L357.483 76.5704L357.441 76.9373C357.542 77.019 357.607 77.1047 357.635 77.1944C357.7 77.2801 357.794 77.372 357.915 77.47L357.599 77.8671L362.163 81.5418L362.455 81.1752L363.155 81.7386L363.447 81.372L364.177 81.9599L364.469 81.5933L364.773 81.8383L365.309 81.1661L365.674 81.4601L367.937 78.6186L367.542 78.3001L367.536 77.9943C367.475 77.9453 367.4 77.8514 367.31 77.7127C367.241 77.5903 367.187 77.5128 367.146 77.4801L367.462 77.0829L366.398 76.2255L366.665 75.8894L365.235 74.738L365.527 74.3714L362.667 72.0686L362.661 71.7628C362.54 71.6648 362.395 71.5321 362.229 71.3647C362.079 71.177 361.959 71.0138 361.87 70.8751L362.187 70.4779L361.487 69.9144L361.73 69.6089L361 69.0209L361.316 68.6237L360.951 68.3298L360.945 68.0239C360.925 68.0076 360.905 67.9913 360.884 67.9749C360.88 67.9382 360.868 67.9117 360.848 67.8954L361.201 67.327L360.866 67.0575L361.377 66.4159L361.012 66.1219L361.596 65.3886L361.231 65.0947L362.204 63.8725L362.515 63.9218C362.596 63.8199 362.661 63.7385 362.71 63.6774C362.795 63.6122 362.88 63.5471 362.965 63.4819L363.397 63.1277L363.762 63.4216L364.054 63.055L364.389 63.3245L364.681 62.9578L365.046 63.2518L365.338 62.8852L365.618 62.9099C365.651 62.8692 365.685 62.8468 365.722 62.8428C365.758 62.8387 365.793 62.8163 365.825 62.7756L366.312 63.1676L366.604 62.8009L366.884 62.8257C366.916 62.785 366.959 62.7524 367.012 62.728C367.064 62.7036 367.107 62.671 367.139 62.6303L367.93 63.2672L368.222 62.9006L368.953 63.4885L369.245 63.1219L371.344 64.8122L371.587 64.5067ZM361.864 70.82C361.848 70.8404 361.83 70.8424 361.809 70.8261C361.809 70.8261 361.817 70.8159 361.834 70.7955L361.864 70.82ZM373.292 74.1536L372.647 74.5872L372.586 74.5382L373.048 73.9576L373.292 74.1536Z" fill="#BB3A30" fill-opacity="0.7"/>
<path d="M408.79 87.6042L409.741 88.7437L409.632 89.04C409.732 89.16 409.788 89.2667 409.798 89.3603C409.845 89.457 409.918 89.5654 410.018 89.6853L409.6 90.038L409.926 90.4278L409.627 90.6798L409.903 91.0096L408.38 92.2944L408.056 92.2104C408.036 92.2272 408.008 92.234 407.971 92.2308C407.934 92.2276 407.896 92.2428 407.856 92.2764L407.481 91.8266L407.063 92.1793L406.813 91.8795L406.484 92.1566L406.11 92.0126C406.09 92.0294 406.003 92.0682 405.851 92.129L405.175 91.3194L404.846 91.5965L404.496 91.1767L404.55 90.8756C404.416 90.7157 404.319 90.5589 404.259 90.4054C404.219 90.2351 404.132 90.0699 403.998 89.91L404.386 89.5825L404.061 89.1927L404.359 88.9408L404.084 88.6109L405.606 87.3261L405.876 87.4053C405.956 87.3381 406.082 87.2657 406.254 87.1882C406.427 87.1106 406.533 87.055 406.573 87.0214L406.924 87.4412L407.222 87.1893L407.473 87.4892L407.861 87.1617L408.461 87.8814L408.79 87.6042ZM401.529 93.1693L402.13 93.8889L402.041 94.2704C402.124 94.3703 402.189 94.4687 402.236 94.5655C402.3 94.6822 402.353 94.8073 402.397 94.9409L401.352 95.8226L401.678 96.2124L401.26 96.5651L400.815 96.2761L389.47 105.849L389.796 106.239L389.467 106.516L390.043 107.206L389.93 107.557C390.664 108.437 391.37 109.323 392.048 110.216C392.742 111.129 393.498 112.076 394.316 113.055L394.207 113.352C394.324 113.492 394.388 113.608 394.398 113.702C394.425 113.815 394.497 113.942 394.614 114.082L393.778 114.787L393.403 114.644C393.383 114.66 393.355 114.667 393.318 114.664C393.299 114.681 393.279 114.698 393.259 114.714L392.573 114.015L392.245 114.292L391.243 113.093L391.472 112.696L381.734 101.031L381.435 101.283L381.409 100.947C381.342 100.867 381.279 100.75 381.218 100.597C381.158 100.443 381.111 100.346 381.078 100.306L382.242 99.324L382.542 99.3779C382.621 99.3107 382.699 99.2619 382.776 99.2316L385.805 102.86L386.163 102.558L386.739 103.247L387.067 102.97L387.668 103.69L398.774 94.3186L397.872 93.239L398.26 92.9116L395.707 89.8529L395.319 90.1804L394.668 89.4008L395.056 89.0733L394.756 88.7134L394.81 88.4124C394.793 88.3924 394.766 88.3808 394.73 88.3776C394.73 88.3776 394.721 88.3676 394.705 88.3476C394.671 88.3076 394.716 88.2188 394.839 88.0813C394.981 87.9269 395.102 87.8078 395.202 87.7238L395.527 88.1136L395.885 87.8113L398.188 90.5701L398.487 90.3182L401.141 93.4967L401.529 93.1693ZM380.909 99.0685L381.449 99.2268L381.824 99.6766L381.585 99.8782L380.909 99.0685Z" fill="#BB3A30" fill-opacity="0.7"/>
<path d="M414.556 130.777L414.774 131.192L413.187 132.034L413.405 132.449L412.646 132.852L412.845 133.233L412.626 133.57C412.65 133.616 412.663 133.698 412.666 133.814L412.648 133.78C412.637 133.815 412.643 133.856 412.668 133.902L411.805 134.36L411.987 134.706L411.801 135.025C411.826 135.071 411.851 135.176 411.878 135.338L411.395 135.595L411.594 135.975L411.215 136.177L411.633 136.972L411.448 137.292C411.678 137.73 411.879 138.168 412.051 138.608C412.235 139.07 412.46 139.555 412.726 140.062L412.557 140.329L413.128 141.751L413.507 141.549L414.361 143.175L414.775 142.955L415.211 143.785L415.59 143.583L415.808 143.998L416.222 143.779L416.404 144.124L420.061 142.183L420.297 142.633L426.611 139.281L426.375 138.831L428.031 137.952L427.632 137.191L428.046 136.971L427.592 136.107L427.708 135.824C427.611 135.64 427.549 135.466 427.523 135.303C427.519 135.128 427.469 134.949 427.372 134.764L427.82 134.526L425.949 130.964L425.501 131.202L424.847 129.957L424.468 130.159L424.05 129.363L423.636 129.583L423.2 128.753L422.406 129.174L422.225 128.828L421.742 129.085L421.424 128.9C421.401 128.912 421.372 128.913 421.337 128.902C421.314 128.914 421.291 128.926 421.268 128.938L420.926 128.456L420.098 128.896L419.78 128.711C419.619 128.796 419.435 128.865 419.226 128.916C419.018 128.968 418.834 129.036 418.673 129.122L418.355 128.937L414.556 130.777ZM440.883 132.766L441.555 134.046L440.382 134.668L440.563 135.014L439.666 135.49L439.484 135.144L437.104 136.408L437.285 136.754L436.837 136.992L436.655 136.646L418.162 146.464L418.344 146.81L417.516 147.249L418.605 149.324L418.226 149.526L418.662 150.356L417.73 150.85L417.413 150.665C417.39 150.677 417.36 150.678 417.325 150.667C417.302 150.679 417.279 150.692 417.256 150.704L416.261 148.977L415.881 149.178L415.264 148.002L414.815 148.24L413.907 146.511L414.356 146.273L412.939 143.576L412.491 143.814L411.637 142.188L411.257 142.39L408.842 137.79L408.958 137.508C408.921 137.438 408.89 137.322 408.863 137.16C408.849 137.02 408.829 136.927 408.805 136.881L409.288 136.625L408.834 135.76L408.95 135.477C408.938 135.454 408.915 135.437 408.88 135.426C408.88 135.426 408.873 135.415 408.861 135.392C408.849 135.369 408.843 135.357 408.843 135.357C408.866 135.345 408.872 135.327 408.86 135.304L409.41 134.924L409.028 134.198L409.408 133.996L409.172 133.546L409.586 133.327L409.368 132.912L409.484 132.629C409.472 132.606 409.448 132.589 409.413 132.578C409.413 132.578 409.407 132.566 409.395 132.543C409.383 132.52 409.377 132.509 409.377 132.509C409.4 132.497 409.405 132.479 409.393 132.456L410.323 131.874L410.141 131.528L410.59 131.29L410.372 130.875L411.234 130.417L411.016 130.002L412.569 129.178L412.351 128.763L416.457 126.583L416.675 126.998L417.917 126.339L418.164 126.473C418.371 126.363 418.619 126.276 418.908 126.211L419.324 126.078L419.56 126.528L420.423 126.07L420.605 126.416L420.95 126.233L421.186 126.682L421.6 126.462L421.881 126.578C421.973 126.529 422.06 126.498 422.141 126.485L422.45 127.073L422.864 126.853L423.045 127.199L423.459 126.979L423.706 127.113C423.798 127.064 423.885 127.033 423.966 127.019L424.475 127.988L424.854 127.786L425.272 128.582L425.72 128.344L426.156 129.174L426.536 128.972L429.569 134.747L429.4 135.014L430.17 136.816L431.343 136.194L431.58 136.643L433.132 135.819L432.896 135.369L434.587 134.472L434.823 134.921L436.755 133.896L436.519 133.446L437.312 133.025L436.677 131.815L436.793 131.532L436.351 130.439C436.314 130.312 436.253 130.167 436.168 130.006C436.118 129.855 436.063 129.723 436.003 129.607L436.9 129.131L437.136 129.581L437.584 129.342L438.002 130.138L438.382 129.936L439.417 131.908L439.865 131.67L440.538 132.949L440.883 132.766Z" fill="#BB3A30" fill-opacity="0.7"/>
<path d="M442.257 183.849L442.371 184.264L443.613 183.919L443.499 183.504L444.327 183.274L444.192 182.785L444.442 182.513C444.435 182.488 444.44 182.459 444.459 182.427C444.477 182.395 444.479 182.354 444.465 182.304L445.03 182.147L444.895 181.657L445.761 181.417L445.512 180.513L445.687 180.262C445.68 180.236 445.685 180.208 445.703 180.176C445.722 180.144 445.724 180.103 445.71 180.052L446.312 179.885L445.929 178.491L446.302 178.226L445.184 174.158L444.77 174.273L444.521 173.369L443.994 173.515L443.723 173.266C443.698 173.273 443.67 173.268 443.638 173.249C443.606 173.231 443.565 173.229 443.515 173.243L443.37 172.716L442.918 172.841L442.609 172.603C442.534 172.624 442.468 172.628 442.411 172.617L442.276 172.128L441.787 172.264L441.543 171.966C441.486 171.955 441.429 171.944 441.372 171.933C441.347 171.94 441.297 171.954 441.221 171.975L441.087 171.485L440.259 171.715L439.898 171.288L437.151 172.051L439.314 179.924L439.691 179.819L440.778 183.774L441.267 183.638L441.391 184.09L442.257 183.849ZM446.997 173.532L448.477 178.919L448.228 179.191C448.262 179.316 448.268 179.436 448.246 179.551C448.248 179.658 448.267 179.774 448.301 179.9L448.052 180.172C448.08 180.272 448.082 180.38 448.06 180.494C448.069 180.627 448.091 180.756 448.125 180.881L447.674 181.007L447.808 181.496L447.559 181.768C447.587 181.869 447.589 181.976 447.567 182.091C447.551 182.23 447.557 182.35 447.584 182.451L447.133 182.576L447.257 183.028L447.035 183.252C447.063 183.352 447.071 183.431 447.059 183.488L446.495 183.645L446.629 184.135L445.726 184.386L445.84 184.8L445.591 185.072C445.605 185.122 445.607 185.23 445.598 185.394L444.62 185.666L444.734 186.08L443.454 186.436L443.578 186.888L440.755 187.672L440.484 187.423C440.434 187.437 440.381 187.438 440.323 187.427L439.93 185.996L439.478 186.121L436.331 174.671L435.88 174.796L435.269 172.574L434.817 172.7L434.714 172.323L432.644 172.898L432.747 173.275L431.844 173.526L431.979 174.015L431.075 174.266L431.189 174.68L430.967 174.904C430.995 175.005 431.006 175.096 431.002 175.178L431.023 175.254L430.458 175.411L430.562 175.787L430.312 176.059C430.333 176.135 430.339 176.255 430.33 176.419C430.347 176.577 430.368 176.706 430.396 176.806L429.907 176.942L430.155 177.846L429.741 177.961L430.217 179.694L429.818 180.008L430.956 184.151L431.408 184.025L432.133 186.662L432.547 186.547L432.909 187.865L433.36 187.74L433.712 189.02L434.164 188.895L434.444 189.912L434.194 190.184C434.201 190.209 434.2 190.304 434.191 190.469L433.589 190.636L433.281 190.397C433.23 190.411 433.189 190.409 433.157 190.391C433.125 190.373 433.084 190.371 433.034 190.385L432.889 189.857L432.437 189.983L432.199 189.116L431.785 189.231L431.537 188.327L431.085 188.453L430.599 186.683L430.185 186.798L429.709 185.065L429.219 185.201L428.619 183.016L428.205 183.131L427.19 179.44L427.364 179.189L427.375 179.227L427.264 178.528C427.234 178.32 427.207 178.125 427.184 177.942C427.167 177.784 427.149 177.668 427.128 177.592L427.618 177.456L427.245 176.101L427.419 175.849C427.398 175.774 427.392 175.654 427.401 175.49C427.417 175.35 427.418 175.255 427.404 175.205L427.893 175.069L427.759 174.579L428.173 174.464L428.059 174.05L428.51 173.925L428.262 173.021L428.436 172.77C428.429 172.744 428.435 172.716 428.453 172.684C428.471 172.652 428.473 172.611 428.459 172.56L429.438 172.288L429.303 171.799L429.793 171.663L429.679 171.249L430.62 170.987L430.485 170.498L432.668 169.891L432.565 169.514L435.726 168.636L435.83 169.013L438.013 168.406L438.147 168.896L438.975 168.666L439.226 168.84C439.326 168.812 439.458 168.802 439.623 168.811C439.787 168.819 439.907 168.813 439.982 168.792L440.127 169.319L441.03 169.068L441.243 169.252C441.293 169.238 441.347 169.237 441.404 169.248C441.461 169.259 441.515 169.258 441.565 169.244L441.72 169.809L442.172 169.684L442.286 170.098L443.189 169.847L443.402 170.031C443.502 170.003 443.593 169.991 443.675 169.996L443.851 170.636L444.265 170.521L444.493 171.35L444.982 171.214L445.231 172.118L445.645 172.003L445.883 172.869L446.297 172.754L446.545 173.658L446.997 173.532Z" fill="#BB3A30" fill-opacity="0.7"/>
<path d="M456.365 225.703L456.502 228.982L456.198 229.19C456.199 229.216 456.177 229.308 456.131 229.467L455.624 229.488L455.66 230.347L455.355 230.555C455.361 230.685 455.34 230.803 455.292 230.91C455.272 231.041 455.264 231.171 455.269 231.302L454.762 231.323L454.782 231.791L454.391 231.808L454.409 232.237L454.105 232.445C454.106 232.471 454.084 232.564 454.039 232.722L453.024 232.765L453.045 233.272L451.64 233.331L451.66 233.8L438.897 234.339L438.915 234.768L438.611 234.976C438.627 235.34 438.615 235.693 438.577 236.033C438.539 236.374 438.528 236.726 438.543 237.09L438.278 237.297C438.283 237.401 438.261 237.506 438.213 237.612C438.167 237.745 438.145 237.863 438.15 237.967L436.628 238.031L436.592 237.173L436.163 237.191L436.042 234.303L436.268 234.098C436.235 233.317 436.243 232.574 436.292 231.868C436.315 231.163 436.311 230.46 436.282 229.757L437.297 229.714L437.316 230.183L437.785 230.163L437.803 230.592L438.271 230.573L438.291 231.041L438.759 231.021L438.925 231.249C439.731 231.215 440.591 231.204 441.504 231.218C442.418 231.258 443.33 231.258 444.241 231.22L444.259 231.649L449.137 231.443L449.119 231.014L451.422 230.917L451.404 230.487L452.38 230.446L452.36 229.978L452.75 229.961L452.732 229.532L453.24 229.511L453.219 229.003L453.445 228.798C453.441 228.72 453.462 228.589 453.506 228.405C453.552 228.246 453.574 228.141 453.571 228.089L454.118 228.066L453.953 224.124L453.446 224.146L453.407 223.209L452.977 223.227L452.92 221.861L452.413 221.882L452.374 220.946L451.984 220.962L451.926 219.596L450.912 219.639L450.704 219.335C450.053 219.362 449.402 219.364 448.749 219.339C448.122 219.314 447.484 219.315 446.833 219.342L446.619 218.882L440.999 219.119L441.018 219.587L438.286 219.703L438.306 220.171L438.002 220.379C438.016 220.718 438.004 221.057 437.966 221.398C437.929 221.764 437.918 222.129 437.934 222.494L437.667 222.661C437.672 222.791 437.651 222.91 437.604 223.016C437.557 223.148 437.536 223.279 437.542 223.409L437.034 223.431L437.054 223.899L436.508 223.922L436.488 223.454L436.02 223.474L435.692 215.629L436.16 215.609L436.139 215.102L436.29 214.978L436.297 215.134L437.156 215.098L437.175 215.566L437.643 215.547L437.681 216.444L438.149 216.424L438.325 216.886L452.687 216.28L452.666 215.773L452.892 215.567C452.872 215.099 452.878 214.617 452.91 214.12C452.968 213.648 452.986 213.126 452.962 212.554L453.469 212.533L453.451 212.103L453.958 212.082L454.124 212.309C454.15 212.308 454.189 212.307 454.241 212.305C454.319 212.301 454.385 212.312 454.438 212.335L454.484 213.428L454.952 213.408L455.048 215.711L455.439 215.695L455.518 217.607L455.128 217.623L455.148 218.092L454.844 218.3C454.848 218.404 454.838 218.483 454.814 218.536L453.839 218.577L453.948 221.192L454.338 221.176L454.358 221.644L454.826 221.624L454.865 222.561L455.334 222.541L455.41 224.375L455.8 224.359L455.857 225.725L456.365 225.703ZM436.864 228.716L437.196 229.171L437.219 229.718L436.907 229.731L436.864 228.716ZM436.786 214.683L436.279 214.705C436.385 214.753 436.426 214.79 436.401 214.817C436.376 214.844 436.365 214.884 436.367 214.936L436.289 214.939L436.256 214.159L436.786 214.683ZM436.976 223.902L436.69 224.54L436.729 224.538L436.664 223.916L436.976 223.902Z" fill="#BB3A30" fill-opacity="0.7"/>
<path d="M455.028 313.706L454.706 314.586L454.345 314.661C454.328 314.71 454.267 314.799 454.165 314.927L453.689 314.751L453.554 315.118L441.611 310.7L441.745 310.333L440.536 309.886L440.402 310.253L439.046 309.751L439.181 309.384L438.008 308.951L437.874 309.318L436.482 308.803L436.616 308.436L434.638 307.704L434.503 308.071L433.551 307.718L433.685 307.351L429.509 305.806L429.374 306.173L428.532 305.862L428.371 306.302L428.061 306.354C428.052 306.378 427.996 306.455 427.893 306.583L427.344 306.38L425.008 312.763L424.641 312.627L424.48 313.068L423.125 312.566L428.737 297.233L429.103 297.368L429.425 296.488L430.414 296.854L430.253 297.294L430.62 297.429L429.076 301.648L429.552 301.824L429.243 302.668L429.646 302.817L429.485 303.257L437.032 306.049L437.193 305.609L438.182 305.975L438.021 306.415L443.81 308.556L443.971 308.116L447.048 309.254L446.887 309.695L452.309 311.7L452.47 311.26L452.837 311.396L454.032 308.131L453.665 307.995L454.618 305.391L455.424 305.689L455.586 305.249L456.135 305.452L455.974 305.892L456.34 306.028L456.206 306.395L456.682 306.571L454.977 311.23L455.38 311.379L454.588 313.543L455.028 313.706ZM431.421 298.309L430.874 298.44L430.324 298.236L430.432 297.943L431.421 298.309Z" fill="#BB3A30" fill-opacity="0.7"/>
<path d="M429.119 344.308L428.876 344.708L427.346 343.766L427.102 344.166L426.734 344.169C426.693 344.236 426.648 344.284 426.599 344.315L425.734 343.782L425.49 344.183L425.156 344.206C425.142 344.228 425.073 344.292 424.947 344.398L424.448 344.091L424.001 344.825L423.687 344.815C423.606 344.948 423.516 345.046 423.417 345.107C423.327 345.205 423.248 345.309 423.18 345.42L422.748 345.154L420.715 348.489L421.114 348.735L420.606 349.569L420.971 349.795L420.727 350.195L421.16 350.461L420.956 350.795L421.322 351.02L420.834 351.821L421.566 352.271L421.322 352.672L421.754 352.938L421.531 353.305L421.896 353.53L421.806 353.979L427.36 357.401L427.583 357.034L428.381 357.526L428.605 357.159L429.337 357.61L429.581 357.21L430.379 357.702L430.602 357.335L431.001 357.581L431.266 357.147L431.598 357.352L432.066 356.585L432.4 356.562C432.509 356.384 432.633 356.231 432.772 356.102C432.92 356.01 433.048 355.875 433.156 355.697L433.555 355.943L434.938 353.675L434.539 353.429L434.986 352.695L434.587 352.449L435.075 351.649L434.743 351.444L435.19 350.71L434.758 350.444L434.734 350.108C434.712 350.094 434.696 350.069 434.688 350.033C434.679 349.997 434.652 349.966 434.608 349.938L434.913 349.438L434.148 348.967L434.352 348.633L433.919 348.367L433.916 347.998C433.561 347.779 433.22 347.538 432.892 347.275C432.564 347.012 432.212 346.764 431.835 346.532L431.832 346.163L429.119 344.308ZM436.385 354.979L435.388 356.613L435.021 356.616C434.912 356.794 434.782 356.958 434.629 357.109C434.476 357.259 434.345 357.424 434.237 357.601L433.923 357.591C433.828 357.747 433.711 357.889 433.572 358.017C433.419 358.168 433.288 358.332 433.18 358.51L432.812 358.513C432.744 358.624 432.668 358.699 432.583 358.739C432.484 358.8 432.401 358.887 432.333 358.998L432.019 358.988C432.006 359.01 431.936 359.074 431.81 359.18L431.345 358.894L430.857 359.694L430.543 359.684C430.516 359.728 430.439 359.804 430.314 359.91L429.449 359.377L429.225 359.744L428.893 359.539L428.649 359.939L427.851 359.447L427.627 359.814L426.895 359.364L426.651 359.764L425.853 359.272L425.63 359.639L423.701 358.45L423.457 358.851L417.171 354.978L417.168 354.608C416.968 354.485 416.76 354.327 416.543 354.132C416.349 353.951 416.14 353.792 415.919 353.655L416.142 353.288L414.579 352.325L414.576 351.956C414.354 351.819 414.135 351.654 413.918 351.459C413.723 351.278 413.515 351.119 413.294 350.982L413.236 350.626C413.148 350.571 413.061 350.488 412.978 350.375C412.903 350.298 412.821 350.232 412.732 350.178L412.996 349.744L412.198 349.252L412.422 348.885L412.023 348.639L412.019 348.27C411.908 348.202 411.822 348.118 411.761 348.019C411.708 347.956 411.626 347.89 411.515 347.822L411.759 347.421L411.326 347.155L411.343 346.752C411.277 346.711 411.202 346.635 411.118 346.522C411.043 346.445 410.961 346.379 410.872 346.324L411.116 345.924L410.684 345.658L410.887 345.324L410.488 345.078L410.484 344.709C410.462 344.695 410.447 344.671 410.438 344.635C410.416 344.621 410.394 344.607 410.372 344.594L410.61 344.053L410.278 343.848L410.241 343.458C410.174 343.417 410.126 343.372 410.095 343.322L410.293 342.847L409.927 342.622L410.435 341.788L410.036 341.542L410.483 340.809L410.084 340.563L410.572 339.762L410.24 339.557L410.728 338.757L410.329 338.511L411 337.41L410.634 337.185L411.589 335.617L411.157 335.351L411.185 335.23L411.63 335.55L412.586 333.983L413.816 334.741L413.328 335.541L413.694 335.767L412.759 337.301L413.158 337.547L412.466 338.681L412.799 338.886L412.108 340.02L412.54 340.286L412.072 341.054L412.438 341.279L411.95 342.079L412.715 342.551L412.471 342.951L412.87 343.197L412.382 343.997L412.748 344.223L412.759 344.505C412.803 344.532 412.841 344.571 412.872 344.62C412.903 344.67 412.94 344.708 412.984 344.736L412.679 345.236L413.444 345.707L413.241 346.041L414.039 346.532L413.775 346.966L414.506 347.417L414.518 347.699C414.606 347.754 414.715 347.851 414.843 347.991C414.971 348.131 415.057 348.215 415.101 348.242L414.837 348.676L415.602 349.147L415.378 349.514L418.338 351.338L418.968 350.304L418.636 350.099L419.124 349.298L418.725 349.053L419.172 348.319L418.806 348.093L419.314 347.259L418.882 346.993L421.017 343.491L421.449 343.757L422.202 342.523L422.503 342.479C422.571 342.368 422.661 342.271 422.773 342.187C422.871 342.125 422.941 342.061 422.982 341.994L423.414 342.261L423.638 341.894L423.97 342.099L424.234 341.665L424.667 341.932L424.911 341.531L425.212 341.488C425.226 341.465 425.239 341.443 425.253 341.421C425.288 341.412 425.313 341.397 425.327 341.375L425.833 341.595L426.036 341.261L426.834 341.753L427.099 341.319L427.864 341.791L428.087 341.424L428.852 341.895L429.055 341.562L430.253 342.299L430.497 341.899L434.022 344.071L433.778 344.472L434.942 345.189L434.738 345.522L435.902 346.239L435.913 346.522C436.002 346.576 436.11 346.674 436.239 346.814C436.367 346.954 436.453 347.037 436.497 347.065L436.213 347.532L436.545 347.737L436.342 348.07L437.14 348.562L436.896 348.962L437.262 349.188L436.774 349.988L437.173 350.234L437.184 350.516C437.228 350.543 437.255 350.575 437.263 350.611C437.272 350.647 437.298 350.678 437.343 350.706L436.814 351.573L437.246 351.839L436.779 352.607L437.145 352.832L435.986 354.733L436.385 354.979ZM413.547 333.382L413.635 333.987L413.351 334.454L413.018 334.249L413.547 333.382Z" fill="#BB3A30" fill-opacity="0.7"/>
<path d="M404.983 379.957L404.665 380.302L403.35 379.077L403.033 379.422L402.672 379.353C402.619 379.41 402.565 379.449 402.511 379.47L401.768 378.778L401.45 379.123L401.118 379.08C401.1 379.099 401.019 379.148 400.875 379.228L400.446 378.828L399.864 379.46L399.558 379.389C399.452 379.504 399.345 379.582 399.236 379.623C399.129 379.701 399.031 379.788 398.943 379.884L398.571 379.538L395.925 382.411L396.268 382.73L395.606 383.448L395.92 383.741L395.603 384.086L395.974 384.432L395.71 384.719L396.024 385.012L395.389 385.702L396.018 386.287L395.7 386.632L396.072 386.978L395.781 387.294L396.095 387.587L395.918 388.009L400.693 392.455L400.984 392.139L401.67 392.778L401.961 392.462L402.59 393.047L402.907 392.703L403.594 393.342L403.885 393.026L404.228 393.345L404.572 392.971L404.858 393.238L405.466 392.577L405.799 392.62C405.94 392.466 406.091 392.34 406.253 392.242C406.416 392.18 406.568 392.073 406.709 391.92L407.052 392.239L408.852 390.285L408.509 389.966L409.091 389.334L408.748 389.014L409.384 388.325L409.098 388.059L409.68 387.427L409.308 387.081L409.351 386.746C409.332 386.729 409.321 386.701 409.32 386.664C409.319 386.628 409.299 386.591 409.261 386.556L409.658 386.125L409 385.513L409.265 385.225L408.893 384.879L408.962 384.516C408.657 384.232 408.37 383.929 408.1 383.607C407.831 383.285 407.534 382.973 407.21 382.671L407.279 382.308L404.983 379.957ZM410.015 391.848L408.718 393.256L408.357 393.187C408.216 393.34 408.055 393.475 407.876 393.593C407.697 393.711 407.537 393.846 407.396 394L407.09 393.928C406.966 394.062 406.823 394.179 406.662 394.277C406.483 394.395 406.322 394.53 406.181 394.684L405.82 394.614C405.732 394.71 405.642 394.769 405.551 394.791C405.443 394.832 405.344 394.9 405.256 394.996L404.95 394.925C404.932 394.944 404.851 394.993 404.707 395.073L404.307 394.7L403.672 395.389L403.366 395.318C403.331 395.356 403.241 395.415 403.097 395.495L402.354 394.802L402.063 395.119L401.777 394.852L401.459 395.197L400.773 394.558L400.482 394.874L399.853 394.289L399.535 394.633L398.849 393.994L398.558 394.31L396.9 392.766L396.583 393.111L391.18 388.08L391.248 387.717C391.077 387.557 390.904 387.361 390.73 387.127C390.574 386.911 390.401 386.715 390.211 386.537L390.502 386.221L389.158 384.97L389.227 384.607C389.036 384.43 388.854 384.224 388.68 383.991C388.524 383.775 388.351 383.578 388.161 383.401L388.175 383.04C388.098 382.969 388.03 382.87 387.97 382.743C387.912 382.653 387.844 382.572 387.768 382.501L388.112 382.128L387.426 381.489L387.717 381.173L387.374 380.853L387.443 380.491C387.348 380.402 387.279 380.303 387.239 380.193C387.199 380.121 387.132 380.041 387.036 379.952L387.354 379.607L386.982 379.261L387.078 378.869C387.02 378.816 386.962 378.726 386.902 378.599C386.843 378.509 386.776 378.428 386.7 378.357L387.017 378.012L386.645 377.666L386.91 377.379L386.567 377.06L386.636 376.697C386.617 376.679 386.607 376.652 386.605 376.615C386.586 376.597 386.567 376.579 386.548 376.562L386.888 376.077L386.602 375.811L386.642 375.422C386.585 375.368 386.546 375.314 386.526 375.26L386.813 374.833L386.498 374.54L387.16 373.822L386.817 373.503L387.399 372.87L387.056 372.551L387.691 371.862L387.405 371.595L388.041 370.906L387.698 370.586L388.571 369.638L388.256 369.346L389.5 367.995L389.129 367.649L389.18 367.536L389.553 367.938L390.797 366.587L391.855 367.572L391.22 368.262L391.534 368.555L390.317 369.876L390.66 370.196L389.76 371.173L390.046 371.439L389.146 372.416L389.518 372.762L388.909 373.422L389.223 373.715L388.588 374.405L389.246 375.017L388.928 375.362L389.271 375.681L388.636 376.371L388.95 376.663L388.906 376.942C388.944 376.978 388.973 377.023 388.994 377.078C389.014 377.132 389.044 377.177 389.082 377.213L388.685 377.644L389.342 378.256L389.077 378.543L389.764 379.182L389.419 379.556L390.048 380.141L390.004 380.42C390.08 380.491 390.167 380.608 390.265 380.77C390.364 380.933 390.432 381.032 390.47 381.067L390.126 381.441L390.783 382.053L390.492 382.369L393.036 384.738L393.857 383.848L393.571 383.582L394.206 382.892L393.863 382.573L394.445 381.941L394.131 381.648L394.793 380.93L394.421 380.584L397.2 377.567L397.572 377.913L398.551 376.85L398.855 376.866C398.943 376.77 399.05 376.692 399.177 376.632C399.285 376.591 399.366 376.542 399.419 376.484L399.791 376.83L400.082 376.514L400.368 376.78L400.712 376.407L401.084 376.753L401.401 376.408L401.705 376.424C401.723 376.405 401.74 376.386 401.758 376.367C401.795 376.365 401.822 376.355 401.839 376.336L402.293 376.651L402.557 376.364L403.243 377.003L403.587 376.629L404.245 377.242L404.536 376.926L405.194 377.538L405.458 377.251L406.487 378.209L406.805 377.864L409.835 380.686L409.518 381.031L410.518 381.962L410.254 382.25L411.254 383.181L411.21 383.46C411.286 383.531 411.373 383.648 411.471 383.811C411.569 383.973 411.637 384.072 411.676 384.108L411.305 384.51L411.591 384.776L411.326 385.063L412.012 385.702L411.695 386.047L412.009 386.34L411.374 387.029L411.717 387.349L411.673 387.628C411.711 387.663 411.73 387.699 411.732 387.736C411.733 387.773 411.753 387.809 411.791 387.845L411.103 388.592L411.475 388.938L410.866 389.599L411.18 389.891L409.672 391.529L410.015 391.848ZM391.857 366.187L391.825 366.798L391.455 367.2L391.169 366.934L391.857 366.187Z" fill="#BB3A30" fill-opacity="0.7"/>
<path d="M367.787 401.086L367.407 401.361L366.34 399.866L365.96 400.141L365.415 399.378L365.035 399.652L364.513 398.921L364.196 399.15L363.946 398.8L363.534 399.097L363.195 398.957C363.152 398.988 363.074 399.012 362.959 399.031L362.664 398.617L361.555 399.417L361.215 399.277C361.11 399.354 360.936 399.447 360.695 399.557L360.183 399.781L359.956 399.464L357.834 400.995L358.061 401.313L356.953 402.113L357.248 402.527L356.519 403.052L356.769 403.402L356.04 403.928L356.313 404.309L355.933 404.584L356.182 404.933L355.834 405.185L356.356 405.916L355.976 406.19L356.248 406.572L356.172 406.868C356.308 407.059 356.434 407.257 356.549 407.463C356.679 407.69 356.829 407.967 356.998 408.294L356.867 408.582L357.867 410.317L358.215 410.066L359.259 411.528L359.608 411.277L360.153 412.04L360.533 411.765L361.055 412.496L361.403 412.245L361.63 412.563L362.01 412.289L362.305 412.702L363.034 412.176L363.36 412.23C363.466 412.153 363.586 412.098 363.722 412.065C363.858 412.031 363.958 411.991 364.021 411.945L364.316 412.022C364.4 411.961 364.51 411.913 364.646 411.88C364.782 411.846 364.903 411.791 365.008 411.715L365.326 412.16L367.765 410.399L367.47 409.986L368.959 408.912L368.732 408.594L369.428 408.091L369.156 407.709L369.264 407.39C369.249 407.369 369.217 407.28 369.169 407.122L369.644 406.779L369.417 406.461L369.734 406.233L369.211 405.502L369.329 405.128C369.253 405.022 369.206 404.911 369.188 404.796C369.148 404.696 369.091 404.593 369.015 404.487L369.427 404.19L368.61 403.045L368.75 402.704L367.787 401.086ZM366.593 420.253L366.213 420.528L367.485 422.308L367.865 422.034L368.931 423.528L369.312 423.253L369.606 423.33C369.627 423.315 369.648 423.299 369.669 423.284C369.706 423.29 369.734 423.285 369.756 423.27L370.409 424.051L370.789 423.777L371.106 423.885C371.17 423.839 371.28 423.792 371.437 423.743C371.594 423.694 371.693 423.654 371.736 423.623L372.031 424.037L372.791 423.488L373.167 423.746L376.24 421.529L375.99 421.179L376.719 420.653L376.446 420.272L377.175 419.746L376.88 419.333L377.02 418.991C376.989 418.949 376.97 418.899 376.96 418.841L377.404 418.521L377.109 418.108L377.28 417.743C377.159 417.573 377.067 417.399 377.003 417.22C376.955 417.063 376.877 416.91 376.771 416.761L377.088 416.533L374.773 413.29L374.456 413.519L373.889 412.724L373.477 413.021L373.25 412.703L372.901 412.955L372.616 412.824C372.574 412.854 372.474 412.894 372.317 412.943L371.977 412.466L371.66 412.695L371.374 412.564C371.248 412.655 371.127 412.71 371.012 412.729C370.891 412.784 370.778 412.849 370.673 412.925L370.378 412.512L369.301 413.289L369.051 412.94L366.96 414.449L367.21 414.798L366.418 415.37L366.691 415.751L365.962 416.277L366.212 416.627L365.483 417.152L366.028 417.915L365.648 418.19L366.147 418.889L365.799 419.141L366.593 420.253ZM377.099 423.269L374.47 425.167L374.22 424.817L372.7 425.914L372.36 425.774C372.254 425.851 372.154 425.89 372.061 425.894C371.961 425.933 371.859 425.991 371.753 426.068L371.481 425.686L370.721 426.235L370.381 426.095C370.375 426.131 370.346 426.136 370.294 426.109C370.222 426.097 370.165 426.106 370.122 426.137L369.85 425.755L369.47 426.029L368.948 425.298L368.599 425.55L368.237 425.378C368.216 425.393 368.127 425.425 367.97 425.474L367.448 424.743L367.099 424.995L366.554 424.232L366.174 424.506L363.995 421.454L364.135 421.112C364.09 421.049 364.043 420.938 363.994 420.781C363.924 420.638 363.867 420.535 363.821 420.472L364.201 420.197L363.657 419.434L363.797 419.092C363.781 419.071 363.777 419.042 363.783 419.006C363.768 418.985 363.753 418.964 363.737 418.942L364.136 418.559L363.84 418.146L363.98 417.804C363.95 417.761 363.93 417.711 363.921 417.654L364.365 417.334L364.092 416.952L364.178 416.601C364.148 416.559 364.135 416.52 364.141 416.483C364.147 416.447 364.135 416.407 364.105 416.365L364.58 416.022L363.604 414.655L363.224 414.929L362.884 414.789C362.863 414.805 362.774 414.837 362.617 414.886L362.322 414.472L361.593 414.998L361.231 414.826C361.146 414.887 361.075 414.923 361.018 414.932L360.7 414.487L360.32 414.761L359.98 414.621C359.938 414.652 359.859 414.676 359.744 414.695L359.472 414.313L359.092 414.588L358.547 413.825L358.199 414.076L357.972 413.758L357.592 414.032L357.047 413.269L356.698 413.521L355.654 412.059L355.243 412.356L354.108 410.766L354.279 410.402C354.113 410.168 353.975 409.931 353.866 409.688C353.772 409.467 353.642 409.24 353.475 409.007L353.561 408.656C353.485 408.55 353.438 408.439 353.42 408.324C353.38 408.224 353.323 408.121 353.247 408.015L353.659 407.718L353.432 407.4L353.78 407.149L353.463 406.704L353.602 406.362C353.587 406.341 353.583 406.312 353.589 406.275C353.595 406.239 353.583 406.199 353.552 406.157L353.964 405.86L353.669 405.447L353.809 405.105C353.779 405.062 353.759 405.012 353.75 404.955L354.193 404.635L353.875 404.19L354.015 403.848C354 403.827 353.996 403.798 354.002 403.761C354.008 403.725 353.995 403.686 353.965 403.643L354.377 403.346L354.104 402.964L354.865 402.416L354.592 402.034L355.289 401.531L355.062 401.213L357.311 399.59L357.039 399.209L358.211 398.363L358.483 398.745L361.017 396.916L361.244 397.234L362.004 396.685L362.321 396.793C362.385 396.747 362.495 396.7 362.652 396.651C362.809 396.602 362.908 396.562 362.951 396.532L363.246 396.945L363.626 396.671L363.952 396.724C363.994 396.694 364.034 396.681 364.07 396.687C364.106 396.693 364.145 396.681 364.188 396.651L364.551 397.159L364.899 396.908L365.126 397.226L365.475 396.974L365.747 397.356L366.127 397.081L366.672 397.844L367.052 397.57L367.551 398.269L367.9 398.018L368.194 398.094C368.215 398.079 368.237 398.064 368.258 398.049C368.294 398.055 368.323 398.05 368.344 398.035L369.837 399.992L370.217 399.717L370.535 400.163L370.436 400.427C370.648 400.724 370.82 401.033 370.954 401.354C371.087 401.675 371.26 401.984 371.471 402.281L371.091 402.555L371.613 403.286L371.297 403.515L371.819 404.246L371.439 404.52L371.711 404.902L371.58 405.189C371.61 405.231 371.63 405.281 371.639 405.339C371.648 405.397 371.668 405.447 371.698 405.489L371.255 405.809L371.482 406.127L370.753 406.653L371.026 407.034L370.646 407.309L370.895 407.658L370.796 407.923C370.857 408.007 370.899 408.089 370.923 408.168L370.937 408.254L370.462 408.597L370.712 408.947L369.983 409.473L370.732 410.522L371.112 410.248L371.339 410.565L371.688 410.314L371.96 410.695L372.372 410.398L372.667 410.475C372.688 410.459 372.716 410.455 372.753 410.461C372.789 410.467 372.828 410.454 372.87 410.424L373.234 410.933L373.994 410.384L374.493 411.083L374.873 410.809L375.19 410.917C375.212 410.902 375.24 410.897 375.276 410.903C375.313 410.909 375.352 410.897 375.394 410.867L376.211 412.011L376.591 411.737L377.431 412.913L377.811 412.639L378.651 413.815L378.271 414.089L379.066 415.202L378.935 415.489L379.248 416.13C379.327 416.33 379.397 416.472 379.457 416.557L379.358 416.821C379.434 416.927 379.488 417.048 379.522 417.185C379.555 417.321 379.61 417.443 379.685 417.549L379.555 417.836C379.615 417.92 379.657 418.002 379.682 418.081L379.175 418.447L379.447 418.828L379.067 419.103L379.294 419.421L378.566 419.946L378.861 420.36L378.512 420.611L378.762 420.961L377.622 421.784L377.894 422.165L376.849 422.92L377.099 423.269Z" fill="#BB3A30" fill-opacity="0.7"/>
<path d="M301.836 444.06L298.246 444.999L297.939 444.595L291.175 446.365L291.292 446.819L288.647 447.511L288.38 447.258C288.355 447.265 288.26 447.263 288.096 447.252L287.978 446.798L287.563 446.907L287.2 445.508L287.406 445.212C287.373 445.085 287.369 444.965 287.394 444.851C287.393 444.744 287.376 444.627 287.343 444.501L289.119 444.036L289.012 443.62L301.785 440.278L302.032 440.455C302.058 440.449 302.083 440.442 302.108 440.435C302.14 440.454 302.168 440.46 302.193 440.454L302.416 441.001L302.831 440.892L303.321 442.783L303.133 442.994C303.146 443.044 303.144 443.085 303.125 443.117C303.106 443.149 303.104 443.19 303.117 443.24L301.718 443.606L301.836 444.06Z" fill="#BB3A30" fill-opacity="0.7"/>
</svg>
