<svg width="311" height="309" viewBox="0 0 311 309" fill="none" xmlns="http://www.w3.org/2000/svg">
<path d="M116.531 295.871L112.467 294.741L112.361 294.388C112.035 294.297 111.716 294.181 111.404 294.04C111.091 293.899 110.759 293.78 110.408 293.682L110.33 293.377C109.728 293.209 109.124 293.001 108.517 292.751C107.904 292.527 107.271 292.324 106.618 292.142L106.722 291.766L106.346 291.661L106.584 290.795L106.132 290.669L106.174 290.518L106.667 290.493L108.034 285.522L107.583 285.396L107.624 285.246L107.977 285.141C107.984 285.116 108.003 285.094 108.035 285.076C108.067 285.058 108.09 285.024 108.104 284.974L108.556 285.099L108.67 284.685L109.724 284.978L109.85 285.256C109.9 285.27 109.937 285.28 109.962 285.287C109.956 285.313 109.965 285.329 109.99 285.336L109.71 286.353L110.199 286.489L109.588 288.711L110.002 288.826L109.774 289.654L110.263 289.79L110.389 290.069C110.414 290.076 110.436 290.095 110.454 290.127L110.353 290.789L110.88 290.935L111.006 291.213C111.082 291.234 111.188 291.291 111.324 291.383C111.461 291.475 111.554 291.528 111.605 291.542L111.47 292.032L117.454 293.695L117.578 293.243L118.444 293.484L118.558 293.07L119.423 293.31L119.548 292.858L119.911 292.716C119.925 292.666 119.948 292.632 119.98 292.614C120.012 292.596 120.035 292.561 120.048 292.511L120.575 292.658L120.7 292.206L121.052 292.101C121.087 291.976 121.147 291.857 121.231 291.745C121.284 291.652 121.328 291.542 121.362 291.417L121.677 291.302C121.684 291.277 121.704 291.255 121.736 291.237C121.768 291.219 121.791 291.185 121.805 291.134L122.369 291.291L122.607 290.425L122.923 290.31C122.978 290.109 123.058 289.915 123.164 289.728C123.262 289.567 123.336 289.398 123.384 289.222L123.76 289.327L124.247 287.556L124.6 287.452C124.773 286.824 124.983 286.207 125.231 285.6C125.454 284.986 125.648 284.378 125.814 283.775L126.119 283.698L126.787 281.857L126.373 281.742L127.337 278.239L126.848 278.103L127.324 276.37L126.948 276.266L127.311 274.948L126.897 274.832L126.791 274.479C126.741 274.465 126.648 274.412 126.511 274.32L126.76 273.416L126.383 273.311L126.278 272.958C126.253 272.951 126.197 272.908 126.111 272.83L126.148 272.84C126.13 272.808 126.096 272.785 126.046 272.771L126.18 272.282L125.766 272.167L125.661 271.813C125.536 271.778 125.43 271.722 125.343 271.643C125.225 271.583 125.103 271.536 124.977 271.501L124.899 271.196C124.774 271.161 124.668 271.104 124.581 271.026C124.463 270.966 124.341 270.919 124.215 270.884L124.36 270.357L123.495 270.116L123.458 269.66L118.904 268.394L118.79 268.808L117.925 268.567L117.79 269.057L116.924 268.816L116.821 269.193L116.331 269.057L116.207 269.509L115.831 269.404L115.582 270.308L115.13 270.182L115.027 270.559L114.76 270.647L114.77 270.609C114.676 270.853 114.585 271.085 114.498 271.304C114.418 271.498 114.341 271.679 114.267 271.848C114.194 272.017 114.147 272.139 114.126 272.214L113.637 272.078L113.274 273.396L112.898 273.292L112.773 273.744L112.506 273.831C112.485 273.907 112.436 273.988 112.358 274.074L111.643 273.875L111.757 273.461L110.929 273.231L112.287 268.297L112.639 268.192C112.646 268.167 112.666 268.146 112.698 268.127C112.705 268.102 112.712 268.077 112.718 268.052L113.228 268.113L113.363 267.623L113.754 267.529C113.761 267.504 113.78 267.482 113.812 267.464C113.819 267.439 113.826 267.414 113.833 267.389L114.832 267.586L114.956 267.134L115.272 267.019C115.285 266.968 115.312 266.922 115.351 266.878L116.329 267.15L116.464 266.661L117.367 266.912L117.481 266.498L119.212 266.979L119.337 266.527L121.068 267.008L121.182 266.594L122.988 267.096L122.874 267.511L125.095 268.128L124.97 268.58L126.288 268.946L126.414 269.225C126.539 269.26 126.658 269.32 126.769 269.405C126.856 269.483 126.937 269.532 127.012 269.553L126.867 270.08L127.732 270.321L127.629 270.698L128.08 270.823L128.206 271.102C128.232 271.109 128.257 271.116 128.282 271.123C128.3 271.155 128.322 271.174 128.347 271.181L128.256 271.805L128.708 271.93L128.823 272.246C128.849 272.253 128.877 272.248 128.909 272.23C128.909 272.23 128.922 272.233 128.947 272.24C128.972 272.247 128.984 272.25 128.984 272.25C128.977 272.276 128.987 272.292 129.012 272.299L128.911 272.96L129.287 273.064L129.049 273.931L129.538 274.067L129.664 274.345C129.689 274.352 129.711 274.372 129.729 274.404C129.747 274.436 129.781 274.459 129.832 274.473L129.676 275.038L130.165 275.174L129.813 276.454L130.227 276.569L129.968 277.511L130.42 277.637L130.078 278.879L130.492 278.995L129.88 281.217L130.332 281.342L128.882 286.615L128.43 286.49L127.953 288.222L127.539 288.107L127.177 289.425L126.725 289.3L126.363 290.618L126.095 290.706C126.068 290.806 126.008 290.925 125.916 291.061C125.818 291.223 125.758 291.342 125.738 291.417L125.211 291.271L124.972 292.137L124.705 292.225C124.698 292.25 124.688 292.288 124.674 292.338C124.653 292.413 124.624 292.472 124.585 292.516L123.982 292.348L123.755 293.177L123.378 293.072L123.254 293.524L122.765 293.388L122.64 293.84L122.373 293.928C122.359 293.978 122.333 294.025 122.294 294.068C122.255 294.111 122.229 294.158 122.215 294.208L121.65 294.051L121.547 294.428L121.133 294.313L120.998 294.802L120.731 294.89C120.703 294.991 120.666 295.075 120.621 295.143L119.642 294.871L119.518 295.323L119.029 295.187L118.925 295.564L118.059 295.323L117.935 295.775L116.655 295.419L116.531 295.871Z" fill="#BB3A30" fill-opacity="0.7"/>
<path d="M94.5666 261.092L94.1526 260.872L92.0629 264.849L92.4769 265.069L92.4658 265.594L98.6064 268.855L98.8245 268.44L100.066 269.1L100.284 268.685L101.078 269.107L101.296 268.692L102.089 269.113L102.326 268.664L102.692 268.637C102.717 268.591 102.752 268.551 102.8 268.517L103.248 268.755L103.702 267.891L104.086 267.918L105.368 265.812L104.92 265.574L105.356 264.744L104.597 264.341L104.797 263.961L104.003 263.539L103.976 263.171C103.631 262.988 103.287 262.776 102.943 262.534C102.577 262.28 102.198 262.049 101.807 261.842L101.796 261.526L100.868 260.857L100.668 261.237L98.6329 260.156L98.4148 260.571L97.5869 260.131L97.387 260.511L96.628 260.108L96.41 260.523L95.582 260.084L95.364 260.498L94.9845 260.297L94.5666 261.092ZM92.1641 277.42L87.7829 275.093L87.173 274.238L86.6555 273.963L86.8554 273.583L86.0619 273.161L86.0511 272.846C85.9821 272.809 85.8908 272.731 85.777 272.612L86.0496 272.093L85.6701 271.892L85.6593 271.576C85.5673 271.527 85.4929 271.473 85.436 271.413L85.367 271.377L85.8394 270.478L85.4945 270.295L87.4751 266.525L87.8201 266.709L92.6537 257.511L90.3768 256.301L90.1769 256.682L89.6595 256.407L89.8594 256.026L89.4799 255.825L89.4528 255.457C89.4298 255.444 89.3614 255.379 89.2476 255.259L89.5565 254.671L89.9234 254.645C89.9355 254.622 89.9591 254.605 89.9942 254.594C90.0063 254.571 90.0184 254.548 90.0306 254.525L91.8263 255.391L92.0262 255.01L93.1991 255.633L93.4353 255.184L95.5052 256.283L95.269 256.733L95.7519 256.989L95.8154 257.288C95.8844 257.325 95.9758 257.403 96.0895 257.522C96.2033 257.642 96.2832 257.714 96.3292 257.738L96.093 258.188L97.6109 258.994L97.8289 258.579L99.0018 259.202L99.2017 258.822L100.892 259.719L101.128 259.27L105.993 261.854L105.756 262.303L106.55 262.725L106.648 263.042C106.763 263.103 106.866 263.187 106.956 263.294C107.024 263.389 107.093 263.455 107.162 263.492L106.925 263.941L107.753 264.381L107.553 264.762L108.002 265L107.566 265.83L107.911 266.013L107.511 266.774L107.925 266.994L106.78 269.172L106.366 268.952L105.966 269.713L105.621 269.53L105.185 270.359L104.737 270.121L104.501 270.571L104.221 270.599C104.172 270.691 104.119 270.766 104.059 270.823L103.128 270.328L102.91 270.743L102.082 270.303L101.882 270.684L101.088 270.262L100.87 270.677L99.6629 270.036L99.4449 270.451L97.8235 269.589L97.6054 270.004L92.7757 267.439L92.594 267.785L91.3866 267.143L91.1504 267.593L90.7364 267.373L90.5365 267.753L90.0843 267.69L88.0673 271.528L88.4813 271.748L88.5448 272.047C88.5678 272.06 88.5908 272.072 88.6138 272.084C88.6246 272.119 88.6416 272.143 88.6646 272.155L88.4247 272.78L88.8386 273L88.9021 273.299C88.9941 273.348 89.0855 273.426 89.1762 273.533C89.267 273.64 89.3699 273.724 89.4849 273.785L89.3866 274.308L93.1814 276.324L93.3995 275.909L94.1929 276.33L94.3928 275.95L95.1862 276.371L95.4406 275.887L95.773 275.843C95.7851 275.82 95.8087 275.803 95.8438 275.792C95.8789 275.781 95.9086 275.752 95.9328 275.706L96.4503 275.981L97.0863 274.771L97.4313 274.954L97.6857 274.47L98.087 274.462C98.1112 274.416 98.193 274.4 98.3322 274.415C98.4593 274.453 98.6094 274.504 98.7825 274.566C98.9435 274.652 99.1045 274.737 99.2655 274.823C99.4035 274.896 99.5185 274.957 99.6105 275.006L99.3924 275.421L99.7719 275.622L99.8335 276.009C99.8565 276.021 99.8856 276.022 99.9207 276.011C99.9207 276.011 99.9322 276.017 99.9552 276.029C99.9782 276.042 99.9709 276.111 99.9333 276.239C99.8836 276.39 99.8279 276.552 99.7661 276.725C99.6692 276.91 99.5783 277.082 99.4935 277.244C99.3966 277.428 99.33 277.555 99.2936 277.624L98.8451 277.386L98.4272 278.181L97.6338 277.76L97.4339 278.14L96.6404 277.719L96.4042 278.168L95.6107 277.747L95.4109 278.127L94.6174 277.706L94.4175 278.086L92.3821 277.005L92.1641 277.42ZM95.0123 269.733L94.9725 269.137L95.1906 268.722L95.4666 268.868L95.0123 269.733Z" fill="#BB3A30" fill-opacity="0.7"/>
<path d="M58.3717 266.512L56.2295 264.69L56.4811 264.391L52.6133 261.1L52.6909 260.705C52.6711 260.688 52.6184 260.609 52.533 260.468L53.841 258.914L54.5848 259.546L54.8866 259.188L55.2504 259.241C55.284 259.201 55.3968 259.229 55.5891 259.324C55.7645 259.439 55.9697 259.579 56.2046 259.745C56.4228 259.931 56.641 260.116 56.8592 260.302C57.0575 260.471 57.2063 260.597 57.3055 260.682L57.0036 261.04L58.759 262.534L58.6013 262.964L61.8443 265.723L62.121 265.394L62.8648 266.027L63.1666 265.668L63.4642 265.921L63.766 265.563L64.1596 265.641C64.2434 265.541 64.3387 265.468 64.4454 265.423C64.5324 265.36 64.6177 265.278 64.7016 265.179L65.0586 265.483L68.5299 261.358L68.2026 261.08L68.4793 260.751L68.0925 260.422L68.2456 259.937L62.2357 254.824L61.9339 255.183L61.1603 254.525L61.2128 254.159C61.1136 254.075 61.0411 253.979 60.9953 253.871C60.9129 253.767 60.8221 253.673 60.723 253.588L61.4021 252.781L61.7957 252.86C61.8124 252.84 61.8391 252.828 61.8757 252.825C61.8925 252.805 61.9093 252.785 61.926 252.766L69.0276 258.705L69.3294 258.346L70.0137 258.928L79.0944 248.14L78.7076 247.811L79.2862 247.123L78.9887 246.87L79.0457 246.56C78.4309 246.036 77.8328 245.493 77.2514 244.93C76.6701 244.368 76.0621 243.816 75.4274 243.276L75.505 242.881L74.0882 241.47L73.7612 241.859L73.7017 241.808L73.7794 241.412C73.7 241.345 73.6374 241.258 73.5916 241.15C73.5092 241.046 73.4185 240.952 73.3193 240.867L73.9984 240.06L74.296 240.313L74.5727 239.985L87.2173 250.742L87.2151 251.048C87.2548 251.082 87.2846 251.107 87.3044 251.124C87.2876 251.144 87.2892 251.162 87.309 251.179L86.8059 251.777L86.5084 251.524L86.2569 251.823L85.5428 251.215L85.2158 251.604L82.8059 249.553L82.5292 249.882L81.8151 249.275L81.4881 249.663L81.1311 249.359L72.1007 260.088L72.4577 260.392L72.1559 260.751L72.8997 261.383L72.8975 261.689C73.2347 261.976 73.5734 262.281 73.9137 262.605C74.2341 262.912 74.5973 263.289 75.0032 263.737L74.6762 264.126L75.0034 264.404L74.3746 265.151L73.6903 264.569L73.3884 264.928L70.9785 262.877L70.7018 263.206L70.4227 263.174C70.0537 263.612 69.6467 264.035 69.2015 264.443C68.7563 264.85 68.3492 265.273 67.9803 265.712L67.6233 265.408L66.4158 266.842L66.1183 266.589L65.5649 267.247L65.1782 266.918L64.5745 267.635L64.2953 267.603C64.2786 267.623 64.2534 267.652 64.2199 267.692C64.1696 267.752 64.1177 267.793 64.0643 267.816L63.5586 267.386L63.2567 267.745L62.9592 267.492L62.7076 267.791L61.9936 267.183L61.6666 267.572L61.3096 267.268L61.0329 267.597L60.3486 267.014L60.0216 267.403L58.6232 266.213L58.3717 266.512ZM75.6735 240.921L76.3275 240.144L76.3781 240.751L76.0008 241.2L75.6735 240.921ZM75.7267 265.122L74.9877 265.211L75.1387 265.032L74.7519 264.703L74.9531 264.464L75.7267 265.122ZM62.8391 253.44L63.4407 253.028L63.5002 253.079L63.0474 253.617L62.8391 253.44ZM52.3085 259.764L52.3588 259.704L52.86 260.079L52.6587 260.318L52.3085 259.764Z" fill="#BB3A30" fill-opacity="0.7"/>
<path d="M48.5771 240.71L48.2064 240.997L44.7154 236.438L44.8913 236.153C44.8121 236.05 44.7615 235.941 44.7393 235.826C44.6966 235.728 44.6198 235.606 44.509 235.461L44.6849 235.177C44.6057 235.074 44.5551 234.965 44.5329 234.85C44.4744 234.731 44.3976 234.609 44.3026 234.485L44.6733 234.198L44.3646 233.795L44.5405 233.51C44.493 233.448 44.4502 233.35 44.4123 233.215C44.3743 233.079 44.3078 232.95 44.2128 232.826L44.5835 232.539L44.3223 232.198L44.4435 231.906C44.4277 231.885 44.404 231.854 44.3723 231.813C44.3406 231.772 44.3193 231.722 44.3082 231.665L44.7716 231.306L44.4628 230.903L45.2042 230.329L44.943 229.988L45.1189 229.704C45.0556 229.621 44.997 229.502 44.9432 229.346L45.7464 228.724L45.4851 228.383L46.5354 227.57L46.2505 227.198L48.66 225.333L49.0044 225.462C49.0662 225.414 49.1256 225.385 49.1826 225.373L50.085 226.552L50.4557 226.265L57.6751 235.694L58.0458 235.407L59.4469 237.236L59.8176 236.95L60.0551 237.26L61.6306 236.04L61.3931 235.73L62.1345 235.156L61.8258 234.753L62.5672 234.179L62.3297 233.869L62.4509 233.578C62.4034 233.516 62.3741 233.456 62.3631 233.399C62.3362 233.321 62.3069 233.261 62.2752 233.22L62.7077 232.885L62.4702 232.575L62.6461 232.291C62.5669 232.187 62.5084 232.068 62.4704 231.933C62.396 231.793 62.3192 231.671 62.2401 231.568L62.6417 231.257L62.0717 230.513L62.4115 230.25L61.3191 228.823L61.6186 228.443L59.0538 225.093L58.6831 225.38L57.0207 223.209L56.6809 223.472L55.8497 222.387L55.479 222.674L54.6716 221.619L54.3009 221.906L53.5647 220.945L53.7406 220.66C53.6931 220.598 53.6425 220.489 53.5887 220.333L54.2065 219.855L54.5818 219.96C54.623 219.928 54.6618 219.914 54.6982 219.919C54.7347 219.924 54.7735 219.91 54.8147 219.878L55.1471 220.313L55.5178 220.026L56.064 220.739L56.4038 220.476L56.9738 221.22L57.3445 220.933L58.4606 222.391L58.8004 222.128L59.8929 223.555L60.2944 223.244L61.6718 225.043L62.0116 224.78L64.3864 227.881L64.3436 228.211L64.7733 228.965C64.8319 229.084 64.9008 229.196 64.9799 229.299C65.0385 229.418 65.1074 229.53 65.1865 229.633L64.7849 229.944L65.5924 230.998L65.5258 231.297C65.5891 231.38 65.6397 231.489 65.6777 231.624C65.6999 231.738 65.7505 231.847 65.8297 231.951L65.4281 232.262L65.7368 232.665L65.397 232.928L65.6582 233.269L65.2875 233.556L65.81 234.238L65.7434 234.537C65.8225 234.64 65.8574 234.728 65.8478 234.802L65.0447 235.423L65.3534 235.826L64.9518 236.137L65.213 236.478L64.4407 237.076L64.7495 237.479L62.9578 238.866L63.1952 239.176L60.4768 241.28L60.2393 240.97L58.4476 242.357L58.1389 241.953L57.4902 242.456L57.1933 242.389C57.0903 242.469 56.9818 242.52 56.8677 242.542C56.7331 242.58 56.604 242.647 56.4804 242.743L56.148 242.309L55.4375 242.859L55.1714 242.768C55.1302 242.8 55.0914 242.814 55.055 242.809C54.998 242.82 54.9283 242.858 54.8459 242.921L54.4897 242.456L54.119 242.743L53.8578 242.402L53.1473 242.952L52.8812 242.861C52.84 242.893 52.7418 242.936 52.5866 242.991L52.2066 242.494L51.8668 242.757L51.3444 242.075L50.9428 242.386L50.3728 241.642L50.033 241.905L49.4868 241.191L49.147 241.454L48.5771 240.71ZM49.4215 229.091L48.711 229.641L48.4497 229.299L47.5539 229.993L47.8151 230.334L47.1355 230.86L47.4205 231.232L47.2921 231.578C47.3554 231.661 47.3823 231.739 47.3728 231.812L46.9094 232.171L47.2182 232.574L46.5077 233.124L47.0301 233.806L46.9635 234.105C47.0427 234.208 47.0775 234.297 47.068 234.37L46.5737 234.752L47.4049 235.838L47.3383 236.136C47.7135 236.669 48.1124 237.233 48.5351 237.828C48.9214 238.418 49.3022 238.98 49.6774 239.512L50.0172 239.249L50.5871 239.994L50.9887 239.683L51.3331 239.812C51.3743 239.78 51.4131 239.766 51.4496 239.771C51.486 239.776 51.5248 239.762 51.566 239.73L51.8985 240.164L52.2692 239.877L52.6445 239.982C52.7063 239.934 52.7657 239.905 52.8227 239.894L53.1314 240.297L53.5021 240.01L53.9558 240.153C53.9764 240.137 54.0152 240.123 54.0722 240.112C54.0928 240.096 54.1237 240.072 54.1649 240.04L54.4736 240.443L55.1533 239.917L55.6473 240.177L57.7788 238.528L52.9105 232.17L52.6016 232.409L50.108 229.152L49.7065 229.463L49.4215 229.091ZM44.0934 243.143L44.0196 243.496L43.965 243.489L42.086 242.77L42.0053 242.536L38.3377 240.83C38.3329 240.867 38.3155 240.93 38.2854 241.019C38.2394 241.087 38.2062 241.13 38.1856 241.146L36.9408 240.676L37.093 240.361L36.8269 240.271L36.9244 239.948L36.6584 239.858L37.1909 238.754L37.4094 238.783L37.6139 238.279L38.4833 238.643L38.6734 238.249L45.4553 241.002L45.4244 241.026L45.479 241.033L45.2794 241.286C45.3887 241.3 45.4671 241.339 45.5146 241.401L45.4171 241.723L45.6594 241.782L45.1078 243.247L44.8583 243.242C44.844 243.352 44.8163 243.423 44.7751 243.455L44.0934 243.143ZM45.5694 240.765L45.4553 241.002L45.479 241.033C45.5519 241.042 45.6121 241.078 45.6596 241.14L45.5146 241.401C45.6238 241.415 45.7022 241.453 45.7497 241.515C45.7387 241.458 45.7355 241.411 45.7403 241.374C45.7292 241.317 45.7181 241.26 45.7071 241.202L45.5694 240.765ZM36.5371 240.149L36.6582 240.5L36.6819 240.531L36.8269 240.271L36.5371 240.149ZM44.1693 243.627L44.0196 243.496L43.965 243.489L43.7891 243.773L44.1693 243.627ZM36.7721 240.906L36.9408 240.676L36.8862 240.669L36.9171 240.645L36.7057 240.562L36.7721 240.906ZM36.9723 238.726L37.16 238.778C37.1806 238.762 37.1956 238.718 37.2051 238.644C37.164 238.676 37.1251 238.69 37.0887 238.685C37.0317 238.696 36.9929 238.71 36.9723 238.726ZM45.0388 243.349L45.3263 243.275L45.0769 243.271C45.0563 243.287 45.0539 243.305 45.0697 243.326C45.0697 243.326 45.0594 243.333 45.0388 243.349ZM36.7057 240.562L36.651 240.555L36.7057 240.562Z" fill="#BB3A30" fill-opacity="0.7"/>
<path d="M17.0293 198.733L17.3562 198.443L14.8539 189.044L14.4013 189.166L12.6326 182.522L12.8841 182.252C12.8506 182.126 12.849 182.019 12.8792 181.93C12.8775 181.823 12.8599 181.706 12.8264 181.58L13.694 181.347L13.5835 180.931L16.7897 180.069L17.0487 180.282C17.5265 180.154 18.011 180.05 18.5021 179.972C18.9933 179.894 19.4904 179.787 19.9934 179.652L20.2624 179.903C20.2875 179.896 20.316 179.902 20.3478 179.92C20.3797 179.939 20.4208 179.941 20.4711 179.927L20.6419 180.569L20.4658 180.819C20.4725 180.844 20.4792 180.869 20.4859 180.894C20.4675 180.926 20.4616 180.955 20.4683 180.98L19.8849 181.218L19.9854 181.595L16.93 182.418L17.0506 182.871L16.8845 183.158C16.8979 183.208 16.8954 183.249 16.877 183.281C16.8585 183.313 16.856 183.354 16.8694 183.405L16.2659 183.567L16.6176 184.888L16.4415 185.138L16.4315 185.1L16.5369 185.8C16.5587 185.983 16.5804 186.166 16.6022 186.349C16.6239 186.532 16.6415 186.648 16.6549 186.699L16.2022 186.82L17.378 191.237L16.9631 191.349L17.8675 194.746L18.2825 194.634L18.5036 195.465L28.4618 192.785L28.2407 191.954L28.6431 191.644L27.6583 187.945L27.2056 188.066L26.7434 186.33L25.0082 186.797L24.8876 186.344L23.5674 186.699L23.3061 185.718L23.53 185.496C23.5032 185.395 23.4956 185.316 23.5074 185.259L32.0323 182.965L32.3036 183.984L32.1275 184.234C32.1409 184.284 32.151 184.322 32.1577 184.347C32.1325 184.354 32.1233 184.37 32.13 184.395L30.6212 184.801L30.7418 185.254L29.4593 185.599L29.5698 186.014L29.0794 186.146L29.5618 187.958L29.1846 188.06L30.089 191.457L30.4662 191.356L30.5667 191.733L31.0948 191.591L31.3638 191.842C31.7159 191.747 32.1124 191.668 32.5533 191.603C32.9942 191.538 33.4032 191.455 33.7804 191.354L34.0771 191.557L36.466 191.116L38.1634 190.66L38.0429 190.207L40.6833 189.496L40.5627 189.043L40.8142 188.773C40.7941 188.698 40.79 188.631 40.8017 188.574L41.2921 188.442L40.9303 187.083L41.2195 186.803C41.119 186.426 41.0403 186.029 40.9834 185.613C40.9265 185.197 40.8411 184.775 40.7273 184.347L40.9511 184.125C40.9377 184.075 40.9361 183.967 40.9461 183.803L41.5497 183.64L41.8187 183.891C41.8941 183.871 41.9603 183.867 42.0173 183.878L42.2234 184.349L42.6383 184.237L45.3617 194.467L45.1856 194.716C45.2124 194.817 45.2174 194.937 45.2006 195.077C45.1772 195.191 45.1788 195.298 45.2056 195.399L44.1871 195.673L44.0565 195.182L43.6416 195.294L43.4205 194.463L42.9301 194.595L42.3473 192.406L41.5174 192.629L41.3968 192.176L34.3808 194.064L34.2803 193.687L31.7907 194.357L31.8912 194.734L29.1753 195.465L29.0748 195.088L26.1326 195.879L26.2331 196.257L19.6697 198.023L19.7903 198.476L19.3377 198.598L19.7999 200.334L19.385 200.446L19.7066 201.654L20.1215 201.542L20.1894 201.645L19.7267 201.729L19.9679 202.635L18.5722 203.011L17.4065 198.632L17.0293 198.733ZM36.2047 190.135L36.7025 190.486L36.8432 191.015L36.466 191.116L36.2047 190.135ZM19.6633 203.769L19.241 203.397L19.1003 202.869L19.402 202.787L19.6633 203.769ZM22.7075 186.203L22.8459 185.963L23.3363 185.831L23.4267 186.171L22.7075 186.203ZM32.8921 183.462L32.9323 183.613L32.7437 183.664L32.2533 183.796L32.1629 183.456L32.8921 183.462Z" fill="#BB3A30" fill-opacity="0.7"/>
<path d="M10.9296 170.346L10.5001 170.357L10.3958 166.374L10.8212 166.206L10.7394 163.082L10.7026 161.677L11.9522 161.644L12.1546 161.912C12.2067 161.91 12.246 161.922 12.2728 161.948C12.2995 161.973 12.3389 161.985 12.3909 161.984L12.4421 163.936L12.9106 163.924L13.1141 164.231C13.3223 164.225 13.5313 164.246 13.7409 164.292C13.9245 164.34 14.1204 164.361 14.3287 164.355L14.5311 164.623C16.1718 164.606 17.904 164.599 19.7276 164.603C21.5246 164.581 23.2304 164.562 24.8451 164.546L24.8328 164.077L35.1417 163.804L35.1304 163.375L35.4768 163.17C35.4761 163.144 35.4997 163.052 35.5477 162.895L36.0553 162.881L36.0421 162.374L36.5497 162.36L36.5395 161.97L36.8087 161.806C36.8053 161.676 36.8279 161.545 36.8766 161.414C36.8985 161.257 36.9078 161.113 36.9044 160.983L37.4511 160.969L37.4276 160.071L37.853 159.903L37.7395 155.569L37.31 155.58L37.2609 153.706L36.7532 153.719L36.7297 152.821L36.3002 152.832L36.2879 152.364L35.8193 152.376L35.657 152.146C35.6049 152.147 35.5001 152.124 35.3426 152.076L35.3252 151.412L34.4271 151.436L34.2647 151.206C33.5619 151.224 32.8713 151.217 32.1931 151.182C31.4882 151.123 30.7973 151.102 30.1204 151.12L30.1082 150.652L29.0148 150.68L29.0271 151.149L13.9933 151.547L14.0045 151.977L12.5988 152.014L12.6243 152.99L12.1557 153.002L12.1905 154.33L11.9613 154.531C11.962 154.558 11.9634 154.61 11.9654 154.688C11.9668 154.74 11.9421 154.792 11.8914 154.846L11.2276 154.864L11.2409 155.371L11.0066 155.377L10.9933 154.87L10.5247 154.882L10.31 146.682L10.6193 146.556C10.6179 146.504 10.6412 146.399 10.6892 146.242L11.9778 146.208L12.0013 147.106L12.4699 147.094L12.5057 148.46L13.4819 148.434L13.6854 148.742C14.0512 148.784 14.3646 148.815 14.6256 148.834C14.8606 148.854 15.1082 148.86 15.3686 148.853L15.3818 149.361L33.6957 148.876L33.8981 149.144C34.0804 149.14 34.2633 149.161 34.4469 149.208C34.6305 149.255 34.8264 149.276 35.0347 149.271L35.2771 149.577C35.4333 149.573 35.5642 149.595 35.6697 149.645C35.7484 149.669 35.8659 149.679 36.0221 149.674L36.0354 150.182L36.9726 150.157L36.9859 150.665L37.4935 150.651L37.6959 150.92C37.748 150.918 37.7874 150.93 37.8141 150.956C37.8408 150.981 37.8802 150.993 37.9323 150.992L37.9588 152.007L38.4665 151.993L38.4798 152.501L38.9093 152.49L38.9451 153.856L39.3746 153.845L39.3992 154.782L39.9068 154.769L40.0868 161.641L39.5791 161.655L39.6027 162.553L39.3735 162.754C39.3769 162.885 39.3543 163.015 39.3056 163.147C39.2563 163.252 39.2333 163.37 39.2367 163.5L38.9685 163.703C38.9719 163.833 38.9493 163.964 38.9006 164.095C38.852 164.227 38.8293 164.358 38.8327 164.488L38.2861 164.503L38.2973 164.932L38.0681 165.133C38.0715 165.264 38.0479 165.355 37.9972 165.409L36.9038 165.438L36.9181 165.985L36.02 166.008L36.0313 166.438L34.5864 166.476L34.5987 166.945L13.4733 167.504L13.4846 167.933L13.2173 168.175C13.2201 168.279 13.1961 168.358 13.1454 168.411L12.5596 168.427L12.6077 170.262L12.3785 170.464C12.3813 170.568 12.3583 170.685 12.3096 170.817C12.261 170.949 12.2387 171.092 12.2428 171.249L10.9542 171.283L10.9296 170.346ZM10.0746 163.061L10.7384 163.043L10.7343 162.887L10.3017 162.781L10.0746 163.061ZM10.9586 161.006L10.9729 161.552L11.0109 161.512C11.0096 161.46 11.0329 161.355 11.0808 161.198L11.1589 161.196L10.9586 161.006Z" fill="#BB3A30" fill-opacity="0.7"/>
<path d="M13.5666 126.851L14.6143 121.882L14.9602 121.756C15.03 121.424 15.1254 121.099 15.2461 120.778C15.3669 120.458 15.4649 120.119 15.5401 119.762L15.8398 119.667C15.9687 119.055 16.1386 118.439 16.3493 117.818C16.5346 117.192 16.697 116.548 16.8367 115.885L17.2188 115.966L17.3074 115.546L18.1861 115.733L18.2828 115.275L19.3143 115.494L19.4409 115.841C20.1031 115.982 20.8109 116.16 21.5642 116.373C22.2921 116.582 22.9999 116.759 23.6876 116.906L23.8222 117.214C23.8986 117.23 23.9951 117.277 24.1117 117.356C24.2082 117.403 24.3074 117.437 24.4093 117.459L24.095 118.95L23.2545 118.77L23.1739 119.153L20.958 118.68L20.8533 119.177L19.9363 118.982L19.8477 119.402L18.969 119.215L18.8803 119.636L18.4219 119.538L18.3252 119.997L18.0476 120.177C18.0207 120.304 17.9684 120.426 17.8906 120.543C17.8182 120.634 17.7739 120.718 17.7578 120.794L17.2611 120.688L17.0677 121.606L16.6475 121.516L15.5595 126.676L15.9798 126.766L15.7944 127.645L16.2529 127.743L15.9708 129.08L16.4293 129.178L16.5639 129.486C16.6148 129.497 16.6476 129.531 16.6624 129.587C16.6825 129.618 16.718 129.639 16.7689 129.65L16.6561 130.185L17.1145 130.283L17.034 130.665L17.4924 130.763L17.619 131.109C17.6444 131.114 17.6672 131.133 17.6873 131.164C17.7074 131.194 17.7429 131.215 17.7939 131.226L17.681 131.761L18.6362 131.965L18.7627 132.311C18.8391 132.328 18.9356 132.375 19.0522 132.453C19.1487 132.5 19.2479 132.535 19.3498 132.556L19.2531 133.015L20.2464 133.227L20.3649 133.611C20.4413 133.628 20.5378 133.675 20.6544 133.753C20.7509 133.8 20.8501 133.835 20.952 133.856L21.1248 134.173C21.4559 134.243 21.7817 134.339 22.102 134.461C22.3969 134.577 22.7354 134.676 23.1174 134.757L23.1816 135.21L30.4023 136.749L30.4909 136.328L32.7068 136.801L32.7874 136.418L34.1245 136.703L34.2293 136.207L34.5289 136.111C34.5343 136.085 34.5786 136.001 34.6618 135.859L35.6551 136.071L35.7518 135.612L36.5923 135.792L36.689 135.333L37.0349 135.207C37.0618 135.08 37.1088 134.983 37.1758 134.917C37.2482 134.826 37.2979 134.717 37.3248 134.59L37.7832 134.687L37.8799 134.229L38.2258 134.103C38.2312 134.077 38.2755 133.994 38.3587 133.852L38.8171 133.949L39.0992 132.611L39.4833 132.494C39.5048 132.392 39.5518 132.295 39.6242 132.204C39.6765 132.082 39.7161 131.957 39.743 131.83L40.2014 131.928L41.2088 127.15L40.7886 127.06L40.9739 126.181L40.4772 126.075L40.6626 125.196L40.2806 125.115L40.4659 124.236L40.0075 124.138L39.9433 123.685L34.9003 122.61L34.8116 123.031L34.315 122.925L34.2183 123.384L33.8362 123.302L33.0868 126.857L32.6283 126.759L32.5477 127.141L31.5162 126.922L31.7015 126.042L31.3195 125.961L33.1005 117.514L33.4826 117.595L33.5712 117.175L34.6409 117.403L34.7755 117.711C34.801 117.717 34.8238 117.735 34.8439 117.766C34.8694 117.771 34.8948 117.776 34.9203 117.782L34.7872 118.792L35.1692 118.873L34.9839 119.753L41.7079 121.185L41.8344 121.532C41.8599 121.537 41.8827 121.556 41.9028 121.586C41.9282 121.592 41.9537 121.597 41.9792 121.603L41.5721 123.912L41.9923 124.002L41.807 124.881L42.189 124.962L41.9956 125.88L42.4922 125.986L42.3069 126.865L42.7271 126.954L42.4612 128.216L42.9196 128.313L42.6295 129.689L43.0498 129.779L42.7435 131.231L42.3233 131.142L41.7672 133.779L41.3088 133.681L41.1234 134.561L40.8458 134.741C40.8029 134.945 40.7371 135.131 40.6485 135.298C40.5345 135.46 40.4614 135.618 40.4292 135.771L39.9325 135.665L39.7391 136.582L39.357 136.501L39.2523 136.997L38.9828 137.14C38.972 137.191 38.964 137.229 38.9586 137.254C38.9331 137.249 38.9177 137.259 38.9123 137.284L38.301 137.154L38.1963 137.651L37.8886 137.785C37.8832 137.811 37.8778 137.836 37.8724 137.862C37.8416 137.882 37.8235 137.904 37.8181 137.93L37.1907 137.876L37.1101 138.258L36.7281 138.177L36.6233 138.674L35.7064 138.478L35.6178 138.899L34.7773 138.72L34.6806 139.178L34.1839 139.073L34.1033 139.455L33.2246 139.268L33.1198 139.764L31.3624 139.39L31.2738 139.81L28.141 139.143L28.0443 139.601L24.4531 138.836L24.5498 138.377L21.9137 137.816L21.771 137.545C21.6383 137.544 21.3508 137.456 20.9084 137.282C20.4661 137.108 20.0794 136.985 19.7483 136.915L19.853 136.418L19.0507 136.247L19.1313 135.865L18.1762 135.661L18.2729 135.202L17.356 135.007L17.2515 134.745C17.1497 134.723 17.0404 134.673 16.9238 134.595C16.7817 134.512 16.6725 134.462 16.5961 134.446L16.7089 133.911L16.2505 133.813L16.331 133.431L15.8726 133.333L15.9693 132.874L15.5108 132.777L15.4064 132.515C15.3809 132.509 15.3581 132.491 15.338 132.46C15.2925 132.424 15.2469 132.387 15.2013 132.351L15.3061 131.854L14.8094 131.748L14.9948 130.869L14.5745 130.78L14.6793 130.283L14.2209 130.185L14.4062 129.306L14.0242 129.225L14.2095 128.345L13.7511 128.248L14.0251 126.948L13.5666 126.851ZM24.2803 118.071L24.9277 118.408L24.9116 118.485L24.2239 118.338L24.2803 118.071Z" fill="#BB3A30" fill-opacity="0.7"/>
<path d="M20.145 103.079L24.8069 93.228L25.1724 93.1863C25.2281 93.0686 25.3017 92.9739 25.3932 92.9022C25.4724 92.7958 25.5455 92.6719 25.6123 92.5307L26.5637 92.9858L26.5728 93.4231C26.5963 93.4344 26.6142 93.4574 26.6266 93.4922C26.6501 93.5034 26.6736 93.5146 26.6971 93.5259L26.3331 94.4776L26.7207 94.663L25.7516 96.7109L26.1744 96.9132L26.0074 97.2663L26.4302 97.4685L26.4059 97.9765L28.9783 99.207L29.1788 98.7833L29.6722 99.0193L29.7147 99.386L31.445 100.387L31.6455 99.9632L32.5617 100.401L32.5374 100.909L46.1042 107.399L46.3047 106.975L47.08 107.346L47.4643 106.534L48.0059 106.577L50.3954 101.528L49.9373 101.308L51.4578 98.0954L51.1054 97.9269L51.6903 96.6911L51.2674 96.4888L51.6684 95.6414L49.6246 94.6637L49.7917 94.3107L47.325 93.1307L47.5255 92.707L47.1379 92.5216L47.7561 91.2152L48.1438 91.4006L48.361 90.9416L54.1049 93.6892L54.2887 93.3008L54.8172 93.5536L54.8765 93.8851C55.0644 93.975 55.2295 94.0828 55.3716 94.2085C55.4903 94.323 55.6319 94.4196 55.7963 94.4983L55.3953 95.3457L55.8181 95.5479L54.8156 97.6664L54.3927 97.4642L46.4558 114.236L46.1608 114.311C46.1162 114.405 46.0426 114.5 45.9399 114.595C45.8484 114.667 45.7803 114.75 45.7358 114.844L44.7843 114.389L45.0016 113.93L44.6139 113.744L44.781 113.391L44.3229 113.172L45.4926 110.7L45.1402 110.532L45.3073 110.179L28.1461 101.97L28.3467 101.546L25.1752 100.029L24.958 100.488L24.663 100.564C24.6407 100.611 24.624 100.646 24.6129 100.67C24.5894 100.658 24.5721 100.664 24.5609 100.688L23.9971 100.418L22.2593 104.09L21.8717 103.905L21.4874 104.717L20.1836 104.093L20.5679 103.281L20.145 103.079ZM44.7321 115.23L44.7062 114.828L44.8901 114.439L45.2072 114.591L44.7321 115.23ZM26.5677 92.3382L26.6382 92.3719L26.4228 92.9184L26.1409 92.7835L26.5677 92.3382Z" fill="#BB3A30" fill-opacity="0.7"/>
<path d="M36.7544 72.8732L49.5231 56.9755L49.8332 57.026C49.8658 56.9854 49.935 56.9409 50.0407 56.8925L50.0162 56.9229C50.0527 56.9191 50.0873 56.8968 50.1199 56.8562L51.1813 57.7179L51.4749 57.3524L52.2937 58.0172L52.2496 58.3839C52.5125 58.5973 52.7691 58.8392 53.0195 59.1096C53.2498 59.3636 53.5064 59.6055 53.7894 59.8353L53.7454 60.202C53.8869 60.3169 54.002 60.4439 54.0907 60.583C54.1794 60.7221 54.3046 60.8573 54.4664 60.9886L54.2218 61.2931L54.616 61.6132L53.9556 62.4355L53.258 61.8692L52.9645 62.2347L51.2056 60.8067L50.9365 61.1417L50.2086 60.5508L49.6216 61.2818L49.3173 61.2863L48.3457 62.3089C48.244 62.394 48.1197 62.5279 47.9729 62.7106C47.8223 62.8566 47.7062 62.9804 47.6246 63.0819L47.2607 62.7865L42.5152 68.6948L42.9095 69.0149L42.8654 69.3816C43.5528 69.9397 44.2543 70.5427 44.9697 71.1906C45.6649 71.8221 46.3866 72.4415 47.1347 73.0488L47.1209 73.4401L48.5394 74.793L48.833 74.4275L49.8944 75.2892L50.1879 74.9238L50.6194 75.0728L54.1173 70.7176L53.3895 70.1268L53.683 69.7613L53.0158 69.2196L53.0657 68.908C52.9888 68.879 52.8737 68.752 52.7204 68.527C52.5469 68.2855 52.3894 68.1074 52.2479 67.9925L52.5414 67.627L52.2078 67.3562L52.2812 67.2648L52.5914 67.3153C52.6566 67.2341 52.7156 67.1814 52.7684 67.1572L59.592 72.6968L59.274 73.0927L58.9101 72.7973L58.6165 73.1627L57.919 72.5965L57.6255 72.9619L56.928 72.3957L56.6344 72.7611L55.9066 72.1702L55.662 72.4748L55.3587 72.2286L54.5026 73.2945L54.1387 72.9991L51.6436 76.1055L52.3108 76.6472L52.2971 77.0386C52.3577 77.0878 52.4001 77.139 52.4243 77.1921L52.118 77.6982L59.7604 83.9025L60.0539 83.537L60.7211 84.0787L61.0146 83.7132L61.5312 83.881L67.0105 77.059L66.6162 76.7389L67.7414 75.338L67.4381 75.0918L67.9763 74.4218L67.6124 74.1263L67.9059 73.7609L67.1781 73.17L67.2035 72.8888L67.2338 72.9134C67.0682 72.7453 66.9025 72.5773 66.7369 72.4093C66.5915 72.2577 66.4561 72.1143 66.3309 71.9791C66.2057 71.8439 66.1128 71.7517 66.0521 71.7024L66.3701 71.3065L65.3087 70.4448L65.3341 70.1636C65.2532 70.0979 65.1906 70.0303 65.1463 69.9608L65.5866 69.4126L65.8967 69.4631C65.9293 69.4225 66.0148 69.3577 66.1531 69.2687L66.9416 69.9088L67.2351 69.5434L71.5112 73.0148L71.4671 73.3816C71.5278 73.4308 71.5702 73.482 71.5943 73.5351L71.288 74.0412L71.6216 74.312L71.0835 74.982L71.4474 75.2775L71.3799 75.4239L71.0101 75.0734L59.0975 89.9052L58.7933 89.9098C58.7607 89.9504 58.7362 89.9808 58.7199 90.0011C58.6834 90.005 58.6569 90.0171 58.6406 90.0374L58.1251 89.6189L57.9783 89.8016L58.0948 89.5942L57.7308 89.2988L58.2934 88.5983L57.9598 88.3275L58.816 87.2616L58.4217 86.9415L58.7153 86.576L58.412 86.3298L58.6566 86.0253L40.8244 71.5485L40.2863 72.2185L39.9224 71.9231L38.5036 73.6895L38.17 73.4187L37.8765 73.7841L37.5126 73.4887L37.2435 73.8237L36.8492 73.5036L36.8444 73.1978L36.7544 72.8732ZM53.9552 67.1144L53.9542 67.3651L53.5873 67.822L53.284 67.5758L53.9552 67.1144Z" fill="#BB3A30" fill-opacity="0.7"/>
<path d="M77.3844 44.779L77.6321 44.3938L75.2566 41.2437L74.9149 41.5042L74.0917 40.4126L73.75 40.6731L73.4442 40.2677L73.0714 40.5518L72.7439 40.5068C72.6403 40.5857 72.5107 40.6518 72.3551 40.7049C72.2202 40.7422 72.1217 40.7846 72.0595 40.832L71.7303 40.3953L71.3575 40.6795L71.0375 40.5796L71.0686 40.5559L70.4002 40.9671C70.2188 41.0726 70.0375 41.1781 69.8561 41.2836C69.6954 41.3733 69.5944 41.434 69.553 41.4656L69.2707 41.0913L64.9214 44.4065L65.2272 44.812L65.1273 45.1337C65.2214 45.2584 65.2791 45.3782 65.3004 45.4929C65.3424 45.5919 65.4026 45.6933 65.481 45.7973L65.0461 46.1288L70.9025 53.8947L71.3063 53.5869L71.6893 53.8352L77.4055 49.478L77.1468 49.135L77.8924 48.5666L77.5867 48.1612L77.9905 47.8534L77.7083 47.4791L77.8006 47.2123C77.7692 47.1707 77.7482 47.1212 77.7376 47.0638C77.7269 47.0065 77.7059 46.957 77.6746 46.9154L78.1716 46.5365L77.9129 46.1934L78.0053 45.9266L77.3844 44.779ZM58.4642 46.8728L60.0175 45.6888L60.3064 45.8124L61.6431 44.9899L61.3844 44.6468L61.9125 44.2443L62.2955 44.4926L66.1478 41.5563L65.889 41.2132L66.7278 40.5738L67.0478 40.6737C67.5863 40.2633 68.1819 39.842 68.8346 39.41C69.508 38.9622 70.145 38.5094 70.7456 38.0516L71.0891 38.1827C71.2548 38.0564 71.4258 37.9588 71.6021 37.8899C71.7992 37.8052 71.9702 37.7075 72.1152 37.597L72.4586 37.7281C72.4794 37.7124 72.5079 37.707 72.5443 37.712C72.6014 37.7012 72.661 37.6721 72.7232 37.6248L73.0289 38.0302L73.4328 37.7224L73.7385 38.1278L74.0803 37.8673L74.3692 37.9909C74.4106 37.9593 74.5091 37.917 74.6647 37.8639L75.0175 38.3317L75.3903 38.0475L75.6792 38.1711C75.7621 38.108 75.8424 38.0631 75.9202 38.0365L75.9823 37.9892L76.6409 38.8624L76.9826 38.602L78.1116 40.099L78.5154 39.7912L79.9972 41.756L79.8587 42.1563C79.9841 42.3226 80.0889 42.5047 80.1729 42.7026C80.2569 42.9005 80.3616 43.0827 80.487 43.249L80.3872 43.5707C80.4656 43.6747 80.5154 43.784 80.5367 43.8988C80.5787 43.9977 80.6389 44.0992 80.7173 44.2031L80.2824 44.5347L80.5646 44.9089L80.4648 45.2306C80.5432 45.3346 80.6009 45.4543 80.6378 45.5899C80.6748 45.7254 80.7247 45.8348 80.7874 45.9179L80.0418 46.4863L80.324 46.8605L79.9202 47.1684L80.1789 47.5114L79.4333 48.0797L79.7626 48.5164L79.048 49.061L79.3067 49.4041L78.5922 49.9487L78.8509 50.2918L78.0743 50.8838L79.1091 52.2561L79.4509 51.9956L79.7801 52.4323L80.5568 51.8403L80.8457 51.9638C80.8871 51.9323 80.9856 51.8899 81.1413 51.8368L81.4705 52.2734L81.8433 51.9893L82.1322 52.1129C82.153 52.0971 82.2411 52.0626 82.3968 52.0095L82.7495 52.4773L83.1223 52.1931L83.4658 52.3242C83.4865 52.3084 83.5151 52.3031 83.5515 52.3081C83.6086 52.2973 83.6682 52.2682 83.7303 52.2208L84.3418 53.0317L84.7457 52.7239L85.0892 52.855C85.1306 52.8234 85.2084 52.7969 85.3226 52.7753L85.6284 53.1807L86.0012 52.8966L86.6127 53.7075L86.9855 53.4233L87.5265 54.1406L87.9303 53.8328L88.2738 53.9639C88.3152 53.9323 88.393 53.9058 88.5072 53.8842L89.1188 54.6951L89.5226 54.3872L90.0871 55.1358L90.4288 54.8753L90.9933 55.6238L91.7389 55.0555L92.1059 55.2178C92.2094 55.1388 92.3183 55.0886 92.4325 55.067C92.5518 55.0089 92.6632 54.9403 92.7667 54.8614L93.049 55.2357L94.9129 53.8149L95.2187 54.2203L95.5915 53.9361L95.9678 54.4351L95.8369 54.7805C95.9153 54.8845 95.9651 54.9938 95.9864 55.1086C96.0284 55.2075 96.0886 55.309 96.167 55.413L91.9109 58.6572L91.6052 58.2517L91.2324 58.5359L90.9359 58.4671C90.9152 58.4829 90.8945 58.4987 90.8738 58.5145C90.8374 58.5095 90.8088 58.5149 90.7881 58.5307L90.3732 58.1102L90.0004 58.3944L89.4359 57.6459L89.0321 57.9537L88.7263 57.5483L88.3846 57.8087L87.8201 57.0602L87.3852 57.3917L87.0887 57.323C87.068 57.3388 87.0395 57.3442 87.0031 57.3392C86.9667 57.3342 86.9278 57.3475 86.8864 57.379L86.2278 56.5058L85.8861 56.7663L85.3451 56.0489L84.9723 56.3331L84.3843 55.5534L84.0115 55.8375L83.4236 55.0578L83.0197 55.3657L82.4552 54.6172L82.1135 54.8776L81.549 54.1291L81.1452 54.437L80.6042 53.7196L79.8586 54.288L79.5529 53.8825L79.149 54.1904L78.608 53.473L78.2352 53.7572L77.9295 53.3518L77.5567 53.6359L77.2602 53.5672C77.1567 53.6461 77.0271 53.7122 76.8715 53.7653C76.7366 53.8026 76.638 53.845 76.5759 53.8924L76.2466 53.4557L75.8428 53.7636L75.4598 53.5152L72.7881 55.5517L73.0703 55.926L72.784 56.3898L79.0638 64.717L79.4676 64.4092L79.8346 64.5715C79.9382 64.4925 80.0471 64.4423 80.1613 64.4207C80.2805 64.3626 80.3919 64.294 80.4955 64.2151L80.7777 64.5894L82.9524 62.9318L83.2581 63.3372L84.0348 62.7452L84.4111 63.2442L84.2877 63.5347L84.3356 63.7929L76.3205 69.9024L76.024 69.8337C76.0033 69.8495 75.9748 69.8548 75.9384 69.8498C75.902 69.8448 75.8631 69.8581 75.8217 69.8897L75.3983 69.3283L75.4906 69.0615C75.3965 68.9367 75.3363 68.8353 75.31 68.7571L75.8381 68.3545L75.5794 68.0115L76.6667 67.1826L76.361 66.7772L77.1066 66.2089L62.7831 47.2152L62.4103 47.4994L62.0593 47.4232C62.0179 47.4547 61.979 47.468 61.9426 47.463C61.9062 47.458 61.8673 47.4713 61.8259 47.5029L61.4731 47.0351L59.2673 48.7163L58.9398 48.6713C58.8984 48.7029 58.8595 48.7162 58.8231 48.7112C58.7867 48.7061 58.7478 48.7194 58.7064 48.751L58.2595 48.1584L58.3518 47.8916C58.3205 47.85 58.2995 47.8005 58.2888 47.7432C58.2782 47.6858 58.2572 47.6363 58.2258 47.5947L58.7229 47.2158L58.4642 46.8728ZM60.6538 48.5436L60.5916 48.591L60.4119 48.4824L60.1061 48.077L60.3857 47.8639L60.6538 48.5436Z" fill="#BB3A30" fill-opacity="0.7"/>
<path d="M88.9798 26.9748L107.698 18.8868L107.949 19.0763C107.997 19.0556 108.078 19.0486 108.195 19.0551L108.159 19.0706C108.193 19.0843 108.234 19.0807 108.282 19.0601L108.819 20.3172L109.249 20.1313L109.664 21.1011L109.454 21.4046C109.587 21.7159 109.701 22.0495 109.797 22.4054C109.882 22.7373 109.996 23.0709 110.14 23.4062L109.929 23.7097C110.001 23.8773 110.044 24.0433 110.057 24.2076C110.071 24.372 110.119 24.5499 110.201 24.7415L109.842 24.8964L110.042 25.3634L109.073 25.7817L108.72 24.9556L108.29 25.1415L107.399 23.0583L107.005 23.2287L106.636 22.3667L105.776 22.7385L105.504 22.6005L104.168 23.0505C104.038 23.0782 103.865 23.1386 103.65 23.2315C103.449 23.2902 103.288 23.3454 103.169 23.397L102.984 22.966L96.0279 25.9719L96.2275 26.4388L96.0174 26.7424C96.3655 27.5565 96.7049 28.4169 97.0359 29.3235C97.3566 30.2062 97.7063 31.0906 98.0851 31.9766L97.8903 32.316L98.5146 34.1739L98.9449 33.988L99.4823 35.2451L99.9126 35.0592L100.225 35.3923L105.353 33.1766L104.984 32.3146L105.414 32.1287L105.077 31.3385L105.266 31.0863C105.212 31.0248 105.169 30.8589 105.138 30.5884C105.097 30.294 105.041 30.063 104.97 29.8954L105.4 29.7095L105.231 29.3144L105.339 29.2679L105.589 29.4573C105.685 29.416 105.762 29.397 105.82 29.4003L109.275 37.4819L108.809 37.6833L108.624 37.2523L108.194 37.4382L107.841 36.6121L107.411 36.798L107.057 35.9719L106.627 36.1578L106.259 35.2958L105.9 35.4507L105.746 35.0916L104.491 35.6339L104.307 35.2028L100.65 36.7832L100.987 37.5734L100.793 37.9129C100.823 37.9847 100.837 38.0498 100.834 38.108L100.326 38.4122L104.196 47.4636L104.626 47.2777L104.964 48.0679L105.394 47.882L105.773 48.2714L113.805 44.8007L113.606 44.3338L115.255 43.6211L115.102 43.2619L115.891 42.921L115.706 42.49L116.137 42.3041L115.768 41.442L115.922 41.2054L115.937 41.2413C115.869 41.0155 115.801 40.7896 115.733 40.5638C115.675 40.3619 115.622 40.172 115.574 39.994C115.526 39.8161 115.487 39.6912 115.456 39.6193L115.922 39.4179L115.385 38.1608L115.539 37.9242C115.498 37.8284 115.474 37.7394 115.467 37.6572L116.113 37.3783L116.363 37.5678C116.411 37.5471 116.517 37.5298 116.681 37.5157L117.08 38.4495L117.511 38.2636L119.676 43.3281L119.465 43.6316C119.496 43.7035 119.51 43.7685 119.506 43.8267L118.999 44.1309L119.168 44.526L118.379 44.8669L118.563 45.2979L118.435 45.3958L118.272 44.9134L100.809 52.4591L100.537 52.321C100.489 52.3417 100.454 52.3572 100.43 52.3675C100.396 52.3539 100.367 52.3523 100.343 52.3626L100.082 51.752L99.8665 51.8449L100.066 51.7161L99.882 51.285L100.707 50.9287L100.538 50.5336L101.793 49.9913L101.593 49.5243L102.024 49.3384L101.87 48.9792L102.229 48.8243L93.2001 27.7044L92.4112 28.0453L92.2269 27.6143L90.1472 28.5129L89.9783 28.1178L89.548 28.3038L89.3637 27.8727L88.9693 28.0432L88.7697 27.5762L88.908 27.3037L88.9798 26.9748ZM106.89 29.9165L106.772 30.1377L106.235 30.3701L106.081 30.0109L106.89 29.9165Z" fill="#BB3A30" fill-opacity="0.7"/>
<path d="M141.548 27.4224L141.752 27.2276L141.526 24.808L141.103 24.883L140.563 21.805L140.101 21.8868L139.858 20.5017L139.474 20.5698L139.244 19.2617L138.783 19.3435L138.702 18.8818L138.24 18.9636L138.085 18.0787L137.662 18.1536L137.581 17.6919L137.081 17.7806L136.919 16.8572L136.034 17.014L135.802 16.8172C135.776 16.8217 135.748 16.8135 135.718 16.7924C135.688 16.7712 135.647 16.7652 135.596 16.7743L135.501 16.2357L134.963 16.3311L134.73 16.1344C134.704 16.1389 134.677 16.1306 134.646 16.1095L134.455 15.4691L132.647 15.7895L132.419 15.3935L127.342 16.2934L127.423 16.7551L127.149 17.0021C127.153 17.0277 127.145 17.0556 127.124 17.0858C127.128 17.1115 127.133 17.1371 127.137 17.1628L126.574 17.342L128.989 31.1162L128.605 31.1844L128.983 33.339L129.367 33.2708L130.453 39.4654L130.915 39.3835L131.168 39.6957C131.348 39.6639 131.532 39.6578 131.72 39.6772C131.934 39.6922 132.131 39.6837 132.31 39.6519L132.539 40.0479L135.846 39.4616L135.772 39.0384L137.118 38.7997L137.031 38.2996L138.415 38.0541L138.348 37.6694L139.232 37.5126L139.152 37.0509L140.036 36.8941L139.874 35.9707L140.259 35.9025L140.191 35.5177L140.691 35.4291L140.61 34.9674L140.814 34.7726C140.796 34.67 140.797 34.5244 140.817 34.3357C140.837 34.1471 140.842 34.0271 140.833 33.9758L141.333 33.8872L141.178 33.0023L141.368 32.7305C141.332 32.5253 141.339 32.3389 141.389 32.1714C141.435 31.9782 141.439 31.779 141.403 31.5738L141.788 31.5056L141.559 30.1975L142.02 30.1157L141.548 27.4224ZM120.168 15.1848L122.514 14.7689L122.749 15.2034L128.249 14.2285L128.168 13.7667L128.245 13.7531L128.484 13.9884C129.151 13.8702 129.85 13.7859 130.582 13.7356C131.309 13.6597 132.044 13.5558 132.787 13.424L132.855 13.8087L134.201 13.5701L134.447 13.8439C134.524 13.8302 134.644 13.8354 134.807 13.8594C134.965 13.8578 135.096 13.8479 135.198 13.8297L135.279 14.2915L136.126 14.1415L136.379 14.4537C136.507 14.4309 136.627 14.4361 136.738 14.4693C136.871 14.4722 137.001 14.4623 137.13 14.4396L137.331 14.6816C137.356 14.6771 137.451 14.6868 137.614 14.7108L137.708 15.2495L138.093 15.1813L138.294 15.4234C138.371 15.4097 138.491 15.4149 138.653 15.439L138.755 16.0161L139.178 15.9411L139.379 16.1832C139.43 16.1741 139.537 16.1815 139.7 16.2056L139.788 16.7058L140.211 16.6308L140.457 16.9045C140.483 16.8999 140.577 16.9097 140.74 16.9337L140.908 17.8956L141.332 17.8206L141.578 18.0943C141.603 18.0898 141.646 18.1086 141.707 18.1508C141.762 18.1674 141.818 18.1839 141.874 18.2005L142.029 19.0854L142.452 19.0104L142.688 20.3571L143.15 20.2753L143.467 22.0836L143.89 22.0086L144.268 24.1632L144.768 24.0746L145.342 27.345L145.029 27.5988C145.092 27.9579 145.136 28.36 145.161 28.8051C145.187 29.2503 145.235 29.6781 145.307 30.0885L145.072 30.3286C145.103 30.5081 145.111 30.705 145.096 30.9193C145.076 31.108 145.082 31.2921 145.113 31.4716L144.839 31.7185C144.875 31.9237 144.886 32.1335 144.87 32.3478C144.855 32.5621 144.863 32.759 144.895 32.9385L144.472 33.0135L144.64 33.9754L144.366 34.2223C144.38 34.2993 144.372 34.4064 144.343 34.5438C144.336 34.6509 144.341 34.7558 144.359 34.8584L143.897 34.9402L143.972 35.3634L143.704 35.6488C143.718 35.7258 143.716 35.7922 143.7 35.848L143.175 36.0204L143.249 36.4436L142.975 36.6906C142.997 36.8188 142.992 36.9388 142.959 37.0505C142.951 37.1576 142.958 37.2753 142.981 37.4036L142.019 37.574L142.1 38.0357L141.716 38.1039L141.797 38.5656L141.561 38.8057C141.57 38.857 141.566 38.9106 141.55 38.9664L140.511 39.1505L140.606 39.6891L140.332 39.9361C140.336 39.9617 140.328 39.9896 140.307 40.0198C140.286 40.05 140.279 40.0908 140.288 40.1421L137.558 40.6261L137.639 41.0878L125.6 43.2217L125.519 42.76L124.98 42.8554L124.747 42.6587C124.722 42.6632 124.694 42.6549 124.664 42.6338C124.634 42.6127 124.593 42.6067 124.542 42.6158L124.427 41.9617L125.35 41.7981L125.269 41.3364L126.538 41.1114L126.464 40.6882L127.349 40.5314L127.261 40.0312L127.723 39.9494L124.767 23.0972L124.971 22.9024L124.696 19.9758L124.234 20.0576L124.214 19.9422L124.418 19.7474L124.386 18.2059L123.924 18.2877L123.762 17.3643L123.262 17.4529L123.029 17.2562C122.824 17.2925 122.627 17.301 122.439 17.2815C122.272 17.2318 122.098 17.2229 121.919 17.2547L121.838 16.793L120.068 17.1066L119.994 16.6834L119.533 16.7652L119.431 16.188L119.893 16.1062L119.825 15.7215L120.022 15.4882L120.168 15.1848Z" fill="#BB3A30" fill-opacity="0.7"/>
<path d="M153.2 10.9079L173.557 12.0738L173.698 12.3558C173.75 12.3587 173.826 12.3892 173.927 12.4472L173.888 12.4449C173.913 12.4724 173.951 12.4877 174.003 12.4906L173.926 13.8556L174.394 13.8824L174.334 14.9354L174.011 15.1126C173.992 15.4506 173.946 15.8001 173.873 16.1611C173.802 16.4961 173.756 16.8456 173.736 17.2096L173.413 17.3868C173.402 17.5688 173.367 17.7363 173.306 17.8893C173.245 18.0423 173.209 18.2228 173.197 18.4308L172.807 18.4085L172.778 18.9155L171.725 18.8552L171.776 17.9582L171.308 17.9314L171.436 15.6694L171.007 15.6448L171.06 14.7088L170.124 14.6552L169.943 14.41L168.545 14.2126C168.417 14.1792 168.236 14.1558 168.002 14.1424C167.795 14.1045 167.627 14.0818 167.497 14.0743L167.523 13.6063L159.958 13.173L159.929 13.68L159.606 13.8572C159.556 14.7412 159.477 15.6627 159.371 16.6217C159.266 17.5547 159.186 18.5022 159.132 19.4642L158.806 19.6803L158.54 21.6214L159.008 21.6482L158.93 23.0132L159.398 23.04L159.53 23.4779L165.107 23.7973L165.16 22.8613L165.628 22.8881L165.677 22.0301L165.958 21.8898C165.937 21.8103 165.972 21.6428 166.065 21.3872C166.159 21.1057 166.212 20.8739 166.222 20.6919L166.69 20.7188L166.714 20.2898L166.831 20.2965L166.972 20.5784C167.076 20.5843 167.153 20.6018 167.204 20.6308L166.706 29.4058L166.199 29.3767L166.226 28.9087L165.758 28.8819L165.809 27.9849L165.341 27.9581L165.392 27.0611L164.924 27.0343L164.977 26.0983L164.587 26.076L164.609 25.686L163.244 25.6078L163.27 25.1398L159.292 24.912L159.244 25.77L158.919 25.9861C158.914 26.0641 158.897 26.1284 158.869 26.1789L158.279 26.2234L157.722 36.0514L158.19 36.0782L158.142 36.9362L158.61 36.963L158.776 37.4812L167.512 37.9815L167.54 37.4745L169.334 37.5772L169.356 37.1872L170.214 37.2363L170.241 36.7684L170.709 36.7952L170.762 35.8592L171.005 35.7166L171.002 35.7556C171.042 35.523 171.081 35.2905 171.12 35.058C171.158 34.8515 171.195 34.658 171.231 34.4775C171.268 34.297 171.288 34.1677 171.292 34.0897L171.799 34.1188L171.877 32.7538L172.12 32.6112C172.125 32.5072 172.144 32.4169 172.174 32.3404L172.876 32.3806L173.017 32.6625C173.069 32.6655 173.171 32.6975 173.324 32.7584L173.267 33.7724L173.735 33.7992L173.423 39.2982L173.1 39.4753C173.096 39.5533 173.079 39.6176 173.05 39.6681L172.461 39.7126L172.436 40.1416L171.578 40.0925L171.552 40.5605L171.394 40.5905L171.461 40.0858L152.469 38.998L152.287 38.7529C152.235 38.7499 152.196 38.7476 152.17 38.7462C152.146 38.7187 152.12 38.7042 152.094 38.7027L152.132 38.0397L151.898 38.0263L152.134 38.0007L152.161 37.5327L153.058 37.5841L153.082 37.1551L154.447 37.2332L154.476 36.7262L154.944 36.753L154.966 36.363L155.356 36.3854L156.655 13.4534L155.797 13.4043L155.824 12.9363L153.562 12.8067L153.586 12.3777L153.118 12.3509L153.145 11.8829L152.716 11.8584L152.744 11.3514L152.989 11.1698L153.2 10.9079ZM167.933 21.5725L167.729 21.7173L167.144 21.6838L167.166 21.2938L167.933 21.5725Z" fill="#BB3A30" fill-opacity="0.7"/>
<path d="M186.023 13.7855L187.857 14.3325L187.956 14.688C188.53 14.8592 189.121 15.0627 189.73 15.2987C190.339 15.5347 190.968 15.7494 191.617 15.9429L191.69 16.2498C191.74 16.2647 191.807 16.312 191.892 16.3917L191.855 16.3805C191.872 16.413 191.906 16.4366 191.956 16.4515L191.691 17.3507L192.065 17.4623L191.8 18.3615L192.286 18.5066L192.043 19.3309L192.455 19.4536L192.527 19.7605C192.577 19.7754 192.67 19.8302 192.805 19.9248L192.396 21.311L192.77 21.4226L192.505 22.3218L192.954 22.4558L193.027 22.7627C193.076 22.7776 193.169 22.8323 193.304 22.9269L193.017 23.901L193.391 24.0127L193.137 24.8744L193.623 25.0195L193.369 25.8812L193.781 26.004L193.516 26.9032L193.965 27.0371L194.037 27.344C194.062 27.3515 194.142 27.4025 194.277 27.4971L194.122 28.0216L194.646 28.1779L194.392 29.0396L194.767 29.1512L194.512 30.013L194.962 30.1469L194.707 31.0086L195.157 31.1426L195.229 31.4495C195.279 31.4644 195.371 31.5191 195.506 31.6137L195.219 32.5878L195.593 32.6994L195.483 33.0741L195.932 33.2081L195.678 34.0698L196.127 34.2037L195.873 35.0654L196.247 35.1771L196.346 35.5326C196.371 35.54 196.451 35.5911 196.586 35.6857L196.431 36.2102L196.88 36.3441L196.626 37.2059L197.487 37.4626L197.586 37.8181L198.59 38.2805L202.005 26.7034L201.556 26.5695L202.584 23.0851L202.134 22.9512L202.4 22.052L201.913 21.9069L201.792 21.6263L201.83 21.6374L201.178 21.3616C201.011 21.2845 200.843 21.2075 200.676 21.1304C200.534 21.0608 200.437 21.0185 200.388 21.0036L200.52 20.554L199.659 20.2973L199.781 19.8852L198.92 19.6285L199.196 18.6918L199.476 18.5714C199.505 18.4715 199.544 18.3878 199.591 18.3203L208.013 20.8317L208.123 21.1498C208.155 21.1323 208.189 21.1559 208.224 21.2208C208.26 21.2856 208.302 21.3255 208.352 21.3403L208.043 22.3894L207.725 22.4986C207.711 22.5486 207.68 22.6073 207.633 22.6748L206.622 22.3734L206.489 22.823L205.628 22.5663L204.987 24.7393L204.681 24.8111L203.945 26.7521L204.357 26.8749L203.97 28.1862L203.492 28.2882L200.773 37.505L201.185 37.6277L198.455 46.8819L198.138 46.9911C198.131 47.0161 198.111 47.0374 198.078 47.0549C198.046 47.0724 198.023 47.1062 198.008 47.1561L197.109 46.8882L196.977 47.3378L196.378 47.1593L196.51 46.7097L196.099 46.5869L195.978 46.3063C195.953 46.2988 195.928 46.2914 195.903 46.2839C195.885 46.2515 195.864 46.2316 195.839 46.2242L195.952 45.5649L195.503 45.431L195.735 44.6442L195.286 44.5102L195.551 43.611L195.139 43.4883L195.383 42.664L194.896 42.5189L195.161 41.6197L194.787 41.5081L195.03 40.6838L194.618 40.561L194.883 39.6619L194.434 39.5279L194.843 38.1417L194.431 38.0189L194.542 37.6442L194.093 37.5103L194.468 36.2364L194.057 36.1136L194.189 35.664L193.703 35.5189L193.968 34.6198L193.556 34.497L193.435 34.2164C193.41 34.2089 193.385 34.2015 193.36 34.194C193.343 34.1616 193.322 34.1417 193.297 34.1343L193.52 33.1003L193.108 32.9776L193.363 32.1158L192.839 31.9596L193.093 31.0978L192.681 30.9751L192.814 30.5255L192.364 30.3915L192.619 29.5298L192.207 29.407L192.45 28.5828L192.001 28.4488L192.266 27.5496L191.854 27.4269L191.987 26.9773L191.613 26.8656L191.867 26.0039L191.38 25.8588L191.634 24.9971L191.223 24.8743L191.477 24.0126L190.99 23.8675L190.869 23.5869C190.819 23.572 190.782 23.5608 190.757 23.5534C190.739 23.521 190.718 23.501 190.693 23.4936L191.014 22.4071L190.153 22.1504L190.263 21.7757L189.028 21.4073L188.763 22.3065L188.307 22.3336L184.693 34.5851L185.104 34.7079L183.955 38.6044L184.404 38.7383L184.139 39.6375L184.588 39.7715L184.687 40.127C184.861 40.1791 185.029 40.2562 185.189 40.3582C185.374 40.4677 185.566 40.5522 185.766 40.6117L185.655 40.9864L187.34 41.4887L187.427 41.8817C187.452 41.8891 187.532 41.9401 187.667 42.0347L187.524 42.5218L187.898 42.6334L187.611 43.6075L185.102 42.8597L184.981 43.2718L178.842 41.4413L178.683 41.1495C178.584 41.1198 178.466 41.0576 178.331 40.963C178.196 40.8684 178.104 40.8136 178.054 40.7988L178.352 39.7872L178.801 39.9211L178.923 39.509L179.192 39.4261C179.207 39.3761 179.234 39.3299 179.273 39.2874C179.321 39.2199 179.351 39.1612 179.366 39.1112L179.965 39.2898L180.076 38.9151L180.45 39.0267L180.583 38.5772L181.481 38.845L187.847 17.2644L187.398 17.1305L187.531 16.6809L185.359 16.0335L185.481 15.6214L185.069 15.4986L185.478 14.1124L185.747 14.0295L186.023 13.7855ZM177.515 39.8637L178.319 39.8996L178.22 40.2368L177.515 39.8637Z" fill="#BB3A30" fill-opacity="0.7"/>
<path d="M240.68 49.119L241.866 50.0744L241.623 50.3799L243.023 51.5068L242.98 51.8738C243.386 52.2004 243.806 52.5719 244.24 52.9883C244.674 53.4047 245.124 53.8007 245.591 54.1763L245.548 54.5432C245.629 54.6085 245.682 54.6677 245.706 54.7207L245.341 55.179L245.706 55.473L244.587 56.8785L244.952 57.1725L244.003 58.3641L243.637 58.3208C243.508 58.4838 243.366 58.6202 243.212 58.7301C243.057 58.8401 242.924 58.9663 242.81 59.1089L241.289 57.884L241.824 57.2118L241.459 56.9179L242.067 56.154L241.763 55.909L242.591 54.8702L242.226 54.5762L242.542 54.179L241.447 53.2971L241.593 52.863L237.181 49.3109L236.913 49.6469L236.213 49.0835L235.873 49.5112L235.538 49.4925C235.506 49.5333 235.463 49.5658 235.41 49.5902L234.923 49.1983L234.339 49.9316L234.035 49.6866L232.623 51.4587L232.928 51.7037L232.392 52.3759L232.788 52.6943L232.745 53.0612C232.786 53.0939 232.83 53.1633 232.879 53.2693L232.538 53.6971L233.573 54.53L233.305 54.8661L235.861 56.9239L235.812 57.2358C236.116 57.4808 236.425 57.7624 236.737 58.0808C237.05 58.3992 237.378 58.6972 237.723 58.9749L237.68 59.3418C237.782 59.4234 237.897 59.55 238.027 59.7214C238.157 59.8928 238.303 60.0438 238.465 60.1744L238.423 60.5413C238.524 60.623 238.599 60.7169 238.648 60.8229C238.733 60.925 238.826 61.0168 238.928 61.0985L238.611 61.4957L239.311 62.0591L239.044 62.3952L239.378 62.6647L239.336 63.0316C239.356 63.0479 239.411 63.1255 239.5 63.2642L239.184 63.6614L239.549 63.9554L239.482 64.3528C239.502 64.3692 239.557 64.4467 239.646 64.5854L238.77 65.6854L239.074 65.9303L237.589 67.7941L237.285 67.5491L236.944 67.9769L236.579 67.9337C236.563 67.954 236.537 67.9662 236.5 67.9703C236.464 67.9743 236.429 67.9967 236.397 68.0374L235.971 67.6945L235.362 68.4583L234.997 68.4151C234.981 68.4355 234.955 68.4477 234.918 68.4517C234.882 68.4557 234.847 68.4781 234.815 68.5189L234.419 68.2004L234.127 68.567L233.427 68.0036L233.111 68.4008L232.715 68.3331C232.699 68.3534 232.673 68.3656 232.636 68.3697C232.6 68.3737 232.565 68.3961 232.533 68.4368L231.742 67.7999L231.425 68.1971L229.356 66.5312L229.113 66.8368L226.496 64.73L226.74 64.4244L224.671 62.7586L224.987 62.3614L223.983 61.5529L223.667 61.9501L222.511 61.0192L222.827 60.622L222.432 60.3036L222.425 59.9977C222.405 59.9814 222.385 59.9651 222.365 59.9487C222.361 59.912 222.348 59.8855 222.328 59.8692L222.657 59.3313L222.292 59.0374L223.435 57.6014L223.131 57.3564L223.448 56.9592L223.752 57.2042L224.604 56.1348L224.512 56.0613L224.628 56.1042L225.188 55.4015L225.553 55.6955L225.869 55.2983L226.66 55.9352L226.618 56.3021C226.638 56.3185 226.693 56.396 226.782 56.5347L226.441 56.9625L226.806 57.2564L225.955 58.3258L226.32 58.6198L225.76 59.3225L226.125 59.6165L226.082 59.9834C226.143 60.0324 226.186 60.0834 226.21 60.1365L225.845 60.5948L226.575 61.1827L226.533 61.5496C226.634 61.6313 226.699 61.717 226.728 61.8067C226.792 61.8924 226.886 61.9843 227.007 62.0823L226.691 62.4795L231.255 66.1541L231.547 65.7875L232.247 66.3509L232.539 65.9843L233.269 66.5722L233.561 66.2056L233.865 66.4506L234.401 65.7784L234.766 66.0724L237.029 63.2309L236.634 62.9124L236.628 62.6066C236.567 62.5576 236.492 62.4637 236.403 62.325C236.334 62.2026 236.279 62.1251 236.238 62.0924L236.555 61.6952L235.49 60.8378L235.758 60.5017L234.328 59.3503L234.62 58.9837L231.76 56.6809L231.753 56.3751C231.632 56.2771 231.488 56.1444 231.321 55.977C231.171 55.7893 231.052 55.6261 230.962 55.4874L231.279 55.0902L230.579 54.5267L230.822 54.2212L230.092 53.6332L230.409 53.236L230.043 52.9421L230.037 52.6362C230.017 52.6199 229.997 52.6036 229.977 52.5873C229.972 52.5506 229.96 52.524 229.94 52.5077L230.293 51.9393L229.958 51.6698L230.469 51.0282L230.104 50.7342L230.688 50.0009L230.323 49.707L231.297 48.4848L231.607 48.5341C231.688 48.4322 231.753 48.3508 231.802 48.2897C231.887 48.2245 231.972 48.1594 232.057 48.0942L232.489 47.74L232.854 48.0339L233.147 47.6673L233.481 47.9368L233.773 47.5701L234.138 47.8641L234.43 47.4975L234.71 47.5222C234.743 47.4815 234.777 47.4591 234.814 47.4551C234.85 47.451 234.885 47.4286 234.917 47.3879L235.404 47.7799L235.696 47.4132L235.976 47.438C236.008 47.3973 236.051 47.3647 236.104 47.3403C236.157 47.3159 236.199 47.2833 236.232 47.2426L237.023 47.8795L237.315 47.5129L238.045 48.1008L238.337 47.7342L240.436 49.4245L240.68 49.119ZM230.956 55.4323C230.94 55.4527 230.922 55.4547 230.902 55.4384C230.902 55.4384 230.91 55.4282 230.926 55.4078L230.956 55.4323ZM242.384 58.7659L241.739 59.1995L241.678 59.1505L242.141 58.5699L242.384 58.7659Z" fill="#BB3A30" fill-opacity="0.7"/>
<path d="M265.851 61.8328L266.802 62.9722L266.693 63.2685C266.794 63.3885 266.849 63.4952 266.859 63.5888C266.906 63.6856 266.979 63.7939 267.079 63.9139L266.661 64.2665L266.987 64.6564L266.688 64.9083L266.964 65.2381L265.441 66.5229L265.117 66.439C265.097 66.4558 265.069 66.4626 265.032 66.4594C264.995 66.4562 264.957 66.4714 264.917 66.5049L264.542 66.0551L264.124 66.4078L263.874 66.108L263.545 66.3851L263.171 66.2412C263.151 66.258 263.064 66.2967 262.912 66.3575L262.236 65.5479L261.907 65.825L261.557 65.4052L261.611 65.1041C261.477 64.9442 261.38 64.7874 261.32 64.6339C261.28 64.4636 261.193 64.2985 261.059 64.1385L261.447 63.811L261.122 63.4212L261.42 63.1693L261.145 62.8394L262.667 61.5547L262.937 61.6338C263.017 61.5666 263.143 61.4943 263.316 61.4167C263.488 61.3391 263.594 61.2835 263.634 61.2499L263.985 61.6697L264.283 61.4178L264.534 61.7177L264.922 61.3902L265.523 62.1099L265.851 61.8328ZM258.59 67.3978L259.191 68.1174L259.102 68.4989C259.185 68.5989 259.251 68.6972 259.297 68.794C259.361 68.9107 259.415 69.0359 259.458 69.1694L258.413 70.0511L258.739 70.4409L258.321 70.7936L257.876 70.5046L246.531 80.0774L246.857 80.4672L246.528 80.7444L247.104 81.434L246.991 81.7855C247.725 82.6651 248.431 83.5515 249.109 84.4447C249.803 85.3579 250.559 86.3043 251.377 87.2838L251.268 87.5801C251.385 87.7201 251.449 87.8368 251.459 87.9304C251.486 88.0439 251.558 88.1707 251.675 88.3106L250.839 89.016L250.464 88.8721C250.444 88.8889 250.416 88.8956 250.379 88.8925C250.36 88.9092 250.34 88.926 250.32 88.9428L249.634 88.2436L249.306 88.5207L248.304 87.3212L248.533 86.9242L238.795 75.2594L238.496 75.5113L238.47 75.1755C238.403 75.0955 238.34 74.9788 238.279 74.8252C238.219 74.6717 238.172 74.5749 238.139 74.5349L239.303 73.5525L239.603 73.6064C239.682 73.5393 239.76 73.4905 239.837 73.4601L242.866 77.0884L243.224 76.7861L243.8 77.4758L244.128 77.1987L244.729 77.9184L255.835 68.5471L254.933 67.4676L255.322 67.1401L252.768 64.0815L252.38 64.4089L251.729 63.6293L252.117 63.3018L251.817 62.942L251.871 62.6409C251.854 62.6209 251.827 62.6093 251.791 62.6061C251.791 62.6061 251.782 62.5961 251.766 62.5761C251.732 62.5361 251.777 62.4474 251.9 62.3098C252.042 62.1555 252.163 62.0363 252.263 61.9523L252.588 62.3422L252.946 62.0399L255.25 64.7986L255.548 64.5467L258.202 67.7253L258.59 67.3978ZM237.97 73.2971L238.51 73.4554L238.885 73.9052L238.646 74.1067L237.97 73.2971Z" fill="#BB3A30" fill-opacity="0.7"/>
<path d="M261.088 91.4387L261.306 91.8537L259.719 92.6963L259.937 93.1113L259.178 93.5142L259.378 93.8946L259.158 94.2324C259.182 94.2785 259.196 94.3599 259.198 94.4765L259.18 94.4419C259.169 94.4772 259.176 94.5179 259.2 94.564L258.337 95.0219L258.519 95.3677L258.334 95.6872C258.358 95.7333 258.384 95.8377 258.41 96.0005L257.927 96.2569L258.127 96.6373L257.747 96.8388L258.165 97.6342L257.98 97.9536C258.21 98.3917 258.411 98.8304 258.583 99.2698C258.767 99.7323 258.992 100.217 259.259 100.724L259.09 100.991L259.66 102.413L260.04 102.211L260.893 103.837L261.307 103.617L261.743 104.447L262.123 104.246L262.341 104.661L262.755 104.441L262.936 104.787L266.594 102.845L266.83 103.295L273.144 99.9428L272.908 99.4932L274.564 98.6141L274.164 97.8532L274.578 97.6335L274.124 96.7689L274.24 96.4861C274.143 96.3016 274.082 96.128 274.055 95.9653C274.051 95.7903 274.001 95.6106 273.904 95.4262L274.353 95.1881L272.482 91.626L272.033 91.8641L271.38 90.6191L271 90.8206L270.582 90.0252L270.168 90.245L269.732 89.415L268.939 89.8363L268.757 89.4905L268.274 89.7469L267.956 89.5618C267.933 89.574 267.904 89.5747 267.869 89.5638C267.846 89.5761 267.823 89.5883 267.8 89.6005L267.459 89.1184L266.631 89.558L266.313 89.3729C266.152 89.4583 265.967 89.5269 265.759 89.5784C265.551 89.63 265.366 89.6985 265.205 89.784L264.887 89.5989L261.088 91.4387ZM287.415 93.4281L288.087 94.7076L286.914 95.3304L287.096 95.6762L286.199 96.1524L286.017 95.8066L283.636 97.0704L283.818 97.4162L283.369 97.6543L283.188 97.3085L264.695 107.126L264.876 107.472L264.048 107.911L265.138 109.986L264.758 110.188L265.194 111.018L264.263 111.512L263.945 111.327C263.922 111.339 263.893 111.34 263.858 111.329C263.835 111.341 263.812 111.354 263.789 111.366L262.793 109.639L262.414 109.84L261.796 108.664L261.348 108.903L260.44 107.173L260.888 106.935L259.472 104.238L259.023 104.476L258.169 102.851L257.79 103.052L255.374 98.4525L255.49 98.1697C255.454 98.1006 255.422 97.9846 255.396 97.8218C255.381 97.6821 255.362 97.5892 255.338 97.5431L255.821 97.2867L255.367 96.4221L255.483 96.1393C255.471 96.1163 255.447 96.0993 255.412 96.0885C255.412 96.0885 255.406 96.0769 255.394 96.0539C255.382 96.0308 255.376 96.0193 255.376 96.0193C255.399 96.0071 255.404 95.9895 255.392 95.9664L255.942 95.5859L255.561 94.8596L255.94 94.6581L255.704 94.2086L256.118 93.9888L255.9 93.5738L256.016 93.291C256.004 93.2679 255.981 93.251 255.946 93.2401C255.946 93.2401 255.94 93.2286 255.927 93.2055C255.915 93.1825 255.909 93.171 255.909 93.171C255.932 93.1587 255.938 93.1411 255.926 93.1181L256.855 92.536L256.674 92.1902L257.122 91.9521L256.904 91.5371L257.767 91.0792L257.549 90.6642L259.102 89.84L258.884 89.425L262.989 87.2454L263.207 87.6604L264.449 87.001L264.696 87.1352C264.903 87.0253 265.152 86.9378 265.441 86.8727L265.857 86.7403L266.093 87.1899L266.955 86.732L267.137 87.0779L267.482 86.8947L267.718 87.3443L268.132 87.1245L268.414 87.2404C268.506 87.1915 268.592 87.1603 268.673 87.1468L268.982 87.7347L269.396 87.5149L269.578 87.8607L269.992 87.6409L270.239 87.7751C270.331 87.7263 270.417 87.6951 270.498 87.6815L271.007 88.6498L271.387 88.4484L271.804 89.2438L272.253 89.0057L272.689 89.8357L273.068 89.6342L276.102 95.4095L275.933 95.6761L276.703 97.4785L277.876 96.8557L278.112 97.3053L279.665 96.4811L279.429 96.0315L281.119 95.134L281.355 95.5836L283.287 94.5579L283.051 94.1083L283.845 93.687L283.209 92.4766L283.325 92.1938L282.884 91.1014C282.846 90.9739 282.785 90.8295 282.7 90.6681C282.651 90.5175 282.596 90.3846 282.535 90.2694L283.432 89.7931L283.668 90.2427L284.117 90.0046L284.535 90.8L284.914 90.5985L285.949 92.5698L286.398 92.3317L287.07 93.6112L287.415 93.4281Z" fill="#BB3A30" fill-opacity="0.7"/>
<path d="M280.94 128.04L281.054 128.454L282.296 128.109L282.182 127.695L283.01 127.465L282.875 126.975L283.125 126.703C283.118 126.678 283.123 126.65 283.142 126.617C283.16 126.585 283.162 126.544 283.148 126.494L283.713 126.337L283.578 125.848L284.444 125.607L284.195 124.703L284.369 124.452C284.362 124.427 284.368 124.398 284.386 124.366C284.405 124.334 284.407 124.293 284.393 124.243L284.995 124.075L284.612 122.682L284.985 122.416L283.867 118.348L283.453 118.463L283.204 117.559L282.677 117.706L282.406 117.457C282.381 117.464 282.353 117.458 282.321 117.44C282.289 117.422 282.248 117.42 282.197 117.434L282.052 116.906L281.601 117.032L281.292 116.793C281.217 116.814 281.151 116.819 281.094 116.808L280.959 116.318L280.47 116.454L280.226 116.157C280.169 116.146 280.112 116.134 280.055 116.123C280.03 116.13 279.98 116.144 279.904 116.165L279.77 115.675L278.942 115.905L278.581 115.479L275.834 116.242L277.997 124.114L278.374 124.009L279.461 127.964L279.95 127.828L280.074 128.28L280.94 128.04ZM285.68 117.723L287.16 123.109L286.911 123.381C286.945 123.507 286.951 123.627 286.929 123.741C286.931 123.848 286.95 123.965 286.984 124.09L286.735 124.362C286.763 124.463 286.765 124.57 286.742 124.685C286.752 124.817 286.774 124.946 286.808 125.072L286.357 125.197L286.491 125.687L286.242 125.959C286.27 126.059 286.272 126.167 286.249 126.281C286.234 126.421 286.24 126.541 286.267 126.641L285.816 126.767L285.94 127.218L285.718 127.442C285.745 127.543 285.754 127.622 285.742 127.679L285.178 127.836L285.312 128.325L284.409 128.576L284.523 128.991L284.274 129.263C284.287 129.313 284.29 129.42 284.281 129.585L283.303 129.857L283.416 130.271L282.137 130.626L282.261 131.078L279.438 131.863L279.167 131.613C279.117 131.627 279.063 131.629 279.006 131.618L278.613 130.186L278.161 130.312L275.014 118.861L274.563 118.987L273.952 116.765L273.5 116.89L273.397 116.513L271.327 117.088L271.43 117.465L270.527 117.716L270.662 118.206L269.758 118.457L269.872 118.871L269.65 119.095C269.678 119.195 269.689 119.287 269.685 119.369L269.706 119.444L269.141 119.601L269.245 119.978L268.995 120.25C269.016 120.325 269.022 120.445 269.013 120.61C269.029 120.767 269.051 120.896 269.079 120.997L268.59 121.133L268.838 122.037L268.424 122.152L268.9 123.884L268.5 124.198L269.639 128.341L270.091 128.216L270.815 130.852L271.229 130.737L271.592 132.056L272.043 131.93L272.395 133.211L272.847 133.085L273.126 134.102L272.877 134.374C272.884 134.399 272.883 134.494 272.874 134.659L272.272 134.826L271.963 134.588C271.913 134.602 271.872 134.599 271.84 134.581C271.808 134.563 271.767 134.561 271.717 134.575L271.572 134.048L271.12 134.173L270.882 133.307L270.468 133.422L270.22 132.518L269.768 132.643L269.282 130.873L268.868 130.988L268.391 129.255L267.902 129.391L267.302 127.207L266.888 127.322L265.873 123.63L266.047 123.379L266.058 123.417L265.947 122.718C265.917 122.51 265.89 122.315 265.867 122.132C265.85 121.975 265.832 121.858 265.811 121.783L266.3 121.647L265.928 120.291L266.102 120.04C266.081 119.965 266.075 119.845 266.084 119.68C266.1 119.54 266.101 119.446 266.087 119.395L266.576 119.259L266.441 118.77L266.855 118.655L266.742 118.241L267.193 118.115L266.945 117.211L267.119 116.96C267.112 116.935 267.118 116.906 267.136 116.874C267.154 116.842 267.156 116.801 267.142 116.751L268.121 116.479L267.986 115.989L268.476 115.853L268.362 115.439L269.303 115.178L269.168 114.688L271.351 114.082L271.248 113.705L274.409 112.827L274.513 113.203L276.696 112.597L276.83 113.087L277.658 112.857L277.908 113.03C278.009 113.002 278.141 112.993 278.306 113.001C278.47 113.009 278.59 113.003 278.665 112.982L278.81 113.51L279.713 113.259L279.926 113.443C279.976 113.429 280.03 113.428 280.087 113.439C280.144 113.45 280.197 113.448 280.248 113.435L280.403 114L280.855 113.874L280.968 114.288L281.872 114.037L282.084 114.222C282.185 114.194 282.276 114.182 282.358 114.186L282.534 114.826L282.948 114.711L283.176 115.54L283.665 115.404L283.914 116.308L284.328 116.193L284.566 117.059L284.98 116.944L285.228 117.848L285.68 117.723Z" fill="#BB3A30" fill-opacity="0.7"/>
<path d="M290.894 152.402L291.031 155.68L290.727 155.888C290.728 155.914 290.706 156.007 290.66 156.165L290.153 156.186L290.189 157.045L289.885 157.253C289.89 157.383 289.869 157.502 289.821 157.608C289.801 157.739 289.793 157.87 289.798 158L289.291 158.021L289.311 158.49L288.92 158.506L288.938 158.935L288.634 159.144C288.635 159.17 288.613 159.262 288.568 159.42L287.553 159.463L287.574 159.97L286.169 160.03L286.189 160.498L273.427 161.037L273.444 161.466L273.14 161.674C273.156 162.039 273.144 162.391 273.106 162.731C273.068 163.072 273.057 163.424 273.072 163.789L272.807 163.995C272.812 164.099 272.79 164.204 272.742 164.311C272.696 164.443 272.675 164.561 272.679 164.665L271.157 164.73L271.121 163.871L270.692 163.889L270.571 161.001L270.797 160.796C270.764 160.015 270.772 159.272 270.821 158.566C270.844 157.862 270.841 157.158 270.811 156.455L271.826 156.413L271.845 156.881L272.314 156.861L272.332 157.291L272.8 157.271L272.82 157.739L273.288 157.719L273.454 157.947C274.26 157.913 275.12 157.903 276.033 157.916C276.947 157.956 277.859 157.956 278.77 157.918L278.788 158.347L283.666 158.141L283.648 157.712L285.951 157.615L285.933 157.186L286.909 157.144L286.889 156.676L287.279 156.66L287.261 156.23L287.769 156.209L287.748 155.701L287.974 155.496C287.97 155.418 287.991 155.287 288.035 155.103C288.081 154.944 288.103 154.839 288.1 154.787L288.647 154.764L288.482 150.822L287.975 150.844L287.936 149.907L287.506 149.925L287.449 148.559L286.942 148.581L286.903 147.644L286.513 147.66L286.456 146.294L285.441 146.337L285.233 146.033C284.582 146.061 283.931 146.062 283.278 146.038C282.651 146.012 282.013 146.013 281.362 146.04L281.148 145.58L275.528 145.817L275.547 146.286L272.815 146.401L272.835 146.869L272.531 147.078C272.545 147.416 272.533 147.755 272.495 148.096C272.458 148.462 272.447 148.828 272.463 149.192L272.196 149.36C272.201 149.49 272.18 149.608 272.133 149.714C272.086 149.846 272.065 149.978 272.071 150.108L271.563 150.129L271.583 150.597L271.037 150.62L271.017 150.152L270.549 150.172L270.221 142.327L270.689 142.307L270.668 141.8L270.819 141.676L270.826 141.832L271.685 141.796L271.704 142.265L272.173 142.245L272.21 143.142L272.678 143.123L272.854 143.584L287.216 142.978L287.195 142.471L287.421 142.266C287.401 141.797 287.407 141.315 287.439 140.818C287.497 140.347 287.515 139.825 287.491 139.252L287.998 139.231L287.98 138.802L288.487 138.78L288.653 139.008C288.679 139.007 288.718 139.005 288.77 139.003C288.849 138.999 288.914 139.01 288.967 139.034L289.013 140.126L289.481 140.107L289.577 142.409L289.968 142.393L290.048 144.305L289.657 144.322L289.677 144.79L289.373 144.998C289.377 145.102 289.367 145.181 289.343 145.234L288.368 145.275L288.477 147.89L288.867 147.874L288.887 148.342L289.355 148.322L289.394 149.259L289.863 149.239L289.939 151.074L290.33 151.057L290.387 152.423L290.894 152.402ZM271.393 155.414L271.725 155.87L271.748 156.416L271.436 156.429L271.393 155.414ZM271.315 141.382L270.808 141.403C270.914 141.451 270.955 141.488 270.93 141.515C270.905 141.542 270.894 141.582 270.896 141.634L270.818 141.637L270.785 140.857L271.315 141.382ZM271.505 150.601L271.219 151.238L271.258 151.237L271.193 150.614L271.505 150.601Z" fill="#BB3A30" fill-opacity="0.7"/>
<path d="M292.507 206.343L292.184 207.224L291.824 207.299C291.806 207.348 291.746 207.436 291.644 207.565L291.167 207.389L291.033 207.756L279.09 203.338L279.224 202.971L278.015 202.524L277.881 202.89L276.525 202.389L276.659 202.022L275.487 201.588L275.353 201.955L273.961 201.44L274.095 201.073L272.117 200.342L271.982 200.708L271.03 200.356L271.164 199.989L266.987 198.444L266.853 198.811L266.011 198.499L265.849 198.939L265.539 198.991C265.53 199.016 265.475 199.092 265.372 199.221L264.823 199.018L262.487 205.401L262.12 205.265L261.959 205.705L260.604 205.204L266.215 189.87L266.582 190.006L266.904 189.125L267.893 189.491L267.732 189.932L268.098 190.067L266.554 194.286L267.031 194.462L266.722 195.306L267.125 195.455L266.964 195.895L274.511 198.687L274.672 198.246L275.661 198.612L275.5 199.053L281.288 201.194L281.45 200.754L284.527 201.892L284.366 202.332L289.788 204.338L289.949 203.898L290.316 204.033L291.51 200.769L291.144 200.633L292.097 198.029L292.903 198.327L293.064 197.887L293.614 198.09L293.453 198.53L293.819 198.666L293.685 199.032L294.161 199.209L292.456 203.867L292.859 204.016L292.067 206.181L292.507 206.343ZM268.899 190.947L268.352 191.077L267.803 190.874L267.91 190.581L268.899 190.947Z" fill="#BB3A30" fill-opacity="0.7"/>
<path d="M272.792 221.738L272.548 222.138L271.018 221.196L270.774 221.596L270.407 221.599C270.366 221.665 270.321 221.714 270.272 221.745L269.407 221.212L269.163 221.612L268.829 221.636C268.815 221.658 268.745 221.722 268.62 221.828L268.121 221.521L267.674 222.255L267.359 222.245C267.278 222.378 267.188 222.475 267.09 222.537C267 222.635 266.921 222.739 266.853 222.85L266.421 222.584L264.387 225.919L264.787 226.165L264.278 226.999L264.644 227.224L264.4 227.624L264.832 227.891L264.629 228.224L264.995 228.45L264.507 229.25L265.239 229.701L264.995 230.101L265.427 230.368L265.203 230.735L265.569 230.96L265.478 231.409L271.032 234.831L271.256 234.464L272.054 234.956L272.278 234.589L273.009 235.04L273.253 234.64L274.051 235.131L274.275 234.765L274.674 235.01L274.938 234.577L275.271 234.782L275.739 234.015L276.073 233.991C276.182 233.813 276.305 233.66 276.445 233.532C276.592 233.44 276.721 233.304 276.829 233.127L277.228 233.372L278.611 231.104L278.212 230.858L278.659 230.125L278.26 229.879L278.748 229.078L278.415 228.873L278.863 228.14L278.43 227.873L278.406 227.537C278.384 227.524 278.369 227.499 278.36 227.463C278.352 227.427 278.325 227.395 278.281 227.368L278.586 226.868L277.821 226.397L278.024 226.063L277.592 225.797L277.588 225.427C277.233 225.209 276.892 224.968 276.565 224.705C276.237 224.442 275.885 224.194 275.508 223.962L275.504 223.593L272.792 221.738ZM280.057 232.409L279.061 234.043L278.693 234.046C278.585 234.224 278.454 234.388 278.301 234.538C278.149 234.689 278.018 234.853 277.91 235.031L277.595 235.021C277.501 235.177 277.384 235.319 277.244 235.447C277.092 235.598 276.961 235.762 276.852 235.94L276.485 235.943C276.417 236.054 276.341 236.129 276.256 236.168C276.157 236.23 276.074 236.316 276.006 236.428L275.692 236.418C275.678 236.44 275.609 236.504 275.483 236.61L275.018 236.323L274.53 237.124L274.215 237.114C274.188 237.158 274.112 237.233 273.986 237.34L273.122 236.807L272.898 237.174L272.565 236.969L272.321 237.369L271.523 236.877L271.3 237.244L270.568 236.793L270.324 237.193L269.526 236.702L269.302 237.069L267.373 235.88L267.129 236.28L260.844 232.407L260.84 232.038C260.641 231.915 260.433 231.756 260.216 231.562C260.021 231.38 259.813 231.222 259.591 231.085L259.815 230.718L258.252 229.755L258.248 229.386C258.027 229.249 257.807 229.083 257.591 228.889C257.396 228.708 257.188 228.549 256.966 228.412L256.909 228.056C256.82 228.001 256.734 227.917 256.65 227.805C256.575 227.728 256.493 227.662 256.405 227.607L256.669 227.174L255.871 226.682L256.094 226.315L255.695 226.069L255.692 225.7C255.581 225.631 255.495 225.548 255.433 225.449C255.38 225.385 255.298 225.32 255.187 225.251L255.431 224.851L254.999 224.585L255.016 224.182C254.949 224.141 254.874 224.064 254.79 223.951C254.715 223.875 254.633 223.809 254.545 223.754L254.789 223.354L254.356 223.088L254.56 222.754L254.161 222.508L254.157 222.139C254.135 222.125 254.119 222.1 254.111 222.064C254.089 222.051 254.066 222.037 254.044 222.023L254.283 221.482L253.95 221.277L253.913 220.888C253.847 220.847 253.798 220.801 253.767 220.752L253.965 220.277L253.599 220.052L254.108 219.218L253.709 218.972L254.156 218.238L253.757 217.992L254.245 217.192L253.912 216.987L254.4 216.186L254.001 215.94L254.672 214.84L254.306 214.614L255.262 213.047L254.83 212.78L254.857 212.66L255.303 212.98L256.258 211.412L257.489 212.171L257.001 212.971L257.367 213.197L256.431 214.731L256.83 214.977L256.139 216.111L256.472 216.316L255.78 217.45L256.213 217.716L255.745 218.483L256.111 218.709L255.623 219.509L256.388 219.98L256.144 220.381L256.543 220.627L256.055 221.427L256.421 221.652L256.432 221.935C256.476 221.962 256.514 222 256.544 222.05C256.575 222.099 256.613 222.138 256.657 222.165L256.352 222.665L257.117 223.137L256.914 223.47L257.712 223.962L257.447 224.396L258.179 224.847L258.19 225.129C258.279 225.183 258.387 225.281 258.515 225.421C258.643 225.561 258.73 225.645 258.774 225.672L258.51 226.105L259.274 226.577L259.051 226.944L262.011 228.767L262.641 227.733L262.308 227.529L262.796 226.728L262.397 226.482L262.845 225.748L262.479 225.523L262.987 224.689L262.555 224.423L264.69 220.921L265.122 221.187L265.874 219.953L266.176 219.909C266.243 219.798 266.333 219.7 266.445 219.617C266.544 219.555 266.614 219.491 266.654 219.424L267.087 219.69L267.31 219.324L267.643 219.529L267.907 219.095L268.339 219.361L268.583 218.961L268.885 218.917C268.898 218.895 268.912 218.873 268.925 218.851C268.961 218.842 268.986 218.827 268.999 218.804L269.505 219.025L269.709 218.691L270.507 219.183L270.771 218.749L271.536 219.22L271.76 218.854L272.525 219.325L272.728 218.991L273.925 219.729L274.169 219.329L277.694 221.501L277.45 221.901L278.614 222.618L278.411 222.952L279.575 223.669L279.586 223.951C279.675 224.006 279.783 224.103 279.911 224.243C280.039 224.383 280.125 224.467 280.17 224.494L279.885 224.961L280.218 225.166L280.014 225.5L280.813 225.992L280.569 226.392L280.934 226.617L280.446 227.418L280.845 227.664L280.856 227.946C280.901 227.973 280.927 228.005 280.936 228.041C280.944 228.077 280.971 228.108 281.015 228.135L280.487 229.003L280.919 229.269L280.451 230.036L280.817 230.262L279.658 232.163L280.057 232.409ZM257.219 210.812L257.308 211.417L257.023 211.884L256.691 211.679L257.219 210.812Z" fill="#BB3A30" fill-opacity="0.7"/>
<path d="M257.694 243.693L257.376 244.037L256.061 242.813L255.744 243.158L255.383 243.088C255.33 243.146 255.276 243.185 255.222 243.205L254.479 242.513L254.161 242.858L253.828 242.815C253.811 242.834 253.73 242.884 253.586 242.963L253.157 242.564L252.575 243.196L252.269 243.124C252.163 243.239 252.056 243.317 251.947 243.358C251.84 243.436 251.742 243.523 251.654 243.619L251.282 243.273L248.635 246.146L248.979 246.465L248.317 247.184L248.631 247.476L248.314 247.821L248.685 248.167L248.421 248.455L248.735 248.747L248.1 249.437L248.729 250.023L248.411 250.367L248.783 250.713L248.492 251.029L248.806 251.322L248.629 251.745L253.404 256.19L253.695 255.874L254.381 256.513L254.672 256.197L255.301 256.783L255.618 256.438L256.305 257.077L256.596 256.761L256.939 257.08L257.283 256.707L257.569 256.973L258.177 256.312L258.51 256.355C258.651 256.202 258.802 256.076 258.964 255.977C259.127 255.916 259.279 255.808 259.42 255.655L259.763 255.974L261.563 254.021L261.22 253.701L261.802 253.069L261.459 252.75L262.095 252.06L261.809 251.794L262.391 251.162L262.019 250.816L262.062 250.482C262.043 250.464 262.032 250.437 262.031 250.4C262.03 250.363 262.01 250.327 261.972 250.291L262.369 249.86L261.711 249.248L261.976 248.961L261.604 248.615L261.673 248.252C261.368 247.968 261.081 247.665 260.811 247.342C260.541 247.02 260.245 246.708 259.921 246.407L259.989 246.044L257.694 243.693ZM262.726 255.584L261.429 256.991L261.068 256.922C260.927 257.075 260.766 257.211 260.587 257.329C260.408 257.446 260.248 257.582 260.106 257.735L259.801 257.664C259.677 257.798 259.534 257.914 259.373 258.013C259.194 258.13 259.033 258.266 258.892 258.419L258.531 258.35C258.443 258.445 258.353 258.504 258.262 258.526C258.154 258.567 258.055 258.636 257.967 258.732L257.661 258.66C257.643 258.679 257.562 258.729 257.418 258.808L257.018 258.435L256.383 259.125L256.077 259.053C256.042 259.092 255.952 259.151 255.808 259.23L255.065 258.538L254.774 258.854L254.488 258.588L254.17 258.932L253.484 258.294L253.193 258.61L252.564 258.024L252.246 258.369L251.56 257.73L251.269 258.046L249.611 256.502L249.294 256.847L243.89 251.815L243.959 251.452C243.788 251.293 243.615 251.096 243.44 250.863C243.285 250.647 243.112 250.45 242.922 250.273L243.213 249.957L241.869 248.705L241.938 248.343C241.747 248.165 241.565 247.96 241.391 247.726C241.235 247.51 241.062 247.314 240.872 247.136L240.886 246.775C240.809 246.704 240.741 246.605 240.681 246.478C240.623 246.388 240.555 246.308 240.479 246.237L240.823 245.863L240.137 245.224L240.428 244.908L240.085 244.589L240.154 244.226C240.059 244.137 239.99 244.038 239.949 243.929C239.91 243.856 239.843 243.776 239.747 243.687L240.065 243.342L239.693 242.996L239.788 242.605C239.731 242.551 239.673 242.461 239.613 242.334C239.554 242.244 239.487 242.164 239.41 242.093L239.728 241.748L239.356 241.402L239.621 241.114L239.278 240.795L239.347 240.432C239.328 240.414 239.318 240.387 239.316 240.35C239.297 240.332 239.278 240.315 239.259 240.297L239.599 239.813L239.313 239.546L239.353 239.157C239.296 239.104 239.257 239.05 239.237 238.995L239.524 238.568L239.209 238.276L239.871 237.557L239.528 237.238L240.11 236.606L239.767 236.286L240.402 235.597L240.116 235.331L240.752 234.641L240.408 234.322L241.282 233.374L240.967 233.081L242.211 231.731L241.84 231.385L241.891 231.272L242.264 231.673L243.508 230.323L244.566 231.308L243.931 231.997L244.245 232.29L243.028 233.612L243.371 233.931L242.471 234.908L242.757 235.174L241.857 236.151L242.229 236.497L241.62 237.158L241.934 237.451L241.299 238.14L241.957 238.752L241.639 239.097L241.982 239.417L241.347 240.106L241.661 240.399L241.617 240.678C241.655 240.713 241.684 240.758 241.705 240.813C241.725 240.868 241.754 240.913 241.793 240.948L241.396 241.379L242.053 241.991L241.788 242.279L242.474 242.918L242.13 243.291L242.759 243.877L242.715 244.155C242.791 244.226 242.878 244.343 242.976 244.506C243.075 244.668 243.143 244.767 243.181 244.803L242.837 245.176L243.494 245.789L243.203 246.105L245.747 248.474L246.568 247.583L246.282 247.317L246.917 246.627L246.574 246.308L247.156 245.676L246.842 245.383L247.504 244.665L247.132 244.319L249.911 241.302L250.283 241.648L251.262 240.585L251.566 240.601C251.654 240.506 251.761 240.428 251.888 240.367C251.996 240.326 252.077 240.277 252.13 240.22L252.502 240.566L252.793 240.25L253.079 240.516L253.423 240.142L253.794 240.488L254.112 240.144L254.416 240.16C254.434 240.141 254.451 240.121 254.469 240.102C254.506 240.101 254.533 240.091 254.55 240.071L255.004 240.387L255.268 240.099L255.954 240.738L256.298 240.365L256.956 240.977L257.247 240.661L257.905 241.273L258.169 240.986L259.198 241.944L259.516 241.6L262.546 244.421L262.229 244.766L263.229 245.698L262.965 245.985L263.965 246.917L263.921 247.196C263.997 247.267 264.084 247.383 264.182 247.546C264.28 247.708 264.348 247.807 264.386 247.843L264.016 248.245L264.302 248.511L264.037 248.799L264.723 249.438L264.406 249.782L264.72 250.075L264.085 250.765L264.428 251.084L264.383 251.363C264.422 251.398 264.441 251.435 264.443 251.471C264.444 251.508 264.464 251.545 264.502 251.58L263.814 252.327L264.186 252.673L263.577 253.334L263.891 253.627L262.383 255.264L262.726 255.584ZM244.568 229.922L244.536 230.533L244.166 230.935L243.88 230.669L244.568 229.922Z" fill="#BB3A30" fill-opacity="0.7"/>
<path d="M232.073 253.118L231.693 253.393L230.626 251.899L230.246 252.173L229.701 251.41L229.321 251.684L228.799 250.953L228.482 251.182L228.233 250.832L227.821 251.129L227.481 250.989C227.439 251.02 227.36 251.044 227.245 251.063L226.95 250.65L225.842 251.45L225.502 251.31C225.396 251.386 225.223 251.479 224.981 251.589L224.47 251.814L224.243 251.496L222.121 253.027L222.348 253.345L221.239 254.145L221.534 254.559L220.805 255.085L221.055 255.434L220.327 255.96L220.599 256.342L220.219 256.616L220.469 256.966L220.12 257.217L220.642 257.948L220.262 258.222L220.535 258.604L220.458 258.9C220.594 259.091 220.72 259.289 220.835 259.495C220.965 259.722 221.115 260 221.285 260.327L221.154 260.614L222.153 262.35L222.502 262.098L223.546 263.56L223.894 263.309L224.439 264.072L224.819 263.798L225.341 264.529L225.69 264.277L225.917 264.595L226.297 264.321L226.592 264.734L227.32 264.208L227.646 264.262C227.752 264.186 227.873 264.131 228.009 264.097C228.144 264.063 228.244 264.023 228.307 263.978L228.602 264.054C228.686 263.993 228.797 263.946 228.932 263.912C229.068 263.878 229.189 263.823 229.295 263.747L229.612 264.192L232.051 262.432L231.756 262.018L233.245 260.944L233.018 260.626L233.715 260.123L233.442 259.742L233.551 259.423C233.535 259.401 233.504 259.312 233.455 259.154L233.93 258.811L233.703 258.494L234.02 258.265L233.498 257.534L233.615 257.16C233.539 257.054 233.492 256.944 233.474 256.828C233.435 256.728 233.377 256.625 233.301 256.519L233.713 256.222L232.896 255.078L233.036 254.736L232.073 253.118ZM230.88 272.286L230.5 272.56L231.771 274.34L232.151 274.066L233.218 275.56L233.598 275.286L233.893 275.362C233.914 275.347 233.935 275.332 233.956 275.316C233.992 275.322 234.021 275.318 234.042 275.302L234.695 276.083L235.076 275.809L235.393 275.917C235.456 275.871 235.566 275.824 235.723 275.775C235.88 275.726 235.98 275.686 236.022 275.656L236.317 276.069L237.077 275.52L237.454 275.778L240.526 273.561L240.276 273.211L241.005 272.686L240.733 272.304L241.461 271.778L241.166 271.365L241.306 271.023C241.276 270.981 241.256 270.931 241.247 270.873L241.69 270.553L241.395 270.14L241.567 269.775C241.446 269.606 241.353 269.431 241.29 269.253C241.241 269.095 241.164 268.942 241.058 268.794L241.375 268.565L239.059 265.322L238.742 265.551L238.175 264.756L237.763 265.053L237.536 264.735L237.188 264.987L236.902 264.856C236.86 264.886 236.76 264.926 236.603 264.975L236.263 264.498L235.946 264.727L235.661 264.596C235.534 264.687 235.413 264.742 235.298 264.761C235.178 264.816 235.065 264.881 234.959 264.958L234.664 264.544L233.587 265.322L233.337 264.972L231.247 266.481L231.496 266.83L230.705 267.402L230.977 267.783L230.248 268.309L230.498 268.659L229.77 269.185L230.314 269.948L229.934 270.222L230.434 270.921L230.085 271.173L230.88 272.286ZM241.385 275.302L238.756 277.199L238.506 276.849L236.986 277.947L236.646 277.807C236.54 277.883 236.441 277.923 236.347 277.926C236.248 277.966 236.145 278.024 236.039 278.1L235.767 277.718L235.007 278.267L234.667 278.127C234.661 278.163 234.632 278.168 234.581 278.141C234.508 278.129 234.451 278.138 234.409 278.169L234.136 277.787L233.756 278.062L233.234 277.331L232.886 277.582L232.523 277.41C232.502 277.425 232.413 277.458 232.256 277.507L231.734 276.775L231.385 277.027L230.841 276.264L230.461 276.538L228.281 273.486L228.421 273.145C228.376 273.081 228.329 272.97 228.28 272.813C228.211 272.67 228.153 272.567 228.108 272.504L228.488 272.229L227.943 271.466L228.083 271.125C228.068 271.103 228.063 271.075 228.069 271.038C228.054 271.017 228.039 270.996 228.024 270.975L228.422 270.591L228.127 270.178L228.267 269.836C228.236 269.794 228.217 269.744 228.208 269.686L228.651 269.366L228.379 268.984L228.464 268.634C228.434 268.591 228.422 268.552 228.428 268.515C228.434 268.479 228.422 268.44 228.391 268.397L228.866 268.054L227.89 266.687L227.51 266.962L227.17 266.822C227.149 266.837 227.06 266.869 226.903 266.918L226.608 266.505L225.88 267.031L225.517 266.859C225.432 266.92 225.362 266.955 225.304 266.964L224.986 266.519L224.606 266.793L224.266 266.653C224.224 266.684 224.146 266.708 224.031 266.727L223.758 266.345L223.378 266.62L222.834 265.857L222.485 266.108L222.258 265.79L221.878 266.065L221.333 265.302L220.985 265.553L219.941 264.091L219.529 264.388L218.394 262.799L218.566 262.434C218.399 262.201 218.261 261.963 218.152 261.721C218.058 261.499 217.928 261.272 217.762 261.039L217.847 260.688C217.771 260.582 217.724 260.472 217.706 260.356C217.667 260.256 217.609 260.153 217.533 260.047L217.945 259.75L217.718 259.432L218.067 259.181L217.749 258.736L217.889 258.394C217.874 258.373 217.869 258.344 217.875 258.308C217.881 258.271 217.869 258.232 217.839 258.189L218.25 257.892L217.955 257.479L218.095 257.137C218.065 257.095 218.045 257.045 218.036 256.987L218.48 256.667L218.162 256.222L218.302 255.88C218.287 255.859 218.282 255.83 218.288 255.794C218.294 255.757 218.282 255.718 218.251 255.675L218.663 255.378L218.391 254.997L219.151 254.448L218.879 254.067L219.575 253.564L219.349 253.246L221.597 251.623L221.325 251.241L222.497 250.395L222.769 250.777L225.303 248.948L225.53 249.266L226.29 248.717L226.608 248.825C226.671 248.78 226.781 248.732 226.938 248.683C227.095 248.634 227.195 248.594 227.237 248.564L227.532 248.977L227.912 248.703L228.238 248.756C228.281 248.726 228.32 248.714 228.356 248.72C228.392 248.726 228.432 248.713 228.474 248.683L228.837 249.192L229.186 248.94L229.412 249.258L229.761 249.006L230.033 249.388L230.413 249.114L230.958 249.877L231.338 249.602L231.838 250.302L232.186 250.05L232.481 250.127C232.502 250.111 232.523 250.096 232.544 250.081C232.58 250.087 232.609 250.082 232.63 250.067L234.123 252.024L234.504 251.75L234.821 252.195L234.722 252.459C234.934 252.756 235.107 253.065 235.24 253.386C235.373 253.707 235.546 254.016 235.758 254.313L235.378 254.587L235.9 255.318L235.583 255.547L236.105 256.278L235.725 256.553L235.997 256.934L235.867 257.221C235.897 257.264 235.917 257.314 235.926 257.371C235.935 257.429 235.955 257.479 235.985 257.521L235.541 257.841L235.768 258.159L235.04 258.685L235.312 259.066L234.932 259.341L235.182 259.69L235.083 259.955C235.143 260.04 235.186 260.121 235.21 260.2L235.224 260.287L234.748 260.63L234.998 260.979L234.27 261.505L235.019 262.554L235.399 262.28L235.626 262.598L235.974 262.346L236.247 262.728L236.658 262.43L236.953 262.507C236.974 262.492 237.003 262.487 237.039 262.493C237.075 262.499 237.114 262.487 237.157 262.456L237.52 262.965L238.28 262.416L238.779 263.116L239.16 262.841L239.477 262.949C239.498 262.934 239.527 262.93 239.563 262.936C239.599 262.942 239.638 262.929 239.681 262.899L240.498 264.043L240.878 263.769L241.718 264.945L242.098 264.671L242.938 265.847L242.558 266.121L243.352 267.234L243.221 267.521L243.535 268.162C243.614 268.362 243.683 268.504 243.744 268.589L243.645 268.854C243.72 268.959 243.775 269.081 243.808 269.217C243.842 269.354 243.896 269.475 243.972 269.581L243.841 269.868C243.901 269.953 243.944 270.035 243.968 270.113L243.461 270.479L243.734 270.861L243.354 271.135L243.581 271.453L242.852 271.979L243.147 272.392L242.799 272.643L243.048 272.993L241.908 273.816L242.181 274.198L241.135 274.952L241.385 275.302Z" fill="#BB3A30" fill-opacity="0.7"/>
<path d="M193.437 281.149L189.847 282.088L189.54 281.684L182.776 283.454L182.893 283.908L180.248 284.6L179.981 284.347C179.956 284.354 179.861 284.352 179.697 284.341L179.579 283.887L179.163 283.996L178.801 282.597L179.007 282.3C178.974 282.174 178.97 282.054 178.994 281.94C178.993 281.833 178.977 281.716 178.944 281.59L180.72 281.125L180.613 280.709L193.386 277.367L193.633 277.544C193.658 277.538 193.684 277.531 193.709 277.524C193.741 277.543 193.769 277.549 193.794 277.542L194.017 278.09L194.432 277.981L194.922 279.872L194.734 280.082C194.747 280.133 194.744 280.174 194.726 280.206C194.707 280.238 194.704 280.279 194.717 280.329L193.319 280.695L193.437 281.149Z" fill="#BB3A30" fill-opacity="0.7"/>
</svg>
