<svg width="618" height="1334" viewBox="0 0 618 1334" fill="none" xmlns="http://www.w3.org/2000/svg">
<path d="M124.98 236.734C124.98 236.734 185.866 234.097 185.866 247.326C185.866 260.554 222.934 263.213 241.457 326.742C259.979 390.271 318.229 422.047 318.229 422.047C318.229 422.047 384.41 477.643 458.545 895.955C458.545 895.955 207.048 672.186 209.706 656.979C212.365 641.773 172.639 512.056 154.116 406.159C154.116 406.159 95.8664 279.079 125.002 236.712L124.98 236.734Z" fill="#384825"/>
<path d="M262.638 520.34C262.638 520.34 318.228 755.976 458.545 896.284C458.545 896.284 379.136 440.901 318.228 422.377C318.228 422.377 252.047 354.167 241.456 327.072C230.866 299.977 262.638 520.34 262.638 520.34Z" fill="#75885F"/>
<path d="M117.773 286.749L91.208 284.155L116.828 271.85L117.773 286.749Z" fill="#DB7B27"/>
<path d="M264.264 716.157L266.461 720.288L279.908 1001.92L196.412 1030.37L275.096 1001.59L166.156 1017.19L274.723 999.983L206.674 1001.08L277.337 998.643L264.264 716.157Z" fill="#DB7B27"/>
<path d="M303.441 753.69L305.66 757.844L368.875 1033.41L330.687 1080.13L366.546 1033.21L292.608 1080.76L363.404 1032.18L317.965 1041.56L365.909 1030.37L303.441 753.69Z" fill="#DB7B27"/>
<path d="M134.956 259.39C137.771 259.39 140.053 257.107 140.053 254.292C140.053 251.476 137.771 249.193 134.956 249.193C132.14 249.193 129.858 251.476 129.858 254.292C129.858 257.107 132.14 259.39 134.956 259.39Z" fill="#FFEFCF" stroke="#414042" stroke-width="0.15" stroke-miterlimit="10"/>
<path d="M134.89 256.797C135.812 256.797 136.56 255.676 136.56 254.292C136.56 252.909 135.812 251.787 134.89 251.787C133.967 251.787 133.22 252.909 133.22 254.292C133.22 255.676 133.967 256.797 134.89 256.797Z" fill="#414042"/>
<path d="M176.923 513.133L133.219 506.628L91.2079 477.753L71.147 466.92V482.258L91.2079 512.935L116.828 557.148L144.733 581.826L203.554 621.227L176.923 513.133Z" fill="#75885F" stroke="#414042" stroke-width="0.15" stroke-miterlimit="10"/>
<path d="M190.875 569.806L203.554 621.227L184.613 569.806L190.106 610.525L175.583 572.487L174.264 601.603L168.376 569.806L158.51 587.825V567.433V557.148L144.733 581.826L147.128 544.073L124.54 563.961L131.769 544.073L111.423 547.809L116.828 529.812L104.172 535.305L113.576 523.307L95.6683 520.626L109.006 516.737L91.2079 512.935L95.6683 503.068H84.748L80.5732 489.136L71.147 482.258V466.92L190.875 569.806Z" fill="#384825" stroke="#414042" stroke-width="0.15" stroke-miterlimit="10"/>
<path opacity="0.5" d="M77.6289 462.305H122.431L117.663 525.944H84.4843L77.6289 462.305Z" fill="#FFEFCF"/>
<path opacity="0.95" d="M78.9692 474.743H121.508L117.663 525.944H84.4844L78.9692 474.743Z" fill="#D5A537"/>
<path d="M71.147 466.92L91.2079 477.753L95.0531 492.191H88.1098L77.6289 494.432L71.147 482.258V466.92Z" fill="#384825" stroke="#414042" stroke-width="0.15" stroke-miterlimit="10"/>
</svg>
