<?xml version="1.0" encoding="UTF-8"?>
<svg id="Layer_1" data-name="Layer 1" xmlns="http://www.w3.org/2000/svg" viewBox="0 0 255.02 281.4">
  <defs>
    <style>
      .cls-1 {
        fill: #d5a537;
        opacity: .95;
      }

      .cls-1, .cls-2, .cls-3, .cls-4, .cls-5, .cls-6, .cls-7 {
        stroke-width: 0px;
      }

      .cls-1, .cls-7 {
        isolation: isolate;
      }

      .cls-2, .cls-8 {
        fill: #75885f;
      }

      .cls-3, .cls-9 {
        fill: #384825;
      }

      .cls-8, .cls-9, .cls-10 {
        stroke: #414042;
        stroke-miterlimit: 10;
        stroke-width: .15px;
      }

      .cls-4 {
        fill: #db7b27;
      }

      .cls-5 {
        fill: rgba(77, 47, 20, .7);
      }

      .cls-6 {
        fill: #414042;
      }

      .cls-7 {
        opacity: .5;
      }

      .cls-7, .cls-10 {
        fill: #ffefcf;
      }
    </style>
  </defs>
  <g>
    <path class="cls-3" d="m107.27,74.86s10.84-.5,10.84,2.03,6.6,3.04,9.9,15.2c3.3,12.16,13.67,18.24,13.67,18.24,0,0,11.79,10.64,24.99,90.72,0,0-44.79-42.84-44.31-45.75.47-2.91-6.6-27.74-9.9-48.02,0,0-10.37-24.33-5.18-32.44h0Z"/>
    <path class="cls-2" d="m131.79,129.15s9.9,45.11,34.89,71.97c0,0-14.14-87.18-24.99-90.72,0,0-11.79-13.06-13.67-18.24-1.89-5.19,3.77,37,3.77,37Z"/>
    <path class="cls-4" d="m105.99,84.43l-4.73-.5,4.56-2.36.17,2.85Z"/>
    <path class="cls-4" d="m132.08,166.64l.39.79,2.39,53.91-14.87,5.45,14.01-5.51-19.4,2.99,19.33-3.29-12.12.21,12.58-.47-2.33-54.08Z"/>
    <path class="cls-4" d="m139.05,173.82l.4.8,11.26,52.75-6.8,8.94,6.39-8.98-13.17,9.1,12.61-9.3-8.09,1.8,8.54-2.14-11.12-52.97Z"/>
    <path class="cls-10" d="m109.05,79.2c.5,0,.91-.44.91-.98s-.41-.98-.91-.98-.91.44-.91.98.41.98.91.98Z"/>
    <path class="cls-6" d="m109.04,78.7c.16,0,.3-.21.3-.48s-.13-.48-.3-.48-.3.21-.3.48.13.48.3.48Z"/>
    <path class="cls-8" d="m116.52,127.77l-7.78-1.25-7.48-5.53-3.57-2.07v2.94l3.57,5.87,4.56,8.46,4.97,4.72,10.48,7.54-4.74-20.69Z"/>
    <path class="cls-9" d="m119.49,135.15l2.26,9.84-3.37-9.84.98,7.79-2.59-7.28-.23,5.57-1.05-6.09-1.76,3.45v-5.87l-2.45,4.72.43-7.23-4.02,3.81,1.29-3.81-3.62.72.96-3.45-2.25,1.05,1.67-2.3-3.19-.51,2.38-.74-3.17-.73.79-1.89h-1.94l-.74-2.67-1.68-1.32v-2.94l21.32,19.7Z"/>
    <path class="cls-7" d="m98.84,118.04h7.98l-.85,12.18h-5.91l-1.22-12.18Z"/>
    <path class="cls-1" d="m99.08,120.42h7.58l-.68,9.8h-5.91l-.98-9.8Z"/>
    <path class="cls-9" d="m97.69,118.93l3.57,2.07.68,2.76h-1.24l-1.87.43-1.15-2.33v-2.94Z"/>
  </g>
  <g>
    <path class="cls-5" d="m105.21,244.03l-1.99-.55-.05-.17c-.16-.04-.32-.1-.47-.17-.15-.07-.32-.13-.49-.18l-.04-.15c-.29-.08-.59-.18-.89-.31-.3-.11-.61-.21-.93-.3l.05-.19-.18-.05.12-.43-.22-.06.02-.07h.24s.67-2.46.67-2.46l-.22-.06.02-.07.17-.05s.01-.02.03-.03c.02,0,.03-.03.03-.05l.22.06.06-.2.52.14.06.14s.04.01.06.02c0,.01,0,.02.01.02l-.14.5.24.07-.3,1.1.2.06-.11.41.24.07.06.14s.02.01.03.03l-.05.33.26.07.06.14s.09.04.16.08c.07.05.11.07.14.08l-.07.24,2.93.82.06-.22.42.12.06-.2.42.12.06-.22.18-.07s.02-.04.03-.05c.02,0,.03-.03.03-.05l.26.07.06-.22.17-.05c.02-.06.05-.12.09-.18.03-.05.05-.1.06-.16l.15-.06s.01-.02.03-.03c.02,0,.03-.03.03-.05l.28.08.12-.43.15-.06c.03-.1.07-.19.12-.29.05-.08.08-.16.11-.25l.18.05.24-.87.17-.05c.09-.31.19-.61.31-.91.11-.3.21-.6.29-.9l.15-.04.33-.91-.2-.06.47-1.73-.24-.07.23-.85-.18-.05.18-.65-.2-.06-.05-.17s-.07-.03-.14-.08l.12-.45-.18-.05-.05-.17s-.04-.02-.08-.06h.02s-.03-.02-.05-.03l.07-.24-.2-.06-.05-.17c-.06-.02-.11-.04-.16-.08-.06-.03-.12-.05-.18-.07l-.04-.15c-.06-.02-.11-.04-.16-.08-.06-.03-.12-.05-.18-.07l.07-.26-.42-.12-.02-.22-2.23-.62-.06.2-.42-.12-.07.24-.42-.12-.05.19-.24-.07-.06.22-.18-.05-.12.45-.22-.06-.05.19-.13.04v-.02c-.04.12-.09.23-.13.34-.04.1-.08.19-.11.27-.04.08-.06.14-.07.18l-.24-.07-.18.65-.18-.05-.06.22-.13.04s-.03.08-.07.12l-.35-.1.06-.2-.41-.11.67-2.43.17-.05s.01-.02.03-.03c0-.01,0-.02.01-.04l.25.03.07-.24.19-.05s.01-.02.03-.03c0-.01,0-.02.01-.04l.49.1.06-.22.15-.06s.02-.05.04-.07l.48.13.07-.24.44.12.06-.2.85.24.06-.22.85.24.06-.2.88.25-.06.2,1.09.3-.06.22.65.18.06.14c.06.02.12.05.17.09.04.04.08.06.12.07l-.07.26.42.12-.05.19.22.06.06.14s.02,0,.04.01c0,.02.02.03.03.03l-.05.31.22.06.06.16s.03,0,.04,0c0,0,0,0,.02,0,.01,0,.02,0,.02,0,0,.01,0,.02.01.02l-.05.33.18.05-.12.43.24.07.06.14s.02.01.03.03c0,.02.03.03.05.03l-.08.28.24.07-.17.63.2.06-.13.46.22.06-.17.61.2.06-.3,1.1.22.06-.71,2.6-.22-.06-.23.85-.2-.06-.18.65-.22-.06-.18.65-.13.04s-.04.11-.09.18c-.05.08-.08.14-.09.18l-.26-.07-.12.43-.13.04s0,.03-.02.06c0,.04-.02.07-.04.09l-.3-.08-.11.41-.18-.05-.06.22-.24-.07-.06.22-.13.04s-.02.05-.04.07c-.02.02-.03.04-.04.07l-.28-.08-.05.19-.2-.06-.07.24-.13.04s-.03.09-.05.12l-.48-.13-.06.22-.24-.07-.05.19-.42-.12-.06.22-.63-.17-.06.22Z"/>
    <path class="cls-5" d="m88.85,225.13l-.2-.11-1.03,1.96.2.11v.26s3,1.6,3,1.6l.11-.2.61.32.11-.2.39.21.11-.2.39.21.12-.22h.18s.03-.06.05-.07l.22.12.22-.43h.19s.63-1.02.63-1.02l-.22-.12.21-.41-.37-.2.1-.19-.39-.21v-.18c-.18-.09-.35-.19-.52-.31-.18-.12-.37-.24-.56-.34v-.16s-.46-.33-.46-.33l-.1.19-1-.53-.11.2-.41-.22-.1.19-.37-.2-.11.2-.41-.22-.11.2-.19-.1-.21.39Zm-1.19,8.04l-2.15-1.14-.3-.42-.25-.14.1-.19-.39-.21v-.16s-.08-.06-.14-.11l.13-.26-.19-.1v-.16s-.09-.05-.11-.08l-.03-.02.23-.44-.17-.09.97-1.86.17.09,2.38-4.53-1.12-.59-.1.19-.25-.14.1-.19-.19-.1v-.18s-.06-.04-.11-.1l.15-.29h.18s.02-.03.03-.04c0-.01.01-.02.02-.03l.88.42.1-.19.57.31.12-.22,1.02.54-.12.22.24.13.03.15s.08.06.13.12c.06.06.09.09.12.11l-.12.22.74.4.11-.2.57.31.1-.19.83.44.12-.22,2.38,1.27-.12.22.39.21.05.16c.06.03.11.07.15.12.03.05.07.08.1.1l-.12.22.41.22-.1.19.22.12-.21.41.17.09-.2.37.2.11-.56,1.07-.2-.11-.2.37-.17-.09-.21.41-.22-.12-.12.22h-.14c-.02.06-.05.1-.08.12l-.46-.24-.11.2-.41-.22-.1.19-.39-.21-.11.2-.59-.32-.11.2-.79-.42-.11.2-2.37-1.26-.09.17-.59-.32-.12.22-.2-.11-.1.19-.22-.03-.99,1.89.2.11.03.15s.02.01.03.02c0,.02.01.03.02.04l-.12.31.2.11.03.15s.09.06.13.12c.04.05.09.09.15.12l-.05.26,1.86.99.11-.2.39.21.1-.19.39.21.13-.24.16-.02s.02-.02.03-.03c.02,0,.03-.02.04-.04l.25.13.31-.6.17.09.13-.24h.2s.05-.04.12-.03c.06.02.14.04.22.07.08.04.16.08.24.13.07.04.12.07.17.09l-.11.2.19.1.03.19s.03,0,.04,0c0,0,0,0,.02,0,.01,0,0,.04-.01.1-.02.07-.05.15-.08.24-.05.09-.09.18-.13.26-.05.09-.08.15-.1.19l-.22-.12-.21.39-.39-.21-.1.19-.39-.21-.12.22-.39-.21-.1.19-.39-.21-.1.19-1-.53-.11.2Zm1.4-3.79l-.02-.29.11-.2.14.07-.22.43Z"/>
    <path class="cls-5" d="m65.86,224.78l-1.05-.9.12-.15-1.9-1.62.04-.19s-.04-.05-.08-.12l.64-.76.37.31.15-.18.18.03s.07,0,.17.04c.09.06.19.13.3.21.11.09.21.18.32.27.1.08.17.15.22.19l-.15.18.86.73-.08.21,1.59,1.36.14-.16.37.31.15-.18.15.12.15-.18.19.04s.09-.08.14-.11c.04-.03.08-.07.13-.12l.18.15,1.71-2.03-.16-.14.14-.16-.19-.16.08-.24-2.95-2.51-.15.18-.38-.32.03-.18s-.08-.09-.11-.14c-.04-.05-.09-.1-.13-.14l.33-.4.19.04s.02-.02.04-.02c0,0,.02-.02.02-.03l3.49,2.92.15-.18.34.29,4.46-5.31-.19-.16.28-.34-.15-.12.03-.15c-.3-.26-.6-.52-.88-.8-.29-.28-.58-.55-.9-.81l.04-.19-.7-.69-.16.19-.03-.03.04-.19s-.07-.08-.09-.13c-.04-.05-.09-.1-.13-.14l.33-.4.15.12.14-.16,6.21,5.29v.15s.03.03.04.04c0,0,0,.02,0,.03l-.25.29-.15-.12-.12.15-.35-.3-.16.19-1.18-1.01-.14.16-.35-.3-.16.19-.18-.15-4.44,5.28.18.15-.15.18.37.31v.15c.16.14.33.29.5.45.16.15.34.34.53.56l-.16.19.16.14-.31.37-.34-.29-.15.18-1.18-1.01-.14.16-.14-.02c-.18.22-.38.42-.6.62-.22.2-.42.41-.6.62l-.18-.15-.59.71-.15-.12-.27.32-.19-.16-.3.35-.14-.02s-.02.02-.04.04c-.02.03-.05.05-.08.06l-.25-.21-.15.18-.15-.12-.12.15-.35-.3-.16.19-.18-.15-.14.16-.34-.29-.16.19-.69-.58-.12.15Zm8.5-12.59l.32-.38.02.3-.19.22-.16-.14Zm.02,11.91l-.36.04.07-.09-.19-.16.1-.12.38.32Zm-6.33-5.74l.3-.2.03.02-.22.26-.1-.09Zm-5.17,3.11l.02-.03.25.18-.1.12-.17-.27Z"/>
    <path class="cls-5" d="m56.74,208.13l-.18.14-1.72-2.24.09-.14c-.04-.05-.06-.1-.07-.16-.02-.05-.06-.11-.11-.18l.09-.14c-.04-.05-.06-.1-.07-.16-.03-.06-.07-.12-.11-.18l.18-.14-.15-.2.09-.14s-.04-.08-.06-.15c-.02-.07-.05-.13-.1-.19l.18-.14-.13-.17.06-.14s-.02-.03-.04-.05c-.02-.02-.03-.04-.03-.07l.23-.18-.15-.2.36-.28-.13-.17.09-.14s-.06-.1-.09-.18l.39-.31-.13-.17.52-.4-.14-.18,1.18-.92.17.06s.06-.04.09-.04l.44.58.18-.14,3.55,4.64.18-.14.69.9.18-.14.12.15.77-.6-.12-.15.36-.28-.15-.2.36-.28-.12-.15.06-.14s-.04-.06-.04-.09c-.01-.04-.03-.07-.04-.09l.21-.16-.12-.15.09-.14c-.04-.05-.07-.11-.09-.18-.04-.07-.07-.13-.11-.18l.2-.15-.28-.37.17-.13-.54-.7.15-.19-1.26-1.65-.18.14-.82-1.07-.17.13-.41-.53-.18.14-.4-.52-.18.14-.36-.47.09-.14s-.05-.08-.07-.16l.3-.24.18.05s.04-.02.06-.02c.02,0,.04,0,.06-.02l.16.21.18-.14.27.35.17-.13.28.37.18-.14.55.72.17-.13.54.7.2-.15.68.89.17-.13,1.17,1.53-.02.16.21.37c.03.06.06.11.1.16.03.06.06.11.1.16l-.2.15.4.52-.03.15s.06.09.07.16c.01.06.04.11.07.16l-.2.15.15.2-.17.13.13.17-.18.14.26.34-.03.15c.04.05.06.09.05.13l-.39.31.15.2-.2.15.13.17-.38.29.15.2-.88.68.12.15-1.33,1.03-.12-.15-.88.68-.15-.2-.32.25-.15-.03c-.05.04-.1.06-.16.07-.07.02-.13.05-.19.1l-.16-.21-.35.27-.13-.04s-.04.02-.06.02c-.03,0-.06.02-.1.06l-.18-.23-.18.14-.13-.17-.35.27-.13-.04s-.07.04-.14.06l-.19-.24-.17.13-.26-.34-.2.15-.28-.37-.17.13-.27-.35-.17.13-.28-.37Zm.41-5.72l-.35.27-.13-.17-.44.34.13.17-.33.26.14.18-.06.17s.04.08.04.11l-.23.18.15.2-.35.27.26.34-.03.15c.04.05.06.09.05.13l-.24.19.41.53-.03.15c.18.26.38.54.59.83.19.29.38.57.56.83l.17-.13.28.37.2-.15.17.06s.04-.02.06-.02c.02,0,.04,0,.06-.02l.16.21.18-.14.18.05s.06-.04.09-.04l.15.2.18-.14.22.07s.03-.01.06-.02c.01,0,.03-.02.05-.04l.15.2.33-.26.24.13,1.05-.81-2.39-3.13-.15.12-1.23-1.6-.2.15-.14-.18Zm-2.61,6.91l-.04.17h-.03s-.92-.36-.92-.36l-.04-.12-1.8-.84s-.01.05-.03.09c-.02.03-.04.05-.05.06l-.61-.23.07-.15-.13-.04.05-.16-.13-.04.26-.54h.11s.1-.23.1-.23l.43.18.09-.19,3.33,1.36h-.02s.03.02.03.02l-.1.12c.05,0,.09.03.12.06l-.05.16.12.03-.27.72h-.12c0,.05-.02.09-.04.1l-.33-.15Zm.72-1.17l-.06.12v.02s.08.02.1.05l-.07.13c.05,0,.09.03.12.06,0-.03,0-.05,0-.07,0-.03-.01-.06-.02-.08l-.07-.22Zm-4.43-.31l.06.17v.02s.08-.13.08-.13l-.14-.06Zm3.75,1.71l-.07-.06h-.03s-.09.14-.09.14l.19-.07Zm-3.63-1.34l.08-.11h-.03s.02-.02.02-.02l-.1-.04.03.17Zm.1-1.07l.09.03s.02-.03.02-.07c-.02.02-.04.02-.06.02-.03,0-.05.01-.06.02Zm3.96,2.28l.14-.04h-.12s-.01.01,0,.02h-.02Zm-4.09-1.37h-.03s.03,0,.03,0Z"/>
    <path class="cls-5" d="m35.86,178.26l.16-.14-1.23-4.63-.22.06-.87-3.28.12-.13c-.02-.06-.02-.11,0-.16,0-.05,0-.11-.03-.17l.43-.11-.05-.2,1.57-.42.13.11c.23-.06.47-.11.71-.15.24-.04.48-.09.73-.16l.13.12s.03,0,.04,0,.04.01.06,0l.08.32-.09.12s0,.03,0,.04c0,.02-.01.03,0,.04l-.29.12.05.19-1.5.4.06.22-.08.14s0,.04,0,.06c0,.02-.01.04,0,.06l-.3.08.17.65-.09.12v-.02s.05.34.05.34c.01.09.02.18.03.27.01.09.02.15.03.17l-.22.06.58,2.18-.2.05.45,1.67.2-.05.11.41,4.88-1.31-.11-.41.2-.15-.48-1.82-.22.06-.23-.86-.85.23-.06-.22-.65.17-.13-.48.11-.11s-.02-.09-.01-.12l4.18-1.13.13.5-.09.12s.01.04.01.06c-.01,0-.02.01-.01.02l-.74.2.06.22-.63.17.05.2-.24.06.24.89-.18.05.45,1.68.18-.05.05.19.26-.07.13.12c.17-.05.37-.09.58-.12s.42-.07.6-.12l.15.1,1.17-.22.83-.22-.06-.22,1.29-.35-.06-.22.12-.13s-.01-.07,0-.1l.24-.06-.18-.67.14-.14c-.05-.19-.09-.38-.12-.59-.03-.21-.07-.41-.13-.62l.11-.11s0-.08,0-.16l.3-.08.13.12s.07-.01.1,0l.1.23.2-.05,1.34,5.04-.09.12s.02.11,0,.18c-.01.06-.01.11,0,.16l-.5.13-.06-.24-.2.05-.11-.41-.24.07-.29-1.08-.41.11-.06-.22-3.44.93-.05-.19-1.22.33.05.19-1.33.36-.05-.19-1.44.39.05.19-3.22.87.06.22-.22.06.23.86-.2.05.16.6.2-.05.03.05-.23.04.12.45-.68.18-.57-2.16-.18.05Zm9.39-4.23l.24.17.07.26-.18.05-.13-.48Zm-8.1,6.71l-.21-.18-.07-.26.15-.04.13.48Zm1.48-8.66l.07-.12.24-.07.04.17-.35.02Zm4.99-1.35l.02.07-.09.02-.24.07-.04-.17h.36Z"/>
    <path class="cls-5" d="m31.47,158.12h-.21s-.05-1.96-.05-1.96l.21-.08-.04-1.54-.02-.69.61-.02.1.13s.04,0,.06.02c.01.01.03.02.06.02l.03.96h.23s.1.15.1.15c.1,0,.2,0,.31.03.09.02.19.03.29.03l.1.13c.8,0,1.65-.01,2.54,0,.88-.01,1.72-.02,2.51-.03v-.23s5.04-.13,5.04-.13v-.21s.16-.1.16-.1c0-.01.01-.06.03-.14h.25s0-.26,0-.26h.25s0-.2,0-.2l.13-.08c0-.06,0-.13.03-.19.01-.08.02-.15.01-.21h.27s-.01-.45-.01-.45l.21-.08-.06-2.14h-.21s-.02-.92-.02-.92h-.25s-.01-.44-.01-.44h-.21s0-.23,0-.23h-.23s-.08-.11-.08-.11c-.03,0-.08-.01-.15-.03v-.33s-.45.01-.45.01l-.08-.11c-.34,0-.68,0-1.01-.01-.35-.03-.68-.04-1.02-.03v-.23s-.54.01-.54.01v.23s-7.36.2-7.36.2v.21s-.68.02-.68.02v.48s-.22,0-.22,0l.02.66-.11.1s0,.04,0,.08c0,.03-.01.05-.04.08h-.33s0,.26,0,.26h-.11s0-.25,0-.25h-.23s-.11-4.04-.11-4.04l.15-.06s.01-.08.03-.15l.63-.02v.44s.24,0,.24,0l.02.67h.48s.1.14.1.14c.18.02.33.04.46.05.12,0,.24.01.36,0v.25s8.98-.24,8.98-.24l.1.13c.09,0,.18,0,.27.03.09.02.19.03.29.03l.12.15c.08,0,.14,0,.19.03.04.01.1.02.17.01v.25s.47-.01.47-.01v.25s.26,0,.26,0l.1.13s.04,0,.06.02c.01.01.03.02.06.02v.5s.26,0,.26,0v.25s.22,0,.22,0l.02.67h.21s.01.46.01.46h.25s.09,3.38.09,3.38h-.25s.01.45.01.45l-.11.1c0,.06,0,.13-.03.19-.02.05-.04.11-.03.17l-.13.1c0,.06,0,.13-.03.19-.02.07-.03.13-.03.19h-.27s0,.22,0,.22l-.11.1c0,.06,0,.11-.03.14h-.54s0,.28,0,.28h-.44s0,.22,0,.22l-.71.02v.23s-10.34.27-10.34.27v.21s-.13.12-.13.12c0,.05-.01.09-.04.12h-.29s.02.91.02.91l-.11.1c0,.05,0,.11-.03.17-.02.06-.03.14-.03.21l-.63.02v-.46Zm-.42-3.59h.33s0-.09,0-.09l-.21-.05-.11.14Zm.43-1.01v.27s.03-.02.03-.02c0-.03.01-.08.03-.16h.04s-.1-.09-.1-.09Z"/>
    <path class="cls-5" d="m32.87,130.05l.52-2.45.17-.06c.03-.16.08-.32.14-.48.06-.16.11-.32.14-.5l.15-.05c.06-.3.15-.61.25-.91.09-.31.17-.63.24-.95l.19.04.04-.21.43.09.05-.23.51.11.06.17c.32.07.67.16,1.04.26.36.1.7.19,1.04.26l.07.15s.08.03.14.07c.05.02.1.04.15.05l-.15.73-.41-.09-.04.19-1.09-.23-.05.25-.45-.1-.04.21-.43-.09-.04.21-.22-.05-.05.23-.14.09c-.01.06-.04.12-.08.18-.04.04-.06.09-.07.12l-.24-.05-.1.45-.21-.04-.54,2.54.21.04-.09.43.22.05-.14.66.22.05.07.15s.04.02.05.05c0,.02.03.03.05.03l-.06.26.22.05-.04.19.22.05.06.17s.02.01.03.03c0,.02.03.03.05.03l-.06.26.47.1.06.17s.08.03.14.07c.05.02.1.04.15.05l-.05.23.49.1.06.19s.08.03.14.07c.05.02.1.04.15.05l.08.16c.16.03.32.08.48.14.14.06.31.11.5.15l.03.22,3.54.76.04-.21,1.09.23.04-.19.65.14.05-.25.15-.05s.02-.05.07-.12l.49.1.05-.23.41.09.05-.23.17-.06c.01-.06.04-.11.07-.14.04-.04.06-.1.07-.16l.22.05.05-.23.17-.06s.02-.05.07-.12l.22.05.14-.66.19-.06c.01-.05.03-.1.07-.14.03-.06.05-.12.06-.18l.22.05.5-2.36-.21-.04.09-.43-.24-.05.09-.43-.19-.04.09-.43-.22-.05-.03-.22-2.47-.53-.04.21-.24-.05-.05.23-.19-.04-.37,1.75-.22-.05-.04.19-.51-.11.09-.43-.19-.04.88-4.17.19.04.04-.21.52.11.07.15s.02.01.03.03c.01,0,.02,0,.04,0l-.07.5.19.04-.09.43,3.29.7.06.17s.02.01.03.03c.01,0,.02,0,.04,0l-.2,1.14.21.04-.09.43.19.04-.1.45.24.05-.09.43.21.04-.13.62.22.05-.14.68.21.04-.15.72-.21-.04-.27,1.3-.22-.05-.09.43-.14.09c-.02.1-.05.19-.1.27-.06.08-.09.16-.11.23l-.24-.05-.1.45-.19-.04-.05.25-.13.07s0,.04-.01.06c-.01,0-.02,0-.02.01l-.3-.06-.05.25-.15.07s0,.03,0,.04c-.02,0-.02.02-.03.03l-.31-.03-.04.19-.19-.04-.05.25-.45-.1-.04.21-.41-.09-.05.23-.24-.05-.04.19-.43-.09-.05.25-.86-.18-.04.21-1.53-.33-.05.23-1.76-.38.05-.23-1.29-.28-.07-.13c-.07,0-.21-.04-.42-.13-.22-.09-.41-.15-.57-.18l.05-.24-.39-.08.04-.19-.47-.1.05-.23-.45-.1-.05-.13s-.1-.04-.16-.07c-.07-.04-.12-.07-.16-.07l.06-.26-.22-.05.04-.19-.22-.05.05-.23-.22-.05-.05-.13s-.02-.01-.03-.03c-.02-.02-.04-.04-.07-.05l.05-.24-.24-.05.09-.43-.21-.04.05-.24-.22-.05.09-.43-.19-.04.09-.43-.22-.05.13-.64-.22-.05Zm5.25-4.33l.32.17v.04s-.34-.07-.34-.07l.03-.13Z"/>
    <path class="cls-5" d="m37.64,112.22l2.29-4.85.18-.02c.03-.06.06-.11.11-.14.04-.05.07-.11.11-.18l.47.22v.22s.02.02.03.03c.01,0,.02.01.03.02l-.18.47.19.09-.48,1.01.21.1-.08.17.21.1v.25s1.25.6,1.25.6l.1-.21.24.12.02.18.85.49.1-.21.45.22v.25s6.64,3.19,6.64,3.19l.1-.21.38.18.19-.4.27.02,1.18-2.49-.22-.11.75-1.58-.17-.08.29-.61-.21-.1.2-.42-1-.48.08-.17-1.21-.58.1-.21-.19-.09.3-.64.19.09.11-.23,2.82,1.35.09-.19.26.12.03.16c.09.04.17.1.24.16.06.06.13.1.21.14l-.2.42.21.1-.49,1.04-.21-.1-3.9,8.26-.14.04s-.06.09-.11.14c-.04.04-.08.08-.1.12l-.47-.22.11-.23-.19-.09.08-.17-.22-.11.58-1.22-.17-.08.08-.17-8.41-4.03.1-.21-1.55-.74-.11.23-.14.04s-.02.04-.02.05c-.01,0-.02,0-.03,0l-.28-.13-.85,1.81-.19-.09-.19.4-.64-.31.19-.4-.21-.1Zm12.05,5.97v-.2s.08-.19.08-.19l.16.07-.23.31Zm-8.9-11.26l.03.02-.11.27-.14-.07.21-.22Z"/>
    <path class="cls-5" d="m48.9,91.47l6.27-7.82.15.02s.05-.04.1-.07h-.01s.03,0,.05-.02l.52.42.14-.18.4.33-.02.18c.13.1.25.22.38.36.11.12.24.24.38.36l-.02.18c.07.06.13.12.17.19.04.07.1.13.18.2l-.12.15.19.16-.32.4-.34-.28-.14.18-.86-.7-.13.16-.36-.29-.29.36h-.15s-.48.51-.48.51c-.05.04-.11.11-.18.2-.07.07-.13.13-.17.18l-.18-.15-2.33,2.91.19.16-.02.18c.34.27.68.57,1.03.89.34.31.7.61,1.06.91v.19s.69.67.69.67l.14-.18.52.42.14-.18.21.07,1.72-2.14-.36-.29.14-.18-.33-.27.02-.15s-.09-.08-.17-.19c-.09-.12-.16-.21-.23-.26l.14-.18-.16-.13.04-.04.15.02s.06-.07.09-.08l3.35,2.72-.16.19-.18-.15-.14.18-.34-.28-.14.18-.34-.28-.14.18-.36-.29-.12.15-.15-.12-.42.52-.18-.15-1.23,1.53.33.27v.19s.04.05.06.08l-.15.25,3.75,3.05.14-.18.33.27.14-.18.25.08,2.69-3.36-.19-.16.55-.69-.15-.12.26-.33-.18-.15.14-.18-.36-.29v-.14s.03.01.03.01c-.08-.08-.16-.17-.24-.25-.07-.07-.14-.15-.2-.21-.06-.07-.11-.11-.14-.14l.16-.19-.52-.42v-.14s-.06-.07-.08-.1l.22-.27.15.02s.06-.05.13-.1l.39.31.14-.18,2.1,1.71-.02.18s.05.05.06.08l-.15.25.16.13-.26.33.18.15-.03.07-.18-.17-5.85,7.3h-.15s-.03.04-.04.05c-.02,0-.03,0-.04.02l-.25-.21-.07.09.06-.1-.18-.15.28-.34-.16-.13.42-.52-.19-.16.14-.18-.15-.12.12-.15-8.75-7.12-.26.33-.18-.15-.7.87-.16-.13-.14.18-.18-.15-.13.16-.19-.16v-.15s-.05-.16-.05-.16Zm8.45-2.84v.12s-.18.22-.18.22l-.15-.12.33-.23Z"/>
    <path class="cls-5" d="m73.01,72.85l.12-.19-1.17-1.55-.17.13-.4-.54-.17.13-.15-.2-.18.14-.16-.02c-.05.04-.11.07-.19.1-.07.02-.11.04-.15.06l-.16-.21-.18.14-.16-.05h.02s-.33.19-.33.19c-.09.05-.18.1-.27.16-.08.04-.13.07-.15.09l-.14-.18-2.13,1.63.15.2-.05.16c.05.06.07.12.09.18.02.05.05.1.09.15l-.21.16,2.88,3.82.2-.15.19.12,2.8-2.14-.13-.17.37-.28-.15-.2.2-.15-.14-.18.05-.13s-.03-.04-.03-.07c0-.03-.02-.05-.03-.07l.24-.19-.13-.17.05-.13-.31-.56Zm-9.29,1.02l.76-.58.14.06.66-.4-.13-.17.26-.2.19.12,1.89-1.44-.13-.17.41-.31.16.05c.26-.2.56-.41.88-.62.33-.22.64-.44.94-.67l.17.06c.08-.06.17-.11.25-.14.1-.04.18-.09.25-.14l.17.06s.02-.01.04,0c.03,0,.06-.02.09-.04l.15.2.2-.15.15.2.17-.13.14.06s.07-.04.15-.06l.17.23.18-.14.14.06s.08-.05.12-.07l.03-.02.32.43.17-.13.55.74.2-.15.73.97-.07.2c.06.08.11.17.15.27.04.1.09.19.15.27l-.05.16c.04.05.06.11.07.16.02.05.05.1.09.15l-.21.16.14.18-.05.16c.04.05.07.11.09.18s.04.12.07.16l-.37.28.14.18-.2.15.13.17-.37.28.16.21-.35.27.13.17-.35.27.13.17-.38.29.51.68.17-.13.16.21.38-.29.14.06s.07-.04.15-.06l.16.21.18-.14.14.06s.05-.02.13-.05l.17.23.18-.14.17.06s.02-.01.04,0c.03,0,.06-.02.09-.04l.3.4.2-.15.17.06s.06-.03.11-.04l.15.2.18-.14.3.4.18-.14.27.35.2-.15.17.06s.06-.03.11-.04l.3.4.2-.15.28.37.17-.13.28.37.37-.28.18.08c.05-.04.1-.06.16-.07.06-.03.11-.06.16-.1l.14.18.91-.7.15.2.18-.14.19.25-.06.17c.04.05.06.11.07.16.02.05.05.1.09.15l-2.09,1.59-.15-.2-.18.14-.15-.03s-.02.02-.03.02c-.02,0-.03,0-.04,0l-.2-.21-.18.14-.28-.37-.2.15-.15-.2-.17.13-.28-.37-.21.16-.15-.03s-.02.01-.04,0c-.02,0-.04,0-.06.02l-.32-.43-.17.13-.27-.35-.18.14-.29-.38-.18.14-.29-.38-.2.15-.28-.37-.17.13-.28-.37-.2.15-.27-.35-.37.28-.15-.2-.2.15-.27-.35-.18.14-.15-.2-.18.14-.15-.03c-.05.04-.11.07-.19.1-.07.02-.11.04-.15.06l-.16-.21-.2.15-.19-.12-1.31,1,.14.18-.14.23,3.09,4.1.2-.15.18.08c.05-.04.1-.06.16-.07.06-.03.11-.06.16-.1l.14.18,1.07-.81.15.2.38-.29.19.25-.06.14.02.13-3.93,3-.15-.03s-.02.01-.04,0c-.02,0-.04,0-.06.02l-.21-.28.05-.13c-.05-.06-.08-.11-.09-.15l.26-.2-.13-.17.53-.41-.15-.2.37-.28-7.04-9.35-.18.14-.17-.04s-.04.02-.06.02c-.02,0-.04,0-.06.02l-.17-.23-1.08.83-.16-.02s-.04.02-.06.02c-.02,0-.04,0-.06.02l-.22-.29.05-.13s-.03-.04-.03-.07c0-.03-.02-.05-.03-.07l.24-.19-.13-.17Zm1.08.82l-.03.02-.09-.05-.15-.2.14-.1.13.33Z"/>
    <path class="cls-5" d="m84.46,60.1l9.17-3.97.12.09s.06-.01.12-.01h-.02s.04.01.06,0l.26.62.21-.09.2.48-.1.15c.07.15.12.32.17.49.04.16.1.33.17.49l-.1.15c.04.08.06.16.06.25,0,.08.03.17.07.26l-.18.08.1.23-.47.21-.17-.41-.21.09-.44-1.03-.19.08-.18-.42-.42.18-.13-.07-.66.22c-.06.01-.15.04-.25.09-.1.03-.18.06-.24.08l-.09-.21-3.41,1.48.1.23-.1.15c.17.4.34.83.5,1.27.16.43.33.87.52,1.31l-.1.17.31.92.21-.09.26.62.21-.09.15.16,2.51-1.09-.18-.42.21-.09-.17-.39.09-.12s-.05-.11-.06-.25c-.02-.15-.05-.26-.08-.34l.21-.09-.08-.19.05-.02.12.09s.08-.03.11-.03l1.7,3.98-.23.1-.09-.21-.21.09-.17-.41-.21.09-.17-.41-.21.09-.18-.42-.18.08-.08-.18-.62.27-.09-.21-1.79.78.17.39-.1.17s.02.07.02.1l-.25.15,1.9,4.46.21-.09.17.39.21-.09.19.19,3.94-1.7-.1-.23.81-.35-.08-.18.39-.17-.09-.21.21-.09-.18-.42.08-.12v.02c-.03-.11-.06-.22-.09-.33-.03-.1-.05-.19-.08-.28-.02-.09-.04-.15-.06-.18l.23-.1-.26-.62.08-.12s-.03-.09-.04-.13l.32-.14.12.09s.08-.02.16-.03l.2.46.21-.09,1.07,2.5-.1.15s.02.07.02.1l-.25.15.08.19-.39.17.09.21-.06.05-.08-.24-8.56,3.7-.13-.07s-.04.02-.05.02c-.02,0-.03,0-.04,0l-.13-.3-.11.05.1-.06-.09-.21.4-.17-.08-.19.62-.27-.1-.23.21-.09-.08-.18.18-.08-4.44-10.41-.39.17-.09-.21-1.02.44-.08-.19-.21.09-.09-.21-.19.08-.1-.23.07-.13.04-.16Zm8.79,1.46l-.06.11-.26.11-.08-.18.4-.05Z"/>
    <path class="cls-5" d="m116.1,58.08l.1-.1-.11-1.19-.21.04-.27-1.52-.23.04-.12-.68-.19.03-.11-.65-.23.04-.04-.23-.23.04-.08-.44-.21.04-.04-.23-.24.04-.08-.46-.43.08-.11-.1s-.03,0-.04-.01c-.01-.01-.03-.01-.06,0l-.05-.27-.26.05-.11-.1s-.03,0-.04-.01l-.09-.32-.89.16-.11-.2-2.49.44.04.23-.13.12s0,.03-.01.04c0,.01,0,.03,0,.04l-.28.09,1.19,6.79-.19.03.19,1.06.19-.03.53,3.05.23-.04.12.15c.09-.02.18-.02.27,0,.11,0,.2,0,.29-.01l.11.2,1.62-.29-.04-.21.66-.12-.04-.25.68-.12-.03-.19.43-.08-.04-.23.43-.08-.08-.46.19-.03-.03-.19.24-.04-.04-.23.1-.1c0-.05,0-.12,0-.22,0-.09.01-.15,0-.18l.24-.04-.08-.44.09-.13c-.02-.1-.01-.19,0-.28.02-.1.02-.19,0-.29l.19-.03-.11-.65.23-.04-.23-1.33Zm-10.48-6.04l1.15-.2.12.21,2.69-.48-.04-.23h.04s.12.11.12.11c.33-.06.67-.1,1.03-.12.36-.04.72-.09,1.08-.15l.03.19.66-.12.12.14s.1,0,.18,0c.08,0,.14,0,.19-.01l.04.23.41-.07.12.15c.06-.01.12,0,.18,0,.06,0,.13,0,.19-.01l.1.12s.06,0,.14.01l.05.27.19-.03.1.12s.1,0,.18,0l.05.28.21-.04.1.12s.08,0,.16.01l.04.25.21-.04.12.14s.06,0,.14.01l.08.47.21-.04.12.14s.03,0,.06.03c.03,0,.05.02.08.02l.08.44.21-.04.12.66.23-.04.16.89.21-.04.19,1.06.24-.04.28,1.61-.15.12c.03.18.05.38.07.59.01.22.04.43.07.63l-.12.12c.02.09.02.19.01.29,0,.09,0,.18,0,.27l-.13.12c.02.1.02.2.02.31s0,.2.01.29l-.21.04.08.47-.13.12s0,.09-.01.16c0,.05,0,.1,0,.16l-.23.04.04.21-.13.14s0,.07,0,.1l-.26.08.04.21-.13.12c.01.06,0,.12,0,.18,0,.05,0,.11.01.17l-.47.08.04.23-.19.03.04.23-.12.12s0,.05,0,.08l-.51.09.05.27-.13.12s0,.03-.01.04c-.01.01-.01.03,0,.06l-1.34.24.04.23-5.9,1.05-.04-.23-.26.05-.11-.1s-.03,0-.04-.01c-.01-.01-.03-.01-.06,0l-.06-.32.45-.08-.04-.23.62-.11-.04-.21.43-.08-.04-.25.23-.04-1.45-8.31.1-.1-.14-1.44-.23.04v-.06s.09-.1.09-.1l-.02-.76-.23.04-.08-.46-.24.04-.11-.1c-.1.02-.2.02-.29.01-.08-.02-.17-.03-.25-.01l-.04-.23-.87.15-.04-.21-.23.04-.05-.28.23-.04-.03-.19.1-.11.07-.15Z"/>
    <path class="cls-5" d="m128.21,49.07l9.97.57.07.14s.06.02.11.05h-.02s.03.02.06.02l-.04.67h.23s-.03.53-.03.53l-.16.09c0,.17-.03.34-.07.52-.03.17-.06.34-.07.52l-.16.09c0,.09-.02.17-.05.25-.03.08-.05.16-.05.27h-.19s-.01.24-.01.24l-.52-.03.02-.44h-.23s.06-1.13.06-1.13h-.21s.03-.47.03-.47l-.46-.03-.09-.12-.68-.1c-.06-.02-.15-.03-.27-.03-.1-.02-.18-.03-.25-.03v-.23s-3.69-.21-3.69-.21v.25s-.17.09-.17.09c-.02.44-.06.89-.12,1.36-.05.46-.09.93-.12,1.4l-.16.11-.13.96h.23s-.04.69-.04.69h.23s.06.23.06.23l2.73.16.03-.46h.23s.02-.41.02-.41l.14-.07s0-.12.05-.25c.05-.14.07-.25.08-.34h.23s.01-.2.01-.2h.06s.07.14.07.14c.05,0,.09.01.11.03l-.24,4.33h-.25s.01-.25.01-.25h-.23s.02-.46.02-.46h-.23s.02-.46.02-.46h-.23s.03-.47.03-.47h-.19s.01-.2.01-.2l-.67-.04v-.23s-1.94-.11-1.94-.11l-.02.42-.16.11s-.01.07-.02.1l-.29.02-.27,4.85h.23s-.02.44-.02.44h.23s.08.27.08.27l4.28.25v-.25s.89.05.89.05v-.19s.43.02.43.02v-.23s.24.01.24.01l.03-.46.12-.07v.02c.02-.11.04-.23.06-.34.02-.1.04-.2.05-.29.02-.09.03-.15.03-.19h.25s.04-.66.04-.66l.12-.07c0-.05.01-.1.03-.13l.34.02.07.14s.08.02.15.05l-.03.5h.23s-.15,2.73-.15,2.73l-.16.09s-.01.07-.02.1l-.29.02v.21s-.43-.02-.43-.02v.23s-.09.01-.09.01l.03-.25-9.3-.53-.09-.12s-.04,0-.06,0c-.01-.01-.02-.02-.04-.02l.02-.33h-.11s.12-.02.12-.02v-.23s.45.03.45.03v-.21s.68.04.68.04v-.25s.24.01.24.01v-.19s.2.01.2.01l.64-11.31-.42-.02v-.23s-1.1-.06-1.1-.06v-.21s-.22-.01-.22-.01v-.23s-.2-.01-.2-.01v-.25s.13-.09.13-.09l.1-.13Zm7.21,5.26l-.1.07-.29-.02v-.19s.39.14.39.14Z"/>
    <path class="cls-5" d="m150.56,51.08l.9.27.05.18c.28.08.57.18.87.3.3.12.61.22.92.32l.04.15s.06.03.1.07h-.02s.02.02.05.03l-.13.44.18.05-.13.44.24.07-.12.41.2.06.04.15s.07.03.14.08l-.2.68.18.05-.13.44.22.07.04.15s.07.03.14.08l-.14.48.18.05-.13.42.24.07-.12.42.2.06-.13.44.22.07.04.15s.05.03.12.08l-.08.26.26.08-.12.42.18.05-.12.42.22.07-.12.42.22.07.04.15s.07.03.14.08l-.14.48.18.05-.05.18.22.07-.13.42.22.07-.13.42.18.05.05.18s.05.03.12.08l-.08.26.22.07-.13.42.42.13.05.18.49.23,1.68-5.71-.22-.07.51-1.72-.22-.07.13-.44-.24-.07-.06-.14h.02s-.32-.13-.32-.13c-.08-.04-.16-.08-.25-.11-.07-.03-.12-.05-.14-.06l.07-.22-.42-.13.06-.2-.42-.13.14-.46.14-.06s.03-.09.06-.12l4.13,1.23.05.16s.03,0,.05.03c.02.03.04.05.06.06l-.15.52-.16.05s-.02.05-.05.09l-.5-.15-.07.22-.42-.13-.32,1.07-.15.04-.36.96.2.06-.19.65-.23.05-1.34,4.54.2.06-1.34,4.56-.16.05s-.01.02-.03.03c-.02,0-.03.03-.03.05l-.44-.13-.07.22-.29-.09.07-.22-.2-.06-.06-.14s-.02,0-.04-.01c0-.02-.02-.03-.03-.03l.06-.32-.22-.07.11-.39-.22-.07.13-.44-.2-.06.12-.41-.24-.07.13-.44-.18-.05.12-.41-.2-.06.13-.44-.22-.07.2-.68-.2-.06.05-.18-.22-.07.18-.63-.2-.06.07-.22-.24-.07.13-.44-.2-.06-.06-.14s-.02,0-.04-.01c0-.02-.02-.03-.03-.03l.11-.51-.2-.06.13-.42-.26-.08.13-.42-.2-.06.07-.22-.22-.07.12-.42-.2-.06.12-.41-.22-.07.13-.44-.2-.06.07-.22-.18-.05.13-.42-.24-.07.13-.42-.2-.06.12-.42-.24-.07-.06-.14s-.04-.01-.06-.02c0-.02-.02-.03-.03-.03l.16-.54-.42-.13.05-.18-.61-.18-.13.44h-.22s-1.78,6.05-1.78,6.05l.2.06-.57,1.92.22.07-.13.44.22.07.05.18c.09.03.17.06.25.11.09.05.18.1.28.12l-.05.18.83.25.04.19s.05.03.12.08l-.07.24.18.05-.14.48-1.23-.37-.06.2-3.01-.9-.08-.14s-.11-.05-.17-.09c-.07-.05-.11-.07-.14-.08l.15-.5.22.07.06-.2.13-.04s.02-.05.04-.07c.02-.03.04-.06.05-.09l.29.09.05-.18.18.05.07-.22.44.13,3.13-10.64-.22-.07.07-.22-1.06-.32.06-.2-.2-.06.2-.68.13-.04.14-.12Zm-4.19,12.86l.39.02-.05.17-.34-.18Z"/>
    <path class="cls-5" d="m187.5,72.95l.58.47-.12.15.69.55-.02.18c.2.16.41.34.62.55.21.2.43.4.66.58l-.02.18s.07.06.08.09l-.18.23.18.14-.55.69.18.14-.47.59-.18-.02c-.06.08-.13.15-.21.2-.08.05-.14.12-.2.19l-.75-.6.26-.33-.18-.14.3-.38-.15-.12.41-.51-.18-.14.16-.2-.54-.43.07-.21-2.17-1.75-.13.17-.34-.28-.17.21h-.16s-.04.03-.06.04l-.24-.19-.29.36-.15-.12-.69.87.15.12-.26.33.19.16-.02.18s.04.05.07.1l-.17.21.51.41-.13.17,1.25,1.01-.02.15c.15.12.3.26.45.42.15.16.31.3.48.44l-.02.18s.11.1.17.19c.06.08.14.16.21.22l-.02.18s.09.09.11.14c.04.05.09.1.14.14l-.16.2.34.28-.13.17.16.13-.02.18s.04.05.08.11l-.16.2.18.14-.03.2s.04.05.08.11l-.43.54.15.12-.73.92-.15-.12-.17.21-.18-.02s-.02.02-.04.02c-.02,0-.03.01-.05.03l-.21-.17-.3.38-.18-.02s-.02.02-.04.02c-.02,0-.03.01-.05.03l-.19-.16-.14.18-.34-.28-.16.2-.19-.03s-.02.02-.04.02c-.02,0-.03.01-.05.03l-.39-.31-.16.2-1.02-.82-.12.15-1.28-1.04.12-.15-1.02-.82.16-.2-.49-.4-.16.2-.57-.46.16-.2-.19-.16v-.15s-.02-.02-.03-.02c0-.02,0-.03-.02-.04l.16-.26-.18-.14.56-.71-.15-.12.16-.2.15.12.42-.53-.04-.04.06.02.27-.35.18.14.16-.2.39.31-.02.18s.04.05.08.11l-.17.21.18.14-.42.53.18.14-.27.35.18.14-.02.18s.05.05.06.08l-.18.23.36.29-.02.18s.08.08.1.13c.03.04.08.09.14.14l-.16.2,2.24,1.81.14-.18.34.28.14-.18.36.29.14-.18.15.12.26-.33.18.14,1.11-1.4-.19-.16v-.15s-.07-.07-.11-.14c-.03-.06-.06-.1-.08-.11l.16-.2-.52-.42.13-.17-.7-.57.14-.18-1.4-1.13v-.15c-.06-.05-.13-.11-.21-.2-.07-.09-.13-.17-.18-.24l.16-.2-.34-.28.12-.15-.36-.29.16-.2-.18-.14v-.15s-.02-.02-.03-.02c0-.02,0-.03-.02-.04l.17-.28-.16-.13.25-.32-.18-.14.29-.36-.18-.14.48-.6.15.02c.04-.05.07-.09.1-.12.04-.03.08-.06.13-.1l.21-.17.18.14.14-.18.16.13.14-.18.18.14.14-.18h.14s.03-.02.05-.02c.02,0,.03-.01.05-.03l.24.19.14-.18h.14s.04-.02.06-.04c.03-.01.05-.03.06-.05l.39.31.14-.18.36.29.14-.18,1.03.83.12-.15Zm-4.78,3.11s-.02.01-.03,0c0,0,0,0,.01-.02h.02Zm5.61,1.64l-.32.21-.03-.02.23-.29.12.1Z"/>
    <path class="cls-5" d="m203.86,82.65l.47.56-.05.15c.05.06.08.11.08.16.02.05.06.1.11.16l-.21.17.16.19-.15.12.14.16-.75.63-.16-.04s-.02.01-.04.01c-.02,0-.04,0-.06.02l-.18-.22-.21.17-.12-.15-.16.14-.18-.07s-.05.03-.13.06l-.33-.4-.16.14-.17-.21.03-.15c-.07-.08-.11-.16-.14-.23-.02-.08-.06-.17-.13-.24l.19-.16-.16-.19.15-.12-.14-.16.75-.63.13.04s.1-.07.19-.11c.08-.04.14-.07.16-.08l.17.21.15-.12.12.15.19-.16.29.35.16-.14Zm-3.56,2.74l.3.35-.04.19s.07.1.1.15c.03.06.06.12.08.18l-.51.43.16.19-.21.17-.22-.14-5.57,4.71.16.19-.16.14.28.34-.06.17c.36.43.71.87,1.04,1.31.34.45.71.91,1.11,1.4l-.05.15c.06.07.09.13.09.17.01.06.05.12.11.19l-.41.35-.18-.07s-.02.01-.04.01c0,0-.02.02-.03.02l-.34-.34-.16.14-.49-.59.11-.19-4.78-5.74-.15.12v-.17s-.08-.1-.11-.17c-.03-.08-.05-.12-.07-.14l.57-.48.15.03s.08-.06.12-.07l1.49,1.79.18-.15.28.34.16-.14.3.35,5.45-4.61-.44-.53.19-.16-1.25-1.51-.19.16-.32-.38.19-.16-.15-.18.03-.15s-.02-.02-.04-.02c0,0,0,0-.01-.01-.02-.02,0-.06.07-.13.07-.08.13-.13.18-.18l.16.19.18-.15,1.13,1.36.15-.12,1.3,1.56.19-.16Zm-10.12,2.9l.26.08.18.22-.12.1-.33-.4Z"/>
    <path class="cls-5" d="m205.02,101.7l.11.2-.78.41.11.2-.37.2.1.19-.11.17s.02.06.02.12v-.02s-.01.04,0,.06l-.42.22.09.17-.09.16s.02.07.04.15l-.24.13.1.19-.19.1.21.39-.09.16c.11.22.21.43.3.65.09.23.2.47.33.72l-.08.13.28.7.19-.1.42.8.2-.11.21.41.19-.1.11.2.2-.11.09.17,1.79-.95.12.22,3.1-1.65-.12-.22.81-.43-.2-.37.2-.11-.22-.43.06-.14c-.05-.09-.08-.18-.09-.26,0-.09-.03-.17-.07-.27l.22-.12-.92-1.75-.22.12-.32-.61-.19.1-.21-.39-.2.11-.21-.41-.39.21-.09-.17-.24.13-.16-.09s-.03,0-.04,0c-.01,0-.02.01-.03.02l-.17-.24-.41.22-.16-.09c-.08.04-.17.08-.27.1-.1.03-.19.06-.27.1l-.16-.09-1.86.9Zm12.92,1l.33.63-.57.31.09.17-.44.23-.09-.17-1.17.62.09.17-.22.12-.09-.17-9.07,4.82.09.17-.41.22.54,1.02-.19.1.21.41-.46.24-.16-.09s-.03,0-.04,0c-.01,0-.02.01-.03.02l-.49-.85-.19.1-.3-.58-.22.12-.45-.85.22-.12-.7-1.33-.22.12-.42-.8-.19.1-1.19-2.27.06-.14s-.03-.09-.05-.17c0-.07-.02-.11-.03-.14l.24-.13-.22-.43.06-.14s-.02-.02-.03-.03c0,0,0,0,0-.02,0-.01,0-.02,0-.02.01,0,.01-.01,0-.03l.27-.19-.19-.36.19-.1-.12-.22.2-.11-.11-.2.06-.14s-.02-.02-.03-.03c0,0,0,0,0-.02,0-.01,0-.02,0-.02.01,0,.01-.01,0-.03l.46-.29-.09-.17.22-.12-.11-.2.42-.22-.11-.2.76-.4-.11-.2,2.01-1.07.11.2.61-.32.12.07c.1-.05.22-.1.37-.13l.2-.07.12.22.42-.22.09.17.17-.09.12.22.2-.11.14.06s.09-.04.13-.05l.15.29.2-.11.09.17.2-.11.12.07s.09-.04.13-.05l.25.48.19-.1.21.39.22-.12.21.41.19-.1,1.49,2.84-.08.13.38.89.58-.31.12.22.76-.4-.12-.22.83-.44.12.22.95-.5-.12-.22.39-.21-.31-.6.06-.14-.22-.54c-.02-.06-.05-.13-.09-.21-.02-.07-.05-.14-.08-.2l.44-.23.12.22.22-.12.21.39.19-.1.51.97.22-.12.33.63.17-.09Z"/>
    <path class="cls-5" d="m217.38,125.19l.06.2.61-.17-.06-.2.41-.11-.07-.24.12-.13s0-.03,0-.04c0-.02,0-.04,0-.06l.28-.08-.07-.24.42-.12-.12-.45.09-.12s0-.03,0-.04,0-.04,0-.06l.3-.08-.19-.69.18-.13-.55-2.01-.2.06-.12-.45-.26.07-.13-.12s-.03,0-.04,0c-.02,0-.04,0-.06,0l-.07-.26-.22.06-.15-.12s-.07.01-.1,0l-.07-.24-.24.07-.12-.15s-.06-.01-.08-.02c-.01,0-.04.01-.07.02l-.07-.24-.41.11-.18-.21-1.35.37,1.06,3.88.18-.05.54,1.95.24-.07.06.22.42-.12Zm2.32-5.08l.73,2.66-.12.13c.02.06.02.12,0,.18,0,.05.01.11.03.17l-.12.13s.01.1,0,.16c0,.07.02.13.03.19l-.22.06.07.24-.12.13s.02.1,0,.16c0,.07,0,.13,0,.18l-.22.06.06.22-.11.11s.02.09.01.12l-.28.08.07.24-.44.12.06.2-.12.13s0,.08,0,.16l-.48.13.06.2-.63.17.06.22-1.38.39-.13-.12s-.05,0-.08,0l-.19-.71-.22.06-1.55-5.65-.22.06-.3-1.1-.22.06-.05-.19-1.01.28.05.19-.44.12.07.24-.44.12.06.2-.11.11s.02.09.02.14v.04s-.27.08-.27.08l.05.19-.12.13s.01.1,0,.18c0,.08.02.14.03.19l-.24.07.12.45-.2.06.23.85-.2.15.56,2.04.22-.06.36,1.3.2-.06.18.65.22-.06.17.63.22-.06.14.5-.12.13s0,.06,0,.14l-.3.08-.15-.12s-.04,0-.06,0c-.02,0-.04,0-.06,0l-.07-.26-.22.06-.12-.43-.2.06-.12-.45-.22.06-.24-.87-.2.06-.23-.85-.24.07-.3-1.08-.2.06-.5-1.82.09-.12v.02s-.05-.34-.05-.34c-.01-.1-.03-.2-.04-.29,0-.08-.02-.14-.03-.17l.24-.07-.18-.67.09-.12s-.01-.1,0-.18c0-.07,0-.12,0-.14l.24-.07-.07-.24.2-.06-.06-.2.22-.06-.12-.45.09-.12s0-.03,0-.04,0-.04,0-.06l.48-.13-.07-.24.24-.07-.06-.2.46-.13-.07-.24,1.07-.3-.05-.19,1.55-.43.05.19,1.07-.3.07.24.41-.11.12.09s.11-.02.19-.01c.08,0,.14,0,.18,0l.07.26.44-.12.1.09s.05,0,.08,0c.03,0,.05,0,.08,0l.08.28.22-.06.06.2.44-.12.1.09s.09-.02.13-.02l.09.32.2-.06.11.41.24-.07.12.45.2-.06.12.43.2-.06.12.45.22-.06Z"/>
    <path class="cls-5" d="m223.63,142.98l.07,1.62-.15.1s-.01.06-.03.14h-.25s.02.43.02.43l-.15.1c0,.06,0,.12-.03.17,0,.06-.01.13-.01.19h-.25s0,.24,0,.24h-.19s0,.22,0,.22l-.15.1s-.01.06-.03.14l-.5.02v.25s-.68.03-.68.03v.23s-6.24.26-6.24.26v.21s-.14.1-.14.1c0,.18,0,.35-.02.52-.02.17-.02.34-.02.52l-.13.1c0,.05,0,.1-.03.16-.02.07-.03.12-.03.18l-.75.03-.02-.42h-.21s-.06-1.42-.06-1.42l.11-.1c-.02-.39-.01-.75.01-1.1.01-.35,0-.69,0-1.04l.5-.02v.23s.24,0,.24,0v.21s.24,0,.24,0v.23s.24,0,.24,0l.08.11c.39-.02.82-.02,1.26-.01.45.02.89.02,1.34,0v.21s2.4-.1,2.4-.1v-.21s1.12-.05,1.12-.05v-.21s.47-.02.47-.02v-.23s.18,0,.18,0v-.21s.24-.01.24-.01v-.25s.1-.1.1-.1c0-.04,0-.1.03-.19.02-.08.03-.13.03-.16h.27s-.08-1.96-.08-1.96h-.25s-.02-.45-.02-.45h-.21s-.03-.66-.03-.66h-.25s-.02-.45-.02-.45h-.19s-.03-.67-.03-.67l-.5.02-.1-.15c-.32.01-.64.01-.96,0-.31-.01-.62-.01-.94,0l-.11-.23-2.75.12v.23s-1.33.06-1.33.06v.23s-.14.1-.14.1c0,.17,0,.33-.02.5-.02.18-.02.36-.02.54l-.13.08c0,.06,0,.12-.03.18-.02.07-.03.13-.03.19h-.25s0,.24,0,.24h-.27s0-.22,0-.22h-.23s-.16-3.86-.16-3.86h.23s-.01-.26-.01-.26l.07-.06v.08s.42-.02.42-.02v.23s.24,0,.24,0l.02.44h.23s.09.22.09.22l7.03-.3v-.25s.1-.1.1-.1c0-.23,0-.47,0-.71.03-.23.04-.49.03-.77h.25s0-.22,0-.22h.25s.08.1.08.1c.01,0,.03,0,.06,0,.04,0,.07,0,.1.02l.02.54h.23s.05,1.13.05,1.13h.19s.04.94.04.94h-.19s0,.24,0,.24l-.15.1c0,.05,0,.09-.01.12l-.48.02.05,1.29h.19s0,.22,0,.22h.23s.02.45.02.45h.23s.04.89.04.89h.19s.03.67.03.67h.25Zm-9.55,1.48l.16.22v.27s-.14,0-.14,0l-.02-.5Zm-.04-6.92h-.25c.05.03.07.05.06.07-.01.01-.02.03-.02.06h-.04s-.02-.38-.02-.38l.26.26Zm.09,4.55l-.14.31h.02s-.03-.31-.03-.31h.15Z"/>
    <path class="cls-5" d="m223.43,180.8l-.16.43-.18.04s-.04.07-.09.13l-.23-.09-.07.18-5.85-2.17.07-.18-.59-.22-.07.18-.66-.25.07-.18-.57-.21-.07.18-.68-.25.07-.18-.97-.36-.07.18-.47-.17.07-.18-2.05-.76-.07.18-.41-.15-.08.22-.15.03s-.03.05-.08.11l-.27-.1-1.15,3.15-.18-.07-.08.22-.66-.25,2.76-7.56.18.07.16-.43.48.18-.08.22.18.07-.76,2.08.23.09-.15.42.2.07-.08.22,3.7,1.37.08-.22.48.18-.08.22,2.84,1.05.08-.22,1.51.56-.08.22,2.66.98.08-.22.18.07.59-1.61-.18-.07.47-1.28.4.15.08-.22.27.1-.08.22.18.07-.07.18.23.09-.84,2.3.2.07-.39,1.07.22.08Zm-11.56-7.57l-.27.06-.27-.1.05-.14.48.18Z"/>
    <path class="cls-5" d="m211.7,193.41l-.12.2-.75-.46-.12.2h-.18s-.04.06-.07.07l-.42-.26-.12.2h-.16s-.04.05-.1.11l-.24-.15-.22.36h-.15c-.04.06-.08.11-.13.14-.04.05-.08.1-.12.15l-.21-.13-1,1.64.2.12-.25.41.18.11-.12.2.21.13-.1.16.18.11-.24.39.36.22-.12.2.21.13-.11.18.18.11-.05.22,2.72,1.68.11-.18.39.24.11-.18.36.22.12-.2.39.24.11-.18.2.12.13-.21.16.1.23-.38h.16c.05-.1.11-.18.18-.24.07-.05.14-.11.19-.2l.2.12.68-1.12-.2-.12.22-.36-.2-.12.24-.39-.16-.1.22-.36-.21-.13v-.17s-.03-.02-.03-.04c0-.02-.02-.03-.04-.05l.15-.25-.38-.23.1-.16-.21-.13v-.18c-.18-.11-.34-.23-.5-.35-.16-.13-.33-.25-.52-.37v-.18s-1.33-.91-1.33-.91Zm3.56,5.25l-.49.8h-.18c-.05.09-.12.17-.19.24-.07.07-.14.15-.19.24h-.15c-.05.07-.1.14-.17.2-.07.07-.14.16-.19.24h-.18c-.03.06-.07.09-.11.11-.05.03-.09.07-.12.13h-.15s-.04.04-.1.09l-.23-.14-.24.39h-.15s-.05.05-.11.11l-.42-.26-.11.18-.16-.1-.12.2-.39-.24-.11.18-.36-.22-.12.2-.39-.24-.11.18-.95-.58-.12.2-3.08-1.9v-.18c-.1-.06-.2-.14-.31-.23-.1-.09-.2-.17-.31-.23l.11-.18-.77-.47v-.18c-.11-.07-.22-.15-.32-.24-.1-.09-.2-.17-.31-.23l-.03-.18s-.09-.07-.13-.12c-.04-.04-.08-.07-.12-.1l.13-.21-.39-.24.11-.18-.2-.12v-.18c-.06-.03-.1-.07-.13-.12-.03-.03-.07-.06-.12-.1l.12-.2-.21-.13v-.2s-.06-.06-.1-.11c-.04-.04-.08-.07-.12-.1l.12-.2-.21-.13.1-.16-.2-.12v-.18s-.02-.02-.02-.04c-.01,0-.02-.01-.03-.02l.12-.27-.16-.1-.02-.19s-.06-.04-.07-.07l.1-.23-.18-.11.25-.41-.2-.12.22-.36-.2-.12.24-.39-.16-.1.24-.39-.2-.12.33-.54-.18-.11.47-.77-.21-.13v-.06s.23.16.23.16l.47-.77.6.37-.24.39.18.11-.46.76.2.12-.34.56.16.1-.34.56.21.13-.23.38.18.11-.24.39.38.23-.12.2.2.12-.24.39.18.11v.14s.05.03.06.06c.02.02.03.04.06.06l-.15.25.38.23-.1.16.39.24-.13.21.36.22v.14s.1.07.17.14c.06.07.1.11.13.12l-.13.21.38.23-.11.18,1.45.9.31-.51-.16-.1.24-.39-.2-.12.22-.36-.18-.11.25-.41-.21-.13,1.05-1.72.21.13.37-.61.15-.02c.03-.05.08-.1.13-.14.05-.03.08-.06.1-.09l.21.13.11-.18.16.1.13-.21.21.13.12-.2.15-.02s.01-.02.02-.03c.02,0,.03-.01.04-.02l.25.11.1-.16.39.24.13-.21.38.23.11-.18.38.23.1-.16.59.36.12-.2,1.73,1.07-.12.2.57.35-.1.16.57.35v.14s.1.07.17.14c.06.07.1.11.13.12l-.14.23.16.1-.1.16.39.24-.12.2.18.11-.24.39.2.12v.14s.04.03.04.05c0,.02.02.03.04.05l-.26.43.21.13-.23.38.18.11-.57.94.2.12Zm-11.2-10.62l.04.3-.14.23-.16-.1.26-.43Z"/>
    <path class="cls-5" d="m201.29,208.75l-.16.17-.65-.6-.16.17-.18-.03s-.05.05-.08.06l-.36-.34-.16.17-.16-.02s-.05.03-.12.07l-.21-.2-.29.31-.15-.04c-.05.06-.1.09-.16.11-.05.04-.1.08-.14.13l-.18-.17-1.3,1.41.17.16-.32.35.15.14-.16.17.18.17-.13.14.15.14-.31.34.31.29-.16.17.18.17-.14.16.15.14-.09.21,2.34,2.19.14-.16.34.31.14-.16.31.29.16-.17.34.31.14-.16.17.16.17-.18.14.13.3-.33.16.02c.07-.08.14-.14.22-.19.08-.03.15-.08.22-.16l.17.16.88-.96-.17-.16.29-.31-.17-.16.31-.34-.14-.13.29-.31-.18-.17.02-.16s-.01-.02-.02-.04c0-.02-.01-.04-.03-.05l.19-.21-.32-.3.13-.14-.18-.17.03-.18c-.15-.14-.29-.29-.42-.45-.13-.16-.28-.31-.44-.46l.03-.18-1.13-1.16Zm2.47,5.85l-.64.69-.18-.03c-.07.08-.15.14-.24.2-.09.06-.17.12-.24.2l-.15-.04c-.06.07-.13.12-.21.17-.09.06-.17.12-.24.2l-.18-.03s-.09.08-.13.09c-.05.02-.1.05-.15.1l-.15-.04s-.05.03-.12.07l-.2-.18-.31.34-.15-.04s-.06.05-.13.09l-.36-.34-.14.16-.14-.13-.16.17-.34-.31-.14.16-.31-.29-.16.17-.34-.31-.14.16-.81-.76-.16.17-2.65-2.47.03-.18c-.08-.08-.17-.18-.25-.29-.08-.11-.16-.2-.25-.29l.14-.16-.66-.62.03-.18c-.09-.09-.18-.19-.27-.3-.08-.11-.16-.2-.25-.29v-.18s-.06-.08-.09-.15c-.03-.04-.06-.08-.1-.12l.17-.18-.34-.31.14-.16-.17-.16.03-.18s-.08-.09-.1-.15c-.02-.04-.05-.08-.1-.12l.16-.17-.18-.17.05-.19s-.06-.07-.09-.13c-.03-.04-.06-.08-.1-.12l.16-.17-.18-.17.13-.14-.17-.16.03-.18s-.01-.02-.02-.04c0,0-.02-.02-.03-.03l.17-.24-.14-.13.02-.19s-.05-.05-.06-.08l.14-.21-.15-.14.32-.35-.17-.16.29-.31-.17-.16.31-.34-.14-.13.31-.34-.17-.16.43-.47-.15-.14.61-.66-.18-.17.02-.06.18.2.61-.66.52.48-.31.34.15.14-.6.65.17.16-.44.48.14.13-.44.48.18.17-.3.33.15.14-.31.34.32.3-.16.17.17.16-.31.34.15.14-.02.14s.03.04.04.07c.01.03.02.05.04.07l-.19.21.32.3-.13.14.34.31-.17.18.31.29-.02.14s.08.09.13.17c.05.08.08.13.1.15l-.17.18.32.3-.14.16,1.25,1.17.4-.44-.14-.13.31-.34-.17-.16.29-.31-.15-.14.33-.35-.18-.17,1.37-1.48.18.17.48-.52h.15s.1-.08.16-.11c.05-.02.09-.04.12-.07l.18.17.14-.16.14.13.17-.18.18.17.16-.17h.15s.02-.01.03-.02c.02,0,.03,0,.04-.01l.22.15.13-.14.34.31.17-.18.32.3.14-.16.32.3.13-.14.51.47.16-.17,1.49,1.39-.16.17.49.46-.13.14.49.46-.02.14s.08.09.13.17c.05.08.08.13.1.15l-.18.2.14.13-.13.14.34.31-.16.17.15.14-.31.34.17.16-.02.14s.03.04.03.05c0,.02.01.04.03.05l-.34.37.18.17-.3.33.15.14-.74.81.17.16Zm-8.91-12.62l-.02.3-.18.2-.14-.13.34-.37Z"/>
    <path class="cls-5" d="m184.87,217.25l-.19.13-.52-.74-.19.13-.27-.38-.19.13-.26-.36-.16.11-.12-.17-.2.15-.17-.07s-.06.03-.12.04l-.14-.2-.54.39-.17-.07c-.05.04-.14.08-.26.14l-.25.11-.11-.16-1.04.75.11.16-.54.39.14.2-.36.26.12.17-.36.26.13.19-.19.13.12.17-.17.12.26.36-.19.13.13.19-.04.15c.07.09.13.19.19.29.06.11.14.25.22.41l-.06.14.49.85.17-.12.51.72.17-.12.27.38.19-.13.26.36.17-.12.11.16.19-.13.14.2.36-.26.16.03c.05-.04.11-.06.18-.08.07-.02.12-.04.15-.06l.14.04s.1-.05.16-.07c.07-.02.13-.04.18-.08l.16.22,1.2-.87-.14-.2.73-.53-.11-.16.34-.25-.13-.19.05-.16s-.02-.05-.05-.13l.23-.17-.11-.16.16-.11-.26-.36.06-.18c-.04-.05-.06-.11-.07-.16-.02-.05-.05-.1-.09-.15l.2-.15-.4-.56.07-.17-.47-.8Zm-.58,9.43l-.19.14.62.88.19-.14.52.74.19-.14.14.04s.02-.02.03-.02c.02,0,.03,0,.04,0l.32.38.19-.13.16.05s.09-.05.16-.07c.08-.02.13-.04.15-.06l.14.2.37-.27.18.13,1.51-1.09-.12-.17.36-.26-.13-.19.36-.26-.14-.2.07-.17s-.02-.05-.03-.07l.22-.16-.14-.2.08-.18c-.06-.08-.1-.17-.14-.26-.02-.08-.06-.15-.11-.23l.16-.11-1.14-1.6-.16.11-.28-.39-.2.15-.11-.16-.17.12-.14-.06s-.07.03-.15.06l-.17-.23-.16.11-.14-.06c-.06.04-.12.07-.18.08-.06.03-.12.06-.17.1l-.15-.2-.53.38-.12-.17-1.03.74.12.17-.39.28.13.19-.36.26.12.17-.36.26.27.38-.19.13.25.34-.17.12.39.55Zm5.16,1.49l-1.29.93-.12-.17-.75.54-.17-.07c-.05.04-.1.06-.15.06-.05.02-.1.05-.15.09l-.13-.19-.37.27-.17-.07s-.02.02-.04,0c-.04,0-.06,0-.08.01l-.13-.19-.19.13-.26-.36-.17.12-.18-.08s-.05.02-.13.05l-.26-.36-.17.12-.27-.38-.19.13-1.07-1.5.07-.17s-.05-.09-.07-.16c-.03-.07-.06-.12-.08-.15l.19-.14-.27-.38.07-.17s0-.02,0-.04c0-.01-.01-.02-.02-.03l.19-.19-.14-.2.07-.17s-.02-.05-.03-.07l.22-.16-.13-.19.04-.17s-.02-.04-.02-.06c0-.02,0-.04-.02-.06l.23-.17-.48-.67-.19.13-.17-.07s-.05.02-.13.05l-.14-.2-.36.26-.18-.08s-.08.05-.1.05l-.16-.22-.19.13-.17-.07s-.06.03-.12.04l-.13-.19-.19.13-.27-.38-.17.12-.11-.16-.19.13-.27-.38-.17.12-.51-.72-.2.15-.56-.78.08-.18c-.08-.11-.15-.23-.2-.35-.05-.11-.11-.22-.19-.34l.04-.17c-.04-.05-.06-.11-.07-.16-.02-.05-.05-.1-.08-.15l.2-.15-.11-.16.17-.12-.16-.22.07-.17s0-.02,0-.04c0-.02,0-.04-.02-.06l.2-.15-.14-.2.07-.17s-.02-.05-.03-.07l.22-.16-.16-.22.07-.17s0-.02,0-.04c0-.02,0-.04-.02-.06l.2-.15-.13-.19.37-.27-.13-.19.34-.25-.11-.16,1.1-.8-.13-.19.57-.42.13.19,1.24-.9.11.16.37-.27.16.05s.09-.05.16-.07c.08-.02.13-.04.15-.06l.14.2.19-.13.16.03s.04-.02.06-.02c.02,0,.04,0,.06-.02l.18.25.17-.12.11.16.17-.12.13.19.19-.14.27.38.19-.13.25.34.17-.12.14.04s.02-.02.03-.02c.02,0,.03,0,.04,0l.73.96.19-.13.16.22-.05.13c.1.15.19.3.25.46.07.16.15.31.25.46l-.19.13.26.36-.16.11.26.36-.19.13.13.19-.06.14s.02.05.03.07c0,.03.01.05.03.07l-.22.16.11.16-.36.26.13.19-.19.14.12.17-.05.13s.05.08.06.12v.04s-.23.17-.23.17l.12.17-.36.26.37.52.19-.13.11.16.17-.12.13.19.2-.15.14.04s.02,0,.04,0c.02,0,.04,0,.06-.02l.18.25.37-.27.25.34.19-.14.16.05s.02,0,.04,0c.02,0,.04,0,.06-.02l.4.56.19-.13.41.58.19-.13.41.58-.19.13.39.55-.06.14.15.32c.04.1.07.17.1.21l-.05.13c.04.05.06.11.08.18.02.07.04.13.08.18l-.06.14s.05.08.06.12l-.25.18.13.19-.19.14.11.16-.36.26.14.2-.17.12.12.17-.56.4.13.19-.51.37.12.17Z"/>
    <path class="cls-5" d="m156.86,235.98l-1.76.46-.15-.2-3.31.87.06.22-1.3.34-.13-.12s-.06,0-.14,0l-.06-.22-.2.05-.18-.69.1-.15c-.02-.06-.02-.12,0-.18,0-.05,0-.11-.02-.17l.87-.23-.05-.21,6.26-1.64.12.09s.02,0,.04,0c.02,0,.03.01.04,0l.11.27.2-.05.24.93-.09.1s0,.05,0,.06c0,.02-.01.04,0,.06l-.69.18.06.22Z"/>
  </g>
</svg>