<svg width="407" height="432" viewBox="0 0 407 432" fill="none" xmlns="http://www.w3.org/2000/svg">
<path opacity="0.5" d="M91.328 127.328L202.762 161.745L145.966 330.546L63.4412 305.043L91.328 127.328Z" fill="#FFEFCF"/>
<path opacity="0.95" d="M85.8756 162.054L191.63 194.737L145.966 330.546L63.4412 305.043L85.8756 162.054Z" fill="#D5A537"/>
<path opacity="0.5" d="M195.321 185.267L304.824 144.165L346.739 317.98L265.635 348.435L195.321 185.267Z" fill="#FFEFCF"/>
<path opacity="0.95" d="M209.066 217.145L313.003 178.086L346.739 317.98L265.635 348.435L209.066 217.145Z" fill="#D5A537"/>
<path d="M147.045 114.763C143.637 116.248 140.684 124.419 138.809 123.738C136.935 123.057 135.231 120.519 135.402 118.291C135.572 116.062 137.73 114.824 138.014 114.577C138.298 114.329 150.396 113.339 146.988 114.824L147.045 114.763Z" fill="#FFEFCF"/>
<path d="M186.291 134.942C186.234 136.489 185.95 138.408 184.473 138.47C182.997 138.532 182.315 137.294 182.315 135.685C182.315 134.075 183.792 133.951 185.382 133.085C186.972 132.218 186.348 133.394 186.291 134.942Z" fill="#FFEFCF"/>
<g opacity="0.6">
<path d="M218.835 124.172C212.758 124.048 222.867 129.495 222.413 134.385C221.959 139.275 219.232 149.551 226.9 151.284C234.567 153.017 240.531 144.227 238.77 136.737C237.01 129.247 224.969 124.295 218.835 124.172Z" fill="#FFEFCF"/>
</g>
<path d="M262 141.937C263.306 142.556 264.897 143.484 264.442 145.032C264.045 146.518 262.681 146.889 261.262 146.27C259.842 145.651 260.296 144.165 260.069 142.246C259.842 140.327 260.694 141.38 262 141.999V141.937Z" fill="#D5A537"/>
<path d="M146.818 124.481C146.818 125.966 146.534 127.885 145.568 127.947C144.602 128.009 144.091 126.771 144.091 125.162C144.091 123.552 145.114 123.49 146.193 122.624C147.272 121.757 146.818 122.933 146.818 124.481Z" fill="#D5A537"/>
</svg>
