<?xml version="1.0" encoding="UTF-8"?>
<svg id="Layer_1" data-name="Layer 1" xmlns="http://www.w3.org/2000/svg" viewBox="0 0 854.35 1837.37">
  <defs>
    <style>
      .cls-1 {
        fill: #2e5e34;
        opacity: .9;
      }

      .cls-1, .cls-2 {
        stroke-width: 4px;
      }

      .cls-1, .cls-2, .cls-3 {
        stroke: #000;
        stroke-miterlimit: 10;
      }

      .cls-2, .cls-3 {
        fill: none;
      }
    </style>
  </defs>
  <path class="cls-3" d="m622.88,1771.27c-2.01.05-4.02.08-6.04.09"/>
  <g>
    <path class="cls-1" d="m789.28,85.74c25.14,1.13,50.27,2.26,75.41,3.39,5.5.25,11.42.21,15.91-7.12,8.2-13.38,6.71-44.99-.59-60.93-7.3-15.94-18.01-19.8-28.03-20.79-33.29-3.28-66.2,16.71-99.49,20.14-24.25,2.5-50.6-2.53-70.63,29.31,8.25,21.69,22.55,21.75,35.01,20.42,22.96-2.46,46.02-3.93,68.9,1.21,31.72,7.12,64.21,26.72,94.87,6.64,8.86-5.8,18.54-18.46,19.57-39.69.84-17.3-4.83-33.47-11.68-40.59-6.85-7.12-14.62-7.16-22.12-6.78-54.42,2.73-108.53,20.81-161.9,45.67-11.13,5.19-22.73,11.21-31.42,28.17,4.24,16.27,13.77,18.92,21.97,19.64,48.41,4.23,96.92,1.76,145.2-7.4"/>
    <path class="cls-1" d="m697.48,772.42c-29.4,22.84-41.74,89.71-70.16,116.77-9.81,9.35-18.58,47.28-25.42,63.75-10.25,24.68-17.12,126.52-17.8,158.09-7.23,337.47-30.97,536.95-46.96,873.29,35.96,14.65,71.99-18.15,108.26-29.59,25.66-8.09,51.86-5.43,77.83-2.74,57.05,5.91,114.11,11.82,171.16,17.74,25.2,2.61,50.89,5.13,75.29-7.22,22.21-11.24,46.6-34.14,66.56-12.25-2.98-251-5.95-501.99-8.93-752.99-1.21-102.37-2.71-207.42-22.89-302.15-8.81-41.34-21.66-81.13-40.97-105.94-19.3-24.81-45.99-31.71-65.77-8.36-15.94-55.8-13.83-123.41-11.66-186.96,5.43-159,8.47-319.38-3.33-477.09-1.22-16.27-2.71-33.1-7.57-46.62-11.58-32.28-35.93-32.13-56.22-28.56-31.35,5.51-65.04,5-95.88,16.84-27.17,10.42-15.92,84.88-16.03,129.54-.3,126.35-1.74,252.68-4.31,378.93-.44,21.72,1.92,200.03-5.2,205.52Z"/>
    <path class="cls-2" d="m722.33,633.86c-1.78,42.53-4.29,88.46-19.26,119.92-17.83,37.47-8.46,100.49-28.01,134.64-21.82,38.11-47.62,80.95-49.33,137.57-2.24,74.54-1.81,152.52-4.06,227.06-1.83,60.9,14.09,134.07,7.63,193.79-4.64,42.9,8.82,111.51,5.08,154.73-4.81,55.66,1.84,84.65,2.54,141.05.9,72.18,4.77,100.89,5.68,173.07.19,14.97,8.79,21.45,15.74,28.16,3.35,3.24-3.75.41,0,0,97.87-10.79,132.68-16.01,229.35-47.43,55.63-18.08,117.16-40.95,165.03,16.57,18.46-274.35,9-552.49-.48-828.53-1.6-46.6-3.35-94.37-13.4-136.87-20.87-88.26-72.58-133.73-122.1-151.52,21.62-159.95,6.71-328.39,1.28-493.33-3.24-98.47-3.04-197.36.48-295.79-56.77,23.25-113.54,46.49-170.31,69.74,4.26,118.26,8.49,237.69-.94,354.84-5.22,64.76-14.55,127.98-23.87,191.02-8.58,58.06-17.83,118.47-39.18,162.67-10.2,21.12-22.92,37.92-31.39,61.72-8.47,23.81-11.99,52.69-15.35,80.81-26.92,225.56-53.85,451.13-80.77,676.69-4.76,39.9-9.56,80.63-7.58,121.39,2.33,48.01-11.79,129.34-.46,172.35,8.08,30.68,43.11,26.74,59.66,39.71,9.26,7.26,19.57,7.11,29.56,6.78,112.56-3.8,224.93-18.35,337.25-32.9,12.43-1.61,25.28-3.44,36.28-14.67,28.18-28.75,31.99-102.12,32.24-163.51.63-155.96,1.27-311.91,1.9-467.87.54-132.89.71-269.73-25.02-393.05-4.55-21.82-10.07-43.54-18.91-59.77-16.02-29.43-40.19-36.18-57.66-62.39-31.29-46.95-31.15-136.22-29.48-212.54,3.12-141.8,1.67-283.96-4.34-425.42-2.75-64.8-56.54-53.11-81.86-53.78-20.05-.52-44.29-2.54-62.2,18.12-19.2,22.14-22.77,62.02-24.73,101.78-3.58,72.78-6.09,145.82-9.14,218.69-3.29,78.84-6.59,157.68-9.88,236.51Z"/>
    <path class="cls-2" d="m824.01,1875.87c-98.4,40.71-200.4,63.43-302.76,67.43,9.63-295.69,22.33-591.17,38.09-886.32,3.03-56.72,7.77-118.62,35.87-158.68,22.93-32.68,57.65-44.61,79.2-79.19,20.13-32.31,25.08-78.67,24.55-122.04-.53-43.36-5.61-86.88-1.83-129.91,5.79-65.89,32.02-126.52,32.73-192.93,1.19-111.82-69.83-217.64-44.48-323.38,54.19,14.68,107.43,36.6,158.8,65.4,3.45,114.68,6.9,229.36,10.34,344.04,1.63,54.3,3.26,108.68,1.57,162.97-1.26,40.53-4.37,81.42.22,121.45,4.59,40.03,18.28,80.22,42.77,100.41,14.65,12.07,32.34,16.45,45.29,32.03,22.88,27.53,22.26,77.3,20.72,120.12-10.57,295.07,27.59,591.92,4.54,885.52-1.14,14.56-2.8,30.21-9.93,40.67-16.08,23.56-42.89,3.87-64.08-8.84-38.31-22.98-82.19-17.83-122.22-2.01-40.02,15.82-77.78,41.67-117.29,59.97-5.53,2.56-11.64,4.95-17,1.74-4.57-2.74-7.58-8.96-10.33-14.88-47.76-102.6-97.59-216.26-89.35-339.12,6.68-99.57,51.14-187.92,57.06-287.59,2.85-47.98-3.42-95.96-7.54-143.76-7.15-83.13-7.77-167.41-1.84-250.74"/>
  </g>
</svg>