<?xml version="1.0" encoding="UTF-8"?><svg xmlns="http://www.w3.org/2000/svg" width="1920" height="1080" viewBox="0 0 1920 1080"><defs><style>.cls-1{fill:#de9562;}.cls-1,.cls-2,.cls-3,.cls-4,.cls-5,.cls-6,.cls-7,.cls-8,.cls-9{stroke-width:0px;}.cls-2{fill:#576d5c;}.cls-3{fill:gray;}.cls-4{fill:#b0cfe3;}.cls-5{fill:#f3b46f;}.cls-6{fill:#59483a;}.cls-7{fill:#915932;}.cls-8{fill:#dfecf4;}.cls-9{fill:#f5c38c;}</style></defs><g id="Layer_1"><rect class="cls-4" x="-.5" y="-.5" width="1920" height="227"/><path class="cls-7" d="m1087.7,279l529.3-25.9s-23.74-67.25-71.22-76.56,13.97-55.89,13.97-55.89l-33.52-82.28s-7.87-12.42-51.42,0c-43.55,12.42-76.18-13.2-76.18-13.2,0,0-171.27-5.43-157.3,22.51,13.97,27.94-57.52,3.1-69.26,16.3s-101.12,107.47-84.36,118.55c16.76,11.08,0,96.46,0,96.46Z"/><path class="cls-1" d="m1087.55,272l511.45-23.01s-22.94-59.74-68.82-68.01c-45.88-8.27,13.49-49.65,13.49-49.65l-32.39-73.09s-7.61-11.03-49.68,0c-42.08,11.03-73.61-11.72-73.61-11.72,0,0-165.49-4.83-152,20,13.49,24.82-55.58,2.76-66.93,14.48-11.34,11.72-97.71,95.47-81.52,105.31,16.19,9.84,0,85.69,0,85.69Z"/><rect class="cls-5" x="-.5" y="215.5" width="1920" height="864"/><path class="cls-8" d="m-3,46h599.91s64.91,32.09,0,59.55H-3s-35-36.55,0-59.55Z"/><path class="cls-8" d="m664.96,95.68h426.53s46.15,20.65,0,38.32h-426.53s-24.88-23.52,0-38.32Z"/><path class="cls-8" d="m1587.19,46.2h426.53s46.15,20.65,0,38.32h-426.53s-24.88-23.52,0-38.32Z"/><path class="cls-1" d="m-53.77,1021.29s67.2-110.14,414.13-67.46c346.92,42.67,460.13,0,460.13,0,0,0,289.49-114.81,382.22-22.77,92.74,92.05,519.82,29.82,519.82,29.82,0,0,294.34-116.74,429.32-51.44,134.98,65.3-122.34,298.68-122.34,298.68,0,0-526.22,72.66-719.17,33.31s-717.47,28.58-717.47,28.58c0,0-394.48-3.85-478.34-51.01s-201.03-66.51-168.29-197.71Z"/><path class="cls-1" d="m22.45,557.55s16.89-14.68,104.11-8.99c87.22,5.69,115.68,0,115.68,0,0,0,72.78-15.3,96.09-3.03,23.31,12.27,130.68,3.97,130.68,3.97,0,0,74-15.56,107.93-6.86,33.93,8.7-30.76,39.81-30.76,39.81,0,0-132.29,9.68-180.8,4.44-48.51-5.25-180.37,3.81-180.37,3.81,0,0-99.17-.51-120.26-6.8-21.08-6.29-50.54-8.86-42.31-26.35Z"/><path class="cls-9" d="m1110.02,785.7s24.16-30.69,148.88-18.8c124.72,11.89,165.41,0,165.41,0,0,0,104.07-31.99,137.41-6.34,33.34,25.65,186.87,8.31,186.87,8.31,0,0,105.81-32.53,154.34-14.33,48.52,18.19-43.98,83.22-43.98,83.22,0,0-189.17,20.25-258.54,9.28-69.36-10.97-257.92,7.96-257.92,7.96,0,0-141.81-1.07-171.96-14.21-30.15-13.14-72.27-18.53-60.5-55.09Z"/><path class="cls-1" d="m1609.42,527.55s16.89-23.67,104.11-14.5c87.22,9.17,115.68,0,115.68,0,0,0,72.78-24.68,96.09-4.89,23.31,19.78,130.68,6.41,130.68,6.41,0,0,74-25.09,107.93-11.06,33.93,14.03-30.76,64.19-30.76,64.19,0,0-132.29,15.62-180.8,7.16-48.51-8.46-180.37,6.14-180.37,6.14,0,0-99.17-.83-120.26-10.96s-50.54-14.29-42.31-42.49Z"/><path class="cls-1" d="m336.55,779.27s31-4.72,32.46-10.39,25.16-1.41,30.46-3.39c5.3-1.99,26.92-8.61,26.92-8.61,0,0,7.2,5.41,5.28,16.18-1.92,10.76.1,1.74-9.15,15.97,0,0-32.9,16.17-47,10.93-14.1-5.24-25.69-1.25-25.69-1.25,0,0-21.26-18.04-13.28-19.44Z"/><path class="cls-3" d="m334.37,783.55s30.59-7.43,33.71,0c3.11,7.43,24.09-9.49,29.68-9.08s27.95,0,27.95,0c0,0,5.11-11.02,0-25.52-5.11-14.5-.44-2.53-13.5-18.62,0,0-35.89-8.06-47.54,5.87-11.65,13.93-23.77,13.52-23.77,13.52,0,0-14.45,35.48-6.53,33.83Z"/><path class="cls-1" d="m114.53,476.83h56.81s17.15,8.39-8.25,27.14c-25.4,18.75-41.84,7.9-41.84,7.9,0,0-38.71-8.88-28.7-14.07s-8.66-20.97,21.97-20.97Z"/><path class="cls-3" d="m110.79,489.4h56.81s17.15-12.29-8.25-39.75c-25.4-27.47-41.84-11.56-41.84-11.56,0,0-38.71,13.01-28.7,20.6s-8.66,30.72,21.97,30.72Z"/><path class="cls-1" d="m1824.26,698.91s31-4.72,32.46-10.39c1.46-5.67,25.16-1.41,30.46-3.39,5.3-1.99,26.92-8.61,26.92-8.61,0,0,7.2,5.41,5.28,16.18-1.92,10.76.1,1.74-9.15,15.97,0,0-32.9,16.17-47,10.93-14.1-5.24-25.69-1.25-25.69-1.25,0,0-21.26-18.04-13.28-19.44Z"/><path class="cls-3" d="m1822.08,703.18s30.59-7.43,33.71,0c3.11,7.43,24.09-9.49,29.68-9.08s27.95,0,27.95,0c0,0,5.11-11.02,0-25.52-5.11-14.5-.44-2.53-13.5-18.62,0,0-35.89-8.06-47.54,5.87-11.65,13.93-23.77,13.52-23.77,13.52,0,0-14.45,35.48-6.53,33.83Z"/><path class="cls-1" d="m1634.88,405.74h56.81s17.15,8.39-8.25,27.14c-25.4,18.75-41.84,7.9-41.84,7.9,0,0-38.71-8.88-28.7-14.07s-8.66-20.97,21.97-20.97Z"/><path class="cls-3" d="m1631.15,418.31h56.81s17.15-12.29-8.25-39.75c-25.4-27.47-41.84-11.56-41.84-11.56,0,0-38.71,13.01-28.7,20.6,10.02,7.59-8.66,30.72,21.97,30.72Z"/><path class="cls-1" d="m1060.77,306.55s12.1-7.28,74.57-4.46c62.47,2.82,82.86,0,82.86,0,0,0,52.13-7.59,68.83-1.51,16.7,6.09,93.61,1.97,93.61,1.97,0,0,53-7.72,77.31-3.4,24.31,4.32-22.03,19.75-22.03,19.75,0,0-94.76,4.8-129.5,2.2s-129.2,1.89-129.2,1.89c0,0-71.04-.25-86.14-3.37-15.1-3.12-36.2-4.4-30.31-13.07Z"/><path class="cls-1" d="m-140.52,294.08s12.1-7.28,74.57-4.46c62.47,2.82,82.86,0,82.86,0,0,0,52.13-7.59,68.83-1.51,16.7,6.09,93.61,1.97,93.61,1.97,0,0,53-7.72,77.31-3.4,24.31,4.32-22.03,19.75-22.03,19.75,0,0-94.76,4.8-129.5,2.2s-129.2,1.89-129.2,1.89c0,0-71.04-.25-86.14-3.37-15.1-3.12-36.2-4.4-30.31-13.07Z"/><path class="cls-9" d="m1232.49,475.19s13.94-10.54,85.88-6.46c71.94,4.08,95.42,0,95.42,0,0,0,60.03-10.99,79.26-2.18s107.8,2.85,107.8,2.85c0,0,61.04-11.18,89.03-4.92,27.99,6.25-25.37,28.59-25.37,28.59,0,0-109.13,6.96-149.14,3.19-40.01-3.77-148.79,2.74-148.79,2.74,0,0-81.81-.37-99.2-4.88s-41.69-6.37-34.9-18.93Z"/><polygon class="cls-1" points="749.32 962.63 1029.31 824.45 699.81 731.72 1109 642.63 804 553.54 1040 401.18 745.25 219.18 947 397.18 569.38 590.07 820 633.18 553 715.18 766.4 857.76 576 973.18 776.69 1115 903.64 1115 749.32 962.63"/><path class="cls-9" d="m278.13,390.72s13.94-15.18,85.88-9.3,95.42,0,95.42,0c0,0,60.03-15.82,79.26-3.14,19.23,12.68,107.8,4.11,107.8,4.11,0,0,61.04-16.09,89.03-7.09,27.99,9-25.37,41.15-25.37,41.15,0,0-109.13,10.01-149.14,4.59-40.01-5.42-148.79,3.94-148.79,3.94,0,0-81.81-.53-99.2-7.03-17.39-6.5-41.69-9.16-34.9-27.24Z"/></g><g id="Layer_2"><path class="cls-2" d="m1102.34,1190.19s68.95-43.04,32.88-115.37c0,0,9.01,75.23-40.1,103.88l7.21,11.49Z"/><path class="cls-6" d="m294.4,213.81s9.86-19.59,8.4-44.13c0,0-12.65-7.01-15.87-2.72s-10.58,9.88-13.56,8.78-7.93.87-7.93.87c0,0-9.66-2.48-2.5-4.48s11.75-1.12,11.75-1.12c0,0,10.5-5.45,10.2-8.97s-10.24-4.79-10.24-4.79c0,0-8.09-1.2-7.68-7.03s-6.68-7.69-6.68-7.69c0,0-2.33-5.88,4.89-3.45s7.68,9.7,7.68,9.7c0,0,1.29,4.33,8.58,5.46s9.33,5.67,9.33,5.67c0,0,8.92,3.75,5.37-1.89s-3.33-7.81-3.33-7.81c0,0-3.53-5.13-7.68-4.67s-6.4-7.62-6.4-7.62c0,0-.94-6.96,4.09-2.69s3.07,3.84,3.07,3.84c0,0,10.4,2.06,11.77,4.62s5.26,12.57,5.26,12.57c0,0,3.11,3.76,3.69,0s4.61-11.73,4.61-11.73c0,0,3.59-9.32,0-9.3s-.77-4.37-.77-4.37c0,0,5.88-5.52,8.19,0s0,12.83,0,12.83c0,0-1.68,12.09-5.63,15.57s2.56,2.76,2.56,2.76l9.72-9.71s3.19-15.42,7.17-13.24,2.05,5.46,2.05,5.46c0,0,.9,6.74-2.82,11.73s-9.72,10.04-9.72,10.04l-6.4,4.8s-10.39,45.11,2.56,42.69c0,0-26.55,11.68-23.76,0Z"/><ellipse class="cls-1" cx="1659.12" cy="942.76" rx="27.21" ry="13.24"/><path class="cls-2" d="m1655.27,940.15s-45.33-7.82-41.33-58.49c0,0,10.88,45.66,42.75,50.08l-1.42,8.41Z"/><path class="cls-2" d="m1653.96,944.33s-45.81,2.08-50.27-48.54c0,0,18.24,42.5,50.27,39.97v8.57Z"/><path class="cls-2" d="m1657.9,945.31s-41.98-21.02-26.54-68.75c0,0,.07,47.32,29.83,61.05l-3.29,7.7Z"/><path class="cls-2" d="m1662.54,944.4s45.31-7.96,41.19-58.62c0,0-10.77,45.7-42.63,50.21l1.44,8.41Z"/><path class="cls-2" d="m1655.34,944.81s43.21-17.47,30.86-66.36c0,0-3.09,47.19-33.65,58.41l2.79,7.96Z"/><path class="cls-2" d="m1644,944.11s43.21-17.47,30.86-66.36c0,0-3.09,47.19-33.65,58.41l2.79,7.96Z"/><path class="cls-2" d="m1643.36,943.01s39.33-26.86,18.76-72.01c0,0,5.14,46.95-22.87,64.84l4.11,7.17Z"/><path class="cls-2" d="m1667.34,943s-41.98-21.02-26.54-68.75c0,0,.07,47.32,29.83,61.05l-3.29,7.7Z"/><ellipse class="cls-2" cx="1653.66" cy="933.4" rx="19.15" ry="13.29"/><ellipse class="cls-1" cx="1198.43" cy="232.41" rx="13.68" ry="7.59"/><path class="cls-2" d="m1196.49,230.92s-22.8-4.48-20.78-33.5c0,0,5.47,26.15,21.5,28.68l-.71,4.82Z"/><path class="cls-2" d="m1195.84,233.32s-23.04,1.19-25.28-27.8c0,0,9.17,24.34,25.28,22.89v4.91Z"/><path class="cls-2" d="m1197.81,233.88s-21.11-12.04-13.35-39.37c0,0,.04,27.1,15,34.96l-1.66,4.41Z"/><path class="cls-2" d="m1200.15,233.36s22.79-4.56,20.71-33.57c0,0-5.42,26.17-21.44,28.75l.72,4.82Z"/><path class="cls-2" d="m1196.53,233.59s21.73-10.01,15.52-38.01c0,0-1.56,27.02-16.92,33.45l1.4,4.56Z"/><path class="cls-2" d="m1190.83,233.19s21.73-10.01,15.52-38.01c0,0-1.56,27.02-16.92,33.45l1.4,4.56Z"/><path class="cls-2" d="m1190.51,232.56s19.78-15.39,9.43-41.24c0,0,2.59,26.89-11.5,37.13l2.07,4.11Z"/><path class="cls-2" d="m1202.56,232.55s-21.11-12.04-13.35-39.37c0,0,.04,27.1,15,34.96l-1.66,4.41Z"/><ellipse class="cls-2" cx="1195.68" cy="227.05" rx="9.63" ry="7.61"/><ellipse class="cls-1" cx="828.52" cy="396.41" rx="18.41" ry="9.59"/><path class="cls-2" d="m825.91,394.52s-30.68-5.66-27.97-42.34c0,0,7.36,33.05,28.93,36.25l-.96,6.09Z"/><path class="cls-2" d="m825.02,397.56s-31,1.51-34.02-35.13c0,0,12.35,30.76,34.02,28.93v6.2Z"/><path class="cls-2" d="m827.69,398.26s-28.41-15.21-17.96-49.76c0,0,.05,34.25,20.19,44.19l-2.23,5.58Z"/><path class="cls-2" d="m830.83,397.6s30.67-5.76,27.88-42.43c0,0-7.29,33.07-28.85,36.34l.97,6.09Z"/><path class="cls-2" d="m825.96,397.9s29.24-12.65,20.89-48.03c0,0-2.09,34.15-22.78,42.27l1.89,5.76Z"/><path class="cls-2" d="m818.28,397.4s29.24-12.65,20.89-48.03c0,0-2.09,34.15-22.78,42.27l1.89,5.76Z"/><path class="cls-2" d="m817.85,396.6s26.62-19.44,12.69-52.12c0,0,3.48,33.98-15.48,46.93l2.78,5.19Z"/><path class="cls-2" d="m834.08,396.59s-28.41-15.21-17.96-49.76c0,0,.05,34.25,20.19,44.19l-2.23,5.58Z"/><ellipse class="cls-2" cx="824.82" cy="389.64" rx="12.96" ry="9.62"/><ellipse class="cls-1" cx="183.8" cy="687.86" rx="36.49" ry="15.29"/><path class="cls-2" d="m178.63,684.85s-60.81-9.03-55.44-67.55c0,0,14.59,52.73,57.34,57.83l-1.9,9.72Z"/><path class="cls-2" d="m176.88,689.69s-61.45,2.4-67.43-56.06c0,0,24.47,49.08,67.43,46.16v9.9Z"/><path class="cls-2" d="m182.16,690.81s-56.31-24.27-35.6-79.39c0,0,.1,54.64,40.02,70.5l-4.42,8.9Z"/><path class="cls-2" d="m188.39,689.76s60.78-9.19,55.25-67.69c0,0-14.45,52.77-57.18,57.98l1.93,9.71Z"/><path class="cls-2" d="m178.73,690.23s57.96-20.18,41.4-76.64c0,0-4.15,54.49-45.14,67.45l3.74,9.19Z"/><path class="cls-2" d="m163.52,689.43s57.96-20.18,41.4-76.64c0,0-4.15,54.49-45.14,67.45l3.74,9.19Z"/><path class="cls-2" d="m162.66,688.15s52.76-31.02,25.16-83.15c0,0,6.9,54.22-30.68,74.87l5.52,8.28Z"/><path class="cls-2" d="m194.82,688.14s-56.31-24.27-35.6-79.39c0,0,.1,54.64,40.02,70.5l-4.42,8.9Z"/><ellipse class="cls-2" cx="176.47" cy="677.05" rx="25.69" ry="15.35"/><ellipse class="cls-1" cx="209.28" cy="223.78" rx="13.92" ry="21.33" transform="translate(-68.48 353.09) rotate(-71.88)"/><path class="cls-6" d="m220.79,218.2s-12.35-29.43-10.53-66.28c0,0,15.85-10.53,19.87-4.08s13.26,14.85,16.99,13.18,7.17,2.02,9.94,1.31,12.1-3.73,3.13-6.73-14.72-1.69-14.72-1.69c0,0-13.15-8.18-12.77-13.48s12.82-7.19,12.82-7.19c0,0,10.13-1.8,9.62-10.55s8.36-11.55,8.36-11.55c0,0,2.92-8.82-6.12-5.17s-9.62,14.58-9.62,14.58c0,0-1.61,6.5-10.75,8.21s-11.69,8.52-11.69,8.52c0,0-11.17,5.63-6.73-2.85s4.17-11.73,4.17-11.73c0,0,4.42-7.7,9.62-7.01s8.01-11.44,8.01-11.44c0,0-.48-5.33-5.13-4.04s-3.85,5.77-3.85,5.77c0,0-13.03,3.1-14.74,6.94s-6.59,18.88-6.59,18.88c0,0-3.89,5.65-4.62,0s-5.77-17.62-5.77-17.62c0,0-.1-14,0-13.97s1.01-6.47.96-6.57-9.1-11.84-10.26,0-2.29,14.98,0,19.28,7.14,23.41,7.05,23.39-3.21,4.14-3.21,4.14c0,0-12.26-14.53-12.18-14.58s-1.39-17.51-8.97-19.89-7.08,3.06-2.56,8.2-1.13,10.13,3.53,17.62,12.18,15.08,12.18,15.08c0,0,10.38,3.21,8.01,7.2s-3.23,64.12-3.21,64.13,33.26,17.55,29.76,0Z"/></g></svg>