<?xml version="1.0" encoding="UTF-8"?><svg id="Layer_1" xmlns="http://www.w3.org/2000/svg" width="300" height="300" viewBox="0 0 300 300"><defs><style>.cls-1{fill:#ebffd4;}.cls-1,.cls-2,.cls-3,.cls-4{stroke-width:0px;}.cls-2{fill:#e59f71;}.cls-3{fill:#ac7755;}.cls-4{fill:#59483a;}</style></defs><path class="cls-4" d="m290.04,1627.37s99.34-307.9,84.69-693.52c0,0-127.51-110.2-159.9-42.69-32.39,67.51-106.67,155.34-136.69,137.94-30.02-17.4-57.66,21.12-79.95,13.74-22.29-7.37-97.38-39-25.17-70.42,72.21-31.42,118.43-17.67,118.43-17.67,0,0,105.84-85.63,102.75-141.01-3.09-55.38-103.16-75.26-103.16-75.26,0,0-81.5-18.8-77.37-110.42,4.13-91.62-67.3-120.83-67.3-120.83,0,0-23.48-92.33,49.25-54.14,72.73,38.19,77.37,152.5,77.37,152.5,0,0,12.98,68.05,86.49,85.87,73.51,17.82,94.04,89.13,94.04,89.13,0,0,89.85,58.89,54.16-29.78-35.69-88.67-33.53-122.74-33.53-122.74,0,0-35.59-80.58-77.37-73.34-41.78,7.25-64.47-119.72-64.47-119.72,0,0,3.88-55.81,41.26-42.28,37.38,13.53,30.95,60.36,30.95,60.36,0,0,104.81,32.43,118.63,72.62,13.82,40.19,53.05,197.51,53.05,197.51,0,0,31.33,59.12,37.21,0,5.88-59.12,46.42-184.35,46.42-184.35,0,0,.79-146.52,0-146.14s-8.15-67.67-7.74-68.73,73.23-123.91,82.53,0c9.29,123.91,18.45,156.73,0,201.71-18.45,44.98-57.48,244.98-56.74,244.73s25.79,43.3,25.79,43.3c0,0,98.63-152.02,98-152.59-.63-.58,11.21-183.16,72.21-208.07,61-24.9,56.98,32.04,20.63,85.78-36.35,53.74,9.08,106-28.37,184.35-37.45,78.35-98,157.81-98,157.81,0,0-83.5,33.59-64.47,75.38,19.02,41.79,26.03,670.92,25.79,670.97s-267.6,183.62-239.43,0Z"/><ellipse class="cls-3" cx="161.58" cy="147" rx="136.92" ry="145"/><ellipse class="cls-2" cx="138.42" cy="147" rx="136.92" ry="145"/><polygon class="cls-1" points="55.87 87.27 98.62 48.91 219.97 206.52 179.52 249.35 55.87 87.27"/><polygon class="cls-1" points="192.56 54.24 226.01 102.58 88.57 239.76 51.22 194.03 192.56 54.24"/></svg>