<?xml version="1.0" encoding="UTF-8"?><svg id="Layer_2" xmlns="http://www.w3.org/2000/svg" width="1920" height="1080" viewBox="0 0 1920 1080"><defs><style>.cls-1{fill:#415245;}.cls-1,.cls-2,.cls-3{stroke-width:0px;}.cls-2{fill:#576d5c;}.cls-3{fill:#59483a;}</style></defs><path class="cls-3" d="m-93.25,895.34S4.49,588.52-9.92,204.24c0,0-125.45-109.81-157.32-42.54-31.87,67.27-104.95,154.8-134.48,137.46-29.54-17.34-56.73,21.04-78.66,13.69-21.93-7.35-95.81-38.87-24.77-70.18,71.05-31.31,116.52-17.61,116.52-17.61,0,0,104.14-85.33,101.09-140.51-3.04-55.19-101.5-74.99-101.5-74.99,0,0-80.18-18.74-76.12-110.03,4.06-91.3-66.22-120.41-66.22-120.41,0,0-23.1-92.01,48.45-53.95,71.56,38.06,76.12,151.96,76.12,151.96,0,0,12.77,67.81,85.1,85.57,72.32,17.75,92.52,88.81,92.52,88.81,0,0,88.4,58.68,53.29-29.67-35.12-88.36-32.99-122.31-32.99-122.31,0,0-35.02-80.3-76.12-73.08-41.11,7.22-63.44-119.3-63.44-119.3,0,0,3.82-55.61,40.6-42.13,36.78,13.48,30.45,60.15,30.45,60.15,0,0,103.12,32.31,116.72,72.37C-47.07-162.42-8.47-5.66-8.47-5.66c0,0,30.83,58.91,36.61,0,5.79-58.91,45.67-183.7,45.67-183.7,0,0,.78-146,0-145.63s-8.02-67.44-7.61-68.49,72.05-123.48,81.2,0c9.14,123.48,18.16,156.18,0,201-18.16,44.82-56.55,244.12-55.82,243.88s25.37,43.15,25.37,43.15c0,0,97.04-151.48,96.42-152.06s11.03-182.52,71.05-207.34c60.01-24.82,56.06,31.93,20.3,85.48-35.76,53.55,8.93,105.63-27.91,183.7-36.84,78.08-96.42,157.26-96.42,157.26,0,0-82.15,33.47-63.44,75.12,18.72,41.65,25.61,668.57,25.37,668.62s-263.28,182.98-235.57,0Z"/><path class="cls-1" d="m52.53,1034.32s-303.33-61.13-276.55-457.27c0,0,72.79,356.98,286.04,391.49l-9.49,65.79Z"/><path class="cls-1" d="m43.78,1067.05s-306.53,16.26-336.37-379.49c0,0,122.07,332.25,336.37,312.5v66.99Z"/><path class="cls-1" d="m70.12,1074.67s-280.9-164.3-177.59-537.47c0,0,.48,369.92,199.62,477.25l-22.03,60.22Z"/><path class="cls-1" d="m133.3,1074.13S-147.6,909.83-44.29,536.66c0,0,.48,369.92,199.62,477.25l-22.03,60.22Z"/><ellipse class="cls-1" cx="61.7" cy="989.79" rx="160.4" ry="103.91"/><path class="cls-1" d="m100.28,1050.77s-207.99-183.8-45.14-503.44c0,0-73.26,330.43,76.01,452.56l-30.87,50.88Z"/><path class="cls-1" d="m67.05,1034.82s303.33-61.13,276.55-457.27c0,0-72.79,356.98-286.04,391.49l9.49,65.79Z"/><path class="cls-1" d="m75.8,1067.56s306.53,16.26,336.37-379.49c0,0-122.07,332.25-336.37,312.5v66.99Z"/><path class="cls-1" d="m49.46,1075.17s280.9-164.3,177.59-537.47c0,0-.48,369.92-199.62,477.25l22.03,60.22Z"/><path class="cls-1" d="m-13.72,1074.64s280.9-164.3,177.59-537.47c0,0-.48,369.92-199.62,477.25l22.03,60.22Z"/><path class="cls-1" d="m19.3,1051.28s207.99-183.8,45.14-503.44c0,0,73.26,330.43-76.01,452.56l30.87,50.88Z"/><path class="cls-2" d="m67.86,1044.62s-303.33-61.13-276.55-457.27c0,0,72.79,356.98,286.04,391.49l-9.49,65.79Z"/><path class="cls-2" d="m59.11,1077.35s-306.53,16.26-336.37-379.49c0,0,122.07,332.25,336.37,312.5v66.99Z"/><path class="cls-2" d="m85.45,1084.97s-280.9-164.3-177.59-537.47c0,0,.48,369.92,199.62,477.25l-22.03,60.22Z"/><path class="cls-2" d="m148.63,1084.43S-132.27,920.13-28.96,546.96c0,0,.48,369.92,199.62,477.25l-22.03,60.22Z"/><ellipse class="cls-2" cx="77.03" cy="1000.09" rx="160.4" ry="103.91"/><path class="cls-2" d="m115.61,1061.07s-207.99-183.8-45.14-503.44c0,0-73.26,330.43,76.01,452.56l-30.87,50.88Z"/><path class="cls-2" d="m82.38,1045.12s303.33-61.13,276.55-457.27c0,0-72.79,356.98-286.04,391.49l9.49,65.79Z"/><path class="cls-2" d="m91.13,1077.86s306.53,16.26,336.37-379.49c0,0-122.07,332.25-336.37,312.5v66.99Z"/><path class="cls-2" d="m64.79,1085.47s280.9-164.3,177.59-537.47c0,0-.48,369.92-199.62,477.25l22.03,60.22Z"/><path class="cls-2" d="m1.61,1084.94s280.9-164.3,177.59-537.47c0,0-.48,369.92-199.62,477.25l22.03,60.22Z"/><path class="cls-2" d="m34.63,1061.58s207.99-183.8,45.14-503.44c0,0,73.26,330.43-76.01,452.56l30.87,50.88Z"/></svg>