<?xml version="1.0" encoding="UTF-8"?><svg id="Layer_1" xmlns="http://www.w3.org/2000/svg" width="3501" height="1404" viewBox="0 0 3501 1404"><defs><style>.cls-1{fill:#de9562;}.cls-1,.cls-2,.cls-3,.cls-4,.cls-5,.cls-6,.cls-7,.cls-8,.cls-9,.cls-10,.cls-11,.cls-12,.cls-13,.cls-14{stroke-width:0px;}.cls-2{fill:#606060;}.cls-3{fill:#ebffd4;}.cls-4{fill:#e59f71;}.cls-5{fill:#ac7755;}.cls-6{fill:#576d5c;}.cls-7{fill:gray;}.cls-8{fill:#b0cfe3;}.cls-9{fill:#f3b46f;}.cls-10{fill:#59483a;}.cls-11{fill:#915932;}.cls-12{fill:#dfecf4;}.cls-13{fill:#404040;}.cls-14{fill:#f5c38c;}</style></defs><rect class="cls-8" x=".05" width="3488.63" height="319.28"/><path class="cls-11" d="m1977.31,393.13l961.73-36.42s-43.14-94.58-129.42-107.68c-86.28-13.1,25.38-78.6,25.38-78.6l-60.9-115.72s-14.3-17.47-93.43,0c-79.13,17.47-138.41-18.56-138.41-18.56,0,0-311.2-7.64-285.82,31.66,25.38,39.3-104.52,4.37-125.85,22.93-21.33,18.56-183.73,151.16-153.28,166.74,30.45,15.58,0,135.67,0,135.67Z"/><path class="cls-1" d="m1977.04,383.28l929.3-32.36s-41.68-84.03-125.05-95.66c-83.37-11.64,24.52-69.83,24.52-69.83l-58.85-102.81s-13.82-15.52-90.28,0c-76.46,15.52-133.74-16.49-133.74-16.49,0,0-300.7-6.79-276.18,28.13,24.52,34.91-100.99,3.88-121.6,20.37-20.61,16.49-177.54,134.28-148.11,148.12,29.42,13.84,0,120.53,0,120.53Z"/><rect class="cls-9" x=".05" y="303.81" width="3488.63" height="1215.24"/><path class="cls-12" d="m-4.49,65.4h1090.03s117.94,45.14,0,83.75H-4.49s-63.59-51.4,0-83.75Z"/><path class="cls-12" d="m1209.19,135.28h775s83.85,29.05,0,53.9h-775s-45.22-33.08,0-53.9Z"/><path class="cls-12" d="m2884.89,65.69h775s83.85,29.05,0,53.9h-775s-45.22-33.08,0-53.9Z"/><path class="cls-1" d="m-96.74,1437.18s122.11-154.91,752.47-94.89c630.36,60.02,836.05,0,836.05,0,0,0,526-161.49,694.5-32.03,168.5,129.46,944.5,41.95,944.5,41.95,0,0,534.82-164.2,780.07-72.36,245.26,91.84-222.3,420.1-222.3,420.1,0,0-956.14,102.2-1306.73,46.85-350.58-55.35-1303.64,40.2-1303.64,40.2,0,0-716.78-5.41-869.15-71.74-152.37-66.33-365.28-93.54-305.79-278.08Z"/><path class="cls-1" d="m41.75,784.92s30.7-20.65,189.17-12.65c158.47,8,210.18,0,210.18,0,0,0,132.24-21.52,174.6-4.27,42.36,17.26,237.45,5.59,237.45,5.59,0,0,134.45-21.89,196.11-9.64,61.66,12.24-55.89,55.99-55.89,55.99,0,0-240.38,13.62-328.51,6.24-88.14-7.38-327.74,5.36-327.74,5.36,0,0-180.2-.72-218.5-9.56-38.31-8.84-91.83-12.47-76.88-37.06Z"/><path class="cls-14" d="m2017.87,1105.81s43.9-43.16,270.51-26.44c226.61,16.72,300.55,0,300.55,0,0,0,189.09-45,249.67-8.92,60.57,36.07,339.54,11.69,339.54,11.69,0,0,192.26-45.75,280.43-20.16,88.17,25.59-79.91,117.06-79.91,117.06,0,0-343.73,28.48-469.76,13.05-126.03-15.42-468.65,11.2-468.65,11.2,0,0-257.67-1.51-312.45-19.99-54.78-18.48-131.31-26.07-109.93-77.49Z"/><path class="cls-1" d="m2925.26,742.71s30.7-33.29,189.17-20.39c158.47,12.9,210.18,0,210.18,0,0,0,132.24-34.71,174.6-6.88,42.36,27.82,237.45,9.02,237.45,9.02,0,0,134.45-35.29,196.11-15.55,61.66,19.74-55.89,90.29-55.89,90.29,0,0-240.38,21.97-328.51,10.07-88.14-11.9-327.74,8.64-327.74,8.64,0,0-180.2-1.16-218.5-15.42-38.31-14.26-91.83-20.1-76.88-59.77Z"/><path class="cls-1" d="m612.48,1096.77s56.33-6.64,58.99-14.61c2.66-7.97,45.72-1.98,55.35-4.77,9.63-2.79,48.91-12.11,48.91-12.11,0,0,13.08,7.61,9.59,22.75-3.49,15.14.17,2.45-16.62,22.46,0,0-59.77,22.75-85.4,15.37-25.63-7.37-46.68-1.75-46.68-1.75,0,0-38.62-25.38-24.13-27.34Z"/><path class="cls-7" d="m608.52,1102.79s55.59-10.45,61.25,0c5.66,10.45,43.77-13.35,53.93-12.77,10.16.58,50.78-.01,50.78-.01,0,0,9.28-15.5,0-35.89-9.28-20.39-.81-3.56-24.52-26.19,0,0-65.21-11.34-86.39,8.26-21.17,19.6-43.19,19.02-43.19,19.02,0,0-26.25,49.91-11.86,47.59Z"/><path class="cls-1" d="m209.05,671.39h103.23s31.16,11.8-14.99,38.18c-46.15,26.38-76.02,11.11-76.02,11.11,0,0-70.34-12.49-52.14-19.78,18.2-7.29-15.73-29.5,39.92-29.5Z"/><path class="cls-7" d="m202.27,689.06h103.23s31.16-17.28-14.99-55.92c-46.15-38.63-76.02-16.27-76.02-16.27,0,0-70.34,18.3-52.14,28.97s-15.73,43.21,39.92,43.21Z"/><path class="cls-1" d="m3315.63,983.74s56.33-6.64,58.99-14.61c2.66-7.97,45.72-1.98,55.35-4.77,9.63-2.79,48.91-12.11,48.91-12.11,0,0,13.08,7.61,9.59,22.75s.17,2.45-16.62,22.46c0,0-59.77,22.75-85.4,15.37-25.63-7.37-46.68-1.75-46.68-1.75,0,0-38.62-25.38-24.13-27.34Z"/><path class="cls-7" d="m3311.67,989.76s55.59-10.45,61.25,0c5.66,10.45,43.77-13.35,53.93-12.77,10.16.58,50.78-.01,50.78-.01,0,0,9.28-15.5,0-35.89-9.28-20.39-.81-3.56-24.52-26.19,0,0-65.21-11.34-86.39,8.26-21.17,19.6-43.19,19.02-43.19,19.02,0,0-26.25,49.91-11.86,47.59Z"/><path class="cls-1" d="m2971.53,571.4h103.23s31.16,11.8-14.99,38.18-76.02,11.11-76.02,11.11c0,0-70.34-12.49-52.14-19.78,18.2-7.29-15.73-29.5,39.92-29.5Z"/><path class="cls-7" d="m2964.75,589.07h103.23s31.16-17.28-14.99-55.92c-46.15-38.63-76.02-16.27-76.02-16.27,0,0-70.34,18.3-52.14,28.97,18.2,10.67-15.73,43.21,39.92,43.21Z"/><path class="cls-1" d="m1928.38,431.88s21.99-10.24,135.5-6.27c113.51,3.97,150.55,0,150.55,0,0,0,94.72-10.68,125.06-2.12,30.34,8.56,170.08,2.77,170.08,2.77,0,0,96.31-10.86,140.47-4.78,44.16,6.07-40.03,27.78-40.03,27.78,0,0-172.18,6.76-235.31,3.1s-234.75,2.66-234.75,2.66c0,0-129.07-.36-156.51-4.74-27.44-4.39-65.78-6.19-55.06-18.39Z"/><path class="cls-1" d="m-254.36,414.34s21.99-10.24,135.5-6.27c113.51,3.97,150.55,0,150.55,0,0,0,94.72-10.68,125.06-2.12,30.34,8.56,170.08,2.77,170.08,2.77,0,0,96.31-10.86,140.47-4.78,44.16,6.07-40.03,27.78-40.03,27.78,0,0-172.18,6.76-235.31,3.1-63.13-3.66-234.75,2.66-234.75,2.66,0,0-129.07-.36-156.51-4.74-27.44-4.39-65.78-6.19-55.06-18.39Z"/><path class="cls-14" d="m2240.39,669.08s25.32-14.83,156.04-9.08c130.72,5.75,173.38,0,173.38,0,0,0,109.08-15.46,144.02-3.07,34.94,12.39,195.87,4.02,195.87,4.02,0,0,110.91-15.72,161.77-6.93,50.86,8.79-46.1,40.21-46.1,40.21,0,0-198.28,9.78-270.98,4.48-72.7-5.3-270.34,3.85-270.34,3.85,0,0-148.64-.52-180.24-6.87-31.6-6.35-75.75-8.95-63.41-26.62Z"/><polygon class="cls-1" points="1362.48 1354.68 1871.22 1160.32 1272.51 1029.89 2016.02 904.59 1461.83 779.28 1890.64 564.97 1355.08 308.98 1721.66 559.35 1035.53 830.66 1490.9 891.29 1005.76 1006.62 1393.51 1207.18 1047.55 1369.51 1412.21 1568.99 1642.87 1568.99 1362.48 1354.68"/><path class="cls-14" d="m506.33,550.26s25.32-21.34,156.04-13.07c130.72,8.27,173.38,0,173.38,0,0,0,109.08-22.25,144.02-4.41s195.87,5.78,195.87,5.78c0,0,110.91-22.62,161.77-9.97,50.86,12.65-46.1,57.88-46.1,57.88,0,0-198.28,14.08-270.98,6.46-72.7-7.63-270.34,5.54-270.34,5.54,0,0-148.64-.75-180.24-9.89-31.6-9.14-75.75-12.89-63.41-38.32Z"/><path class="cls-10" d="m535.88,301.43s17.91-27.56,15.27-62.07c0,0-22.99-9.86-28.83-3.82-5.84,6.04-19.23,13.9-24.65,12.35-5.41-1.56-14.42,1.23-14.42,1.23,0,0-17.56-3.49-4.54-6.3,13.02-2.81,21.35-1.58,21.35-1.58,0,0,19.08-7.66,18.53-12.62s-18.6-6.74-18.6-6.74c0,0-14.69-1.68-13.95-9.88.74-8.2-12.13-10.81-12.13-10.81,0,0-4.23-8.26,8.88-4.85,13.11,3.42,13.95,13.65,13.95,13.65,0,0,2.34,6.09,15.59,7.68,13.25,1.59,16.96,7.98,16.96,7.98,0,0,16.2,5.27,9.77-2.66-6.44-7.94-6.05-10.98-6.05-10.98,0,0-6.42-7.21-13.95-6.56s-11.63-10.71-11.63-10.71c0,0-1.71-9.79,7.44-3.78,9.15,6.01,5.58,5.4,5.58,5.4,0,0,18.9,2.9,21.39,6.5s9.57,17.68,9.57,17.68c0,0,5.65,5.29,6.71,0s8.37-16.5,8.37-16.5c0,0,6.53-13.11,0-13.08-6.53.03-1.4-6.15-1.4-6.15,0,0,10.68-7.76,14.88,0s0,18.05,0,18.05c0,0-3.05,17.01-10.23,21.9-7.18,4.89,4.65,3.88,4.65,3.88l17.67-13.66s5.8-21.69,13.02-18.62c7.22,3.07,3.72,7.68,3.72,7.68,0,0,1.64,9.49-5.12,16.5-6.75,7.01-17.67,14.12-17.67,14.12l-11.63,6.75s-18.89,63.45,4.65,60.05c0,0-48.25,16.43-43.17,0Z"/><ellipse class="cls-1" cx="3015.58" cy="1326.72" rx="49.43" ry="18.63"/><path class="cls-6" d="m3008.58,1323.05s-82.36-11-75.09-82.27c0,0,19.77,64.23,77.67,70.43l-2.58,11.84Z"/><path class="cls-6" d="m3006.2,1328.94s-83.23,2.93-91.34-68.28c0,0,33.15,59.78,91.34,56.22v12.05Z"/><path class="cls-6" d="m3013.35,1330.31s-76.27-29.56-48.22-96.7c0,0,.13,66.55,54.2,85.86l-5.98,10.83Z"/><path class="cls-6" d="m3021.8,1329.03s82.33-11.19,74.84-82.45c0,0-19.57,64.27-77.46,70.62l2.61,11.83Z"/><path class="cls-6" d="m3008.72,1329.61s78.51-24.58,56.07-93.34c0,0-5.62,66.37-61.14,82.15l5.07,11.19Z"/><path class="cls-6" d="m2988.11,1328.63s78.51-24.58,56.07-93.34c0,0-5.62,66.37-61.14,82.15l5.07,11.19Z"/><path class="cls-6" d="m2986.95,1327.07s71.46-37.78,34.08-101.28c0,0,9.34,66.04-41.56,91.19l7.48,10.09Z"/><path class="cls-6" d="m3030.51,1327.06s-76.27-29.56-48.22-96.7c0,0,.13,66.55,54.2,85.86l-5.98,10.83Z"/><ellipse class="cls-6" cx="3005.65" cy="1313.55" rx="34.8" ry="18.69"/><ellipse class="cls-1" cx="2178.51" cy="327.6" rx="24.86" ry="10.67"/><path class="cls-6" d="m2174.98,325.5s-41.42-6.3-37.76-47.12c0,0,9.94,36.78,39.06,40.34l-1.3,6.78Z"/><path class="cls-6" d="m2173.79,328.87s-41.86,1.68-45.93-39.1c0,0,16.67,34.24,45.93,32.2v6.9Z"/><path class="cls-6" d="m2177.39,329.66s-38.36-16.93-24.25-55.38c0,0,.07,38.12,27.26,49.18l-3.01,6.21Z"/><path class="cls-6" d="m2181.63,328.93s41.4-6.41,37.64-47.22c0,0-9.84,36.81-38.95,40.44l1.31,6.78Z"/><path class="cls-6" d="m2175.05,329.25s39.48-14.08,28.2-53.46c0,0-2.83,38.01-30.75,47.05l2.55,6.41Z"/><path class="cls-6" d="m2164.69,328.7s39.48-14.08,28.2-53.46c0,0-2.83,38.01-30.75,47.05l2.55,6.41Z"/><path class="cls-6" d="m2164.11,327.8s35.94-21.64,17.14-58.01c0,0,4.7,37.82-20.9,52.23l3.76,5.78Z"/><path class="cls-6" d="m2186.01,327.8s-38.36-16.93-24.25-55.38c0,0,.07,38.12,27.26,49.18l-3.01,6.21Z"/><ellipse class="cls-6" cx="2173.51" cy="320.06" rx="17.5" ry="10.71"/><ellipse class="cls-1" cx="1506.37" cy="558.27" rx="33.46" ry="13.48"/><path class="cls-6" d="m1501.63,555.62s-55.74-7.96-50.82-59.55c0,0,13.38,46.49,52.57,50.98l-1.74,8.57Z"/><path class="cls-6" d="m1500.02,559.88s-56.33,2.12-61.82-49.42c0,0,22.43,43.27,61.82,40.69v8.72Z"/><path class="cls-6" d="m1504.86,560.87s-51.62-21.4-32.64-69.99c0,0,.09,48.17,36.69,62.15l-4.05,7.84Z"/><path class="cls-6" d="m1510.58,559.95s55.72-8.1,50.65-59.68c0,0-13.25,46.52-52.42,51.11l1.77,8.56Z"/><path class="cls-6" d="m1501.73,560.36s53.14-17.79,37.95-67.56c0,0-3.8,48.04-41.38,59.46l3.43,8.1Z"/><path class="cls-6" d="m1487.78,559.65s53.14-17.79,37.95-67.56c0,0-3.8,48.04-41.38,59.46l3.43,8.1Z"/><path class="cls-6" d="m1486.99,558.53s48.37-27.35,23.07-73.31c0,0,6.32,47.8-28.13,66.01l5.06,7.3Z"/><path class="cls-6" d="m1516.48,558.52s-51.62-21.4-32.64-69.99c0,0,.09,48.17,36.69,62.15l-4.05,7.84Z"/><ellipse class="cls-6" cx="1499.65" cy="548.74" rx="23.56" ry="13.53"/><ellipse class="cls-1" cx="381.23" cy="315.45" rx="19.88" ry="38.17" transform="translate(-.71 630.05) rotate(-79.08)"/><ellipse class="cls-1" cx="334.92" cy="968.21" rx="66.31" ry="21.51"/><path class="cls-6" d="m325.53,963.97s-110.49-12.7-100.73-95.01c0,0,26.52,74.17,104.19,81.34l-3.46,13.67Z"/><path class="cls-6" d="m322.35,970.77s-111.65,3.38-122.52-78.85c0,0,44.46,69.03,122.52,64.93v13.92Z"/><path class="cls-6" d="m331.94,972.35s-102.32-34.14-64.69-111.67c0,0,.18,76.86,72.71,99.16l-8.02,12.51Z"/><path class="cls-6" d="m343.27,970.88s110.44-12.93,100.4-95.21c0,0-26.25,74.22-103.9,81.55l3.51,13.66Z"/><path class="cls-6" d="m325.72,971.54s105.32-28.38,75.22-107.79c0,0-7.54,76.64-82.02,94.87l6.8,12.92Z"/><path class="cls-6" d="m298.07,970.41s105.32-28.38,75.22-107.79c0,0-7.54,76.64-82.02,94.87l6.8,12.92Z"/><path class="cls-6" d="m296.52,968.61s95.86-43.63,45.72-116.96c0,0,12.53,76.26-55.74,105.31l10.03,11.65Z"/><path class="cls-6" d="m354.95,968.6s-102.32-34.14-64.69-111.67c0,0,.18,76.86,72.71,99.16l-8.02,12.51Z"/><ellipse class="cls-6" cx="321.6" cy="953" rx="46.69" ry="21.59"/><path class="cls-10" d="m402.14,307.61s-22.43-41.39-19.13-93.23c0,0,28.79-14.81,36.11-5.74,7.31,9.08,24.09,20.88,30.87,18.54s13.02,2.84,18.05,1.85,21.99-5.24,5.68-9.47c-16.31-4.22-26.74-2.38-26.74-2.38,0,0-23.9-11.51-23.2-18.96.7-7.44,23.29-10.12,23.29-10.12,0,0,18.4-2.53,17.47-14.84-.93-12.32,15.2-16.24,15.2-16.24,0,0,5.3-12.41-11.12-7.28s-17.47,20.5-17.47,20.5c0,0-2.93,9.15-19.53,11.54-16.6,2.39-21.23,11.98-21.23,11.98,0,0-20.29,7.92-12.23-4,8.06-11.92,7.57-16.5,7.57-16.5,0,0,8.04-10.83,17.47-9.86,9.43.97,14.56-16.09,14.56-16.09,0,0-.88-7.5-9.32-5.68-8.44,1.82-6.99,8.11-6.99,8.11,0,0-23.67,4.36-26.79,9.76s-11.98,26.55-11.98,26.55c0,0-7.07,7.95-8.4,0s-10.48-24.78-10.48-24.78c0,0-.18-19.7,0-19.65s1.84-9.1,1.75-9.24-16.54-16.66-18.64,0c-2.1,16.66-4.17,21.07,0,27.12,4.17,6.05,12.98,32.93,12.81,32.9s-5.82,5.82-5.82,5.82c0,0-22.27-20.44-22.13-20.51s-2.53-24.62-16.31-27.97c-13.77-3.35-12.87,4.31-4.66,11.53,8.21,7.22-2.05,14.25,6.41,24.78,8.46,10.53,22.13,21.21,22.13,21.21,0,0,18.85,4.51,14.56,10.13s-5.88,90.19-5.82,90.2,60.43,24.68,54.07,0Z"/><path class="cls-2" d="m502.11,1303.92l623.96-13.49s55.82,13.49,77.69,0l21.87-13.49s39.83-1.5,39.83-16.49-36.51-44.98-36.51-44.98c0,0,9.96,3.13,36.51-37.41,26.55-40.55-152.22-75.03-152.22-75.03,0,0-80.11-61.47-83.43-98.95-3.32-37.48-102.89-49.48-102.89-49.48l-132.76,19.49s-68.19-10.5-115.41-19.49c-47.22-9-179.98,42.53-176.66,78.99,3.32,36.46-106.21,130.92-106.21,130.92,0,0,56.42,140.93,106.21,139.43Z"/><path class="cls-1" d="m1140.23,1202.34l-535.01,50.63s-50.99-2.69-66.98,5.48l-15.98,8.17s-34.01,3.54-30.82,10.91,41.05,19.51,41.05,19.51c0,0-9.25-.84-23.5,20.95-14.25,21.79,147.2,26.11,147.2,26.11,0,0,82.15,24.54,93,42.71,10.85,18.17,99.23,17.04,99.23,17.04l110.29-18.93s61.02.35,103.64,1.43c42.62,1.09,146.09-33.58,135.46-51.25-10.63-17.67,63.67-71.78,63.67-71.78,0,0-78.66-65.23-121.26-60.99Z"/><path class="cls-7" d="m502.23,1317.76l623.96-13.49s55.82,13.49,77.69,0l21.87-13.49s39.83-1.5,39.83-16.49-36.51-44.98-36.51-44.98c0,0,9.96,3.13,36.51-37.41,26.55-40.55-152.22-75.03-152.22-75.03,0,0-80.11-61.47-83.43-98.95-3.32-37.48-102.89-49.48-102.89-49.48l-132.76,19.49s-68.19-10.5-115.41-19.49c-47.22-9-179.98,42.53-176.66,78.99,3.32,36.46-106.21,130.92-106.21,130.92,0,0,56.42,140.93,106.21,139.43Z"/><path class="cls-1" d="m454.91,647.52c46.68-12.63,574.16,1.85,591.49,12.14,17.33,10.29-26.53,31.53-79.59,35.9-53.06,4.37,15.61,26.2,15.61,26.2l-37.46,38.57s-8.8,5.82-57.46,0c-48.66-5.82-85.13,6.19-85.13,6.19,0,0-191.39,2.55-175.79-10.55,15.61-13.1-64.28-1.46-77.4-7.64-13.12-6.19-113-50.39-94.27-55.58,18.73-5.19-46.68-32.59,0-45.22Z"/><path class="cls-2" d="m454.5,694.82c46.67,25.85,574.02-3.78,591.35-24.84,17.33-21.06-26.52-64.51-79.57-73.45-53.05-8.94,15.6-53.62,15.6-53.62l-37.45-78.93s-8.79-11.91-57.45,0c-48.65,11.91-85.11-12.66-85.11-12.66,0,0-191.35-5.21-175.75,21.6,15.6,26.81-64.26,2.98-77.38,15.64s-112.97,103.1-94.25,113.73c18.72,10.63-46.67,66.69,0,92.54Z"/><path class="cls-7" d="m436.39,694.86c46.67,25.85,574.02-3.78,591.35-24.84,17.33-21.06-26.52-64.51-79.57-73.45-53.05-8.94,15.6-53.62,15.6-53.62l-37.45-78.93s-8.79-11.91-57.45,0c-48.65,11.91-85.11-12.66-85.11-12.66,0,0-191.35-5.21-175.75,21.6,15.6,26.81-64.26,2.98-77.38,15.64-13.12,12.66-112.97,103.1-94.25,113.73,18.72,10.63-46.67,66.69,0,92.54Z"/><path class="cls-1" d="m2398.8,1040.88h468.96s141.56,59.39-68.12,192.16c-209.67,132.76-345.34,55.9-345.34,55.9,0,0-319.55-62.89-236.86-99.57,82.69-36.68-71.48-148.48,181.36-148.48Z"/><path class="cls-2" d="m2340.45,1178.63h521.41s157.39-81.87-75.73-264.87c-233.12-183-383.97-77.05-383.97-77.05,0,0-355.3,86.69-263.36,137.25,91.94,50.57-79.47,204.68,201.65,204.68Z"/><path class="cls-7" d="m2336.43,1192.4h521.41s157.39-81.87-75.73-264.87c-233.12-183-383.97-77.05-383.97-77.05,0,0-355.3,86.69-263.36,137.25,91.94,50.57-79.47,204.68,201.65,204.68Z"/><path class="cls-13" d="m1880.53,816.56l126.6,17.55,65.55-17.55v-79.41s-33.9-27.64-40.23-52.21c-6.33-24.57-34.81-16.67-34.81-16.67l-1.68-13.68s2.73-16.16-34.19-11.77c-36.92,4.39-52.13-.76-52.13-.76,0,0-50.98,44.83-47.95,69.3,3.02,24.47-.13,105.55-.13,105.55,0,0-16.89,4.91,18.98-.36Z"/><path class="cls-2" d="m1895.44,814.32v-75.83l48.47-43.19s7.05-35.19-30.84-71.67c-37.89-36.47-373.13,0-373.13,0l-16.38,14.72s-23.79,1.28-27.32,9.6,3.53,78.7-37.89,97.26c-41.42,18.56,37.01,74.87,37.01,74.87,0,0,213.27,7.68,400.09-5.76Z"/><path class="cls-2" d="m1916.54,821.82s32.7,14.04,51.69,6.14l18.99-7.9s-3.16-25.29,0-38.09c3.16-12.8-29.35-20.86-29.97-51.05-.62-30.19-144.72,0-144.72,0l-21.53,1.4s12.28,34.1,33.04,41.62c20.76,7.52-15.11,36.48-15.11,36.48l15.11,19.96,92.5-8.55Z"/><path class="cls-1" d="m1885.71,749.82l123.19-11.65,63.79,11.65v52.7s-32.99,18.34-39.15,34.65c-6.16,16.31-33.88,11.06-33.88,11.06l-1.63,9.08s2.66,10.72-33.27,7.81c-35.93-2.91-50.72.5-50.72.5,0,0-49.6-29.75-46.66-45.99,2.94-16.24-.13-70.05-.13-70.05,0,0-16.44-3.26,18.46.24Z"/><path class="cls-1" d="m1900.22,751.31v50.32l47.16,28.66s6.86,23.36-30.01,47.56-363.08,0-363.08,0l-15.94-9.77s-23.15-.85-26.58-6.37c-3.43-5.52,3.43-52.23-36.87-64.55-40.3-12.31,36.02-49.68,36.02-49.68,0,0,207.52-5.1,389.31,3.82Z"/><path class="cls-1" d="m1920.75,746.33s31.82-9.32,50.3-4.08l18.48,5.24s-3.08,16.78,0,25.28c3.08,8.5-28.56,13.84-29.17,33.88-.6,20.04-140.82,0-140.82,0l-20.95-.93s11.95-22.63,32.15-27.62c20.2-4.99-14.7-24.21-14.7-24.21l14.7-13.25,90.01,5.68Z"/><path class="cls-7" d="m1881.06,828.5l126.6,17.55,65.55-17.55v-79.41s-33.9-27.64-40.23-52.21c-6.33-24.57-34.81-16.67-34.81-16.67l-1.68-13.68s2.73-16.16-34.19-11.77c-36.92,4.39-52.13-.76-52.13-.76,0,0-50.98,44.83-47.95,69.3,3.02,24.47-.13,105.55-.13,105.55,0,0-16.89,4.91,18.98-.36Z"/><path class="cls-7" d="m1895.97,826.26v-75.83l48.47-43.19s7.05-35.19-30.84-71.67c-37.89-36.47-373.13,0-373.13,0l-16.38,14.72s-23.79,1.28-27.32,9.6,3.53,78.7-37.89,97.26c-41.42,18.56,37.01,74.87,37.01,74.87,0,0,213.27,7.68,400.09-5.76Z"/><path class="cls-7" d="m1917.07,833.76s32.7,14.04,51.69,6.14l18.99-7.9s-3.16-25.29,0-38.09-29.35-20.86-29.97-51.05-144.72,0-144.72,0l-21.53,1.4s12.28,34.1,33.04,41.62c20.76,7.52-15.11,36.48-15.11,36.48l15.11,19.96,92.5-8.55Z"/><path class="cls-2" d="m2537.97,581.46s176.82-30.79,194.82,0c18,30.79,139.22-39.34,171.55-37.63,32.33,1.71,161.51-.03,161.51-.03,0,0,29.51-45.69,0-105.79-29.51-60.1-2.57-10.5-78-77.21,0,0-207.43-33.43-274.78,24.34-67.35,57.77-137.39,56.06-137.39,56.06,0,0-83.51,147.11-37.71,140.27Z"/><path class="cls-2" d="m2930.1,589.86s55.72-31.19,146.26-23.1c90.54,8.09,22.63-42.74,22.63-42.74,0,0-26.12-62.38-88.8-47.36-62.68,15.02-44.4,24.73-44.4,24.73,0,0-67.83,4.12-91.81,30.71-23.98,26.58-48.36,25.43-48.36,34.67s104.47,23.1,104.47,23.1Z"/><path class="cls-1" d="m2500.58,546.51s176.22,12.96,194.16,0c17.94-12.96,138.75,16.56,170.97,15.84,32.22-.72,160.97.01,160.97.01,0,0,29.41,19.23,0,44.53-29.41,25.3-2.56,4.42-77.74,32.5,0,0-206.73,14.07-273.85-10.24-67.12-24.32-136.92-23.6-136.92-23.6,0,0-83.23-61.92-37.59-59.04Z"/><path class="cls-1" d="m2891.38,542.97s55.53,13.13,145.76,9.72c90.23-3.4,22.56,17.99,22.56,17.99,0,0-26.03,26.26-88.5,19.93-62.47-6.32-44.25-10.41-44.25-10.41,0,0-67.6-1.74-91.5-12.92-23.9-11.19-48.19-10.7-48.19-14.59s104.12-9.72,104.12-9.72Z"/><path class="cls-7" d="m2497.8,584.79s176.82-30.79,194.82,0c18,30.79,139.22-39.34,171.55-37.63,32.33,1.71,161.51-.03,161.51-.03,0,0,29.51-45.69,0-105.79-29.51-60.1-2.57-10.5-78-77.21,0,0-207.43-33.43-274.78,24.34s-137.39,56.06-137.39,56.06c0,0-83.51,147.11-37.71,140.27Z"/><path class="cls-7" d="m2889.93,593.19s55.72-31.19,146.26-23.1c90.54,8.09,22.63-42.74,22.63-42.74,0,0-26.12-62.38-88.8-47.36-62.68,15.02-44.4,24.73-44.4,24.73,0,0-67.83,4.12-91.81,30.71-23.98,26.58-48.36,25.43-48.36,34.67s104.47,23.1,104.47,23.1Z"/><path class="cls-13" d="m1883.44,1004.74l100.95,19.42,52.27-19.42v-87.87s-27.04-30.59-32.08-57.77c-5.05-27.19-27.76-18.45-27.76-18.45l-1.34-15.13s2.18-17.88-27.26-13.02-41.57-.84-41.57-.84c0,0-40.65,49.61-38.24,76.68,2.41,27.07-.1,116.8-.1,116.8,0,0-13.47,5.43,15.13-.4Z"/><path class="cls-2" d="m1895.33,1002.27v-83.9l38.65-47.79s5.62-38.94-24.6-79.3c-30.22-40.36-297.54,0-297.54,0l-13.06,16.29s-18.97,1.42-21.78,10.62c-2.81,9.2,2.81,87.09-30.22,107.62-33.03,20.53,29.51,82.84,29.51,82.84,0,0,170.06,8.5,319.04-6.37Z"/><path class="cls-2" d="m1912.15,1010.57s26.08,15.54,41.22,6.8l15.14-8.74s-2.52-27.98,0-42.15c2.52-14.17-23.41-23.08-23.9-56.49-.49-33.41-115.4,0-115.4,0l-17.17,1.54s9.79,37.73,26.35,46.05c16.56,8.32-12.05,40.36-12.05,40.36l12.05,22.09,73.76-9.46Z"/><path class="cls-1" d="m1887.56,930.89l98.23-12.89,50.86,12.89v58.32s-26.31,20.3-31.22,38.34c-4.91,18.04-27.01,12.24-27.01,12.24l-1.3,10.04s2.12,11.87-26.53,8.64-40.45.55-40.45.55c0,0-39.55-32.92-37.21-50.89,2.34-17.97-.1-77.51-.1-77.51,0,0-13.11-3.6,14.72.26Z"/><path class="cls-1" d="m1899.14,932.54v55.68l37.61,31.72s5.47,25.84-23.93,52.63c-29.4,26.78-289.52,0-289.52,0l-12.71-10.81s-18.46-.94-21.2-7.05c-2.74-6.11,2.74-57.8-29.4-71.42-32.14-13.63,28.72-54.98,28.72-54.98,0,0,165.48-5.64,310.44,4.23Z"/><path class="cls-1" d="m1915.51,927.03s25.38-10.31,40.11-4.51l14.73,5.8s-2.46,18.57,0,27.97-22.78,15.32-23.26,37.49c-.48,22.17-112.29,0-112.29,0l-16.71-1.03s9.53-25.04,25.64-30.56c16.11-5.52-11.72-26.79-11.72-26.79l11.72-14.66,71.78,6.28Z"/><path class="cls-7" d="m1883.86,1017.96l100.95,19.42,52.27-19.42v-87.87s-27.04-30.59-32.08-57.77c-5.05-27.19-27.76-18.45-27.76-18.45l-1.34-15.13s2.18-17.88-27.26-13.02c-29.44,4.85-41.57-.84-41.57-.84,0,0-40.65,49.61-38.24,76.68s-.1,116.8-.1,116.8c0,0-13.47,5.43,15.13-.4Z"/><path class="cls-7" d="m1895.75,1015.48v-83.9l38.65-47.79s5.62-38.94-24.6-79.3c-30.22-40.36-297.54,0-297.54,0l-13.06,16.29s-18.97,1.42-21.78,10.62c-2.81,9.2,2.81,87.09-30.22,107.62-33.03,20.53,29.51,82.84,29.51,82.84,0,0,170.06,8.5,319.04-6.37Z"/><path class="cls-7" d="m1912.57,1023.78s26.08,15.54,41.22,6.8l15.14-8.74s-2.52-27.98,0-42.15c2.52-14.17-23.41-23.08-23.9-56.49-.49-33.41-115.4,0-115.4,0l-17.17,1.54s9.79,37.73,26.35,46.05c16.56,8.32-12.05,40.36-12.05,40.36l12.05,22.09,73.76-9.46Z"/><path class="cls-5" d="m2770.61,666.95v155.04l230.42,88.32s33.52,71.96-146.63,146.54c-180.15,74.58-1773.86,0-1773.86,0l-77.89-30.09s-113.12-2.62-129.87-19.63c-16.76-17.01,16.76-160.93-180.15-198.88-196.91-37.94,175.96-153.08,175.96-153.08,0,0,1013.85-15.7,1902.02,11.78Z"/><path class="cls-4" d="m2783.26,666.78v141.28l229.28,80.48s33.35,65.57-145.91,133.53c-179.26,67.96-1765.11,0-1765.11,0l-77.5-27.42s-112.56-2.38-129.23-17.88c-16.68-15.5,16.68-146.65-179.26-181.23-195.93-34.58,175.09-139.5,175.09-139.5,0,0,1008.85-14.31,1892.64,10.73Z"/><path class="cls-3" d="m1002.79,906.04h-50.31l-3.4-12.94c-1.41.58-4.94,2.56-10.58,5.93-3.62,2.47-7.63,5.74-12.05,9.83l-5.24-11.77c-1.04-2.33-2.54-5.61-4.51-9.83l-4.97,18.78h-26.67c3.92-16.02,9.99-42.45,18.21-79.29,5.03-24.65,9.23-48.03,12.6-70.15h55.27c1.72,10.18,6.41,33.89,14.07,71.12,4.23,19.46,10.08,45.57,17.57,78.32Zm-58.03-31.91c-1.04-3.44-2.88-9.01-5.52-16.73-1.59-4.28-4.02-10.18-7.27-17.71-1.41,3.76-3.62,9.92-6.62,18.49-1.66,4.93-3.62,11.64-5.89,20.14,1.84,0,6.01-.39,12.51-1.17,3.92-.58,8.19-1.59,12.78-3.02Z"/><path class="cls-3" d="m1124.65,756.6c-5.09,15.96-13.24,42-24.46,78.12-5.15,16.99-11.8,40.76-19.96,71.31h-32.01c-4.11-14.79-10.98-38.95-20.6-72.48-5.46-18.55-13.55-44.2-24.28-76.96h65.02c.61,6.16,2.05,16.18,4.32,30.06,1.53,7.39,3.92,17.58,7.17,30.55,1.72-6.29,4.23-16.54,7.54-30.74,1.53-7.65,3.28-17.61,5.24-29.87h32.01Z"/><path class="cls-3" d="m1252.68,828.11c0,22.9-5.58,42.26-16.74,58.08-11.71,16.54-26.7,24.81-44.97,24.81s-34.06-8.33-45.71-25c-10.98-15.7-16.46-34.99-16.46-57.89,0-24.45,5.98-43.65,17.93-57.6,11.28-13.1,26.03-19.65,44.24-19.65s32.5,6.58,43.78,19.75c11.96,14.01,17.93,33.18,17.93,57.5Zm-44.24,17.12c0-18.03-5.76-27.05-17.29-27.05s-16.83,9.08-16.83,27.24c0,7.26,1.47,14.04,4.42,20.33,3.31,7.07,7.39,10.6,12.23,10.6s8.89-3.6,12.51-10.8c3.31-6.55,4.97-13.33,4.97-20.33Z"/><path class="cls-3" d="m1323.5,756.6l-3.59,79.49c-.68,17.12-1.47,40.44-2.39,69.95h-51.6l-6.25-149.44h63.83Z"/><path class="cls-3" d="m1456.67,832.48c0,23.42-6.87,41.84-20.6,55.26-14.16,13.95-34.12,20.92-59.87,20.92-16.55,0-29.34-.88-38.35-2.63l-2.48-72.29c-.8-18.55-2.24-44.14-4.32-76.76,13.3-2.01,27.19-3.02,41.66-3.02,25.81,0,46.02,6.36,60.61,19.07,15.57,13.62,23.36,33.44,23.36,59.44Zm-37.71,11.97c0-9.53-2.91-16.57-8.74-21.11-4.84-3.76-11.04-5.48-18.58-5.16l-1.29,61c7.85-.52,14.26-3.21,19.22-8.08,6.25-6.03,9.38-14.92,9.38-26.66Z"/><path class="cls-3" d="m1613.66,756.6l-2.67,61.2c-2.39-.39-6.22-.88-11.5-1.46-3.25-.19-8.52-.39-15.82-.58-.37,3.83-1.01,13.07-1.93,27.73-.68,14.21-1.78,35.06-3.31,62.56h-44.51c-.49-13.1-1.41-33.69-2.76-61.78-.61-9.73-1.26-19.23-1.93-28.51l-14.53.58-13.15,1.46-2.3-61.2h114.41Z"/><path class="cls-3" d="m1758.06,756.6c-1.04,15.96-2.42,41.93-4.14,77.93-.49,17.12-1.35,40.96-2.58,71.51h-46.91l-1.01-32.69c-1.1.39-3.34,1.33-6.71,2.82-3.99,1.82-6.81,3.28-8.46,4.38l-4.78-11.97c-.98-2.59-2.61-6.26-4.87-10.99l-.92,48.45h-51.78l-2.67-71.51c-.55-18.62-1.93-44.59-4.14-77.93h64.56l-4.32,92.04c4.47.46,8.77.58,12.88.39,2.64-.06,6.19-.32,10.67-.78l-4.69-91.65h59.87Z"/><path class="cls-3" d="m1862.26,756.6l-3.96,61.58c-2.27-.39-7.17-1.07-14.72-2.04-5.15-.52-10.79-.84-16.92-.97l-1.38,18.58c6.74.19,17.75.03,33.02-.49-.68,2.4-1.75,6.88-3.22,13.43-.86,3.96-1.63,8.53-2.3,13.72-1.78-.45-6.22-1.04-13.34-1.75-3.31-.19-8.22-.26-14.71-.19l-.92,21.7c4.6-.06,13.06-.49,25.38-1.26,2.33-.19,6.16-.97,11.5-2.33-.49,2.01-1.63,6.84-3.4,14.5-.86,3.96-1.9,8.95-3.13,14.98h-82.31l-2.67-76.28c-.49-17.45-1.69-41.83-3.59-73.16h96.66Z"/><path class="cls-3" d="m2031.21,828.11c0,22.9-5.58,42.26-16.74,58.08-11.71,16.54-26.7,24.81-44.97,24.81s-34.06-8.33-45.71-25c-10.98-15.7-16.46-34.99-16.46-57.89,0-24.45,5.98-43.65,17.93-57.6,11.28-13.1,26.03-19.65,44.24-19.65s32.5,6.58,43.78,19.75c11.96,14.01,17.93,33.18,17.93,57.5Zm-44.24,17.12c0-18.03-5.76-27.05-17.29-27.05s-16.83,9.08-16.83,27.24c0,7.26,1.47,14.04,4.42,20.33,3.31,7.07,7.39,10.6,12.23,10.6s8.89-3.6,12.51-10.8c3.31-6.55,4.97-13.33,4.97-20.33Z"/><path class="cls-3" d="m2162.73,756.6l-2.12,62.95c-.61,17.97-.92,45.14-.92,81.53-15.7,5.97-31.7,8.95-48.01,8.95-20.11,0-35.41-4.25-45.89-12.75-8.89-7.2-15.18-18.42-18.85-33.66-2.15-8.76-4.17-24.78-6.07-48.06-1.84-21.53-2.97-41.19-3.4-58.96h59.32c-.31,8.56-.68,22.51-1.1,41.83-.18,10.77-.12,26.04.18,45.82.06,15.05,1.29,25.2,3.68,30.45,2.51,5.58,7.54,8.37,15.08,8.37,2.15,0,4.54-.65,7.17-1.95,0-13.36-.37-34.6-1.1-63.73-.61-14.59-1.75-34.86-3.4-60.81h45.43Z"/><path class="cls-3" d="m2282.57,756.6l-2.67,61.2c-2.39-.39-6.22-.88-11.5-1.46-3.25-.19-8.52-.39-15.82-.58-.37,3.83-1.01,13.07-1.93,27.73-.68,14.21-1.78,35.06-3.31,62.56h-44.51c-.49-13.1-1.41-33.69-2.76-61.78-.61-9.73-1.26-19.23-1.93-28.51l-14.53.58-13.15,1.46-2.3-61.2h114.41Z"/><path class="cls-3" d="m2406.82,805.83c0,11.67-2.64,21.76-7.91,30.26-4.48,7.14-10.06,12.19-16.74,15.18,4.29,1.95,7.79,5.16,10.48,9.63,2.7,4.48,4.05,9.24,4.05,14.3,0,12.58-6.35,21.79-19.04,27.63-9.81,4.54-22.69,6.81-38.63,6.81-13.74,0-28.48-1.2-44.24-3.6-.43-15.11-1.32-39.76-2.67-73.94-.92-18.35-2.3-43.52-4.14-75.5,11.65-2.4,26.4-3.6,44.24-3.6,49.72,0,74.59,17.61,74.59,52.83Zm-40.47,64.5c0-7.52-5.09-11.29-15.27-11.29-1.04,0-2.12.07-3.22.2l-.55,23.84c12.69.58,19.04-3.66,19.04-12.75Zm3.04-46.21c0-4.99-1.9-8.82-5.7-11.48-3.43-2.4-7.94-3.54-13.52-3.41l-1.38,29.28c13.73.52,20.6-4.28,20.6-14.4Z"/><path class="cls-3" d="m2525.37,906.04h-50.31l-3.4-12.94c-1.41.58-4.94,2.56-10.58,5.93-3.62,2.47-7.63,5.74-12.05,9.83l-5.24-11.77c-1.04-2.33-2.54-5.61-4.51-9.83l-4.97,18.78h-26.67c3.92-16.02,9.99-42.45,18.21-79.29,5.03-24.65,9.23-48.03,12.6-70.15h55.27c1.72,10.18,6.41,33.89,14.07,71.12,4.23,19.46,10.08,45.57,17.57,78.32Zm-58.03-31.91c-1.04-3.44-2.88-9.01-5.52-16.73-1.59-4.28-4.02-10.18-7.27-17.71-1.41,3.76-3.62,9.92-6.62,18.49-1.66,4.93-3.62,11.64-5.89,20.14,1.84,0,6.01-.39,12.51-1.17,3.92-.58,8.19-1.59,12.78-3.02Z"/><path class="cls-3" d="m2632.7,817.79c-3.37-1.1-7.7-1.65-12.97-1.65-9.81,0-17.78,2.72-23.91,8.17-6.93,6.1-10.39,14.89-10.39,26.37,0,8.95,2.74,16.3,8.23,22.04,5.49,5.74,12.68,8.61,21.57,8.61,6.07,0,11.83-1.59,17.29-4.77-.61,2.66-1.66,7.56-3.13,14.69-.86,4.74-1.69,9.67-2.48,14.79-6.87,2.79-15.67,4.18-26.4,4.18-19.44,0-36.05-6.91-49.85-20.72-14.96-15.05-22.44-34.64-22.44-58.76,0-22.31,6.44-40.34,19.31-54.09,13.73-14.66,32.71-21.99,56.93-21.99,11.65,0,20.08.71,25.29,2.14l2.94,61Z"/><path class="cls-3" d="m2774.43,764.38c-3.37,6.62-10.27,20.56-20.69,41.83-5.7,11.74-13.55,27.4-23.54,46.99.86,1.43,5.82,7.43,14.9,18,5.33,6.03,12.91,13.72,22.72,23.06-4.11,1.88-10.82,4.93-20.14,9.15-5.21,2.47-12.54,6.06-21.98,10.8-2.33-2.98-7.11-9.96-14.35-20.92-4.05-6.49-7.94-13.39-11.68-20.72h-.37l-.92,33.47h-50.86l-2.48-77.74c-.68-16.99-2.12-40.89-4.32-71.7h64.01l-3.59,65.57h.64c2.58-7.65,6.71-20.27,12.42-37.85,2.33-7.65,5.33-18.16,9.01-31.52l26.03,6.03c8.46,1.95,16.86,3.79,25.2,5.55Z"/></svg>