<?xml version="1.0" encoding="UTF-8"?><svg id="Layer_1" xmlns="http://www.w3.org/2000/svg" width="1920" height="1080" viewBox="0 0 1920 1080"><defs><style>.cls-1{fill:#614b47;}.cls-1,.cls-2,.cls-3,.cls-4,.cls-5,.cls-6,.cls-7,.cls-8,.cls-9,.cls-10,.cls-11,.cls-12,.cls-13,.cls-14,.cls-15,.cls-16,.cls-17,.cls-18,.cls-19,.cls-20,.cls-21,.cls-22,.cls-23,.cls-24,.cls-25{stroke-width:0px;}.cls-2{fill:#de9562;}.cls-3{fill:#415245;}.cls-4{fill:#e97600;}.cls-5{fill:#606060;}.cls-6{fill:#ebffd4;}.cls-8{fill:#e59f71;}.cls-9{fill:#ac7755;}.cls-10{fill:#fffbe9;}.cls-11{fill:#576d5c;}.cls-12{fill:gray;}.cls-13{fill:#b0cfe3;}.cls-14{fill:#f3b46f;}.cls-15{fill:#fff;}.cls-16{fill:#59483a;}.cls-17{fill:#915932;}.cls-26{fill:#352600;stroke:#000;stroke-miterlimit:10;}.cls-18{fill:#996;}.cls-19{fill:#dfecf4;}.cls-20{fill:#404040;}.cls-21{fill:#846d69;}.cls-22{fill:#352000;}.cls-23{fill:#b5b46d;}.cls-24{fill:#81645f;}.cls-25{fill:#f5c38c;}</style></defs><rect class="cls-13" x="-42.76" y="-9.59" width="1996.45" height="235.04"/><path class="cls-17" d="m1088.77,279.81l550.37-26.81s-24.69-69.63-74.06-79.27c-49.37-9.64,14.52-57.86,14.52-57.86l-34.85-85.19s-8.18-12.86-53.47,0c-45.28,12.86-79.21-13.66-79.21-13.66,0,0-178.09-5.63-163.57,23.31,14.52,28.93-59.81,3.21-72.02,16.88-12.21,13.66-105.15,111.27-87.72,122.74,17.43,11.47,0,99.87,0,99.87Z"/><path class="cls-2" d="m1088.61,272.56l531.81-23.82s-23.85-61.85-71.56-70.42c-47.71-8.57,14.03-51.4,14.03-51.4l-33.68-75.68s-7.91-11.42-51.66,0c-43.75,11.42-76.54-12.14-76.54-12.14,0,0-172.08-5-158.05,20.7,14.03,25.7-57.79,2.86-69.59,14.99-11.8,12.14-101.6,98.85-84.76,109.04,16.84,10.19,0,88.72,0,88.72Z"/><rect class="cls-14" x="-42.76" y="214.06" width="1996.45" height="894.59"/><path class="cls-19" d="m-45.36,38.56h623.8s67.49,33.23,0,61.65H-45.36s-36.39-37.84,0-61.65Z"/><path class="cls-19" d="m649.19,90h443.51s47.99,21.38,0,39.67h-443.51s-25.88-24.35,0-39.67Z"/><path class="cls-19" d="m1608.15,38.77h443.51s47.99,21.38,0,39.67h-443.51s-25.88-24.35,0-39.67Z"/><path class="cls-2" d="m-98.16,1048.37s69.88-114.03,430.62-69.85c360.74,44.18,478.45,0,478.45,0,0,0,301.01-118.88,397.44-23.58,96.43,95.3,540.51,30.88,540.51,30.88,0,0,306.06-120.88,446.41-53.27,140.35,67.61-127.21,309.25-127.21,309.25,0,0-547.18,75.24-747.8,34.49-200.63-40.75-746.04,29.59-746.04,29.59,0,0-410.19-3.98-497.39-52.81-87.2-48.83-209.04-68.86-174.99-204.71Z"/><path class="cls-2" d="m-18.9,568.22s17.57-15.2,108.26-9.31c90.69,5.89,120.28,0,120.28,0,0,0,75.68-15.84,99.92-3.14s135.89,4.12,135.89,4.12c0,0,76.94-16.11,112.23-7.1,35.29,9.01-31.98,41.22-31.98,41.22,0,0-137.56,10.03-188,4.6-50.44-5.43-187.55,3.94-187.55,3.94,0,0-103.12-.53-125.04-7.04-21.92-6.51-52.55-9.18-43.99-27.28Z"/><path class="cls-25" d="m1111.98,804.44s25.12-31.78,154.8-19.46c129.68,12.31,172,0,172,0,0,0,108.21-33.13,142.88-6.57,34.67,26.56,194.31,8.6,194.31,8.6,0,0,110.03-33.68,160.48-14.84,50.46,18.84-45.73,86.17-45.73,86.17,0,0-196.71,20.96-268.83,9.61-72.12-11.35-268.19,8.25-268.19,8.25,0,0-147.46-1.11-178.81-14.72-31.35-13.61-75.15-19.19-62.91-57.04Z"/><path class="cls-2" d="m1631.26,537.15s17.57-24.51,108.26-15.01c90.69,9.5,120.28,0,120.28,0,0,0,75.68-25.55,99.92-5.07,24.24,20.48,135.89,6.64,135.89,6.64,0,0,76.94-25.98,112.23-11.45,35.29,14.53-31.98,66.46-31.98,66.46,0,0-137.56,16.17-188,7.41-50.44-8.76-187.55,6.36-187.55,6.36,0,0-103.12-.86-125.04-11.35-21.92-10.49-52.55-14.8-43.99-44Z"/><path class="cls-2" d="m307.71,797.79s32.23-4.89,33.76-10.76,26.16-1.46,31.68-3.51c5.51-2.06,27.99-8.91,27.99-8.91,0,0,7.48,5.6,5.49,16.75-2,11.15.1,1.8-9.51,16.53,0,0-34.21,16.75-48.87,11.32-14.67-5.43-26.71-1.29-26.71-1.29,0,0-22.1-18.68-13.81-20.13Z"/><path class="cls-12" d="m305.45,802.22s31.81-7.69,35.05,0c3.24,7.69,25.05-9.83,30.87-9.4s29.06,0,29.06,0c0,0,5.31-11.41,0-26.42-5.31-15.01-.46-2.62-14.03-19.28,0,0-37.32-8.35-49.44,6.08-12.12,14.43-24.72,14-24.72,14,0,0-15.03,36.74-6.79,35.03Z"/><path class="cls-2" d="m76.84,484.64h59.08s17.83,8.69-8.58,28.1-43.5,8.18-43.5,8.18c0,0-40.26-9.2-29.84-14.56s-9-21.72,22.85-21.72Z"/><path class="cls-12" d="m72.96,497.65h59.08s17.83-12.72-8.58-41.16c-26.41-28.44-43.5-11.97-43.5-11.97,0,0-40.26,13.47-29.84,21.33s-9,31.81,22.85,31.81Z"/><path class="cls-2" d="m1854.66,714.58s32.23-4.89,33.76-10.76c1.52-5.87,26.16-1.46,31.68-3.51,5.51-2.06,27.99-8.91,27.99-8.91,0,0,7.48,5.6,5.49,16.75-2,11.15.1,1.8-9.51,16.53,0,0-34.21,16.75-48.87,11.32-14.67-5.43-26.71-1.29-26.71-1.29,0,0-22.1-18.68-13.81-20.13Z"/><path class="cls-12" d="m1852.39,719.01s31.81-7.69,35.05,0c3.24,7.69,25.05-9.83,30.87-9.4s29.06,0,29.06,0c0,0,5.31-11.41,0-26.42-5.31-15.01-.46-2.62-14.03-19.28,0,0-37.32-8.35-49.44,6.08-12.12,14.43-24.72,14-24.72,14,0,0-15.03,36.74-6.79,35.03Z"/><path class="cls-2" d="m1657.73,411.04h59.08s17.83,8.69-8.58,28.1-43.5,8.18-43.5,8.18c0,0-40.26-9.2-29.84-14.56s-9-21.72,22.85-21.72Z"/><path class="cls-12" d="m1653.85,424.04h59.08s17.83-12.72-8.58-41.16c-26.41-28.44-43.5-11.97-43.5-11.97,0,0-40.26,13.47-29.84,21.33s-9,31.81,22.85,31.81Z"/><path class="cls-2" d="m1060.77,308.34s12.58-7.54,77.54-4.62c64.96,2.92,86.16,0,86.16,0,0,0,54.21-7.86,71.57-1.56,17.36,6.3,97.33,2.04,97.33,2.04,0,0,55.11-7.99,80.39-3.52s-22.91,20.45-22.91,20.45c0,0-98.53,4.97-134.66,2.28-36.13-2.69-134.34,1.96-134.34,1.96,0,0-73.87-.26-89.57-3.49-15.7-3.23-37.64-4.55-31.51-13.54Z"/><path class="cls-2" d="m-188.36,295.42s12.58-7.54,77.54-4.62c64.96,2.92,86.16,0,86.16,0,0,0,54.21-7.86,71.57-1.56,17.36,6.3,97.33,2.04,97.33,2.04,0,0,55.11-7.99,80.39-3.52,25.27,4.47-22.91,20.45-22.91,20.45,0,0-98.53,4.97-134.66,2.28-36.13-2.69-134.34,1.96-134.34,1.96,0,0-73.87-.26-89.57-3.49s-37.64-4.55-31.51-13.54Z"/><path class="cls-25" d="m1239.32,482.94s14.49-10.92,89.3-6.69c74.81,4.23,99.22,0,99.22,0,0,0,62.42-11.38,82.42-2.26,20,9.12,112.09,2.96,112.09,2.96,0,0,63.47-11.57,92.58-5.1,29.11,6.47-26.38,29.6-26.38,29.6,0,0-113.47,7.2-155.08,3.3s-154.71,2.83-154.71,2.83c0,0-85.06-.38-103.15-5.06s-43.35-6.59-36.29-19.6Z"/><polygon class="cls-2" points="736.92 987.64 1028.05 844.57 685.43 748.56 1110.92 656.31 793.77 564.07 1039.17 406.31 732.68 217.86 942.47 402.17 549.81 601.89 810.41 646.52 532.78 731.43 754.67 879.06 556.69 998.56 765.38 1145.41 897.37 1145.41 736.92 987.64"/><path class="cls-25" d="m246.96,395.48s14.49-15.71,89.3-9.62c74.81,6.09,99.22,0,99.22,0,0,0,62.42-16.38,82.42-3.25,20,13.13,112.09,4.25,112.09,4.25,0,0,63.47-16.65,92.58-7.34,29.11,9.32-26.38,42.61-26.38,42.61,0,0-113.47,10.37-155.08,4.75-41.61-5.61-154.71,4.08-154.71,4.08,0,0-85.06-.55-103.15-7.28-18.08-6.73-43.35-9.49-36.29-28.21Z"/><path class="cls-16" d="m263.87,212.3s10.25-20.29,8.74-45.69c0,0-13.16-7.26-16.5-2.81-3.34,4.45-11.01,10.23-14.1,9.09s-8.25.91-8.25.91c0,0-10.05-2.57-2.6-4.64s12.22-1.16,12.22-1.16c0,0,10.92-5.64,10.6-9.29s-10.64-4.96-10.64-4.96c0,0-8.41-1.24-7.98-7.27s-6.94-7.96-6.94-7.96c0,0-2.42-6.08,5.08-3.57s7.98,10.05,7.98,10.05c0,0,1.34,4.48,8.92,5.66,7.58,1.17,9.7,5.87,9.7,5.87,0,0,9.27,3.88,5.59-1.96s-3.46-8.09-3.46-8.09c0,0-3.67-5.31-7.98-4.83s-6.65-7.89-6.65-7.89c0,0-.98-7.21,4.26-2.79,5.24,4.42,3.19,3.98,3.19,3.98,0,0,10.81,2.14,12.24,4.78s5.47,13.01,5.47,13.01c0,0,3.23,3.9,3.84,0,.61-3.9,4.79-12.15,4.79-12.15,0,0,3.74-9.65,0-9.63s-.8-4.53-.8-4.53c0,0,6.11-5.72,8.52,0,2.41,5.72,0,13.29,0,13.29,0,0-1.75,12.52-5.85,16.12-4.11,3.6,2.66,2.85,2.66,2.85l10.11-10.05s3.32-15.97,7.45-13.71,2.13,5.65,2.13,5.65c0,0,.94,6.98-2.93,12.15s-10.11,10.4-10.11,10.4l-6.65,4.97s-10.81,46.71,2.66,44.21c0,0-27.61,12.1-24.71,0Z"/><ellipse class="cls-2" cx="1682.94" cy="967.06" rx="28.29" ry="13.71"/><path class="cls-11" d="m1678.94,964.36s-47.13-8.1-42.97-60.56c0,0,11.31,47.28,44.45,51.85l-1.48,8.71Z"/><path class="cls-11" d="m1677.58,968.7s-47.63,2.15-52.27-50.26c0,0,18.97,44,52.27,41.39v8.87Z"/><path class="cls-11" d="m1681.67,969.7s-43.65-21.76-27.6-71.18c0,0,.08,48.99,31.02,63.21l-3.42,7.98Z"/><path class="cls-11" d="m1686.5,968.77s47.12-8.24,42.83-60.69c0,0-11.2,47.31-44.33,51.98l1.5,8.71Z"/><path class="cls-11" d="m1679.02,969.19s44.93-18.09,32.09-68.71c0,0-3.22,48.86-34.99,60.47l2.9,8.24Z"/><path class="cls-11" d="m1667.22,968.47s44.93-18.09,32.09-68.71c0,0-3.22,48.86-34.99,60.47l2.9,8.24Z"/><path class="cls-11" d="m1666.56,967.32s40.9-27.81,19.5-74.56c0,0,5.35,48.62-23.78,67.13l4.28,7.42Z"/><path class="cls-11" d="m1691.49,967.31s-43.65-21.76-27.6-71.18c0,0,.08,48.99,31.02,63.21l-3.42,7.98Z"/><ellipse class="cls-11" cx="1677.26" cy="957.37" rx="19.92" ry="13.76"/><ellipse class="cls-2" cx="1203.91" cy="231.57" rx="14.23" ry="7.85"/><path class="cls-11" d="m1201.89,230.02s-23.7-4.64-21.61-34.69c0,0,5.69,27.08,22.35,29.7l-.74,4.99Z"/><path class="cls-11" d="m1201.21,232.51s-23.95,1.23-26.29-28.79c0,0,9.54,25.2,26.29,23.7v5.08Z"/><path class="cls-11" d="m1203.27,233.08s-21.95-12.46-13.88-40.77c0,0,.04,28.06,15.6,36.2l-1.72,4.57Z"/><path class="cls-11" d="m1205.7,232.55s23.69-4.72,21.54-34.76c0,0-5.63,27.1-22.29,29.77l.75,4.99Z"/><path class="cls-11" d="m1201.93,232.79s22.6-10.36,16.14-39.35c0,0-1.62,27.98-17.6,34.64l1.46,4.72Z"/><path class="cls-11" d="m1196,232.38s22.6-10.36,16.14-39.35c0,0-1.62,27.98-17.6,34.64l1.46,4.72Z"/><path class="cls-11" d="m1195.67,231.72s20.57-15.93,9.81-42.7c0,0,2.69,27.84-11.96,38.45l2.15,4.25Z"/><path class="cls-11" d="m1208.2,231.71s-21.95-12.46-13.88-40.77c0,0,.04,28.06,15.6,36.2l-1.72,4.57Z"/><ellipse class="cls-11" cx="1201.05" cy="226.02" rx="10.02" ry="7.88"/><ellipse class="cls-2" cx="819.26" cy="401.38" rx="19.15" ry="9.93"/><path class="cls-11" d="m816.55,399.42s-31.9-5.86-29.09-43.83c0,0,7.66,34.22,30.08,37.53l-1,6.31Z"/><path class="cls-11" d="m815.63,402.56s-32.24,1.56-35.38-36.38c0,0,12.84,31.85,35.38,29.96v6.42Z"/><path class="cls-11" d="m818.4,403.29s-29.54-15.75-18.68-51.52c0,0,.05,35.46,20.99,45.75l-2.32,5.77Z"/><path class="cls-11" d="m821.67,402.61s31.89-5.96,28.99-43.93c0,0-7.58,34.24-30,37.63l1.01,6.3Z"/><path class="cls-11" d="m816.6,402.91s30.41-13.1,21.72-49.73c0,0-2.18,35.36-23.68,43.77l1.96,5.96Z"/><path class="cls-11" d="m808.62,402.39s30.41-13.1,21.72-49.73c0,0-2.18,35.36-23.68,43.77l1.96,5.96Z"/><path class="cls-11" d="m808.17,401.56s27.68-20.13,13.2-53.96c0,0,3.62,35.19-16.1,48.59l2.9,5.37Z"/><path class="cls-11" d="m825.05,401.56s-29.54-15.75-18.68-51.52c0,0,.05,35.46,20.99,45.75l-2.32,5.77Z"/><ellipse class="cls-11" cx="815.42" cy="394.36" rx="13.48" ry="9.96"/><ellipse class="cls-2" cx="175.37" cy="222.63" rx="14.41" ry="22.17" transform="translate(-90.45 320.9) rotate(-72.06)"/><ellipse class="cls-2" cx="148.87" cy="703.15" rx="37.95" ry="15.84"/><path class="cls-11" d="m143.5,700.03s-63.23-9.35-57.65-69.94c0,0,15.17,54.6,59.63,59.88l-1.98,10.06Z"/><path class="cls-11" d="m141.68,705.03s-63.9,2.49-70.12-58.04c0,0,25.45,50.82,70.12,47.8v10.25Z"/><path class="cls-11" d="m147.17,706.2s-58.55-25.13-37.02-82.2c0,0,.1,56.58,41.61,72.99l-4.59,9.21Z"/><path class="cls-11" d="m153.65,705.11s63.2-9.52,57.45-70.09c0,0-15.02,54.64-59.46,60.03l2.01,10.06Z"/><path class="cls-11" d="m143.61,705.6s60.27-20.89,43.04-79.35c0,0-4.32,56.42-46.94,69.84l3.89,9.51Z"/><path class="cls-11" d="m127.79,704.77s60.27-20.89,43.04-79.35c0,0-4.32,56.42-46.94,69.84l3.89,9.51Z"/><path class="cls-11" d="m126.9,703.45s54.86-32.12,26.16-86.1c0,0,7.17,56.14-31.9,77.52l5.74,8.57Z"/><path class="cls-11" d="m160.34,703.43s-58.55-25.13-37.02-82.2c0,0,.1,56.58,41.61,72.99l-4.59,9.21Z"/><ellipse class="cls-11" cx="141.25" cy="691.95" rx="26.72" ry="15.89"/><path class="cls-16" d="m187.34,216.85s-12.84-30.47-10.94-68.63c0,0,16.48-10.91,20.66-4.22s13.78,15.37,17.66,13.65c3.88-1.72,7.45,2.09,10.33,1.36s12.58-3.86,3.25-6.97c-9.33-3.11-15.3-1.75-15.3-1.75,0,0-13.68-8.47-13.28-13.95s13.33-7.45,13.33-7.45c0,0,10.53-1.86,10-10.93-.53-9.07,8.7-11.96,8.7-11.96,0,0,3.03-9.14-6.36-5.36-9.4,3.78-10,15.09-10,15.09,0,0-1.68,6.73-11.18,8.5-9.5,1.76-12.15,8.82-12.15,8.82,0,0-11.61,5.83-7-2.95,4.61-8.77,4.33-12.15,4.33-12.15,0,0,4.6-7.97,10-7.26s8.33-11.85,8.33-11.85c0,0-.5-5.52-5.33-4.18s-4,5.97-4,5.97c0,0-13.54,3.21-15.33,7.19-1.79,3.98-6.86,19.55-6.86,19.55,0,0-4.05,5.85-4.81,0-.76-5.85-6-18.24-6-18.24,0,0-.1-14.5,0-14.46s1.05-6.7,1-6.8-9.46-12.26-10.66,0c-1.2,12.26-2.38,15.51,0,19.96s7.43,24.24,7.33,24.22-3.33,4.28-3.33,4.28c0,0-12.75-15.04-12.66-15.1s-1.45-18.13-9.33-20.59c-7.88-2.46-7.36,3.17-2.67,8.49,4.7,5.32-1.17,10.49,3.67,18.24,4.84,7.75,12.66,15.62,12.66,15.62,0,0,10.79,3.32,8.33,7.46s-3.36,66.39-3.33,66.4,34.58,18.17,30.94,0Z"/><path class="cls-16" d="m-152.55,889.68S-53.2,581.79-67.85,196.16c0,0-127.51-110.2-159.9-42.69-32.39,67.51-106.67,155.34-136.69,137.94-30.02-17.4-57.66,21.12-79.95,13.74-22.29-7.37-97.38-39-25.17-70.42,72.21-31.42,118.43-17.67,118.43-17.67,0,0,105.84-85.63,102.75-141.01C-251.48,20.67-351.54.79-351.54.79c0,0-81.5-18.8-77.37-110.42,4.13-91.62-67.3-120.83-67.3-120.83,0,0-23.48-92.33,49.25-54.14,72.73,38.19,77.37,152.5,77.37,152.5,0,0,12.98,68.05,86.49,85.87,73.51,17.82,94.04,89.13,94.04,89.13,0,0,89.85,58.89,54.16-29.78-35.69-88.67-33.53-122.74-33.53-122.74,0,0-35.59-80.58-77.37-73.34-41.78,7.25-64.47-119.72-64.47-119.72,0,0,3.88-55.81,41.26-42.28,37.38,13.53,30.95,60.36,30.95,60.36,0,0,104.81,32.43,118.63,72.62C-105.61-171.79-66.38-14.47-66.38-14.47c0,0,31.33,59.12,37.21,0,5.88-59.12,46.42-184.35,46.42-184.35,0,0,.79-146.52,0-146.14s-8.15-67.67-7.74-68.73,73.23-123.91,82.53,0c9.29,123.91,18.45,156.73,0,201.71-18.45,44.98-57.48,244.98-56.74,244.73s25.79,43.3,25.79,43.3c0,0,98.63-152.02,98-152.59-.63-.58,11.21-183.16,72.21-208.07,61-24.9,56.98,32.04,20.63,85.78-36.35,53.74,9.08,106-28.37,184.35-37.45,78.35-98,157.81-98,157.81,0,0-83.5,33.59-64.47,75.38,19.02,41.79,26.03,670.92,25.79,670.97s-267.6,183.62-239.43,0Z"/><path class="cls-5" d="m247.55,960.78l357.08-10.09s31.94,10.09,44.46,0l12.52-10.09s22.79-1.12,22.79-12.33-20.89-33.62-20.89-33.62c0,0,5.7,2.34,20.89-27.97,15.19-30.31-87.11-56.09-87.11-56.09,0,0-45.84-45.95-47.74-73.97s-58.88-36.98-58.88-36.98l-75.97,14.57s-39.02-7.85-66.05-14.57c-27.02-6.72-103,31.79-101.1,59.04,1.9,27.25-60.78,97.86-60.78,97.86,0,0,32.29,105.35,60.78,104.23Z"/><path class="cls-2" d="m612.73,884.85l-306.17,37.84s-29.18-2.01-38.33,4.1l-9.15,6.11s-19.47,2.65-17.64,8.15c1.83,5.5,23.49,14.59,23.49,14.59,0,0-5.29-.63-13.45,15.66-8.16,16.29,84.24,19.52,84.24,19.52,0,0,47.01,18.34,53.22,31.93,6.21,13.59,56.79,12.74,56.79,12.74l63.12-14.15s34.92.26,59.31,1.07c24.39.81,83.6-25.1,77.52-38.31-6.08-13.21,36.43-53.66,36.43-53.66,0,0-45.02-48.76-69.39-45.59Z"/><path class="cls-12" d="m247.62,971.13l357.08-10.09s31.94,10.09,44.46,0l12.52-10.09s22.79-1.12,22.79-12.33-20.89-33.62-20.89-33.62c0,0,5.7,2.34,20.89-27.97,15.19-30.31-87.11-56.09-87.11-56.09,0,0-45.84-45.95-47.74-73.97-1.9-28.02-58.88-36.98-58.88-36.98l-75.97,14.57s-39.02-7.85-66.05-14.57c-27.02-6.72-103,31.79-101.1,59.04,1.9,27.25-60.78,97.86-60.78,97.86,0,0,32.29,105.35,60.78,104.23Z"/><path class="cls-2" d="m220.54,470.11c26.71-9.44,328.57,1.38,338.49,9.08,9.92,7.69-15.18,23.57-45.55,26.83-30.37,3.26,8.93,19.59,8.93,19.59l-21.43,28.84s-5.03,4.35-32.88,0-48.72,4.62-48.72,4.62c0,0-109.53,1.9-100.6-7.89s-36.79-1.09-44.29-5.71c-7.51-4.62-64.67-37.66-53.95-41.55,10.72-3.88-26.71-24.36,0-33.81Z"/><path class="cls-5" d="m220.31,505.47c26.71,19.33,328.5-2.83,338.41-18.57,9.92-15.74-15.18-48.23-45.54-54.91-30.36-6.68,8.93-40.08,8.93-40.08l-21.43-59s-5.03-8.91-32.88,0c-27.84,8.91-48.7-9.46-48.7-9.46,0,0-109.5-3.9-100.57,16.14,8.93,20.04-36.78,2.23-44.28,11.69s-64.65,77.07-53.94,85.01-26.71,49.85,0,69.18Z"/><path class="cls-12" d="m209.94,505.5c26.71,19.33,328.5-2.83,338.41-18.57,9.92-15.74-15.18-48.23-45.54-54.91-30.36-6.68,8.93-40.08,8.93-40.08l-21.43-59s-5.03-8.91-32.88,0-48.7-9.46-48.7-9.46c0,0-109.5-3.9-100.57,16.14,8.93,20.04-36.78,2.23-44.28,11.69-7.51,9.46-64.65,77.07-53.94,85.01,10.71,7.94-26.71,49.85,0,69.18Z"/><path class="cls-2" d="m1332.97,764.16h268.37s81.01,44.4-38.98,143.64c-119.99,99.24-197.63,41.79-197.63,41.79,0,0-182.87-47.01-135.55-74.43,47.32-27.42-40.91-110.99,103.79-110.99Z"/><path class="cls-5" d="m1299.58,867.12h298.39s90.07-61.2-43.34-198c-133.41-136.8-219.74-57.6-219.74-57.6,0,0-203.33,64.8-150.71,102.6,52.62,37.8-45.48,153,115.4,153Z"/><path class="cls-12" d="m1297.28,877.42h298.39s90.07-61.2-43.34-198c-133.41-136.8-219.74-57.6-219.74-57.6,0,0-203.33,64.8-150.71,102.6,52.62,37.8-45.48,153,115.4,153Z"/><path class="cls-20" d="m1036.38,596.47l72.45,13.12,37.51-13.12v-59.36s-19.4-20.66-23.02-39.03c-3.62-18.37-19.92-12.46-19.92-12.46l-.96-10.22s1.56-12.08-19.57-8.8c-21.13,3.28-29.83-.56-29.83-.56,0,0-29.17,33.51-27.44,51.8,1.73,18.29-.07,78.9-.07,78.9,0,0-9.67,3.67,10.86-.27Z"/><path class="cls-5" d="m1044.92,594.8v-56.68l27.74-32.29s4.03-26.31-17.65-53.57c-21.69-27.26-213.53,0-213.53,0l-9.38,11s-13.62.96-15.63,7.17c-2.02,6.22,2.02,58.83-21.69,72.7s21.18,55.96,21.18,55.96c0,0,122.05,5.74,228.96-4.3Z"/><path class="cls-5" d="m1056.99,600.41s18.72,10.49,29.58,4.59l10.87-5.9s-1.81-18.9,0-28.47c1.81-9.57-16.8-15.59-17.15-38.16s-82.82,0-82.82,0l-12.32,1.04s7.03,25.49,18.91,31.11-8.64,27.27-8.64,27.27l8.64,14.92,52.94-6.39Z"/><path class="cls-2" d="m1039.35,546.58l70.5-8.71,36.5,8.71v39.39s-18.88,13.71-22.4,25.9c-3.52,12.19-19.39,8.27-19.39,8.27l-.93,6.78s1.52,8.02-19.04,5.84c-20.56-2.18-29.03.37-29.03.37,0,0-28.39-22.24-26.7-34.38,1.68-12.14-.07-52.36-.07-52.36,0,0-9.41-2.43,10.57.18Z"/><path class="cls-2" d="m1047.65,547.69v37.62l26.99,21.43s3.93,17.46-17.18,35.55c-21.1,18.09-207.78,0-207.78,0l-9.12-7.3s-13.25-.63-15.21-4.76c-1.96-4.13,1.96-39.04-21.1-48.25-23.06-9.21,20.61-37.14,20.61-37.14,0,0,118.76-3.81,222.79,2.86Z"/><path class="cls-2" d="m1059.4,543.97s18.21-6.96,28.79-3.05l10.57,3.92s-1.76,12.54,0,18.9c1.76,6.35-16.35,10.35-16.69,25.33-.35,14.98-80.59,0-80.59,0l-11.99-.69s6.84-16.92,18.4-20.65c11.56-3.73-8.41-18.09-8.41-18.09l8.41-9.9,51.51,4.24Z"/><path class="cls-12" d="m1036.69,605.4l72.45,13.12,37.51-13.12v-59.36s-19.4-20.66-23.02-39.03-19.92-12.46-19.92-12.46l-.96-10.22s1.56-12.08-19.57-8.8c-21.13,3.28-29.83-.56-29.83-.56,0,0-29.17,33.51-27.44,51.8s-.07,78.9-.07,78.9c0,0-9.67,3.67,10.86-.27Z"/><path class="cls-12" d="m1045.22,603.72v-56.68l27.74-32.29s4.03-26.31-17.65-53.57c-21.69-27.26-213.53,0-213.53,0l-9.38,11s-13.62.96-15.63,7.17c-2.02,6.22,2.02,58.83-21.69,72.7-23.7,13.87,21.18,55.96,21.18,55.96,0,0,122.05,5.74,228.96-4.3Z"/><path class="cls-12" d="m1057.29,609.33s18.72,10.49,29.58,4.59l10.87-5.9s-1.81-18.9,0-28.47-16.8-15.59-17.15-38.16c-.36-22.57-82.82,0-82.82,0l-12.32,1.04s7.03,25.49,18.91,31.11c11.88,5.62-8.64,27.27-8.64,27.27l8.64,14.92,52.94-6.39Z"/><path class="cls-5" d="m1412.62,420.73s101.19-23.02,111.49,0c10.3,23.02,79.67-29.41,98.17-28.13,18.5,1.28,92.43-.02,92.43-.02,0,0,16.89-34.15,0-79.08-16.89-44.93-1.47-7.85-44.64-57.71,0,0-118.71-24.99-157.25,18.19-38.54,43.18-78.62,41.91-78.62,41.91,0,0-47.79,109.97-21.58,104.85Z"/><path class="cls-5" d="m1637.02,427.01s31.88-23.31,83.7-17.27c51.81,6.04,12.95-31.95,12.95-31.95,0,0-14.95-46.63-50.82-35.4-35.87,11.23-25.41,18.49-25.41,18.49,0,0-38.81,3.08-52.54,22.95-13.72,19.87-27.67,19.01-27.67,25.91s59.78,17.27,59.78,17.27Z"/><path class="cls-2" d="m1391.22,394.61s100.85,9.69,111.11,0c10.27-9.69,79.41,12.38,97.84,11.84,18.44-.54,92.12,0,92.12,0,0,0,16.83,14.37,0,33.29-16.83,18.91-1.47,3.3-44.49,24.29,0,0-118.31,10.52-156.72-7.66-38.41-18.18-78.36-17.64-78.36-17.64,0,0-47.63-46.29-21.51-44.13Z"/><path class="cls-2" d="m1614.87,391.96s31.78,9.81,83.42,7.27c51.64-2.54,12.91,13.45,12.91,13.45,0,0-14.9,19.63-50.65,14.9-35.75-4.72-25.32-7.78-25.32-7.78,0,0-38.68-1.3-52.36-9.66-13.68-8.36-27.58-8-27.58-10.91s59.58-7.27,59.58-7.27Z"/><path class="cls-12" d="m1389.63,423.22s101.19-23.02,111.49,0c10.3,23.02,79.67-29.41,98.17-28.13s92.43-.02,92.43-.02c0,0,16.89-34.15,0-79.08-16.89-44.93-1.47-7.85-44.64-57.71,0,0-118.71-24.99-157.25,18.19s-78.62,41.91-78.62,41.91c0,0-47.79,109.97-21.58,104.85Z"/><path class="cls-12" d="m1614.04,429.5s31.88-23.31,83.7-17.27c51.81,6.04,12.95-31.95,12.95-31.95,0,0-14.95-46.63-50.82-35.4-35.87,11.23-25.41,18.49-25.41,18.49,0,0-38.81,3.08-52.54,22.95-13.72,19.87-27.67,19.01-27.67,25.91s59.78,17.27,59.78,17.27Z"/><path class="cls-3" d="m4.77,1029.15s-308.3-61.35-281.08-458.88c0,0,73.99,358.23,290.73,392.86l-9.65,66.02Z"/><path class="cls-3" d="m22.65,1069.64s-285.5-164.88-180.5-539.36c0,0,.49,371.22,202.89,478.92l-22.39,60.43Z"/><path class="cls-3" d="m86.87,1069.11s-285.5-164.88-180.5-539.36c0,0,.49,371.22,202.89,478.92l-22.39,60.43Z"/><ellipse class="cls-3" cx="14.08" cy="984.47" rx="163.03" ry="104.27"/><path class="cls-3" d="m53.3,1045.67s-211.4-184.45-45.88-505.21c0,0-74.46,331.59,77.25,454.16l-31.38,51.05Z"/><path class="cls-3" d="m19.52,1029.66s308.3-61.35,281.08-458.88c0,0-73.99,358.23-290.73,392.86l9.65,66.02Z"/><path class="cls-3" d="m28.41,1062.51s311.56,16.32,341.88-380.82c0,0-124.07,333.41-341.88,313.6v67.23Z"/><path class="cls-3" d="m1.65,1070.15s285.5-164.88,180.5-539.36c0,0-.49,371.22-202.89,478.92l22.39,60.43Z"/><path class="cls-3" d="m-62.57,1069.61s285.5-164.88,180.5-539.36c0,0-.49,371.22-202.89,478.92l22.39,60.43Z"/><path class="cls-3" d="m-29.01,1046.17s211.4-184.45,45.88-505.21c0,0,74.46,331.59-77.25,454.16l31.38,51.05Z"/><path class="cls-11" d="m20.35,1039.49s-308.3-61.35-281.08-458.88c0,0,73.99,358.23,290.73,392.86l-9.65,66.02Z"/><path class="cls-11" d="m11.46,1072.34s-311.56,16.32-341.88-380.82c0,0,124.07,333.41,341.88,313.6v67.23Z"/><path class="cls-11" d="m38.23,1079.98s-285.5-164.88-180.5-539.36c0,0,.49,371.22,202.89,478.92l-22.39,60.43Z"/><path class="cls-11" d="m102.45,1079.44s-285.5-164.88-180.5-539.36c0,0,.49,371.22,202.89,478.92l-22.39,60.43Z"/><ellipse class="cls-11" cx="29.66" cy="994.81" rx="163.03" ry="104.27"/><path class="cls-11" d="m68.88,1056s-211.4-184.45-45.88-505.21c0,0-74.46,331.59,77.25,454.16l-31.38,51.05Z"/><path class="cls-11" d="m35.1,1039.99s308.3-61.35,281.08-458.88c0,0-73.99,358.23-290.73,392.86l9.65,66.02Z"/><path class="cls-11" d="m44,1072.85s311.56,16.32,341.88-380.82c0,0-124.07,333.41-341.88,313.6v67.23Z"/><path class="cls-11" d="m17.23,1080.49s285.5-164.88,180.5-539.36c0,0-.49,371.22-202.89,478.92l22.39,60.43Z"/><path class="cls-11" d="m-46.99,1079.95s285.5-164.88,180.5-539.36c0,0-.49,371.22-202.89,478.92l22.39,60.43Z"/><path class="cls-11" d="m-13.43,1056.51s211.4-184.45,45.88-505.21c0,0,74.46,331.59-77.25,454.16l31.38,51.05Z"/><path class="cls-9" d="m1598,334.92v101.16l159.03,57.62s23.13,46.95-101.2,95.61c-124.33,48.66-1224.28,0-1224.28,0l-53.76-19.63s-78.07-1.71-89.64-12.8c-11.57-11.1,11.57-105-124.33-129.75-135.9-24.76,121.44-99.88,121.44-99.88,0,0,699.74-10.24,1312.74,7.68Z"/><path class="cls-8" d="m1608,330.57v92.18l158.25,52.51s23.02,42.78-100.7,87.12c-123.72,44.34-1218.25,0-1218.25,0l-53.49-17.89s-77.69-1.56-89.19-11.67c-11.51-10.11,11.51-95.68-123.72-118.24-135.23-22.56,120.84-91.01,120.84-91.01,0,0,696.29-9.33,1306.26,7Z"/><path class="cls-6" d="m648.61,471.08c-.55,4.17-1.37,12.04-2.46,23.62-.55,6.92-1.07,15.11-1.56,24.58-7.34,1.91-18.04,2.87-32.1,2.87-20.91,0-37.91-4.22-50.99-12.66-15.44-10.06-23.15-25.02-23.15-44.89s6.76-33.9,20.28-44.6c12.7-10.06,29.42-15.09,50.17-15.09,7.83,0,16.23.54,25.21,1.62l4.52,46.44c-3.61-1.23-8.76-1.84-15.44-1.84-8.49,0-16.15,2.33-22.99,6.99-7.66,5.25-11.5,11.92-11.5,20.02,0,7.65,3.26,13.57,9.77,17.74,5.47,3.53,11.8,5.2,18.97,5l-1.31-14.79c-.33-3.04-1.07-8.05-2.22-15.01h34.81Z"/><path class="cls-6" d="m753.3,519.43h-44.91l-3.04-9.79c-1.26.44-4.41,1.94-9.44,4.49-3.23,1.87-6.81,4.34-10.76,7.43l-4.68-8.91c-.93-1.77-2.27-4.24-4.02-7.43l-4.43,14.2h-23.81c3.5-12.12,8.92-32.11,16.26-59.98,4.49-18.64,8.24-36.33,11.25-53.06h49.35c1.53,7.7,5.72,25.64,12.56,53.8,3.78,14.72,9,34.47,15.68,59.25Zm-51.81-24.14c-.93-2.6-2.57-6.82-4.93-12.66-1.42-3.24-3.59-7.7-6.49-13.39-1.26,2.85-3.23,7.51-5.91,13.98-1.48,3.73-3.23,8.81-5.25,15.23,1.64,0,5.36-.29,11.17-.88,3.5-.44,7.31-1.2,11.41-2.28Z"/><path class="cls-6" d="m889.02,406.39c-.77,10.3-1.89,29.1-3.37,56.38-.77,16.78-1.34,35.67-1.72,56.67h-29.72l-.82-34.66-28.98,37.39-31.28-37.09-.82,34.37h-29.56c-.38-11.24-1.12-30.22-2.22-56.96-.77-15.41-2.16-34.1-4.19-56.08h47.05c1.64,3.58,4.46,9.37,8.46,17.37,3.07,5.69,7.25,12.41,12.56,20.17,2.35-3.34,6.68-10.23,12.97-20.68,2.24-3.88,5.12-9.49,8.62-16.85h43.03Z"/><path class="cls-6" d="m982.05,406.39l-3.53,46.59c-2.03-.29-6.4-.81-13.14-1.54-4.6-.39-9.63-.64-15.11-.74l-1.23,14.06c6.02.15,15.85.03,29.48-.37-.6,1.82-1.56,5.2-2.87,10.16-.77,2.99-1.45,6.45-2.05,10.38-1.59-.34-5.56-.78-11.91-1.33-2.96-.15-7.34-.2-13.14-.15l-.82,16.41c4.11-.05,11.66-.37,22.66-.96,2.08-.15,5.5-.74,10.26-1.77-.44,1.52-1.45,5.18-3.04,10.97-.77,2.99-1.7,6.77-2.79,11.33h-73.49l-2.38-57.7c-.44-13.2-1.51-31.65-3.2-55.34h86.3Z"/><path class="cls-6" d="m1132.89,460.48c0,17.32-4.98,31.97-14.94,43.94-10.46,12.51-23.84,18.77-40.15,18.77s-30.41-6.3-40.81-18.92c-9.8-11.87-14.7-26.47-14.7-43.79,0-18.5,5.34-33.02,16.01-43.57,10.07-9.91,23.24-14.87,39.5-14.87s29.01,4.98,39.08,14.94c10.67,10.6,16.01,25.1,16.01,43.5Zm-39.5,12.95c0-13.64-5.15-20.46-15.44-20.46s-15.03,6.87-15.03,20.61c0,5.5,1.31,10.62,3.94,15.38,2.96,5.35,6.6,8.02,10.92,8.02s7.94-2.72,11.17-8.17c2.96-4.96,4.43-10.08,4.43-15.38Z"/><path class="cls-6" d="m1244.89,406.39c-4.54,12.07-11.82,31.77-21.84,59.1-4.6,12.86-10.54,30.84-17.82,53.95h-28.57c-3.67-11.19-9.8-29.46-18.39-54.83-4.87-14.03-12.1-33.44-21.68-58.21h58.05c.55,4.66,1.83,12.24,3.86,22.74,1.37,5.59,3.5,13.3,6.4,23.11,1.53-4.76,3.78-12.51,6.73-23.26,1.37-5.79,2.93-13.32,4.68-22.59h28.57Z"/><path class="cls-6" d="m1335.37,406.39l-3.53,46.59c-2.03-.29-6.4-.81-13.14-1.54-4.6-.39-9.63-.64-15.11-.74l-1.23,14.06c6.02.15,15.85.03,29.48-.37-.6,1.82-1.56,5.2-2.87,10.16-.77,2.99-1.45,6.45-2.05,10.38-1.59-.34-5.56-.78-11.91-1.33-2.96-.15-7.34-.2-13.14-.15l-.82,16.41c4.11-.05,11.66-.37,22.66-.96,2.08-.15,5.5-.74,10.26-1.77-.44,1.52-1.45,5.18-3.04,10.97-.77,2.99-1.7,6.77-2.79,11.33h-73.49l-2.38-57.7c-.44-13.2-1.51-31.65-3.2-55.34h86.3Z"/><path class="cls-6" d="m1452.71,448.7c0,9.03-2.82,17.03-8.46,23.99-4.98,6.08-11.22,10.45-18.72,13.1,1.59,2.21,5.5,6.84,11.74,13.91,3.12,3.24,7.88,7.51,14.29,12.81-2.57.83-8.24,2.94-17,6.33-6.13,2.5-11.91,4.96-17.33,7.36-1.59-1.77-5.12-6.33-10.59-13.69-2.52-3.73-6.21-10.01-11.08-18.84h-.16l-.82,25.76h-46.23c-.6-10.7-1.45-28.33-2.54-52.92-.49-14.47-1.62-34.52-3.37-60.13,15.05-1.42,28.79-2.13,41.22-2.13,46.04,0,69.05,14.82,69.05,44.45Zm-37.28,15.9c0-4.66-2.19-8-6.57-10.01-3.23-1.47-7.28-2.11-12.15-1.91l-.49,25.17c4.54,0,8.59-.91,12.15-2.72,4.71-2.36,7.06-5.86,7.06-10.52Z"/><polygon class="cls-10" points="1508.05 707.32 1510.62 722.6 1513.31 707.32 1508.05 707.32"/><path class="cls-18" d="m1729.71,937.65c.12,0-7.54-40.95,35-66.61,42.54-25.66,29.8-26.54,27.33-52.69-2.47-26.15,9.27-44.45,23.83-40.36,14.57,4.09,23.12,67.26,23.12,67.26,0,0,1.76,28.29-34.12,44.64-13.72,6.32-29.86,35.59-29.86,35.59,0,0-5.74,33.77-9.4,29.35"/><path class="cls-18" d="m1437.62,1036.4l331.21,4.24s35.81-2.66,36.93-29.16-39.25-30.44-39.25-30.44l-328.05-4.19s-25.91,4.38-25.7,29.45c.21,25.07,24.86,30.1,24.86,30.1Z"/><path class="cls-18" d="m1465.29,977.2l276.66,3.54s29.92-2.74,30.92-29.23c.99-26.49-32.71-30.35-32.71-30.35l-274.03-3.5s-21.65,4.44-21.54,29.51c.11,25.07,20.7,30.05,20.7,30.05Z"/><path class="cls-18" d="m1494.17,918l213.72,2.73s23.12-2.83,23.98-29.32c.85-26.49-25.18-30.26-25.18-30.26l-211.68-2.71s-16.74,4.5-16.73,29.57c0,25.07,15.89,29.98,15.89,29.98Z"/><path class="cls-18" d="m1569.29,859.62s-2.28-62.16,22.18-77.27c24.46-15.11,60.34,3.34,78.71-17.42,18.36-20.76-15.12-40.9-15.12-40.9l-110.16-1.41s-36.82,5.1-35.89-27.03,34.11-24.85,34.11-24.85l113.74.84s78.88-3.28,76.89,87.2c-1.99,90.48-84.92,36.71-92.44,64.04-7.52,27.33-4.95,37.64-4.95,37.64l-67.07-.86Z"/><path class="cls-23" d="m1733.19,925.02c.1,0-4.12-37.76,33.98-59.13s27.19-22.79,26.58-46.8c-.61-24,10.55-40.14,22.85-35.7,12.3,4.44,16,62.55,16,62.55,0,0-.13,25.92-31.96,39.11-12.18,5.11-27.76,31.05-27.76,31.05,0,0-6.9,30.57-9.79,26.34"/><path class="cls-18" d="m1428.22,1041.53l349.36,4.47s37.78-2.83,38.96-30.91c1.18-28.08-41.4-32.26-41.4-32.26l-346.03-4.42s-27.33,4.65-27.11,31.22c.21,26.57,26.22,31.9,26.22,31.9Z"/><path class="cls-18" d="m1457.41,978.77l291.83,3.73s31.56-2.91,32.61-30.99c1.05-28.08-34.51-32.17-34.51-32.17l-289.05-3.7s-22.84,4.7-22.72,31.28c.12,26.57,21.83,31.85,21.83,31.85Z"/><path class="cls-18" d="m1487.88,916.03l225.44,2.88s24.39-3,25.29-31.08-26.55-32.07-26.55-32.07l-223.29-2.86s-17.66,4.77-17.65,31.34c0,26.57,16.76,31.78,16.76,31.78Z"/><path class="cls-23" d="m1561.47,856.41s-2.28-62.16,22.18-77.27c24.46-15.11,60.34,3.34,78.71-17.42,18.36-20.76-15.12-40.9-15.12-40.9l-110.16-1.41s-36.82,5.1-35.89-27.03,34.11-24.85,34.11-24.85l113.74.84s78.88-3.28,76.89,87.2c-1.99,90.48-84.92,36.71-92.44,64.04-7.52,27.33-4.95,37.64-4.95,37.64l-67.07-.86Z"/><ellipse class="cls-15" cx="1524.94" cy="677.03" rx="6.64" ry="7.37" transform="translate(837.13 2197.15) rotate(-89.59)"/><path class="cls-4" d="m1507.3,704.89s-10.98,7.92-28.14,6.3c-17.15-1.62-39.47-5.81-39.47-5.81l-14.23-1.54,5.9,3.49-16.07-.21,12.62,3.57s27.38,7.27,51.15,7.15c23.77-.11,37.79-7.38,37.79-7.38,0,0-9.57-5.53-9.56-5.59Z"/><ellipse class="cls-26" cx="1509.98" cy="692.7" rx="1.5" ry="1.66" transform="translate(806.61 2197.74) rotate(-89.59)"/><ellipse class="cls-7" cx="1528.51" cy="676.87" rx="3" ry="3.33" transform="translate(840.84 2200.55) rotate(-89.59)"/><path class="cls-23" d="m1493.93,915.54l213.72,2.73s23.12-2.83,23.98-29.32c.85-26.49-25.18-30.26-25.18-30.26l-211.68-2.71s-16.74,4.5-16.73,29.57,15.89,29.98,15.89,29.98Z"/><path class="cls-23" d="m1465.25,977.3l276.66,3.54s29.92-2.74,30.92-29.23c.99-26.49-32.71-30.35-32.71-30.35l-274.03-3.5s-21.65,4.44-21.54,29.51,20.7,30.05,20.7,30.05Z"/><path class="cls-23" d="m1436.15,1039.92l331.21,4.24s35.81-2.66,36.93-29.16c1.12-26.49-39.25-30.44-39.25-30.44l-328.05-4.19s-25.91,4.38-25.7,29.45c.21,25.07,24.86,30.1,24.86,30.1Z"/><path class="cls-22" d="m1510.65,675.54s8.07-7.52,23.47-9.54c0,0-11.74,5.68-23.47,9.54Z"/><ellipse class="cls-1" cx="631.43" cy="875.55" rx="129.04" ry="113.55"/><path class="cls-1" d="m525.94,888.96l-62.19-35.83-64.04,88.85s-1.54,10.35-8.19,9.45c-6.66-.9-26.55-4.36-26.55-4.36,0,0-16.46-3.3-8.27-10.06s15.36-3.6,15.36-3.6l8.7,1.8,67.59-96.43s7.74-14.68,15.39-11.39c7.65,3.28,68.53,35.4,68.53,35.4l14.9,6.63-7.57,19.78-13.68-.24Z"/><path class="cls-1" d="m546.1,843.13l-80.28-30.97-82.67,76.81s-1.98,8.95-10.58,8.17c-8.59-.78-34.28-3.77-34.28-3.77,0,0-10.54-2.06-10.67-8.7-.14-6.64,19.83-3.12,19.83-3.12l11.24,1.56,87.26-83.36s9.99-12.69,19.87-9.85c9.88,2.84,88.47,30.6,88.47,30.6l19.24,5.74-9.77,17.1-17.66-.2Z"/><path class="cls-1" d="m729.53,843.13l80.28-30.97,82.67,76.81s1.98,8.95,10.58,8.17c8.59-.78,34.28-3.77,34.28-3.77,0,0,10.54-2.06,10.67-8.7s-19.83-3.12-19.83-3.12l-11.24,1.56-87.26-83.36s-9.99-12.69-19.87-9.85c-9.88,2.84-88.47,30.6-88.47,30.6l-19.24,5.74,9.77,17.1,17.66-.2Z"/><path class="cls-1" d="m744.59,889.01l62.19-35.83,64.04,88.85s1.54,10.35,8.19,9.45c6.66-.9,26.55-4.36,26.55-4.36,0,0,16.46-3.3,8.27-10.06-8.19-6.76-15.36-3.6-15.36-3.6l-8.7,1.8-67.59-96.43s-7.74-14.68-15.39-11.39c-7.65,3.28-68.53,35.4-68.53,35.4l-14.9,6.63,7.57,19.78,13.68-.24Z"/><path class="cls-1" d="m716.18,956.44l76.8-83.37s7.17-12.17,14.34-7.21c7.17,4.96,8.96,12.17,8.96,12.17l29.52,78.41h21.03s10.64.89,8.08,6.3c-2.56,5.41-9,7.64-9,7.64h-34.75s-11.56-3.13-9-10.34-18.43-66.01-18.43-66.01l-49.67,59.67-37.89,2.74Z"/><path class="cls-1" d="m564.63,961.7l-76.8-83.37s-7.17-12.17-14.34-7.21-8.96,12.17-8.96,12.17l-29.52,78.41h-21.03s-10.64.89-8.08,6.3,9,7.64,9,7.64h34.75s11.56-3.13,9-10.34c-2.56-7.21,18.43-66.01,18.43-66.01l49.67,59.67,37.89,2.74Z"/><path class="cls-1" d="m634.25,765.83s37.12,1.41,60.93,13.43c23.81,12.02-50.95,70.38-50.95,70.38,0,0-12.8,11.94-13.31,0-.51-11.94,3.33-83.81,3.33-83.81Z"/><path class="cls-1" d="m635.01,765.89s-37.12,1.41-60.93,13.43c-23.81,12.02,50.95,70.38,50.95,70.38,0,0,12.8,11.94,13.31,0s-3.33-83.81-3.33-83.81Z"/><path class="cls-1" d="m678.73,965.85l91.14-47.99s19.97-11.27,20.23,0c.26,11.27-17.15,22.53-17.15,22.53l-100.82,49.65,6.6-24.2Z"/><path class="cls-1" d="m601.67,794.98l-4.08,14.61s-37.52,9.3-52.99,26.41c-15.47,17.11-16.8-1.08-16.8-1.08,0,0,11.48-21.57,73.87-39.94Z"/><path class="cls-1" d="m620.97,815.8l-4.08,14.61s-37.52,9.3-52.99,26.41c-15.47,17.11-16.8-1.08-16.8-1.08,0,0,11.48-21.57,73.87-39.94Z"/><path class="cls-1" d="m649.64,830.67l-4.08,14.61s-37.52,9.3-52.99,26.41c-15.47,17.11-16.8-1.08-16.8-1.08,0,0,11.48-21.57,73.87-39.94Z"/><path class="cls-1" d="m672.04,795.07l4.08,14.61s37.52,9.3,52.99,26.41c15.47,17.11,16.8-1.08,16.8-1.08,0,0-11.48-21.57-73.87-39.94Z"/><path class="cls-1" d="m652.58,815.8l4.08,14.61s37.52,9.3,52.99,26.41c15.47,17.11,16.8-1.08,16.8-1.08,0,0-11.48-21.57-73.87-39.94Z"/><path class="cls-1" d="m622.37,827.07l4.08,14.61s37.52,9.3,52.99,26.41,16.8-1.08,16.8-1.08c0,0-11.48-21.57-73.87-39.94Z"/><path class="cls-1" d="m596.35,966.03l-91.14-47.99s-19.97-11.27-20.23,0c-.26,11.27,17.15,22.53,17.15,22.53l100.82,49.65-6.6-24.2Z"/><ellipse class="cls-1" cx="633.48" cy="961.84" rx="60.93" ry="53.4"/><path class="cls-1" d="m587.44,970.69l-91.14-47.99s-19.97-11.27-20.23,0c-.26,11.27,0,78.63,0,78.63h-18.95s-8.45,2.93-5.89,7.43l2.56,4.51h35.99c9.58-5.86,3.44-11.72,3.44-11.72v-56.33s100.82,49.65,100.82,49.65l-6.6-24.2Z"/><ellipse class="cls-1" cx="633.74" cy="976.04" rx="60.93" ry="53.4"/><ellipse class="cls-1" cx="646.79" cy="967.02" rx="12.29" ry="11.72"/><ellipse class="cls-1" cx="618.12" cy="967.02" rx="12.29" ry="11.72"/><ellipse class="cls-1" cx="671.88" cy="955.36" rx="8.19" ry="7.15"/><ellipse class="cls-1" cx="594.05" cy="955.42" rx="8.19" ry="7.15"/><ellipse class="cls-1" cx="646.79" cy="966.88" rx="5.63" ry="5.1"/><ellipse class="cls-1" cx="618.12" cy="967.14" rx="5.63" ry="5.1"/><path class="cls-1" d="m619.64,989.33s10.32,14.7,24.08,0c0,0-12.48-3.17-24.08,0Z"/><path class="cls-1" d="m688.53,970.63l91.14-47.99s19.97-11.27,20.23,0c.26,11.27,0,78.63,0,78.63h18.95s8.45,2.93,5.89,7.43l-2.56,4.51h-35.99c-9.58-5.86-3.44-11.72-3.44-11.72v-56.33l-100.82,49.65,6.6-24.2Z"/><ellipse class="cls-21" cx="631.33" cy="882.12" rx="129.04" ry="113.55"/><path class="cls-21" d="m525.84,895.53l-62.19-35.83-64.04,88.85s-1.54,10.35-8.19,9.45c-6.66-.9-26.55-4.36-26.55-4.36,0,0-16.46-3.3-8.27-10.06,8.19-6.76,15.36-3.6,15.36-3.6l8.7,1.8,67.59-96.43s7.74-14.68,15.39-11.39,68.53,35.4,68.53,35.4l14.9,6.63-7.57,19.78-13.68-.24Z"/><path class="cls-21" d="m546,849.7l-80.28-30.97-82.67,76.81s-1.98,8.95-10.58,8.17c-8.59-.78-34.28-3.77-34.28-3.77,0,0-10.54-2.06-10.67-8.7s19.83-3.12,19.83-3.12l11.24,1.56,87.26-83.36s9.99-12.69,19.87-9.85c9.88,2.84,88.47,30.6,88.47,30.6l19.24,5.74-9.77,17.1-17.66-.2Z"/><path class="cls-21" d="m729.42,849.7l80.28-30.97,82.67,76.81s1.98,8.95,10.58,8.17c8.59-.78,34.28-3.77,34.28-3.77,0,0,10.54-2.06,10.67-8.7.14-6.64-19.83-3.12-19.83-3.12l-11.24,1.56-87.26-83.36s-9.99-12.69-19.87-9.85c-9.88,2.84-88.47,30.6-88.47,30.6l-19.24,5.74,9.77,17.1,17.66-.2Z"/><path class="cls-21" d="m744.49,895.58l62.19-35.83,64.04,88.85s1.54,10.35,8.19,9.45c6.66-.9,26.55-4.36,26.55-4.36,0,0,16.46-3.3,8.27-10.06-8.19-6.76-15.36-3.6-15.36-3.6l-8.7,1.8-67.59-96.43s-7.74-14.68-15.39-11.39c-7.65,3.28-68.53,35.4-68.53,35.4l-14.9,6.63,7.57,19.78,13.68-.24Z"/><path class="cls-21" d="m716.08,963.01l76.8-83.37s7.17-12.17,14.34-7.21,8.96,12.17,8.96,12.17l29.52,78.41h21.03s10.64.89,8.08,6.3-9,7.64-9,7.64h-34.75s-11.56-3.13-9-10.34c2.56-7.21-18.43-66.01-18.43-66.01l-49.67,59.67-37.89,2.74Z"/><path class="cls-21" d="m564.53,968.27l-76.8-83.37s-7.17-12.17-14.34-7.21c-7.17,4.96-8.96,12.17-8.96,12.17l-29.52,78.41h-21.03s-10.64.89-8.08,6.3c2.56,5.41,9,7.64,9,7.64h34.75s11.56-3.13,9-10.34c-2.56-7.21,18.43-66.01,18.43-66.01l49.67,59.67,37.89,2.74Z"/><path class="cls-24" d="m634.14,772.4s37.12,1.41,60.93,13.43c23.81,12.02-50.95,70.38-50.95,70.38,0,0-12.8,11.94-13.31,0-.51-11.94,3.33-83.81,3.33-83.81Z"/><path class="cls-24" d="m634.9,772.46s-37.12,1.41-60.93,13.43c-23.81,12.02,50.95,70.38,50.95,70.38,0,0,12.8,11.94,13.31,0s-3.33-83.81-3.33-83.81Z"/><path class="cls-24" d="m678.63,972.42l91.14-47.99s19.97-11.27,20.23,0-17.15,22.53-17.15,22.53l-100.82,49.65,6.6-24.2Z"/><path class="cls-24" d="m601.57,801.55l-4.08,14.61s-37.52,9.3-52.99,26.41c-15.47,17.11-16.8-1.08-16.8-1.08,0,0,11.48-21.57,73.87-39.94Z"/><path class="cls-24" d="m620.86,822.37l-4.08,14.61s-37.52,9.3-52.99,26.41c-15.47,17.11-16.8-1.08-16.8-1.08,0,0,11.48-21.57,73.87-39.94Z"/><path class="cls-24" d="m649.54,837.24l-4.08,14.61s-37.52,9.3-52.99,26.41c-15.47,17.11-16.8-1.08-16.8-1.08,0,0,11.48-21.57,73.87-39.94Z"/><path class="cls-24" d="m671.93,801.64l4.08,14.61s37.52,9.3,52.99,26.41c15.47,17.11,16.8-1.08,16.8-1.08,0,0-11.48-21.57-73.87-39.94Z"/><path class="cls-24" d="m652.47,822.37l4.08,14.61s37.52,9.3,52.99,26.41c15.47,17.11,16.8-1.08,16.8-1.08,0,0-11.48-21.57-73.87-39.94Z"/><path class="cls-24" d="m622.26,833.63l4.08,14.61s37.52,9.3,52.99,26.41c15.47,17.11,16.8-1.08,16.8-1.08,0,0-11.48-21.57-73.87-39.94Z"/><path class="cls-24" d="m596.25,972.6l-91.14-47.99s-19.97-11.27-20.23,0c-.26,11.27,17.15,22.53,17.15,22.53l100.82,49.65-6.6-24.2Z"/><ellipse class="cls-24" cx="633.38" cy="968.41" rx="60.93" ry="53.4"/><path class="cls-21" d="m587.34,977.26l-91.14-47.99s-19.97-11.27-20.23,0c-.26,11.27,0,78.63,0,78.63h-18.95s-8.45,2.93-5.89,7.43l2.56,4.51h35.99c9.58-5.86,3.44-11.72,3.44-11.72v-56.33s100.82,49.65,100.82,49.65l-6.6-24.2Z"/><ellipse class="cls-21" cx="633.63" cy="982.6" rx="60.93" ry="53.4"/><ellipse class="cls-10" cx="646.69" cy="973.59" rx="12.29" ry="11.72"/><ellipse class="cls-10" cx="618.01" cy="973.59" rx="12.29" ry="11.72"/><ellipse class="cls-10" cx="671.78" cy="961.93" rx="8.19" ry="7.15"/><ellipse class="cls-10" cx="593.95" cy="961.99" rx="8.19" ry="7.15"/><ellipse class="cls-7" cx="646.69" cy="973.45" rx="5.63" ry="5.1"/><ellipse class="cls-7" cx="618.01" cy="973.7" rx="5.63" ry="5.1"/><path class="cls-22" d="m608.11,1011.24s19.97-21.65,46.6,0c0,0-24.16,4.67-46.6,0Z"/><path class="cls-21" d="m688.42,977.2l91.14-47.99s19.97-11.27,20.23,0,0,78.63,0,78.63h18.95s8.45,2.93,5.89,7.43l-2.56,4.51h-35.99c-9.58-5.86-3.44-11.72-3.44-11.72v-56.33l-100.82,49.65,6.6-24.2Z"/><path class="cls-22" d="m605.83,954.39s15.33.19,25.75,15.02c0,0-14.28-6.44-25.75-15.02Z"/><path class="cls-22" d="m659.44,954.31s-15.33.19-25.75,15.02c0,0,14.28-6.44,25.75-15.02Z"/><polygon class="cls-10" points="621.55 1002.57 623.61 1012.38 625.75 1002.57 621.55 1002.57"/><polygon class="cls-10" points="636.25 1002.57 638.3 1012.38 640.45 1002.57 636.25 1002.57"/></svg>