<?xml version="1.0" encoding="UTF-8"?><svg id="Layer_1" xmlns="http://www.w3.org/2000/svg" width="1920" height="1080" viewBox="0 0 1920 1080"><defs><style>.cls-1{fill:#614b47;}.cls-1,.cls-2,.cls-3,.cls-4,.cls-5,.cls-6,.cls-7,.cls-8,.cls-9,.cls-10,.cls-11,.cls-12,.cls-13,.cls-14,.cls-15,.cls-16,.cls-17,.cls-18,.cls-19,.cls-20,.cls-21,.cls-22,.cls-23,.cls-24,.cls-25,.cls-26,.cls-27,.cls-28,.cls-29,.cls-30{stroke-width:0px;}.cls-2{fill:#de9562;}.cls-3{fill:#e97600;}.cls-4{fill:#c97a79;}.cls-5{fill:#ebffd4;}.cls-7{fill:#e59f71;}.cls-8{fill:#ac7755;}.cls-9{fill:#f4fffe;}.cls-10{fill:#fffbe9;}.cls-11{fill:#576d5c;}.cls-12{fill:#7f976b;}.cls-13{fill:#b1c87c;}.cls-14{fill:gray;}.cls-15{fill:#b0cfe3;}.cls-16{fill:#f3b46f;}.cls-17{fill:#976665;}.cls-18{fill:#5f7150;}.cls-19{fill:#fff;}.cls-20{fill:#85965d;}.cls-21{fill:#59483a;}.cls-22{fill:#915932;}.cls-31{fill:#352600;stroke:#000;stroke-miterlimit:10;}.cls-23{fill:#996;}.cls-24{fill:#dfecf4;}.cls-25{fill:#975c5b;}.cls-26{fill:#846d69;}.cls-27{fill:#352000;}.cls-28{fill:#b5b46d;}.cls-29{fill:#81645f;}.cls-30{fill:#f5c38c;}</style></defs><rect class="cls-15" x="-11.37" y="-10" width="1941.78" height="228.14"/><path class="cls-22" d="m1089.18,270.91l535.3-26.03s-24.01-67.58-72.03-76.95c-48.02-9.36,14.12-56.17,14.12-56.17l-33.9-82.69s-7.96-12.48-52,0c-44.04,12.48-77.04-13.26-77.04-13.26,0,0-173.21-5.46-159.09,22.62,14.12,28.08-58.17,3.12-70.05,16.38s-102.27,108.01-85.32,119.14c16.95,11.13,0,96.94,0,96.94Z"/><path class="cls-2" d="m1089.03,263.87l517.25-23.12s-23.2-60.04-69.6-68.36c-46.4-8.32,13.65-49.9,13.65-49.9l-32.75-73.46s-7.69-11.09-50.25,0c-42.56,11.09-74.44-11.78-74.44-11.78,0,0-167.37-4.85-153.72,20.1,13.65,24.95-56.21,2.77-67.68,14.55-11.47,11.78-98.82,95.95-82.44,105.84,16.38,9.89,0,86.12,0,86.12Z"/><rect class="cls-16" x="-11.37" y="207.09" width="1941.78" height="868.35"/><path class="cls-24" d="m-13.89,36.73h606.72s65.65,32.25,0,59.85H-13.89s-35.4-36.73,0-59.85Z"/><path class="cls-24" d="m661.64,86.67h431.37s46.67,20.75,0,38.51h-431.37s-25.17-23.64,0-38.51Z"/><path class="cls-24" d="m1594.34,36.94h431.37s46.67,20.75,0,38.51h-431.37s-25.17-23.64,0-38.51Z"/><path class="cls-2" d="m-65.24,1016.93s67.96-110.69,418.83-67.8c350.86,42.89,465.35,0,465.35,0,0,0,292.77-115.39,386.56-22.88,93.79,92.51,525.71,29.97,525.71,29.97,0,0,297.68-117.33,434.19-51.7,136.51,65.63-123.73,300.18-123.73,300.18,0,0-532.19,73.03-727.33,33.48-195.13-39.55-725.61,28.73-725.61,28.73,0,0-398.96-3.87-483.77-51.26-84.81-47.4-203.31-66.84-170.2-198.7Z"/><path class="cls-2" d="m11.84,550.86s17.09-14.75,105.29-9.04c88.21,5.72,116.99,0,116.99,0,0,0,73.6-15.38,97.18-3.05,23.58,12.33,132.16,3.99,132.16,3.99,0,0,74.84-15.64,109.16-6.89,34.32,8.75-31.11,40.01-31.11,40.01,0,0-133.79,9.73-182.85,4.46-49.06-5.27-182.42,3.83-182.42,3.83,0,0-100.3-.52-121.62-6.83-21.32-6.32-51.11-8.91-42.79-26.48Z"/><path class="cls-30" d="m1111.76,780.16s24.43-30.84,150.56-18.89c126.13,11.95,167.29,0,167.29,0,0,0,105.25-32.15,138.97-6.38,33.72,25.78,188.99,8.35,188.99,8.35,0,0,107.01-32.69,156.09-14.41,49.07,18.29-44.48,83.64-44.48,83.64,0,0-191.32,20.35-261.47,9.33-70.15-11.02-260.85,8-260.85,8,0,0-143.42-1.08-173.91-14.28-30.49-13.21-73.09-18.63-61.19-55.37Z"/><path class="cls-2" d="m1616.82,520.71s17.09-23.79,105.29-14.57c88.21,9.22,116.99,0,116.99,0,0,0,73.6-24.8,97.18-4.92,23.58,19.88,132.16,6.44,132.16,6.44,0,0,74.84-25.22,109.16-11.11,34.32,14.1-31.11,64.52-31.11,64.52,0,0-133.79,15.7-182.85,7.19-49.06-8.5-182.42,6.17-182.42,6.17,0,0-100.3-.83-121.62-11.02s-51.11-14.37-42.79-42.71Z"/><path class="cls-2" d="m329.51,773.7s31.35-4.74,32.83-10.44c1.48-5.7,25.45-1.41,30.81-3.41s27.22-8.65,27.22-8.65c0,0,7.28,5.44,5.34,16.26-1.94,10.82.1,1.75-9.25,16.05,0,0-33.27,16.25-47.54,10.99-14.26-5.27-25.98-1.25-25.98-1.25,0,0-21.5-18.13-13.43-19.54Z"/><path class="cls-14" d="m327.31,778s30.94-7.46,34.09,0c3.15,7.46,24.36-9.54,30.02-9.12s28.26,0,28.26,0c0,0,5.16-11.08,0-25.65-5.16-14.57-.45-2.54-13.65-18.72,0,0-36.3-8.11-48.08,5.9-11.79,14.01-24.04,13.59-24.04,13.59,0,0-14.61,35.66-6.6,34Z"/><path class="cls-2" d="m104.96,469.74h57.46s17.34,8.43-8.35,27.28c-25.69,18.85-42.31,7.94-42.31,7.94,0,0-39.15-8.93-29.02-14.14s-8.76-21.08,22.22-21.08Z"/><path class="cls-14" d="m101.19,482.36h57.46s17.34-12.35-8.35-39.95c-25.69-27.6-42.31-11.62-42.31-11.62,0,0-39.15,13.08-29.02,20.7,10.13,7.63-8.76,30.87,22.22,30.87Z"/><path class="cls-2" d="m1834.1,692.93s31.35-4.74,32.83-10.44c1.48-5.7,25.45-1.41,30.81-3.41,5.36-2,27.22-8.65,27.22-8.65,0,0,7.28,5.44,5.34,16.26-1.94,10.82.1,1.75-9.25,16.05,0,0-33.27,16.25-47.54,10.99s-25.98-1.25-25.98-1.25c0,0-21.5-18.13-13.43-19.54Z"/><path class="cls-14" d="m1831.89,697.23s30.94-7.46,34.09,0c3.15,7.46,24.36-9.54,30.02-9.12s28.26,0,28.26,0c0,0,5.16-11.08,0-25.65-5.16-14.57-.45-2.54-13.65-18.72,0,0-36.3-8.11-48.08,5.9-11.79,14.01-24.04,13.59-24.04,13.59,0,0-14.61,35.66-6.6,34Z"/><path class="cls-2" d="m1642.57,398.29h57.46s17.34,8.43-8.35,27.28c-25.69,18.85-42.31,7.94-42.31,7.94,0,0-39.15-8.93-29.02-14.14,10.13-5.21-8.76-21.08,22.22-21.08Z"/><path class="cls-14" d="m1638.79,410.92h57.46s17.34-12.35-8.35-39.95c-25.69-27.6-42.31-11.62-42.31-11.62,0,0-39.15,13.08-29.02,20.7,10.13,7.63-8.76,30.87,22.22,30.87Z"/><path class="cls-2" d="m1061.95,298.6s12.24-7.32,75.42-4.48c63.18,2.84,83.8,0,83.8,0,0,0,52.72-7.63,69.61-1.51,16.89,6.12,94.67,1.98,94.67,1.98,0,0,53.6-7.76,78.19-3.42,24.58,4.34-22.28,19.85-22.28,19.85,0,0-95.83,4.83-130.97,2.21-35.14-2.62-130.66,1.9-130.66,1.9,0,0-71.84-.26-87.12-3.39-15.27-3.13-36.61-4.42-30.65-13.14Z"/><path class="cls-2" d="m-152.97,286.07s12.24-7.32,75.42-4.48c63.18,2.84,83.8,0,83.8,0,0,0,52.72-7.63,69.61-1.51,16.89,6.12,94.67,1.98,94.67,1.98,0,0,53.6-7.76,78.19-3.42,24.58,4.34-22.28,19.85-22.28,19.85,0,0-95.83,4.83-130.97,2.21-35.14-2.62-130.66,1.9-130.66,1.9,0,0-71.84-.26-87.12-3.39-15.27-3.13-36.61-4.42-30.65-13.14Z"/><path class="cls-30" d="m1235.61,468.09s14.09-10.6,86.85-6.49c72.76,4.11,96.5,0,96.5,0,0,0,60.71-11.05,80.16-2.19,19.45,8.86,109.02,2.87,109.02,2.87,0,0,61.73-11.23,90.04-4.95,28.31,6.28-25.66,28.74-25.66,28.74,0,0-110.36,6.99-150.83,3.2s-150.47,2.75-150.47,2.75c0,0-82.73-.37-100.32-4.91s-42.16-6.4-35.3-19.02Z"/><polygon class="cls-2" points="746.96 957.98 1030.13 819.1 696.89 725.91 1110.73 636.37 802.26 546.83 1040.94 393.7 742.85 210.78 946.89 389.68 564.98 583.54 818.44 626.87 548.41 709.28 764.24 852.59 571.68 968.58 774.65 1111.12 903.03 1111.12 746.96 957.98"/><path class="cls-30" d="m270.43,383.19s14.09-15.25,86.85-9.34c72.76,5.91,96.5,0,96.5,0,0,0,60.71-15.9,80.16-3.15,19.45,12.75,109.02,4.13,109.02,4.13,0,0,61.73-16.17,90.04-7.12,28.31,9.04-25.66,41.36-25.66,41.36,0,0-110.36,10.06-150.83,4.61-40.47-5.45-150.47,3.96-150.47,3.96,0,0-82.73-.53-100.32-7.06-17.59-6.53-42.16-9.21-35.3-27.38Z"/><path class="cls-21" d="m286.88,205.39s9.97-19.69,8.5-44.35c0,0-12.8-7.05-16.05-2.73-3.25,4.32-10.7,9.93-13.72,8.82s-8.02.88-8.02.88c0,0-9.77-2.49-2.53-4.5,7.25-2.01,11.89-1.13,11.89-1.13,0,0,10.62-5.48,10.31-9.02s-10.35-4.81-10.35-4.81c0,0-8.18-1.2-7.76-7.06s-6.75-7.73-6.75-7.73c0,0-2.36-5.9,4.94-3.46,7.3,2.44,7.76,9.75,7.76,9.75,0,0,1.3,4.35,8.68,5.49,7.38,1.14,9.44,5.7,9.44,5.7,0,0,9.02,3.77,5.44-1.9s-3.36-7.85-3.36-7.85c0,0-3.57-5.15-7.76-4.69s-6.47-7.66-6.47-7.66c0,0-.95-7,4.14-2.7s3.11,3.86,3.11,3.86c0,0,10.52,2.07,11.91,4.64,1.39,2.57,5.32,12.63,5.32,12.63,0,0,3.14,3.78,3.73,0,.59-3.78,4.66-11.79,4.66-11.79,0,0,3.63-9.37,0-9.35s-.78-4.4-.78-4.4c0,0,5.94-5.55,8.28,0,2.34,5.55,0,12.9,0,12.9,0,0-1.7,12.15-5.69,15.65s2.59,2.77,2.59,2.77l9.84-9.76s3.23-15.5,7.25-13.31c4.02,2.19,2.07,5.49,2.07,5.49,0,0,.91,6.78-2.85,11.79-3.76,5.01-9.84,10.09-9.84,10.09l-6.47,4.82s-10.51,45.34,2.59,42.91c0,0-26.86,11.74-24.03,0Z"/><ellipse class="cls-2" cx="1667.09" cy="938.01" rx="27.51" ry="13.31"/><path class="cls-11" d="m1663.19,935.38s-45.84-7.86-41.8-58.79c0,0,11,45.89,43.23,50.33l-1.43,8.46Z"/><path class="cls-11" d="m1661.87,939.59s-46.33,2.09-50.84-48.79c0,0,18.45,42.71,50.84,40.17v8.61Z"/><path class="cls-11" d="m1665.85,940.57s-42.45-21.12-26.84-69.1c0,0,.07,47.56,30.17,61.35l-3.33,7.74Z"/><path class="cls-11" d="m1670.55,939.66s45.83-8,41.66-58.91c0,0-10.89,45.93-43.11,50.46l1.45,8.45Z"/><path class="cls-11" d="m1663.27,940.07s43.7-17.56,31.21-66.7c0,0-3.13,47.42-34.03,58.7l2.82,8Z"/><path class="cls-11" d="m1651.8,939.37s43.7-17.56,31.21-66.7c0,0-3.13,47.42-34.03,58.7l2.82,8Z"/><path class="cls-11" d="m1651.15,938.26s39.78-27,18.97-72.37c0,0,5.2,47.19-23.13,65.16l4.16,7.21Z"/><path class="cls-11" d="m1675.4,938.25s-42.45-21.12-26.84-69.1c0,0,.07,47.56,30.17,61.35l-3.33,7.74Z"/><ellipse class="cls-11" cx="1661.56" cy="928.6" rx="19.37" ry="13.36"/><ellipse class="cls-2" cx="1201.17" cy="224.09" rx="13.84" ry="7.62"/><path class="cls-11" d="m1199.21,222.59s-23.06-4.5-21.02-33.67c0,0,5.53,26.28,21.74,28.82l-.72,4.84Z"/><path class="cls-11" d="m1198.54,225s-23.3,1.2-25.57-27.94c0,0,9.28,24.46,25.57,23.01v4.93Z"/><path class="cls-11" d="m1200.55,225.56s-21.35-12.1-13.5-39.57c0,0,.04,27.24,15.17,35.14l-1.67,4.43Z"/><path class="cls-11" d="m1202.91,225.03s23.05-4.58,20.95-33.74c0,0-5.48,26.3-21.68,28.9l.73,4.84Z"/><path class="cls-11" d="m1199.25,225.27s21.98-10.06,15.7-38.2c0,0-1.57,27.16-17.12,33.62l1.42,4.58Z"/><path class="cls-11" d="m1193.48,224.87s21.98-10.06,15.7-38.2c0,0-1.57,27.16-17.12,33.62l1.42,4.58Z"/><path class="cls-11" d="m1193.15,224.23s20-15.46,9.54-41.45c0,0,2.61,27.03-11.63,37.32l2.09,4.13Z"/><path class="cls-11" d="m1205.35,224.23s-21.35-12.1-13.5-39.57c0,0,.04,27.24,15.17,35.14l-1.67,4.43Z"/><ellipse class="cls-11" cx="1198.39" cy="218.7" rx="9.74" ry="7.65"/><ellipse class="cls-2" cx="827.06" cy="388.91" rx="18.62" ry="9.63"/><path class="cls-11" d="m824.42,387.01s-31.03-5.69-28.29-42.55c0,0,7.45,33.22,29.26,36.43l-.97,6.12Z"/><path class="cls-11" d="m823.52,390.06s-31.36,1.51-34.41-35.31c0,0,12.49,30.92,34.41,29.08v6.23Z"/><path class="cls-11" d="m826.22,390.77s-28.73-15.29-18.17-50.01c0,0,.05,34.42,20.42,44.41l-2.25,5.6Z"/><path class="cls-11" d="m829.4,390.11s31.02-5.79,28.19-42.64c0,0-7.37,33.24-29.18,36.52l.98,6.12Z"/><path class="cls-11" d="m824.47,390.41s29.58-12.71,21.12-48.27c0,0-2.12,34.32-23.03,42.49l1.91,5.79Z"/><path class="cls-11" d="m816.71,389.9s29.58-12.71,21.12-48.27c0,0-2.12,34.32-23.03,42.49l1.91,5.79Z"/><path class="cls-11" d="m816.27,389.1s26.92-19.54,12.84-52.38c0,0,3.52,34.16-15.65,47.16l2.82,5.22Z"/><path class="cls-11" d="m832.68,389.09s-28.73-15.29-18.17-50.01c0,0,.05,34.42,20.42,44.41l-2.25,5.6Z"/><ellipse class="cls-11" cx="823.32" cy="382.1" rx="13.11" ry="9.67"/><ellipse class="cls-2" cx="200.8" cy="215.41" rx="13.99" ry="21.56" transform="translate(-65.81 340.47) rotate(-72.14)"/><ellipse class="cls-2" cx="175.02" cy="681.83" rx="36.91" ry="15.37"/><path class="cls-11" d="m169.8,678.8s-61.5-9.08-56.07-67.89c0,0,14.76,53,57.99,58.12l-1.92,9.77Z"/><path class="cls-11" d="m168.02,683.66s-62.15,2.41-68.2-56.34c0,0,24.75,49.33,68.2,46.39v9.95Z"/><path class="cls-11" d="m173.36,684.79s-56.95-24.39-36.01-79.79c0,0,.1,54.92,40.47,70.85l-4.47,8.94Z"/><path class="cls-11" d="m179.67,683.74s61.47-9.24,55.88-68.03c0,0-14.61,53.03-57.83,58.27l1.95,9.76Z"/><path class="cls-11" d="m169.9,684.21s58.62-20.28,41.87-77.02c0,0-4.2,54.76-45.65,67.79l3.79,9.23Z"/><path class="cls-11" d="m154.51,683.41s58.62-20.28,41.87-77.02c0,0-4.2,54.76-45.65,67.79l3.79,9.23Z"/><path class="cls-11" d="m153.65,682.12s53.36-31.18,25.45-83.57c0,0,6.97,54.49-31.03,75.25l5.58,8.32Z"/><path class="cls-11" d="m186.17,682.11s-56.95-24.39-36.01-79.79c0,0,.1,54.92,40.47,70.85l-4.47,8.94Z"/><ellipse class="cls-11" cx="167.61" cy="670.97" rx="25.99" ry="15.43"/><path class="cls-21" d="m212.44,209.8s-12.49-29.58-10.65-66.62c0,0,16.03-10.59,20.1-4.1,4.07,6.48,13.41,14.92,17.18,13.25,3.77-1.67,7.25,2.03,10.05,1.32,2.8-.71,12.24-3.75,3.16-6.76-9.08-3.02-14.88-1.7-14.88-1.7,0,0-13.3-8.23-12.91-13.54s12.97-7.23,12.97-7.23c0,0,10.24-1.81,9.72-10.61-.52-8.8,8.46-11.61,8.46-11.61,0,0,2.95-8.87-6.19-5.2s-9.72,14.65-9.72,14.65c0,0-1.63,6.54-10.87,8.25-9.24,1.71-11.82,8.56-11.82,8.56,0,0-11.29,5.66-6.81-2.86,4.49-8.52,4.21-11.79,4.21-11.79,0,0,4.47-7.74,9.72-7.04s8.1-11.5,8.1-11.5c0,0-.49-5.36-5.19-4.06-4.7,1.3-3.89,5.8-3.89,5.8,0,0-13.17,3.11-14.91,6.98-1.74,3.86-6.67,18.97-6.67,18.97,0,0-3.94,5.68-4.68,0-.74-5.68-5.83-17.71-5.83-17.71,0,0-.1-14.07,0-14.04s1.02-6.5.97-6.6-9.2-11.9-10.37,0c-1.17,11.9-2.32,15.05,0,19.38s7.22,23.53,7.13,23.51-3.24,4.16-3.24,4.16c0,0-12.4-14.6-12.32-14.66s-1.41-17.59-9.08-19.99c-7.67-2.39-7.16,3.08-2.59,8.24s-1.14,10.18,3.57,17.71c4.71,7.53,12.32,15.16,12.32,15.16,0,0,10.49,3.23,8.1,7.24s-3.27,64.45-3.24,64.45,33.63,17.64,30.09,0Z"/><path class="cls-8" d="m1323.41,914.64v-308.9l92.6-175.95s13.47-143.37-58.93-291.95c-72.39-148.58-712.85,0-712.85,0l-31.3,59.96s-45.46,5.21-52.19,39.1c-6.73,33.89,6.73,320.63-72.39,396.22-79.13,75.6,70.71,304.99,70.71,304.99,0,0,407.43,31.28,764.35-23.46Z"/><path class="cls-7" d="m1285.15,869.72v-308.9l92.6-175.95s13.47-143.37-58.93-291.95c-72.39-148.58-712.85,0-712.85,0l-31.3,59.96s-45.46,5.21-52.19,39.1c-6.73,33.89,6.73,320.63-72.39,396.22-79.13,75.6,70.71,304.99,70.71,304.99,0,0,407.43,31.28,764.35-23.46Z"/><path class="cls-5" d="m911.16,496.43l-.64,7.04h-23.88l-.64-7.04h25.16Zm-1.02,11.8l-.67,7.22h-21.78l-.58-7.22h23.02Z"/><path class="cls-5" d="m952.13,481.9c-.15,4.12-.37,11.45-.67,21.99-.11,5.26-.21,13.52-.32,24.78h-14.21c.04-6.25-.02-12.06-.19-17.44-.04-1.58-.15-5.84-.32-12.8-.36.06-1.15.22-2.36.49-.64.14-1.39.37-2.27.7l-3.03-10.19c2.41-.97,6.66-2.8,12.77-5.49,1.89-.87,4.4-2.1,7.5-3.7l3.1,1.67Z"/><path class="cls-5" d="m1011.1,500.4c0,5.74-1.93,10.34-5.8,13.78s-8.99,5.17-15.38,5.17l-.38,9.25h-17.59l-.93-22.59c-.28-5.82-.71-13.82-1.31-23.99,3.32-.63,8.18-.94,14.59-.94,7.81,0,14.07,1.49,18.78,4.46,5.34,3.38,8.01,8.33,8.01,14.86Zm-13.25,5.09c0-3.15-1.97-4.73-5.91-4.73-.47,0-.95.03-1.44.09l-.32,10.61c5.11-.16,7.66-2.15,7.66-5.97Z"/><path class="cls-5" d="m1056.03,504.32c0,7.14-1.94,13.17-5.81,18.11-4.07,5.16-9.27,7.73-15.61,7.73s-11.83-2.6-15.87-7.79c-3.81-4.89-5.72-10.91-5.72-18.04,0-7.62,2.08-13.61,6.23-17.95,3.92-4.08,9.04-6.13,15.36-6.13s11.28,2.05,15.2,6.16c4.15,4.37,6.23,10.34,6.23,17.92Zm-15.36,5.34c0-5.62-2-8.43-6-8.43s-5.84,2.83-5.84,8.49c0,2.26.51,4.38,1.53,6.34,1.15,2.2,2.57,3.31,4.25,3.31s3.09-1.12,4.34-3.37c1.15-2.04,1.72-4.16,1.72-6.34Z"/><path class="cls-5" d="m1080.62,482.02l-1.25,24.78c-.24,5.34-.51,12.61-.83,21.81h-17.91l-2.17-46.58h22.16Z"/><path class="cls-5" d="m1122.48,482.02c-.3,4.08-.71,11.21-1.25,21.38-.32,7.48-.59,16.08-.8,25.81-2.79-2.08-7.04-5.19-12.74-9.31-2.47-1.64-6.15-4.09-11.05-7.37l-.32,16.07h-10.28c-.17-4.1-.56-11.85-1.18-23.23-.53-9.22-1.08-17-1.63-23.35h16.03l11.88,10.68c0-2.45-.04-4.37-.13-5.76-.06-1.23-.19-2.87-.38-4.91h11.85Z"/><path class="cls-5" d="m1164.09,482.02l-.93,19.08c-.83-.12-2.16-.27-3.99-.46-1.13-.06-2.96-.12-5.49-.18-.13,1.19-.35,4.07-.67,8.64-.23,4.43-.62,10.93-1.15,19.5h-15.45c-.17-4.08-.49-10.5-.96-19.26-.21-3.03-.44-5.99-.67-8.89l-5.04.18-4.57.46-.8-19.08h39.72Z"/><path class="cls-5" d="m893.8,670.58l-.64,7.04h-23.88l-.64-7.04h25.16Zm-1.02,11.8l-.67,7.22h-21.78l-.58-7.22h23.02Z"/><path class="cls-5" d="m939.72,668.91c0,6.35-4.77,14.81-14.3,25.38h5.43c.83,0,2.18-.08,4.06-.24.72-.06,1.7-.18,2.94-.36-.3.89-.76,2.38-1.37,4.46-.3,1.07-.71,2.61-1.25,4.61h-20.6l-1.44-3.09c3.19-5.3,5.38-9.29,6.58-11.98,1.58-3.56,2.36-6.73,2.36-9.52,0-1.98-.64-3.5-1.92-4.55-1.06-.87-2.32-1.3-3.77-1.3s-2.78.31-4.12.94l1.5-16.32c3.19-1.09,6.6-1.64,10.22-1.64,4.75,0,8.55,1.25,11.4,3.75,2.85,2.5,4.28,5.79,4.28,9.87Z"/><path class="cls-5" d="m996.68,674.55c0,5.74-1.93,10.34-5.8,13.78s-8.99,5.17-15.38,5.17l-.38,9.25h-17.59l-.93-22.59c-.28-5.82-.71-13.82-1.31-23.99,3.32-.63,8.18-.94,14.59-.94,7.81,0,14.07,1.49,18.78,4.46,5.34,3.38,8.01,8.33,8.01,14.86Zm-13.25,5.09c0-3.15-1.97-4.73-5.91-4.73-.47,0-.95.03-1.44.09l-.32,10.61c5.11-.16,7.66-2.15,7.66-5.97Z"/><path class="cls-5" d="m1041.61,678.46c0,7.14-1.94,13.17-5.81,18.11-4.07,5.16-9.27,7.73-15.61,7.73s-11.83-2.6-15.87-7.79c-3.81-4.89-5.72-10.91-5.72-18.04,0-7.62,2.08-13.61,6.23-17.95,3.92-4.08,9.04-6.13,15.36-6.13s11.28,2.05,15.2,6.16c4.15,4.37,6.23,10.34,6.23,17.92Zm-15.36,5.34c0-5.62-2-8.43-6-8.43s-5.84,2.83-5.84,8.49c0,2.26.51,4.38,1.53,6.34,1.15,2.2,2.57,3.31,4.25,3.31s3.09-1.12,4.34-3.37c1.15-2.04,1.72-4.16,1.72-6.34Z"/><path class="cls-5" d="m1066.2,656.17l-1.25,24.78c-.24,5.34-.51,12.61-.83,21.81h-17.91l-2.17-46.58h22.16Z"/><path class="cls-5" d="m1108.06,656.17c-.3,4.08-.71,11.21-1.25,21.38-.32,7.48-.59,16.08-.8,25.81-2.79-2.08-7.04-5.19-12.74-9.31-2.47-1.64-6.15-4.09-11.05-7.37l-.32,16.07h-10.28c-.17-4.1-.56-11.85-1.18-23.23-.53-9.22-1.08-17-1.63-23.35h16.03l11.88,10.68c0-2.45-.04-4.37-.13-5.76-.06-1.23-.19-2.87-.38-4.91h11.85Z"/><path class="cls-5" d="m1149.67,656.17l-.93,19.08c-.83-.12-2.16-.27-3.99-.46-1.13-.06-2.96-.12-5.49-.18-.13,1.19-.35,4.07-.67,8.64-.23,4.43-.62,10.93-1.15,19.5h-15.45c-.17-4.08-.49-10.5-.96-19.26-.21-3.03-.44-5.99-.67-8.89l-5.04.18-4.57.46-.8-19.08h39.72Z"/><path class="cls-5" d="m943.56,324.17l-.64,7.04h-23.88l-.64-7.04h25.16Zm-1.02,11.8l-.67,7.22h-21.78l-.58-7.22h23.02Z"/><path class="cls-5" d="m983.8,336.42l-1.44,9.25h-16.29l-1.56-9.25h19.29Z"/><path class="cls-5" d="m1011.67,309.64c-.15,4.12-.37,11.45-.67,21.99-.11,5.26-.21,13.52-.32,24.78h-14.21c.04-6.25-.02-12.06-.19-17.44-.04-1.58-.15-5.84-.32-12.8-.36.06-1.15.22-2.36.49-.64.14-1.39.37-2.27.7l-3.03-10.19c2.41-.97,6.66-2.8,12.77-5.49,1.89-.87,4.4-2.1,7.5-3.7l3.1,1.67Z"/><path class="cls-5" d="m1062.41,347.16c-.21.81-.61,2.33-1.18,4.58-.3,1.32-.55,2.85-.77,4.61h-28.9c-.11-4.75-.37-12.58-.8-23.47-.28-5.58-.78-13.28-1.5-23.11h22.16l-1.82,38.64c2.06,0,5.16-.21,9.29-.64.85-.08,2.02-.28,3.51-.61Z"/><path class="cls-5" d="m1086.07,309.76l-1.25,24.78c-.24,5.34-.51,12.61-.83,21.81h-17.91l-2.17-46.58h22.16Z"/><path class="cls-5" d="m1129.82,309.76c-1.77,4.97-4.6,13.09-8.49,24.35-1.79,5.3-4.1,12.71-6.93,22.23h-11.11c-1.43-4.61-3.81-12.14-7.15-22.59-1.89-5.78-4.71-13.78-8.43-23.99h22.58c.21,1.92.71,5.04,1.5,9.37.53,2.3,1.36,5.48,2.49,9.52.6-1.96,1.47-5.16,2.62-9.58.53-2.39,1.14-5.49,1.82-9.31h11.11Z"/><ellipse class="cls-1" cx="671.41" cy="486.71" rx="58.06" ry="51.89"/><path class="cls-1" d="m623.95,492.84l-27.98-16.37-28.81,40.6s-.69,4.73-3.69,4.32-11.95-1.99-11.95-1.99c0,0-7.41-1.51-3.72-4.6s6.91-1.65,6.91-1.65l3.92.82,30.41-44.06s3.48-6.71,6.93-5.21,30.84,16.18,30.84,16.18l6.71,3.03-3.41,9.04-6.16-.11Z"/><path class="cls-1" d="m633.02,471.89l-36.12-14.15-37.2,35.1s-.89,4.09-4.76,3.73-15.42-1.72-15.42-1.72c0,0-4.74-.94-4.8-3.97s8.92-1.42,8.92-1.42l5.06.71,39.26-38.09s4.5-5.8,8.94-4.5,39.81,13.98,39.81,13.98l8.66,2.62-4.4,7.81-7.95-.09Z"/><path class="cls-1" d="m715.55,471.89l36.12-14.15,37.2,35.1s.89,4.09,4.76,3.73c3.87-.36,15.42-1.72,15.42-1.72,0,0,4.74-.94,4.8-3.97s-8.92-1.42-8.92-1.42l-5.06.71-39.26-38.09s-4.5-5.8-8.94-4.5-39.81,13.98-39.81,13.98l-8.66,2.62,4.4,7.81,7.95-.09Z"/><path class="cls-1" d="m722.33,492.86l27.98-16.37,28.81,40.6s.69,4.73,3.69,4.32c3-.41,11.95-1.99,11.95-1.99,0,0,7.41-1.51,3.72-4.6s-6.91-1.65-6.91-1.65l-3.92.82-30.41-44.06s-3.48-6.71-6.93-5.21c-3.44,1.5-30.84,16.18-30.84,16.18l-6.71,3.03,3.41,9.04,6.16-.11Z"/><path class="cls-1" d="m709.55,523.67l34.56-38.1s3.23-5.56,6.45-3.29c3.23,2.26,4.03,5.56,4.03,5.56l13.28,35.83h9.46s4.79.41,3.64,2.88c-1.15,2.47-4.05,3.49-4.05,3.49h-15.64s-5.2-1.43-4.05-4.72c1.15-3.29-8.29-30.17-8.29-30.17l-22.35,27.27-17.05,1.25Z"/><path class="cls-1" d="m641.36,526.08l-34.56-38.1s-3.23-5.56-6.45-3.29c-3.23,2.26-4.03,5.56-4.03,5.56l-13.28,35.83h-9.46s-4.79.41-3.64,2.88,4.05,3.49,4.05,3.49h15.64s5.2-1.43,4.05-4.72c-1.15-3.29,8.29-30.17,8.29-30.17l22.35,27.27,17.05,1.25Z"/><path class="cls-1" d="m672.68,436.57s16.7.64,27.42,6.14c10.71,5.49-22.93,32.16-22.93,32.16,0,0-5.76,5.46-5.99,0-.23-5.46,1.5-38.3,1.5-38.3Z"/><path class="cls-1" d="m673.02,436.6s-16.7.64-27.42,6.14c-10.71,5.49,22.93,32.16,22.93,32.16,0,0,5.76,5.46,5.99,0s-1.5-38.3-1.5-38.3Z"/><path class="cls-1" d="m692.7,527.97l41.01-21.93s8.99-5.15,9.1,0c.12,5.15-7.72,10.3-7.72,10.3l-45.37,22.69,2.97-11.06Z"/><path class="cls-1" d="m658.02,449.89l-1.84,6.67s-16.88,4.25-23.84,12.07c-6.96,7.82-7.56-.49-7.56-.49,0,0,5.17-9.85,33.24-18.25Z"/><path class="cls-1" d="m666.7,459.41l-1.84,6.67s-16.88,4.25-23.84,12.07-7.56-.49-7.56-.49c0,0,5.17-9.85,33.24-18.25Z"/><path class="cls-1" d="m679.61,466.2l-1.84,6.67s-16.88,4.25-23.84,12.07c-6.96,7.82-7.56-.49-7.56-.49,0,0,5.17-9.85,33.24-18.25Z"/><path class="cls-1" d="m689.68,449.93l1.84,6.67s16.88,4.25,23.84,12.07,7.56-.49,7.56-.49c0,0-5.17-9.85-33.24-18.25Z"/><path class="cls-1" d="m680.93,459.41l1.84,6.67s16.88,4.25,23.84,12.07c6.96,7.82,7.56-.49,7.56-.49,0,0-5.17-9.85-33.24-18.25Z"/><path class="cls-1" d="m667.33,464.55l1.84,6.67s16.88,4.25,23.84,12.07c6.96,7.82,7.56-.49,7.56-.49,0,0-5.17-9.85-33.24-18.25Z"/><path class="cls-1" d="m655.63,528.05l-41.01-21.93s-8.99-5.15-9.1,0,7.72,10.3,7.72,10.3l45.37,22.69-2.97-11.06Z"/><ellipse class="cls-1" cx="672.34" cy="526.14" rx="27.42" ry="24.4"/><path class="cls-1" d="m651.62,530.18l-41.01-21.93s-8.99-5.15-9.1,0c-.12,5.15,0,35.93,0,35.93h-8.53s-3.8,1.34-2.65,3.4l1.15,2.06h16.19c4.31-2.68,1.55-5.35,1.55-5.35v-25.74s45.37,22.69,45.37,22.69l-2.97-11.06Z"/><ellipse class="cls-1" cx="672.45" cy="532.63" rx="27.42" ry="24.4"/><ellipse class="cls-1" cx="678.33" cy="528.51" rx="5.53" ry="5.35"/><ellipse class="cls-1" cx="665.42" cy="528.51" rx="5.53" ry="5.35"/><ellipse class="cls-1" cx="689.62" cy="523.18" rx="3.69" ry="3.27"/><ellipse class="cls-1" cx="654.59" cy="523.21" rx="3.69" ry="3.27"/><ellipse class="cls-1" cx="678.33" cy="528.44" rx="2.53" ry="2.33"/><ellipse class="cls-1" cx="665.42" cy="528.56" rx="2.53" ry="2.33"/><path class="cls-1" d="m666.11,538.7s4.64,6.72,10.84,0c0,0-5.62-1.45-10.84,0Z"/><path class="cls-1" d="m697.1,530.16l41.01-21.93s8.99-5.15,9.1,0c.12,5.15,0,35.93,0,35.93h8.53s3.8,1.34,2.65,3.4l-1.15,2.06h-16.19c-4.31-2.68-1.55-5.35-1.55-5.35v-25.74l-45.37,22.69,2.97-11.06Z"/><ellipse class="cls-26" cx="671.37" cy="489.71" rx="58.06" ry="51.89"/><path class="cls-26" d="m623.9,495.84l-27.98-16.37-28.81,40.6s-.69,4.73-3.69,4.32-11.95-1.99-11.95-1.99c0,0-7.41-1.51-3.72-4.6s6.91-1.65,6.91-1.65l3.92.82,30.41-44.06s3.48-6.71,6.93-5.21c3.44,1.5,30.84,16.18,30.84,16.18l6.71,3.03-3.41,9.04-6.16-.11Z"/><path class="cls-26" d="m632.97,474.9l-36.12-14.15-37.2,35.1s-.89,4.09-4.76,3.73c-3.87-.36-15.42-1.72-15.42-1.72,0,0-4.74-.94-4.8-3.97-.06-3.03,8.92-1.42,8.92-1.42l5.06.71,39.26-38.09s4.5-5.8,8.94-4.5,39.81,13.98,39.81,13.98l8.66,2.62-4.4,7.81-7.95-.09Z"/><path class="cls-26" d="m715.51,474.9l36.12-14.15,37.2,35.1s.89,4.09,4.76,3.73c3.87-.36,15.42-1.72,15.42-1.72,0,0,4.74-.94,4.8-3.97.06-3.03-8.92-1.42-8.92-1.42l-5.06.71-39.26-38.09s-4.5-5.8-8.94-4.5-39.81,13.98-39.81,13.98l-8.66,2.62,4.4,7.81,7.95-.09Z"/><path class="cls-26" d="m722.29,495.86l27.98-16.37,28.81,40.6s.69,4.73,3.69,4.32c3-.41,11.95-1.99,11.95-1.99,0,0,7.41-1.51,3.72-4.6-3.69-3.09-6.91-1.65-6.91-1.65l-3.92.82-30.41-44.06s-3.48-6.71-6.93-5.21c-3.44,1.5-30.84,16.18-30.84,16.18l-6.71,3.03,3.41,9.04,6.16-.11Z"/><path class="cls-26" d="m709.5,526.67l34.56-38.1s3.23-5.56,6.45-3.29c3.23,2.26,4.03,5.56,4.03,5.56l13.28,35.83h9.46s4.79.41,3.64,2.88-4.05,3.49-4.05,3.49h-15.64s-5.2-1.43-4.05-4.72c1.15-3.29-8.29-30.17-8.29-30.17l-22.35,27.27-17.05,1.25Z"/><path class="cls-26" d="m641.31,529.08l-34.56-38.1s-3.23-5.56-6.45-3.29c-3.23,2.26-4.03,5.56-4.03,5.56l-13.28,35.83h-9.46s-4.79.41-3.64,2.88,4.05,3.49,4.05,3.49h15.64s5.2-1.43,4.05-4.72c-1.15-3.29,8.29-30.17,8.29-30.17l22.35,27.27,17.05,1.25Z"/><path class="cls-29" d="m672.63,439.57s16.7.64,27.42,6.14c10.71,5.49-22.93,32.16-22.93,32.16,0,0-5.76,5.46-5.99,0-.23-5.46,1.5-38.3,1.5-38.3Z"/><path class="cls-29" d="m672.97,439.6s-16.7.64-27.42,6.14c-10.71,5.49,22.93,32.16,22.93,32.16,0,0,5.76,5.46,5.99,0,.23-5.46-1.5-38.3-1.5-38.3Z"/><path class="cls-29" d="m692.65,530.97l41.01-21.93s8.99-5.15,9.1,0c.12,5.15-7.72,10.3-7.72,10.3l-45.37,22.69,2.97-11.06Z"/><path class="cls-29" d="m657.98,452.89l-1.84,6.67s-16.88,4.25-23.84,12.07c-6.96,7.82-7.56-.49-7.56-.49,0,0,5.17-9.85,33.24-18.25Z"/><path class="cls-29" d="m666.66,462.41l-1.84,6.67s-16.88,4.25-23.84,12.07-7.56-.49-7.56-.49c0,0,5.17-9.85,33.24-18.25Z"/><path class="cls-29" d="m679.56,469.2l-1.84,6.67s-16.88,4.25-23.84,12.07c-6.96,7.82-7.56-.49-7.56-.49,0,0,5.17-9.85,33.24-18.25Z"/><path class="cls-29" d="m689.64,452.94l1.84,6.67s16.88,4.25,23.84,12.07c6.96,7.82,7.56-.49,7.56-.49,0,0-5.17-9.85-33.24-18.25Z"/><path class="cls-29" d="m680.88,462.41l1.84,6.67s16.88,4.25,23.84,12.07c6.96,7.82,7.56-.49,7.56-.49,0,0-5.17-9.85-33.24-18.25Z"/><path class="cls-29" d="m667.29,467.56l1.84,6.67s16.88,4.25,23.84,12.07c6.96,7.82,7.56-.49,7.56-.49,0,0-5.17-9.85-33.24-18.25Z"/><path class="cls-29" d="m655.58,531.06l-41.01-21.93s-8.99-5.15-9.1,0c-.12,5.15,7.72,10.3,7.72,10.3l45.37,22.69-2.97-11.06Z"/><ellipse class="cls-29" cx="672.29" cy="529.14" rx="27.42" ry="24.4"/><path class="cls-26" d="m651.57,533.19l-41.01-21.93s-8.99-5.15-9.1,0c-.12,5.15,0,35.93,0,35.93h-8.53s-3.8,1.34-2.65,3.4l1.15,2.06h16.19c4.31-2.68,1.55-5.35,1.55-5.35v-25.74s45.37,22.69,45.37,22.69l-2.97-11.06Z"/><ellipse class="cls-26" cx="672.4" cy="535.63" rx="27.42" ry="24.4"/><ellipse class="cls-10" cx="678.28" cy="531.51" rx="5.53" ry="5.35"/><ellipse class="cls-10" cx="665.38" cy="531.51" rx="5.53" ry="5.35"/><ellipse class="cls-10" cx="689.57" cy="526.18" rx="3.69" ry="3.27"/><ellipse class="cls-10" cx="654.55" cy="526.21" rx="3.69" ry="3.27"/><ellipse class="cls-6" cx="678.28" cy="531.45" rx="2.53" ry="2.33"/><ellipse class="cls-6" cx="665.38" cy="531.56" rx="2.53" ry="2.33"/><path class="cls-27" d="m666.06,541.7s4.64,6.72,10.84,0c0,0-5.62-1.45-10.84,0Z"/><path class="cls-26" d="m697.06,533.16l41.01-21.93s8.99-5.15,9.1,0c.12,5.15,0,35.93,0,35.93h8.53s3.8,1.34,2.65,3.4l-1.15,2.06h-16.19c-4.31-2.68-1.55-5.35-1.55-5.35v-25.74l-45.37,22.69,2.97-11.06Z"/><path class="cls-23" d="m706.87,710.94s-3.29-17.99,13.81-29.52c17.1-11.54,11.93-11.85,10.78-23.36-1.15-11.5,3.5-19.62,9.43-17.91s9.76,29.48,9.76,29.48c0,0,.87,12.45-13.58,19.85-5.53,2.86-11.9,15.84-11.9,15.84,0,0-2.14,14.9-3.64,12.97"/><path class="cls-23" d="m589.01,756.06h134.32s14.51-1.37,14.81-13.05c.3-11.67-16.09-13.18-16.09-13.18h-133.03s-10.48,2.08-10.25,13.11,10.25,13.11,10.25,13.11Z"/><path class="cls-23" d="m599.89,729.84h112.2s12.12-1.37,12.37-13.05c.25-11.67-13.44-13.18-13.44-13.18h-111.13s-8.75,2.08-8.56,13.11c.19,11.04,8.56,13.11,8.56,13.11Z"/><path class="cls-23" d="m611.26,703.61h86.67s9.36-1.37,9.55-13.05c.19-11.67-10.38-13.18-10.38-13.18h-85.84s-6.76,2.08-6.62,13.11c.15,11.04,6.62,13.11,6.62,13.11Z"/><path class="cls-23" d="m641.38,677.48s-1.28-27.36,8.55-34.15c9.83-6.79,24.49,1.13,31.81-8.11,7.33-9.24-6.36-17.92-6.36-17.92h-44.68s-14.9,2.45-14.71-11.7c.19-14.15,13.69-11.13,13.69-11.13l46.12-.27s31.96-1.89,31.67,37.96c-.29,39.85-34.22,16.64-37.11,28.72-2.89,12.07-1.79,16.6-1.79,16.6h-27.2Z"/><path class="cls-28" d="m708.21,705.36s-1.89-16.6,13.44-26.23c15.33-9.62,10.89-10.19,10.51-20.75s4.05-17.73,9.06-15.85c5.01,1.89,6.84,27.45,6.84,27.45,0,0,.1,11.41-12.73,17.4-4.91,2.32-11.08,13.83-11.08,13.83,0,0-2.62,13.5-3.82,11.65"/><path class="cls-23" d="m585.23,758.38h141.68s15.3-1.46,15.62-13.83c.32-12.37-16.97-13.97-16.97-13.97h-140.33s-11.05,2.2-10.81,13.9c.24,11.7,10.81,13.9,10.81,13.9Z"/><path class="cls-23" d="m596.7,730.58h118.35s12.78-1.46,13.05-13.83-14.17-13.97-14.17-13.97h-117.22s-9.23,2.2-9.03,13.9c.2,11.7,9.03,13.9,9.03,13.9Z"/><path class="cls-23" d="m608.7,702.78h91.42s9.87-1.46,10.08-13.83c.21-12.37-10.95-13.97-10.95-13.97h-90.55s-7.13,2.2-6.98,13.9c.15,11.7,6.98,13.9,6.98,13.9Z"/><path class="cls-28" d="m638.19,676.12s-1.28-27.36,8.55-34.15c9.83-6.79,24.49,1.13,31.81-8.11,7.33-9.24-6.36-17.92-6.36-17.92h-44.68s-14.9,2.45-14.71-11.7c.19-14.15,13.69-11.13,13.69-11.13l46.12-.27s31.96-1.89,31.67,37.96-34.22,16.64-37.11,28.72c-2.89,12.07-1.79,16.6-1.79,16.6h-27.2Z"/><ellipse class="cls-19" cx="622.36" cy="597.34" rx="2.99" ry="2.92"/><path class="cls-3" d="m615.36,609.71s-4.41,3.55-11.37,2.93c-6.96-.61-16.04-2.34-16.04-2.34l-5.78-.6,2.41,1.5h-6.52l5.14,1.5s11.14,3.05,20.78,2.86c9.64-.18,15.28-3.46,15.28-3.46,0,0-3.91-2.38-3.91-2.41Z"/><ellipse class="cls-31" cx="616.38" cy="604.32" rx=".67" ry=".66"/><ellipse class="cls-6" cx="623.8" cy="597.25" rx="1.35" ry="1.32"/><path class="cls-28" d="m611.15,702.53h86.67s9.36-1.37,9.55-13.05c.19-11.67-10.38-13.18-10.38-13.18h-85.84s-6.76,2.08-6.62,13.11c.15,11.04,6.62,13.11,6.62,13.11Z"/><path class="cls-28" d="m599.87,729.89h112.2s12.12-1.37,12.37-13.05c.25-11.67-13.44-13.18-13.44-13.18h-111.13s-8.75,2.08-8.56,13.11c.19,11.04,8.56,13.11,8.56,13.11Z"/><path class="cls-28" d="m588.43,757.62h134.32s14.51-1.37,14.81-13.05c.3-11.67-16.09-13.18-16.09-13.18h-133.03s-10.48,2.08-10.25,13.11c.23,11.04,10.25,13.11,10.25,13.11Z"/><path class="cls-20" d="m599.69,356.37h159.54s6.87-84.1-79.77-84.54c-86.64-.45-79.77,84.54-79.77,84.54Z"/><path class="cls-20" d="m603.8,363.99h126.83s5.46-70.39-63.42-70.76c-68.88-.37-63.42,70.76-63.42,70.76Z"/><ellipse class="cls-20" cx="584.06" cy="281.81" rx="10.51" ry="10.21"/><ellipse class="cls-20" cx="569.52" cy="282.27" rx="10.51" ry="10.21"/><path class="cls-20" d="m722.97,392.59s13.51,1.37,13.8-3.28,0-38.73,0-38.73c0,0-10.27-14.66-18.5,0,0,0-4.7,19.35,0,36.16,0,0,.39,5.59,4.7,5.86Z"/><path class="cls-20" d="m603.1,393.29s13.51,1.37,13.8-3.28,0-38.73,0-38.73c0,0-10.27-14.66-18.5,0,0,0-4.7,19.35,0,36.16,0,0,.39,5.59,4.7,5.86Z"/><path class="cls-20" d="m626.04,398.07s15.06,1.44,15.38-3.45c.32-4.88,0-40.64,0-40.64,0,0-11.44-15.38-20.62,0,0,0-5.24,20.3,0,37.94,0,0,.43,5.86,5.24,6.15Z"/><path class="cls-13" d="m722.33,325.81s18.87,5.16,36.36-8c17.48-13.16,21.09,4.37,7.35,9.71-13.74,5.33-28.59,13.32-48.39,13.11-19.8-.21,4.69-14.82,4.69-14.82Z"/><path class="cls-13" d="m604.84,390.64s13.21,1.3,13.49-3.11,0-36.7,0-36.7c0,0-10.04-13.89-18.09,0,0,0-4.6,18.33,0,34.26,0,0,.38,5.3,4.6,5.56Z"/><path class="cls-13" d="m728.44,390.6s13.21,1.3,13.49-3.11,0-36.7,0-36.7c0,0-10.04-13.89-18.09,0,0,0-4.6,18.33,0,34.26,0,0,.38,5.3,4.6,5.56Z"/><path class="cls-13" d="m601.2,362.93h156.88s6.76-89.48-78.44-89.95c-85.2-.47-78.44,89.95-78.44,89.95Z"/><path class="cls-13" d="m742.64,393.17s15.06,1.44,15.38-3.45c.32-4.88,0-40.64,0-40.64,0,0-11.44-15.38-20.62,0,0,0-5.24,20.3,0,37.94,0,0,.43,5.86,5.24,6.15Z"/><path class="cls-20" d="m634.39,283.56s44.45-25.88,89.92,0c0,0-18.74,23-44.96,23.46s-44.96-23.46-44.96-23.46Z"/><path class="cls-20" d="m747.11,305.31s-33.12,4.7-27.5,12.64c5.62,7.95,35.36,3.92,35.36,3.92l-7.86-16.57Z"/><path class="cls-20" d="m611.81,310.42s25.28-1.89,25.29,7.53c.01,9.42-31.69,8.87-31.69,8.87l6.4-16.4Z"/><ellipse class="cls-20" cx="589.17" cy="304.16" rx="29.41" ry="28.87"/><ellipse class="cls-13" cx="587.3" cy="304.03" rx="29.29" ry="28.5"/><ellipse class="cls-13" cx="568.08" cy="282.21" rx="8.72" ry="8.48"/><ellipse class="cls-13" cx="583.74" cy="281.94" rx="9.06" ry="8.87"/><ellipse class="cls-19" cx="583.5" cy="284.72" rx="5.57" ry="5.47"/><ellipse class="cls-19" cx="568.13" cy="284.78" rx="5.57" ry="5.47"/><path class="cls-13" d="m577.01,284.16h14.77s-.13-7.86-7.38-8.06c-7.26-.21-7.38,8.06-7.38,8.06Z"/><path class="cls-13" d="m560.24,284.18h14.77s-.13-8.83-7.38-9.06c-7.26-.23-7.38,9.06-7.38,9.06Z"/><ellipse class="cls-6" cx="583.51" cy="286.54" rx="1.92" ry="1.82"/><ellipse class="cls-6" cx="567.63" cy="286.5" rx="1.92" ry="1.82"/><path class="cls-27" d="m569.26,311.3s5.64,9.94,13.17,0c0,0-6.83-2.14-13.17,0Z"/><path class="cls-20" d="m679.65,333.03s47.94.46,38,7.6-21.59,12.61-38.3,12.7c-16.71.09-36.08-4.33-36.41-11.09-.33-6.76,36.7-9.22,36.7-9.22Z"/><path class="cls-20" d="m621.53,398.14s15.06,1.44,15.38-3.45c.32-4.88,0-40.64,0-40.64,0,0-11.44-15.38-20.62,0,0,0-5.24,20.3,0,37.94,0,0,.43,5.86,5.24,6.15Z"/><path class="cls-13" d="m623.98,396.52s15.06,1.44,15.38-3.45,0-40.64,0-40.64c0,0-11.44-15.38-20.62,0,0,0-5.24,20.3,0,37.94,0,0,.43,5.86,5.24,6.15Z"/><path class="cls-20" d="m745.9,397.37s15.06,1.44,15.38-3.45c.32-4.88,0-40.64,0-40.64,0,0-11.44-15.38-20.62,0,0,0-5.24,20.3,0,37.94,0,0,.43,5.86,5.24,6.15Z"/><path class="cls-13" d="m724.71,389.95s13.21,1.3,13.49-3.11c.28-4.41,0-36.7,0-36.7,0,0-10.04-13.89-18.09,0,0,0-4.6,18.33,0,34.26,0,0,.38,5.3,4.6,5.56Z"/><path class="cls-20" d="m741.4,397.44s15.06,1.44,15.38-3.45c.32-4.88,0-40.64,0-40.64,0,0-11.44-15.38-20.62,0,0,0-5.24,20.3,0,37.94,0,0,.43,5.86,5.24,6.15Z"/><path class="cls-13" d="m743.85,395.83s15.06,1.44,15.38-3.45,0-40.64,0-40.64c0,0-11.44-15.38-20.62,0,0,0-5.24,20.3,0,37.94,0,0,.43,5.86,5.24,6.15Z"/><path class="cls-17" d="m684.03,180.32l3.74,7.58s-12.72,14.05-12.97,25.75c-.25,11.7-7.67,3.96-7.67,3.96,0,0-3.15-12.63,16.91-37.28Z"/><path class="cls-17" d="m685.9,141.85s-12.59-2.48-19-16.13c-6.41-13.65-13.66-3.65-7.15,3.91s12.88,17.13,24.57,23.02c11.68,5.89,1.58-10.81,1.58-10.81Z"/><path class="cls-17" d="m689.21,186.71l4.74,6.92s-10.66,15.86-9.3,27.47c1.36,11.61-7.05,5.1-7.05,5.1,0,0-4.86-12.01,11.61-39.49Z"/><path class="cls-17" d="m680.6,168.42l2.29,8.2s-15.03,11.21-17.39,22.64c-2.36,11.43-8.25,2.33-8.25,2.33,0,0-.81-13.04,23.34-33.16Z"/><path class="cls-17" d="m673.73,158.2l2.29,8.2s-15.03,11.21-17.39,22.64c-2.36,11.43-8.25,2.33-8.25,2.33,0,0-.81-13.04,23.34-33.16Z"/><path class="cls-17" d="m782.03,182.04l-3.74,7.58s12.72,14.05,12.97,25.75c.25,11.7,7.67,3.96,7.67,3.96,0,0,3.15-12.63-16.91-37.28Z"/><path class="cls-17" d="m776.85,188.43l-4.74,6.92s10.66,15.86,9.3,27.47c-1.36,11.61,7.05,5.1,7.05,5.1,0,0,4.86-12.01-11.61-39.49Z"/><path class="cls-17" d="m785.46,170.14l-2.29,8.2s15.03,11.21,17.39,22.64c2.36,11.43,8.25,2.33,8.25,2.33,0,0,.81-13.04-23.34-33.16Z"/><path class="cls-17" d="m792.33,159.92l-2.29,8.2s15.03,11.21,17.39,22.64,8.25,2.33,8.25,2.33c0,0,.81-13.04-23.34-33.16Z"/><path class="cls-17" d="m641.04,127.17s21.59,12.34,24.61,5.48c3.02-6.86,9.15-22.03-11.16-32.67s-29.38,3.37-29.38,3.37l-1.5,3.02s-3.35,5.49,14.85,8c0,0,2.22.61.62,2.83-1.6,2.22-8.01,1.9-8.01,1.9,0,0-2.66-.9-1.9,1.47s1.61,3.47,3.2,5.1,3.83,1.7,8.67,1.49Z"/><path class="cls-17" d="m782.42,141.9s12.59-2.48,19-16.13c6.41-13.65,13.66-3.65,7.15,3.91-6.5,7.56-12.88,17.13-24.57,23.02-11.68,5.89-1.58-10.81-1.58-10.81Z"/><path class="cls-17" d="m827.27,127.22s-21.59,12.34-24.61,5.48c-3.02-6.86-9.15-22.03,11.16-32.67,20.31-10.63,29.38,3.37,29.38,3.37l1.5,3.02s3.35,5.49-14.85,8c0,0-2.22.61-.62,2.83s8.01,1.9,8.01,1.9c0,0,2.66-.9,1.9,1.47-.76,2.37-1.61,3.47-3.2,5.1s-3.83,1.7-8.67,1.49Z"/><ellipse class="cls-17" cx="734.31" cy="159.86" rx="70.5" ry="45.12"/><ellipse class="cls-17" cx="718.03" cy="114.65" rx="14.23" ry="15.07"/><ellipse class="cls-17" cx="748.78" cy="114.65" rx="14.23" ry="15.07"/><ellipse class="cls-17" cx="748.86" cy="114.74" rx="7.12" ry="7.54"/><ellipse class="cls-17" cx="718.11" cy="114.74" rx="7.12" ry="7.54"/><ellipse class="cls-17" cx="748.78" cy="114.65" rx="3.6" ry="3.81"/><ellipse class="cls-17" cx="718.03" cy="114.65" rx="3.6" ry="3.81"/><path class="cls-17" d="m725.23,137.97s5.53,11.54,12.91,0c0,0-6.69-2.49-12.91,0Z"/><path class="cls-4" d="m684.25,179.85l3.66,7.38s-12.45,13.69-12.69,25.09c-.24,11.4-7.51,3.86-7.51,3.86,0,0-3.09-12.31,16.55-36.32Z"/><path class="cls-4" d="m686.07,142.36s-12.32-2.41-18.59-15.71c-6.27-13.3-13.36-3.55-7,3.81,6.36,7.36,12.61,16.69,24.04,22.43,11.43,5.74,1.55-10.53,1.55-10.53Z"/><path class="cls-4" d="m689.32,186.07l4.64,6.74s-10.43,15.45-9.1,26.77c1.33,11.31-6.9,4.97-6.9,4.97,0,0-4.75-11.7,11.36-38.48Z"/><path class="cls-4" d="m680.89,168.25l2.25,7.98s-14.71,10.92-17.02,22.06c-2.31,11.14-8.07,2.27-8.07,2.27,0,0-.79-12.7,22.84-32.31Z"/><path class="cls-4" d="m674.16,158.3l2.25,7.98s-14.71,10.92-17.02,22.06c-2.31,11.14-8.07,2.27-8.07,2.27,0,0-.79-12.7,22.84-32.31Z"/><path class="cls-4" d="m780.14,181.52l-3.66,7.38s12.45,13.69,12.69,25.09,7.51,3.86,7.51,3.86c0,0,3.09-12.31-16.55-36.32Z"/><path class="cls-4" d="m775.07,187.74l-4.64,6.74s10.43,15.45,9.1,26.77,6.9,4.97,6.9,4.97c0,0,4.75-11.7-11.36-38.48Z"/><path class="cls-4" d="m783.5,169.93l-2.25,7.98s14.71,10.92,17.02,22.06c2.31,11.14,8.07,2.27,8.07,2.27,0,0,.79-12.7-22.84-32.31Z"/><path class="cls-4" d="m790.22,159.97l-2.25,7.98s14.71,10.92,17.02,22.06c2.31,11.14,8.07,2.27,8.07,2.27,0,0,.79-12.7-22.84-32.31Z"/><path class="cls-4" d="m780.52,142.41s12.32-2.41,18.59-15.71c6.27-13.3,13.36-3.55,7,3.81s-12.61,16.69-24.04,22.43c-11.43,5.74-1.55-10.53-1.55-10.53Z"/><path class="cls-4" d="m824.42,128.11s-21.13,12.02-24.09,5.34c-2.96-6.68-8.95-21.47,10.92-31.83,19.87-10.36,28.75,3.28,28.75,3.28l1.46,2.94s3.28,5.35-14.54,7.8c0,0-2.18.6-.61,2.76s7.84,1.85,7.84,1.85c0,0,2.61-.88,1.86,1.43s-1.57,3.38-3.13,4.97c-1.56,1.59-3.75,1.66-8.48,1.45Z"/><ellipse class="cls-4" cx="733.44" cy="159.91" rx="68.99" ry="43.96"/><ellipse class="cls-4" cx="717.52" cy="115.86" rx="13.93" ry="14.68"/><ellipse class="cls-4" cx="747.61" cy="115.86" rx="13.93" ry="14.68"/><ellipse class="cls-9" cx="747.69" cy="115.95" rx="6.96" ry="7.34"/><ellipse class="cls-9" cx="717.6" cy="115.95" rx="6.96" ry="7.34"/><ellipse class="cls-27" cx="747.61" cy="115.86" rx="3.52" ry="3.71"/><ellipse class="cls-27" cx="717.52" cy="115.86" rx="3.52" ry="3.71"/><path class="cls-27" d="m724.56,138.59s5.41,11.25,12.63,0c0,0-6.55-2.42-12.63,0Z"/><path class="cls-4" d="m642.18,128.06s21.13,12.02,24.09,5.34c2.96-6.68,8.95-21.47-10.92-31.83-19.87-10.36-28.75,3.28-28.75,3.28l-1.46,2.94s-3.28,5.35,14.54,7.8c0,0,2.18.6.61,2.76s-7.84,1.85-7.84,1.85c0,0-2.61-.88-1.86,1.43s1.57,3.38,3.13,4.97,3.75,1.66,8.48,1.45Z"/><path class="cls-25" d="m667.3,174.07s14.12,30.9,65.92,30.96c51.79.06,68.99-33.95,68.99-33.95l2.29-7.91s-77.18,22.78-139.89,2.51l2.69,8.39Z"/><path class="cls-5" d="m957.24,148.17l-.64,7.04h-23.88l-.64-7.04h25.16Zm-1.02,11.8l-.67,7.22h-21.78l-.58-7.22h23.02Z"/><path class="cls-5" d="m997.48,160.43l-1.44,9.25h-16.29l-1.56-9.25h19.29Z"/><path class="cls-5" d="m1025.35,133.65c-.15,4.12-.37,11.45-.67,21.99-.11,5.26-.21,13.52-.32,24.78h-14.21c.04-6.25-.02-12.06-.19-17.44-.04-1.58-.15-5.84-.32-12.8-.36.06-1.15.22-2.36.49-.64.14-1.39.37-2.27.7l-3.03-10.19c2.41-.97,6.66-2.8,12.77-5.49,1.89-.87,4.4-2.1,7.5-3.7l3.1,1.67Z"/><path class="cls-5" d="m1076.09,171.16c-.21.81-.61,2.33-1.18,4.58-.3,1.32-.55,2.85-.77,4.61h-28.9c-.11-4.75-.37-12.58-.8-23.47-.28-5.58-.78-13.28-1.5-23.11h22.16l-1.82,38.64c2.06,0,5.16-.21,9.29-.64.85-.08,2.02-.28,3.51-.61Z"/><path class="cls-5" d="m1099.75,133.77l-1.25,24.78c-.24,5.34-.51,12.61-.83,21.81h-17.91l-2.17-46.58h22.16Z"/><path class="cls-5" d="m1143.5,133.77c-1.77,4.97-4.6,13.09-8.49,24.35-1.79,5.3-4.1,12.71-6.93,22.23h-11.11c-1.43-4.61-3.81-12.14-7.15-22.59-1.89-5.78-4.71-13.78-8.43-23.99h22.58c.21,1.92.71,5.04,1.5,9.37.53,2.3,1.36,5.48,2.49,9.52.6-1.96,1.47-5.16,2.62-9.58.53-2.39,1.14-5.49,1.82-9.31h11.11Z"/><path class="cls-18" d="m826.93,806.28v37.08s130.76-.02,130.76-.02c0,0,12.52,3.09,12.92-18.52.4-21.61-12.94-18.54-12.94-18.54h-130.75Z"/><path class="cls-18" d="m673.61,804.46v32.93s-130.76-.02-130.76-.02c0,0-12.52,2.74-12.92-16.45-.4-19.19,12.94-16.47,12.94-16.47h130.75Z"/><path class="cls-18" d="m834.15,791.85v47.66s-166.55-.03-166.55-.03c0,0-15.95,3.97-16.46-23.8-.51-27.77,16.48-23.83,16.48-23.83h166.53Z"/><ellipse class="cls-18" cx="776.26" cy="837.5" rx="12.96" ry="6.13"/><ellipse class="cls-18" cx="702.91" cy="837.36" rx="12.96" ry="6.13"/><path class="cls-12" d="m673.72,808.36v32.93s-130.76-.02-130.76-.02c0,0-12.52,2.74-12.92-16.45s12.94-16.47,12.94-16.47h130.75Z"/><path class="cls-12" d="m834.26,795.76v47.66s-166.55-.03-166.55-.03c0,0-15.95,3.97-16.46-23.8-.51-27.77,16.48-23.83,16.48-23.83h166.53Z"/><ellipse class="cls-18" cx="776.37" cy="841.41" rx="12.96" ry="6.13"/><ellipse class="cls-18" cx="703.02" cy="841.27" rx="12.96" ry="6.13"/><ellipse class="cls-18" cx="831.95" cy="802.1" rx="38.55" ry="44.9"/><ellipse class="cls-18" cx="834" cy="798.73" rx="38.55" ry="44.9"/><path class="cls-18" d="m868.38,771.9h-17.56s.15,9.09,8.78,9.33c8.63.24,8.78-9.33,8.78-9.33Z"/><ellipse class="cls-18" cx="844.57" cy="771.92" rx="8.32" ry="9.34"/><path class="cls-18" d="m853.39,772h-17.56s.15,9.09,8.78,9.33c8.63.24,8.78-9.33,8.78-9.33Z"/><ellipse class="cls-18" cx="861.55" cy="776.32" rx="2.1" ry="2.4"/><ellipse class="cls-18" cx="846.69" cy="776.41" rx="2.1" ry="2.4"/><ellipse class="cls-12" cx="834.11" cy="802.64" rx="38.55" ry="44.9"/><ellipse class="cls-18" cx="948.2" cy="808.15" rx="8.32" ry="9.34"/><ellipse class="cls-18" cx="948.32" cy="808.28" rx="4.6" ry="5.42"/><path class="cls-12" d="m827.04,810.18v37.08s130.76-.02,130.76-.02c0,0,12.52,3.09,12.92-18.52.4-21.61-12.94-18.54-12.94-18.54h-130.75Z"/><ellipse class="cls-12" cx="948.31" cy="812.05" rx="8.32" ry="9.34"/><ellipse class="cls-18" cx="948.43" cy="812.19" rx="4.6" ry="5.42"/><path class="cls-27" d="m970.59,830.61s-50.01,25.93-116.69,0c0,0,60.5-5.59,116.69,0Z"/><polygon class="cls-10" points="943.8 830.23 937.39 842.13 930.7 830.23 943.8 830.23"/><polygon class="cls-10" points="928.02 830.23 921.61 842.13 914.93 830.23 928.02 830.23"/><polygon class="cls-10" points="911.65 830.23 905.24 842.13 898.55 830.23 911.65 830.23"/><polygon class="cls-10" points="894.98 830.23 888.57 842.13 881.88 830.23 894.98 830.23"/><polygon class="cls-10" points="958.44 830.05 952.02 841.95 945.34 830.05 958.44 830.05"/><ellipse class="cls-18" cx="843.57" cy="773.98" rx="8.32" ry="9.34"/><ellipse class="cls-18" cx="859.78" cy="774.69" rx="8.93" ry="9.92"/><ellipse class="cls-12" cx="860.27" cy="775.73" rx="8.32" ry="9.34"/><path class="cls-19" d="m868.49,775.59h-17.56s.15,9.09,8.78,9.33c8.63.24,8.78-9.33,8.78-9.33Z"/><ellipse class="cls-6" cx="861.36" cy="778.78" rx="2.1" ry="2.4"/><ellipse class="cls-12" cx="844.09" cy="775.83" rx="8.32" ry="9.34"/><path class="cls-19" d="m853.5,775.59h-17.56s.15,9.09,8.78,9.33c8.63.24,8.78-9.33,8.78-9.33Z"/><ellipse class="cls-6" cx="845.61" cy="779.59" rx="2.1" ry="2.4"/><path class="cls-5" d="m1022.31,807.21l-.64,7.04h-23.88l-.64-7.04h25.16Zm-1.02,11.8l-.67,7.22h-21.78l-.58-7.22h23.02Z"/><path class="cls-5" d="m1062.8,792.8l-1.25,24.78c-.24,5.34-.51,12.61-.83,21.81h-17.91l-2.17-46.58h22.16Z"/><path class="cls-5" d="m1119.64,792.8c-1.77,4.97-4.6,13.09-8.49,24.35-1.79,5.3-4.1,12.71-6.93,22.23h-11.11c-1.43-4.61-3.81-12.14-7.15-22.59-1.89-5.78-4.71-13.78-8.43-23.99h22.58c.21,1.92.71,5.04,1.5,9.37.53,2.3,1.36,5.48,2.49,9.52.6-1.96,1.47-5.16,2.62-9.58.53-2.39,1.14-5.49,1.82-9.31h11.11Z"/><path class="cls-5" d="m1154.83,792.8l-1.37,19.2c-.79-.12-2.49-.33-5.11-.64-1.79-.16-3.75-.26-5.88-.3l-.48,5.79c2.34.06,6.16.01,11.46-.15-.23.75-.61,2.14-1.12,4.19-.3,1.23-.56,2.66-.8,4.28-.62-.14-2.16-.32-4.63-.55-1.15-.06-2.85-.08-5.11-.06l-.32,6.76c1.6-.02,4.53-.15,8.81-.39.81-.06,2.14-.3,3.99-.73-.17.63-.56,2.13-1.18,4.52-.3,1.23-.66,2.79-1.09,4.67h-28.58l-.93-23.78c-.17-5.44-.59-13.04-1.25-22.81h33.56Z"/><path class="cls-5" d="m1184.52,792.8c-.25,3.82-.61,10.68-1.05,20.56-.3,8.31-.36,15.64-.19,21.99-4.66,3.36-9.81,5.03-15.45,5.03-3.07,0-6.35-.33-9.87-1-.08-.83-.28-2.29-.58-4.4-.19-1.13-.46-2.69-.8-4.67.66.28,2.34.72,5.04,1.3,1.43.22,2.76.24,3.99.06-.02-2.02-.35-8.13-.99-18.32-.41-5.66-1.12-12.52-2.14-20.56h22.03Z"/><path class="cls-5" d="m1220.7,792.8l-1.37,19.2c-.79-.12-2.49-.33-5.11-.64-1.79-.16-3.75-.26-5.88-.3l-.48,5.79c2.34.06,6.16.01,11.46-.15-.23.75-.61,2.14-1.12,4.19-.3,1.23-.56,2.66-.8,4.28-.62-.14-2.16-.32-4.63-.55-1.15-.06-2.85-.08-5.11-.06l-.32,6.76c1.6-.02,4.53-.15,8.81-.39.81-.06,2.14-.3,3.99-.73-.17.63-.56,2.13-1.18,4.52-.3,1.23-.66,2.79-1.09,4.67h-28.58l-.93-23.78c-.17-5.44-.59-13.04-1.25-22.81h33.56Z"/><path class="cls-5" d="m1262.69,792.8c-.3,4.08-.71,11.21-1.25,21.38-.32,7.48-.59,16.08-.8,25.81-2.79-2.08-7.04-5.19-12.74-9.31-2.47-1.64-6.15-4.09-11.05-7.37l-.32,16.07h-10.28c-.17-4.1-.56-11.85-1.18-23.23-.53-9.22-1.08-17-1.63-23.35h16.03l11.88,10.68c0-2.45-.04-4.37-.13-5.76-.06-1.23-.19-2.87-.38-4.91h11.85Z"/></svg>