<?xml version="1.0" encoding="UTF-8"?><svg id="Layer_1" xmlns="http://www.w3.org/2000/svg" width="1920" height="1080" viewBox="0 0 1920 1080"><defs><style>.cls-1{fill:#614b47;}.cls-1,.cls-2,.cls-3,.cls-4,.cls-5,.cls-6,.cls-7,.cls-8,.cls-9,.cls-10,.cls-11,.cls-12,.cls-13,.cls-14,.cls-15,.cls-16,.cls-17,.cls-18,.cls-19,.cls-20,.cls-21,.cls-22,.cls-23,.cls-24{stroke-width:0px;}.cls-2{fill:#de9562;}.cls-3{fill:#e97600;}.cls-4{fill:#ebffd4;}.cls-6{fill:#e59f71;}.cls-7{fill:#ac7755;}.cls-8{fill:#fffbe9;}.cls-9{fill:#576d5c;}.cls-10{fill:#b1c87c;}.cls-11{fill:gray;}.cls-12{fill:#b0cfe3;}.cls-13{fill:#f3b46f;}.cls-14{fill:#fff;}.cls-15{fill:#85965d;}.cls-16{fill:#59483a;}.cls-17{fill:#915932;}.cls-25{fill:#352600;stroke:#000;stroke-miterlimit:10;}.cls-18{fill:#996;}.cls-19{fill:#dfecf4;}.cls-20{fill:#846d69;}.cls-21{fill:#352000;}.cls-22{fill:#b5b46d;}.cls-23{fill:#81645f;}.cls-24{fill:#f5c38c;}</style></defs><rect class="cls-12" x="7.51" y="-15.5" width="1920" height="227"/><path class="cls-17" d="m1095.71,264l529.3-25.9s-23.74-67.25-71.22-76.56c-47.48-9.31,13.97-55.89,13.97-55.89l-33.52-82.28s-7.87-12.42-51.42,0c-43.55,12.42-76.18-13.2-76.18-13.2,0,0-171.27-5.43-157.3,22.51,13.97,27.94-57.52,3.1-69.26,16.3-11.74,13.2-101.12,107.47-84.36,118.55,16.76,11.08,0,96.46,0,96.46Z"/><path class="cls-2" d="m1095.56,257l511.45-23.01s-22.94-59.74-68.82-68.01c-45.88-8.27,13.49-49.65,13.49-49.65l-32.39-73.09s-7.61-11.03-49.68,0c-42.08,11.03-73.61-11.72-73.61-11.72,0,0-165.49-4.83-152,20,13.49,24.82-55.58,2.76-66.93,14.48-11.34,11.72-97.71,95.47-81.52,105.31,16.19,9.84,0,85.69,0,85.69Z"/><rect class="cls-13" x="7.51" y="200.5" width="1920" height="864"/><path class="cls-19" d="m5.01,31h599.91s64.91,32.09,0,59.55H5.01s-35-36.55,0-59.55Z"/><path class="cls-19" d="m672.97,80.68h426.53s46.15,20.65,0,38.32h-426.53s-24.88-23.52,0-38.32Z"/><path class="cls-19" d="m1595.21,31.2h426.53s46.15,20.65,0,38.32h-426.53s-24.88-23.52,0-38.32Z"/><path class="cls-2" d="m-45.76,1006.28s67.2-110.14,414.13-67.46,460.13,0,460.13,0c0,0,289.49-114.81,382.22-22.77,92.74,92.05,519.82,29.82,519.82,29.82,0,0,294.34-116.74,429.32-51.44,134.98,65.3-122.34,298.68-122.34,298.68,0,0-526.22,72.66-719.17,33.31s-717.47,28.58-717.47,28.58c0,0-394.48-3.85-478.34-51.01-83.86-47.16-201.03-66.51-168.29-197.71Z"/><path class="cls-2" d="m30.46,542.55s16.89-14.68,104.11-8.99c87.22,5.69,115.68,0,115.68,0,0,0,72.78-15.3,96.09-3.03,23.31,12.27,130.68,3.97,130.68,3.97,0,0,74-15.56,107.93-6.86,33.93,8.7-30.76,39.81-30.76,39.81,0,0-132.29,9.68-180.8,4.44-48.51-5.25-180.37,3.81-180.37,3.81,0,0-99.17-.51-120.26-6.8-21.08-6.29-50.54-8.86-42.31-26.35Z"/><path class="cls-24" d="m1118.04,770.69s24.16-30.69,148.88-18.8c124.72,11.89,165.41,0,165.41,0,0,0,104.07-31.99,137.41-6.34,33.34,25.65,186.87,8.31,186.87,8.31,0,0,105.81-32.53,154.34-14.33,48.52,18.19-43.98,83.22-43.98,83.22,0,0-189.17,20.25-258.54,9.28-69.36-10.97-257.92,7.96-257.92,7.96,0,0-141.81-1.07-171.96-14.21-30.15-13.14-72.27-18.53-60.5-55.09Z"/><path class="cls-2" d="m1617.43,512.54s16.89-23.67,104.11-14.5c87.22,9.17,115.68,0,115.68,0,0,0,72.78-24.68,96.09-4.89,23.31,19.78,130.68,6.41,130.68,6.41,0,0,74-25.09,107.93-11.06,33.93,14.03-30.76,64.19-30.76,64.19,0,0-132.29,15.62-180.8,7.16-48.51-8.46-180.37,6.14-180.37,6.14,0,0-99.17-.83-120.26-10.96s-50.54-14.29-42.31-42.49Z"/><path class="cls-2" d="m344.56,764.27s31-4.72,32.46-10.39,25.16-1.41,30.46-3.39c5.3-1.99,26.92-8.61,26.92-8.61,0,0,7.2,5.41,5.28,16.18-1.92,10.76.1,1.74-9.15,15.97,0,0-32.9,16.17-47,10.93s-25.69-1.25-25.69-1.25c0,0-21.26-18.04-13.28-19.44Z"/><path class="cls-11" d="m342.39,768.54s30.59-7.43,33.71,0c3.11,7.43,24.09-9.49,29.68-9.08s27.95,0,27.95,0c0,0,5.11-11.02,0-25.52-5.11-14.5-.44-2.53-13.5-18.62,0,0-35.89-8.06-47.54,5.87-11.65,13.93-23.77,13.52-23.77,13.52,0,0-14.45,35.48-6.53,33.83Z"/><path class="cls-2" d="m122.54,461.83h56.81s17.15,8.39-8.25,27.14c-25.4,18.75-41.84,7.9-41.84,7.9,0,0-38.71-8.88-28.7-14.07s-8.66-20.97,21.97-20.97Z"/><path class="cls-11" d="m118.81,474.39h56.81s17.15-12.29-8.25-39.75c-25.4-27.47-41.84-11.56-41.84-11.56,0,0-38.71,13.01-28.7,20.6,10.02,7.59-8.66,30.72,21.97,30.72Z"/><path class="cls-2" d="m1832.27,683.9s31-4.72,32.46-10.39c1.46-5.67,25.16-1.41,30.46-3.39,5.3-1.99,26.92-8.61,26.92-8.61,0,0,7.2,5.41,5.28,16.18-1.92,10.76.1,1.74-9.15,15.97,0,0-32.9,16.17-47,10.93-14.1-5.24-25.69-1.25-25.69-1.25,0,0-21.26-18.04-13.28-19.44Z"/><path class="cls-11" d="m1830.09,688.18s30.59-7.43,33.71,0c3.11,7.43,24.09-9.49,29.68-9.08s27.95,0,27.95,0c0,0,5.11-11.02,0-25.52-5.11-14.5-.44-2.53-13.5-18.62,0,0-35.89-8.06-47.54,5.87-11.65,13.93-23.77,13.52-23.77,13.52,0,0-14.45,35.48-6.53,33.83Z"/><path class="cls-2" d="m1642.89,390.74h56.81s17.15,8.39-8.25,27.14c-25.4,18.75-41.84,7.9-41.84,7.9,0,0-38.71-8.88-28.7-14.07s-8.66-20.97,21.97-20.97Z"/><path class="cls-11" d="m1639.16,403.3h56.81s17.15-12.29-8.25-39.75-41.84-11.56-41.84-11.56c0,0-38.71,13.01-28.7,20.6,10.02,7.59-8.66,30.72,21.97,30.72Z"/><path class="cls-2" d="m1068.78,291.55s12.1-7.28,74.57-4.46c62.47,2.82,82.86,0,82.86,0,0,0,52.13-7.59,68.83-1.51,16.7,6.09,93.61,1.97,93.61,1.97,0,0,53-7.72,77.31-3.4s-22.03,19.75-22.03,19.75c0,0-94.76,4.8-129.5,2.2s-129.2,1.89-129.2,1.89c0,0-71.04-.25-86.14-3.37s-36.2-4.4-30.31-13.07Z"/><path class="cls-2" d="m-132.51,279.08s12.1-7.28,74.57-4.46c62.47,2.82,82.86,0,82.86,0,0,0,52.13-7.59,68.83-1.51,16.7,6.09,93.61,1.97,93.61,1.97,0,0,53-7.72,77.31-3.4,24.31,4.32-22.03,19.75-22.03,19.75,0,0-94.76,4.8-129.5,2.2s-129.2,1.89-129.2,1.89c0,0-71.04-.25-86.14-3.37-15.1-3.12-36.2-4.4-30.31-13.07Z"/><path class="cls-24" d="m1240.5,460.19s13.94-10.54,85.88-6.46,95.42,0,95.42,0c0,0,60.03-10.99,79.26-2.18,19.23,8.81,107.8,2.85,107.8,2.85,0,0,61.04-11.18,89.03-4.92,27.99,6.25-25.37,28.59-25.37,28.59,0,0-109.13,6.96-149.14,3.19s-148.79,2.74-148.79,2.74c0,0-81.81-.37-99.2-4.88-17.39-4.51-41.69-6.37-34.9-18.93Z"/><polygon class="cls-2" points="757.33 947.63 1037.32 809.45 707.82 716.72 1117.02 627.63 812.01 538.54 1048.01 386.17 753.26 204.17 955.01 382.17 577.4 575.07 828.01 618.17 561.01 700.17 774.41 842.76 584.01 958.17 784.7 1100 911.65 1100 757.33 947.63"/><path class="cls-24" d="m286.14,375.72s13.94-15.18,85.88-9.3,95.42,0,95.42,0c0,0,60.03-15.82,79.26-3.14,19.23,12.68,107.8,4.11,107.8,4.11,0,0,61.04-16.09,89.03-7.09,27.99,9-25.37,41.15-25.37,41.15,0,0-109.13,10.01-149.14,4.59s-148.79,3.94-148.79,3.94c0,0-81.81-.53-99.2-7.03-17.39-6.5-41.69-9.16-34.9-27.24Z"/><path class="cls-16" d="m302.41,198.8s9.86-19.59,8.4-44.13c0,0-12.65-7.01-15.87-2.72-3.21,4.3-10.58,9.88-13.56,8.78s-7.93.87-7.93.87c0,0-9.66-2.48-2.5-4.48s11.75-1.12,11.75-1.12c0,0,10.5-5.45,10.2-8.97s-10.24-4.79-10.24-4.79c0,0-8.09-1.2-7.68-7.03s-6.68-7.69-6.68-7.69c0,0-2.33-5.88,4.89-3.45,7.22,2.43,7.68,9.7,7.68,9.7,0,0,1.29,4.33,8.58,5.46,7.29,1.13,9.33,5.67,9.33,5.67,0,0,8.92,3.75,5.37-1.89s-3.33-7.81-3.33-7.81c0,0-3.53-5.13-7.68-4.67s-6.4-7.62-6.4-7.62c0,0-.94-6.96,4.09-2.69s3.07,3.84,3.07,3.84c0,0,10.4,2.06,11.77,4.62s5.26,12.57,5.26,12.57c0,0,3.11,3.76,3.69,0s4.61-11.73,4.61-11.73c0,0,3.59-9.32,0-9.3s-.77-4.37-.77-4.37c0,0,5.88-5.52,8.19,0s0,12.83,0,12.83c0,0-1.68,12.09-5.63,15.57s2.56,2.76,2.56,2.76l9.72-9.71s3.19-15.42,7.17-13.24,2.05,5.46,2.05,5.46c0,0,.9,6.74-2.82,11.73s-9.72,10.04-9.72,10.04l-6.4,4.8s-10.39,45.11,2.56,42.69c0,0-26.55,11.68-23.76,0Z"/><ellipse class="cls-2" cx="1667.13" cy="927.75" rx="27.21" ry="13.24"/><path class="cls-9" d="m1663.28,925.14s-45.33-7.82-41.33-58.49c0,0,10.88,45.66,42.75,50.08l-1.42,8.41Z"/><path class="cls-9" d="m1661.97,929.33s-45.81,2.08-50.27-48.54c0,0,18.24,42.5,50.27,39.97v8.57Z"/><path class="cls-9" d="m1665.91,930.3s-41.98-21.02-26.54-68.75c0,0,.07,47.32,29.83,61.05l-3.29,7.7Z"/><path class="cls-9" d="m1670.56,929.4s45.31-7.96,41.19-58.62c0,0-10.77,45.7-42.63,50.21l1.44,8.41Z"/><path class="cls-9" d="m1663.36,929.8s43.21-17.47,30.86-66.36c0,0-3.09,47.19-33.65,58.41l2.79,7.96Z"/><path class="cls-9" d="m1652.01,929.11s43.21-17.47,30.86-66.36c0,0-3.09,47.19-33.65,58.41l2.79,7.96Z"/><path class="cls-9" d="m1651.38,928s39.33-26.86,18.76-72.01c0,0,5.14,46.95-22.87,64.84l4.11,7.17Z"/><path class="cls-9" d="m1675.35,927.99s-41.98-21.02-26.54-68.75c0,0,.07,47.32,29.83,61.05l-3.29,7.7Z"/><ellipse class="cls-9" cx="1661.67" cy="918.39" rx="19.15" ry="13.29"/><ellipse class="cls-2" cx="1206.44" cy="217.41" rx="13.68" ry="7.59"/><path class="cls-9" d="m1204.5,215.92s-22.8-4.48-20.78-33.5c0,0,5.47,26.15,21.5,28.68l-.71,4.82Z"/><path class="cls-9" d="m1203.85,218.31s-23.04,1.19-25.28-27.8c0,0,9.17,24.34,25.28,22.89v4.91Z"/><path class="cls-9" d="m1205.83,218.87s-21.11-12.04-13.35-39.37c0,0,.04,27.1,15,34.96l-1.66,4.41Z"/><path class="cls-9" d="m1208.16,218.35s22.79-4.56,20.71-33.57c0,0-5.42,26.17-21.44,28.75l.72,4.82Z"/><path class="cls-9" d="m1204.54,218.59s21.73-10.01,15.52-38.01c0,0-1.56,27.02-16.92,33.45l1.4,4.56Z"/><path class="cls-9" d="m1198.84,218.19s21.73-10.01,15.52-38.01c0,0-1.56,27.02-16.92,33.45l1.4,4.56Z"/><path class="cls-9" d="m1198.52,217.55s19.78-15.39,9.43-41.24c0,0,2.59,26.89-11.5,37.13l2.07,4.11Z"/><path class="cls-9" d="m1210.58,217.55s-21.11-12.04-13.35-39.37c0,0,.04,27.1,15,34.96l-1.66,4.41Z"/><ellipse class="cls-9" cx="1203.69" cy="212.05" rx="9.63" ry="7.61"/><ellipse class="cls-2" cx="836.53" cy="381.41" rx="18.41" ry="9.59"/><path class="cls-9" d="m833.92,379.52s-30.68-5.66-27.97-42.34c0,0,7.36,33.05,28.93,36.25l-.96,6.09Z"/><path class="cls-9" d="m833.03,382.55s-31,1.51-34.02-35.13c0,0,12.35,30.76,34.02,28.93v6.2Z"/><path class="cls-9" d="m835.7,383.26s-28.41-15.21-17.96-49.76c0,0,.05,34.25,20.19,44.19l-2.23,5.58Z"/><path class="cls-9" d="m838.84,382.6s30.67-5.76,27.88-42.43c0,0-7.29,33.07-28.85,36.34l.97,6.09Z"/><path class="cls-9" d="m833.97,382.89s29.24-12.65,20.89-48.03c0,0-2.09,34.15-22.78,42.27l1.89,5.76Z"/><path class="cls-9" d="m826.29,382.39s29.24-12.65,20.89-48.03c0,0-2.09,34.15-22.78,42.27l1.89,5.76Z"/><path class="cls-9" d="m825.86,381.59s26.62-19.44,12.69-52.12c0,0,3.48,33.98-15.48,46.93l2.78,5.19Z"/><path class="cls-9" d="m842.09,381.58s-28.41-15.21-17.96-49.76c0,0,.05,34.25,20.19,44.19l-2.23,5.58Z"/><ellipse class="cls-9" cx="832.83" cy="374.63" rx="12.96" ry="9.62"/><ellipse class="cls-2" cx="217.29" cy="208.77" rx="13.92" ry="21.33" transform="translate(-48.7 350.37) rotate(-71.88)"/><ellipse class="cls-2" cx="191.81" cy="672.86" rx="36.49" ry="15.29"/><path class="cls-9" d="m186.64,669.85s-60.81-9.03-55.44-67.55c0,0,14.59,52.73,57.34,57.83l-1.9,9.72Z"/><path class="cls-9" d="m184.89,674.68s-61.45,2.4-67.43-56.06c0,0,24.47,49.08,67.43,46.16v9.9Z"/><path class="cls-9" d="m190.17,675.81s-56.31-24.27-35.6-79.39c0,0,.1,54.64,40.02,70.5l-4.42,8.9Z"/><path class="cls-9" d="m196.4,674.76s60.78-9.19,55.25-67.69c0,0-14.45,52.77-57.18,57.98l1.93,9.71Z"/><path class="cls-9" d="m186.74,675.23s57.96-20.18,41.4-76.64c0,0-4.15,54.49-45.14,67.45l3.74,9.19Z"/><path class="cls-9" d="m171.53,674.43s57.96-20.18,41.4-76.64c0,0-4.15,54.49-45.14,67.45l3.74,9.19Z"/><path class="cls-9" d="m170.67,673.15s52.76-31.02,25.16-83.15c0,0,6.9,54.22-30.68,74.87l5.52,8.28Z"/><path class="cls-9" d="m202.83,673.14s-56.31-24.27-35.6-79.39c0,0,.1,54.64,40.02,70.5l-4.42,8.9Z"/><ellipse class="cls-9" cx="184.48" cy="662.05" rx="25.69" ry="15.35"/><path class="cls-16" d="m228.81,203.2s-12.35-29.43-10.53-66.28c0,0,15.85-10.53,19.87-4.08,4.03,6.45,13.26,14.85,16.99,13.18s7.17,2.02,9.94,1.31,12.1-3.73,3.13-6.73c-8.97-3-14.72-1.69-14.72-1.69,0,0-13.15-8.18-12.77-13.48s12.82-7.19,12.82-7.19c0,0,10.13-1.8,9.62-10.55-.51-8.76,8.36-11.55,8.36-11.55,0,0,2.92-8.82-6.12-5.17s-9.62,14.58-9.62,14.58c0,0-1.61,6.5-10.75,8.21s-11.69,8.52-11.69,8.52c0,0-11.17,5.63-6.73-2.85s4.17-11.73,4.17-11.73c0,0,4.42-7.7,9.62-7.01,5.19.69,8.01-11.44,8.01-11.44,0,0-.48-5.33-5.13-4.04s-3.85,5.77-3.85,5.77c0,0-13.03,3.1-14.74,6.94s-6.59,18.88-6.59,18.88c0,0-3.89,5.65-4.62,0-.73-5.65-5.77-17.62-5.77-17.62,0,0-.1-14,0-13.97s1.01-6.47.96-6.57-9.1-11.84-10.26,0c-1.16,11.84-2.29,14.98,0,19.28s7.14,23.41,7.05,23.39-3.21,4.14-3.21,4.14c0,0-12.26-14.53-12.18-14.58s-1.39-17.51-8.97-19.89-7.08,3.06-2.56,8.2-1.13,10.13,3.53,17.62,12.18,15.08,12.18,15.08c0,0,10.38,3.21,8.01,7.2s-3.23,64.12-3.21,64.13,33.26,17.55,29.76,0Z"/><path class="cls-7" d="m1411.27,183.38v276.93l109.06,157.75s15.86,128.53-69.4,261.74c-85.27,133.21-839.62,0-839.62,0l-36.87-53.75s-53.54-4.67-61.47-35.05c-7.93-30.38,7.93-287.45-85.27-355.22-93.2-67.77,83.29-273.42,83.29-273.42,0,0,479.89-28.04,900.28,21.03Z"/><path class="cls-6" d="m1379.24,148.49v276.93l109.06,157.75s15.86,128.53-69.4,261.74c-85.27,133.21-839.62,0-839.62,0l-36.87-53.75s-53.54-4.67-61.47-35.05c-7.93-30.38,7.93-287.45-85.27-355.22-93.2-67.77,83.29-273.42,83.29-273.42,0,0,479.89-28.04,900.28,21.03Z"/><path class="cls-4" d="m1034.58,476.82l-.78,9.35h-29.25l-.78-9.35h30.81Zm-1.25,15.68l-.82,9.59h-26.67l-.7-9.59h28.19Z"/><path class="cls-4" d="m1084.75,457.51c-.18,5.48-.46,15.22-.82,29.22-.13,6.99-.26,17.96-.39,32.93h-17.4c.05-8.3-.03-16.03-.23-23.17-.05-2.1-.18-7.76-.39-17.01-.44.08-1.41.3-2.89.65-.78.19-1.71.5-2.78.93l-3.71-13.54c2.95-1.29,8.16-3.72,15.64-7.29,2.32-1.15,5.38-2.79,9.19-4.92l3.79,2.22Z"/><path class="cls-4" d="m1156.97,482.1c0,7.63-2.37,13.74-7.1,18.32-4.73,4.58-11.01,6.87-18.83,6.87l-.47,12.29h-21.54l-1.13-30.03c-.34-7.74-.87-18.36-1.6-31.88,4.07-.83,10.02-1.25,17.87-1.25,9.57,0,17.23,1.98,22.99,5.92,6.54,4.49,9.81,11.07,9.81,19.75Zm-16.23,6.77c0-4.19-2.41-6.29-7.23-6.29-.57,0-1.16.04-1.76.12l-.39,14.11c6.26-.21,9.38-2.86,9.38-7.94Z"/><path class="cls-4" d="m1211.98,487.3c0,9.48-2.37,17.5-7.12,24.06-4.98,6.85-11.35,10.28-19.12,10.28s-14.48-3.45-19.43-10.36c-4.67-6.5-7-14.5-7-23.98,0-10.13,2.54-18.08,7.62-23.86,4.8-5.43,11.07-8.14,18.81-8.14s13.82,2.73,18.61,8.18c5.08,5.8,7.62,13.74,7.62,23.82Zm-18.81,7.09c0-7.47-2.45-11.2-7.35-11.2s-7.16,3.76-7.16,11.28c0,3.01.63,5.82,1.88,8.42,1.41,2.93,3.14,4.39,5.2,4.39s3.78-1.49,5.32-4.47c1.41-2.71,2.11-5.52,2.11-8.42Z"/><path class="cls-4" d="m1242.09,457.67l-1.53,32.93c-.29,7.09-.62,16.75-1.02,28.98h-21.94l-2.66-61.9h27.14Z"/><path class="cls-4" d="m1293.35,457.67c-.37,5.43-.87,14.9-1.53,28.41-.39,9.94-.72,21.37-.98,34.3-3.42-2.77-8.62-6.89-15.6-12.37-3.02-2.18-7.53-5.44-13.53-9.79l-.39,21.36h-12.59c-.21-5.45-.69-15.74-1.45-30.87-.65-12.25-1.32-22.6-1.99-31.03h19.63l14.55,14.19c0-3.25-.05-5.8-.16-7.66-.08-1.64-.23-3.81-.47-6.53h14.51Z"/><path class="cls-4" d="m1344.3,457.67l-1.13,25.35c-1.02-.16-2.65-.36-4.89-.6-1.38-.08-3.62-.16-6.73-.24-.16,1.59-.43,5.41-.82,11.49-.29,5.88-.76,14.52-1.41,25.91h-18.92c-.21-5.43-.6-13.96-1.17-25.59-.26-4.03-.53-7.97-.82-11.81l-6.18.24-5.59.6-.98-25.35h48.64Z"/><path class="cls-4" d="m1047.62,725.16l-.78,9.35h-29.25l-.78-9.35h30.81Zm-1.25,15.68l-.82,9.59h-26.67l-.7-9.59h28.19Z"/><path class="cls-4" d="m1103.85,722.94c0,8.44-5.84,19.68-17.52,33.73h6.65c1.02,0,2.67-.11,4.97-.32.89-.08,2.08-.24,3.6-.48-.37,1.18-.92,3.16-1.68,5.92-.37,1.42-.87,3.47-1.53,6.13h-25.22l-1.76-4.11c3.91-7.04,6.59-12.35,8.05-15.92,1.93-4.73,2.89-8.95,2.89-12.66,0-2.63-.78-4.65-2.35-6.05-1.3-1.15-2.84-1.73-4.61-1.73s-3.4.42-5.04,1.25l1.84-21.68c3.91-1.45,8.08-2.18,12.51-2.18,5.81,0,10.47,1.66,13.96,4.98,3.49,3.32,5.24,7.69,5.24,13.12Z"/><path class="cls-4" d="m1173.61,730.44c0,7.63-2.37,13.74-7.1,18.32-4.73,4.58-11.01,6.87-18.83,6.87l-.47,12.29h-21.54l-1.13-30.03c-.34-7.74-.87-18.36-1.6-31.88,4.07-.83,10.02-1.25,17.87-1.25,9.57,0,17.23,1.98,22.99,5.92,6.54,4.49,9.81,11.07,9.81,19.75Zm-16.23,6.77c0-4.19-2.41-6.29-7.23-6.29-.57,0-1.16.04-1.76.12l-.39,14.11c6.26-.21,9.38-2.86,9.38-7.94Z"/><path class="cls-4" d="m1228.62,735.64c0,9.48-2.37,17.5-7.12,24.06-4.98,6.85-11.35,10.28-19.12,10.28s-14.48-3.45-19.43-10.36c-4.67-6.5-7-14.5-7-23.98,0-10.13,2.54-18.08,7.62-23.86,4.8-5.43,11.07-8.14,18.81-8.14s13.82,2.73,18.61,8.18c5.08,5.8,7.62,13.74,7.62,23.82Zm-18.81,7.09c0-7.47-2.45-11.2-7.35-11.2s-7.16,3.76-7.16,11.28c0,3.01.63,5.82,1.88,8.42,1.41,2.93,3.14,4.39,5.2,4.39s3.78-1.49,5.32-4.47c1.41-2.71,2.11-5.52,2.11-8.42Z"/><path class="cls-4" d="m1258.73,706.02l-1.53,32.93c-.29,7.09-.62,16.75-1.02,28.98h-21.94l-2.66-61.9h27.14Z"/><path class="cls-4" d="m1309.99,706.02c-.37,5.43-.87,14.9-1.53,28.41-.39,9.94-.72,21.37-.98,34.3-3.42-2.77-8.62-6.89-15.6-12.37-3.02-2.18-7.53-5.44-13.53-9.79l-.39,21.36h-12.59c-.21-5.45-.69-15.74-1.45-30.87-.65-12.25-1.32-22.6-1.99-31.03h19.63l14.55,14.19c0-3.25-.05-5.8-.16-7.66-.08-1.64-.23-3.81-.47-6.53h14.51Z"/><path class="cls-4" d="m1360.94,706.02l-1.13,25.35c-1.02-.16-2.65-.36-4.89-.6-1.38-.08-3.62-.16-6.73-.24-.16,1.59-.43,5.41-.82,11.49-.29,5.88-.76,14.52-1.41,25.91h-18.92c-.21-5.43-.6-13.96-1.17-25.59-.26-4.03-.53-7.97-.82-11.81l-6.18.24-5.59.6-.98-25.35h48.64Z"/><path class="cls-4" d="m1042.62,248.49l-.78,9.35h-29.25l-.78-9.35h30.81Zm-1.25,15.68l-.82,9.59h-26.67l-.7-9.59h28.19Z"/><path class="cls-4" d="m1091.89,264.78l-1.76,12.29h-19.94l-1.92-12.29h23.62Z"/><path class="cls-4" d="m1126.02,229.19c-.18,5.48-.46,15.22-.82,29.22-.13,6.99-.26,17.96-.39,32.93h-17.4c.05-8.3-.03-16.03-.23-23.17-.05-2.1-.18-7.76-.39-17.01-.44.08-1.41.3-2.89.65-.78.19-1.71.5-2.78.93l-3.71-13.54c2.95-1.29,8.16-3.72,15.64-7.29,2.32-1.15,5.38-2.79,9.19-4.92l3.79,2.22Z"/><path class="cls-4" d="m1188.15,279.04c-.26,1.08-.74,3.1-1.45,6.09-.37,1.75-.68,3.79-.94,6.13h-35.39c-.13-6.31-.46-16.71-.98-31.19-.34-7.42-.95-17.65-1.84-30.71h27.14l-2.23,51.35c2.53,0,6.32-.28,11.38-.85,1.04-.11,2.48-.38,4.3-.81Z"/><path class="cls-4" d="m1217.13,229.35l-1.53,32.93c-.29,7.09-.62,16.75-1.02,28.98h-21.94l-2.66-61.9h27.14Z"/><path class="cls-4" d="m1270.7,229.35c-2.16,6.61-5.63,17.4-10.4,32.36-2.19,7.04-5.02,16.89-8.49,29.54h-13.61c-1.75-6.13-4.67-16.13-8.76-30.03-2.32-7.68-5.76-18.31-10.32-31.88h27.64c.26,2.55.87,6.7,1.84,12.45.65,3.06,1.67,7.28,3.05,12.65.73-2.61,1.8-6.85,3.21-12.74.65-3.17,1.39-7.29,2.23-12.37h13.61Z"/><ellipse class="cls-1" cx="725.58" cy="470.08" rx="74.26" ry="83.6"/><path class="cls-1" d="m664.87,479.95l-35.79-26.38-36.85,65.41s-.88,7.62-4.72,6.96c-3.83-.66-15.28-3.21-15.28-3.21,0,0-9.47-2.43-4.76-7.41,4.72-4.98,8.84-2.65,8.84-2.65l5.01,1.33,38.9-70.99s4.45-10.81,8.86-8.39c4.4,2.42,39.44,26.06,39.44,26.06l8.58,4.88-4.36,14.56-7.87-.17Z"/><path class="cls-1" d="m676.47,446.21l-46.2-22.8-47.58,56.55s-1.14,6.59-6.09,6.01-19.73-2.77-19.73-2.77c0,0-6.06-1.52-6.14-6.4-.08-4.89,11.41-2.29,11.41-2.29l6.47,1.15,50.22-61.37s5.75-9.34,11.43-7.25,50.92,22.53,50.92,22.53l11.07,4.22-5.63,12.59-10.16-.15Z"/><path class="cls-1" d="m782.04,446.21l46.2-22.8,47.58,56.55s1.14,6.59,6.09,6.01,19.73-2.77,19.73-2.77c0,0,6.06-1.52,6.14-6.4s-11.41-2.29-11.41-2.29l-6.47,1.15-50.22-61.37s-5.75-9.34-11.43-7.25c-5.69,2.09-50.92,22.53-50.92,22.53l-11.07,4.22,5.63,12.59,10.16-.15Z"/><path class="cls-1" d="m790.71,479.99l35.79-26.38,36.85,65.41s.88,7.62,4.72,6.96c3.83-.66,15.28-3.21,15.28-3.21,0,0,9.47-2.43,4.76-7.41-4.72-4.98-8.84-2.65-8.84-2.65l-5.01,1.33-38.9-70.99s-4.45-10.81-8.86-8.39-39.44,26.06-39.44,26.06l-8.58,4.88,4.36,14.56,7.87-.17Z"/><path class="cls-1" d="m774.35,529.63l44.2-61.38s4.13-8.96,8.25-5.31c4.13,3.65,5.16,8.96,5.16,8.96l16.99,57.73h12.1s6.13.66,4.65,4.64c-1.47,3.98-5.18,5.62-5.18,5.62h-20s-6.65-2.3-5.18-7.61c1.47-5.31-10.61-48.6-10.61-48.6l-28.59,43.93-21.81,2.02Z"/><path class="cls-1" d="m687.14,533.5l-44.2-61.38s-4.13-8.96-8.25-5.31-5.16,8.96-5.16,8.96l-16.99,57.73h-12.1s-6.13.66-4.65,4.64,5.18,5.62,5.18,5.62h20s6.65-2.3,5.18-7.61,10.61-48.6,10.61-48.6l28.59,43.93,21.81,2.02Z"/><path class="cls-1" d="m727.2,389.3s21.37,1.04,35.07,9.89-29.32,51.81-29.32,51.81c0,0-7.37,8.79-7.66,0-.29-8.79,1.92-61.7,1.92-61.7Z"/><path class="cls-1" d="m727.64,389.35s-21.37,1.04-35.07,9.89c-13.7,8.85,29.32,51.81,29.32,51.81,0,0,7.37,8.79,7.66,0,.29-8.79-1.92-61.7-1.92-61.7Z"/><path class="cls-1" d="m752.8,536.56l52.46-35.33s11.49-8.29,11.64,0-9.87,16.59-9.87,16.59l-58.02,36.56,3.8-17.81Z"/><path class="cls-1" d="m708.45,410.76l-2.35,10.75s-21.59,6.85-30.5,19.44c-8.9,12.59-9.67-.79-9.67-.79,0,0,6.61-15.88,42.51-29.4Z"/><path class="cls-1" d="m719.56,426.09l-2.35,10.75s-21.59,6.85-30.5,19.44c-8.9,12.59-9.67-.79-9.67-.79,0,0,6.61-15.88,42.51-29.4Z"/><path class="cls-1" d="m736.06,437.04l-2.35,10.75s-21.59,6.85-30.5,19.44c-8.9,12.59-9.67-.79-9.67-.79,0,0,6.61-15.88,42.51-29.4Z"/><path class="cls-1" d="m748.95,410.83l2.35,10.75s21.59,6.85,30.5,19.44c8.9,12.59,9.67-.79,9.67-.79,0,0-6.61-15.88-42.51-29.4Z"/><path class="cls-1" d="m737.75,426.09l2.35,10.75s21.59,6.85,30.5,19.44c8.9,12.59,9.67-.79,9.67-.79,0,0-6.61-15.88-42.51-29.4Z"/><path class="cls-1" d="m720.36,434.38l2.35,10.75s21.59,6.85,30.5,19.44c8.9,12.59,9.67-.79,9.67-.79,0,0-6.61-15.88-42.51-29.4Z"/><path class="cls-1" d="m705.39,536.69l-52.46-35.33s-11.49-8.29-11.64,0c-.15,8.29,9.87,16.59,9.87,16.59l58.02,36.56-3.8-17.81Z"/><ellipse class="cls-1" cx="726.76" cy="533.61" rx="35.07" ry="39.31"/><path class="cls-1" d="m700.26,540.13l-52.46-35.33s-11.49-8.29-11.64,0c-.15,8.29,0,57.89,0,57.89h-10.9s-4.86,2.16-3.39,5.47l1.47,3.32h20.71c5.52-4.31,1.98-8.63,1.98-8.63v-41.47s58.02,36.56,58.02,36.56l-3.8-17.81Z"/><ellipse class="cls-1" cx="726.91" cy="544.06" rx="35.07" ry="39.31"/><ellipse class="cls-1" cx="734.42" cy="537.42" rx="7.07" ry="8.63"/><ellipse class="cls-1" cx="717.92" cy="537.42" rx="7.07" ry="8.63"/><ellipse class="cls-1" cx="748.86" cy="528.84" rx="4.72" ry="5.27"/><ellipse class="cls-1" cx="704.07" cy="528.88" rx="4.72" ry="5.27"/><ellipse class="cls-1" cx="734.42" cy="537.32" rx="3.24" ry="3.75"/><ellipse class="cls-1" cx="717.92" cy="537.51" rx="3.24" ry="3.75"/><path class="cls-1" d="m718.79,553.84s5.94,10.82,13.86,0c0,0-7.18-2.33-13.86,0Z"/><path class="cls-1" d="m758.44,540.08l52.46-35.33s11.49-8.29,11.64,0c.15,8.29,0,57.89,0,57.89h10.9s4.86,2.16,3.39,5.47l-1.47,3.32h-20.71c-5.52-4.31-1.98-8.63-1.98-8.63v-41.47l-58.02,36.56,3.8-17.81Z"/><ellipse class="cls-20" cx="725.52" cy="474.92" rx="74.26" ry="83.6"/><path class="cls-20" d="m664.81,484.79l-35.79-26.38-36.85,65.41s-.88,7.62-4.72,6.96c-3.83-.66-15.28-3.21-15.28-3.21,0,0-9.47-2.43-4.76-7.41s8.84-2.65,8.84-2.65l5.01,1.33,38.9-70.99s4.45-10.81,8.86-8.39c4.4,2.42,39.44,26.06,39.44,26.06l8.58,4.88-4.36,14.56-7.87-.17Z"/><path class="cls-20" d="m676.41,451.05l-46.2-22.8-47.58,56.55s-1.14,6.59-6.09,6.01-19.73-2.77-19.73-2.77c0,0-6.06-1.52-6.14-6.4s11.41-2.29,11.41-2.29l6.47,1.15,50.22-61.37s5.75-9.34,11.43-7.25c5.69,2.09,50.92,22.53,50.92,22.53l11.07,4.22-5.63,12.59-10.16-.15Z"/><path class="cls-20" d="m781.98,451.05l46.2-22.8,47.58,56.55s1.14,6.59,6.09,6.01c4.95-.57,19.73-2.77,19.73-2.77,0,0,6.06-1.52,6.14-6.4s-11.41-2.29-11.41-2.29l-6.47,1.15-50.22-61.37s-5.75-9.34-11.43-7.25-50.92,22.53-50.92,22.53l-11.07,4.22,5.63,12.59,10.16-.15Z"/><path class="cls-20" d="m790.65,484.82l35.79-26.38,36.85,65.41s.88,7.62,4.72,6.96,15.28-3.21,15.28-3.21c0,0,9.47-2.43,4.76-7.41-4.72-4.98-8.84-2.65-8.84-2.65l-5.01,1.33-38.9-70.99s-4.45-10.81-8.86-8.39-39.44,26.06-39.44,26.06l-8.58,4.88,4.36,14.56,7.87-.17Z"/><path class="cls-20" d="m774.29,534.47l44.2-61.38s4.13-8.96,8.25-5.31,5.16,8.96,5.16,8.96l16.99,57.73h12.1s6.13.66,4.65,4.64c-1.47,3.98-5.18,5.62-5.18,5.62h-20s-6.65-2.3-5.18-7.61c1.47-5.31-10.61-48.6-10.61-48.6l-28.59,43.93-21.81,2.02Z"/><path class="cls-20" d="m687.08,538.34l-44.2-61.38s-4.13-8.96-8.25-5.31c-4.13,3.65-5.16,8.96-5.16,8.96l-16.99,57.73h-12.1s-6.13.66-4.65,4.64c1.47,3.98,5.18,5.62,5.18,5.62h20s6.65-2.3,5.18-7.61c-1.47-5.31,10.61-48.6,10.61-48.6l28.59,43.93,21.81,2.02Z"/><path class="cls-23" d="m727.14,394.14s21.37,1.04,35.07,9.89c13.7,8.85-29.32,51.81-29.32,51.81,0,0-7.37,8.79-7.66,0-.29-8.79,1.92-61.7,1.92-61.7Z"/><path class="cls-23" d="m727.58,394.18s-21.37,1.04-35.07,9.89c-13.7,8.85,29.32,51.81,29.32,51.81,0,0,7.37,8.79,7.66,0s-1.92-61.7-1.92-61.7Z"/><path class="cls-23" d="m752.74,541.39l52.46-35.33s11.49-8.29,11.64,0c.15,8.29-9.87,16.59-9.87,16.59l-58.02,36.56,3.8-17.81Z"/><path class="cls-23" d="m708.39,415.6l-2.35,10.75s-21.59,6.85-30.5,19.44c-8.9,12.59-9.67-.79-9.67-.79,0,0,6.61-15.88,42.51-29.4Z"/><path class="cls-23" d="m719.5,430.93l-2.35,10.75s-21.59,6.85-30.5,19.44c-8.9,12.59-9.67-.79-9.67-.79,0,0,6.61-15.88,42.51-29.4Z"/><path class="cls-23" d="m736,441.87l-2.35,10.75s-21.59,6.85-30.5,19.44c-8.9,12.59-9.67-.79-9.67-.79,0,0,6.61-15.88,42.51-29.4Z"/><path class="cls-23" d="m748.89,415.67l2.35,10.75s21.59,6.85,30.5,19.44c8.9,12.59,9.67-.79,9.67-.79,0,0-6.61-15.88-42.51-29.4Z"/><path class="cls-23" d="m737.69,430.93l2.35,10.75s21.59,6.85,30.5,19.44c8.9,12.59,9.67-.79,9.67-.79,0,0-6.61-15.88-42.51-29.4Z"/><path class="cls-23" d="m720.3,439.22l2.35,10.75s21.59,6.85,30.5,19.44c8.9,12.59,9.67-.79,9.67-.79,0,0-6.61-15.88-42.51-29.4Z"/><path class="cls-23" d="m705.33,541.53l-52.46-35.33s-11.49-8.29-11.64,0,9.87,16.59,9.87,16.59l58.02,36.56-3.8-17.81Z"/><ellipse class="cls-23" cx="726.7" cy="538.44" rx="35.07" ry="39.31"/><path class="cls-20" d="m700.2,544.96l-52.46-35.33s-11.49-8.29-11.64,0c-.15,8.29,0,57.89,0,57.89h-10.9s-4.86,2.16-3.39,5.47l1.47,3.32h20.71c5.52-4.31,1.98-8.63,1.98-8.63v-41.47s58.02,36.56,58.02,36.56l-3.8-17.81Z"/><ellipse class="cls-20" cx="726.85" cy="548.89" rx="35.07" ry="39.31"/><ellipse class="cls-8" cx="734.36" cy="542.26" rx="7.07" ry="8.63"/><ellipse class="cls-8" cx="717.86" cy="542.26" rx="7.07" ry="8.63"/><ellipse class="cls-8" cx="748.8" cy="533.68" rx="4.72" ry="5.27"/><ellipse class="cls-8" cx="704.01" cy="533.72" rx="4.72" ry="5.27"/><ellipse class="cls-5" cx="734.36" cy="542.16" rx="3.24" ry="3.75"/><ellipse class="cls-5" cx="717.86" cy="542.34" rx="3.24" ry="3.75"/><path class="cls-21" d="m718.73,558.68s5.94,10.82,13.86,0c0,0-7.18-2.33-13.86,0Z"/><path class="cls-20" d="m758.38,544.91l52.46-35.33s11.49-8.29,11.64,0c.15,8.29,0,57.89,0,57.89h10.9s4.86,2.16,3.39,5.47l-1.47,3.32h-20.71c-5.52-4.31-1.98-8.63-1.98-8.63v-41.47l-58.02,36.56,3.8-17.81Z"/><path class="cls-18" d="m894.19,780.01c.06,0-4.03-23.9,16.91-39.23,20.94-15.33,14.61-15.75,13.2-31.04-1.41-15.28,4.29-26.08,11.55-23.79,7.26,2.28,11.95,39.18,11.95,39.18,0,0,1.07,16.54-16.63,26.37-6.77,3.8-14.57,21.05-14.57,21.05,0,0-2.62,19.8-4.46,17.24"/><path class="cls-18" d="m749.86,839.98h164.48s17.76-1.83,18.13-17.34c.37-15.51-19.7-17.51-19.7-17.51h-162.91s-12.83,2.76-12.55,17.43c.28,14.67,12.55,17.43,12.55,17.43Z"/><path class="cls-18" d="m763.18,805.13h137.39s14.84-1.83,15.15-17.34c.31-15.51-16.46-17.51-16.46-17.51h-136.08s-10.72,2.76-10.49,17.43c.23,14.67,10.49,17.43,10.49,17.43Z"/><path class="cls-18" d="m777.11,770.28h106.13s11.46-1.83,11.7-17.34c.24-15.51-12.71-17.51-12.71-17.51h-105.12s-8.28,2.76-8.1,17.43,8.1,17.43,8.1,17.43Z"/><path class="cls-18" d="m814,735.55s-1.57-36.35,10.47-45.38c12.04-9.03,29.98,1.5,38.96-10.78,8.97-12.29-7.79-23.82-7.79-23.82h-54.71s-18.25,3.26-18.01-15.54c.24-18.8,16.76-14.79,16.76-14.79l56.48-.36s39.14-2.51,38.79,50.45c-.35,52.96-41.91,22.12-45.45,38.16-3.54,16.05-2.19,22.06-2.19,22.06h-33.31Z"/><path class="cls-22" d="m895.83,772.6c.05,0-2.31-22.06,16.46-34.85,18.77-12.79,13.34-13.54,12.87-27.58s4.96-23.57,11.1-21.06,8.38,36.48,8.38,36.48c0,0,.12,15.17-15.59,23.12-6.01,3.08-13.57,18.37-13.57,18.37,0,0-3.21,17.94-4.68,15.49"/><path class="cls-18" d="m745.23,843.05h173.49s18.74-1.94,19.12-18.37c.39-16.44-20.78-18.56-20.78-18.56h-171.84s-13.54,2.92-13.24,18.47c.29,15.55,13.24,18.47,13.24,18.47Z"/><path class="cls-18" d="m759.28,806.11h144.92s15.65-1.94,15.98-18.37c.33-16.44-17.36-18.56-17.36-18.56h-143.54s-11.31,2.92-11.06,18.47,11.06,18.47,11.06,18.47Z"/><path class="cls-18" d="m773.97,769.17h111.95s12.09-1.94,12.34-18.37c.25-16.44-13.41-18.56-13.41-18.56h-110.88s-8.73,2.92-8.55,18.47c.19,15.55,8.55,18.47,8.55,18.47Z"/><path class="cls-22" d="m810.09,733.73s-1.57-36.35,10.47-45.38c12.04-9.03,29.98,1.5,38.96-10.78s-7.79-23.82-7.79-23.82h-54.71s-18.25,3.26-18.01-15.54c.24-18.8,16.76-14.79,16.76-14.79l56.48-.36s39.14-2.51,38.79,50.45c-.35,52.96-41.91,22.12-45.45,38.16-3.54,16.05-2.19,22.06-2.19,22.06h-33.31Z"/><ellipse class="cls-14" cx="790.7" cy="629.05" rx="3.66" ry="3.89"/><path class="cls-3" d="m782.13,645.48s-5.4,4.72-13.93,3.9c-8.53-.82-19.64-3.1-19.64-3.1l-7.07-.79,2.95,2h-7.98l6.29,2s13.65,4.05,25.45,3.8c11.8-.25,18.71-4.6,18.71-4.6,0,0-4.79-3.16-4.79-3.2Z"/><ellipse class="cls-25" cx="783.38" cy="638.33" rx=".83" ry=".88"/><ellipse class="cls-5" cx="792.47" cy="628.93" rx="1.65" ry="1.76"/><path class="cls-22" d="m776.97,768.83h106.13s11.46-1.83,11.7-17.34c.24-15.51-12.71-17.51-12.71-17.51h-105.12s-8.28,2.76-8.1,17.43,8.1,17.43,8.1,17.43Z"/><path class="cls-22" d="m763.16,805.19h137.39s14.84-1.83,15.15-17.34c.31-15.51-16.46-17.51-16.46-17.51h-136.08s-10.72,2.76-10.49,17.43,10.49,17.43,10.49,17.43Z"/><path class="cls-22" d="m749.15,842.04h164.48s17.76-1.83,18.13-17.34-19.7-17.51-19.7-17.51h-162.91s-12.83,2.76-12.55,17.43c.28,14.67,12.55,17.43,12.55,17.43Z"/><path class="cls-15" d="m616.22,279.46h204.04s8.79-124.59-102.02-125.25c-110.81-.66-102.02,125.25-102.02,125.25Z"/><path class="cls-15" d="m621.47,290.74h162.21s6.99-104.28-81.11-104.83-81.11,104.83-81.11,104.83Z"/><ellipse class="cls-15" cx="596.24" cy="169" rx="13.45" ry="15.12"/><ellipse class="cls-15" cx="577.64" cy="169.69" rx="13.45" ry="15.12"/><path class="cls-15" d="m773.89,333.12s17.28,2.03,17.65-4.86c.37-6.89,0-57.38,0-57.38,0,0-13.13-21.71-23.66,0,0,0-6.01,28.66,0,53.56,0,0,.5,8.28,6.01,8.69Z"/><path class="cls-15" d="m620.59,334.14s17.28,2.03,17.65-4.86c.37-6.89,0-57.38,0-57.38,0,0-13.13-21.71-23.66,0,0,0-6.01,28.66,0,53.56,0,0,.5,8.28,6.01,8.69Z"/><path class="cls-15" d="m649.92,341.23s19.26,2.13,19.67-5.1c.41-7.23,0-60.21,0-60.21,0,0-14.64-22.78-26.37,0,0,0-6.7,30.08,0,56.2,0,0,.56,8.69,6.7,9.11Z"/><path class="cls-10" d="m773.08,234.19s24.14,7.64,46.5-11.86c22.36-19.5,26.97,6.48,9.4,14.38-17.57,7.9-36.57,19.73-61.89,19.42-25.33-.3,6-21.95,6-21.95Z"/><path class="cls-10" d="m622.81,330.23s16.9,1.92,17.26-4.61c.36-6.53,0-54.37,0-54.37,0,0-12.84-20.58-23.14,0,0,0-5.88,27.16,0,50.75,0,0,.49,7.85,5.88,8.23Z"/><path class="cls-10" d="m780.89,330.16s16.9,1.92,17.26-4.61c.36-6.53,0-54.37,0-54.37,0,0-12.84-20.58-23.14,0,0,0-5.88,27.16,0,50.75,0,0,.49,7.85,5.88,8.23Z"/><path class="cls-10" d="m618.16,289.17h200.64s8.64-132.55-100.32-133.25c-108.96-.7-100.32,133.25-100.32,133.25Z"/><path class="cls-10" d="m799.05,333.97s19.26,2.13,19.67-5.1c.41-7.23,0-60.21,0-60.21,0,0-14.64-22.78-26.37,0,0,0-6.7,30.08,0,56.2,0,0,.56,8.69,6.7,9.11Z"/><path class="cls-15" d="m660.6,171.59s56.85-38.34,115.01,0c0,0-23.97,34.07-57.5,34.75s-57.5-34.75-57.5-34.75Z"/><path class="cls-15" d="m804.76,203.82s-42.36,6.96-35.17,18.73c7.18,11.77,45.23,5.81,45.23,5.81l-10.06-24.54Z"/><path class="cls-15" d="m631.72,211.39s32.33-2.8,32.34,11.16c.02,13.96-40.53,13.14-40.53,13.14l8.19-24.3Z"/><ellipse class="cls-15" cx="602.77" cy="202.1" rx="37.62" ry="42.77"/><ellipse class="cls-10" cx="600.37" cy="201.92" rx="37.46" ry="42.23"/><ellipse class="cls-10" cx="575.8" cy="169.59" rx="11.15" ry="12.56"/><ellipse class="cls-10" cx="595.83" cy="169.19" rx="11.59" ry="13.14"/><ellipse class="cls-14" cx="595.52" cy="173.32" rx="7.12" ry="8.11"/><ellipse class="cls-14" cx="575.86" cy="173.41" rx="7.12" ry="8.11"/><path class="cls-10" d="m587.22,172.49h18.89s-.16-11.64-9.44-11.94c-9.28-.31-9.44,11.94-9.44,11.94Z"/><path class="cls-10" d="m565.77,172.51h18.89s-.16-13.08-9.44-13.42c-9.28-.34-9.44,13.42-9.44,13.42Z"/><ellipse class="cls-5" cx="595.53" cy="176" rx="2.46" ry="2.7"/><ellipse class="cls-5" cx="575.22" cy="175.95" rx="2.46" ry="2.7"/><path class="cls-21" d="m577.31,212.69s7.22,14.72,16.84,0c0,0-8.73-3.17-16.84,0Z"/><path class="cls-15" d="m718.48,244.87s61.32.69,48.6,11.26c-12.72,10.58-27.61,18.68-48.98,18.81-21.37.14-46.14-6.41-46.56-16.42-.42-10.01,46.94-13.65,46.94-13.65Z"/><path class="cls-15" d="m644.16,341.33s19.26,2.13,19.67-5.1c.41-7.23,0-60.21,0-60.21,0,0-14.64-22.78-26.37,0,0,0-6.7,30.08,0,56.2,0,0,.56,8.69,6.7,9.11Z"/><path class="cls-10" d="m647.29,338.93s19.26,2.13,19.67-5.1c.41-7.23,0-60.21,0-60.21,0,0-14.64-22.78-26.37,0,0,0-6.7,30.08,0,56.2,0,0,.56,8.69,6.7,9.11Z"/><path class="cls-15" d="m803.22,340.2s19.26,2.13,19.67-5.1c.41-7.23,0-60.21,0-60.21,0,0-14.64-22.78-26.37,0,0,0-6.7,30.08,0,56.2,0,0,.56,8.69,6.7,9.11Z"/><path class="cls-10" d="m776.11,329.2s16.9,1.92,17.26-4.61c.36-6.53,0-54.37,0-54.37,0,0-12.84-20.58-23.14,0,0,0-5.88,27.16,0,50.75,0,0,.49,7.85,5.88,8.23Z"/><path class="cls-15" d="m797.46,340.3s19.26,2.13,19.67-5.1c.41-7.23,0-60.21,0-60.21,0,0-14.64-22.78-26.37,0,0,0-6.7,30.08,0,56.2,0,0,.56,8.69,6.7,9.11Z"/><path class="cls-10" d="m800.59,337.91s19.26,2.13,19.67-5.1c.41-7.23,0-60.21,0-60.21,0,0-14.64-22.78-26.37,0,0,0-6.7,30.08,0,56.2,0,0,.56,8.69,6.7,9.11Z"/></svg>