<?xml version="1.0" encoding="UTF-8"?><svg id="Layer_1" xmlns="http://www.w3.org/2000/svg" width="300" height="300" viewBox="0 0 300 300"><defs><style>.cls-1{fill:#ebffd4;}.cls-1,.cls-2,.cls-3,.cls-4{stroke-width:0px;}.cls-2{fill:#e59f71;}.cls-3{fill:#ac7755;}.cls-4{fill:#59483a;}</style></defs><path class="cls-4" d="m-319.96,1619.37s99.34-307.9,84.69-693.52c0,0-127.51-110.2-159.9-42.69-32.39,67.51-106.67,155.34-136.69,137.94-30.02-17.4-57.66,21.12-79.95,13.74-22.29-7.37-97.38-39-25.17-70.42,72.21-31.42,118.43-17.67,118.43-17.67,0,0,105.84-85.63,102.75-141.01-3.09-55.38-103.16-75.26-103.16-75.26,0,0-81.5-18.8-77.37-110.42,4.13-91.62-67.3-120.83-67.3-120.83,0,0-23.48-92.33,49.25-54.14,72.73,38.19,77.37,152.5,77.37,152.5,0,0,12.98,68.05,86.49,85.87,73.51,17.82,94.04,89.13,94.04,89.13,0,0,89.85,58.89,54.16-29.78-35.69-88.67-33.53-122.74-33.53-122.74,0,0-35.59-80.58-77.37-73.34-41.78,7.25-64.47-119.72-64.47-119.72,0,0,3.88-55.81,41.26-42.28,37.38,13.53,30.95,60.36,30.95,60.36,0,0,104.81,32.43,118.63,72.62,13.82,40.19,53.05,197.51,53.05,197.51,0,0,31.33,59.12,37.21,0,5.88-59.12,46.42-184.35,46.42-184.35,0,0,.79-146.52,0-146.14s-8.15-67.67-7.74-68.73,73.23-123.91,82.53,0c9.29,123.91,18.45,156.73,0,201.71-18.45,44.98-57.48,244.98-56.74,244.73s25.79,43.3,25.79,43.3c0,0,98.63-152.02,98-152.59-.63-.58,11.21-183.16,72.21-208.07,61-24.9,56.98,32.04,20.63,85.78-36.35,53.74,9.08,106-28.37,184.35-37.45,78.35-98,157.81-98,157.81,0,0-83.5,33.59-64.47,75.38,19.02,41.79,26.03,670.92,25.79,670.97s-267.6,183.62-239.43,0Z"/><ellipse class="cls-3" cx="161.12" cy="149.06" rx="137.38" ry="143.06"/><ellipse class="cls-2" cx="137.88" cy="149.06" rx="137.38" ry="143.06"/><path class="cls-1" d="m217.48,100.46c0,10.08-5.21,20.15-15.63,30.22-3.33,3.17-13.19,10.83-29.59,22.97-16.41,12.15-24.61,19.97-24.61,23.46s1.16,6.66,3.49,9.26c-3.22.24-10.47,1.06-21.78,2.44-10.53,1.54-18.12,3.21-22.78,5-2.99-4.87-4.49-10.03-4.49-15.48,0-7.64,3.46-16.17,10.39-25.59,6.93-9.42,10.39-16.61,10.39-21.57,0-4.63-2.16-8.45-6.48-11.46-4.32-3-9.53-4.51-15.63-4.51-8.42,0-17.07,1.67-25.94,5l5.15-63.61c14.96-3.66,31.2-5.48,48.71-5.48,59.19,0,88.78,16.45,88.78,49.36Zm-48.71,124.3c0,6.34-3.71,11.68-11.14,16.02-7.43,4.35-15.96,6.52-25.6,6.52-10.42,0-19.43-2.17-27.02-6.52-7.59-4.35-11.39-9.77-11.39-16.27s3.68-11.96,11.06-16.15c7.37-4.18,16.49-6.28,27.35-6.28,9.98,0,18.51,2.07,25.6,6.21,7.42,4.39,11.14,9.87,11.14,16.45Z"/></svg>