<?xml version="1.0" encoding="UTF-8"?><svg id="Layer_1" xmlns="http://www.w3.org/2000/svg" width="1150" height="750" viewBox="0 0 1150 750"><defs><style>.cls-1{fill:#614b47;}.cls-1,.cls-2,.cls-3,.cls-4,.cls-5,.cls-6,.cls-7,.cls-8,.cls-9,.cls-10,.cls-11,.cls-12,.cls-13,.cls-14,.cls-15{stroke-width:0px;}.cls-2{fill:#e97600;}.cls-3{fill:#ebffd4;}.cls-5{fill:#e59f71;}.cls-6{fill:#ac7755;}.cls-7{fill:#fffbe9;}.cls-8{fill:#b1c87c;}.cls-9{fill:#fff;}.cls-10{fill:#85965d;}.cls-16{fill:#352600;stroke:#000;stroke-miterlimit:10;}.cls-11{fill:#996;}.cls-12{fill:#846d69;}.cls-13{fill:#352000;}.cls-14{fill:#b5b46d;}.cls-15{fill:#81645f;}</style></defs><path class="cls-6" d="m999.45,83.69v237.66l99.3,135.38s14.44,110.31-63.19,224.62c-77.63,114.32-764.43,0-764.43,0l-33.56-46.13s-48.75-4.01-55.97-30.08c-7.22-26.07,7.22-246.68-77.63-304.84-84.85-58.16,75.83-234.65,75.83-234.65,0,0,436.91-24.07,819.66,18.05Z"/><path class="cls-5" d="m970.29,53.74v237.66l99.3,135.38s14.44,110.31-63.19,224.62c-77.63,114.32-764.43,0-764.43,0l-33.56-46.13s-48.75-4.01-55.97-30.08c-7.22-26.07,7.22-246.68-77.63-304.84C-10.05,212.18,150.63,35.69,150.63,35.69c0,0,436.91-24.07,819.66,18.05Z"/><path class="cls-3" d="m656.5,335.51l-.71,8.02h-26.63l-.71-8.02h28.05Zm-1.14,13.45l-.75,8.23h-24.28l-.64-8.23h25.67Z"/><path class="cls-3" d="m702.17,318.94c-.17,4.7-.42,13.06-.75,25.08-.12,6-.24,15.41-.36,28.26h-15.84c.05-7.12-.02-13.75-.21-19.89-.05-1.8-.17-6.66-.36-14.6-.4.07-1.28.25-2.63.55-.71.16-1.55.43-2.53.8l-3.38-11.62c2.68-1.11,7.43-3.19,14.24-6.26,2.11-.99,4.9-2.4,8.37-4.22l3.45,1.9Z"/><path class="cls-3" d="m767.92,340.04c0,6.55-2.15,11.79-6.46,15.72-4.31,3.93-10.02,5.9-17.14,5.9l-.43,10.55h-19.62l-1.03-25.77c-.31-6.64-.8-15.76-1.46-27.36,3.7-.71,9.12-1.07,16.27-1.07,8.71,0,15.69,1.69,20.93,5.08,5.96,3.85,8.94,9.5,8.94,16.95Zm-14.77,5.81c0-3.6-2.2-5.4-6.59-5.4-.52,0-1.06.03-1.6.1l-.36,12.11c5.7-.18,8.54-2.46,8.54-6.81Z"/><path class="cls-3" d="m818.01,344.5c0,8.14-2.16,15.02-6.48,20.65-4.53,5.88-10.34,8.82-17.41,8.82s-13.18-2.96-17.69-8.89c-4.25-5.58-6.37-12.44-6.37-20.58,0-8.69,2.31-15.52,6.94-20.48,4.37-4.66,10.07-6.99,17.12-6.99s12.58,2.34,16.95,7.02c4.63,4.98,6.94,11.79,6.94,20.44Zm-17.12,6.09c0-6.41-2.23-9.62-6.69-9.62s-6.51,3.23-6.51,9.68c0,2.58.57,4.99,1.71,7.23,1.28,2.51,2.86,3.77,4.73,3.77s3.44-1.28,4.84-3.84c1.28-2.33,1.92-4.74,1.92-7.23Z"/><path class="cls-3" d="m845.42,319.08l-1.39,28.26c-.26,6.09-.57,14.38-.93,24.87h-19.97l-2.42-53.13h24.71Z"/><path class="cls-3" d="m892.09,319.08c-.33,4.66-.8,12.79-1.39,24.38-.36,8.53-.65,18.34-.89,29.43-3.11-2.38-7.84-5.91-14.2-10.62-2.75-1.87-6.86-4.67-12.32-8.4l-.36,18.33h-11.46c-.19-4.68-.63-13.51-1.32-26.49-.59-10.51-1.2-19.39-1.82-26.63h17.87l13.24,12.17c0-2.79-.05-4.98-.14-6.57-.07-1.41-.21-3.27-.43-5.6h13.21Z"/><path class="cls-3" d="m938.48,319.08l-1.03,21.76c-.93-.14-2.41-.31-4.45-.52-1.26-.07-3.3-.14-6.12-.21-.14,1.36-.39,4.65-.75,9.86-.26,5.05-.69,12.46-1.28,22.24h-17.23c-.19-4.66-.55-11.98-1.07-21.96-.24-3.46-.49-6.84-.75-10.13l-5.62.21-5.09.52-.89-21.76h44.29Z"/><path class="cls-3" d="m668.37,548.64l-.71,8.02h-26.63l-.71-8.02h28.05Zm-1.14,13.45l-.75,8.23h-24.28l-.64-8.23h25.67Z"/><path class="cls-3" d="m719.56,546.74c0,7.24-5.32,16.89-15.95,28.95h6.05c.93,0,2.43-.09,4.52-.28.81-.07,1.9-.21,3.28-.42-.33,1.02-.84,2.71-1.53,5.08-.33,1.22-.8,2.97-1.39,5.26h-22.96l-1.6-3.53c3.56-6.04,6-10.6,7.33-13.66,1.76-4.06,2.63-7.68,2.63-10.86,0-2.26-.71-3.99-2.14-5.19-1.19-.99-2.59-1.49-4.2-1.49s-3.1.36-4.59,1.07l1.67-18.61c3.56-1.25,7.36-1.87,11.39-1.87,5.29,0,9.53,1.42,12.71,4.27,3.18,2.85,4.77,6.6,4.77,11.26Z"/><path class="cls-3" d="m783.07,553.17c0,6.55-2.15,11.79-6.46,15.72-4.31,3.93-10.02,5.9-17.14,5.9l-.43,10.55h-19.62l-1.03-25.77c-.31-6.64-.8-15.76-1.46-27.36,3.7-.71,9.12-1.07,16.27-1.07,8.71,0,15.69,1.69,20.93,5.08,5.96,3.85,8.94,9.5,8.94,16.95Zm-14.77,5.81c0-3.6-2.2-5.4-6.59-5.4-.52,0-1.06.03-1.6.1l-.36,12.11c5.7-.18,8.54-2.46,8.54-6.81Z"/><path class="cls-3" d="m833.16,557.63c0,8.14-2.16,15.02-6.48,20.65-4.53,5.88-10.34,8.82-17.41,8.82s-13.18-2.96-17.69-8.89c-4.25-5.58-6.37-12.44-6.37-20.58,0-8.69,2.31-15.52,6.94-20.48,4.37-4.66,10.07-6.99,17.12-6.99s12.58,2.34,16.95,7.02c4.63,4.98,6.94,11.79,6.94,20.44Zm-17.12,6.09c0-6.41-2.23-9.62-6.69-9.62s-6.51,3.23-6.51,9.68c0,2.58.57,4.99,1.71,7.23,1.28,2.51,2.86,3.77,4.73,3.77s3.44-1.28,4.84-3.84c1.28-2.33,1.92-4.74,1.92-7.23Z"/><path class="cls-3" d="m860.57,532.21l-1.39,28.26c-.26,6.09-.57,14.38-.93,24.87h-19.97l-2.42-53.13h24.71Z"/><path class="cls-3" d="m907.24,532.21c-.33,4.66-.8,12.79-1.39,24.38-.36,8.53-.65,18.34-.89,29.43-3.11-2.38-7.84-5.91-14.2-10.62-2.75-1.87-6.86-4.67-12.32-8.4l-.36,18.33h-11.46c-.19-4.68-.63-13.51-1.32-26.49-.59-10.51-1.2-19.39-1.82-26.63h17.87l13.24,12.17c0-2.79-.05-4.98-.14-6.57-.07-1.41-.21-3.27-.43-5.6h13.21Z"/><path class="cls-3" d="m953.63,532.21l-1.03,21.76c-.93-.14-2.41-.31-4.45-.52-1.26-.07-3.3-.14-6.12-.21-.14,1.36-.39,4.65-.75,9.86-.26,5.05-.69,12.46-1.28,22.24h-17.23c-.19-4.66-.55-11.98-1.07-21.96-.24-3.46-.49-6.84-.75-10.13l-5.62.21-5.09.52-.89-21.76h44.29Z"/><path class="cls-3" d="m663.82,139.57l-.71,8.02h-26.63l-.71-8.02h28.05Zm-1.14,13.45l-.75,8.23h-24.28l-.64-8.23h25.67Z"/><path class="cls-3" d="m708.67,153.54l-1.6,10.55h-18.16l-1.74-10.55h21.5Z"/><path class="cls-3" d="m739.75,123c-.17,4.7-.42,13.06-.75,25.08-.12,6-.24,15.41-.36,28.26h-15.84c.05-7.12-.02-13.75-.21-19.89-.05-1.8-.17-6.66-.36-14.6-.4.07-1.28.25-2.63.55-.71.16-1.55.43-2.53.8l-3.38-11.62c2.68-1.11,7.43-3.19,14.24-6.26,2.11-.99,4.9-2.4,8.37-4.22l3.45,1.9Z"/><path class="cls-3" d="m796.32,165.78c-.24.92-.68,2.66-1.32,5.22-.33,1.5-.62,3.25-.85,5.26h-32.22c-.12-5.42-.42-14.34-.89-26.77-.31-6.36-.87-15.15-1.67-26.36h24.71l-2.03,44.06c2.3,0,5.75-.24,10.36-.73.95-.09,2.25-.32,3.92-.69Z"/><path class="cls-3" d="m822.7,123.14l-1.39,28.26c-.26,6.09-.57,14.38-.93,24.87h-19.97l-2.42-53.13h24.71Z"/><path class="cls-3" d="m871.47,123.14c-1.97,5.67-5.13,14.93-9.47,27.77-1.99,6.04-4.57,14.49-7.72,25.35h-12.39c-1.59-5.26-4.25-13.85-7.97-25.77-2.11-6.59-5.25-15.71-9.4-27.36h25.17c.24,2.19.79,5.75,1.67,10.69.59,2.63,1.52,6.25,2.78,10.86.66-2.24,1.64-5.88,2.92-10.93.59-2.72,1.27-6.26,2.03-10.62h12.39Z"/><ellipse class="cls-1" cx="375.17" cy="329.73" rx="67.61" ry="71.74"/><path class="cls-1" d="m319.89,338.2l-32.58-22.64-33.55,56.14s-.8,6.54-4.29,5.97-13.91-2.75-13.91-2.75c0,0-8.62-2.09-4.33-6.36,4.29-4.27,8.05-2.28,8.05-2.28l4.56,1.14,35.42-60.93s4.05-9.27,8.06-7.2,35.91,22.37,35.91,22.37l7.81,4.19-3.97,12.49-7.17-.15Z"/><path class="cls-1" d="m330.46,309.25l-42.06-19.57-43.32,48.53s-1.04,5.65-5.54,5.16c-4.5-.49-17.96-2.38-17.96-2.38,0,0-5.52-1.3-5.59-5.49s10.39-1.97,10.39-1.97l5.89.98,45.72-52.67s5.23-8.02,10.41-6.22,46.36,19.33,46.36,19.33l10.08,3.62-5.12,10.8-9.25-.13Z"/><path class="cls-1" d="m426.57,309.25l42.06-19.57,43.32,48.53s1.04,5.65,5.54,5.16,17.96-2.38,17.96-2.38c0,0,5.52-1.3,5.59-5.49s-10.39-1.97-10.39-1.97l-5.89.98-45.72-52.67s-5.23-8.02-10.41-6.22-46.36,19.33-46.36,19.33l-10.08,3.62,5.12,10.8,9.25-.13Z"/><path class="cls-1" d="m434.46,338.23l32.58-22.64,33.55,56.14s.8,6.54,4.29,5.97,13.91-2.75,13.91-2.75c0,0,8.62-2.09,4.33-6.36s-8.05-2.28-8.05-2.28l-4.56,1.14-35.42-60.93s-4.05-9.27-8.06-7.2-35.91,22.37-35.91,22.37l-7.81,4.19,3.97,12.49,7.17-.15Z"/><path class="cls-1" d="m419.58,380.84l40.24-52.67s3.76-7.69,7.51-4.56c3.76,3.13,4.7,7.69,4.7,7.69l15.47,49.54h11.02s5.58.57,4.24,3.98-4.71,4.82-4.71,4.82h-18.21s-6.06-1.98-4.71-6.53-9.66-41.71-9.66-41.71l-26.03,37.7-19.85,1.73Z"/><path class="cls-1" d="m340.17,384.16l-40.24-52.67s-3.76-7.69-7.51-4.56-4.7,7.69-4.7,7.69l-15.47,49.54h-11.02s-5.58.57-4.24,3.98,4.71,4.82,4.71,4.82h18.21s6.06-1.98,4.71-6.53,9.66-41.71,9.66-41.71l26.03,37.7,19.85,1.73Z"/><path class="cls-1" d="m376.64,260.41s19.45.89,31.93,8.49-26.7,44.47-26.7,44.47c0,0-6.71,7.54-6.98,0-.27-7.54,1.74-52.95,1.74-52.95Z"/><path class="cls-1" d="m377.04,260.45s-19.45.89-31.93,8.49,26.7,44.47,26.7,44.47c0,0,6.71,7.54,6.98,0,.27-7.54-1.74-52.95-1.74-52.95Z"/><path class="cls-1" d="m399.95,386.78l47.76-30.32s10.46-7.12,10.6,0-8.99,14.23-8.99,14.23l-52.83,31.37,3.46-15.29Z"/><path class="cls-1" d="m359.58,278.82l-2.14,9.23s-19.66,5.88-27.77,16.69-8.8-.68-8.8-.68c0,0,6.02-13.63,38.71-25.23Z"/><path class="cls-1" d="m369.68,291.98l-2.14,9.23s-19.66,5.88-27.77,16.69c-8.11,10.81-8.8-.68-8.8-.68,0,0,6.02-13.63,38.71-25.23Z"/><path class="cls-1" d="m384.71,301.37l-2.14,9.23s-19.66,5.88-27.77,16.69c-8.11,10.81-8.8-.68-8.8-.68,0,0,6.02-13.63,38.71-25.23Z"/><path class="cls-1" d="m396.44,278.88l2.14,9.23s19.66,5.88,27.77,16.69c8.11,10.81,8.8-.68,8.8-.68,0,0-6.02-13.63-38.71-25.23Z"/><path class="cls-1" d="m386.25,291.98l2.14,9.23s19.66,5.88,27.77,16.69c8.11,10.81,8.8-.68,8.8-.68,0,0-6.02-13.63-38.71-25.23Z"/><path class="cls-1" d="m370.42,299.1l2.14,9.23s19.66,5.88,27.77,16.69c8.11,10.81,8.8-.68,8.8-.68,0,0-6.02-13.63-38.71-25.23Z"/><path class="cls-1" d="m356.79,386.9l-47.76-30.32s-10.46-7.12-10.6,0c-.13,7.12,8.99,14.23,8.99,14.23l52.83,31.37-3.46-15.29Z"/><ellipse class="cls-1" cx="376.24" cy="384.25" rx="31.93" ry="33.74"/><path class="cls-1" d="m352.12,389.84l-47.76-30.32s-10.46-7.12-10.6,0c-.13,7.12,0,49.68,0,49.68h-9.93s-4.43,1.85-3.09,4.7l1.34,2.85h18.86c5.02-3.7,1.8-7.4,1.8-7.4v-35.59s52.83,31.37,52.83,31.37l-3.46-15.29Z"/><ellipse class="cls-1" cx="376.38" cy="393.22" rx="31.93" ry="33.74"/><ellipse class="cls-1" cx="383.22" cy="387.52" rx="6.44" ry="7.4"/><ellipse class="cls-1" cx="368.19" cy="387.52" rx="6.44" ry="7.4"/><ellipse class="cls-1" cx="396.36" cy="380.16" rx="4.29" ry="4.52"/><ellipse class="cls-1" cx="355.58" cy="380.19" rx="4.29" ry="4.52"/><ellipse class="cls-1" cx="383.22" cy="387.43" rx="2.95" ry="3.22"/><ellipse class="cls-1" cx="368.19" cy="387.6" rx="2.95" ry="3.22"/><path class="cls-1" d="m368.99,401.62s5.41,9.29,12.62,0c0,0-6.54-2-12.62,0Z"/><path class="cls-1" d="m405.08,389.8l47.76-30.32s10.46-7.12,10.6,0,0,49.68,0,49.68h9.93s4.43,1.85,3.09,4.7l-1.34,2.85h-18.86c-5.02-3.7-1.8-7.4-1.8-7.4v-35.59l-52.83,31.37,3.46-15.29Z"/><ellipse class="cls-12" cx="375.11" cy="333.88" rx="67.61" ry="71.74"/><path class="cls-12" d="m319.84,342.35l-32.58-22.64-33.55,56.14s-.8,6.54-4.29,5.97-13.91-2.75-13.91-2.75c0,0-8.62-2.09-4.33-6.36s8.05-2.28,8.05-2.28l4.56,1.14,35.42-60.93s4.05-9.27,8.06-7.2,35.91,22.37,35.91,22.37l7.81,4.19-3.97,12.49-7.17-.15Z"/><path class="cls-12" d="m330.4,313.4l-42.06-19.57-43.32,48.53s-1.04,5.65-5.54,5.16-17.96-2.38-17.96-2.38c0,0-5.52-1.3-5.59-5.49s10.39-1.97,10.39-1.97l5.89.98,45.72-52.67s5.23-8.02,10.41-6.22,46.36,19.33,46.36,19.33l10.08,3.62-5.12,10.8-9.25-.13Z"/><path class="cls-12" d="m426.51,313.4l42.06-19.57,43.32,48.53s1.04,5.65,5.54,5.16,17.96-2.38,17.96-2.38c0,0,5.52-1.3,5.59-5.49s-10.39-1.97-10.39-1.97l-5.89.98-45.72-52.67s-5.23-8.02-10.41-6.22-46.36,19.33-46.36,19.33l-10.08,3.62,5.12,10.8,9.25-.13Z"/><path class="cls-12" d="m434.41,342.38l32.58-22.64,33.55,56.14s.8,6.54,4.29,5.97c3.49-.57,13.91-2.75,13.91-2.75,0,0,8.62-2.09,4.33-6.36s-8.05-2.28-8.05-2.28l-4.56,1.14-35.42-60.93s-4.05-9.27-8.06-7.2-35.91,22.37-35.91,22.37l-7.81,4.19,3.97,12.49,7.17-.15Z"/><path class="cls-12" d="m419.52,384.99l40.24-52.67s3.76-7.69,7.51-4.56,4.7,7.69,4.7,7.69l15.47,49.54h11.02s5.58.57,4.24,3.98-4.71,4.82-4.71,4.82h-18.21s-6.06-1.98-4.71-6.53c1.34-4.56-9.66-41.71-9.66-41.71l-26.03,37.7-19.85,1.73Z"/><path class="cls-12" d="m340.11,388.31l-40.24-52.67s-3.76-7.69-7.51-4.56c-3.76,3.13-4.7,7.69-4.7,7.69l-15.47,49.54h-11.02s-5.58.57-4.24,3.98,4.71,4.82,4.71,4.82h18.21s6.06-1.98,4.71-6.53,9.66-41.71,9.66-41.71l26.03,37.7,19.85,1.73Z"/><path class="cls-15" d="m376.59,264.56s19.45.89,31.93,8.49-26.7,44.47-26.7,44.47c0,0-6.71,7.54-6.98,0s1.74-52.95,1.74-52.95Z"/><path class="cls-15" d="m376.99,264.6s-19.45.89-31.93,8.49c-12.48,7.6,26.7,44.47,26.7,44.47,0,0,6.71,7.54,6.98,0s-1.74-52.95-1.74-52.95Z"/><path class="cls-15" d="m399.9,390.93l47.76-30.32s10.46-7.12,10.6,0-8.99,14.23-8.99,14.23l-52.83,31.37,3.46-15.29Z"/><path class="cls-15" d="m359.52,282.97l-2.14,9.23s-19.66,5.88-27.77,16.69c-8.11,10.81-8.8-.68-8.8-.68,0,0,6.02-13.63,38.71-25.23Z"/><path class="cls-15" d="m369.63,296.13l-2.14,9.23s-19.66,5.88-27.77,16.69c-8.11,10.81-8.8-.68-8.8-.68,0,0,6.02-13.63,38.71-25.23Z"/><path class="cls-15" d="m384.65,305.52l-2.14,9.23s-19.66,5.88-27.77,16.69c-8.11,10.81-8.8-.68-8.8-.68,0,0,6.02-13.63,38.71-25.23Z"/><path class="cls-15" d="m396.39,283.03l2.14,9.23s19.66,5.88,27.77,16.69,8.8-.68,8.8-.68c0,0-6.02-13.63-38.71-25.23Z"/><path class="cls-15" d="m386.19,296.13l2.14,9.23s19.66,5.88,27.77,16.69c8.11,10.81,8.8-.68,8.8-.68,0,0-6.02-13.63-38.71-25.23Z"/><path class="cls-15" d="m370.36,303.25l2.14,9.23s19.66,5.88,27.77,16.69c8.11,10.81,8.8-.68,8.8-.68,0,0-6.02-13.63-38.71-25.23Z"/><path class="cls-15" d="m356.73,391.05l-47.76-30.32s-10.46-7.12-10.6,0,8.99,14.23,8.99,14.23l52.83,31.37-3.46-15.29Z"/><ellipse class="cls-15" cx="376.19" cy="388.4" rx="31.93" ry="33.74"/><path class="cls-12" d="m352.06,393.99l-47.76-30.32s-10.46-7.12-10.6,0c-.13,7.12,0,49.68,0,49.68h-9.93s-4.43,1.85-3.09,4.7l1.34,2.85h18.86c5.02-3.7,1.8-7.4,1.8-7.4v-35.59s52.83,31.37,52.83,31.37l-3.46-15.29Z"/><ellipse class="cls-12" cx="376.32" cy="397.37" rx="31.93" ry="33.74"/><ellipse class="cls-7" cx="383.16" cy="391.67" rx="6.44" ry="7.4"/><ellipse class="cls-7" cx="368.14" cy="391.67" rx="6.44" ry="7.4"/><ellipse class="cls-7" cx="396.31" cy="384.31" rx="4.29" ry="4.52"/><ellipse class="cls-7" cx="355.53" cy="384.34" rx="4.29" ry="4.52"/><ellipse class="cls-4" cx="383.16" cy="391.58" rx="2.95" ry="3.22"/><ellipse class="cls-4" cx="368.14" cy="391.74" rx="2.95" ry="3.22"/><path class="cls-13" d="m368.94,405.77s5.41,9.29,12.62,0c0,0-6.54-2-12.62,0Z"/><path class="cls-12" d="m405.03,393.95l47.76-30.32s10.46-7.12,10.6,0,0,49.68,0,49.68h9.93s4.43,1.85,3.09,4.7l-1.34,2.85h-18.86c-5.02-3.7-1.8-7.4-1.8-7.4v-35.59l-52.83,31.37,3.46-15.29Z"/><path class="cls-11" d="m528.68,595.71c.05,0-3.67-20.51,15.4-33.67s13.3-13.52,12.02-26.64c-1.28-13.12,3.91-22.38,10.52-20.42,6.61,1.96,10.88,33.63,10.88,33.63,0,0,.97,14.19-15.14,22.63-6.16,3.26-13.27,18.06-13.27,18.06,0,0-2.38,17-4.06,14.8"/><path class="cls-11" d="m397.28,647.17h149.75s16.17-1.57,16.51-14.88c.34-13.31-17.94-15.03-17.94-15.03h-148.32s-11.68,2.37-11.43,14.95c.25,12.59,11.43,14.95,11.43,14.95Z"/><path class="cls-11" d="m409.4,617.26h125.09s13.51-1.57,13.79-14.88-14.98-15.03-14.98-15.03h-123.89s-9.76,2.37-9.55,14.95c.21,12.59,9.55,14.95,9.55,14.95Z"/><path class="cls-11" d="m422.08,587.35h96.63s10.43-1.57,10.65-14.88c.22-13.31-11.57-15.03-11.57-15.03h-95.71s-7.54,2.37-7.38,14.95,7.38,14.95,7.38,14.95Z"/><path class="cls-11" d="m455.67,557.55s-1.43-31.2,9.53-38.95c10.96-7.75,27.3,1.29,35.47-9.25,8.17-10.54-7.09-20.44-7.09-20.44h-49.81s-16.61,2.8-16.4-13.34c.21-16.14,15.26-12.69,15.26-12.69l51.42-.31s35.64-2.15,35.31,43.29-38.15,18.98-41.38,32.75-2,18.93-2,18.93h-30.32Z"/><path class="cls-14" d="m530.17,589.35s-2.1-18.93,14.99-29.91c17.09-10.97,12.14-11.62,11.71-23.67s4.51-20.23,10.1-18.07,7.63,31.31,7.63,31.31c0,0,.11,13.02-14.2,19.84-5.47,2.64-12.35,15.77-12.35,15.77,0,0-2.93,15.39-4.26,13.29"/><path class="cls-11" d="m393.06,649.81h157.96s17.06-1.66,17.41-15.77c.35-14.11-18.92-15.93-18.92-15.93h-156.45s-12.32,2.51-12.06,15.85,12.06,15.85,12.06,15.85Z"/><path class="cls-11" d="m405.85,618.11h131.94s14.25-1.66,14.54-15.77c.3-14.11-15.8-15.93-15.8-15.93h-130.69s-10.29,2.51-10.07,15.85c.22,13.34,10.07,15.85,10.07,15.85Z"/><path class="cls-11" d="m419.23,586.4h101.93s11.01-1.66,11.24-15.77-12.21-15.93-12.21-15.93h-100.95s-7.95,2.51-7.78,15.85c.17,13.34,7.78,15.85,7.78,15.85Z"/><path class="cls-14" d="m452.11,555.99s-1.43-31.2,9.53-38.95c10.96-7.75,27.3,1.29,35.47-9.25s-7.09-20.44-7.09-20.44h-49.81s-16.61,2.8-16.4-13.34c.21-16.14,15.26-12.69,15.26-12.69l51.42-.31s35.64-2.15,35.31,43.29-38.15,18.98-41.38,32.75c-3.22,13.77-2,18.93-2,18.93h-30.32Z"/><circle class="cls-9" cx="434.46" cy="466.16" r="3.33"/><path class="cls-2" d="m426.66,480.26s-4.91,4.05-12.68,3.35c-7.76-.7-17.88-2.66-17.88-2.66l-6.44-.68,2.69,1.71h-7.27l5.73,1.71s12.42,3.47,23.17,3.26,17.04-3.95,17.04-3.95c0,0-4.36-2.71-4.36-2.75Z"/><circle class="cls-16" cx="427.79" cy="474.12" r=".75"/><circle class="cls-4" cx="436.07" cy="466.05" r="1.51"/><path class="cls-14" d="m421.96,586.12h96.63s10.43-1.57,10.65-14.88c.22-13.31-11.57-15.03-11.57-15.03h-95.71s-7.54,2.37-7.38,14.95c.16,12.59,7.38,14.95,7.38,14.95Z"/><path class="cls-14" d="m409.39,617.32h125.09s13.51-1.57,13.79-14.88-14.98-15.03-14.98-15.03h-123.89s-9.76,2.37-9.55,14.95,9.55,14.95,9.55,14.95Z"/><path class="cls-14" d="m396.63,648.95h149.75s16.17-1.57,16.51-14.88-17.94-15.03-17.94-15.03h-148.32s-11.68,2.37-11.43,14.95,11.43,14.95,11.43,14.95Z"/><path class="cls-10" d="m275.61,166.14h185.77s8-106.92-92.88-107.48-92.88,107.48-92.88,107.48Z"/><path class="cls-10" d="m280.39,175.82h147.69s6.36-89.49-73.84-89.97c-80.21-.47-73.84,89.97-73.84,89.97Z"/><ellipse class="cls-10" cx="257.41" cy="71.35" rx="12.24" ry="12.98"/><ellipse class="cls-10" cx="240.48" cy="71.94" rx="12.24" ry="12.98"/><path class="cls-10" d="m419.15,212.19s15.73,1.74,16.07-4.17c.33-5.91,0-49.24,0-49.24,0,0-11.96-18.63-21.55,0,0,0-5.48,24.6,0,45.97,0,0,.45,7.11,5.48,7.45Z"/><path class="cls-10" d="m279.58,213.07s15.73,1.74,16.07-4.17c.33-5.91,0-49.24,0-49.24,0,0-11.96-18.63-21.55,0,0,0-5.48,24.6,0,45.97,0,0,.45,7.11,5.48,7.45Z"/><path class="cls-10" d="m306.28,219.15s17.54,1.82,17.91-4.38c.37-6.2,0-51.67,0-51.67,0,0-13.32-19.55-24.01,0,0,0-6.1,25.81,0,48.23,0,0,.51,7.46,6.1,7.82Z"/><path class="cls-8" d="m418.41,127.29s21.98,6.56,42.33-10.17c20.36-16.73,24.56,5.56,8.56,12.34-16,6.78-33.29,16.93-56.35,16.67-23.06-.26,5.46-18.84,5.46-18.84Z"/><path class="cls-8" d="m281.61,209.71s15.39,1.65,15.71-3.96,0-46.66,0-46.66c0,0-11.69-17.66-21.07,0,0,0-5.35,23.31,0,43.56,0,0,.44,6.73,5.35,7.06Z"/><path class="cls-8" d="m425.52,209.66s15.39,1.65,15.71-3.96,0-46.66,0-46.66c0,0-11.69-17.66-21.07,0,0,0-5.35,23.31,0,43.56,0,0,.44,6.73,5.35,7.06Z"/><path class="cls-8" d="m277.37,174.48h182.67s7.87-113.75-91.34-114.36c-99.21-.6-91.34,114.36-91.34,114.36Z"/><path class="cls-8" d="m442.06,212.92s17.54,1.82,17.91-4.38,0-51.67,0-51.67c0,0-13.32-19.55-24.01,0,0,0-6.1,25.81,0,48.23,0,0,.51,7.46,6.1,7.82Z"/><path class="cls-10" d="m316.01,73.57s51.76-32.91,104.71,0c0,0-21.82,29.24-52.35,29.82s-52.35-29.82-52.35-29.82Z"/><path class="cls-10" d="m447.26,101.23s-38.56,5.97-32.02,16.07c6.54,10.1,41.18,4.99,41.18,4.99l-9.16-21.06Z"/><path class="cls-10" d="m289.72,107.72s29.43-2.4,29.45,9.58c.02,11.98-36.9,11.28-36.9,11.28l7.45-20.85Z"/><ellipse class="cls-10" cx="263.36" cy="99.76" rx="34.25" ry="36.71"/><ellipse class="cls-8" cx="261.17" cy="99.6" rx="34.1" ry="36.24"/><ellipse class="cls-8" cx="238.8" cy="71.85" rx="10.15" ry="10.78"/><ellipse class="cls-8" cx="257.03" cy="71.51" rx="10.55" ry="11.27"/><ellipse class="cls-9" cx="256.75" cy="75.05" rx="6.48" ry="6.96"/><ellipse class="cls-9" cx="238.85" cy="75.13" rx="6.48" ry="6.96"/><path class="cls-8" d="m249.2,74.34h17.2s-.15-9.99-8.6-10.25-8.6,10.25-8.6,10.25Z"/><path class="cls-8" d="m229.67,74.36h17.2s-.15-11.22-8.6-11.52c-8.45-.3-8.6,11.52-8.6,11.52Z"/><ellipse class="cls-4" cx="256.76" cy="77.35" rx="2.24" ry="2.31"/><ellipse class="cls-4" cx="238.27" cy="77.31" rx="2.24" ry="2.31"/><path class="cls-13" d="m240.18,108.84s6.57,12.63,15.33,0c0,0-7.95-2.72-15.33,0Z"/><path class="cls-10" d="m368.71,136.46s55.83.59,44.25,9.67c-11.58,9.08-25.14,16.03-44.59,16.15-19.45.12-42.01-5.5-42.39-14.1s42.74-11.72,42.74-11.72Z"/><path class="cls-10" d="m301.04,219.24s17.54,1.82,17.91-4.38c.37-6.2,0-51.67,0-51.67,0,0-13.32-19.55-24.01,0,0,0-6.1,25.81,0,48.23,0,0,.51,7.46,6.1,7.82Z"/><path class="cls-8" d="m303.89,217.18s17.54,1.82,17.91-4.38,0-51.67,0-51.67c0,0-13.32-19.55-24.01,0,0,0-6.1,25.81,0,48.23,0,0,.51,7.46,6.1,7.82Z"/><path class="cls-10" d="m445.86,218.27s17.54,1.82,17.91-4.38,0-51.67,0-51.67c0,0-13.32-19.55-24.01,0,0,0-6.1,25.81,0,48.23,0,0,.51,7.46,6.1,7.82Z"/><path class="cls-8" d="m421.18,208.83s15.39,1.65,15.71-3.96c.33-5.6,0-46.66,0-46.66,0,0-11.69-17.66-21.07,0,0,0-5.35,23.31,0,43.56,0,0,.44,6.73,5.35,7.06Z"/><path class="cls-10" d="m440.61,218.36s17.54,1.82,17.91-4.38,0-51.67,0-51.67c0,0-13.32-19.55-24.01,0,0,0-6.1,25.81,0,48.23,0,0,.51,7.46,6.1,7.82Z"/><path class="cls-8" d="m443.46,216.3s17.54,1.82,17.91-4.38,0-51.67,0-51.67c0,0-13.32-19.55-24.01,0,0,0-6.1,25.81,0,48.23,0,0,.51,7.46,6.1,7.82Z"/></svg>