<?xml version="1.0" encoding="UTF-8"?><svg id="Layer_1" xmlns="http://www.w3.org/2000/svg" width="1920" height="1080" viewBox="0 0 1920 1080"><defs><style>.cls-1{fill:#614b47;}.cls-1,.cls-2,.cls-3,.cls-4,.cls-5,.cls-6,.cls-7,.cls-8,.cls-9,.cls-10,.cls-11,.cls-12,.cls-13,.cls-14,.cls-15,.cls-16,.cls-17,.cls-18,.cls-19,.cls-20,.cls-21,.cls-22,.cls-23,.cls-24,.cls-25,.cls-26,.cls-27,.cls-28,.cls-29,.cls-30{stroke-width:0px;}.cls-2{fill:#de9562;}.cls-3{fill:#e97600;}.cls-4{fill:#c97a79;}.cls-5{fill:#ebffd4;}.cls-7{fill:#e59f71;}.cls-8{fill:#ac7755;}.cls-9{fill:#f4fffe;}.cls-10{fill:#fffbe9;}.cls-11{fill:#576d5c;}.cls-12{fill:#7f976b;}.cls-13{fill:#b1c87c;}.cls-14{fill:gray;}.cls-15{fill:#b0cfe3;}.cls-16{fill:#f3b46f;}.cls-17{fill:#976665;}.cls-18{fill:#5f7150;}.cls-19{fill:#fff;}.cls-20{fill:#85965d;}.cls-21{fill:#59483a;}.cls-22{fill:#915932;}.cls-31{fill:#352600;stroke:#000;stroke-miterlimit:10;}.cls-23{fill:#996;}.cls-24{fill:#dfecf4;}.cls-25{fill:#975c5b;}.cls-26{fill:#846d69;}.cls-27{fill:#352000;}.cls-28{fill:#b5b46d;}.cls-29{fill:#81645f;}.cls-30{fill:#f5c38c;}</style></defs><rect class="cls-15" x="-2.5" width="1928.76" height="228.14"/><path class="cls-22" d="m1090.67,280.91l531.71-26.03s-23.85-67.58-71.55-76.95c-47.7-9.36,14.03-56.17,14.03-56.17l-33.67-82.69s-7.91-12.48-51.65,0c-43.75,12.48-76.52-13.26-76.52-13.26,0,0-172.05-5.46-158.02,22.62,14.03,28.08-57.78,3.12-69.58,16.38s-101.58,108.01-84.75,119.14c16.84,11.13,0,96.94,0,96.94Z"/><path class="cls-2" d="m1090.52,273.87l513.78-23.12s-23.05-60.04-69.14-68.36c-46.09-8.32,13.56-49.9,13.56-49.9l-32.53-73.46s-7.64-11.09-49.91,0c-42.27,11.09-73.94-11.78-73.94-11.78,0,0-166.25-4.85-152.69,20.1,13.56,24.95-55.83,2.77-67.23,14.55-11.4,11.78-98.16,95.95-81.89,105.84,16.27,9.89,0,86.12,0,86.12Z"/><rect class="cls-16" x="-2.5" y="217.09" width="1928.76" height="868.35"/><path class="cls-24" d="m-5.01,46.73h602.65s65.21,32.25,0,59.85H-5.01s-35.16-36.73,0-59.85Z"/><path class="cls-24" d="m666,96.67h428.48s46.36,20.75,0,38.51h-428.48s-25-23.64,0-38.51Z"/><path class="cls-24" d="m1592.44,46.94h428.48s46.36,20.75,0,38.51h-428.48s-25-23.64,0-38.51Z"/><path class="cls-2" d="m-56.01,1026.93s67.51-110.69,416.02-67.8c348.51,42.89,462.23,0,462.23,0,0,0,290.81-115.39,383.97-22.88,93.16,92.51,522.19,29.97,522.19,29.97,0,0,295.68-117.33,431.28-51.7,135.59,65.63-122.9,300.18-122.9,300.18,0,0-528.62,73.03-722.45,33.48-193.83-39.55-720.74,28.73-720.74,28.73,0,0-396.28-3.87-480.53-51.26-84.24-47.4-201.95-66.84-169.06-198.7Z"/><path class="cls-2" d="m20.56,560.86s16.97-14.75,104.59-9.04c87.62,5.72,116.2,0,116.2,0,0,0,73.11-15.38,96.53-3.05,23.42,12.33,131.28,3.99,131.28,3.99,0,0,74.33-15.64,108.42-6.89,34.09,8.75-30.9,40.01-30.9,40.01,0,0-132.9,9.73-181.62,4.46-48.73-5.27-181.19,3.83-181.19,3.83,0,0-99.63-.52-120.8-6.83s-50.77-8.91-42.5-26.48Z"/><path class="cls-30" d="m1113.09,790.16s24.27-30.84,149.55-18.89c125.29,11.95,166.17,0,166.17,0,0,0,104.54-32.15,138.03-6.38,33.49,25.78,187.72,8.35,187.72,8.35,0,0,106.3-32.69,155.04-14.41,48.75,18.29-44.18,83.64-44.18,83.64,0,0-190.04,20.35-259.71,9.33-69.68-11.02-259.1,8-259.1,8,0,0-142.46-1.08-172.74-14.28-30.28-13.21-72.6-18.63-60.78-55.37Z"/><path class="cls-2" d="m1614.76,530.71s16.97-23.79,104.59-14.57c87.62,9.22,116.2,0,116.2,0,0,0,73.11-24.8,96.53-4.92,23.42,19.88,131.28,6.44,131.28,6.44,0,0,74.33-25.22,108.42-11.11,34.09,14.1-30.9,64.52-30.9,64.52,0,0-132.9,15.7-181.62,7.19-48.73-8.5-181.19,6.17-181.19,6.17,0,0-99.63-.83-120.8-11.02s-50.77-14.37-42.5-42.71Z"/><path class="cls-2" d="m336.09,783.7s31.14-4.74,32.61-10.44,25.28-1.41,30.6-3.41,27.04-8.65,27.04-8.65c0,0,7.23,5.44,5.3,16.26-1.93,10.82.1,1.75-9.19,16.05,0,0-33.05,16.25-47.22,10.99-14.17-5.27-25.81-1.25-25.81-1.25,0,0-21.35-18.13-13.34-19.54Z"/><path class="cls-14" d="m333.91,788s30.73-7.46,33.86,0c3.13,7.46,24.2-9.54,29.82-9.12s28.07,0,28.07,0c0,0,5.13-11.08,0-25.65-5.13-14.57-.45-2.54-13.56-18.72,0,0-36.05-8.11-47.76,5.9-11.71,14.01-23.88,13.59-23.88,13.59,0,0-14.52,35.66-6.56,34Z"/><path class="cls-2" d="m113.05,479.74h57.07s17.23,8.43-8.29,27.28c-25.52,18.85-42.03,7.94-42.03,7.94,0,0-38.89-8.93-28.83-14.14,10.06-5.21-8.7-21.08,22.07-21.08Z"/><path class="cls-14" d="m109.31,492.36h57.07s17.23-12.35-8.29-39.95c-25.52-27.6-42.03-11.62-42.03-11.62,0,0-38.89,13.08-28.83,20.7,10.06,7.63-8.7,30.87,22.07,30.87Z"/><path class="cls-2" d="m1830.59,702.93s31.14-4.74,32.61-10.44c1.47-5.7,25.28-1.41,30.6-3.41,5.33-2,27.04-8.65,27.04-8.65,0,0,7.23,5.44,5.3,16.26-1.93,10.82.1,1.75-9.19,16.05,0,0-33.05,16.25-47.22,10.99s-25.81-1.25-25.81-1.25c0,0-21.35-18.13-13.34-19.54Z"/><path class="cls-14" d="m1828.4,707.23s30.73-7.46,33.86,0c3.13,7.46,24.2-9.54,29.82-9.12s28.07,0,28.07,0c0,0,5.13-11.08,0-25.65-5.13-14.57-.45-2.54-13.56-18.72,0,0-36.05-8.11-47.76,5.9-11.71,14.01-23.88,13.59-23.88,13.59,0,0-14.52,35.66-6.56,34Z"/><path class="cls-2" d="m1640.34,408.29h57.07s17.23,8.43-8.29,27.28c-25.52,18.85-42.03,7.94-42.03,7.94,0,0-38.89-8.93-28.83-14.14,10.06-5.21-8.7-21.08,22.07-21.08Z"/><path class="cls-14" d="m1636.59,420.92h57.07s17.23-12.35-8.29-39.95c-25.52-27.6-42.03-11.62-42.03-11.62,0,0-38.89,13.08-28.83,20.7,10.06,7.63-8.7,30.87,22.07,30.87Z"/><path class="cls-2" d="m1063.62,308.6s12.16-7.32,74.91-4.48c62.76,2.84,83.24,0,83.24,0,0,0,52.37-7.63,69.14-1.51,16.78,6.12,94.03,1.98,94.03,1.98,0,0,53.25-7.76,77.66-3.42,24.42,4.34-22.13,19.85-22.13,19.85,0,0-95.19,4.83-130.09,2.21-34.9-2.62-129.79,1.9-129.79,1.9,0,0-71.36-.26-86.53-3.39-15.17-3.13-36.37-4.42-30.44-13.14Z"/><path class="cls-2" d="m-143.16,296.07s12.16-7.32,74.91-4.48c62.76,2.84,83.24,0,83.24,0,0,0,52.37-7.63,69.14-1.51,16.78,6.12,94.03,1.98,94.03,1.98,0,0,53.25-7.76,77.66-3.42,24.42,4.34-22.13,19.85-22.13,19.85,0,0-95.19,4.83-130.09,2.21-34.9-2.62-129.79,1.9-129.79,1.9,0,0-71.36-.26-86.53-3.39-15.17-3.13-36.37-4.42-30.44-13.14Z"/><path class="cls-30" d="m1236.12,478.09s14-10.6,86.27-6.49c72.27,4.11,95.85,0,95.85,0,0,0,60.31-11.05,79.63-2.19,19.32,8.86,108.29,2.87,108.29,2.87,0,0,61.32-11.23,89.44-4.95s-25.49,28.74-25.49,28.74c0,0-109.62,6.99-149.82,3.2s-149.46,2.75-149.46,2.75c0,0-82.18-.37-99.65-4.91-17.47-4.54-41.88-6.4-35.06-19.02Z"/><polygon class="cls-2" points="750.75 967.98 1032.01 829.1 701 735.91 1112.07 646.37 805.67 556.83 1042.75 403.7 746.66 220.78 949.33 399.68 569.99 593.54 821.75 636.87 553.53 719.28 767.9 862.59 576.63 978.58 778.24 1121.12 905.76 1121.12 750.75 967.98"/><path class="cls-30" d="m277.41,393.19s14-15.25,86.27-9.34,95.85,0,95.85,0c0,0,60.31-15.9,79.63-3.15,19.32,12.75,108.29,4.13,108.29,4.13,0,0,61.32-16.17,89.44-7.12s-25.49,41.36-25.49,41.36c0,0-109.62,10.06-149.82,4.61-40.19-5.45-149.46,3.96-149.46,3.96,0,0-82.18-.53-99.65-7.06-17.47-6.53-41.88-9.21-35.06-27.38Z"/><path class="cls-21" d="m293.74,215.39s9.9-19.69,8.44-44.35c0,0-12.71-7.05-15.94-2.73-3.23,4.32-10.63,9.93-13.63,8.82s-7.97.88-7.97.88c0,0-9.71-2.49-2.51-4.5,7.2-2.01,11.81-1.13,11.81-1.13,0,0,10.55-5.48,10.24-9.02s-10.28-4.81-10.28-4.81c0,0-8.12-1.2-7.71-7.06s-6.71-7.73-6.71-7.73c0,0-2.34-5.9,4.91-3.46,7.25,2.44,7.71,9.75,7.71,9.75,0,0,1.29,4.35,8.62,5.49,7.33,1.14,9.37,5.7,9.37,5.7,0,0,8.96,3.77,5.4-1.9s-3.34-7.85-3.34-7.85c0,0-3.55-5.15-7.71-4.69s-6.43-7.66-6.43-7.66c0,0-.95-7,4.11-2.7s3.09,3.86,3.09,3.86c0,0,10.45,2.07,11.83,4.64,1.38,2.57,5.29,12.63,5.29,12.63,0,0,3.12,3.78,3.71,0s4.63-11.79,4.63-11.79c0,0,3.61-9.37,0-9.35s-.77-4.4-.77-4.4c0,0,5.9-5.55,8.23,0,2.32,5.55,0,12.9,0,12.9,0,0-1.69,12.15-5.66,15.65s2.57,2.77,2.57,2.77l9.77-9.76s3.21-15.5,7.2-13.31c3.99,2.19,2.06,5.49,2.06,5.49,0,0,.9,6.78-2.83,11.79-3.73,5.01-9.77,10.09-9.77,10.09l-6.43,4.82s-10.44,45.34,2.57,42.91c0,0-26.68,11.74-23.87,0Z"/><ellipse class="cls-2" cx="1664.7" cy="948.01" rx="27.33" ry="13.31"/><path class="cls-11" d="m1660.83,945.38s-45.54-7.86-41.52-58.79c0,0,10.93,45.89,42.94,50.33l-1.43,8.46Z"/><path class="cls-11" d="m1659.51,949.59s-46.02,2.09-50.5-48.79c0,0,18.33,42.71,50.5,40.17v8.61Z"/><path class="cls-11" d="m1663.47,950.57s-42.17-21.12-26.66-69.1c0,0,.07,47.56,29.97,61.35l-3.31,7.74Z"/><path class="cls-11" d="m1668.13,949.66s45.52-8,41.38-58.91c0,0-10.82,45.93-42.82,50.46l1.44,8.45Z"/><path class="cls-11" d="m1660.9,950.07s43.41-17.56,31-66.7c0,0-3.11,47.42-33.8,58.7l2.8,8Z"/><path class="cls-11" d="m1649.51,949.37s43.41-17.56,31-66.7c0,0-3.11,47.42-33.8,58.7l2.8,8Z"/><path class="cls-11" d="m1648.87,948.26s39.51-27,18.84-72.37c0,0,5.16,47.19-22.97,65.16l4.13,7.21Z"/><path class="cls-11" d="m1672.95,948.25s-42.17-21.12-26.66-69.1c0,0,.07,47.56,29.97,61.35l-3.31,7.74Z"/><ellipse class="cls-11" cx="1659.21" cy="938.6" rx="19.24" ry="13.36"/><ellipse class="cls-2" cx="1201.9" cy="234.09" rx="13.74" ry="7.62"/><path class="cls-11" d="m1199.96,232.59s-22.9-4.5-20.88-33.67c0,0,5.5,26.28,21.6,28.82l-.72,4.84Z"/><path class="cls-11" d="m1199.3,235s-23.14,1.2-25.4-27.94c0,0,9.22,24.46,25.4,23.01v4.93Z"/><path class="cls-11" d="m1201.28,235.56s-21.21-12.1-13.41-39.57c0,0,.04,27.24,15.07,35.14l-1.66,4.43Z"/><path class="cls-11" d="m1203.63,235.03s22.89-4.58,20.81-33.74c0,0-5.44,26.3-21.54,28.9l.73,4.84Z"/><path class="cls-11" d="m1199.99,235.27s21.83-10.06,15.59-38.2c0,0-1.56,27.16-17,33.62l1.41,4.58Z"/><path class="cls-11" d="m1194.26,234.87s21.83-10.06,15.59-38.2c0,0-1.56,27.16-17,33.62l1.41,4.58Z"/><path class="cls-11" d="m1193.94,234.23s19.87-15.46,9.48-41.45c0,0,2.6,27.03-11.55,37.32l2.08,4.13Z"/><path class="cls-11" d="m1206.05,234.23s-21.21-12.1-13.41-39.57c0,0,.04,27.24,15.07,35.14l-1.66,4.43Z"/><ellipse class="cls-11" cx="1199.14" cy="228.7" rx="9.68" ry="7.65"/><ellipse class="cls-2" cx="830.3" cy="398.91" rx="18.5" ry="9.63"/><path class="cls-11" d="m827.68,397.01s-30.82-5.69-28.1-42.55c0,0,7.4,33.22,29.06,36.43l-.96,6.12Z"/><path class="cls-11" d="m826.79,400.06s-31.15,1.51-34.18-35.31c0,0,12.4,30.92,34.18,29.08v6.23Z"/><path class="cls-11" d="m829.47,400.77s-28.54-15.29-18.04-50.01c0,0,.05,34.42,20.28,44.41l-2.24,5.6Z"/><path class="cls-11" d="m832.63,400.11s30.81-5.79,28.01-42.64c0,0-7.32,33.24-28.98,36.52l.98,6.12Z"/><path class="cls-11" d="m827.73,400.41s29.38-12.71,20.98-48.27c0,0-2.1,34.32-22.88,42.49l1.9,5.79Z"/><path class="cls-11" d="m820.02,399.9s29.38-12.71,20.98-48.27c0,0-2.1,34.32-22.88,42.49l1.9,5.79Z"/><path class="cls-11" d="m819.59,399.1s26.74-19.54,12.75-52.38c0,0,3.5,34.16-15.55,47.16l2.8,5.22Z"/><path class="cls-11" d="m835.89,399.09s-28.54-15.29-18.04-50.01c0,0,.05,34.42,20.28,44.41l-2.24,5.6Z"/><ellipse class="cls-11" cx="826.59" cy="392.1" rx="13.02" ry="9.67"/><ellipse class="cls-2" cx="208.24" cy="225.41" rx="13.99" ry="21.43" transform="translate(-70.79 353.13) rotate(-71.86)"/><ellipse class="cls-2" cx="182.64" cy="691.83" rx="36.66" ry="15.37"/><path class="cls-11" d="m177.45,688.8s-61.08-9.08-55.69-67.89c0,0,14.66,53,57.6,58.12l-1.91,9.77Z"/><path class="cls-11" d="m175.69,693.66s-61.73,2.41-67.74-56.34c0,0,24.58,49.33,67.74,46.39v9.95Z"/><path class="cls-11" d="m180.99,694.79s-56.57-24.39-35.76-79.79c0,0,.1,54.92,40.2,70.85l-4.44,8.94Z"/><path class="cls-11" d="m187.26,693.74s61.06-9.24,55.51-68.03c0,0-14.51,53.03-57.44,58.27l1.94,9.76Z"/><path class="cls-11" d="m177.55,694.21s58.23-20.28,41.59-77.02c0,0-4.17,54.76-45.35,67.79l3.76,9.23Z"/><path class="cls-11" d="m162.27,693.41s58.23-20.28,41.59-77.02c0,0-4.17,54.76-45.35,67.79l3.76,9.23Z"/><path class="cls-11" d="m161.41,692.12s53-31.18,25.27-83.57c0,0,6.93,54.49-30.82,75.25l5.54,8.32Z"/><path class="cls-11" d="m193.72,692.11s-56.57-24.39-35.76-79.79c0,0,.1,54.92,40.2,70.85l-4.44,8.94Z"/><ellipse class="cls-11" cx="175.28" cy="680.97" rx="25.81" ry="15.43"/><path class="cls-21" d="m219.81,219.8s-12.4-29.58-10.57-66.62c0,0,15.92-10.59,19.96-4.1,4.04,6.48,13.32,14.92,17.06,13.25s7.2,2.03,9.98,1.32,12.16-3.75,3.14-6.76c-9.02-3.02-14.79-1.7-14.79-1.7,0,0-13.21-8.23-12.83-13.54s12.88-7.23,12.88-7.23c0,0,10.17-1.81,9.66-10.61-.52-8.8,8.4-11.61,8.4-11.61,0,0,2.93-8.87-6.15-5.2s-9.66,14.65-9.66,14.65c0,0-1.62,6.54-10.8,8.25-9.18,1.71-11.74,8.56-11.74,8.56,0,0-11.22,5.66-6.76-2.86,4.46-8.52,4.19-11.79,4.19-11.79,0,0,4.44-7.74,9.66-7.04s8.05-11.5,8.05-11.5c0,0-.48-5.36-5.15-4.06-4.67,1.3-3.86,5.8-3.86,5.8,0,0-13.09,3.11-14.81,6.98s-6.62,18.97-6.62,18.97c0,0-3.91,5.68-4.65,0s-5.8-17.71-5.8-17.71c0,0-.1-14.07,0-14.04s1.02-6.5.97-6.6-9.14-11.9-10.3,0-2.3,15.05,0,19.38c2.3,4.32,7.18,23.53,7.08,23.51s-3.22,4.16-3.22,4.16c0,0-12.31-14.6-12.24-14.66s-1.4-17.59-9.02-19.99c-7.62-2.39-7.11,3.08-2.58,8.24,4.54,5.16-1.13,10.18,3.54,17.71s12.24,15.16,12.24,15.16c0,0,10.42,3.23,8.05,7.24s-3.25,64.45-3.22,64.45,33.41,17.64,29.89,0Z"/><path class="cls-8" d="m1367.59,116.45v348.01l104.29,198.23s15.17,161.52-66.37,328.92c-81.54,167.4-802.88,0-802.88,0l-35.25-67.55s-51.2-5.87-58.78-44.05c-7.58-38.18,7.58-361.22-81.54-446.39-89.12-85.17,79.64-343.6,79.64-343.6,0,0,458.89-35.24,860.88,26.43Z"/><path class="cls-7" d="m1324.53,78.46v348.01l104.29,198.23s15.17,161.52-66.37,328.92c-81.54,167.4-802.88,0-802.88,0l-35.25-67.55s-51.2-5.87-58.78-44.05c-7.58-38.18,7.58-361.22-81.54-446.39-89.12-85.17,79.64-343.6,79.64-343.6,0,0,458.89-35.24,860.88,26.43Z"/><path class="cls-5" d="m908.2,521.1l-.68,7.73h-25.58l-.68-7.73h26.95Zm-1.09,12.97l-.72,7.93h-23.32l-.62-7.93h24.66Z"/><path class="cls-5" d="m952.07,505.14c-.16,4.53-.4,12.59-.72,24.17-.11,5.78-.23,14.86-.34,27.23h-15.22c.04-6.87-.02-13.25-.21-19.17-.05-1.73-.16-6.42-.34-14.07-.39.07-1.23.24-2.53.53-.68.16-1.49.41-2.43.77l-3.25-11.2c2.58-1.07,7.14-3.08,13.68-6.03,2.03-.96,4.71-2.31,8.04-4.07l3.32,1.83Z"/><path class="cls-5" d="m1015.23,525.47c0,6.31-2.07,11.36-6.21,15.15s-9.63,5.68-16.47,5.68l-.41,10.17h-18.84l-.99-24.83c-.3-6.4-.76-15.19-1.4-26.37,3.56-.69,8.76-1.03,15.63-1.03,8.37,0,15.07,1.63,20.11,4.9,5.72,3.71,8.58,9.16,8.58,16.33Zm-14.19,5.6c0-3.47-2.11-5.2-6.33-5.2-.5,0-1.01.03-1.54.1l-.34,11.67c5.47-.18,8.21-2.37,8.21-6.57Z"/><path class="cls-5" d="m1063.35,529.77c0,7.84-2.08,14.48-6.22,19.9-4.35,5.67-9.93,8.5-16.72,8.5s-12.66-2.86-17-8.57c-4.08-5.38-6.12-11.99-6.12-19.83,0-8.38,2.22-14.96,6.67-19.73,4.19-4.49,9.68-6.73,16.45-6.73s12.08,2.26,16.28,6.77c4.45,4.8,6.67,11.37,6.67,19.7Zm-16.45,5.87c0-6.18-2.14-9.27-6.43-9.27s-6.26,3.11-6.26,9.33c0,2.49.55,4.81,1.64,6.97,1.23,2.42,2.75,3.63,4.55,3.63s3.3-1.23,4.65-3.7c1.23-2.24,1.85-4.57,1.85-6.97Z"/><path class="cls-5" d="m1089.68,505.27l-1.33,27.23c-.25,5.87-.55,13.86-.89,23.97h-19.18l-2.33-51.2h23.73Z"/><path class="cls-5" d="m1134.51,505.27c-.32,4.49-.76,12.32-1.33,23.5-.34,8.22-.63,17.68-.85,28.37-2.99-2.29-7.54-5.7-13.64-10.23-2.64-1.8-6.59-4.5-11.83-8.1l-.34,17.67h-11.01c-.18-4.51-.6-13.02-1.26-25.53-.57-10.13-1.15-18.69-1.74-25.67h17.17l12.72,11.73c0-2.69-.05-4.8-.14-6.33-.07-1.35-.21-3.15-.41-5.4h12.69Z"/><path class="cls-5" d="m1179.06,505.27l-.99,20.97c-.89-.13-2.31-.3-4.27-.5-1.21-.07-3.17-.13-5.88-.2-.14,1.31-.38,4.48-.72,9.5-.25,4.87-.66,12.01-1.23,21.43h-16.55c-.18-4.49-.53-11.54-1.03-21.17-.23-3.33-.47-6.59-.72-9.77l-5.4.2-4.89.5-.86-20.97h42.54Z"/><path class="cls-5" d="m919.61,726.5l-.68,7.73h-25.58l-.68-7.73h26.95Zm-1.09,12.97l-.72,7.93h-23.32l-.62-7.93h24.66Z"/><path class="cls-5" d="m968.78,724.67c0,6.98-5.11,16.28-15.32,27.9h5.81c.89,0,2.34-.09,4.34-.27.78-.07,1.82-.2,3.15-.4-.32.98-.81,2.61-1.47,4.9-.32,1.18-.76,2.87-1.33,5.07h-22.06l-1.54-3.4c3.42-5.82,5.77-10.21,7.04-13.17,1.69-3.91,2.53-7.4,2.53-10.47,0-2.18-.68-3.84-2.05-5-1.14-.96-2.49-1.43-4.04-1.43s-2.98.34-4.41,1.03l1.61-17.93c3.42-1.2,7.07-1.8,10.94-1.8,5.08,0,9.15,1.37,12.21,4.12,3.05,2.75,4.58,6.36,4.58,10.85Z"/><path class="cls-5" d="m1029.79,730.87c0,6.31-2.07,11.36-6.21,15.15s-9.63,5.68-16.47,5.68l-.41,10.17h-18.84l-.99-24.83c-.3-6.4-.76-15.19-1.4-26.37,3.56-.69,8.76-1.03,15.63-1.03,8.37,0,15.07,1.63,20.11,4.9,5.72,3.71,8.58,9.16,8.58,16.33Zm-14.19,5.6c0-3.47-2.11-5.2-6.33-5.2-.5,0-1.01.03-1.54.1l-.34,11.67c5.47-.18,8.21-2.37,8.21-6.57Z"/><path class="cls-5" d="m1077.9,735.17c0,7.84-2.08,14.48-6.22,19.9-4.35,5.67-9.93,8.5-16.72,8.5s-12.66-2.86-17-8.57c-4.08-5.38-6.12-11.99-6.12-19.83,0-8.38,2.22-14.96,6.67-19.73,4.19-4.49,9.68-6.73,16.45-6.73s12.08,2.26,16.28,6.77c4.45,4.8,6.67,11.37,6.67,19.7Zm-16.45,5.87c0-6.18-2.14-9.27-6.43-9.27s-6.26,3.11-6.26,9.33c0,2.49.55,4.81,1.64,6.97,1.23,2.42,2.75,3.63,4.55,3.63s3.3-1.23,4.65-3.7c1.23-2.24,1.85-4.57,1.85-6.97Z"/><path class="cls-5" d="m1104.23,710.67l-1.33,27.23c-.25,5.87-.55,13.86-.89,23.97h-19.18l-2.33-51.2h23.73Z"/><path class="cls-5" d="m1149.06,710.67c-.32,4.49-.76,12.32-1.33,23.5-.34,8.22-.63,17.68-.85,28.37-2.99-2.29-7.54-5.7-13.64-10.23-2.64-1.8-6.59-4.5-11.83-8.1l-.34,17.67h-11.01c-.18-4.51-.6-13.02-1.26-25.53-.57-10.13-1.15-18.69-1.74-25.67h17.17l12.72,11.73c0-2.69-.05-4.8-.14-6.33-.07-1.35-.21-3.15-.41-5.4h12.69Z"/><path class="cls-5" d="m1193.62,710.67l-.99,20.97c-.89-.13-2.31-.3-4.27-.5-1.21-.07-3.17-.13-5.88-.2-.14,1.31-.38,4.48-.72,9.5-.25,4.87-.66,12.01-1.23,21.43h-16.55c-.18-4.49-.53-11.54-1.03-21.17-.23-3.33-.47-6.59-.72-9.77l-5.4.2-4.89.5-.86-20.97h42.54Z"/><path class="cls-5" d="m898.9,318.77l-.68,7.73h-25.58l-.68-7.73h26.95Zm-1.09,12.97l-.72,7.93h-23.32l-.62-7.93h24.66Z"/><path class="cls-5" d="m941.99,332.24l-1.54,10.17h-17.44l-1.68-10.17h20.65Z"/><path class="cls-5" d="m971.84,302.81c-.16,4.53-.4,12.59-.72,24.17-.11,5.78-.23,14.86-.34,27.23h-15.22c.04-6.87-.02-13.25-.21-19.17-.05-1.73-.16-6.42-.34-14.07-.39.07-1.23.24-2.53.53-.68.16-1.49.41-2.43.77l-3.25-11.2c2.58-1.07,7.14-3.08,13.68-6.03,2.03-.96,4.71-2.31,8.04-4.07l3.32,1.83Z"/><path class="cls-5" d="m1026.18,344.04c-.23.89-.65,2.57-1.27,5.03-.32,1.44-.59,3.13-.82,5.07h-30.95c-.11-5.22-.4-13.82-.86-25.8-.3-6.13-.83-14.6-1.61-25.4h23.73l-1.95,42.47c2.21,0,5.53-.23,9.95-.7.91-.09,2.17-.31,3.76-.67Z"/><path class="cls-5" d="m1051.52,302.94l-1.33,27.23c-.25,5.87-.55,13.86-.89,23.97h-19.18l-2.33-51.2h23.73Z"/><path class="cls-5" d="m1098.37,302.94c-1.89,5.47-4.92,14.39-9.1,26.77-1.92,5.82-4.39,13.97-7.42,24.43h-11.9c-1.53-5.07-4.08-13.34-7.66-24.83-2.03-6.36-5.04-15.14-9.03-26.37h24.18c.23,2.11.76,5.54,1.61,10.3.57,2.53,1.46,6.02,2.67,10.47.64-2.16,1.57-5.67,2.8-10.53.57-2.62,1.22-6.03,1.95-10.23h11.9Z"/><ellipse class="cls-1" cx="637.96" cy="515.53" rx="64.95" ry="69.14"/><path class="cls-1" d="m584.87,523.7l-31.3-21.81-32.23,54.1s-.77,6.3-4.12,5.75-13.37-2.65-13.37-2.65c0,0-8.28-2.01-4.16-6.13,4.12-4.12,7.73-2.19,7.73-2.19l4.38,1.1,34.02-58.72s3.9-8.94,7.75-6.94,34.49,21.56,34.49,21.56l7.5,4.04-3.81,12.04-6.89-.14Z"/><path class="cls-1" d="m595.02,495.79l-40.41-18.86-41.61,46.77s-1,5.45-5.32,4.97c-4.33-.47-17.25-2.29-17.25-2.29,0,0-5.3-1.25-5.37-5.3s9.98-1.9,9.98-1.9l5.66.95,43.92-50.76s5.03-7.73,10-6,44.53,18.63,44.53,18.63l9.68,3.49-4.92,10.41-8.89-.12Z"/><path class="cls-1" d="m687.34,495.79l40.41-18.86,41.61,46.77s1,5.45,5.32,4.97c4.33-.47,17.25-2.29,17.25-2.29,0,0,5.3-1.25,5.37-5.3.07-4.04-9.98-1.9-9.98-1.9l-5.66.95-43.92-50.76s-5.03-7.73-10-6-44.53,18.63-44.53,18.63l-9.68,3.49,4.92,10.41,8.89-.12Z"/><path class="cls-1" d="m694.92,523.73l31.3-21.81,32.23,54.1s.77,6.3,4.12,5.75c3.35-.55,13.37-2.65,13.37-2.65,0,0,8.28-2.01,4.16-6.13-4.12-4.12-7.73-2.19-7.73-2.19l-4.38,1.1-34.02-58.72s-3.9-8.94-7.75-6.94c-3.85,2-34.49,21.56-34.49,21.56l-7.5,4.04,3.81,12.04,6.89-.14Z"/><path class="cls-1" d="m680.62,564.79l38.66-50.76s3.61-7.41,7.22-4.39,4.51,7.41,4.51,7.41l14.86,47.75h10.59s5.36.54,4.07,3.84-4.53,4.65-4.53,4.65h-17.49s-5.82-1.91-4.53-6.3c1.29-4.39-9.28-40.2-9.28-40.2l-25,36.33-19.07,1.67Z"/><path class="cls-1" d="m604.34,567.99l-38.66-50.76s-3.61-7.41-7.22-4.39-4.51,7.41-4.51,7.41l-14.86,47.75h-10.59s-5.36.54-4.07,3.84,4.53,4.65,4.53,4.65h17.49s5.82-1.91,4.53-6.3,9.28-40.2,9.28-40.2l25,36.33,19.07,1.67Z"/><path class="cls-1" d="m639.38,448.72s18.69.86,30.67,8.18c11.98,7.32-25.64,42.85-25.64,42.85,0,0-6.44,7.27-6.7,0s1.68-51.03,1.68-51.03Z"/><path class="cls-1" d="m639.76,448.76s-18.69.86-30.67,8.18,25.64,42.85,25.64,42.85c0,0,6.44,7.27,6.7,0,.26-7.27-1.68-51.03-1.68-51.03Z"/><path class="cls-1" d="m661.77,570.51l45.88-29.22s10.05-6.86,10.18,0c.13,6.86-8.63,13.72-8.63,13.72l-50.75,30.23,3.32-14.73Z"/><path class="cls-1" d="m622.99,466.47l-2.05,8.89s-18.89,5.66-26.67,16.08c-7.79,10.42-8.46-.65-8.46-.65,0,0,5.78-13.13,37.18-24.32Z"/><path class="cls-1" d="m632.7,479.15l-2.05,8.89s-18.89,5.66-26.67,16.08c-7.79,10.42-8.46-.65-8.46-.65,0,0,5.78-13.13,37.18-24.32Z"/><path class="cls-1" d="m647.13,488.2l-2.05,8.89s-18.89,5.66-26.67,16.08c-7.79,10.42-8.46-.65-8.46-.65,0,0,5.78-13.13,37.18-24.32Z"/><path class="cls-1" d="m658.4,466.53l2.05,8.89s18.89,5.66,26.67,16.08c7.79,10.42,8.46-.65,8.46-.65,0,0-5.78-13.13-37.18-24.32Z"/><path class="cls-1" d="m648.61,479.15l2.05,8.89s18.89,5.66,26.67,16.08c7.79,10.42,8.46-.65,8.46-.65,0,0-5.78-13.13-37.18-24.32Z"/><path class="cls-1" d="m633.4,486.01l2.05,8.89s18.89,5.66,26.67,16.08c7.79,10.42,8.46-.65,8.46-.65,0,0-5.78-13.13-37.18-24.32Z"/><path class="cls-1" d="m620.31,570.62l-45.88-29.22s-10.05-6.86-10.18,0c-.13,6.86,8.63,13.72,8.63,13.72l50.75,30.23-3.32-14.73Z"/><ellipse class="cls-1" cx="638.99" cy="568.07" rx="30.67" ry="32.51"/><path class="cls-1" d="m615.82,573.46l-45.88-29.22s-10.05-6.86-10.18,0c-.13,6.86,0,47.88,0,47.88h-9.54s-4.25,1.78-2.96,4.53l1.29,2.74h18.11c4.82-3.57,1.73-7.13,1.73-7.13v-34.3s50.75,30.23,50.75,30.23l-3.32-14.73Z"/><ellipse class="cls-1" cx="639.12" cy="576.72" rx="30.67" ry="32.51"/><ellipse class="cls-1" cx="645.7" cy="571.23" rx="6.19" ry="7.13"/><ellipse class="cls-1" cx="631.26" cy="571.23" rx="6.19" ry="7.13"/><ellipse class="cls-1" cx="658.32" cy="564.13" rx="4.12" ry="4.36"/><ellipse class="cls-1" cx="619.15" cy="564.16" rx="4.12" ry="4.36"/><ellipse class="cls-1" cx="645.7" cy="571.14" rx="2.84" ry="3.1"/><ellipse class="cls-1" cx="631.26" cy="571.3" rx="2.84" ry="3.1"/><path class="cls-1" d="m632.03,584.81s5.19,8.95,12.12,0c0,0-6.28-1.93-12.12,0Z"/><path class="cls-1" d="m666.7,573.42l45.88-29.22s10.05-6.86,10.18,0c.13,6.86,0,47.88,0,47.88h9.54s4.25,1.78,2.96,4.53l-1.29,2.74h-18.11c-4.82-3.57-1.73-7.13-1.73-7.13v-34.3l-50.75,30.23,3.32-14.73Z"/><ellipse class="cls-26" cx="637.91" cy="519.53" rx="64.95" ry="69.14"/><path class="cls-26" d="m584.82,527.7l-31.3-21.81-32.23,54.1s-.77,6.3-4.12,5.75c-3.35-.55-13.37-2.65-13.37-2.65,0,0-8.28-2.01-4.16-6.13s7.73-2.19,7.73-2.19l4.38,1.1,34.02-58.72s3.9-8.94,7.75-6.94c3.85,2,34.49,21.56,34.49,21.56l7.5,4.04-3.81,12.04-6.89-.14Z"/><path class="cls-26" d="m594.96,499.79l-40.41-18.86-41.61,46.77s-1,5.45-5.32,4.97c-4.33-.47-17.25-2.29-17.25-2.29,0,0-5.3-1.25-5.37-5.3s9.98-1.9,9.98-1.9l5.66.95,43.92-50.76s5.03-7.73,10-6c4.97,1.73,44.53,18.63,44.53,18.63l9.68,3.49-4.92,10.41-8.89-.12Z"/><path class="cls-26" d="m687.29,499.79l40.41-18.86,41.61,46.77s1,5.45,5.32,4.97c4.33-.47,17.25-2.29,17.25-2.29,0,0,5.3-1.25,5.37-5.3.07-4.04-9.98-1.9-9.98-1.9l-5.66.95-43.92-50.76s-5.03-7.73-10-6c-4.97,1.73-44.53,18.63-44.53,18.63l-9.68,3.49,4.92,10.41,8.89-.12Z"/><path class="cls-26" d="m694.87,527.73l31.3-21.81,32.23,54.1s.77,6.3,4.12,5.75,13.37-2.65,13.37-2.65c0,0,8.28-2.01,4.16-6.13-4.12-4.12-7.73-2.19-7.73-2.19l-4.38,1.1-34.02-58.72s-3.9-8.94-7.75-6.94-34.49,21.56-34.49,21.56l-7.5,4.04,3.81,12.04,6.89-.14Z"/><path class="cls-26" d="m680.57,568.79l38.66-50.76s3.61-7.41,7.22-4.39c3.61,3.02,4.51,7.41,4.51,7.41l14.86,47.75h10.59s5.36.54,4.07,3.84-4.53,4.65-4.53,4.65h-17.49s-5.82-1.91-4.53-6.3c1.29-4.39-9.28-40.2-9.28-40.2l-25,36.33-19.07,1.67Z"/><path class="cls-26" d="m604.29,571.99l-38.66-50.76s-3.61-7.41-7.22-4.39c-3.61,3.02-4.51,7.41-4.51,7.41l-14.86,47.75h-10.59s-5.36.54-4.07,3.84c1.29,3.29,4.53,4.65,4.53,4.65h17.49s5.82-1.91,4.53-6.3c-1.29-4.39,9.28-40.2,9.28-40.2l25,36.33,19.07,1.67Z"/><path class="cls-29" d="m639.33,452.72s18.69.86,30.67,8.18c11.98,7.32-25.64,42.85-25.64,42.85,0,0-6.44,7.27-6.7,0-.26-7.27,1.68-51.03,1.68-51.03Z"/><path class="cls-29" d="m639.71,452.76s-18.69.86-30.67,8.18c-11.98,7.32,25.64,42.85,25.64,42.85,0,0,6.44,7.27,6.7,0s-1.68-51.03-1.68-51.03Z"/><path class="cls-29" d="m661.72,574.51l45.88-29.22s10.05-6.86,10.18,0c.13,6.86-8.63,13.72-8.63,13.72l-50.75,30.23,3.32-14.73Z"/><path class="cls-29" d="m622.93,470.47l-2.05,8.89s-18.89,5.66-26.67,16.08c-7.79,10.42-8.46-.65-8.46-.65,0,0,5.78-13.13,37.18-24.32Z"/><path class="cls-29" d="m632.64,483.15l-2.05,8.89s-18.89,5.66-26.67,16.08-8.46-.65-8.46-.65c0,0,5.78-13.13,37.18-24.32Z"/><path class="cls-29" d="m647.08,492.2l-2.05,8.89s-18.89,5.66-26.67,16.08-8.46-.65-8.46-.65c0,0,5.78-13.13,37.18-24.32Z"/><path class="cls-29" d="m658.35,470.53l2.05,8.89s18.89,5.66,26.67,16.08,8.46-.65,8.46-.65c0,0-5.78-13.13-37.18-24.32Z"/><path class="cls-29" d="m648.55,483.15l2.05,8.89s18.89,5.66,26.67,16.08c7.79,10.42,8.46-.65,8.46-.65,0,0-5.78-13.13-37.18-24.32Z"/><path class="cls-29" d="m633.35,490.01l2.05,8.89s18.89,5.66,26.67,16.08c7.79,10.42,8.46-.65,8.46-.65,0,0-5.78-13.13-37.18-24.32Z"/><path class="cls-29" d="m620.25,574.62l-45.88-29.22s-10.05-6.86-10.18,0c-.13,6.86,8.63,13.72,8.63,13.72l50.75,30.23-3.32-14.73Z"/><ellipse class="cls-29" cx="638.94" cy="572.07" rx="30.67" ry="32.51"/><path class="cls-26" d="m615.77,577.46l-45.88-29.22s-10.05-6.86-10.18,0c-.13,6.86,0,47.88,0,47.88h-9.54s-4.25,1.78-2.96,4.53l1.29,2.74h18.11c4.82-3.57,1.73-7.13,1.73-7.13v-34.3s50.75,30.23,50.75,30.23l-3.32-14.73Z"/><ellipse class="cls-26" cx="639.07" cy="580.72" rx="30.67" ry="32.51"/><ellipse class="cls-10" cx="645.64" cy="575.23" rx="6.19" ry="7.13"/><ellipse class="cls-10" cx="631.21" cy="575.23" rx="6.19" ry="7.13"/><ellipse class="cls-10" cx="658.27" cy="568.13" rx="4.12" ry="4.36"/><ellipse class="cls-10" cx="619.1" cy="568.16" rx="4.12" ry="4.36"/><ellipse class="cls-6" cx="645.64" cy="575.14" rx="2.84" ry="3.1"/><ellipse class="cls-6" cx="631.21" cy="575.3" rx="2.84" ry="3.1"/><path class="cls-27" d="m631.98,588.81s5.19,8.95,12.12,0c0,0-6.28-1.93-12.12,0Z"/><path class="cls-26" d="m666.65,577.42l45.88-29.22s10.05-6.86,10.18,0c.13,6.86,0,47.88,0,47.88h9.54s4.25,1.78,2.96,4.53l-1.29,2.74h-18.11c-4.82-3.57-1.73-7.13-1.73-7.13v-34.3l-50.75,30.23,3.32-14.73Z"/><path class="cls-23" d="m785.42,771.86c.05,0-3.53-19.77,14.79-32.45,18.32-12.68,12.78-13.03,11.54-25.67-1.23-12.64,3.75-21.57,10.1-19.68s10.45,32.41,10.45,32.41c0,0,.94,13.68-14.54,21.81-5.92,3.15-12.75,17.41-12.75,17.41,0,0-2.29,16.38-3.9,14.26"/><path class="cls-23" d="m659.2,821.46h143.84s15.53-1.51,15.86-14.34c.32-12.83-17.23-14.49-17.23-14.49h-142.47s-11.22,2.28-10.98,14.41,10.98,14.41,10.98,14.41Z"/><path class="cls-23" d="m670.85,792.64h120.15s12.98-1.51,13.25-14.34-14.39-14.49-14.39-14.49h-119.01s-9.37,2.28-9.17,14.41c.2,12.13,9.17,14.41,9.17,14.41Z"/><path class="cls-23" d="m683.03,763.81h92.82s10.02-1.51,10.23-14.34c.21-12.83-11.12-14.49-11.12-14.49h-91.93s-7.24,2.28-7.08,14.41c.16,12.13,7.08,14.41,7.08,14.41Z"/><path class="cls-23" d="m715.29,735.09s-1.37-30.07,9.16-37.53c10.53-7.47,26.22,1.24,34.07-8.92,7.85-10.16-6.81-19.7-6.81-19.7h-47.84s-15.96,2.7-15.75-12.86c.21-15.55,14.66-12.23,14.66-12.23l49.39-.3s34.23-2.07,33.92,41.72-36.65,18.29-39.75,31.56c-3.1,13.27-1.92,18.25-1.92,18.25h-29.13Z"/><path class="cls-28" d="m786.85,765.73s-2.02-18.25,14.39-28.82c16.42-10.58,11.67-11.2,11.25-22.81-.41-11.61,4.34-19.49,9.7-17.42,5.37,2.07,7.33,30.17,7.33,30.17,0,0,.1,12.55-13.64,19.12-5.26,2.55-11.86,15.2-11.86,15.2,0,0-2.81,14.83-4.09,12.81"/><path class="cls-23" d="m655.15,824h151.73s16.39-1.6,16.73-15.2c.34-13.6-18.17-15.35-18.17-15.35h-150.28s-11.84,2.42-11.58,15.28,11.58,15.28,11.58,15.28Z"/><path class="cls-23" d="m667.44,793.45h126.74s13.69-1.6,13.97-15.2c.28-13.6-15.18-15.35-15.18-15.35h-125.53s-9.89,2.42-9.67,15.28c.21,12.86,9.67,15.28,9.67,15.28Z"/><path class="cls-23" d="m680.28,762.9h97.91s10.57-1.6,10.79-15.2-11.73-15.35-11.73-15.35h-96.97s-7.64,2.42-7.47,15.28c.17,12.86,7.47,15.28,7.47,15.28Z"/><path class="cls-28" d="m711.87,733.59s-1.37-30.07,9.16-37.53c10.53-7.47,26.22,1.24,34.07-8.92,7.85-10.16-6.81-19.7-6.81-19.7h-47.84s-15.96,2.7-15.75-12.86c.21-15.55,14.66-12.23,14.66-12.23l49.39-.3s34.23-2.07,33.92,41.72-36.65,18.29-39.75,31.56c-3.1,13.27-1.92,18.25-1.92,18.25h-29.13Z"/><ellipse class="cls-19" cx="694.91" cy="647.01" rx="3.2" ry="3.21"/><path class="cls-3" d="m687.42,660.6s-4.72,3.9-12.18,3.22c-7.46-.68-17.17-2.57-17.17-2.57l-6.19-.66,2.58,1.65h-6.98l5.5,1.65s11.93,3.35,22.25,3.15,16.37-3.8,16.37-3.8c0,0-4.19-2.61-4.19-2.65Z"/><circle class="cls-31" cx="688.51" cy="654.68" r=".72"/><ellipse class="cls-6" cx="696.46" cy="646.91" rx="1.45" ry="1.45"/><path class="cls-28" d="m682.91,762.62h92.82s10.02-1.51,10.23-14.34c.21-12.83-11.12-14.49-11.12-14.49h-91.93s-7.24,2.28-7.08,14.41c.16,12.13,7.08,14.41,7.08,14.41Z"/><path class="cls-28" d="m670.83,792.69h120.15s12.98-1.51,13.25-14.34c.27-12.83-14.39-14.49-14.39-14.49h-119.01s-9.37,2.28-9.17,14.41c.2,12.13,9.17,14.41,9.17,14.41Z"/><path class="cls-28" d="m658.58,823.17h143.84s15.53-1.51,15.86-14.34c.32-12.83-17.23-14.49-17.23-14.49h-142.47s-11.22,2.28-10.98,14.41,10.98,14.41,10.98,14.41Z"/><path class="cls-20" d="m542.33,357.87h178.44s7.69-103.04-89.22-103.59c-96.91-.55-89.22,103.59-89.22,103.59Z"/><path class="cls-20" d="m546.92,367.21h141.86s6.11-86.25-70.93-86.7c-77.04-.46-70.93,86.7-70.93,86.7Z"/><ellipse class="cls-20" cx="524.85" cy="266.52" rx="11.76" ry="12.51"/><ellipse class="cls-20" cx="508.58" cy="267.09" rx="11.76" ry="12.51"/><path class="cls-20" d="m680.21,402.25s15.11,1.68,15.44-4.02c.32-5.7,0-47.46,0-47.46,0,0-11.49-17.96-20.7,0,0,0-5.26,23.71,0,44.3,0,0,.44,6.85,5.26,7.18Z"/><path class="cls-20" d="m546.14,403.1s15.11,1.68,15.44-4.02,0-47.46,0-47.46c0,0-11.49-17.96-20.7,0,0,0-5.26,23.71,0,44.3,0,0,.44,6.85,5.26,7.18Z"/><path class="cls-20" d="m571.8,408.96s16.84,1.76,17.2-4.22c.36-5.98,0-49.8,0-49.8,0,0-12.8-18.84-23.06,0,0,0-5.86,24.87,0,46.48,0,0,.49,7.19,5.86,7.54Z"/><path class="cls-13" d="m679.5,320.43s21.11,6.32,40.66-9.81c19.55-16.12,23.59,5.36,8.22,11.89-15.37,6.53-31.98,16.32-54.13,16.07-22.15-.25,5.24-18.15,5.24-18.15Z"/><path class="cls-13" d="m548.09,399.86s14.78,1.59,15.09-3.81c.31-5.4,0-44.97,0-44.97,0,0-11.23-17.02-20.24,0,0,0-5.14,22.46,0,41.98,0,0,.43,6.49,5.14,6.81Z"/><path class="cls-13" d="m686.33,399.81s14.78,1.59,15.09-3.81c.31-5.4,0-44.97,0-44.97,0,0-11.23-17.02-20.24,0,0,0-5.14,22.46,0,41.98,0,0,.43,6.49,5.14,6.81Z"/><path class="cls-13" d="m544.02,365.91h175.47s7.56-109.63-87.74-110.21c-95.29-.58-87.74,110.21-87.74,110.21Z"/><path class="cls-13" d="m702.21,402.96s16.84,1.76,17.2-4.22c.36-5.98,0-49.8,0-49.8,0,0-12.8-18.84-23.06,0,0,0-5.86,24.87,0,46.48,0,0,.49,7.19,5.86,7.54Z"/><path class="cls-20" d="m581.13,268.66s49.72-31.71,100.58,0c0,0-20.96,28.18-50.29,28.74-29.32.56-50.29-28.74-50.29-28.74Z"/><path class="cls-20" d="m707.21,295.31s-37.04,5.75-30.76,15.49c6.28,9.74,39.55,4.81,39.55,4.81l-8.79-20.3Z"/><path class="cls-20" d="m555.88,301.57s28.27-2.31,28.28,9.23c.01,11.54-35.44,10.87-35.44,10.87l7.16-20.1Z"/><ellipse class="cls-20" cx="530.56" cy="293.9" rx="32.9" ry="35.37"/><ellipse class="cls-13" cx="528.46" cy="293.75" rx="32.76" ry="34.92"/><ellipse class="cls-13" cx="506.97" cy="267.01" rx="9.75" ry="10.39"/><ellipse class="cls-13" cx="524.49" cy="266.68" rx="10.14" ry="10.87"/><ellipse class="cls-19" cx="524.22" cy="270.09" rx="6.22" ry="6.71"/><ellipse class="cls-19" cx="507.02" cy="270.16" rx="6.22" ry="6.71"/><path class="cls-13" d="m516.96,269.4h16.52s-.14-9.63-8.26-9.88c-8.12-.25-8.26,9.88-8.26,9.88Z"/><path class="cls-13" d="m498.2,269.42h16.52s-.14-10.82-8.26-11.1c-8.12-.28-8.26,11.1-8.26,11.1Z"/><ellipse class="cls-6" cx="524.23" cy="272.31" rx="2.15" ry="2.23"/><ellipse class="cls-6" cx="506.46" cy="272.27" rx="2.15" ry="2.23"/><path class="cls-27" d="m508.29,302.65s6.31,12.18,14.73,0c0,0-7.63-2.62-14.73,0Z"/><path class="cls-20" d="m631.76,329.27s53.63.57,42.5,9.32c-11.12,8.75-24.15,15.45-42.83,15.56-18.69.11-40.36-5.3-40.72-13.58-.36-8.28,41.05-11.29,41.05-11.29Z"/><path class="cls-20" d="m566.76,409.04s16.84,1.76,17.2-4.22,0-49.8,0-49.8c0,0-12.8-18.84-23.06,0,0,0-5.86,24.87,0,46.48,0,0,.49,7.19,5.86,7.54Z"/><path class="cls-13" d="m569.5,407.06s16.84,1.76,17.2-4.22c.36-5.98,0-49.8,0-49.8,0,0-12.8-18.84-23.06,0,0,0-5.86,24.87,0,46.48,0,0,.49,7.19,5.86,7.54Z"/><path class="cls-20" d="m705.86,408.11s16.84,1.76,17.2-4.22c.36-5.98,0-49.8,0-49.8,0,0-12.8-18.84-23.06,0,0,0-5.86,24.87,0,46.48,0,0,.49,7.19,5.86,7.54Z"/><path class="cls-13" d="m682.16,399.01s14.78,1.59,15.09-3.81c.31-5.4,0-44.97,0-44.97,0,0-11.23-17.02-20.24,0,0,0-5.14,22.46,0,41.98,0,0,.43,6.49,5.14,6.81Z"/><path class="cls-20" d="m700.82,408.2s16.84,1.76,17.2-4.22,0-49.8,0-49.8c0,0-12.8-18.84-23.06,0,0,0-5.86,24.87,0,46.48,0,0,.49,7.19,5.86,7.54Z"/><path class="cls-13" d="m703.56,406.22s16.84,1.76,17.2-4.22c.36-5.98,0-49.8,0-49.8,0,0-12.8-18.84-23.06,0,0,0-5.86,24.87,0,46.48,0,0,.49,7.19,5.86,7.54Z"/><path class="cls-17" d="m575,171.34l4.67,8.69s-15.92,16.1-16.23,29.52c-.31,13.41-9.6,4.54-9.6,4.54,0,0-3.94-14.48,21.15-42.74Z"/><path class="cls-17" d="m577.34,127.24s-15.74-2.84-23.76-18.49c-8.02-15.65-17.08-4.18-8.95,4.48,8.13,8.66,16.12,19.64,30.73,26.39,14.61,6.76,1.98-12.39,1.98-12.39Z"/><path class="cls-17" d="m581.48,178.66l5.93,7.93s-13.33,18.18-11.63,31.49c1.7,13.31-8.81,5.84-8.81,5.84,0,0-6.07-13.77,14.52-45.27Z"/><path class="cls-17" d="m570.71,157.7l2.87,9.4s-18.8,12.85-21.76,25.95-10.31,2.67-10.31,2.67c0,0-1.01-14.95,29.2-38.01Z"/><path class="cls-17" d="m562.11,145.98l2.87,9.4s-18.8,12.85-21.76,25.95c-2.95,13.11-10.31,2.67-10.31,2.67,0,0-1.01-14.95,29.2-38.01Z"/><path class="cls-17" d="m697.58,173.31l-4.67,8.69s15.92,16.1,16.23,29.52,9.6,4.54,9.6,4.54c0,0,3.94-14.48-21.15-42.74Z"/><path class="cls-17" d="m691.1,180.63l-5.93,7.93s13.33,18.18,11.63,31.49,8.81,5.84,8.81,5.84c0,0,6.07-13.77-14.52-45.27Z"/><path class="cls-17" d="m701.88,159.67l-2.87,9.4s18.8,12.85,21.76,25.95c2.95,13.11,10.31,2.67,10.31,2.67,0,0,1.01-14.95-29.2-38.01Z"/><path class="cls-17" d="m710.47,147.95l-2.87,9.4s18.8,12.85,21.76,25.95c2.95,13.11,10.31,2.67,10.31,2.67,0,0,1.01-14.95-29.2-38.01Z"/><path class="cls-17" d="m521.23,110.4s27.01,14.15,30.79,6.29c3.78-7.86,11.44-25.26-13.96-37.45-25.4-12.19-36.76,3.86-36.76,3.86l-1.87,3.46s-4.19,6.29,18.58,9.17c0,0,2.78.7.77,3.25s-10.02,2.18-10.02,2.18c0,0-3.33-1.04-2.38,1.69s2.01,3.97,4,5.84,4.79,1.95,10.85,1.71Z"/><path class="cls-17" d="m698.07,127.3s15.74-2.84,23.76-18.49c8.02-15.65,17.08-4.18,8.95,4.48-8.13,8.66-16.12,19.64-30.73,26.39-14.61,6.76-1.98-12.39-1.98-12.39Z"/><path class="cls-17" d="m754.18,110.46s-27.01,14.15-30.79,6.29c-3.78-7.86-11.44-25.26,13.96-37.45s36.76,3.86,36.76,3.86l1.87,3.46s4.19,6.29-18.58,9.17c0,0-2.78.7-.77,3.25s10.02,2.18,10.02,2.18c0,0,3.33-1.04,2.38,1.69s-2.01,3.97-4,5.84c-1.99,1.87-4.79,1.95-10.85,1.71Z"/><ellipse class="cls-17" cx="637.89" cy="147.88" rx="88.19" ry="51.73"/><ellipse class="cls-17" cx="617.53" cy="96.05" rx="17.8" ry="17.28"/><ellipse class="cls-17" cx="656" cy="96.05" rx="17.8" ry="17.28"/><ellipse class="cls-17" cx="656.1" cy="96.15" rx="8.9" ry="8.64"/><ellipse class="cls-17" cx="617.63" cy="96.15" rx="8.9" ry="8.64"/><ellipse class="cls-17" cx="656" cy="96.05" rx="4.5" ry="4.37"/><ellipse class="cls-17" cx="617.53" cy="96.05" rx="4.5" ry="4.37"/><path class="cls-17" d="m626.53,122.79s6.92,13.23,16.15,0c0,0-8.37-2.85-16.15,0Z"/><path class="cls-4" d="m575.27,170.79l4.57,8.46s-15.58,15.69-15.88,28.76c-.3,13.07-9.39,4.42-9.39,4.42,0,0-3.86-14.11,20.7-41.64Z"/><path class="cls-4" d="m577.56,127.82s-15.41-2.77-23.25-18.01c-7.85-15.25-16.72-4.07-8.76,4.37,7.96,8.44,15.77,19.13,30.07,25.72,14.3,6.58,1.94-12.07,1.94-12.07Z"/><path class="cls-4" d="m581.61,177.92l5.8,7.73s-13.05,17.71-11.38,30.68c1.67,12.97-8.63,5.69-8.63,5.69,0,0-5.94-13.41,14.21-44.11Z"/><path class="cls-4" d="m571.07,157.5l2.81,9.15s-18.4,12.52-21.29,25.28c-2.89,12.77-10.09,2.6-10.09,2.6,0,0-.99-14.56,28.57-37.04Z"/><path class="cls-4" d="m562.66,146.09l2.81,9.15s-18.4,12.52-21.29,25.28-10.09,2.6-10.09,2.6c0,0-.99-14.56,28.57-37.04Z"/><path class="cls-4" d="m695.23,172.71l-4.57,8.46s15.58,15.69,15.88,28.76c.3,13.07,9.39,4.42,9.39,4.42,0,0,3.86-14.11-20.7-41.64Z"/><path class="cls-4" d="m688.88,179.84l-5.8,7.73s13.05,17.71,11.38,30.68c-1.67,12.97,8.63,5.69,8.63,5.69,0,0,5.94-13.41-14.21-44.11Z"/><path class="cls-4" d="m699.43,159.42l-2.81,9.15s18.4,12.52,21.29,25.28c2.89,12.77,10.09,2.6,10.09,2.6,0,0,.99-14.56-28.57-37.04Z"/><path class="cls-4" d="m707.84,148.01l-2.81,9.15s18.4,12.52,21.29,25.28c2.89,12.77,10.09,2.6,10.09,2.6,0,0,.99-14.56-28.57-37.04Z"/><path class="cls-4" d="m695.7,127.88s15.41-2.77,23.25-18.01c7.85-15.25,16.72-4.07,8.76,4.37-7.96,8.44-15.77,19.13-30.07,25.72s-1.94-12.07-1.94-12.07Z"/><path class="cls-4" d="m750.61,111.48s-26.43,13.79-30.13,6.13c-3.7-7.66-11.2-24.61,13.66-36.49,24.86-11.87,35.97,3.76,35.97,3.76l1.83,3.38s4.1,6.13-18.18,8.94c0,0-2.72.68-.76,3.16,1.96,2.48,9.81,2.12,9.81,2.12,0,0,3.26-1.01,2.33,1.64s-1.97,3.87-3.92,5.69c-1.95,1.82-4.69,1.9-10.61,1.66Z"/><ellipse class="cls-4" cx="636.81" cy="147.94" rx="86.3" ry="50.4"/><ellipse class="cls-4" cx="616.89" cy="97.44" rx="17.42" ry="16.83"/><ellipse class="cls-4" cx="654.53" cy="97.44" rx="17.42" ry="16.83"/><ellipse class="cls-9" cx="654.63" cy="97.54" rx="8.71" ry="8.42"/><ellipse class="cls-9" cx="616.99" cy="97.54" rx="8.71" ry="8.42"/><ellipse class="cls-27" cx="654.53" cy="97.44" rx="4.4" ry="4.26"/><ellipse class="cls-27" cx="616.89" cy="97.44" rx="4.4" ry="4.26"/><path class="cls-27" d="m625.7,123.49s6.77,12.89,15.8,0c0,0-8.19-2.78-15.8,0Z"/><path class="cls-4" d="m522.65,111.42s26.43,13.79,30.13,6.13c3.7-7.66,11.2-24.61-13.66-36.49-24.86-11.87-35.97,3.76-35.97,3.76l-1.83,3.38s-4.1,6.13,18.18,8.94c0,0,2.72.68.76,3.16s-9.81,2.12-9.81,2.12c0,0-3.26-1.01-2.33,1.64s1.97,3.87,3.92,5.69,4.69,1.9,10.61,1.66Z"/><path class="cls-25" d="m554.07,164.17s17.67,35.42,82.46,35.49c64.79.07,86.3-38.92,86.3-38.92l2.87-9.07s-96.55,26.11-174.99,2.88l3.37,9.62Z"/><path class="cls-5" d="m879.55,138.34l-.68,7.73h-25.58l-.68-7.73h26.95Zm-1.09,12.97l-.72,7.93h-23.32l-.62-7.93h24.66Z"/><path class="cls-5" d="m922.64,151.81l-1.54,10.17h-17.44l-1.68-10.17h20.65Z"/><path class="cls-5" d="m952.49,122.38c-.16,4.53-.4,12.59-.72,24.17-.11,5.78-.23,14.86-.34,27.23h-15.22c.04-6.87-.02-13.25-.21-19.17-.05-1.73-.16-6.42-.34-14.07-.39.07-1.23.24-2.53.53-.68.16-1.49.41-2.43.77l-3.25-11.2c2.58-1.07,7.14-3.08,13.68-6.03,2.03-.96,4.71-2.31,8.04-4.07l3.32,1.83Z"/><path class="cls-5" d="m1006.83,163.61c-.23.89-.65,2.57-1.27,5.03-.32,1.44-.59,3.13-.82,5.07h-30.95c-.11-5.22-.4-13.82-.86-25.8-.3-6.13-.83-14.6-1.61-25.4h23.73l-1.95,42.47c2.21,0,5.53-.23,9.95-.7.91-.09,2.17-.31,3.76-.67Z"/><path class="cls-5" d="m1032.17,122.51l-1.33,27.23c-.25,5.87-.55,13.86-.89,23.97h-19.18l-2.33-51.2h23.73Z"/><path class="cls-5" d="m1079.02,122.51c-1.89,5.47-4.92,14.39-9.1,26.77-1.92,5.82-4.39,13.97-7.42,24.43h-11.9c-1.53-5.07-4.08-13.34-7.66-24.83-2.03-6.36-5.04-15.14-9.03-26.37h24.18c.23,2.11.76,5.54,1.61,10.3.57,2.53,1.46,6.02,2.67,10.47.64-2.16,1.57-5.67,2.8-10.53.57-2.62,1.22-6.03,1.95-10.23h11.9Z"/><path class="cls-18" d="m855.13,914.2v51.04s-159.32-.03-159.32-.03c0,0-15.25,4.25-15.74-25.49-.49-29.74,15.76-25.52,15.76-25.52h159.3Z"/><path class="cls-18" d="m1041.93,911.69v45.33l159.32-.02s15.25,3.77,15.74-22.64c.49-26.41-15.76-22.67-15.76-22.67h-159.3Z"/><path class="cls-18" d="m846.34,894.34v65.61l202.92-.04s19.43,5.46,20.05-32.77c.62-38.23-20.08-32.8-20.08-32.8h-202.9Z"/><ellipse class="cls-18" cx="916.86" cy="957.18" rx="15.79" ry="8.44"/><ellipse class="cls-18" cx="1006.23" cy="956.99" rx="15.79" ry="8.44"/><path class="cls-12" d="m1041.79,917.07v45.33l159.32-.02s15.25,3.77,15.74-22.64c.49-26.41-15.76-22.67-15.76-22.67h-159.3Z"/><path class="cls-12" d="m846.2,899.72v65.61l202.92-.04s19.43,5.46,20.05-32.77-20.08-32.8-20.08-32.8h-202.9Z"/><ellipse class="cls-18" cx="916.73" cy="962.56" rx="15.79" ry="8.44"/><ellipse class="cls-18" cx="1006.09" cy="962.36" rx="15.79" ry="8.44"/><ellipse class="cls-18" cx="849.02" cy="908.45" rx="46.97" ry="61.81"/><ellipse class="cls-18" cx="846.52" cy="903.81" rx="46.97" ry="61.81"/><path class="cls-18" d="m804.63,866.88h21.4s-.18,12.52-10.7,12.85-10.7-12.85-10.7-12.85Z"/><ellipse class="cls-18" cx="833.63" cy="866.91" rx="10.14" ry="12.85"/><path class="cls-18" d="m822.89,867.02h21.4s-.18,12.52-10.7,12.85c-10.52.33-10.7-12.85-10.7-12.85Z"/><ellipse class="cls-18" cx="812.95" cy="872.96" rx="2.56" ry="3.3"/><ellipse class="cls-18" cx="831.05" cy="873.08" rx="2.56" ry="3.3"/><ellipse class="cls-12" cx="846.38" cy="909.19" rx="46.97" ry="61.81"/><ellipse class="cls-18" cx="707.38" cy="916.77" rx="10.14" ry="12.85"/><ellipse class="cls-18" cx="707.23" cy="916.96" rx="5.6" ry="7.46"/><path class="cls-12" d="m854.99,919.57v51.04s-159.32-.03-159.32-.03c0,0-15.25,4.25-15.74-25.49s15.76-25.52,15.76-25.52h159.3Z"/><ellipse class="cls-12" cx="707.24" cy="922.15" rx="10.14" ry="12.85"/><ellipse class="cls-18" cx="707.09" cy="922.34" rx="5.6" ry="7.46"/><path class="cls-27" d="m680.09,947.69s60.93,35.7,142.17,0c0,0-73.71-7.69-142.17,0Z"/><polygon class="cls-10" points="712.73 947.17 720.55 963.55 728.69 947.17 712.73 947.17"/><polygon class="cls-10" points="731.96 947.17 739.77 963.55 747.91 947.17 731.96 947.17"/><polygon class="cls-10" points="751.9 947.17 759.72 963.55 767.86 947.17 751.9 947.17"/><polygon class="cls-10" points="772.21 947.17 780.03 963.55 788.17 947.17 772.21 947.17"/><polygon class="cls-10" points="694.9 946.92 702.72 963.31 710.86 946.92 694.9 946.92"/><ellipse class="cls-18" cx="834.85" cy="869.74" rx="10.14" ry="12.85"/><ellipse class="cls-18" cx="815.11" cy="870.71" rx="10.88" ry="13.65"/><ellipse class="cls-12" cx="814.51" cy="872.15" rx="10.14" ry="12.85"/><path class="cls-19" d="m804.49,871.95h21.4s-.18,12.52-10.7,12.85-10.7-12.85-10.7-12.85Z"/><ellipse class="cls-6" cx="813.18" cy="876.35" rx="2.56" ry="3.3"/><ellipse class="cls-12" cx="834.22" cy="872.29" rx="10.14" ry="12.85"/><path class="cls-19" d="m822.76,871.95h21.4s-.18,12.52-10.7,12.85-10.7-12.85-10.7-12.85Z"/><ellipse class="cls-6" cx="832.37" cy="877.47" rx="2.56" ry="3.3"/><path class="cls-5" d="m1110.23,868.67l-.68,7.73h-25.58l-.68-7.73h26.95Zm-1.09,12.97l-.72,7.93h-23.32l-.62-7.93h24.66Z"/><path class="cls-5" d="m1153.59,852.83l-1.33,27.23c-.25,5.87-.55,13.86-.89,23.97h-19.18l-2.33-51.2h23.73Z"/><path class="cls-5" d="m1214.46,852.83c-1.89,5.47-4.92,14.39-9.1,26.77-1.92,5.82-4.39,13.97-7.42,24.43h-11.9c-1.53-5.07-4.08-13.34-7.66-24.83-2.03-6.36-5.04-15.14-9.03-26.37h24.18c.23,2.11.76,5.54,1.61,10.3.57,2.53,1.46,6.02,2.67,10.47.64-2.16,1.57-5.67,2.8-10.53.57-2.62,1.22-6.03,1.95-10.23h11.9Z"/><path class="cls-5" d="m1252.15,852.83l-1.47,21.1c-.84-.13-2.67-.37-5.47-.7-1.92-.18-4.01-.29-6.29-.33l-.51,6.37c2.51.07,6.6.01,12.28-.17-.25.82-.65,2.36-1.2,4.6-.32,1.36-.6,2.92-.86,4.7-.66-.16-2.31-.36-4.96-.6-1.23-.07-3.06-.09-5.47-.07l-.34,7.43c1.71-.02,4.86-.17,9.44-.43.87-.07,2.29-.33,4.27-.8-.18.69-.6,2.34-1.27,4.97-.32,1.36-.71,3.07-1.16,5.13h-30.61l-.99-26.13c-.18-5.98-.63-14.33-1.33-25.07h35.94Z"/><path class="cls-5" d="m1283.95,852.83c-.27,4.2-.65,11.73-1.13,22.6-.32,9.13-.39,17.19-.21,24.17-4.99,3.69-10.51,5.53-16.55,5.53-3.28,0-6.8-.37-10.57-1.1-.09-.91-.3-2.52-.62-4.83-.21-1.24-.49-2.96-.86-5.13.71.31,2.51.79,5.4,1.43,1.53.25,2.95.27,4.27.07-.02-2.22-.38-8.93-1.06-20.13-.43-6.22-1.2-13.75-2.29-22.6h23.6Z"/><path class="cls-5" d="m1322.69,852.83l-1.47,21.1c-.84-.13-2.67-.37-5.47-.7-1.92-.18-4.01-.29-6.29-.33l-.51,6.37c2.51.07,6.6.01,12.28-.17-.25.82-.65,2.36-1.2,4.6-.32,1.36-.6,2.92-.86,4.7-.66-.16-2.31-.36-4.96-.6-1.23-.07-3.06-.09-5.47-.07l-.34,7.43c1.71-.02,4.86-.17,9.44-.43.87-.07,2.29-.33,4.27-.8-.18.69-.6,2.34-1.27,4.97-.32,1.36-.71,3.07-1.16,5.13h-30.61l-.99-26.13c-.18-5.98-.63-14.33-1.33-25.07h35.94Z"/><path class="cls-5" d="m1367.66,852.83c-.32,4.49-.76,12.32-1.33,23.5-.34,8.22-.63,17.68-.85,28.37-2.99-2.29-7.54-5.7-13.64-10.23-2.64-1.8-6.59-4.5-11.83-8.1l-.34,17.67h-11.01c-.18-4.51-.6-13.02-1.26-25.53-.57-10.13-1.15-18.69-1.74-25.67h17.17l12.72,11.73c0-2.69-.05-4.8-.14-6.33-.07-1.35-.21-3.15-.41-5.4h12.69Z"/></svg>