<?xml version="1.0" encoding="UTF-8"?><svg id="Layer_1" xmlns="http://www.w3.org/2000/svg" width="1920" height="1080" viewBox="0 0 1920 1080"><defs><style>.cls-1{fill:#614b47;}.cls-1,.cls-2,.cls-3,.cls-4,.cls-5,.cls-6,.cls-7,.cls-8,.cls-9,.cls-10,.cls-11,.cls-12,.cls-13,.cls-14,.cls-15,.cls-16,.cls-17,.cls-18,.cls-19,.cls-20,.cls-21,.cls-22,.cls-23,.cls-24,.cls-25,.cls-26,.cls-27,.cls-28,.cls-29,.cls-30{stroke-width:0px;}.cls-2{fill:#de9562;}.cls-3{fill:#e97600;}.cls-4{fill:#c97a79;}.cls-5{fill:#ebffd4;}.cls-7{fill:#e59f71;}.cls-8{fill:#ac7755;}.cls-9{fill:#f4fffe;}.cls-10{fill:#fffbe9;}.cls-11{fill:#576d5c;}.cls-12{fill:#7f976b;}.cls-13{fill:#b1c87c;}.cls-14{fill:gray;}.cls-15{fill:#b0cfe3;}.cls-16{fill:#f3b46f;}.cls-17{fill:#976665;}.cls-18{fill:#5f7150;}.cls-19{fill:#fff;}.cls-20{fill:#85965d;}.cls-21{fill:#59483a;}.cls-22{fill:#915932;}.cls-31{fill:#352600;stroke:#000;stroke-miterlimit:10;}.cls-23{fill:#996;}.cls-24{fill:#dfecf4;}.cls-25{fill:#975c5b;}.cls-26{fill:#846d69;}.cls-27{fill:#352000;}.cls-28{fill:#b5b46d;}.cls-29{fill:#81645f;}.cls-30{fill:#f5c38c;}</style></defs><rect class="cls-15" x="-7.04" y="-14" width="1948.51" height="234.06"/><path class="cls-22" d="m1097.32,274.19l537.16-26.7s-24.09-69.34-72.28-78.94c-48.19-9.6,14.17-57.62,14.17-57.62l-34.02-84.83s-7.99-12.81-52.18,0c-44.19,12.81-77.31-13.61-77.31-13.61,0,0-173.81-5.6-159.64,23.21,14.17,28.81-58.38,3.2-70.29,16.81-11.91,13.61-102.62,110.81-85.61,122.23,17.01,11.42,0,99.46,0,99.46Z"/><path class="cls-2" d="m1097.17,266.97l519.04-23.72s-23.28-61.6-69.84-70.13c-46.56-8.53,13.7-51.19,13.7-51.19l-32.87-75.36s-7.72-11.38-50.42,0c-42.7,11.38-74.7-12.09-74.7-12.09,0,0-167.95-4.98-154.26,20.62,13.7,25.6-56.41,2.84-67.92,14.93-11.51,12.09-99.16,98.44-82.73,108.59,16.43,10.15,0,88.36,0,88.36Z"/><rect class="cls-16" x="-7.04" y="208.72" width="1948.51" height="890.86"/><path class="cls-24" d="m-9.58,33.95h608.82s65.87,33.09,0,61.4H-9.58s-35.52-37.68,0-61.4Z"/><path class="cls-24" d="m668.3,85.17h432.86s46.84,21.29,0,39.51h-432.86s-25.25-24.25,0-39.51Z"/><path class="cls-24" d="m1604.23,34.16h432.86s46.84,21.29,0,39.51h-432.86s-25.25-24.25,0-39.51Z"/><path class="cls-2" d="m-61.11,1039.55s68.2-113.56,420.28-69.56c352.08,44,466.96,0,466.96,0,0,0,293.79-118.38,387.9-23.48,94.11,94.91,527.54,30.75,527.54,30.75,0,0,298.71-120.37,435.7-53.04,136.98,67.33-124.16,307.96-124.16,307.96,0,0-534.04,74.92-729.85,34.34-195.81-40.58-728.12,29.47-728.12,29.47,0,0-400.34-3.97-485.45-52.59-85.1-48.63-204.02-68.57-170.79-203.85Z"/><path class="cls-2" d="m16.24,561.4s17.15-15.14,105.66-9.27c88.51,5.86,117.39,0,117.39,0,0,0,73.86-15.78,97.52-3.13s132.62,4.1,132.62,4.1c0,0,75.1-16.04,109.53-7.07,34.44,8.97-31.21,41.05-31.21,41.05,0,0-134.26,9.99-183.48,4.58-49.23-5.41-183.05,3.93-183.05,3.93,0,0-100.65-.53-122.04-7.01s-51.29-9.14-42.94-27.17Z"/><path class="cls-30" d="m1119.97,796.64s24.52-31.64,151.09-19.38c126.57,12.26,167.87,0,167.87,0,0,0,105.61-32.99,139.45-6.54,33.83,26.45,189.64,8.57,189.64,8.57,0,0,107.38-33.54,156.63-14.78,49.24,18.76-44.63,85.81-44.63,85.81,0,0-191.98,20.88-262.37,9.57-70.39-11.31-261.75,8.21-261.75,8.21,0,0-143.92-1.11-174.51-14.65-30.59-13.55-73.34-19.11-61.4-56.8Z"/><path class="cls-2" d="m1626.78,530.46s17.15-24.41,105.66-14.95c88.51,9.46,117.39,0,117.39,0,0,0,73.86-25.44,97.52-5.05,23.66,20.4,132.62,6.61,132.62,6.61,0,0,75.1-25.87,109.53-11.4,34.44,14.47-31.21,66.19-31.21,66.19,0,0-134.26,16.1-183.48,7.38-49.23-8.72-183.05,6.33-183.05,6.33,0,0-100.65-.85-122.04-11.3-21.4-10.45-51.29-14.74-42.94-43.81Z"/><path class="cls-2" d="m335.01,790.01s31.46-4.87,32.95-10.71c1.49-5.84,25.54-1.45,30.92-3.5,5.38-2.05,27.32-8.87,27.32-8.87,0,0,7.3,5.58,5.36,16.68s.1,1.8-9.28,16.46c0,0-33.39,16.68-47.7,11.27s-26.07-1.29-26.07-1.29c0,0-21.57-18.6-13.48-20.04Z"/><path class="cls-14" d="m332.8,794.42s31.05-7.66,34.21,0,24.45-9.79,30.12-9.36c5.68.43,28.36,0,28.36,0,0,0,5.18-11.36,0-26.31-5.18-14.95-.45-2.61-13.7-19.2,0,0-36.42-8.32-48.25,6.05s-24.13,13.94-24.13,13.94c0,0-14.66,36.59-6.62,34.89Z"/><path class="cls-2" d="m109.69,478.17h57.66s17.4,8.65-8.37,27.99c-25.78,19.34-42.46,8.14-42.46,8.14,0,0-39.29-9.16-29.12-14.5s-8.79-21.63,22.3-21.63Z"/><path class="cls-14" d="m105.9,491.13h57.66s17.4-12.67-8.37-40.99-42.46-11.92-42.46-11.92c0,0-39.29,13.41-29.12,21.24s-8.79,31.67,22.3,31.67Z"/><path class="cls-2" d="m1844.81,707.15s31.46-4.87,32.95-10.71c1.49-5.84,25.54-1.45,30.92-3.5,5.38-2.05,27.32-8.87,27.32-8.87,0,0,7.3,5.58,5.36,16.68-1.95,11.1.1,1.8-9.28,16.46,0,0-33.39,16.68-47.7,11.27-14.31-5.41-26.07-1.29-26.07-1.29,0,0-21.57-18.6-13.48-20.04Z"/><path class="cls-14" d="m1842.6,711.56s31.05-7.66,34.21,0c3.16,7.66,24.45-9.79,30.12-9.36,5.68.43,28.36,0,28.36,0,0,0,5.18-11.36,0-26.31-5.18-14.95-.45-2.61-13.7-19.2,0,0-36.42-8.32-48.25,6.05-11.83,14.37-24.13,13.94-24.13,13.94,0,0-14.66,36.59-6.62,34.89Z"/><path class="cls-2" d="m1652.62,404.87h57.66s17.4,8.65-8.37,27.99c-25.78,19.34-42.46,8.14-42.46,8.14,0,0-39.29-9.16-29.12-14.5,10.17-5.34-8.79-21.63,22.3-21.63Z"/><path class="cls-14" d="m1648.83,417.83h57.66s17.4-12.67-8.37-40.99c-25.78-28.32-42.46-11.92-42.46-11.92,0,0-39.29,13.41-29.12,21.24,10.17,7.83-8.79,31.67,22.3,31.67Z"/><path class="cls-2" d="m1069.99,302.6s12.28-7.51,75.68-4.6c63.4,2.91,84.09,0,84.09,0,0,0,52.9-7.83,69.85-1.55,16.95,6.28,95,2.03,95,2.03,0,0,53.79-7.96,78.46-3.51,24.67,4.45-22.36,20.36-22.36,20.36,0,0-96.17,4.95-131.43,2.27-35.26-2.68-131.12,1.95-131.12,1.95,0,0-72.09-.26-87.42-3.48-15.33-3.22-36.74-4.53-30.76-13.48Z"/><path class="cls-2" d="m-149.15,289.74s12.28-7.51,75.68-4.6c63.4,2.91,84.09,0,84.09,0,0,0,52.9-7.83,69.85-1.55,16.95,6.28,95,2.03,95,2.03,0,0,53.79-7.96,78.46-3.51,24.67,4.45-22.36,20.36-22.36,20.36,0,0-96.17,4.95-131.43,2.27-35.26-2.68-131.12,1.95-131.12,1.95,0,0-72.09-.26-87.42-3.48-15.33-3.22-36.74-4.53-30.76-13.48Z"/><path class="cls-30" d="m1244.26,476.48s14.14-10.87,87.16-6.66c73.01,4.21,96.84,0,96.84,0,0,0,60.92-11.33,80.44-2.25,19.52,9.09,109.4,2.94,109.4,2.94,0,0,61.95-11.52,90.35-5.08,28.41,6.45-25.75,29.48-25.75,29.48,0,0-110.75,7.17-151.35,3.29s-150.99,2.82-150.99,2.82c0,0-83.02-.38-100.67-5.03-17.65-4.65-42.31-6.56-35.42-19.51Z"/><polygon class="cls-2" points="753.91 979.08 1038.06 836.6 703.66 740.99 1118.94 649.13 809.4 557.27 1048.91 400.16 749.78 212.51 954.53 396.04 571.3 594.93 825.64 639.38 554.67 723.93 771.24 870.95 578.02 989.95 781.69 1136.18 910.52 1136.18 753.91 979.08"/><path class="cls-30" d="m275.73,389.38s14.14-15.65,87.16-9.58c73.01,6.06,96.84,0,96.84,0,0,0,60.92-16.31,80.44-3.23,19.52,13.08,109.4,4.24,109.4,4.24,0,0,61.95-16.59,90.35-7.31,28.41,9.28-25.75,42.43-25.75,42.43,0,0-110.75,10.32-151.35,4.73-40.61-5.59-150.99,4.06-150.99,4.06,0,0-83.02-.55-100.67-7.25-17.65-6.7-42.31-9.45-35.42-28.09Z"/><path class="cls-21" d="m292.23,206.97s10-20.2,8.53-45.5c0,0-12.84-7.23-16.1-2.8-3.26,4.43-10.74,10.19-13.77,9.05s-8.05.9-8.05.9c0,0-9.81-2.56-2.53-4.62s11.93-1.16,11.93-1.16c0,0,10.66-5.62,10.35-9.25s-10.39-4.94-10.39-4.94c0,0-8.21-1.23-7.79-7.24.42-6.01-6.78-7.93-6.78-7.93,0,0-2.36-6.06,4.96-3.55,7.32,2.51,7.79,10.01,7.79,10.01,0,0,1.31,4.46,8.71,5.63,7.4,1.17,9.47,5.85,9.47,5.85,0,0,9.05,3.86,5.45-1.95-3.59-5.82-3.38-8.05-3.38-8.05,0,0-3.58-5.29-7.79-4.81s-6.49-7.85-6.49-7.85c0,0-.96-7.18,4.16-2.77,5.11,4.4,3.12,3.96,3.12,3.96,0,0,10.56,2.13,11.95,4.76s5.34,12.96,5.34,12.96c0,0,3.16,3.88,3.75,0s4.67-12.09,4.67-12.09c0,0,3.65-9.61,0-9.59s-.78-4.51-.78-4.51c0,0,5.96-5.69,8.31,0s0,13.23,0,13.23c0,0-1.7,12.47-5.71,16.06-4.01,3.59,2.6,2.84,2.6,2.84l9.87-10.01s3.24-15.9,7.27-13.65,2.08,5.63,2.08,5.63c0,0,.91,6.95-2.86,12.09s-9.87,10.35-9.87,10.35l-6.49,4.95s-10.55,46.51,2.6,44.02c0,0-26.95,12.05-24.11,0Z"/><ellipse class="cls-2" cx="1677.22" cy="958.58" rx="27.61" ry="13.66"/><path class="cls-11" d="m1673.31,955.89s-46-8.06-41.94-60.31c0,0,11.04,47.08,43.38,51.63l-1.44,8.68Z"/><path class="cls-11" d="m1671.99,960.21s-46.49,2.15-51.01-50.05c0,0,18.51,43.82,51.01,41.22v8.84Z"/><path class="cls-11" d="m1675.98,961.21s-42.6-21.67-26.93-70.89c0,0,.07,48.79,30.27,62.94l-3.34,7.94Z"/><path class="cls-11" d="m1680.7,960.28s45.98-8.21,41.8-60.44c0,0-10.93,47.12-43.26,51.77l1.46,8.67Z"/><path class="cls-11" d="m1673.39,960.7s43.85-18.02,31.32-68.43c0,0-3.14,48.65-34.15,60.22l2.83,8.2Z"/><path class="cls-11" d="m1661.88,959.98s43.85-18.02,31.32-68.43c0,0-3.14,48.65-34.15,60.22l2.83,8.2Z"/><path class="cls-11" d="m1661.23,958.84s39.91-27.7,19.03-74.25c0,0,5.22,48.41-23.21,66.85l4.18,7.39Z"/><path class="cls-11" d="m1685.56,958.83s-42.6-21.67-26.93-70.89c0,0,.07,48.79,30.27,62.94l-3.34,7.94Z"/><ellipse class="cls-11" cx="1671.68" cy="948.93" rx="19.44" ry="13.7"/><ellipse class="cls-2" cx="1209.69" cy="226.16" rx="13.88" ry="7.82"/><path class="cls-11" d="m1207.72,224.61s-23.14-4.62-21.09-34.54c0,0,5.55,26.96,21.82,29.57l-.72,4.97Z"/><path class="cls-11" d="m1207.06,227.09s-23.38,1.23-25.66-28.67c0,0,9.31,25.1,25.66,23.61v5.06Z"/><path class="cls-11" d="m1209.07,227.66s-21.42-12.41-13.55-40.6c0,0,.04,27.94,15.23,36.05l-1.68,4.55Z"/><path class="cls-11" d="m1211.44,227.13s23.13-4.7,21.02-34.62c0,0-5.5,26.98-21.76,29.65l.73,4.97Z"/><path class="cls-11" d="m1207.76,227.37s22.05-10.32,15.75-39.19c0,0-1.58,27.86-17.17,34.49l1.42,4.7Z"/><path class="cls-11" d="m1201.97,226.96s22.05-10.32,15.75-39.19c0,0-1.58,27.86-17.17,34.49l1.42,4.7Z"/><path class="cls-11" d="m1201.65,226.3s20.07-15.86,9.57-42.52c0,0,2.62,27.73-11.67,38.29l2.1,4.23Z"/><path class="cls-11" d="m1213.88,226.3s-21.42-12.41-13.55-40.6c0,0,.04,27.94,15.23,36.05l-1.68,4.55Z"/><ellipse class="cls-11" cx="1206.9" cy="220.63" rx="9.78" ry="7.85"/><ellipse class="cls-2" cx="834.28" cy="395.25" rx="18.69" ry="9.88"/><path class="cls-11" d="m831.64,393.31s-31.14-5.84-28.39-43.65c0,0,7.47,34.08,29.36,37.37l-.97,6.28Z"/><path class="cls-11" d="m830.74,396.43s-31.46,1.55-34.53-36.23c0,0,12.53,31.72,34.53,29.83v6.4Z"/><path class="cls-11" d="m833.44,397.16s-28.83-15.68-18.23-51.31c0,0,.05,35.31,20.49,45.56l-2.26,5.75Z"/><path class="cls-11" d="m836.63,396.48s31.12-5.94,28.29-43.75c0,0-7.4,34.1-29.28,37.47l.99,6.28Z"/><path class="cls-11" d="m831.69,396.79s29.68-13.04,21.2-49.53c0,0-2.13,35.21-23.11,43.59l1.92,5.94Z"/><path class="cls-11" d="m823.9,396.27s29.68-13.04,21.2-49.53c0,0-2.13,35.21-23.11,43.59l1.92,5.94Z"/><path class="cls-11" d="m823.46,395.44s27.01-20.05,12.88-53.74c0,0,3.53,35.04-15.71,48.39l2.83,5.35Z"/><path class="cls-11" d="m839.93,395.43s-28.83-15.68-18.23-51.31c0,0,.05,35.31,20.49,45.56l-2.26,5.75Z"/><ellipse class="cls-11" cx="830.53" cy="388.27" rx="13.16" ry="9.92"/><ellipse class="cls-2" cx="205.85" cy="217.25" rx="14.33" ry="21.68" transform="translate(-66.16 342.08) rotate(-71.19)"/><ellipse class="cls-2" cx="179.99" cy="695.77" rx="37.04" ry="15.77"/><path class="cls-11" d="m174.75,692.66s-61.71-9.31-56.26-69.65c0,0,14.81,54.37,58.19,59.63l-1.93,10.02Z"/><path class="cls-11" d="m172.97,697.64s-62.36,2.48-68.43-57.8c0,0,24.83,50.6,68.43,47.6v10.2Z"/><path class="cls-11" d="m178.32,698.8s-57.15-25.02-36.13-81.86c0,0,.1,56.34,40.61,72.69l-4.48,9.17Z"/><path class="cls-11" d="m184.65,697.73s61.68-9.48,56.07-69.8c0,0-14.66,54.41-58.03,59.78l1.96,10.01Z"/><path class="cls-11" d="m174.85,698.21s58.82-20.81,42.01-79.02c0,0-4.21,56.18-45.81,69.55l3.8,9.47Z"/><path class="cls-11" d="m159.41,697.38s58.82-20.81,42.01-79.02c0,0-4.21,56.18-45.81,69.55l3.8,9.47Z"/><path class="cls-11" d="m158.54,696.06s53.54-31.99,25.53-85.74c0,0,7,55.91-31.13,77.2l5.6,8.54Z"/><path class="cls-11" d="m191.18,696.05s-57.15-25.02-36.13-81.86c0,0,.1,56.34,40.61,72.69l-4.48,9.17Z"/><ellipse class="cls-11" cx="172.55" cy="684.62" rx="26.08" ry="15.83"/><path class="cls-21" d="m217.53,211.5s-12.53-30.34-10.68-68.34c0,0,16.08-10.86,20.17-4.21s13.45,15.31,17.24,13.59,7.27,2.08,10.08,1.35c2.81-.73,12.28-3.84,3.17-6.94-9.11-3.1-14.94-1.74-14.94-1.74,0,0-13.35-8.44-12.96-13.9s13.01-7.42,13.01-7.42c0,0,10.28-1.85,9.76-10.88s8.49-11.91,8.49-11.91c0,0,2.96-9.1-6.21-5.34-9.17,3.76-9.76,15.03-9.76,15.03,0,0-1.64,6.71-10.91,8.46-9.27,1.76-11.86,8.78-11.86,8.78,0,0-11.33,5.8-6.83-2.93,4.5-8.74,4.23-12.1,4.23-12.1,0,0,4.49-7.94,9.76-7.23s8.13-11.8,8.13-11.8c0,0-.49-5.5-5.2-4.17-4.71,1.33-3.9,5.95-3.9,5.95,0,0-13.22,3.2-14.96,7.16s-6.69,19.46-6.69,19.46c0,0-3.95,5.83-4.69,0s-5.85-18.17-5.85-18.17c0,0-.1-14.44,0-14.4s1.03-6.67.98-6.77-9.24-12.21-10.41,0c-1.17,12.21-2.33,15.45,0,19.88,2.33,4.43,7.25,24.14,7.16,24.12s-3.25,4.27-3.25,4.27c0,0-12.44-14.98-12.36-15.04s-1.41-18.05-9.11-20.5c-7.69-2.45-7.19,3.16-2.6,8.45,4.58,5.3-1.14,10.45,3.58,18.17,4.72,7.72,12.36,15.55,12.36,15.55,0,0,10.53,3.31,8.13,7.43s-3.28,66.12-3.25,66.12,33.75,18.1,30.2,0Z"/><path class="cls-8" d="m1406.7,995.63v-337.81l103.92-192.42s15.12-156.79-66.13-319.28c-81.24-162.49-800,0-800,0l-35.13,65.57s-51.01,5.7-58.57,42.76c-7.56,37.06,7.56,350.64-81.24,433.31-88.8,82.67,79.36,333.54,79.36,333.54,0,0,457.24,34.21,857.8-25.66Z"/><path class="cls-7" d="m1363.76,946.5v-337.81l103.92-192.42s15.12-156.79-66.13-319.28c-81.24-162.49-800,0-800,0l-35.13,65.57s-51.01,5.7-58.57,42.76c-7.56,37.06,7.56,350.64-81.24,433.31-88.8,82.67,79.36,333.54,79.36,333.54,0,0,457.24,34.21,857.8-25.66Z"/><path class="cls-5" d="m939.9,556.99l-.68,7.73h-25.58l-.68-7.73h26.95Zm-1.09,12.97l-.72,7.93h-23.32l-.62-7.93h24.66Z"/><path class="cls-5" d="m983.77,541.03c-.16,4.53-.4,12.59-.72,24.17-.11,5.78-.23,14.86-.34,27.23h-15.22c.04-6.87-.02-13.25-.21-19.17-.05-1.73-.16-6.42-.34-14.07-.39.07-1.23.24-2.53.53-.68.16-1.49.41-2.43.77l-3.25-11.2c2.58-1.07,7.14-3.08,13.68-6.03,2.03-.96,4.71-2.31,8.04-4.07l3.32,1.83Z"/><path class="cls-5" d="m1046.93,561.36c0,6.31-2.07,11.36-6.21,15.15s-9.63,5.68-16.47,5.68l-.41,10.17h-18.84l-.99-24.83c-.3-6.4-.76-15.19-1.4-26.37,3.56-.69,8.76-1.03,15.63-1.03,8.37,0,15.07,1.63,20.11,4.9,5.72,3.71,8.58,9.16,8.58,16.33Zm-14.19,5.6c0-3.47-2.11-5.2-6.33-5.2-.5,0-1.01.03-1.54.1l-.34,11.67c5.47-.18,8.21-2.37,8.21-6.57Z"/><path class="cls-5" d="m1095.04,565.66c0,7.84-2.08,14.48-6.22,19.9-4.35,5.67-9.93,8.5-16.72,8.5s-12.66-2.86-17-8.57c-4.08-5.38-6.12-11.99-6.12-19.83,0-8.38,2.22-14.96,6.67-19.73,4.19-4.49,9.68-6.73,16.45-6.73s12.08,2.26,16.28,6.77c4.45,4.8,6.67,11.37,6.67,19.7Zm-16.45,5.87c0-6.18-2.14-9.27-6.43-9.27s-6.26,3.11-6.26,9.33c0,2.49.55,4.81,1.64,6.97,1.23,2.42,2.75,3.63,4.55,3.63s3.3-1.23,4.65-3.7c1.23-2.24,1.85-4.57,1.85-6.97Z"/><path class="cls-5" d="m1121.37,541.16l-1.33,27.23c-.25,5.87-.55,13.86-.89,23.97h-19.18l-2.33-51.2h23.73Z"/><path class="cls-5" d="m1166.21,541.16c-.32,4.49-.76,12.32-1.33,23.5-.34,8.22-.63,17.68-.85,28.37-2.99-2.29-7.54-5.7-13.64-10.23-2.64-1.8-6.59-4.5-11.83-8.1l-.34,17.67h-11.01c-.18-4.51-.6-13.02-1.26-25.53-.57-10.13-1.15-18.69-1.74-25.67h17.17l12.72,11.73c0-2.69-.05-4.8-.14-6.33-.07-1.35-.21-3.15-.41-5.4h12.69Z"/><path class="cls-5" d="m1210.76,541.16l-.99,20.97c-.89-.13-2.31-.3-4.27-.5-1.21-.07-3.17-.13-5.88-.2-.14,1.31-.38,4.48-.72,9.5-.25,4.87-.66,12.01-1.23,21.43h-16.55c-.18-4.49-.53-11.54-1.03-21.17-.23-3.33-.47-6.59-.72-9.77l-5.4.2-4.89.5-.86-20.97h42.54Z"/><path class="cls-5" d="m921.3,748.39l-.68,7.73h-25.58l-.68-7.73h26.95Zm-1.09,12.97l-.72,7.93h-23.32l-.62-7.93h24.66Z"/><path class="cls-5" d="m970.48,746.56c0,6.98-5.11,16.28-15.32,27.9h5.81c.89,0,2.34-.09,4.34-.27.78-.07,1.82-.2,3.15-.4-.32.98-.81,2.61-1.47,4.9-.32,1.18-.76,2.87-1.33,5.07h-22.06l-1.54-3.4c3.42-5.82,5.77-10.21,7.04-13.17,1.69-3.91,2.53-7.4,2.53-10.47,0-2.18-.68-3.84-2.05-5-1.14-.96-2.49-1.43-4.04-1.43s-2.98.34-4.41,1.03l1.61-17.93c3.42-1.2,7.07-1.8,10.94-1.8,5.08,0,9.15,1.37,12.21,4.12,3.05,2.75,4.58,6.36,4.58,10.85Z"/><path class="cls-5" d="m1031.48,752.76c0,6.31-2.07,11.36-6.21,15.15s-9.63,5.68-16.47,5.68l-.41,10.17h-18.84l-.99-24.83c-.3-6.4-.76-15.19-1.4-26.37,3.56-.69,8.76-1.03,15.63-1.03,8.37,0,15.07,1.63,20.11,4.9,5.72,3.71,8.58,9.16,8.58,16.33Zm-14.19,5.6c0-3.47-2.11-5.2-6.33-5.2-.5,0-1.01.03-1.54.1l-.34,11.67c5.47-.18,8.21-2.37,8.21-6.57Z"/><path class="cls-5" d="m1079.6,757.06c0,7.84-2.08,14.48-6.22,19.9-4.35,5.67-9.93,8.5-16.72,8.5s-12.66-2.86-17-8.57c-4.08-5.38-6.12-11.99-6.12-19.83,0-8.38,2.22-14.96,6.67-19.73,4.19-4.49,9.68-6.73,16.45-6.73s12.08,2.26,16.28,6.77c4.45,4.8,6.67,11.37,6.67,19.7Zm-16.45,5.87c0-6.18-2.14-9.27-6.43-9.27s-6.26,3.11-6.26,9.33c0,2.49.55,4.81,1.64,6.97,1.23,2.42,2.75,3.63,4.55,3.63s3.3-1.23,4.65-3.7c1.23-2.24,1.85-4.57,1.85-6.97Z"/><path class="cls-5" d="m1105.93,732.56l-1.33,27.23c-.25,5.87-.55,13.86-.89,23.97h-19.18l-2.33-51.2h23.73Z"/><path class="cls-5" d="m1150.76,732.56c-.32,4.49-.76,12.32-1.33,23.5-.34,8.22-.63,17.68-.85,28.37-2.99-2.29-7.54-5.7-13.64-10.23-2.64-1.8-6.59-4.5-11.83-8.1l-.34,17.67h-11.01c-.18-4.51-.6-13.02-1.26-25.53-.57-10.13-1.15-18.69-1.74-25.67h17.17l12.72,11.73c0-2.69-.05-4.8-.14-6.33-.07-1.35-.21-3.15-.41-5.4h12.69Z"/><path class="cls-5" d="m1195.32,732.56l-.99,20.97c-.89-.13-2.31-.3-4.27-.5-1.21-.07-3.17-.13-5.88-.2-.14,1.31-.38,4.48-.72,9.5-.25,4.87-.66,12.01-1.23,21.43h-16.55c-.18-4.49-.53-11.54-1.03-21.17-.23-3.33-.47-6.59-.72-9.77l-5.4.2-4.89.5-.86-20.97h42.54Z"/><path class="cls-5" d="m974.6,367.66l-.68,7.73h-25.58l-.68-7.73h26.95Zm-1.09,12.97l-.72,7.93h-23.32l-.62-7.93h24.66Z"/><path class="cls-5" d="m1017.68,381.13l-1.54,10.17h-17.44l-1.68-10.17h20.65Z"/><path class="cls-5" d="m1047.54,351.7c-.16,4.53-.4,12.59-.72,24.17-.11,5.78-.23,14.86-.34,27.23h-15.22c.04-6.87-.02-13.25-.21-19.17-.05-1.73-.16-6.42-.34-14.07-.39.07-1.23.24-2.53.53-.68.16-1.49.41-2.43.77l-3.25-11.2c2.58-1.07,7.14-3.08,13.68-6.03,2.03-.96,4.71-2.31,8.04-4.07l3.32,1.83Z"/><path class="cls-5" d="m1101.88,392.93c-.23.89-.65,2.57-1.27,5.03-.32,1.44-.59,3.13-.82,5.07h-30.95c-.11-5.22-.4-13.82-.86-25.8-.3-6.13-.83-14.6-1.61-25.4h23.73l-1.95,42.47c2.21,0,5.53-.23,9.95-.7.91-.09,2.17-.31,3.76-.67Z"/><path class="cls-5" d="m1127.21,351.83l-1.33,27.23c-.25,5.87-.55,13.86-.89,23.97h-19.18l-2.33-51.2h23.73Z"/><path class="cls-5" d="m1174.06,351.83c-1.89,5.47-4.92,14.39-9.1,26.77-1.92,5.82-4.39,13.97-7.42,24.43h-11.9c-1.53-5.07-4.08-13.34-7.66-24.83-2.03-6.36-5.04-15.14-9.03-26.37h24.18c.23,2.11.76,5.54,1.61,10.3.57,2.53,1.46,6.02,2.67,10.47.64-2.16,1.57-5.67,2.8-10.53.57-2.62,1.22-6.03,1.95-10.23h11.9Z"/><ellipse class="cls-1" cx="683.15" cy="546.31" rx="62.18" ry="57.03"/><path class="cls-1" d="m632.31,553.04l-29.97-17.99-30.86,44.62s-.74,5.2-3.95,4.75-12.8-2.19-12.8-2.19c0,0-7.93-1.66-3.98-5.05,3.95-3.39,7.4-1.81,7.4-1.81l4.19.91,32.57-48.43s3.73-7.37,7.42-5.72,33.03,17.78,33.03,17.78l7.18,3.33-3.65,9.93-6.59-.12Z"/><path class="cls-1" d="m642.03,530.03l-38.69-15.55-39.84,38.57s-.96,4.49-5.1,4.1-16.52-1.89-16.52-1.89c0,0-5.08-1.03-5.14-4.37s9.56-1.57,9.56-1.57l5.42.78,42.05-41.87s4.81-6.37,9.57-4.95,42.63,15.37,42.63,15.37l9.27,2.88-4.71,8.59-8.51-.1Z"/><path class="cls-1" d="m730.42,530.03l38.69-15.55,39.84,38.57s.96,4.49,5.1,4.1c4.14-.39,16.52-1.89,16.52-1.89,0,0,5.08-1.03,5.14-4.37s-9.56-1.57-9.56-1.57l-5.42.78-42.05-41.87s-4.81-6.37-9.57-4.95-42.63,15.37-42.63,15.37l-9.27,2.88,4.71,8.59,8.51-.1Z"/><path class="cls-1" d="m737.68,553.07l29.97-17.99,30.86,44.62s.74,5.2,3.95,4.75c3.21-.45,12.8-2.19,12.8-2.19,0,0,7.93-1.66,3.98-5.05s-7.4-1.81-7.4-1.81l-4.19.91-32.57-48.43s-3.73-7.37-7.42-5.72c-3.69,1.65-33.03,17.78-33.03,17.78l-7.18,3.33,3.65,9.93,6.59-.12Z"/><path class="cls-1" d="m723.99,586.94l37.01-41.87s3.45-6.11,6.91-3.62,4.32,6.11,4.32,6.11l14.22,39.38h10.13s5.13.45,3.9,3.16-4.34,3.83-4.34,3.83h-16.74s-5.57-1.57-4.34-5.19c1.23-3.62-8.88-33.15-8.88-33.15l-23.93,29.97-18.26,1.38Z"/><path class="cls-1" d="m650.96,589.58l-37.01-41.87s-3.45-6.11-6.91-3.62-4.32,6.11-4.32,6.11l-14.22,39.38h-10.13s-5.13.45-3.9,3.16,4.34,3.83,4.34,3.83h16.74s5.57-1.57,4.34-5.19c-1.23-3.62,8.88-33.15,8.88-33.15l23.93,29.97,18.26,1.38Z"/><path class="cls-1" d="m684.5,491.2s17.89.71,29.36,6.75c11.47,6.04-24.55,35.35-24.55,35.35,0,0-6.17,6-6.42,0-.25-6,1.6-42.09,1.6-42.09Z"/><path class="cls-1" d="m684.87,491.24s-17.89.71-29.36,6.75c-11.47,6.04,24.55,35.35,24.55,35.35,0,0,6.17,6,6.42,0,.25-6-1.6-42.09-1.6-42.09Z"/><path class="cls-1" d="m705.94,591.66l43.92-24.1s9.62-5.66,9.75,0c.12,5.66-8.27,11.32-8.27,11.32l-48.58,24.94,3.18-12.15Z"/><path class="cls-1" d="m668.81,505.84l-1.97,7.34s-18.08,4.67-25.54,13.26c-7.45,8.59-8.1-.54-8.1-.54,0,0,5.53-10.83,35.6-20.06Z"/><path class="cls-1" d="m678.1,516.3l-1.97,7.34s-18.08,4.67-25.54,13.26c-7.45,8.59-8.1-.54-8.1-.54,0,0,5.53-10.83,35.6-20.06Z"/><path class="cls-1" d="m691.92,523.77l-1.97,7.34s-18.08,4.67-25.54,13.26c-7.45,8.59-8.1-.54-8.1-.54,0,0,5.53-10.83,35.6-20.06Z"/><path class="cls-1" d="m702.71,505.89l1.97,7.34s18.08,4.67,25.54,13.26,8.1-.54,8.1-.54c0,0-5.53-10.83-35.6-20.06Z"/><path class="cls-1" d="m693.34,516.3l1.97,7.34s18.08,4.67,25.54,13.26c7.45,8.59,8.1-.54,8.1-.54,0,0-5.53-10.83-35.6-20.06Z"/><path class="cls-1" d="m678.78,521.96l1.97,7.34s18.08,4.67,25.54,13.26c7.45,8.59,8.1-.54,8.1-.54,0,0-5.53-10.83-35.6-20.06Z"/><path class="cls-1" d="m666.24,591.75l-43.92-24.1s-9.62-5.66-9.75,0c-.12,5.66,8.27,11.32,8.27,11.32l48.58,24.94-3.18-12.15Z"/><ellipse class="cls-1" cx="684.13" cy="589.65" rx="29.36" ry="26.82"/><path class="cls-1" d="m661.95,594.09l-43.92-24.1s-9.62-5.66-9.75,0c-.12,5.66,0,39.49,0,39.49h-9.13s-4.07,1.47-2.84,3.73l1.23,2.26h17.34c4.62-2.94,1.66-5.88,1.66-5.88v-28.29s48.58,24.94,48.58,24.94l-3.18-12.15Z"/><ellipse class="cls-1" cx="684.26" cy="596.78" rx="29.36" ry="26.82"/><ellipse class="cls-1" cx="690.55" cy="592.25" rx="5.92" ry="5.88"/><ellipse class="cls-1" cx="676.73" cy="592.25" rx="5.92" ry="5.88"/><ellipse class="cls-1" cx="702.64" cy="586.39" rx="3.95" ry="3.59"/><ellipse class="cls-1" cx="665.13" cy="586.42" rx="3.95" ry="3.59"/><ellipse class="cls-1" cx="690.55" cy="592.18" rx="2.71" ry="2.56"/><ellipse class="cls-1" cx="676.73" cy="592.31" rx="2.71" ry="2.56"/><path class="cls-1" d="m677.46,603.45s4.97,7.38,11.6,0c0,0-6.02-1.59-11.6,0Z"/><path class="cls-1" d="m710.66,594.06l43.92-24.1s9.62-5.66,9.75,0,0,39.49,0,39.49h9.13s4.07,1.47,2.84,3.73l-1.23,2.26h-17.34c-4.62-2.94-1.66-5.88-1.66-5.88v-28.29l-48.58,24.94,3.18-12.15Z"/><ellipse class="cls-26" cx="683.1" cy="549.61" rx="62.18" ry="57.03"/><path class="cls-26" d="m632.26,556.34l-29.97-17.99-30.86,44.62s-.74,5.2-3.95,4.75-12.8-2.19-12.8-2.19c0,0-7.93-1.66-3.98-5.05s7.4-1.81,7.4-1.81l4.19.91,32.57-48.43s3.73-7.37,7.42-5.72,33.03,17.78,33.03,17.78l7.18,3.33-3.65,9.93-6.59-.12Z"/><path class="cls-26" d="m641.98,533.33l-38.69-15.55-39.84,38.57s-.96,4.49-5.1,4.1-16.52-1.89-16.52-1.89c0,0-5.08-1.03-5.14-4.37-.07-3.33,9.56-1.57,9.56-1.57l5.42.78,42.05-41.87s4.81-6.37,9.57-4.95,42.63,15.37,42.63,15.37l9.27,2.88-4.71,8.59-8.51-.1Z"/><path class="cls-26" d="m730.37,533.33l38.69-15.55,39.84,38.57s.96,4.49,5.1,4.1c4.14-.39,16.52-1.89,16.52-1.89,0,0,5.08-1.03,5.14-4.37.07-3.33-9.56-1.57-9.56-1.57l-5.42.78-42.05-41.87s-4.81-6.37-9.57-4.95-42.63,15.37-42.63,15.37l-9.27,2.88,4.71,8.59,8.51-.1Z"/><path class="cls-26" d="m737.63,556.37l29.97-17.99,30.86,44.62s.74,5.2,3.95,4.75,12.8-2.19,12.8-2.19c0,0,7.93-1.66,3.98-5.05-3.95-3.39-7.4-1.81-7.4-1.81l-4.19.91-32.57-48.43s-3.73-7.37-7.42-5.72-33.03,17.78-33.03,17.78l-7.18,3.33,3.65,9.93,6.59-.12Z"/><path class="cls-26" d="m723.94,590.23l37.01-41.87s3.45-6.11,6.91-3.62,4.32,6.11,4.32,6.11l14.22,39.38h10.13s5.13.45,3.9,3.16-4.34,3.83-4.34,3.83h-16.74s-5.57-1.57-4.34-5.19c1.23-3.62-8.88-33.15-8.88-33.15l-23.93,29.97-18.26,1.38Z"/><path class="cls-26" d="m650.91,592.87l-37.01-41.87s-3.45-6.11-6.91-3.62c-3.45,2.49-4.32,6.11-4.32,6.11l-14.22,39.38h-10.13s-5.13.45-3.9,3.16c1.23,2.72,4.34,3.83,4.34,3.83h16.74s5.57-1.57,4.34-5.19,8.88-33.15,8.88-33.15l23.93,29.97,18.26,1.38Z"/><path class="cls-29" d="m684.45,494.5s17.89.71,29.36,6.75c11.47,6.04-24.55,35.35-24.55,35.35,0,0-6.17,6-6.42,0-.25-6,1.6-42.09,1.6-42.09Z"/><path class="cls-29" d="m684.82,494.54s-17.89.71-29.36,6.75c-11.47,6.04,24.55,35.35,24.55,35.35,0,0,6.17,6,6.42,0,.25-6-1.6-42.09-1.6-42.09Z"/><path class="cls-29" d="m705.89,594.96l43.92-24.1s9.62-5.66,9.75,0c.12,5.66-8.27,11.32-8.27,11.32l-48.58,24.94,3.18-12.15Z"/><path class="cls-29" d="m668.76,509.14l-1.97,7.34s-18.08,4.67-25.54,13.26c-7.45,8.59-8.1-.54-8.1-.54,0,0,5.53-10.83,35.6-20.06Z"/><path class="cls-29" d="m678.05,519.6l-1.97,7.34s-18.08,4.67-25.54,13.26c-7.45,8.59-8.1-.54-8.1-.54,0,0,5.53-10.83,35.6-20.06Z"/><path class="cls-29" d="m691.87,527.07l-1.97,7.34s-18.08,4.67-25.54,13.26c-7.45,8.59-8.1-.54-8.1-.54,0,0,5.53-10.83,35.6-20.06Z"/><path class="cls-29" d="m702.66,509.19l1.97,7.34s18.08,4.67,25.54,13.26c7.45,8.59,8.1-.54,8.1-.54,0,0-5.53-10.83-35.6-20.06Z"/><path class="cls-29" d="m693.29,519.6l1.97,7.34s18.08,4.67,25.54,13.26c7.45,8.59,8.1-.54,8.1-.54,0,0-5.53-10.83-35.6-20.06Z"/><path class="cls-29" d="m678.73,525.26l1.97,7.34s18.08,4.67,25.54,13.26c7.45,8.59,8.1-.54,8.1-.54,0,0-5.53-10.83-35.6-20.06Z"/><path class="cls-29" d="m666.19,595.05l-43.92-24.1s-9.62-5.66-9.75,0c-.12,5.66,8.27,11.32,8.27,11.32l48.58,24.94-3.18-12.15Z"/><ellipse class="cls-29" cx="684.08" cy="592.95" rx="29.36" ry="26.82"/><path class="cls-26" d="m661.9,597.39l-43.92-24.1s-9.62-5.66-9.75,0c-.12,5.66,0,39.49,0,39.49h-9.13s-4.07,1.47-2.84,3.73l1.23,2.26h17.34c4.62-2.94,1.66-5.88,1.66-5.88v-28.29s48.58,24.94,48.58,24.94l-3.18-12.15Z"/><ellipse class="cls-26" cx="684.21" cy="600.07" rx="29.36" ry="26.82"/><ellipse class="cls-10" cx="690.5" cy="595.55" rx="5.92" ry="5.88"/><ellipse class="cls-10" cx="676.68" cy="595.55" rx="5.92" ry="5.88"/><ellipse class="cls-10" cx="702.59" cy="589.69" rx="3.95" ry="3.59"/><ellipse class="cls-10" cx="665.08" cy="589.72" rx="3.95" ry="3.59"/><ellipse class="cls-6" cx="690.5" cy="595.48" rx="2.71" ry="2.56"/><ellipse class="cls-6" cx="676.68" cy="595.61" rx="2.71" ry="2.56"/><path class="cls-27" d="m677.41,606.75s4.97,7.38,11.6,0c0,0-6.02-1.59-11.6,0Z"/><path class="cls-26" d="m710.61,597.36l43.92-24.1s9.62-5.66,9.75,0,0,39.49,0,39.49h9.13s4.07,1.47,2.84,3.73l-1.23,2.26h-17.34c-4.62-2.94-1.66-5.88-1.66-5.88v-28.29l-48.58,24.94,3.18-12.15Z"/><path class="cls-23" d="m721.12,792.76c.05,0-3.53-19.77,14.79-32.45,18.32-12.68,12.78-13.03,11.54-25.67-1.23-12.64,3.75-21.57,10.1-19.68s10.45,32.41,10.45,32.41c0,0,.94,13.68-14.54,21.81-5.92,3.15-12.75,17.41-12.75,17.41,0,0-2.29,16.38-3.9,14.26"/><path class="cls-23" d="m594.9,842.35h143.84s15.53-1.51,15.86-14.34c.32-12.83-17.23-14.49-17.23-14.49h-142.47s-11.22,2.28-10.98,14.41,10.98,14.41,10.98,14.41Z"/><path class="cls-23" d="m606.54,813.53h120.15s12.98-1.51,13.25-14.34-14.39-14.49-14.39-14.49h-119.01s-9.37,2.28-9.17,14.41c.2,12.13,9.17,14.41,9.17,14.41Z"/><path class="cls-23" d="m618.72,784.7h92.82s10.02-1.51,10.23-14.34c.21-12.83-11.12-14.49-11.12-14.49h-91.93s-7.24,2.28-7.08,14.41c.16,12.13,7.08,14.41,7.08,14.41Z"/><path class="cls-23" d="m650.98,755.98s-1.37-30.07,9.16-37.53c10.53-7.47,26.22,1.24,34.07-8.92,7.85-10.16-6.81-19.7-6.81-19.7h-47.84s-15.96,2.7-15.75-12.86c.21-15.55,14.66-12.23,14.66-12.23l49.39-.3s34.23-2.07,33.92,41.72-36.65,18.29-39.75,31.56c-3.1,13.27-1.92,18.25-1.92,18.25h-29.13Z"/><path class="cls-28" d="m722.55,786.62s-2.02-18.25,14.39-28.82c16.42-10.58,11.67-11.2,11.25-22.81-.41-11.61,4.34-19.49,9.7-17.42,5.37,2.07,7.33,30.17,7.33,30.17,0,0,.1,12.55-13.64,19.12-5.26,2.55-11.86,15.2-11.86,15.2,0,0-2.81,14.83-4.09,12.81"/><path class="cls-23" d="m590.85,844.89h151.73s16.39-1.6,16.73-15.2c.34-13.6-18.17-15.35-18.17-15.35h-150.28s-11.84,2.42-11.58,15.28,11.58,15.28,11.58,15.28Z"/><path class="cls-23" d="m603.13,814.34h126.74s13.69-1.6,13.97-15.2c.28-13.6-15.18-15.35-15.18-15.35h-125.53s-9.89,2.42-9.67,15.28c.21,12.86,9.67,15.28,9.67,15.28Z"/><path class="cls-23" d="m615.98,783.79h97.91s10.57-1.6,10.79-15.2-11.73-15.35-11.73-15.35h-96.97s-7.64,2.42-7.47,15.28c.17,12.86,7.47,15.28,7.47,15.28Z"/><path class="cls-28" d="m647.57,754.48s-1.37-30.07,9.16-37.53c10.53-7.47,26.22,1.24,34.07-8.92,7.85-10.16-6.81-19.7-6.81-19.7h-47.84s-15.96,2.7-15.75-12.86c.21-15.55,14.66-12.23,14.66-12.23l49.39-.3s34.23-2.07,33.92,41.72-36.65,18.29-39.75,31.56c-3.1,13.27-1.92,18.25-1.92,18.25h-29.13Z"/><ellipse class="cls-19" cx="630.61" cy="667.9" rx="3.2" ry="3.21"/><path class="cls-3" d="m623.12,681.49s-4.72,3.9-12.18,3.22c-7.46-.68-17.17-2.57-17.17-2.57l-6.19-.66,2.58,1.65h-6.98l5.5,1.65s11.93,3.35,22.25,3.15,16.37-3.8,16.37-3.8c0,0-4.19-2.61-4.19-2.65Z"/><circle class="cls-31" cx="624.21" cy="675.58" r=".72"/><ellipse class="cls-6" cx="632.16" cy="667.8" rx="1.45" ry="1.45"/><path class="cls-28" d="m618.6,783.51h92.82s10.02-1.51,10.23-14.34c.21-12.83-11.12-14.49-11.12-14.49h-91.93s-7.24,2.28-7.08,14.41c.16,12.13,7.08,14.41,7.08,14.41Z"/><path class="cls-28" d="m606.53,813.58h120.15s12.98-1.51,13.25-14.34c.27-12.83-14.39-14.49-14.39-14.49h-119.01s-9.37,2.28-9.17,14.41c.2,12.13,9.17,14.41,9.17,14.41Z"/><path class="cls-28" d="m594.28,844.06h143.84s15.53-1.51,15.86-14.34c.32-12.83-17.23-14.49-17.23-14.49h-142.47s-11.22,2.28-10.98,14.41,10.98,14.41,10.98,14.41Z"/><path class="cls-20" d="m606.34,403.06h170.86s7.36-92.43-85.43-92.92-85.43,92.92-85.43,92.92Z"/><path class="cls-20" d="m610.73,411.43h135.83s5.85-77.37-67.91-77.78c-73.77-.41-67.91,77.78-67.91,77.78Z"/><ellipse class="cls-20" cx="589.6" cy="321.11" rx="11.26" ry="11.22"/><ellipse class="cls-20" cx="574.03" cy="321.62" rx="11.26" ry="11.22"/><path class="cls-20" d="m738.35,442.87s14.47,1.5,14.78-3.61c.31-5.11,0-42.57,0-42.57,0,0-11-16.11-19.82,0,0,0-5.04,21.26,0,39.74,0,0,.42,6.14,5.04,6.44Z"/><path class="cls-20" d="m609.99,443.63s14.47,1.5,14.78-3.61,0-42.57,0-42.57c0,0-11-16.11-19.82,0,0,0-5.04,21.26,0,39.74,0,0,.42,6.14,5.04,6.44Z"/><path class="cls-20" d="m634.55,448.89s16.13,1.58,16.47-3.79c.34-5.36,0-44.67,0-44.67,0,0-12.26-16.9-22.08,0,0,0-5.61,22.31,0,41.7,0,0,.47,6.45,5.61,6.76Z"/><path class="cls-13" d="m737.68,369.47s20.21,5.67,38.93-8.8c18.72-14.46,22.58,4.81,7.87,10.67-14.71,5.86-30.62,14.64-51.83,14.41s5.02-16.28,5.02-16.28Z"/><path class="cls-13" d="m611.85,440.72s14.15,1.42,14.45-3.42c.3-4.84,0-40.34,0-40.34,0,0-10.75-15.26-19.38,0,0,0-4.92,20.15,0,37.65,0,0,.41,5.82,4.92,6.11Z"/><path class="cls-13" d="m744.22,440.68s14.15,1.42,14.45-3.42c.3-4.84,0-40.34,0-40.34,0,0-10.75-15.26-19.38,0,0,0-4.92,20.15,0,37.65,0,0,.41,5.82,4.92,6.11Z"/><path class="cls-13" d="m607.96,410.27h168.01s7.24-98.34-84-98.86c-91.24-.52-84,98.86-84,98.86Z"/><path class="cls-13" d="m759.42,443.5s16.13,1.58,16.47-3.79c.34-5.36,0-44.67,0-44.67,0,0-12.26-16.9-22.08,0,0,0-5.61,22.31,0,41.7,0,0,.47,6.45,5.61,6.76Z"/><path class="cls-20" d="m643.49,323.03s47.6-28.45,96.3,0c0,0-20.07,25.28-48.15,25.78-28.08.5-48.15-25.78-48.15-25.78Z"/><path class="cls-20" d="m764.21,346.94s-35.47,5.16-29.45,13.89c6.02,8.73,37.87,4.31,37.87,4.31l-8.42-18.21Z"/><path class="cls-20" d="m619.31,352.56s27.07-2.07,27.08,8.28c.01,10.35-33.94,9.75-33.94,9.75l6.85-18.03Z"/><ellipse class="cls-20" cx="595.07" cy="345.67" rx="31.5" ry="31.73"/><ellipse class="cls-13" cx="593.06" cy="345.53" rx="31.37" ry="31.33"/><ellipse class="cls-13" cx="572.49" cy="321.55" rx="9.33" ry="9.32"/><ellipse class="cls-13" cx="589.26" cy="321.25" rx="9.7" ry="9.75"/><ellipse class="cls-19" cx="589" cy="324.31" rx="5.96" ry="6.02"/><ellipse class="cls-19" cx="572.53" cy="324.38" rx="5.96" ry="6.02"/><path class="cls-13" d="m582.05,323.7h15.82s-.14-8.63-7.91-8.86c-7.77-.23-7.91,8.86-7.91,8.86Z"/><path class="cls-13" d="m564.09,323.71h15.82s-.14-9.7-7.91-9.96c-7.77-.26-7.91,9.96-7.91,9.96Z"/><ellipse class="cls-6" cx="589.01" cy="326.3" rx="2.06" ry="2"/><ellipse class="cls-6" cx="572" cy="326.27" rx="2.06" ry="2"/><path class="cls-27" d="m573.75,353.52s6.04,10.92,14.1,0c0,0-7.31-2.35-14.1,0Z"/><path class="cls-20" d="m691.96,377.4s51.35.51,40.7,8.36c-10.65,7.85-23.12,13.86-41.01,13.96-17.89.1-38.64-4.76-38.99-12.19-.35-7.43,39.31-10.13,39.31-10.13Z"/><path class="cls-20" d="m629.73,448.96s16.13,1.58,16.47-3.79,0-44.67,0-44.67c0,0-12.26-16.9-22.08,0,0,0-5.61,22.31,0,41.7,0,0,.47,6.45,5.61,6.76Z"/><path class="cls-13" d="m632.35,447.19s16.13,1.58,16.47-3.79,0-44.67,0-44.67c0,0-12.26-16.9-22.08,0,0,0-5.61,22.31,0,41.7,0,0,.47,6.45,5.61,6.76Z"/><path class="cls-20" d="m762.92,448.12s16.13,1.58,16.47-3.79c.34-5.36,0-44.67,0-44.67,0,0-12.26-16.9-22.08,0,0,0-5.61,22.31,0,41.7,0,0,.47,6.45,5.61,6.76Z"/><path class="cls-13" d="m740.22,439.96s14.15,1.42,14.45-3.42c.3-4.84,0-40.34,0-40.34,0,0-10.75-15.26-19.38,0,0,0-4.92,20.15,0,37.65,0,0,.41,5.82,4.92,6.11Z"/><path class="cls-20" d="m758.09,448.2s16.13,1.58,16.47-3.79,0-44.67,0-44.67c0,0-12.26-16.9-22.08,0,0,0-5.61,22.31,0,41.7,0,0,.47,6.45,5.61,6.76Z"/><path class="cls-13" d="m760.72,446.42s16.13,1.58,16.47-3.79c.34-5.36,0-44.67,0-44.67,0,0-12.26-16.9-22.08,0,0,0-5.61,22.31,0,41.7,0,0,.47,6.45,5.61,6.76Z"/><path class="cls-17" d="m696.66,209.57l4,8.33s-13.63,15.44-13.89,28.3c-.27,12.86-8.22,4.35-8.22,4.35,0,0-3.38-13.88,18.11-40.98Z"/><path class="cls-17" d="m698.66,167.29s-13.48-2.72-20.34-17.72c-6.86-15-14.63-4.01-7.66,4.3,6.96,8.3,13.8,18.83,26.31,25.3,12.51,6.48,1.7-11.88,1.7-11.88Z"/><path class="cls-17" d="m702.21,216.59l5.07,7.61s-11.41,17.43-9.96,30.19c1.46,12.76-7.55,5.6-7.55,5.6,0,0-5.2-13.2,12.43-43.4Z"/><path class="cls-17" d="m692.98,196.49l2.46,9.01s-16.1,12.32-18.63,24.88c-2.53,12.56-8.83,2.56-8.83,2.56,0,0-.87-14.33,25-36.45Z"/><path class="cls-17" d="m685.63,185.26l2.46,9.01s-16.1,12.32-18.63,24.88c-2.53,12.56-8.83,2.56-8.83,2.56,0,0-.87-14.33,25-36.45Z"/><path class="cls-17" d="m801.6,211.46l-4,8.33s13.63,15.44,13.89,28.3c.27,12.86,8.22,4.35,8.22,4.35,0,0,3.38-13.88-18.11-40.98Z"/><path class="cls-17" d="m796.06,218.48l-5.07,7.61s11.41,17.43,9.96,30.19c-1.46,12.76,7.55,5.6,7.55,5.6,0,0,5.2-13.2-12.43-43.4Z"/><path class="cls-17" d="m805.28,198.38l-2.46,9.01s16.1,12.32,18.63,24.88,8.83,2.56,8.83,2.56c0,0,.87-14.33-25-36.45Z"/><path class="cls-17" d="m812.64,187.15l-2.46,9.01s16.1,12.32,18.63,24.88c2.53,12.56,8.83,2.56,8.83,2.56,0,0,.87-14.33-25-36.45Z"/><path class="cls-17" d="m650.62,151.15s23.12,13.56,26.36,6.03,9.79-24.22-11.95-35.9c-21.75-11.68-31.47,3.7-31.47,3.7l-1.6,3.32s-3.59,6.03,15.91,8.79c0,0,2.38.67.66,3.11s-8.58,2.09-8.58,2.09c0,0-2.85-.99-2.04,1.62s1.72,3.81,3.43,5.6,4.1,1.87,9.29,1.64Z"/><path class="cls-17" d="m802.02,167.34s13.48-2.72,20.34-17.72c6.86-15,14.63-4.01,7.66,4.3-6.96,8.3-13.8,18.83-26.31,25.3-12.51,6.48-1.7-11.88-1.7-11.88Z"/><path class="cls-17" d="m850.06,151.2s-23.12,13.56-26.36,6.03c-3.24-7.54-9.79-24.22,11.95-35.9,21.75-11.68,31.47,3.7,31.47,3.7l1.6,3.32s3.59,6.03-15.91,8.79c0,0-2.38.67-.66,3.11s8.58,2.09,8.58,2.09c0,0,2.85-.99,2.04,1.62s-1.72,3.81-3.43,5.6-4.1,1.87-9.29,1.64Z"/><ellipse class="cls-17" cx="750.5" cy="187.08" rx="75.5" ry="49.59"/><ellipse class="cls-17" cx="733.07" cy="137.39" rx="15.24" ry="16.56"/><ellipse class="cls-17" cx="766" cy="137.39" rx="15.24" ry="16.56"/><ellipse class="cls-17" cx="766.09" cy="137.49" rx="7.62" ry="8.28"/><ellipse class="cls-17" cx="733.16" cy="137.49" rx="7.62" ry="8.28"/><ellipse class="cls-17" cx="766" cy="137.39" rx="3.85" ry="4.19"/><ellipse class="cls-17" cx="733.07" cy="137.39" rx="3.85" ry="4.19"/><path class="cls-17" d="m740.78,163.02s5.92,12.69,13.82,0c0,0-7.17-2.73-13.82,0Z"/><path class="cls-4" d="m696.89,209.05l3.91,8.11s-13.33,15.04-13.6,27.57c-.26,12.53-8.04,4.24-8.04,4.24,0,0-3.3-13.53,17.72-39.92Z"/><path class="cls-4" d="m698.85,167.85s-13.19-2.65-19.91-17.27c-6.72-14.62-14.31-3.9-7.5,4.19,6.82,8.09,13.5,18.34,25.74,24.65,12.24,6.31,1.66-11.57,1.66-11.57Z"/><path class="cls-4" d="m702.32,215.88l4.96,7.41s-11.17,16.98-9.74,29.42c1.43,12.44-7.38,5.46-7.38,5.46,0,0-5.09-12.86,12.16-42.29Z"/><path class="cls-4" d="m693.29,196.3l2.4,8.78s-15.75,12-18.23,24.24c-2.47,12.24-8.64,2.49-8.64,2.49,0,0-.85-13.96,24.46-35.51Z"/><path class="cls-4" d="m686.09,185.36l2.4,8.78s-15.75,12-18.23,24.24c-2.47,12.24-8.64,2.49-8.64,2.49,0,0-.85-13.96,24.46-35.51Z"/><path class="cls-4" d="m799.59,210.89l-3.91,8.11s13.33,15.04,13.6,27.57,8.04,4.24,8.04,4.24c0,0,3.3-13.53-17.72-39.92Z"/><path class="cls-4" d="m794.16,217.72l-4.96,7.41s11.17,16.98,9.74,29.42c-1.43,12.44,7.38,5.46,7.38,5.46,0,0,5.09-12.86-12.16-42.29Z"/><path class="cls-4" d="m803.18,198.14l-2.4,8.78s15.75,12,18.23,24.24c2.47,12.24,8.64,2.49,8.64,2.49,0,0,.85-13.96-24.46-35.51Z"/><path class="cls-4" d="m810.38,187.2l-2.4,8.78s15.75,12,18.23,24.24c2.47,12.24,8.64,2.49,8.64,2.49,0,0,.85-13.96-24.46-35.51Z"/><path class="cls-4" d="m799.99,167.9s13.19-2.65,19.91-17.27c6.72-14.62,14.31-3.9,7.5,4.19-6.82,8.09-13.5,18.34-25.74,24.65s-1.66-11.57-1.66-11.57Z"/><path class="cls-4" d="m847,152.18s-22.63,13.22-25.79,5.87c-3.17-7.34-9.58-23.6,11.7-34.98,21.28-11.38,30.79,3.61,30.79,3.61l1.57,3.24s3.51,5.88-15.57,8.57c0,0-2.33.65-.65,3.03s8.4,2.03,8.4,2.03c0,0,2.79-.97,2,1.57-.8,2.54-1.68,3.71-3.35,5.46-1.67,1.75-4.01,1.82-9.09,1.59Z"/><ellipse class="cls-4" cx="749.58" cy="187.13" rx="73.88" ry="48.32"/><ellipse class="cls-4" cx="732.52" cy="138.72" rx="14.91" ry="16.14"/><ellipse class="cls-4" cx="764.75" cy="138.72" rx="14.91" ry="16.14"/><ellipse class="cls-9" cx="764.83" cy="138.82" rx="7.46" ry="8.07"/><ellipse class="cls-9" cx="732.6" cy="138.82" rx="7.46" ry="8.07"/><ellipse class="cls-27" cx="764.75" cy="138.72" rx="3.77" ry="4.08"/><ellipse class="cls-27" cx="732.52" cy="138.72" rx="3.77" ry="4.08"/><path class="cls-27" d="m740.06,163.7s5.8,12.36,13.53,0c0,0-7.01-2.66-13.53,0Z"/><path class="cls-4" d="m651.84,152.12s22.63,13.22,25.79,5.87c3.17-7.34,9.58-23.6-11.7-34.98-21.28-11.38-30.79,3.61-30.79,3.61l-1.57,3.24s-3.51,5.88,15.57,8.57c0,0,2.33.65.65,3.03s-8.4,2.03-8.4,2.03c0,0-2.79-.97-2,1.57s1.68,3.71,3.35,5.46,4.01,1.82,9.09,1.59Z"/><path class="cls-25" d="m678.74,202.69s15.13,33.96,70.59,34.03c55.47.07,73.88-37.31,73.88-37.31l2.46-8.7s-82.66,25.03-149.81,2.76l2.88,9.22Z"/><path class="cls-5" d="m989.25,174.23l-.68,7.73h-25.58l-.68-7.73h26.95Zm-1.09,12.97l-.72,7.93h-23.32l-.62-7.93h24.66Z"/><path class="cls-5" d="m1041.16,181.4l-1.54,8h-9.23l-.27,9.47h-7.8c0-1.13-.05-4.29-.14-9.47h-8.82l-1.68-8h10.22l-.27-9.63h9.3l-.27,9.63h10.5Z"/><path class="cls-5" d="m1071.01,158.27c-.16,4.53-.4,12.59-.72,24.17-.11,5.78-.23,14.86-.34,27.23h-15.22c.04-6.87-.02-13.25-.21-19.17-.05-1.73-.16-6.42-.34-14.07-.39.07-1.23.24-2.53.53-.68.16-1.49.41-2.43.77l-3.25-11.2c2.58-1.07,7.14-3.08,13.68-6.03,2.03-.96,4.71-2.31,8.04-4.07l3.32,1.83Z"/><path class="cls-5" d="m1125.35,199.5c-.23.89-.65,2.57-1.27,5.03-.32,1.44-.59,3.13-.82,5.07h-30.95c-.11-5.22-.4-13.82-.86-25.8-.3-6.13-.83-14.6-1.61-25.4h23.73l-1.95,42.47c2.21,0,5.53-.23,9.95-.7.91-.09,2.17-.31,3.76-.67Z"/><path class="cls-5" d="m1150.69,158.4l-1.33,27.23c-.25,5.87-.55,13.86-.89,23.97h-19.18l-2.33-51.2h23.73Z"/><path class="cls-5" d="m1197.54,158.4c-1.89,5.47-4.92,14.39-9.1,26.77-1.92,5.82-4.39,13.97-7.42,24.43h-11.9c-1.53-5.07-4.08-13.34-7.66-24.83-2.03-6.36-5.04-15.14-9.03-26.37h24.18c.23,2.11.76,5.54,1.61,10.3.57,2.53,1.46,6.02,2.67,10.47.64-2.16,1.57-5.67,2.8-10.53.57-2.62,1.22-6.03,1.95-10.23h11.9Z"/><path class="cls-18" d="m849.69,897.54v40.75s140.04-.02,140.04-.02c0,0,13.41,3.39,13.84-20.35s-13.86-20.38-13.86-20.38h-140.02Z"/><path class="cls-18" d="m685.5,895.54v36.19s-140.04-.02-140.04-.02c0,0-13.41,3.01-13.84-18.08s13.86-18.1,13.86-18.1h140.02Z"/><path class="cls-18" d="m857.42,881.68v52.38s-178.36-.03-178.36-.03c0,0-17.08,4.36-17.62-26.16s17.65-26.19,17.65-26.19h178.34Z"/><ellipse class="cls-18" cx="795.43" cy="931.86" rx="13.88" ry="6.74"/><ellipse class="cls-18" cx="716.88" cy="931.7" rx="13.88" ry="6.74"/><path class="cls-12" d="m685.62,899.83v36.19s-140.04-.02-140.04-.02c0,0-13.41,3.01-13.84-18.08s13.86-18.1,13.86-18.1h140.02Z"/><path class="cls-12" d="m857.54,885.98v52.38s-178.36-.03-178.36-.03c0,0-17.08,4.36-17.62-26.16-.55-30.52,17.65-26.19,17.65-26.19h178.34Z"/><ellipse class="cls-18" cx="795.55" cy="936.15" rx="13.88" ry="6.74"/><ellipse class="cls-18" cx="717" cy="936" rx="13.88" ry="6.74"/><ellipse class="cls-18" cx="855.06" cy="892.94" rx="41.28" ry="49.35"/><ellipse class="cls-18" cx="857.26" cy="889.25" rx="41.28" ry="49.35"/><path class="cls-18" d="m894.08,859.76h-18.81s.16,10,9.4,10.26c9.24.26,9.4-10.26,9.4-10.26Z"/><ellipse class="cls-18" cx="868.58" cy="859.78" rx="8.91" ry="10.26"/><path class="cls-18" d="m878.03,859.87h-18.81s.16,10,9.4,10.26c9.24.26,9.4-10.26,9.4-10.26Z"/><ellipse class="cls-18" cx="886.76" cy="864.61" rx="2.25" ry="2.63"/><ellipse class="cls-18" cx="870.85" cy="864.71" rx="2.25" ry="2.63"/><ellipse class="cls-12" cx="857.38" cy="893.54" rx="41.28" ry="49.35"/><ellipse class="cls-18" cx="979.56" cy="899.59" rx="8.91" ry="10.26"/><ellipse class="cls-18" cx="979.69" cy="899.74" rx="4.93" ry="5.95"/><path class="cls-12" d="m849.81,901.83v40.75s140.04-.02,140.04-.02c0,0,13.41,3.39,13.84-20.35.43-23.75-13.86-20.38-13.86-20.38h-140.02Z"/><ellipse class="cls-12" cx="979.68" cy="903.89" rx="8.91" ry="10.26"/><ellipse class="cls-18" cx="979.81" cy="904.04" rx="4.93" ry="5.95"/><path class="cls-27" d="m1003.54,924.28s-53.56,28.5-124.97,0c0,0,64.79-6.14,124.97,0Z"/><polygon class="cls-10" points="974.85 923.86 967.98 936.95 960.83 923.86 974.85 923.86"/><polygon class="cls-10" points="957.96 923.86 951.09 936.95 943.93 923.86 957.96 923.86"/><polygon class="cls-10" points="940.42 923.86 933.55 936.95 926.4 923.86 940.42 923.86"/><polygon class="cls-10" points="922.57 923.86 915.7 936.95 908.54 923.86 922.57 923.86"/><polygon class="cls-10" points="990.52 923.67 983.65 936.75 976.5 923.67 990.52 923.67"/><ellipse class="cls-18" cx="867.51" cy="862.04" rx="8.91" ry="10.26"/><ellipse class="cls-18" cx="884.87" cy="862.82" rx="9.56" ry="10.9"/><ellipse class="cls-12" cx="885.39" cy="863.96" rx="8.91" ry="10.26"/><path class="cls-19" d="m894.2,863.81h-18.81s.16,10,9.4,10.26c9.24.26,9.4-10.26,9.4-10.26Z"/><ellipse class="cls-6" cx="886.56" cy="867.32" rx="2.25" ry="2.63"/><ellipse class="cls-12" cx="868.07" cy="864.07" rx="8.91" ry="10.26"/><path class="cls-19" d="m878.15,863.81h-18.81s.16,10,9.4,10.26c9.24.26,9.4-10.26,9.4-10.26Z"/><ellipse class="cls-6" cx="869.7" cy="868.21" rx="2.25" ry="2.63"/><path class="cls-5" d="m1058.93,898.56l-.68,7.73h-25.58l-.68-7.73h26.95Zm-1.09,12.97l-.72,7.93h-23.32l-.62-7.93h24.66Z"/><path class="cls-5" d="m1102.29,882.72l-1.33,27.23c-.25,5.87-.55,13.86-.89,23.97h-19.18l-2.33-51.2h23.73Z"/><path class="cls-5" d="m1163.16,882.72c-1.89,5.47-4.92,14.39-9.1,26.77-1.92,5.82-4.39,13.97-7.42,24.43h-11.9c-1.53-5.07-4.08-13.34-7.66-24.83-2.03-6.36-5.04-15.14-9.03-26.37h24.18c.23,2.11.76,5.54,1.61,10.3.57,2.53,1.46,6.02,2.67,10.47.64-2.16,1.57-5.67,2.8-10.53.57-2.62,1.22-6.03,1.95-10.23h11.9Z"/><path class="cls-5" d="m1200.84,882.72l-1.47,21.1c-.84-.13-2.67-.37-5.47-.7-1.92-.18-4.01-.29-6.29-.33l-.51,6.37c2.51.07,6.6.01,12.28-.17-.25.82-.65,2.36-1.2,4.6-.32,1.36-.6,2.92-.86,4.7-.66-.16-2.31-.36-4.96-.6-1.23-.07-3.06-.09-5.47-.07l-.34,7.43c1.71-.02,4.86-.17,9.44-.43.87-.07,2.29-.33,4.27-.8-.18.69-.6,2.34-1.27,4.97-.32,1.36-.71,3.07-1.16,5.13h-30.61l-.99-26.13c-.18-5.98-.63-14.33-1.33-25.07h35.94Z"/><path class="cls-5" d="m1232.65,882.72c-.27,4.2-.65,11.73-1.13,22.6-.32,9.13-.39,17.19-.21,24.17-4.99,3.69-10.51,5.53-16.55,5.53-3.28,0-6.8-.37-10.57-1.1-.09-.91-.3-2.52-.62-4.83-.21-1.24-.49-2.96-.86-5.13.71.31,2.51.79,5.4,1.43,1.53.25,2.95.27,4.27.07-.02-2.22-.38-8.93-1.06-20.13-.43-6.22-1.2-13.75-2.29-22.6h23.6Z"/><path class="cls-5" d="m1271.39,882.72l-1.47,21.1c-.84-.13-2.67-.37-5.47-.7-1.92-.18-4.01-.29-6.29-.33l-.51,6.37c2.51.07,6.6.01,12.28-.17-.25.82-.65,2.36-1.2,4.6-.32,1.36-.6,2.92-.86,4.7-.66-.16-2.31-.36-4.96-.6-1.23-.07-3.06-.09-5.47-.07l-.34,7.43c1.71-.02,4.86-.17,9.44-.43.87-.07,2.29-.33,4.27-.8-.18.69-.6,2.34-1.27,4.97-.32,1.36-.71,3.07-1.16,5.13h-30.61l-.99-26.13c-.18-5.98-.63-14.33-1.33-25.07h35.94Z"/><path class="cls-5" d="m1316.36,882.72c-.32,4.49-.76,12.32-1.33,23.5-.34,8.22-.63,17.68-.85,28.37-2.99-2.29-7.54-5.7-13.64-10.23-2.64-1.8-6.59-4.5-11.83-8.1l-.34,17.67h-11.01c-.18-4.51-.6-13.02-1.26-25.53-.57-10.13-1.15-18.69-1.74-25.67h17.17l12.72,11.73c0-2.69-.05-4.8-.14-6.33-.07-1.35-.21-3.15-.41-5.4h12.69Z"/></svg>