<?xml version="1.0" encoding="UTF-8"?><svg id="Layer_1" xmlns="http://www.w3.org/2000/svg" width="1920" height="1080" viewBox="0 0 1920 1080"><defs><style>.cls-1{fill:#614b47;}.cls-1,.cls-2,.cls-3,.cls-4,.cls-5,.cls-6,.cls-7,.cls-8,.cls-9,.cls-10,.cls-11,.cls-12,.cls-13,.cls-14,.cls-15,.cls-16,.cls-17,.cls-18,.cls-19,.cls-20,.cls-21,.cls-22,.cls-23,.cls-24,.cls-25,.cls-26,.cls-27,.cls-28{stroke-width:0px;}.cls-2{fill:#de9562;}.cls-3{fill:#e97600;}.cls-4{fill:#c97a79;}.cls-5{fill:#ebffd4;}.cls-7{fill:#e59f71;}.cls-8{fill:#ac7755;}.cls-9{fill:#f4fffe;}.cls-10{fill:#fffbe9;}.cls-11{fill:#576d5c;}.cls-12{fill:#b1c87c;}.cls-13{fill:gray;}.cls-14{fill:#b0cfe3;}.cls-15{fill:#f3b46f;}.cls-16{fill:#976665;}.cls-17{fill:#fff;}.cls-18{fill:#85965d;}.cls-19{fill:#59483a;}.cls-20{fill:#915932;}.cls-29{fill:#352600;stroke:#000;stroke-miterlimit:10;}.cls-21{fill:#996;}.cls-22{fill:#dfecf4;}.cls-23{fill:#975c5b;}.cls-24{fill:#846d69;}.cls-25{fill:#352000;}.cls-26{fill:#b5b46d;}.cls-27{fill:#81645f;}.cls-28{fill:#f5c38c;}</style></defs><rect class="cls-14" x="6.86" y="1.4" width="1920" height="227"/><path class="cls-20" d="m1095.06,280.9l529.3-25.9s-23.74-67.25-71.22-76.56c-47.48-9.31,13.97-55.89,13.97-55.89l-33.52-82.28s-7.87-12.42-51.42,0c-43.55,12.42-76.18-13.2-76.18-13.2,0,0-171.27-5.43-157.3,22.51,13.97,27.94-57.52,3.1-69.26,16.3-11.74,13.2-101.12,107.47-84.36,118.55,16.76,11.08,0,96.46,0,96.46Z"/><path class="cls-2" d="m1094.91,273.9l511.45-23.01s-22.94-59.74-68.82-68.01c-45.88-8.27,13.49-49.65,13.49-49.65l-32.39-73.09s-7.61-11.03-49.68,0c-42.08,11.03-73.61-11.72-73.61-11.72,0,0-165.49-4.83-152,20,13.49,24.82-55.58,2.76-66.93,14.48-11.34,11.72-97.71,95.47-81.52,105.31,16.19,9.84,0,85.69,0,85.69Z"/><rect class="cls-15" x="6.86" y="217.4" width="1920" height="864"/><path class="cls-22" d="m4.36,47.9h599.91s64.91,32.09,0,59.55H4.36s-35-36.55,0-59.55Z"/><path class="cls-22" d="m672.32,97.58h426.53s46.15,20.65,0,38.32h-426.53s-24.88-23.52,0-38.32Z"/><path class="cls-22" d="m1594.55,48.1h426.53s46.15,20.65,0,38.32h-426.53s-24.88-23.52,0-38.32Z"/><path class="cls-2" d="m-46.41,1023.19s67.2-110.14,414.13-67.46c346.92,42.67,460.13,0,460.13,0,0,0,289.49-114.81,382.22-22.77,92.74,92.05,519.82,29.82,519.82,29.82,0,0,294.34-116.74,429.32-51.44,134.98,65.3-122.34,298.68-122.34,298.68,0,0-526.22,72.66-719.17,33.31-192.95-39.35-717.47,28.58-717.47,28.58,0,0-394.48-3.85-478.34-51.01-83.86-47.16-201.03-66.51-168.29-197.71Z"/><path class="cls-2" d="m29.81,559.45s16.89-14.68,104.11-8.99c87.22,5.69,115.68,0,115.68,0,0,0,72.78-15.3,96.09-3.03s130.68,3.97,130.68,3.97c0,0,74-15.56,107.93-6.86,33.93,8.7-30.76,39.81-30.76,39.81,0,0-132.29,9.68-180.8,4.44-48.51-5.25-180.37,3.81-180.37,3.81,0,0-99.17-.51-120.26-6.8s-50.54-8.86-42.31-26.35Z"/><path class="cls-28" d="m1117.38,787.6s24.16-30.69,148.88-18.8c124.72,11.89,165.41,0,165.41,0,0,0,104.07-31.99,137.41-6.34,33.34,25.65,186.87,8.31,186.87,8.31,0,0,105.81-32.53,154.34-14.33,48.52,18.19-43.98,83.22-43.98,83.22,0,0-189.17,20.25-258.54,9.28-69.36-10.97-257.92,7.96-257.92,7.96,0,0-141.81-1.07-171.96-14.21s-72.27-18.53-60.5-55.09Z"/><path class="cls-2" d="m1616.78,529.45s16.89-23.67,104.11-14.5c87.22,9.17,115.68,0,115.68,0,0,0,72.78-24.68,96.09-4.89,23.31,19.78,130.68,6.41,130.68,6.41,0,0,74-25.09,107.93-11.06,33.93,14.03-30.76,64.19-30.76,64.19,0,0-132.29,15.62-180.8,7.16-48.51-8.46-180.37,6.14-180.37,6.14,0,0-99.17-.83-120.26-10.96s-50.54-14.29-42.31-42.49Z"/><path class="cls-2" d="m343.91,781.17s31-4.72,32.46-10.39,25.16-1.41,30.46-3.39c5.3-1.99,26.92-8.61,26.92-8.61,0,0,7.2,5.41,5.28,16.18-1.92,10.76.1,1.74-9.15,15.97,0,0-32.9,16.17-47,10.93-14.1-5.24-25.69-1.25-25.69-1.25,0,0-21.26-18.04-13.28-19.44Z"/><path class="cls-13" d="m341.73,785.45s30.59-7.43,33.71,0c3.11,7.43,24.09-9.49,29.68-9.08s27.95,0,27.95,0c0,0,5.11-11.02,0-25.52s-.44-2.53-13.5-18.62c0,0-35.89-8.06-47.54,5.87-11.65,13.93-23.77,13.52-23.77,13.52,0,0-14.45,35.48-6.53,33.83Z"/><path class="cls-2" d="m121.89,478.73h56.81s17.15,8.39-8.25,27.14c-25.4,18.75-41.84,7.9-41.84,7.9,0,0-38.71-8.88-28.7-14.07s-8.66-20.97,21.97-20.97Z"/><path class="cls-13" d="m118.15,491.3h56.81s17.15-12.29-8.25-39.75-41.84-11.56-41.84-11.56c0,0-38.71,13.01-28.7,20.6,10.02,7.59-8.66,30.72,21.97,30.72Z"/><path class="cls-2" d="m1831.62,700.81s31-4.72,32.46-10.39c1.46-5.67,25.16-1.41,30.46-3.39,5.3-1.99,26.92-8.61,26.92-8.61,0,0,7.2,5.41,5.28,16.18-1.92,10.76.1,1.74-9.15,15.97,0,0-32.9,16.17-47,10.93s-25.69-1.25-25.69-1.25c0,0-21.26-18.04-13.28-19.44Z"/><path class="cls-13" d="m1829.44,705.08s30.59-7.43,33.71,0c3.11,7.43,24.09-9.49,29.68-9.08s27.95,0,27.95,0c0,0,5.11-11.02,0-25.52s-.44-2.53-13.5-18.62c0,0-35.89-8.06-47.54,5.87-11.65,13.93-23.77,13.52-23.77,13.52,0,0-14.45,35.48-6.53,33.83Z"/><path class="cls-2" d="m1642.24,407.64h56.81s17.15,8.39-8.25,27.14c-25.4,18.75-41.84,7.9-41.84,7.9,0,0-38.71-8.88-28.7-14.07,10.02-5.18-8.66-20.97,21.97-20.97Z"/><path class="cls-13" d="m1638.51,420.21h56.81s17.15-12.29-8.25-39.75c-25.4-27.47-41.84-11.56-41.84-11.56,0,0-38.71,13.01-28.7,20.6,10.02,7.59-8.66,30.72,21.97,30.72Z"/><path class="cls-2" d="m1068.13,308.45s12.1-7.28,74.57-4.46c62.47,2.82,82.86,0,82.86,0,0,0,52.13-7.59,68.83-1.51,16.7,6.09,93.61,1.97,93.61,1.97,0,0,53-7.72,77.31-3.4s-22.03,19.75-22.03,19.75c0,0-94.76,4.8-129.5,2.2-34.74-2.6-129.2,1.89-129.2,1.89,0,0-71.04-.25-86.14-3.37-15.1-3.12-36.2-4.4-30.31-13.07Z"/><path class="cls-2" d="m-133.16,295.98s12.1-7.28,74.57-4.46c62.47,2.82,82.86,0,82.86,0,0,0,52.13-7.59,68.83-1.51,16.7,6.09,93.61,1.97,93.61,1.97,0,0,53-7.72,77.31-3.4,24.31,4.32-22.03,19.75-22.03,19.75,0,0-94.76,4.8-129.5,2.2-34.74-2.6-129.2,1.89-129.2,1.89,0,0-71.04-.25-86.14-3.37-15.1-3.12-36.2-4.4-30.31-13.07Z"/><path class="cls-28" d="m1239.85,477.09s13.94-10.54,85.88-6.46c71.94,4.08,95.42,0,95.42,0,0,0,60.03-10.99,79.26-2.18,19.23,8.81,107.8,2.85,107.8,2.85,0,0,61.04-11.18,89.03-4.92,27.99,6.25-25.37,28.59-25.37,28.59,0,0-109.13,6.96-149.14,3.19s-148.79,2.74-148.79,2.74c0,0-81.81-.37-99.2-4.88s-41.69-6.37-34.9-18.93Z"/><polygon class="cls-2" points="756.68 964.53 1036.67 826.35 707.17 733.62 1116.36 644.53 811.36 555.44 1047.36 403.08 752.61 221.08 954.36 399.08 576.74 591.97 827.36 635.08 560.36 717.08 773.76 859.66 583.36 975.08 784.05 1116.9 911 1116.9 756.68 964.53"/><path class="cls-28" d="m285.49,392.62s13.94-15.18,85.88-9.3,95.42,0,95.42,0c0,0,60.03-15.82,79.26-3.14,19.23,12.68,107.8,4.11,107.8,4.11,0,0,61.04-16.09,89.03-7.09,27.99,9-25.37,41.15-25.37,41.15,0,0-109.13,10.01-149.14,4.59s-148.79,3.94-148.79,3.94c0,0-81.81-.53-99.2-7.03-17.39-6.5-41.69-9.16-34.9-27.24Z"/><path class="cls-19" d="m301.76,215.71s9.86-19.59,8.4-44.13c0,0-12.65-7.01-15.87-2.72-3.21,4.3-10.58,9.88-13.56,8.78s-7.93.87-7.93.87c0,0-9.66-2.48-2.5-4.48s11.75-1.12,11.75-1.12c0,0,10.5-5.45,10.2-8.97s-10.24-4.79-10.24-4.79c0,0-8.09-1.2-7.68-7.03s-6.68-7.69-6.68-7.69c0,0-2.33-5.88,4.89-3.45s7.68,9.7,7.68,9.7c0,0,1.29,4.33,8.58,5.46,7.29,1.13,9.33,5.67,9.33,5.67,0,0,8.92,3.75,5.37-1.89-3.54-5.64-3.33-7.81-3.33-7.81,0,0-3.53-5.13-7.68-4.67s-6.4-7.62-6.4-7.62c0,0-.94-6.96,4.09-2.69,5.04,4.27,3.07,3.84,3.07,3.84,0,0,10.4,2.06,11.77,4.62s5.26,12.57,5.26,12.57c0,0,3.11,3.76,3.69,0s4.61-11.73,4.61-11.73c0,0,3.59-9.32,0-9.3s-.77-4.37-.77-4.37c0,0,5.88-5.52,8.19,0s0,12.83,0,12.83c0,0-1.68,12.09-5.63,15.57s2.56,2.76,2.56,2.76l9.72-9.71s3.19-15.42,7.17-13.24c3.97,2.18,2.05,5.46,2.05,5.46,0,0,.9,6.74-2.82,11.73-3.72,4.99-9.72,10.04-9.72,10.04l-6.4,4.8s-10.39,45.11,2.56,42.69c0,0-26.55,11.68-23.76,0Z"/><ellipse class="cls-2" cx="1666.48" cy="944.65" rx="27.21" ry="13.24"/><path class="cls-11" d="m1662.63,942.05s-45.33-7.82-41.33-58.49c0,0,10.88,45.66,42.75,50.08l-1.42,8.41Z"/><path class="cls-11" d="m1661.32,946.23s-45.81,2.08-50.27-48.54c0,0,18.24,42.5,50.27,39.97v8.57Z"/><path class="cls-11" d="m1665.26,947.21s-41.98-21.02-26.54-68.75c0,0,.07,47.32,29.83,61.05l-3.29,7.7Z"/><path class="cls-11" d="m1669.91,946.3s45.31-7.96,41.19-58.62c0,0-10.77,45.7-42.63,50.21l1.44,8.41Z"/><path class="cls-11" d="m1662.71,946.71s43.21-17.47,30.86-66.36c0,0-3.09,47.19-33.65,58.41l2.79,7.96Z"/><path class="cls-11" d="m1651.36,946.01s43.21-17.47,30.86-66.36c0,0-3.09,47.19-33.65,58.41l2.79,7.96Z"/><path class="cls-11" d="m1650.73,944.91s39.33-26.86,18.76-72.01c0,0,5.14,46.95-22.87,64.84l4.11,7.17Z"/><path class="cls-11" d="m1674.7,944.89s-41.98-21.02-26.54-68.75c0,0,.07,47.32,29.83,61.05l-3.29,7.7Z"/><ellipse class="cls-11" cx="1661.02" cy="935.29" rx="19.15" ry="13.29"/><ellipse class="cls-2" cx="1205.79" cy="234.31" rx="13.68" ry="7.59"/><path class="cls-11" d="m1203.85,232.82s-22.8-4.48-20.78-33.5c0,0,5.47,26.15,21.5,28.68l-.71,4.82Z"/><path class="cls-11" d="m1203.2,235.22s-23.04,1.19-25.28-27.8c0,0,9.17,24.34,25.28,22.89v4.91Z"/><path class="cls-11" d="m1205.18,235.78s-21.11-12.04-13.35-39.37c0,0,.04,27.1,15,34.96l-1.66,4.41Z"/><path class="cls-11" d="m1207.51,235.26s22.79-4.56,20.71-33.57c0,0-5.42,26.17-21.44,28.75l.72,4.82Z"/><path class="cls-11" d="m1203.89,235.49s21.73-10.01,15.52-38.01c0,0-1.56,27.02-16.92,33.45l1.4,4.56Z"/><path class="cls-11" d="m1198.19,235.09s21.73-10.01,15.52-38.01c0,0-1.56,27.02-16.92,33.45l1.4,4.56Z"/><path class="cls-11" d="m1197.87,234.46s19.78-15.39,9.43-41.24c0,0,2.59,26.89-11.5,37.13l2.07,4.11Z"/><path class="cls-11" d="m1209.92,234.45s-21.11-12.04-13.35-39.37c0,0,.04,27.1,15,34.96l-1.66,4.41Z"/><ellipse class="cls-11" cx="1203.04" cy="228.95" rx="9.63" ry="7.61"/><ellipse class="cls-2" cx="835.88" cy="398.31" rx="18.41" ry="9.59"/><path class="cls-11" d="m833.27,396.42s-30.68-5.66-27.97-42.34c0,0,7.36,33.05,28.93,36.25l-.96,6.09Z"/><path class="cls-11" d="m832.38,399.45s-31,1.51-34.02-35.13c0,0,12.35,30.76,34.02,28.93v6.2Z"/><path class="cls-11" d="m835.05,400.16s-28.41-15.21-17.96-49.76c0,0,.05,34.25,20.19,44.19l-2.23,5.58Z"/><path class="cls-11" d="m838.19,399.5s30.67-5.76,27.88-42.43c0,0-7.29,33.07-28.85,36.34l.97,6.09Z"/><path class="cls-11" d="m833.32,399.8s29.24-12.65,20.89-48.03c0,0-2.09,34.15-22.78,42.27l1.89,5.76Z"/><path class="cls-11" d="m825.64,399.3s29.24-12.65,20.89-48.03c0,0-2.09,34.15-22.78,42.27l1.89,5.76Z"/><path class="cls-11" d="m825.21,398.49s26.62-19.44,12.69-52.12c0,0,3.48,33.98-15.48,46.93l2.78,5.19Z"/><path class="cls-11" d="m841.44,398.49s-28.41-15.21-17.96-49.76c0,0,.05,34.25,20.19,44.19l-2.23,5.58Z"/><ellipse class="cls-11" cx="832.18" cy="391.54" rx="12.96" ry="9.62"/><ellipse class="cls-2" cx="216.64" cy="225.68" rx="13.92" ry="21.33" transform="translate(-65.22 361.4) rotate(-71.88)"/><ellipse class="cls-2" cx="191.16" cy="689.76" rx="36.49" ry="15.29"/><path class="cls-11" d="m185.99,686.75s-60.81-9.03-55.44-67.55c0,0,14.59,52.73,57.34,57.83l-1.9,9.72Z"/><path class="cls-11" d="m184.24,691.59s-61.45,2.4-67.43-56.06c0,0,24.47,49.08,67.43,46.16v9.9Z"/><path class="cls-11" d="m189.52,692.71s-56.31-24.27-35.6-79.39c0,0,.1,54.64,40.02,70.5l-4.42,8.9Z"/><path class="cls-11" d="m195.75,691.66s60.78-9.19,55.25-67.69c0,0-14.45,52.77-57.18,57.98l1.93,9.71Z"/><path class="cls-11" d="m186.09,692.13s57.96-20.18,41.4-76.64c0,0-4.15,54.49-45.14,67.45l3.74,9.19Z"/><path class="cls-11" d="m170.88,691.33s57.96-20.18,41.4-76.64c0,0-4.15,54.49-45.14,67.45l3.74,9.19Z"/><path class="cls-11" d="m170.02,690.05s52.76-31.02,25.16-83.15c0,0,6.9,54.22-30.68,74.87l5.52,8.28Z"/><path class="cls-11" d="m202.18,690.04s-56.31-24.27-35.6-79.39c0,0,.1,54.64,40.02,70.5l-4.42,8.9Z"/><ellipse class="cls-11" cx="183.83" cy="678.95" rx="25.69" ry="15.35"/><path class="cls-19" d="m228.15,220.1s-12.35-29.43-10.53-66.28c0,0,15.85-10.53,19.87-4.08,4.03,6.45,13.26,14.85,16.99,13.18s7.17,2.02,9.94,1.31c2.77-.7,12.1-3.73,3.13-6.73-8.97-3-14.72-1.69-14.72-1.69,0,0-13.15-8.18-12.77-13.48s12.82-7.19,12.82-7.19c0,0,10.13-1.8,9.62-10.55-.51-8.76,8.36-11.55,8.36-11.55,0,0,2.92-8.82-6.12-5.17s-9.62,14.58-9.62,14.58c0,0-1.61,6.5-10.75,8.21-9.14,1.7-11.69,8.52-11.69,8.52,0,0-11.17,5.63-6.73-2.85,4.44-8.47,4.17-11.73,4.17-11.73,0,0,4.42-7.7,9.62-7.01s8.01-11.44,8.01-11.44c0,0-.48-5.33-5.13-4.04-4.65,1.29-3.85,5.77-3.85,5.77,0,0-13.03,3.1-14.74,6.94s-6.59,18.88-6.59,18.88c0,0-3.89,5.65-4.62,0s-5.77-17.62-5.77-17.62c0,0-.1-14,0-13.97s1.01-6.47.96-6.57-9.1-11.84-10.26,0c-1.16,11.84-2.29,14.98,0,19.28s7.14,23.41,7.05,23.39-3.21,4.14-3.21,4.14c0,0-12.26-14.53-12.18-14.58s-1.39-17.51-8.97-19.89c-7.58-2.38-7.08,3.06-2.56,8.2s-1.13,10.13,3.53,17.62c4.65,7.49,12.18,15.08,12.18,15.08,0,0,10.38,3.21,8.01,7.2s-3.23,64.12-3.21,64.13,33.26,17.55,29.76,0Z"/><path class="cls-8" d="m1362.67,138.34v319.46l99.26,181.97s14.44,148.27-63.17,301.94c-77.61,153.66-764.17,0-764.17,0l-33.55-62s-48.73-5.39-55.95-40.44c-7.22-35.05,7.22-331.59-77.61-409.77-84.83-78.18,75.8-315.42,75.8-315.42,0,0,436.76-32.35,819.38,24.26Z"/><path class="cls-7" d="m1321.69,103.46v319.46l99.26,181.97s14.44,148.27-63.17,301.94c-77.61,153.66-764.17,0-764.17,0l-33.55-62s-48.73-5.39-55.95-40.44c-7.22-35.05,7.22-331.59-77.61-409.77-84.83-78.18,75.8-315.42,75.8-315.42,0,0,436.76-32.35,819.38,24.26Z"/><path class="cls-5" d="m995.33,584.14l-.71,8.02h-26.63l-.71-8.02h28.05Zm-1.14,13.46l-.75,8.23h-24.28l-.64-8.23h25.67Z"/><path class="cls-5" d="m1041,567.58c-.17,4.7-.42,13.06-.75,25.08-.12,6-.24,15.42-.36,28.26h-15.84c.05-7.12-.02-13.75-.21-19.89-.05-1.8-.17-6.66-.36-14.6-.4.07-1.28.25-2.63.55-.71.16-1.55.43-2.53.79l-3.38-11.62c2.68-1.11,7.43-3.19,14.24-6.26,2.11-.99,4.9-2.4,8.37-4.22l3.45,1.9Z"/><path class="cls-5" d="m1106.75,588.67c0,6.55-2.15,11.79-6.46,15.72-4.31,3.93-10.02,5.9-17.14,5.9l-.43,10.55h-19.62l-1.03-25.77c-.31-6.64-.79-15.76-1.46-27.36,3.7-.71,9.12-1.07,16.27-1.07,8.71,0,15.69,1.7,20.93,5.08,5.96,3.85,8.94,9.5,8.94,16.95Zm-14.77,5.81c0-3.6-2.2-5.4-6.59-5.4-.52,0-1.06.04-1.6.1l-.36,12.11c5.7-.18,8.54-2.46,8.54-6.81Z"/><path class="cls-5" d="m1156.84,593.14c0,8.14-2.16,15.02-6.48,20.65-4.53,5.88-10.34,8.82-17.41,8.82s-13.18-2.96-17.69-8.89c-4.25-5.58-6.37-12.44-6.37-20.58,0-8.69,2.31-15.52,6.94-20.48,4.37-4.66,10.07-6.99,17.12-6.99s12.58,2.34,16.95,7.02c4.63,4.98,6.94,11.79,6.94,20.44Zm-17.12,6.09c0-6.41-2.23-9.62-6.69-9.62s-6.51,3.23-6.51,9.68c0,2.58.57,4.99,1.71,7.23,1.28,2.51,2.86,3.77,4.73,3.77s3.44-1.28,4.84-3.84c1.28-2.33,1.92-4.74,1.92-7.23Z"/><path class="cls-5" d="m1184.25,567.71l-1.39,28.26c-.26,6.09-.57,14.38-.93,24.87h-19.97l-2.42-53.13h24.71Z"/><path class="cls-5" d="m1230.92,567.71c-.33,4.66-.79,12.79-1.39,24.38-.36,8.53-.65,18.34-.89,29.43-3.11-2.38-7.84-5.92-14.21-10.62-2.75-1.87-6.86-4.67-12.32-8.4l-.36,18.33h-11.46c-.19-4.68-.63-13.51-1.32-26.49-.59-10.51-1.2-19.39-1.82-26.63h17.87l13.24,12.17c0-2.79-.05-4.98-.14-6.57-.07-1.41-.21-3.27-.43-5.6h13.21Z"/><path class="cls-5" d="m1277.31,567.71l-1.03,21.76c-.93-.14-2.41-.31-4.45-.52-1.26-.07-3.3-.14-6.12-.21-.14,1.36-.39,4.65-.75,9.86-.26,5.05-.69,12.46-1.28,22.24h-17.23c-.19-4.66-.54-11.98-1.07-21.96-.24-3.46-.49-6.84-.75-10.13l-5.62.21-5.09.52-.89-21.76h44.29Z"/><path class="cls-5" d="m1007.2,797.27l-.71,8.02h-26.63l-.71-8.02h28.05Zm-1.14,13.46l-.75,8.23h-24.28l-.64-8.23h25.67Z"/><path class="cls-5" d="m1058.39,795.37c0,7.24-5.32,16.89-15.95,28.95h6.05c.93,0,2.43-.09,4.52-.28.81-.07,1.9-.21,3.28-.42-.33,1.02-.84,2.71-1.53,5.08-.33,1.22-.79,2.97-1.39,5.26h-22.96l-1.6-3.53c3.56-6.04,6-10.6,7.33-13.66,1.76-4.06,2.63-7.68,2.63-10.86,0-2.26-.71-3.99-2.14-5.19-1.19-.99-2.59-1.49-4.2-1.49s-3.1.36-4.59,1.07l1.67-18.61c3.56-1.25,7.36-1.87,11.39-1.87,5.29,0,9.53,1.42,12.71,4.27,3.18,2.85,4.77,6.6,4.77,11.26Z"/><path class="cls-5" d="m1121.9,801.8c0,6.55-2.15,11.79-6.46,15.72-4.31,3.93-10.02,5.9-17.14,5.9l-.43,10.55h-19.62l-1.03-25.77c-.31-6.64-.79-15.76-1.46-27.36,3.7-.71,9.12-1.07,16.27-1.07,8.71,0,15.69,1.7,20.93,5.08,5.96,3.85,8.94,9.5,8.94,16.95Zm-14.77,5.81c0-3.6-2.2-5.4-6.59-5.4-.52,0-1.06.04-1.6.1l-.36,12.11c5.7-.18,8.54-2.46,8.54-6.81Z"/><path class="cls-5" d="m1171.99,806.26c0,8.14-2.16,15.02-6.48,20.65-4.53,5.88-10.34,8.82-17.41,8.82s-13.18-2.96-17.69-8.89c-4.25-5.58-6.37-12.44-6.37-20.58,0-8.69,2.31-15.52,6.94-20.48,4.37-4.66,10.07-6.99,17.12-6.99s12.58,2.34,16.95,7.02c4.63,4.98,6.94,11.79,6.94,20.44Zm-17.12,6.09c0-6.41-2.23-9.62-6.69-9.62s-6.51,3.23-6.51,9.68c0,2.58.57,4.99,1.71,7.23,1.28,2.51,2.86,3.77,4.74,3.77s3.44-1.28,4.84-3.84c1.28-2.33,1.92-4.74,1.92-7.23Z"/><path class="cls-5" d="m1199.4,780.84l-1.39,28.26c-.26,6.09-.57,14.38-.93,24.87h-19.97l-2.42-53.13h24.71Z"/><path class="cls-5" d="m1246.07,780.84c-.33,4.66-.79,12.79-1.39,24.38-.36,8.53-.65,18.34-.89,29.43-3.11-2.38-7.84-5.92-14.2-10.62-2.75-1.87-6.86-4.67-12.32-8.4l-.36,18.33h-11.46c-.19-4.68-.63-13.51-1.32-26.49-.59-10.51-1.2-19.39-1.82-26.63h17.87l13.24,12.17c0-2.79-.05-4.98-.14-6.57-.07-1.41-.21-3.27-.43-5.6h13.21Z"/><path class="cls-5" d="m1292.46,780.84l-1.03,21.76c-.93-.14-2.41-.31-4.45-.52-1.26-.07-3.3-.14-6.12-.21-.14,1.36-.39,4.65-.75,9.86-.26,5.05-.69,12.46-1.28,22.24h-17.23c-.19-4.66-.55-11.98-1.07-21.96-.24-3.46-.49-6.84-.75-10.13l-5.62.21-5.09.52-.89-21.76h44.29Z"/><path class="cls-5" d="m985.65,374.2l-.71,8.02h-26.63l-.71-8.02h28.05Zm-1.14,13.45l-.75,8.23h-24.28l-.64-8.23h25.67Z"/><path class="cls-5" d="m1030.5,388.17l-1.6,10.55h-18.16l-1.74-10.55h21.5Z"/><path class="cls-5" d="m1061.58,357.63c-.17,4.7-.42,13.06-.75,25.08-.12,6-.24,15.41-.36,28.26h-15.84c.05-7.12-.02-13.75-.21-19.89-.05-1.8-.17-6.66-.36-14.6-.4.07-1.28.25-2.63.55-.71.16-1.55.43-2.53.8l-3.38-11.62c2.68-1.11,7.43-3.19,14.24-6.26,2.11-.99,4.9-2.4,8.37-4.22l3.45,1.9Z"/><path class="cls-5" d="m1118.15,400.42c-.24.92-.68,2.66-1.32,5.22-.33,1.5-.62,3.25-.85,5.26h-32.22c-.12-5.42-.42-14.34-.89-26.77-.31-6.36-.87-15.15-1.67-26.36h24.71l-2.03,44.06c2.3,0,5.76-.24,10.36-.73.95-.09,2.25-.32,3.92-.69Z"/><path class="cls-5" d="m1144.53,357.77l-1.39,28.26c-.26,6.09-.57,14.38-.93,24.87h-19.97l-2.42-53.13h24.71Z"/><path class="cls-5" d="m1193.3,357.77c-1.97,5.67-5.13,14.93-9.47,27.77-1.99,6.04-4.57,14.49-7.73,25.35h-12.39c-1.59-5.26-4.25-13.85-7.97-25.77-2.11-6.59-5.25-15.71-9.4-27.36h25.17c.24,2.19.79,5.75,1.67,10.69.59,2.63,1.52,6.25,2.78,10.86.66-2.24,1.64-5.88,2.92-10.93.59-2.72,1.27-6.26,2.03-10.62h12.39Z"/><ellipse class="cls-1" cx="714" cy="578.36" rx="67.61" ry="71.74"/><path class="cls-1" d="m658.72,586.83l-32.58-22.64-33.55,56.14s-.8,6.54-4.29,5.97-13.91-2.75-13.91-2.75c0,0-8.62-2.09-4.33-6.36,4.29-4.27,8.05-2.28,8.05-2.28l4.56,1.14,35.42-60.93s4.05-9.27,8.06-7.2,35.91,22.37,35.91,22.37l7.81,4.19-3.97,12.49-7.17-.15Z"/><path class="cls-1" d="m669.29,557.88l-42.06-19.57-43.32,48.53s-1.04,5.65-5.54,5.16c-4.5-.49-17.96-2.38-17.96-2.38,0,0-5.52-1.3-5.59-5.49s10.39-1.97,10.39-1.97l5.89.98,45.72-52.67s5.23-8.02,10.41-6.22,46.36,19.33,46.36,19.33l10.08,3.62-5.12,10.8-9.25-.13Z"/><path class="cls-1" d="m765.4,557.88l42.06-19.57,43.32,48.53s1.04,5.65,5.54,5.16c4.5-.49,17.96-2.38,17.96-2.38,0,0,5.52-1.3,5.59-5.49s-10.39-1.97-10.39-1.97l-5.89.98-45.72-52.67s-5.23-8.02-10.41-6.22-46.36,19.33-46.36,19.33l-10.08,3.62,5.12,10.8,9.25-.13Z"/><path class="cls-1" d="m773.29,586.86l32.58-22.64,33.55,56.14s.8,6.54,4.29,5.97c3.49-.57,13.91-2.75,13.91-2.75,0,0,8.62-2.09,4.33-6.36s-8.05-2.28-8.05-2.28l-4.56,1.14-35.42-60.93s-4.05-9.27-8.06-7.2c-4.01,2.07-35.91,22.37-35.91,22.37l-7.81,4.19,3.97,12.49,7.17-.15Z"/><path class="cls-1" d="m758.41,629.47l40.24-52.67s3.76-7.69,7.51-4.56c3.76,3.13,4.7,7.69,4.7,7.69l15.47,49.54h11.02s5.58.57,4.24,3.98-4.71,4.82-4.71,4.82h-18.21s-6.06-1.98-4.71-6.53-9.66-41.71-9.66-41.71l-26.03,37.7-19.85,1.73Z"/><path class="cls-1" d="m679,632.79l-40.24-52.67s-3.76-7.69-7.51-4.56-4.7,7.69-4.7,7.69l-15.47,49.54h-11.02s-5.58.57-4.24,3.98,4.71,4.82,4.71,4.82h18.21s6.06-1.98,4.71-6.53c-1.34-4.56,9.66-41.71,9.66-41.71l26.03,37.7,19.85,1.73Z"/><path class="cls-1" d="m715.47,509.04s19.45.89,31.93,8.49c12.48,7.6-26.7,44.47-26.7,44.47,0,0-6.71,7.54-6.98,0-.27-7.54,1.74-52.95,1.74-52.95Z"/><path class="cls-1" d="m715.87,509.08s-19.45.89-31.93,8.49c-12.48,7.6,26.7,44.47,26.7,44.47,0,0,6.71,7.54,6.98,0s-1.74-52.95-1.74-52.95Z"/><path class="cls-1" d="m738.78,635.41l47.76-30.32s10.46-7.12,10.6,0c.13,7.12-8.99,14.23-8.99,14.23l-52.83,31.37,3.46-15.29Z"/><path class="cls-1" d="m698.41,527.45l-2.14,9.23s-19.66,5.88-27.77,16.69-8.8-.68-8.8-.68c0,0,6.02-13.63,38.71-25.23Z"/><path class="cls-1" d="m708.52,540.61l-2.14,9.23s-19.66,5.88-27.77,16.69-8.8-.68-8.8-.68c0,0,6.02-13.63,38.71-25.23Z"/><path class="cls-1" d="m723.54,550l-2.14,9.23s-19.66,5.88-27.77,16.69c-8.11,10.81-8.8-.68-8.8-.68,0,0,6.02-13.63,38.71-25.23Z"/><path class="cls-1" d="m735.27,527.51l2.14,9.23s19.66,5.88,27.77,16.69c8.11,10.81,8.8-.68,8.8-.68,0,0-6.02-13.63-38.71-25.23Z"/><path class="cls-1" d="m725.08,540.61l2.14,9.23s19.66,5.88,27.77,16.69c8.11,10.81,8.8-.68,8.8-.68,0,0-6.02-13.63-38.71-25.23Z"/><path class="cls-1" d="m709.25,547.73l2.14,9.23s19.66,5.88,27.77,16.69c8.11,10.81,8.8-.68,8.8-.68,0,0-6.02-13.63-38.71-25.23Z"/><path class="cls-1" d="m695.62,635.53l-47.76-30.32s-10.46-7.12-10.6,0c-.13,7.12,8.99,14.23,8.99,14.23l52.83,31.37-3.46-15.29Z"/><ellipse class="cls-1" cx="715.07" cy="632.88" rx="31.93" ry="33.74"/><path class="cls-1" d="m690.95,638.47l-47.76-30.32s-10.46-7.12-10.6,0c-.13,7.12,0,49.68,0,49.68h-9.93s-4.43,1.85-3.09,4.7l1.34,2.85h18.86c5.02-3.7,1.8-7.4,1.8-7.4v-35.59s52.83,31.37,52.83,31.37l-3.46-15.29Z"/><ellipse class="cls-1" cx="715.21" cy="641.85" rx="31.93" ry="33.74"/><ellipse class="cls-1" cx="722.05" cy="636.16" rx="6.44" ry="7.4"/><ellipse class="cls-1" cx="707.02" cy="636.16" rx="6.44" ry="7.4"/><ellipse class="cls-1" cx="735.2" cy="628.79" rx="4.29" ry="4.52"/><ellipse class="cls-1" cx="694.41" cy="628.82" rx="4.29" ry="4.52"/><ellipse class="cls-1" cx="722.05" cy="636.07" rx="2.95" ry="3.22"/><ellipse class="cls-1" cx="707.02" cy="636.23" rx="2.95" ry="3.22"/><path class="cls-1" d="m707.82,650.25s5.41,9.29,12.62,0c0,0-6.54-2-12.62,0Z"/><path class="cls-1" d="m743.92,638.43l47.76-30.32s10.46-7.12,10.6,0,0,49.68,0,49.68h9.93s4.43,1.85,3.09,4.7l-1.34,2.85h-18.86c-5.02-3.7-1.8-7.4-1.8-7.4v-35.59l-52.83,31.37,3.46-15.29Z"/><ellipse class="cls-24" cx="713.94" cy="582.51" rx="67.61" ry="71.74"/><path class="cls-24" d="m658.67,590.98l-32.58-22.64-33.55,56.14s-.8,6.54-4.29,5.97c-3.49-.57-13.91-2.75-13.91-2.75,0,0-8.62-2.09-4.33-6.36s8.05-2.28,8.05-2.28l4.56,1.14,35.42-60.93s4.05-9.27,8.06-7.2,35.91,22.37,35.91,22.37l7.81,4.19-3.97,12.49-7.17-.15Z"/><path class="cls-24" d="m669.23,562.03l-42.06-19.57-43.32,48.53s-1.04,5.65-5.54,5.16c-4.5-.49-17.96-2.38-17.96-2.38,0,0-5.52-1.3-5.59-5.49s10.39-1.97,10.39-1.97l5.89.98,45.72-52.67s5.23-8.02,10.41-6.22c5.18,1.79,46.36,19.33,46.36,19.33l10.08,3.62-5.12,10.8-9.25-.13Z"/><path class="cls-24" d="m765.35,562.03l42.06-19.57,43.32,48.53s1.04,5.65,5.54,5.16,17.96-2.38,17.96-2.38c0,0,5.52-1.3,5.59-5.49s-10.39-1.97-10.39-1.97l-5.89.98-45.72-52.67s-5.23-8.02-10.41-6.22-46.36,19.33-46.36,19.33l-10.08,3.62,5.12,10.8,9.25-.13Z"/><path class="cls-24" d="m773.24,591.01l32.58-22.64,33.55,56.14s.8,6.54,4.29,5.97,13.91-2.75,13.91-2.75c0,0,8.62-2.09,4.33-6.36-4.29-4.27-8.05-2.28-8.05-2.28l-4.56,1.14-35.42-60.93s-4.05-9.27-8.06-7.2-35.91,22.37-35.91,22.37l-7.81,4.19,3.97,12.49,7.17-.15Z"/><path class="cls-24" d="m758.35,633.62l40.24-52.67s3.76-7.69,7.51-4.56,4.7,7.69,4.7,7.69l15.47,49.54h11.02s5.58.57,4.24,3.98-4.71,4.82-4.71,4.82h-18.21s-6.06-1.98-4.71-6.53c1.34-4.56-9.66-41.71-9.66-41.71l-26.03,37.7-19.85,1.73Z"/><path class="cls-24" d="m678.94,636.94l-40.24-52.67s-3.76-7.69-7.51-4.56c-3.76,3.13-4.7,7.69-4.7,7.69l-15.47,49.54h-11.02s-5.58.57-4.24,3.98,4.71,4.82,4.71,4.82h18.21s6.06-1.98,4.71-6.53c-1.34-4.56,9.66-41.71,9.66-41.71l26.03,37.7,19.85,1.73Z"/><path class="cls-27" d="m715.42,513.19s19.45.89,31.93,8.49-26.7,44.47-26.7,44.47c0,0-6.71,7.54-6.98,0-.27-7.54,1.74-52.95,1.74-52.95Z"/><path class="cls-27" d="m715.82,513.23s-19.45.89-31.93,8.49c-12.48,7.6,26.7,44.47,26.7,44.47,0,0,6.71,7.54,6.98,0,.27-7.54-1.74-52.95-1.74-52.95Z"/><path class="cls-27" d="m738.73,639.56l47.76-30.32s10.46-7.12,10.6,0c.13,7.12-8.99,14.23-8.99,14.23l-52.83,31.37,3.46-15.29Z"/><path class="cls-27" d="m698.35,531.6l-2.14,9.23s-19.66,5.88-27.77,16.69c-8.11,10.81-8.8-.68-8.8-.68,0,0,6.02-13.63,38.71-25.23Z"/><path class="cls-27" d="m708.46,544.76l-2.14,9.23s-19.66,5.88-27.77,16.69c-8.11,10.81-8.8-.68-8.8-.68,0,0,6.02-13.63,38.71-25.23Z"/><path class="cls-27" d="m723.49,554.15l-2.14,9.23s-19.66,5.88-27.77,16.69c-8.11,10.81-8.8-.68-8.8-.68,0,0,6.02-13.63,38.71-25.23Z"/><path class="cls-27" d="m735.22,531.66l2.14,9.23s19.66,5.88,27.77,16.69,8.8-.68,8.8-.68c0,0-6.02-13.63-38.71-25.23Z"/><path class="cls-27" d="m725.02,544.76l2.14,9.23s19.66,5.88,27.77,16.69c8.11,10.81,8.8-.68,8.8-.68,0,0-6.02-13.63-38.71-25.23Z"/><path class="cls-27" d="m709.19,551.88l2.14,9.23s19.66,5.88,27.77,16.69c8.11,10.81,8.8-.68,8.8-.68,0,0-6.02-13.63-38.71-25.23Z"/><path class="cls-27" d="m695.56,639.68l-47.76-30.32s-10.46-7.12-10.6,0,8.99,14.23,8.99,14.23l52.83,31.37-3.46-15.29Z"/><ellipse class="cls-27" cx="715.02" cy="637.03" rx="31.93" ry="33.74"/><path class="cls-24" d="m690.89,642.62l-47.76-30.32s-10.46-7.12-10.6,0c-.13,7.12,0,49.68,0,49.68h-9.93s-4.43,1.85-3.09,4.7l1.34,2.85h18.86c5.02-3.7,1.8-7.4,1.8-7.4v-35.59s52.83,31.37,52.83,31.37l-3.46-15.29Z"/><ellipse class="cls-24" cx="715.15" cy="646" rx="31.93" ry="33.74"/><ellipse class="cls-10" cx="721.99" cy="640.31" rx="6.44" ry="7.4"/><ellipse class="cls-10" cx="706.97" cy="640.31" rx="6.44" ry="7.4"/><ellipse class="cls-10" cx="735.14" cy="632.94" rx="4.29" ry="4.52"/><ellipse class="cls-10" cx="694.36" cy="632.97" rx="4.29" ry="4.52"/><ellipse class="cls-6" cx="721.99" cy="640.22" rx="2.95" ry="3.22"/><ellipse class="cls-6" cx="706.97" cy="640.38" rx="2.95" ry="3.22"/><path class="cls-25" d="m707.77,654.4s5.41,9.29,12.62,0c0,0-6.54-2-12.62,0Z"/><path class="cls-24" d="m743.86,642.58l47.76-30.32s10.46-7.12,10.6,0c.13,7.12,0,49.68,0,49.68h9.93s4.43,1.85,3.09,4.7l-1.34,2.85h-18.86c-5.02-3.7-1.8-7.4-1.8-7.4v-35.59l-52.83,31.37,3.46-15.29Z"/><path class="cls-21" d="m867.51,844.34c.05,0-3.67-20.51,15.4-33.67,19.07-13.16,13.3-13.52,12.02-26.64s3.91-22.38,10.52-20.42,10.88,33.63,10.88,33.63c0,0,.97,14.19-15.14,22.63-6.16,3.26-13.27,18.06-13.27,18.06,0,0-2.38,17-4.06,14.8"/><path class="cls-21" d="m736.11,895.8h149.75s16.17-1.57,16.51-14.88c.34-13.31-17.94-15.03-17.94-15.03h-148.32s-11.68,2.37-11.43,14.95,11.43,14.95,11.43,14.95Z"/><path class="cls-21" d="m748.23,865.89h125.09s13.51-1.57,13.79-14.88-14.98-15.03-14.98-15.03h-123.89s-9.76,2.37-9.55,14.95c.21,12.59,9.55,14.95,9.55,14.95Z"/><path class="cls-21" d="m760.91,835.99h96.63s10.43-1.57,10.65-14.88c.22-13.31-11.57-15.03-11.57-15.03h-95.71s-7.54,2.37-7.38,14.95,7.38,14.95,7.38,14.95Z"/><path class="cls-21" d="m794.5,806.19s-1.43-31.2,9.53-38.95c10.96-7.75,27.3,1.29,35.47-9.25,8.17-10.54-7.09-20.44-7.09-20.44h-49.81s-16.61,2.8-16.4-13.34c.21-16.14,15.26-12.69,15.26-12.69l51.42-.31s35.64-2.15,35.31,43.29-38.15,18.98-41.38,32.75c-3.22,13.77-2,18.93-2,18.93h-30.32Z"/><path class="cls-26" d="m869,837.98s-2.1-18.93,14.99-29.91c17.09-10.97,12.14-11.62,11.71-23.67-.43-12.05,4.51-20.23,10.1-18.07s7.63,31.31,7.63,31.31c0,0,.11,13.02-14.2,19.84-5.47,2.64-12.35,15.77-12.35,15.77,0,0-2.93,15.39-4.26,13.29"/><path class="cls-21" d="m731.89,898.44h157.96s17.06-1.66,17.41-15.77c.35-14.11-18.92-15.93-18.92-15.93h-156.45s-12.32,2.51-12.06,15.85c.27,13.34,12.06,15.85,12.06,15.85Z"/><path class="cls-21" d="m744.68,866.74h131.94s14.25-1.66,14.54-15.77c.3-14.11-15.8-15.93-15.8-15.93h-130.69s-10.29,2.51-10.07,15.85c.22,13.34,10.07,15.85,10.07,15.85Z"/><path class="cls-21" d="m758.06,835.04h101.93s11.01-1.66,11.24-15.77-12.21-15.93-12.21-15.93h-100.95s-7.95,2.51-7.78,15.85c.17,13.34,7.78,15.85,7.78,15.85Z"/><path class="cls-26" d="m790.94,804.63s-1.43-31.2,9.53-38.95c10.96-7.75,27.3,1.29,35.47-9.25s-7.09-20.44-7.09-20.44h-49.81s-16.61,2.8-16.4-13.34,15.26-12.69,15.26-12.69l51.42-.31s35.64-2.15,35.31,43.29-38.15,18.98-41.38,32.75c-3.22,13.77-2,18.93-2,18.93h-30.32Z"/><circle class="cls-17" cx="773.29" cy="714.79" r="3.33"/><path class="cls-3" d="m765.49,728.89s-4.91,4.05-12.68,3.35c-7.76-.7-17.88-2.66-17.88-2.66l-6.44-.68,2.69,1.71h-7.27l5.73,1.71s12.42,3.47,23.17,3.26,17.04-3.95,17.04-3.95c0,0-4.36-2.71-4.36-2.75Z"/><circle class="cls-29" cx="766.62" cy="722.75" r=".75"/><circle class="cls-6" cx="774.9" cy="714.68" r="1.51"/><path class="cls-26" d="m760.79,834.75h96.63s10.43-1.57,10.65-14.88c.22-13.31-11.57-15.03-11.57-15.03h-95.71s-7.54,2.37-7.38,14.95,7.38,14.95,7.38,14.95Z"/><path class="cls-26" d="m748.22,865.95h125.09s13.51-1.57,13.79-14.88-14.98-15.03-14.98-15.03h-123.89s-9.76,2.37-9.55,14.95,9.55,14.95,9.55,14.95Z"/><path class="cls-26" d="m735.46,897.58h149.75s16.17-1.57,16.51-14.88-17.94-15.03-17.94-15.03h-148.32s-11.68,2.37-11.43,14.95,11.43,14.95,11.43,14.95Z"/><path class="cls-18" d="m614.44,414.77h185.77s8-106.92-92.88-107.48-92.88,107.48-92.88,107.48Z"/><path class="cls-18" d="m619.22,424.45h147.69s6.36-89.49-73.84-89.97c-80.21-.47-73.84,89.97-73.84,89.97Z"/><ellipse class="cls-18" cx="596.24" cy="319.98" rx="12.24" ry="12.98"/><ellipse class="cls-18" cx="579.31" cy="320.57" rx="12.24" ry="12.98"/><path class="cls-18" d="m757.98,460.82s15.73,1.74,16.07-4.17c.33-5.91,0-49.24,0-49.24,0,0-11.96-18.63-21.55,0,0,0-5.48,24.6,0,45.97,0,0,.45,7.11,5.48,7.45Z"/><path class="cls-18" d="m618.41,461.7s15.73,1.74,16.07-4.17c.33-5.91,0-49.24,0-49.24,0,0-11.96-18.63-21.55,0,0,0-5.48,24.6,0,45.97,0,0,.45,7.11,5.48,7.45Z"/><path class="cls-18" d="m645.12,467.78s17.54,1.82,17.91-4.38c.37-6.2,0-51.67,0-51.67,0,0-13.32-19.55-24.01,0,0,0-6.1,25.81,0,48.23,0,0,.51,7.46,6.1,7.82Z"/><path class="cls-12" d="m757.24,375.92s21.98,6.56,42.33-10.17,24.56,5.56,8.56,12.34c-16,6.78-33.29,16.93-56.35,16.67-23.06-.26,5.46-18.84,5.46-18.84Z"/><path class="cls-12" d="m620.44,458.34s15.39,1.65,15.71-3.96,0-46.66,0-46.66c0,0-11.69-17.66-21.07,0,0,0-5.35,23.31,0,43.56,0,0,.44,6.73,5.35,7.06Z"/><path class="cls-12" d="m764.35,458.29s15.39,1.65,15.71-3.96,0-46.66,0-46.66c0,0-11.69-17.66-21.07,0,0,0-5.35,23.31,0,43.56,0,0,.44,6.73,5.35,7.06Z"/><path class="cls-12" d="m616.2,423.11h182.67s7.87-113.75-91.34-114.36c-99.21-.6-91.34,114.36-91.34,114.36Z"/><path class="cls-12" d="m780.89,461.55s17.54,1.82,17.91-4.38c.37-6.2,0-51.67,0-51.67,0,0-13.32-19.55-24.01,0,0,0-6.1,25.81,0,48.23,0,0,.51,7.46,6.1,7.82Z"/><path class="cls-18" d="m654.84,322.2s51.76-32.91,104.71,0c0,0-21.82,29.24-52.35,29.82s-52.35-29.82-52.35-29.82Z"/><path class="cls-18" d="m786.09,349.86s-38.56,5.97-32.02,16.07c6.54,10.1,41.18,4.99,41.18,4.99l-9.16-21.06Z"/><path class="cls-18" d="m628.55,356.35s29.43-2.4,29.45,9.58-36.9,11.28-36.9,11.28l7.45-20.85Z"/><ellipse class="cls-18" cx="602.19" cy="348.39" rx="34.25" ry="36.71"/><ellipse class="cls-12" cx="600" cy="348.23" rx="34.1" ry="36.24"/><ellipse class="cls-12" cx="577.63" cy="320.48" rx="10.15" ry="10.78"/><ellipse class="cls-12" cx="595.86" cy="320.14" rx="10.55" ry="11.27"/><ellipse class="cls-17" cx="595.58" cy="323.68" rx="6.48" ry="6.96"/><ellipse class="cls-17" cx="577.68" cy="323.76" rx="6.48" ry="6.96"/><path class="cls-12" d="m588.03,322.97h17.2s-.15-9.99-8.6-10.25-8.6,10.25-8.6,10.25Z"/><path class="cls-12" d="m568.5,322.99h17.2s-.15-11.22-8.6-11.52c-8.45-.3-8.6,11.52-8.6,11.52Z"/><ellipse class="cls-6" cx="595.6" cy="325.99" rx="2.24" ry="2.31"/><ellipse class="cls-6" cx="577.1" cy="325.95" rx="2.24" ry="2.31"/><path class="cls-25" d="m579.01,357.47s6.57,12.63,15.33,0c0,0-7.95-2.72-15.33,0Z"/><path class="cls-18" d="m707.54,385.09s55.83.59,44.25,9.67-25.14,16.03-44.59,16.15c-19.45.12-42.01-5.5-42.39-14.1s42.74-11.72,42.74-11.72Z"/><path class="cls-18" d="m639.87,467.87s17.54,1.82,17.91-4.38c.37-6.2,0-51.67,0-51.67,0,0-13.32-19.55-24.01,0,0,0-6.1,25.81,0,48.23,0,0,.51,7.46,6.1,7.82Z"/><path class="cls-12" d="m642.72,465.81s17.54,1.82,17.91-4.38c.37-6.2,0-51.67,0-51.67,0,0-13.32-19.55-24.01,0,0,0-6.1,25.81,0,48.23,0,0,.51,7.46,6.1,7.82Z"/><path class="cls-18" d="m784.69,466.9s17.54,1.82,17.91-4.38c.37-6.2,0-51.67,0-51.67,0,0-13.32-19.55-24.01,0,0,0-6.1,25.81,0,48.23,0,0,.51,7.46,6.1,7.82Z"/><path class="cls-12" d="m760.01,457.46s15.39,1.65,15.71-3.96c.33-5.6,0-46.66,0-46.66,0,0-11.69-17.66-21.07,0,0,0-5.35,23.31,0,43.56,0,0,.44,6.73,5.35,7.06Z"/><path class="cls-18" d="m779.44,466.99s17.54,1.82,17.91-4.38c.37-6.2,0-51.67,0-51.67,0,0-13.32-19.55-24.01,0,0,0-6.1,25.81,0,48.23,0,0,.51,7.46,6.1,7.82Z"/><path class="cls-12" d="m782.29,464.93s17.54,1.82,17.91-4.38c.37-6.2,0-51.67,0-51.67,0,0-13.32-19.55-24.01,0,0,0-6.1,25.81,0,48.23,0,0,.51,7.46,6.1,7.82Z"/><path class="cls-16" d="m648.45,221.22l4.86,9.01s-16.57,16.71-16.89,30.63c-.32,13.92-9.99,4.71-9.99,4.71,0,0-4.11-15.03,22.02-44.35Z"/><path class="cls-16" d="m650.88,175.45s-16.39-2.95-24.74-19.18-17.78-4.34-9.32,4.65,16.78,20.38,31.99,27.39c15.21,7.01,2.06-12.86,2.06-12.86Z"/><path class="cls-16" d="m655.2,228.81l6.17,8.23s-13.88,18.87-12.11,32.68-9.18,6.06-9.18,6.06c0,0-6.32-14.29,15.11-46.98Z"/><path class="cls-16" d="m643.98,207.06l2.99,9.75s-19.57,13.33-22.65,26.93-10.74,2.77-10.74,2.77c0,0-1.05-15.51,30.4-39.45Z"/><path class="cls-16" d="m635.04,194.9l2.99,9.75s-19.57,13.33-22.65,26.93c-3.07,13.6-10.74,2.77-10.74,2.77,0,0-1.05-15.51,30.4-39.45Z"/><path class="cls-16" d="m776.07,223.26l-4.86,9.01s16.57,16.71,16.89,30.63,9.99,4.71,9.99,4.71c0,0,4.11-15.03-22.02-44.35Z"/><path class="cls-16" d="m769.32,230.86l-6.17,8.23s13.88,18.87,12.11,32.68c-1.77,13.81,9.18,6.06,9.18,6.06,0,0,6.32-14.29-15.11-46.98Z"/><path class="cls-16" d="m780.54,209.11l-2.99,9.75s19.57,13.33,22.65,26.93c3.07,13.6,10.74,2.77,10.74,2.77,0,0,1.05-15.51-30.4-39.45Z"/><path class="cls-16" d="m789.48,196.95l-2.99,9.75s19.57,13.33,22.65,26.93c3.07,13.6,10.74,2.77,10.74,2.77,0,0,1.05-15.51-30.4-39.45Z"/><path class="cls-16" d="m592.47,157.98s28.12,14.68,32.05,6.52,11.91-26.21-14.54-38.86-38.26,4.01-38.26,4.01l-1.95,3.59s-4.36,6.53,19.34,9.52c0,0,2.89.73.81,3.37s-10.43,2.26-10.43,2.26c0,0-3.47-1.07-2.48,1.75s2.09,4.12,4.17,6.06,4.99,2.02,11.29,1.77Z"/><path class="cls-16" d="m776.57,175.51s16.39-2.95,24.74-19.18,17.78-4.34,9.32,4.65c-8.47,8.99-16.78,20.38-31.99,27.39-15.21,7.01-2.06-12.86-2.06-12.86Z"/><path class="cls-16" d="m834.99,158.05s-28.12,14.68-32.05,6.52-11.91-26.21,14.54-38.86,38.26,4.01,38.26,4.01l1.95,3.59s4.36,6.53-19.34,9.52c0,0-2.89.73-.81,3.37,2.09,2.64,10.43,2.26,10.43,2.26,0,0,3.47-1.07,2.48,1.75s-2.09,4.12-4.17,6.06-4.99,2.02-11.29,1.77Z"/><ellipse class="cls-16" cx="713.92" cy="196.88" rx="91.81" ry="53.68"/><ellipse class="cls-16" cx="692.73" cy="143.1" rx="18.53" ry="17.93"/><ellipse class="cls-16" cx="732.77" cy="143.1" rx="18.53" ry="17.93"/><ellipse class="cls-16" cx="732.88" cy="143.2" rx="9.27" ry="8.96"/><ellipse class="cls-16" cx="692.83" cy="143.2" rx="9.27" ry="8.96"/><ellipse class="cls-16" cx="732.77" cy="143.1" rx="4.69" ry="4.53"/><ellipse class="cls-16" cx="692.73" cy="143.1" rx="4.69" ry="4.53"/><path class="cls-16" d="m702.1,170.84s7.2,13.73,16.81,0c0,0-8.71-2.96-16.81,0Z"/><path class="cls-4" d="m648.73,220.65l4.76,8.78s-16.22,16.28-16.53,29.84c-.32,13.56-9.78,4.59-9.78,4.59,0,0-4.02-14.64,21.55-43.21Z"/><path class="cls-4" d="m651.11,176.06s-16.04-2.87-24.21-18.69-17.4-4.22-9.12,4.53c8.29,8.76,16.42,19.85,31.31,26.68,14.89,6.83,2.02-12.53,2.02-12.53Z"/><path class="cls-4" d="m655.34,228.05l6.04,8.02s-13.58,18.38-11.85,31.84c1.74,13.46-8.98,5.91-8.98,5.91,0,0-6.19-13.92,14.79-45.77Z"/><path class="cls-4" d="m644.36,206.86l2.92,9.5s-19.15,12.99-22.16,26.24c-3.01,13.25-10.51,2.7-10.51,2.7,0,0-1.03-15.11,29.75-38.43Z"/><path class="cls-4" d="m635.6,195.01l2.92,9.5s-19.15,12.99-22.16,26.24-10.51,2.7-10.51,2.7c0,0-1.03-15.11,29.75-38.43Z"/><path class="cls-4" d="m773.61,222.64l-4.76,8.78s16.22,16.28,16.53,29.84,9.78,4.59,9.78,4.59c0,0,4.02-14.64-21.55-43.21Z"/><path class="cls-4" d="m767.01,230.04l-6.04,8.02s13.58,18.38,11.85,31.84c-1.74,13.46,8.98,5.91,8.98,5.91,0,0,6.19-13.92-14.79-45.77Z"/><path class="cls-4" d="m777.99,208.85l-2.92,9.5s19.15,12.99,22.16,26.24c3.01,13.25,10.51,2.7,10.51,2.7,0,0,1.03-15.11-29.75-38.43Z"/><path class="cls-4" d="m786.74,197l-2.92,9.5s19.15,12.99,22.16,26.24c3.01,13.25,10.51,2.7,10.51,2.7,0,0,1.03-15.11-29.75-38.43Z"/><path class="cls-4" d="m774.11,176.12s16.04-2.87,24.21-18.69c8.17-15.82,17.4-4.22,9.12,4.53-8.29,8.76-16.42,19.85-31.31,26.68-14.89,6.83-2.02-12.53-2.02-12.53Z"/><path class="cls-4" d="m831.27,159.1s-27.51,14.3-31.37,6.36c-3.85-7.95-11.65-25.54,14.22-37.86,25.88-12.32,37.44,3.91,37.44,3.91l1.91,3.5s4.27,6.36-18.93,9.27c0,0-2.83.71-.79,3.28s10.21,2.2,10.21,2.2c0,0,3.39-1.05,2.43,1.7s-2.05,4.02-4.08,5.91c-2.03,1.89-4.88,1.97-11.05,1.73Z"/><ellipse class="cls-4" cx="712.8" cy="196.93" rx="89.84" ry="52.3"/><ellipse class="cls-4" cx="692.06" cy="144.54" rx="18.13" ry="17.47"/><ellipse class="cls-4" cx="731.25" cy="144.54" rx="18.13" ry="17.47"/><ellipse class="cls-9" cx="731.35" cy="144.64" rx="9.07" ry="8.73"/><ellipse class="cls-9" cx="692.16" cy="144.64" rx="9.07" ry="8.73"/><ellipse class="cls-25" cx="731.25" cy="144.54" rx="4.59" ry="4.42"/><ellipse class="cls-25" cx="692.06" cy="144.54" rx="4.59" ry="4.42"/><path class="cls-25" d="m701.23,171.57s7.05,13.38,16.45,0c0,0-8.53-2.88-16.45,0Z"/><path class="cls-4" d="m593.95,159.04s27.51,14.3,31.37,6.36c3.85-7.95,11.65-25.54-14.22-37.86-25.88-12.32-37.44,3.91-37.44,3.91l-1.91,3.5s-4.27,6.36,18.93,9.27c0,0,2.83.71.79,3.28s-10.21,2.2-10.21,2.2c0,0-3.39-1.05-2.43,1.7.97,2.75,2.05,4.02,4.08,5.91s4.88,1.97,11.05,1.73Z"/><path class="cls-23" d="m626.67,213.77s18.39,36.76,85.84,36.83c67.45.07,89.84-40.38,89.84-40.38l2.99-9.41s-100.51,27.09-182.17,2.99l3.51,9.98Z"/><path class="cls-5" d="m965.5,186.98l-.71,8.02h-26.63l-.71-8.02h28.05Zm-1.14,13.45l-.75,8.23h-24.28l-.64-8.23h25.67Z"/><path class="cls-5" d="m1010.36,200.95l-1.6,10.55h-18.16l-1.74-10.55h21.5Z"/><path class="cls-5" d="m1041.44,170.41c-.17,4.7-.42,13.06-.75,25.08-.12,6-.24,15.41-.36,28.26h-15.84c.05-7.12-.02-13.75-.21-19.89-.05-1.8-.17-6.66-.36-14.6-.4.07-1.28.25-2.63.55-.71.16-1.55.43-2.53.8l-3.38-11.62c2.68-1.11,7.43-3.19,14.24-6.26,2.11-.99,4.9-2.4,8.37-4.22l3.45,1.9Z"/><path class="cls-5" d="m1098,213.2c-.24.92-.68,2.66-1.32,5.22-.33,1.5-.62,3.25-.85,5.26h-32.22c-.12-5.42-.42-14.34-.89-26.77-.31-6.36-.87-15.15-1.67-26.36h24.71l-2.03,44.06c2.3,0,5.75-.24,10.36-.73.95-.09,2.25-.32,3.92-.69Z"/><path class="cls-5" d="m1124.38,170.55l-1.39,28.26c-.26,6.09-.57,14.38-.93,24.87h-19.97l-2.42-53.13h24.71Z"/><path class="cls-5" d="m1173.15,170.55c-1.97,5.67-5.13,14.93-9.47,27.77-1.99,6.04-4.57,14.49-7.72,25.35h-12.39c-1.59-5.26-4.25-13.85-7.97-25.77-2.11-6.59-5.25-15.71-9.4-27.36h25.17c.24,2.19.79,5.75,1.67,10.69.59,2.63,1.52,6.25,2.78,10.86.66-2.24,1.64-5.88,2.92-10.93.59-2.72,1.27-6.26,2.03-10.62h12.39Z"/></svg>