<?xml version="1.0" encoding="UTF-8"?><svg id="Layer_1" xmlns="http://www.w3.org/2000/svg" width="1920" height="1080" viewBox="0 0 1920 1080"><defs><style>.cls-1{fill:#de9562;}.cls-1,.cls-2,.cls-3,.cls-4,.cls-5,.cls-6,.cls-7,.cls-8,.cls-9,.cls-10,.cls-11,.cls-12,.cls-13,.cls-14,.cls-15,.cls-16,.cls-17,.cls-18,.cls-19,.cls-20,.cls-21,.cls-22,.cls-23,.cls-24,.cls-25,.cls-26,.cls-27{stroke-width:0px;}.cls-2{fill:#415245;}.cls-3{fill:#606060;}.cls-4{fill:#c97a79;}.cls-5{fill:#ebffd4;}.cls-7{fill:#e59f71;}.cls-8{fill:#ac7755;}.cls-9{fill:#f4fffe;}.cls-10{fill:#fffbe9;}.cls-11{fill:#576d5c;}.cls-12{fill:#7f976b;}.cls-13{fill:#b1c87c;}.cls-14{fill:gray;}.cls-15{fill:#b0cfe3;}.cls-16{fill:#f3b46f;}.cls-17{fill:#976665;}.cls-18{fill:#5f7150;}.cls-19{fill:#fff;}.cls-20{fill:#85965d;}.cls-21{fill:#59483a;}.cls-22{fill:#915932;}.cls-23{fill:#dfecf4;}.cls-24{fill:#975c5b;}.cls-25{fill:#404040;}.cls-26{fill:#352000;}.cls-27{fill:#f5c38c;}</style></defs><rect class="cls-15" x="-60.67" y="-1.9" width="1996.45" height="235.04"/><path class="cls-22" d="m1070.86,287.49l550.37-26.81s-24.69-69.63-74.06-79.27c-49.37-9.64,14.52-57.86,14.52-57.86l-34.85-85.19s-8.18-12.86-53.47,0c-45.28,12.86-79.21-13.66-79.21-13.66,0,0-178.09-5.63-163.57,23.31,14.52,28.93-59.81,3.21-72.02,16.88-12.21,13.66-105.15,111.27-87.72,122.74,17.43,11.47,0,99.87,0,99.87Z"/><path class="cls-1" d="m1070.7,280.24l531.81-23.82s-23.85-61.85-71.56-70.42c-47.71-8.57,14.03-51.4,14.03-51.4l-33.68-75.68s-7.91-11.42-51.66,0c-43.75,11.42-76.54-12.14-76.54-12.14,0,0-172.08-5-158.05,20.7,14.03,25.7-57.79,2.86-69.59,14.99-11.8,12.14-101.6,98.85-84.76,109.04,16.84,10.19,0,88.72,0,88.72Z"/><rect class="cls-16" x="-60.67" y="221.74" width="1996.45" height="894.59"/><path class="cls-23" d="m-63.27,46.24h623.8s67.49,33.23,0,61.65H-63.27s-36.39-37.84,0-61.65Z"/><path class="cls-23" d="m631.28,97.68h443.51s47.99,21.38,0,39.67h-443.51s-25.88-24.35,0-39.67Z"/><path class="cls-23" d="m1590.24,46.45h443.51s47.99,21.38,0,39.67h-443.51s-25.88-24.35,0-39.67Z"/><path class="cls-1" d="m-116.07,1056.06s69.88-114.03,430.62-69.85c360.74,44.18,478.45,0,478.45,0,0,0,301.01-118.88,397.44-23.58,96.43,95.3,540.51,30.88,540.51,30.88,0,0,306.06-120.88,446.41-53.27,140.35,67.61-127.21,309.25-127.21,309.25,0,0-547.18,75.24-747.8,34.49-200.63-40.75-746.04,29.59-746.04,29.59,0,0-410.19-3.98-497.39-52.81-87.2-48.83-209.04-68.86-174.99-204.71Z"/><path class="cls-1" d="m-36.81,575.91s17.57-15.2,108.26-9.31c90.69,5.89,120.28,0,120.28,0,0,0,75.68-15.84,99.92-3.14s135.89,4.12,135.89,4.12c0,0,76.94-16.11,112.23-7.1,35.29,9.01-31.98,41.22-31.98,41.22,0,0-137.56,10.03-188,4.6-50.44-5.43-187.55,3.94-187.55,3.94,0,0-103.12-.53-125.04-7.04-21.92-6.51-52.55-9.18-43.99-27.28Z"/><path class="cls-27" d="m1094.07,812.13s25.12-31.78,154.8-19.46c129.68,12.31,172,0,172,0,0,0,108.21-33.13,142.88-6.57,34.67,26.56,194.31,8.6,194.31,8.6,0,0,110.03-33.68,160.48-14.84,50.46,18.84-45.73,86.17-45.73,86.17,0,0-196.71,20.96-268.83,9.61-72.12-11.35-268.19,8.25-268.19,8.25,0,0-147.46-1.11-178.81-14.72-31.35-13.61-75.15-19.19-62.91-57.04Z"/><path class="cls-1" d="m1613.35,544.84s17.57-24.51,108.26-15.01c90.69,9.5,120.28,0,120.28,0,0,0,75.68-25.55,99.92-5.07,24.24,20.48,135.89,6.64,135.89,6.64,0,0,76.94-25.98,112.23-11.45,35.29,14.53-31.98,66.46-31.98,66.46,0,0-137.56,16.17-188,7.41-50.44-8.76-187.55,6.36-187.55,6.36,0,0-103.12-.86-125.04-11.35-21.92-10.49-52.55-14.8-43.99-44Z"/><path class="cls-1" d="m289.8,805.48s32.23-4.89,33.76-10.76,26.16-1.46,31.68-3.51c5.51-2.06,27.99-8.91,27.99-8.91,0,0,7.48,5.6,5.49,16.75-2,11.15.1,1.8-9.51,16.53,0,0-34.21,16.75-48.87,11.32-14.67-5.43-26.71-1.29-26.71-1.29,0,0-22.1-18.68-13.81-20.13Z"/><path class="cls-14" d="m287.54,809.9s31.81-7.69,35.05,0c3.24,7.69,25.05-9.83,30.87-9.4s29.06,0,29.06,0c0,0,5.31-11.41,0-26.42-5.31-15.01-.46-2.62-14.03-19.28,0,0-37.32-8.35-49.44,6.08-12.12,14.43-24.72,14-24.72,14,0,0-15.03,36.74-6.79,35.03Z"/><path class="cls-1" d="m58.93,492.33h59.08s17.83,8.69-8.58,28.1-43.5,8.18-43.5,8.18c0,0-40.26-9.2-29.84-14.56s-9-21.72,22.85-21.72Z"/><path class="cls-14" d="m55.05,505.34h59.08s17.83-12.72-8.58-41.16c-26.41-28.44-43.5-11.97-43.5-11.97,0,0-40.26,13.47-29.84,21.33s-9,31.81,22.85,31.81Z"/><path class="cls-1" d="m1836.75,722.27s32.23-4.89,33.76-10.76c1.52-5.87,26.16-1.46,31.68-3.51,5.51-2.06,27.99-8.91,27.99-8.91,0,0,7.48,5.6,5.49,16.75-2,11.15.1,1.8-9.51,16.53,0,0-34.21,16.75-48.87,11.32-14.67-5.43-26.71-1.29-26.71-1.29,0,0-22.1-18.68-13.81-20.13Z"/><path class="cls-14" d="m1834.48,726.7s31.81-7.69,35.05,0c3.24,7.69,25.05-9.83,30.87-9.4s29.06,0,29.06,0c0,0,5.31-11.41,0-26.42-5.31-15.01-.46-2.62-14.03-19.28,0,0-37.32-8.35-49.44,6.08-12.12,14.43-24.72,14-24.72,14,0,0-15.03,36.74-6.79,35.03Z"/><path class="cls-1" d="m1639.82,418.72h59.08s17.83,8.69-8.58,28.1-43.5,8.18-43.5,8.18c0,0-40.26-9.2-29.84-14.56s-9-21.72,22.85-21.72Z"/><path class="cls-14" d="m1635.94,431.73h59.08s17.83-12.72-8.58-41.16c-26.41-28.44-43.5-11.97-43.5-11.97,0,0-40.26,13.47-29.84,21.33s-9,31.81,22.85,31.81Z"/><path class="cls-1" d="m1042.86,316.02s12.58-7.54,77.54-4.62c64.96,2.92,86.16,0,86.16,0,0,0,54.21-7.86,71.57-1.56,17.36,6.3,97.33,2.04,97.33,2.04,0,0,55.11-7.99,80.39-3.52s-22.91,20.45-22.91,20.45c0,0-98.53,4.97-134.66,2.28-36.13-2.69-134.34,1.96-134.34,1.96,0,0-73.87-.26-89.57-3.49-15.7-3.23-37.64-4.55-31.51-13.54Z"/><path class="cls-1" d="m-206.27,303.11s12.58-7.54,77.54-4.62c64.96,2.92,86.16,0,86.16,0,0,0,54.21-7.86,71.57-1.56,17.36,6.3,97.33,2.04,97.33,2.04,0,0,55.11-7.99,80.39-3.52,25.27,4.47-22.91,20.45-22.91,20.45,0,0-98.53,4.97-134.66,2.28-36.13-2.69-134.34,1.96-134.34,1.96,0,0-73.87-.26-89.57-3.49s-37.64-4.55-31.51-13.54Z"/><path class="cls-27" d="m1221.41,490.63s14.49-10.92,89.3-6.69c74.81,4.23,99.22,0,99.22,0,0,0,62.42-11.38,82.42-2.26,20,9.12,112.09,2.96,112.09,2.96,0,0,63.47-11.57,92.58-5.1,29.11,6.47-26.38,29.6-26.38,29.6,0,0-113.47,7.2-155.08,3.3s-154.71,2.83-154.71,2.83c0,0-85.06-.38-103.15-5.06s-43.35-6.59-36.29-19.6Z"/><polygon class="cls-1" points="719.01 995.33 1010.14 852.25 667.52 756.24 1093.01 664 775.86 571.75 1021.26 413.99 714.77 225.55 924.56 409.85 531.9 609.58 792.5 654.21 514.87 739.11 736.76 886.75 538.78 1006.25 747.47 1153.09 879.47 1153.09 719.01 995.33"/><path class="cls-27" d="m229.05,403.17s14.49-15.71,89.3-9.62c74.81,6.09,99.22,0,99.22,0,0,0,62.42-16.38,82.42-3.25,20,13.13,112.09,4.25,112.09,4.25,0,0,63.47-16.65,92.58-7.34,29.11,9.32-26.38,42.61-26.38,42.61,0,0-113.47,10.37-155.08,4.75-41.61-5.61-154.71,4.08-154.71,4.08,0,0-85.06-.55-103.15-7.28-18.08-6.73-43.35-9.49-36.29-28.21Z"/><path class="cls-21" d="m245.96,219.99s10.25-20.29,8.74-45.69c0,0-13.16-7.26-16.5-2.81-3.34,4.45-11.01,10.23-14.1,9.09s-8.25.91-8.25.91c0,0-10.05-2.57-2.6-4.64s12.22-1.16,12.22-1.16c0,0,10.92-5.64,10.6-9.29s-10.64-4.96-10.64-4.96c0,0-8.41-1.24-7.98-7.27s-6.94-7.96-6.94-7.96c0,0-2.42-6.08,5.08-3.57s7.98,10.05,7.98,10.05c0,0,1.34,4.48,8.92,5.66,7.58,1.17,9.7,5.87,9.7,5.87,0,0,9.27,3.88,5.59-1.96s-3.46-8.09-3.46-8.09c0,0-3.67-5.31-7.98-4.83s-6.65-7.89-6.65-7.89c0,0-.98-7.21,4.26-2.79,5.24,4.42,3.19,3.98,3.19,3.98,0,0,10.81,2.14,12.24,4.78s5.47,13.01,5.47,13.01c0,0,3.23,3.9,3.84,0,.61-3.9,4.79-12.15,4.79-12.15,0,0,3.74-9.65,0-9.63s-.8-4.53-.8-4.53c0,0,6.11-5.72,8.52,0,2.41,5.72,0,13.29,0,13.29,0,0-1.75,12.52-5.85,16.12-4.11,3.6,2.66,2.85,2.66,2.85l10.11-10.05s3.32-15.97,7.45-13.71,2.13,5.65,2.13,5.65c0,0,.94,6.98-2.93,12.15s-10.11,10.4-10.11,10.4l-6.65,4.97s-10.81,46.71,2.66,44.21c0,0-27.61,12.1-24.71,0Z"/><ellipse class="cls-1" cx="1665.03" cy="974.75" rx="28.29" ry="13.71"/><path class="cls-11" d="m1661.03,972.05s-47.13-8.1-42.97-60.56c0,0,11.31,47.28,44.45,51.85l-1.48,8.71Z"/><path class="cls-11" d="m1659.67,976.38s-47.63,2.15-52.27-50.26c0,0,18.97,44,52.27,41.39v8.87Z"/><path class="cls-11" d="m1663.76,977.39s-43.65-21.76-27.6-71.18c0,0,.08,48.99,31.02,63.21l-3.42,7.98Z"/><path class="cls-11" d="m1668.59,976.45s47.12-8.24,42.83-60.69c0,0-11.2,47.31-44.33,51.98l1.5,8.71Z"/><path class="cls-11" d="m1661.11,976.87s44.93-18.09,32.09-68.71c0,0-3.22,48.86-34.99,60.47l2.9,8.24Z"/><path class="cls-11" d="m1649.31,976.16s44.93-18.09,32.09-68.71c0,0-3.22,48.86-34.99,60.47l2.9,8.24Z"/><path class="cls-11" d="m1648.65,975.01s40.9-27.81,19.5-74.56c0,0,5.35,48.62-23.78,67.13l4.28,7.42Z"/><path class="cls-11" d="m1673.58,975s-43.65-21.76-27.6-71.18c0,0,.08,48.99,31.02,63.21l-3.42,7.98Z"/><ellipse class="cls-11" cx="1659.35" cy="965.06" rx="19.92" ry="13.76"/><ellipse class="cls-1" cx="1186" cy="239.26" rx="14.23" ry="7.85"/><path class="cls-11" d="m1183.98,237.71s-23.7-4.64-21.61-34.69c0,0,5.69,27.08,22.35,29.7l-.74,4.99Z"/><path class="cls-11" d="m1183.3,240.19s-23.95,1.23-26.29-28.79c0,0,9.54,25.2,26.29,23.7v5.08Z"/><path class="cls-11" d="m1185.36,240.77s-21.95-12.46-13.88-40.77c0,0,.04,28.06,15.6,36.2l-1.72,4.57Z"/><path class="cls-11" d="m1187.79,240.23s23.69-4.72,21.54-34.76c0,0-5.63,27.1-22.29,29.77l.75,4.99Z"/><path class="cls-11" d="m1184.02,240.47s22.6-10.36,16.14-39.35c0,0-1.62,27.98-17.6,34.64l1.46,4.72Z"/><path class="cls-11" d="m1178.09,240.06s22.6-10.36,16.14-39.35c0,0-1.62,27.98-17.6,34.64l1.46,4.72Z"/><path class="cls-11" d="m1177.76,239.41s20.57-15.93,9.81-42.7c0,0,2.69,27.84-11.96,38.45l2.15,4.25Z"/><path class="cls-11" d="m1190.29,239.4s-21.95-12.46-13.88-40.77c0,0,.04,28.06,15.6,36.2l-1.72,4.57Z"/><ellipse class="cls-11" cx="1183.14" cy="233.71" rx="10.02" ry="7.88"/><ellipse class="cls-1" cx="801.35" cy="409.06" rx="19.15" ry="9.93"/><path class="cls-11" d="m798.64,407.11s-31.9-5.86-29.09-43.83c0,0,7.66,34.22,30.08,37.53l-1,6.31Z"/><path class="cls-11" d="m797.72,410.25s-32.24,1.56-35.38-36.38c0,0,12.84,31.85,35.38,29.96v6.42Z"/><path class="cls-11" d="m800.49,410.98s-29.54-15.75-18.68-51.52c0,0,.05,35.46,20.99,45.75l-2.32,5.77Z"/><path class="cls-11" d="m803.76,410.3s31.89-5.96,28.99-43.93c0,0-7.58,34.24-30,37.63l1.01,6.3Z"/><path class="cls-11" d="m798.69,410.6s30.41-13.1,21.72-49.73c0,0-2.18,35.36-23.68,43.77l1.96,5.96Z"/><path class="cls-11" d="m790.71,410.08s30.41-13.1,21.72-49.73c0,0-2.18,35.36-23.68,43.77l1.96,5.96Z"/><path class="cls-11" d="m790.26,409.25s27.68-20.13,13.2-53.96c0,0,3.62,35.19-16.1,48.59l2.9,5.37Z"/><path class="cls-11" d="m807.14,409.24s-29.54-15.75-18.68-51.52c0,0,.05,35.46,20.99,45.75l-2.32,5.77Z"/><ellipse class="cls-11" cx="797.51" cy="402.05" rx="13.48" ry="9.96"/><ellipse class="cls-1" cx="157.46" cy="230.31" rx="14.41" ry="22.17" transform="translate(-110.16 309.18) rotate(-72.06)"/><ellipse class="cls-1" cx="130.96" cy="710.83" rx="37.95" ry="15.84"/><path class="cls-11" d="m125.59,707.71s-63.23-9.35-57.65-69.94c0,0,15.17,54.6,59.63,59.88l-1.98,10.06Z"/><path class="cls-11" d="m123.77,712.72s-63.9,2.49-70.12-58.04c0,0,25.45,50.82,70.12,47.8v10.25Z"/><path class="cls-11" d="m129.26,713.88s-58.55-25.13-37.02-82.2c0,0,.1,56.58,41.61,72.99l-4.59,9.21Z"/><path class="cls-11" d="m135.74,712.8s63.2-9.52,57.45-70.09c0,0-15.02,54.64-59.46,60.03l2.01,10.06Z"/><path class="cls-11" d="m125.7,713.29s60.27-20.89,43.04-79.35c0,0-4.32,56.42-46.94,69.84l3.89,9.51Z"/><path class="cls-11" d="m109.88,712.46s60.27-20.89,43.04-79.35c0,0-4.32,56.42-46.94,69.84l3.89,9.51Z"/><path class="cls-11" d="m108.99,711.13s54.86-32.12,26.16-86.1c0,0,7.17,56.14-31.9,77.52l5.74,8.57Z"/><path class="cls-11" d="m142.43,711.12s-58.55-25.13-37.02-82.2c0,0,.1,56.58,41.61,72.99l-4.59,9.21Z"/><ellipse class="cls-11" cx="123.34" cy="699.64" rx="26.72" ry="15.89"/><path class="cls-21" d="m169.43,224.54s-12.84-30.47-10.94-68.63c0,0,16.48-10.91,20.66-4.22s13.78,15.37,17.66,13.65c3.88-1.72,7.45,2.09,10.33,1.36s12.58-3.86,3.25-6.97c-9.33-3.11-15.3-1.75-15.3-1.75,0,0-13.68-8.47-13.28-13.95s13.33-7.45,13.33-7.45c0,0,10.53-1.86,10-10.93-.53-9.07,8.7-11.96,8.7-11.96,0,0,3.03-9.14-6.36-5.36-9.4,3.78-10,15.09-10,15.09,0,0-1.68,6.73-11.18,8.5-9.5,1.76-12.15,8.82-12.15,8.82,0,0-11.61,5.83-7-2.95,4.61-8.77,4.33-12.15,4.33-12.15,0,0,4.6-7.97,10-7.26s8.33-11.85,8.33-11.85c0,0-.5-5.52-5.33-4.18s-4,5.97-4,5.97c0,0-13.54,3.21-15.33,7.19-1.79,3.98-6.86,19.55-6.86,19.55,0,0-4.05,5.85-4.81,0-.76-5.85-6-18.24-6-18.24,0,0-.1-14.5,0-14.46s1.05-6.7,1-6.8-9.46-12.26-10.66,0c-1.2,12.26-2.38,15.51,0,19.96s7.43,24.24,7.33,24.22-3.33,4.28-3.33,4.28c0,0-12.75-15.04-12.66-15.1s-1.45-18.13-9.33-20.59c-7.88-2.46-7.36,3.17-2.67,8.49,4.7,5.32-1.17,10.49,3.67,18.24,4.84,7.75,12.66,15.62,12.66,15.62,0,0,10.79,3.32,8.33,7.46s-3.36,66.39-3.33,66.4,34.58,18.17,30.94,0Z"/><path class="cls-21" d="m-170.46,897.37S-71.11,589.47-85.76,203.85c0,0-127.51-110.2-159.9-42.69-32.39,67.51-106.67,155.34-136.69,137.94-30.02-17.4-57.66,21.12-79.95,13.74-22.29-7.37-97.38-39-25.17-70.42,72.21-31.42,118.43-17.67,118.43-17.67,0,0,105.84-85.63,102.75-141.01-3.09-55.38-103.16-75.26-103.16-75.26,0,0-81.5-18.8-77.37-110.42,4.13-91.62-67.3-120.83-67.3-120.83,0,0-23.48-92.33,49.25-54.14,72.73,38.19,77.37,152.5,77.37,152.5,0,0,12.98,68.05,86.49,85.87,73.51,17.82,94.04,89.13,94.04,89.13,0,0,89.85,58.89,54.16-29.78-35.69-88.67-33.53-122.74-33.53-122.74,0,0-35.59-80.58-77.37-73.34-41.78,7.25-64.47-119.72-64.47-119.72,0,0,3.88-55.81,41.26-42.28,37.38,13.53,30.95,60.36,30.95,60.36,0,0,104.81,32.43,118.63,72.62C-123.52-164.1-84.29-6.79-84.29-6.79c0,0,31.33,59.12,37.21,0C-41.2-65.91-.66-191.14-.66-191.14c0,0,.79-146.52,0-146.14s-8.15-67.67-7.74-68.73,73.23-123.91,82.53,0c9.29,123.91,18.45,156.73,0,201.71C55.68-159.32,16.65,40.68,17.4,40.44s25.79,43.3,25.79,43.3c0,0,98.63-152.02,98-152.59-.63-.58,11.21-183.16,72.21-208.07,61-24.9,56.98,32.04,20.63,85.78-36.35,53.74,9.08,106-28.37,184.35-37.45,78.35-98,157.81-98,157.81,0,0-83.5,33.59-64.47,75.38,19.02,41.79,26.03,670.92,25.79,670.97s-267.6,183.62-239.43,0Z"/><path class="cls-3" d="m229.64,968.47l357.08-10.09s31.94,10.09,44.46,0l12.52-10.09s22.79-1.12,22.79-12.33-20.89-33.62-20.89-33.62c0,0,5.7,2.34,20.89-27.97,15.19-30.31-87.11-56.09-87.11-56.09,0,0-45.84-45.95-47.74-73.97s-58.88-36.98-58.88-36.98l-75.97,14.57s-39.02-7.85-66.05-14.57c-27.02-6.72-103,31.79-101.1,59.04,1.9,27.25-60.78,97.86-60.78,97.86,0,0,32.29,105.35,60.78,104.23Z"/><path class="cls-1" d="m594.82,892.54l-306.17,37.84s-29.18-2.01-38.33,4.1l-9.15,6.11s-19.47,2.65-17.64,8.15c1.83,5.5,23.49,14.59,23.49,14.59,0,0-5.29-.63-13.45,15.66-8.16,16.29,84.24,19.52,84.24,19.52,0,0,47.01,18.34,53.22,31.93,6.21,13.59,56.79,12.74,56.79,12.74l63.12-14.15s34.92.26,59.31,1.07c24.39.81,83.6-25.1,77.52-38.31-6.08-13.21,36.43-53.66,36.43-53.66,0,0-45.02-48.76-69.39-45.59Z"/><path class="cls-14" d="m229.71,978.82l357.08-10.09s31.94,10.09,44.46,0l12.52-10.09s22.79-1.12,22.79-12.33-20.89-33.62-20.89-33.62c0,0,5.7,2.34,20.89-27.97,15.19-30.31-87.11-56.09-87.11-56.09,0,0-45.84-45.95-47.74-73.97-1.9-28.02-58.88-36.98-58.88-36.98l-75.97,14.57s-39.02-7.85-66.05-14.57c-27.02-6.72-103,31.79-101.1,59.04,1.9,27.25-60.78,97.86-60.78,97.86,0,0,32.29,105.35,60.78,104.23Z"/><path class="cls-1" d="m202.63,477.79c26.71-9.44,328.57,1.38,338.49,9.08,9.92,7.69-15.18,23.57-45.55,26.83-30.37,3.26,8.93,19.59,8.93,19.59l-21.43,28.84s-5.03,4.35-32.88,0-48.72,4.62-48.72,4.62c0,0-109.53,1.9-100.6-7.89s-36.79-1.09-44.29-5.71c-7.51-4.62-64.67-37.66-53.95-41.55,10.72-3.88-26.71-24.36,0-33.81Z"/><path class="cls-3" d="m202.4,513.15c26.71,19.33,328.5-2.83,338.41-18.57,9.92-15.74-15.18-48.23-45.54-54.91-30.36-6.68,8.93-40.08,8.93-40.08l-21.43-59s-5.03-8.91-32.88,0c-27.84,8.91-48.7-9.46-48.7-9.46,0,0-109.5-3.9-100.57,16.14,8.93,20.04-36.78,2.23-44.28,11.69s-64.65,77.07-53.94,85.01-26.71,49.85,0,69.18Z"/><path class="cls-14" d="m192.03,513.18c26.71,19.33,328.5-2.83,338.41-18.57,9.92-15.74-15.18-48.23-45.54-54.91-30.36-6.68,8.93-40.08,8.93-40.08l-21.43-59s-5.03-8.91-32.88,0-48.7-9.46-48.7-9.46c0,0-109.5-3.9-100.57,16.14,8.93,20.04-36.78,2.23-44.28,11.69-7.51,9.46-64.65,77.07-53.94,85.01,10.71,7.94-26.71,49.85,0,69.18Z"/><path class="cls-1" d="m1315.06,771.84h268.37s81.01,44.4-38.98,143.64c-119.99,99.24-197.63,41.79-197.63,41.79,0,0-182.87-47.01-135.55-74.43,47.32-27.42-40.91-110.99,103.79-110.99Z"/><path class="cls-3" d="m1281.67,874.81h298.39s90.07-61.2-43.34-198c-133.41-136.8-219.74-57.6-219.74-57.6,0,0-203.33,64.8-150.71,102.6,52.62,37.8-45.48,153,115.4,153Z"/><path class="cls-14" d="m1279.37,885.11h298.39s90.07-61.2-43.34-198c-133.41-136.8-219.74-57.6-219.74-57.6,0,0-203.33,64.8-150.71,102.6,52.62,37.8-45.48,153,115.4,153Z"/><path class="cls-25" d="m1018.47,604.16l72.45,13.12,37.51-13.12v-59.36s-19.4-20.66-23.02-39.03c-3.62-18.37-19.92-12.46-19.92-12.46l-.96-10.22s1.56-12.08-19.57-8.8c-21.13,3.28-29.83-.56-29.83-.56,0,0-29.17,33.51-27.44,51.8,1.73,18.29-.07,78.9-.07,78.9,0,0-9.67,3.67,10.86-.27Z"/><path class="cls-3" d="m1027.01,602.48v-56.68l27.74-32.29s4.03-26.31-17.65-53.57c-21.69-27.26-213.53,0-213.53,0l-9.38,11s-13.62.96-15.63,7.17c-2.02,6.22,2.02,58.83-21.69,72.7s21.18,55.96,21.18,55.96c0,0,122.05,5.74,228.96-4.3Z"/><path class="cls-3" d="m1039.08,608.09s18.72,10.49,29.58,4.59l10.87-5.9s-1.81-18.9,0-28.47c1.81-9.57-16.8-15.59-17.15-38.16s-82.82,0-82.82,0l-12.32,1.04s7.03,25.49,18.91,31.11-8.64,27.27-8.64,27.27l8.64,14.92,52.94-6.39Z"/><path class="cls-1" d="m1021.44,554.27l70.5-8.71,36.5,8.71v39.39s-18.88,13.71-22.4,25.9c-3.52,12.19-19.39,8.27-19.39,8.27l-.93,6.78s1.52,8.02-19.04,5.84c-20.56-2.18-29.03.37-29.03.37,0,0-28.39-22.24-26.7-34.38,1.68-12.14-.07-52.36-.07-52.36,0,0-9.41-2.43,10.57.18Z"/><path class="cls-1" d="m1029.74,555.38v37.62l26.99,21.43s3.93,17.46-17.18,35.55c-21.1,18.09-207.78,0-207.78,0l-9.12-7.3s-13.25-.63-15.21-4.76c-1.96-4.13,1.96-39.04-21.1-48.25-23.06-9.21,20.61-37.14,20.61-37.14,0,0,118.76-3.81,222.79,2.86Z"/><path class="cls-1" d="m1041.49,551.66s18.21-6.96,28.79-3.05l10.57,3.92s-1.76,12.54,0,18.9c1.76,6.35-16.35,10.35-16.69,25.33-.35,14.98-80.59,0-80.59,0l-11.99-.69s6.84-16.92,18.4-20.65c11.56-3.73-8.41-18.09-8.41-18.09l8.41-9.9,51.51,4.24Z"/><path class="cls-14" d="m1018.78,613.08l72.45,13.12,37.51-13.12v-59.36s-19.4-20.66-23.02-39.03-19.92-12.46-19.92-12.46l-.96-10.22s1.56-12.08-19.57-8.8c-21.13,3.28-29.83-.56-29.83-.56,0,0-29.17,33.51-27.44,51.8s-.07,78.9-.07,78.9c0,0-9.67,3.67,10.86-.27Z"/><path class="cls-14" d="m1027.31,611.41v-56.68l27.74-32.29s4.03-26.31-17.65-53.57c-21.69-27.26-213.53,0-213.53,0l-9.38,11s-13.62.96-15.63,7.17c-2.02,6.22,2.02,58.83-21.69,72.7-23.7,13.87,21.18,55.96,21.18,55.96,0,0,122.05,5.74,228.96-4.3Z"/><path class="cls-14" d="m1039.38,617.02s18.72,10.49,29.58,4.59l10.87-5.9s-1.81-18.9,0-28.47-16.8-15.59-17.15-38.16c-.36-22.57-82.82,0-82.82,0l-12.32,1.04s7.03,25.49,18.91,31.11c11.88,5.62-8.64,27.27-8.64,27.27l8.64,14.92,52.94-6.39Z"/><path class="cls-3" d="m1394.71,428.42s101.19-23.02,111.49,0c10.3,23.02,79.67-29.41,98.17-28.13,18.5,1.28,92.43-.02,92.43-.02,0,0,16.89-34.15,0-79.08-16.89-44.93-1.47-7.85-44.64-57.71,0,0-118.71-24.99-157.25,18.19-38.54,43.18-78.62,41.91-78.62,41.91,0,0-47.79,109.97-21.58,104.85Z"/><path class="cls-3" d="m1619.11,434.7s31.88-23.31,83.7-17.27c51.81,6.04,12.95-31.95,12.95-31.95,0,0-14.95-46.63-50.82-35.4-35.87,11.23-25.41,18.49-25.41,18.49,0,0-38.81,3.08-52.54,22.95-13.72,19.87-27.67,19.01-27.67,25.91s59.78,17.27,59.78,17.27Z"/><path class="cls-1" d="m1373.31,402.29s100.85,9.69,111.11,0c10.27-9.69,79.41,12.38,97.84,11.84,18.44-.54,92.12,0,92.12,0,0,0,16.83,14.37,0,33.29-16.83,18.91-1.47,3.3-44.49,24.29,0,0-118.31,10.52-156.72-7.66-38.41-18.18-78.36-17.64-78.36-17.64,0,0-47.63-46.29-21.51-44.13Z"/><path class="cls-1" d="m1596.96,399.65s31.78,9.81,83.42,7.27c51.64-2.54,12.91,13.45,12.91,13.45,0,0-14.9,19.63-50.65,14.9-35.75-4.72-25.32-7.78-25.32-7.78,0,0-38.68-1.3-52.36-9.66-13.68-8.36-27.58-8-27.58-10.91s59.58-7.27,59.58-7.27Z"/><path class="cls-14" d="m1371.72,430.9s101.19-23.02,111.49,0c10.3,23.02,79.67-29.41,98.17-28.13s92.43-.02,92.43-.02c0,0,16.89-34.15,0-79.08-16.89-44.93-1.47-7.85-44.64-57.71,0,0-118.71-24.99-157.25,18.19s-78.62,41.91-78.62,41.91c0,0-47.79,109.97-21.58,104.85Z"/><path class="cls-14" d="m1596.13,437.18s31.88-23.31,83.7-17.27c51.81,6.04,12.95-31.95,12.95-31.95,0,0-14.95-46.63-50.82-35.4-35.87,11.23-25.41,18.49-25.41,18.49,0,0-38.81,3.08-52.54,22.95-13.72,19.87-27.67,19.01-27.67,25.91s59.78,17.27,59.78,17.27Z"/><path class="cls-2" d="m4.74,1077.33s-285.5-164.88-180.5-539.36c0,0,.49,371.22,202.89,478.92l-22.39,60.43Z"/><path class="cls-2" d="m68.96,1076.79s-285.5-164.88-180.5-539.36c0,0,.49,371.22,202.89,478.92l-22.39,60.43Z"/><ellipse class="cls-2" cx="-3.83" cy="992.16" rx="163.03" ry="104.27"/><path class="cls-2" d="m35.39,1053.36s-211.4-184.45-45.88-505.21c0,0-74.46,331.59,77.25,454.16l-31.38,51.05Z"/><path class="cls-2" d="m1.61,1037.34s308.3-61.35,281.08-458.88c0,0-73.99,358.23-290.73,392.86l9.65,66.02Z"/><path class="cls-2" d="m10.51,1070.2s311.56,16.32,341.88-380.82c0,0-124.07,333.41-341.88,313.6v67.23Z"/><path class="cls-2" d="m-16.26,1077.84s285.5-164.88,180.5-539.36c0,0-.49,371.22-202.89,478.92l22.39,60.43Z"/><path class="cls-2" d="m-80.48,1077.3s285.5-164.88,180.5-539.36c0,0-.49,371.22-202.89,478.92l22.39,60.43Z"/><path class="cls-2" d="m-46.92,1053.86S164.48,869.42-1.04,548.65c0,0,74.46,331.59-77.25,454.16l31.38,51.05Z"/><path class="cls-11" d="m2.44,1047.17s-308.3-61.35-281.08-458.88c0,0,73.99,358.23,290.73,392.86l-9.65,66.02Z"/><path class="cls-11" d="m20.32,1087.67s-285.5-164.88-180.5-539.36c0,0,.49,371.22,202.89,478.92l-22.39,60.43Z"/><path class="cls-11" d="m84.54,1087.13s-285.5-164.88-180.5-539.36c0,0,.49,371.22,202.89,478.92l-22.39,60.43Z"/><ellipse class="cls-11" cx="11.75" cy="1002.49" rx="163.03" ry="104.27"/><path class="cls-11" d="m50.97,1063.69s-211.4-184.45-45.88-505.21c0,0-74.46,331.59,77.25,454.16l-31.38,51.05Z"/><path class="cls-11" d="m17.19,1047.68s308.3-61.35,281.08-458.88c0,0-73.99,358.23-290.73,392.86l9.65,66.02Z"/><path class="cls-11" d="m26.09,1080.53s311.56,16.32,341.88-380.82c0,0-124.07,333.41-341.88,313.6v67.23Z"/><path class="cls-11" d="m-.68,1088.17s285.5-164.88,180.5-539.36c0,0-.49,371.22-202.89,478.92l22.39,60.43Z"/><path class="cls-11" d="m-64.9,1087.64s285.5-164.88,180.5-539.36c0,0-.49,371.22-202.89,478.92l22.39,60.43Z"/><path class="cls-11" d="m-31.34,1064.2s211.4-184.45,45.88-505.21c0,0,74.46,331.59-77.25,454.16l31.38,51.05Z"/><path class="cls-8" d="m1645,380.92v101.16l159.03,57.62s23.13,46.95-101.2,95.61c-124.33,48.66-1224.28,0-1224.28,0l-53.76-19.63s-78.07-1.71-89.64-12.8c-11.57-11.1,11.57-105-124.33-129.75-135.9-24.76,121.44-99.88,121.44-99.88,0,0,699.74-10.24,1312.74,7.68Z"/><path class="cls-7" d="m1655,376.57v92.18l158.25,52.51s23.02,42.78-100.7,87.12c-123.72,44.34-1218.25,0-1218.25,0l-53.49-17.89s-77.69-1.56-89.19-11.67c-11.51-10.11,11.51-95.68-123.72-118.24-135.23-22.56,120.84-91.01,120.84-91.01,0,0,696.29-9.33,1306.26,7Z"/><path class="cls-5" d="m583.49,540.82c-.43,2.26-1.22,6.53-2.37,12.81-.6,3.67-1.11,7.97-1.54,12.89h-57.89c-.21-13.29-.75-35.16-1.6-65.64-.55-15.6-1.56-37.14-3.01-64.62h44.4l-3.65,108.04c4.14,0,10.34-.59,18.62-1.78,1.71-.23,4.05-.79,7.04-1.7Z"/><path class="cls-5" d="m653.73,436.26l-2.75,53.68c-1.58-.34-4.99-.93-10.24-1.78-3.58-.45-7.51-.73-11.77-.85l-.96,16.2c4.69.17,12.35.03,22.97-.42-.47,2.09-1.22,5.99-2.24,11.7-.6,3.45-1.13,7.44-1.6,11.96-1.24-.4-4.33-.9-9.28-1.53-2.3-.17-5.72-.23-10.24-.17l-.64,18.91c3.2-.06,9.08-.42,17.66-1.1,1.62-.17,4.29-.85,8-2.04-.34,1.75-1.13,5.96-2.37,12.64-.6,3.45-1.32,7.8-2.17,13.06h-57.25l-1.85-66.49c-.34-15.21-1.17-36.46-2.5-63.77h67.23Z"/><path class="cls-5" d="m741.62,436.26c-3.54,13.91-9.21,36.61-17.02,68.1-3.58,14.81-8.21,35.53-13.88,62.16h-22.26c-2.86-12.89-7.63-33.95-14.33-63.18-3.8-16.17-9.43-38.53-16.89-67.08h45.23c.43,5.37,1.43,14.11,3.01,26.2,1.07,6.45,2.73,15.32,4.99,26.63,1.19-5.48,2.94-14.42,5.25-26.8,1.07-6.67,2.28-15.35,3.65-26.03h22.26Z"/><path class="cls-5" d="m812.12,436.26l-2.75,53.68c-1.58-.34-4.99-.93-10.24-1.78-3.58-.45-7.51-.73-11.77-.85l-.96,16.2c4.69.17,12.35.03,22.97-.42-.47,2.09-1.22,5.99-2.24,11.7-.6,3.45-1.13,7.44-1.6,11.96-1.24-.4-4.33-.9-9.28-1.53-2.3-.17-5.72-.23-10.24-.17l-.64,18.91c3.2-.06,9.08-.42,17.66-1.1,1.62-.17,4.29-.85,8-2.04-.34,1.75-1.13,5.96-2.37,12.64-.6,3.45-1.32,7.8-2.17,13.06h-57.25l-1.85-66.49c-.34-15.21-1.17-36.46-2.5-63.77h67.23Z"/><path class="cls-5" d="m884.03,540.82c-.43,2.26-1.22,6.53-2.37,12.81-.6,3.67-1.11,7.97-1.54,12.89h-57.89c-.21-13.29-.75-35.16-1.6-65.64-.55-15.6-1.56-37.14-3.01-64.62h44.4l-3.65,108.04c4.14,0,10.34-.59,18.62-1.78,1.71-.23,4.05-.79,7.04-1.7Z"/><path class="cls-5" d="m985.55,489.6c-2.35-.96-5.35-1.44-9.02-1.44-6.82,0-12.37,2.37-16.63,7.12-4.82,5.32-7.23,12.98-7.23,22.98,0,7.8,1.91,14.2,5.73,19.21,3.82,5,8.82,7.5,15,7.5,4.22,0,8.23-1.38,12.03-4.16-.43,2.32-1.15,6.59-2.18,12.81-.6,4.13-1.17,8.42-1.73,12.89-4.78,2.43-10.9,3.65-18.36,3.65-13.52,0-25.08-6.02-34.67-18.06-10.41-13.12-15.61-30.19-15.61-51.22,0-19.45,4.48-35.16,13.43-47.15,9.55-12.78,22.75-19.17,39.6-19.17,8.1,0,13.97.62,17.59,1.87l2.05,53.17Z"/><path class="cls-5" d="m1076.9,498.59c0,19.96-3.88,36.83-11.64,50.63-8.15,14.42-18.57,21.62-31.28,21.62s-23.69-7.26-31.79-21.79c-7.63-13.68-11.45-30.5-11.45-50.46,0-21.31,4.16-38.05,12.47-50.2,7.85-11.42,18.1-17.13,30.77-17.13s22.6,5.74,30.45,17.21c8.32,12.21,12.47,28.92,12.47,50.12Zm-30.77,14.93c0-15.72-4.01-23.58-12.03-23.58s-11.71,7.92-11.71,23.74c0,6.33,1.02,12.24,3.07,17.72,2.3,6.16,5.14,9.24,8.51,9.24s6.18-3.14,8.7-9.41c2.3-5.71,3.46-11.62,3.46-17.72Z"/><path class="cls-5" d="m1185.14,436.26c-.6,11.87-1.47,33.53-2.62,64.96-.6,19.33-1.04,41.1-1.34,65.3h-23.16l-.64-39.94-22.58,43.08-24.37-42.74-.64,39.6h-23.03c-.3-12.95-.87-34.83-1.73-65.64-.6-17.75-1.69-39.29-3.26-64.62h36.66c1.28,4.13,3.48,10.8,6.59,20.01,2.39,6.56,5.65,14.3,9.79,23.24,1.83-3.84,5.2-11.79,10.11-23.83,1.75-4.47,3.99-10.94,6.72-19.42h33.52Z"/><path class="cls-5" d="m1273.29,487.65c0,16.06-3.87,28.9-11.61,38.54-7.74,9.64-18.01,14.46-30.8,14.46l-.77,25.87h-35.25l-1.85-63.18c-.55-16.28-1.43-38.64-2.62-67.08,6.65-1.75,16.4-2.63,29.23-2.63,15.65,0,28.19,4.16,37.62,12.47,10.7,9.44,16.06,23.29,16.06,41.55Zm-26.55,14.25c0-8.82-3.95-13.23-11.83-13.23-.94,0-1.9.08-2.88.25l-.64,29.68c10.24-.45,15.35-6.02,15.35-16.71Z"/><path class="cls-5" d="m1343.92,540.82c-.43,2.26-1.22,6.53-2.37,12.81-.6,3.67-1.11,7.97-1.54,12.89h-57.89c-.21-13.29-.75-35.16-1.6-65.64-.55-15.6-1.56-37.14-3.01-64.62h44.4l-3.65,108.04c4.14,0,10.34-.59,18.62-1.78,1.71-.23,4.05-.79,7.04-1.7Z"/><path class="cls-5" d="m1414.16,436.26l-2.75,53.68c-1.58-.34-4.99-.93-10.24-1.78-3.58-.45-7.51-.73-11.77-.85l-.96,16.2c4.69.17,12.35.03,22.97-.42-.47,2.09-1.22,5.99-2.24,11.7-.6,3.45-1.13,7.44-1.6,11.96-1.24-.4-4.33-.9-9.28-1.53-2.3-.17-5.72-.23-10.24-.17l-.64,18.91c3.2-.06,9.08-.42,17.66-1.1,1.62-.17,4.29-.85,8-2.04-.34,1.75-1.13,5.96-2.37,12.64-.6,3.45-1.32,7.8-2.17,13.06h-57.25l-1.85-66.49c-.34-15.21-1.17-36.46-2.5-63.77h67.23Z"/><path class="cls-5" d="m1497.77,436.26l-1.86,53.34c-1.66-.34-4.33-.76-8-1.27-2.26-.17-5.93-.34-11-.51-.26,3.34-.7,11.39-1.34,24.17-.47,12.38-1.24,30.56-2.3,54.53h-30.96c-.34-11.42-.98-29.37-1.92-53.85-.43-8.48-.88-16.76-1.34-24.85l-10.11.51-9.15,1.27-1.6-53.34h79.58Z"/><path class="cls-5" d="m1568.78,436.26l-2.75,53.68c-1.58-.34-4.99-.93-10.24-1.78-3.58-.45-7.51-.73-11.77-.85l-.96,16.2c4.69.17,12.35.03,22.97-.42-.47,2.09-1.22,5.99-2.24,11.7-.6,3.45-1.13,7.44-1.6,11.96-1.24-.4-4.33-.9-9.28-1.53-2.3-.17-5.72-.23-10.24-.17l-.64,18.91c3.2-.06,9.08-.42,17.66-1.1,1.62-.17,4.29-.85,8-2.04-.34,1.75-1.13,5.96-2.37,12.64-.6,3.45-1.32,7.8-2.17,13.06h-57.25l-1.85-66.49c-.34-15.21-1.17-36.46-2.5-63.77h67.23Z"/><path class="cls-20" d="m1425.59,298.66l383.98,109.03s73.09-202.23-135.14-262.54c-208.23-60.31-248.84,153.51-248.84,153.51Z"/><path class="cls-20" d="m1430.35,320.2l305.26,86.68s60.48-169.47-105.05-217.46c-165.53-47.99-200.21,130.78-200.21,130.78Z"/><ellipse class="cls-20" cx="1438.11" cy="104.52" rx="25.99" ry="26.36" transform="translate(469.67 1172.79) rotate(-51.96)"/><ellipse class="cls-20" cx="1402.81" cy="95.72" rx="25.99" ry="26.36" transform="translate(463.05 1141.61) rotate(-51.96)"/><path class="cls-20" d="m1697.93,472.03s31.6,12.6,35.42,1.35c3.82-11.25,26.04-95.31,26.04-95.31,0,0-14.86-43.08-44.53-12.65,0,0-24.33,44.39-24.31,88.96,0,0-2.82,14.02,7.38,17.64Z"/><path class="cls-20" d="m1408.98,391.82s31.6,12.6,35.42,1.35c3.82-11.25,26.04-95.31,26.04-95.31,0,0-14.86-43.08-44.53-12.65,0,0-24.33,44.39-24.31,88.96,0,0-2.82,14.02,7.38,17.64Z"/><path class="cls-20" d="m1460.97,419.26s35.28,13.82,39.33,2.03c4.05-11.79,27.33-100.01,27.33-100.01,0,0-17.2-45.66-49.63-14.09,0,0-26.26,46.37-25.51,93.35,0,0-2.9,14.73,8.48,18.72Z"/><path class="cls-13" d="m1741.32,307.29s41.96,25.59,92.88,5.15c50.92-20.43,47.81,25.17,11.16,28.91-36.65,3.73-77.77,13.23-125.29-.81-47.53-14.04,21.25-33.25,21.25-33.25Z"/><path class="cls-13" d="m1414.95,386.5s30.93,12.22,34.57,1.57,24.68-90.31,24.68-90.31c0,0-14.83-41.04-43.55-12.37,0,0-23.4,41.97-23.04,84.3,0,0-2.64,13.29,7.33,16.81Z"/><path class="cls-13" d="m1712.45,470.87s30.93,12.22,34.57,1.57c3.64-10.65,24.68-90.31,24.68-90.31,0,0-14.83-41.04-43.55-12.37,0,0-23.4,41.97-23.04,84.3,0,0-2.64,13.29,7.33,16.81Z"/><path class="cls-13" d="m1424.82,315.83l377.58,107.22s76.43-215.54-128.31-274.94c-204.74-59.39-249.27,167.72-249.27,167.72Z"/><path class="cls-13" d="m1744.9,486.89s35.28,13.82,39.33,2.03,27.33-100.01,27.33-100.01c0,0-17.2-45.66-49.63-14.09,0,0-26.26,46.37-25.51,93.35,0,0-2.9,14.73,8.48,18.72Z"/><path class="cls-20" d="m1558.06,143.2s124.39-33.31,216.43,61.46c0,0-60.58,43.78-123.99,26.99-63.41-16.79-92.44-88.45-92.44-88.45Z"/><path class="cls-20" d="m1814.72,273.77s-82.87-11.08-74.69,12.31c8.18,23.39,82.47,33.82,82.47,33.82l-7.79-46.13Z"/><path class="cls-20" d="m1485.65,193.88s62.1,12.63,55.8,35.82c-6.3,23.19-82.23.17-82.23.17l26.43-35.99Z"/><ellipse class="cls-20" cx="1435.39" cy="162.99" rx="73.25" ry="73.98" transform="translate(84.65 675.24) rotate(-27.25)"/><ellipse class="cls-13" cx="1430.95" cy="161.4" rx="72.53" ry="73.45" transform="translate(363 1127.4) rotate(-48.57)"/><ellipse class="cls-13" cx="1399.38" cy="94.57" rx="21.58" ry="21.86" transform="translate(407.68 1086.41) rotate(-48.87)"/><ellipse class="cls-13" cx="1437.25" cy="104.62" rx="22.53" ry="22.76" transform="translate(211.88 862.97) rotate(-35.92)"/><ellipse class="cls-19" cx="1434.79" cy="111.3" rx="13.87" ry="14.01" transform="translate(60.13 537.13) rotate(-21.65)"/><ellipse class="cls-19" cx="1397.76" cy="100.94" rx="13.87" ry="14.01" transform="translate(61.34 522.74) rotate(-21.65)"/><path class="cls-13" d="m1419.56,105.49l35.55,10.09s4.98-19.42-12.35-24.89c-17.33-5.47-23.19,14.79-23.19,14.79Z"/><path class="cls-13" d="m1379.19,94.06l35.55,10.09s5.63-21.81-11.68-27.34c-17.31-5.53-23.86,17.25-23.86,17.25Z"/><ellipse class="cls-6" cx="1433.6" cy="115.76" rx="4.64" ry="4.82" transform="translate(763.09 1388.17) rotate(-66.83)"/><ellipse class="cls-6" cx="1395.39" cy="104.83" rx="4.64" ry="4.82" transform="translate(749.96 1346.42) rotate(-66.83)"/><path class="cls-26" d="m1382.67,166.96s6.9,28.31,31.69,9c0,0-14.99-9.94-31.69-9Z"/><path class="cls-20" d="m1633.72,295.86s115.08,33.9,86.35,44.68c-28.73,10.77-60.44,16.26-100.71,5.07-40.27-11.19-83.93-35.31-80.17-52.16,3.76-16.85,94.53,2.41,94.53,2.41Z"/><path class="cls-20" d="m1450.08,416.35s35.28,13.82,39.33,2.03c4.05-11.79,27.33-100.01,27.33-100.01,0,0-17.2-45.66-49.63-14.09,0,0-26.26,46.37-25.51,93.35,0,0-2.9,14.73,8.48,18.72Z"/><path class="cls-13" d="m1457.06,414.05s35.28,13.82,39.33,2.03c4.05-11.79,27.33-100.01,27.33-100.01,0,0-17.2-45.66-49.63-14.09,0,0-26.26,46.37-25.51,93.35,0,0-2.9,14.73,8.48,18.72Z"/><path class="cls-20" d="m1749.92,499.47s35.28,13.82,39.33,2.03c4.05-11.79,27.33-100.01,27.33-100.01,0,0-17.2-45.66-49.63-14.09,0,0-26.26,46.37-25.51,93.35,0,0-2.9,14.73,8.48,18.72Z"/><path class="cls-13" d="m1703.9,466.72s30.93,12.22,34.57,1.57c3.64-10.65,24.68-90.31,24.68-90.31,0,0-14.83-41.04-43.55-12.37,0,0-23.4,41.97-23.04,84.3,0,0-2.64,13.29,7.33,16.81Z"/><path class="cls-20" d="m1739.03,496.56s35.28,13.82,39.33,2.03c4.05-11.79,27.33-100.01,27.33-100.01,0,0-17.2-45.66-49.63-14.09,0,0-26.26,46.37-25.51,93.35,0,0-2.9,14.73,8.48,18.72Z"/><path class="cls-13" d="m1746.01,494.26s35.28,13.82,39.33,2.03c4.05-11.79,27.33-100.01,27.33-100.01,0,0-17.2-45.66-49.63-14.09,0,0-26.26,46.37-25.51,93.35,0,0-2.9,14.73,8.48,18.72Z"/><path class="cls-17" d="m328.51,335.66l13.66,17.27s-31.05,39.89-27.22,68.97c3.83,29.08-20.47,12.88-20.47,12.88,0,0-13.95-30.03,34.03-99.12Z"/><path class="cls-17" d="m318.93,239.62s-37.07-1.1-60.76-32.34c-23.69-31.25-40.59-3.56-19,12.55,21.59,16.11,43.61,37.27,79.41,47.2,35.8,9.92.35-27.4.35-27.4Z"/><path class="cls-17" d="m345.85,349.41l16.28,15.25s-24.42,43.55-16,71.77c8.42,28.22-18.23,15.45-18.23,15.45,0,0-18.59-27.81,17.96-102.47Z"/><path class="cls-17" d="m314.04,307.56l9.77,19.38s-38.77,33.77-41.1,63.03c-2.33,29.26-22.75,9.07-22.75,9.07,0,0-7.38-31.97,54.09-91.48Z"/><path class="cls-17" d="m290.36,285l9.77,19.38s-38.77,33.77-41.1,63.03c-2.33,29.26-22.75,9.07-22.75,9.07,0,0-7.38-31.97,54.09-91.48Z"/><path class="cls-17" d="m610.29,300.69l-7.77,20.27s41.96,29.7,47.21,58.58c5.26,28.88,23.55,6.73,23.55,6.73,0,0,4.14-32.55-62.98-85.58Z"/><path class="cls-17" d="m597.91,318.59l-10.9,19.04s36.73,35.02,37.34,64.33c.6,29.31,22.19,9.81,22.19,9.81,0,0,9.26-31.69-48.63-93.18Z"/><path class="cls-17" d="m615.52,269.85l-3.4,21.22s47.47,21.74,58.68,49.11c11.21,27.37,24.56,2.47,24.56,2.47,0,0-2.74-32.62-79.84-72.79Z"/><path class="cls-17" d="m631.26,241.78l-3.4,21.22s47.47,21.74,58.68,49.11c11.21,27.37,24.56,2.47,24.56,2.47,0,0-2.74-32.62-79.84-72.79Z"/><path class="cls-17" d="m184.54,221.2s66.73,21.93,72.74,3.73c6.01-18.2,17.68-58.24-44.71-76.45-62.39-18.21-82.98,20.11-82.98,20.11l-3.12,8.08s-7.47,14.94,45.72,13.87c0,0,6.61.62,2.87,6.77-3.74,6.14-22.24,7.91-22.24,7.91,0,0-7.99-1.17-4.89,4.4s5.96,7.94,11.16,11.34c5.2,3.4,11.65,2.68,25.45.22Z"/><path class="cls-17" d="m595.82,201.12s35.14-11.17,48.23-47.55c13.09-36.38,37.76-14.5,22.04,6.82s-30.31,47.59-61.53,66.86c-31.23,19.28-8.74-26.14-8.74-26.14Z"/><path class="cls-17" d="m718.8,146.79s-57.14,39.21-68.48,23.44-34.79-50.92,19.34-85.38c54.13-34.46,85.6-3.41,85.6-3.41l5.46,6.89s11.74,12.26-39.51,25.76c0,0-6.14,2.4-.68,7.26s23.72,1.5,23.72,1.5c0,0,7.29-3.3,6.03,2.88-1.26,6.18-3.27,9.23-7.2,13.91s-10.33,5.75-24.29,7.16Z"/><ellipse class="cls-17" cx="464.78" cy="264.86" rx="204.21" ry="113.12" transform="translate(-30.65 63.06) rotate(-7.52)"/><ellipse class="cls-17" cx="400.54" cy="159.38" rx="41.25" ry="37.75" transform="translate(-7.61 20.64) rotate(-2.92)"/><ellipse class="cls-17" cx="488.75" cy="147.07" rx="41.25" ry="37.75" transform="translate(-6.87 25.12) rotate(-2.92)"/><ellipse class="cls-17" cx="489.02" cy="147.26" rx="20.62" ry="18.88" transform="translate(-6.87 25.14) rotate(-2.92)"/><ellipse class="cls-17" cx="400.81" cy="159.56" rx="20.62" ry="18.88" transform="translate(-7.62 20.65) rotate(-2.92)"/><ellipse class="cls-17" cx="488.75" cy="147.07" rx="10.43" ry="9.55" transform="translate(-6.87 25.12) rotate(-2.92)"/><ellipse class="cls-17" cx="400.54" cy="159.38" rx="10.43" ry="9.55" transform="translate(-7.61 20.64) rotate(-2.92)"/><path class="cls-17" d="m430.24,214.27s20.35,26.38,37.03-5.17c0,0-20.16-3.48-37.03,5.17Z"/><path class="cls-4" d="m328.94,334.39l13.35,16.82s-30.41,38.89-26.68,67.22c3.73,28.33-20.04,12.56-20.04,12.56,0,0-13.63-29.25,33.36-96.6Z"/><path class="cls-4" d="m319.63,240.82s-36.27-1.05-59.43-31.48c-23.16-30.43-39.72-3.45-18.6,12.24,21.12,15.69,42.65,36.29,77.67,45.94,35.03,9.65.36-26.7.36-26.7Z"/><path class="cls-4" d="m345.9,347.78l15.92,14.85s-23.92,42.45-15.7,69.94c8.22,27.49-17.85,15.06-17.85,15.06,0,0-18.17-27.08,17.64-99.85Z"/><path class="cls-4" d="m314.8,307.02l9.54,18.88s-37.96,32.93-40.26,61.44c-2.3,28.51-22.27,8.85-22.27,8.85,0,0-7.2-31.15,52.98-89.17Z"/><path class="cls-4" d="m291.65,285.05l9.54,18.88s-37.96,32.93-40.26,61.44c-2.3,28.51-22.27,8.85-22.27,8.85,0,0-7.2-31.15,52.98-89.17Z"/><path class="cls-4" d="m604.68,300.16l-7.62,19.75s41.03,28.92,46.16,57.06c5.12,28.14,23.03,6.55,23.03,6.55,0,0,4.07-31.72-61.57-83.35Z"/><path class="cls-4" d="m592.55,317.6l-10.68,18.56s35.92,34.1,36.49,62.66c.57,28.56,21.71,9.54,21.71,9.54,0,0,9.09-30.89-47.52-90.76Z"/><path class="cls-4" d="m609.82,270.1l-3.34,20.68s46.43,21.16,57.39,47.82,24.03,2.39,24.03,2.39c0,0-2.66-31.78-78.07-70.88Z"/><path class="cls-4" d="m625.24,242.74l-3.34,20.68s46.43,21.16,57.39,47.82,24.03,2.39,24.03,2.39c0,0-2.66-31.78-78.07-70.88Z"/><path class="cls-4" d="m590.59,203.14s34.4-10.91,47.23-46.36c12.83-35.45,36.96-14.15,21.56,6.64-15.4,20.78-29.69,46.39-60.25,65.19-30.57,18.8-8.53-25.46-8.53-25.46Z"/><path class="cls-4" d="m710.96,150.13s-55.94,38.24-67.02,22.88c-11.08-15.36-34.01-49.6,18.98-83.21,52.99-33.61,83.76-3.37,83.76-3.37l5.34,6.71s11.48,11.94-38.67,25.13c0,0-6.01,2.35-.67,7.08s23.21,1.45,23.21,1.45c0,0,7.14-3.22,5.9,2.8-1.23,6.03-3.2,9-7.05,13.55-3.85,4.56-10.11,5.61-23.78,6.99Z"/><ellipse class="cls-4" cx="462.33" cy="265.32" rx="199.83" ry="110.21" transform="translate(-30.75 62.79) rotate(-7.52)"/><ellipse class="cls-4" cx="399.53" cy="162.59" rx="40.36" ry="36.78" transform="translate(-8.41 22.42) rotate(-3.18)"/><ellipse class="cls-4" cx="485.86" cy="150.54" rx="40.36" ry="36.78" transform="translate(-7.6 27.19) rotate(-3.18)"/><ellipse class="cls-9" cx="486.12" cy="150.72" rx="20.18" ry="18.39" transform="translate(-7.61 27.2) rotate(-3.18)"/><ellipse class="cls-9" cx="399.8" cy="162.76" rx="20.18" ry="18.39" transform="translate(-8.41 22.43) rotate(-3.18)"/><ellipse class="cls-26" cx="485.86" cy="150.54" rx="10.21" ry="9.3" transform="translate(-7.6 27.19) rotate(-3.18)"/><ellipse class="cls-26" cx="399.53" cy="162.59" rx="10.21" ry="9.3" transform="translate(-8.41 22.42) rotate(-3.18)"/><path class="cls-26" d="m428.56,216.05s19.9,25.69,36.23-5.06c0,0-19.73-3.38-36.23,5.06Z"/><path class="cls-4" d="m188.14,222.95s65.28,21.33,71.17,3.6c5.89-17.73,17.34-56.76-43.69-74.46-61.03-17.7-81.21,19.64-81.21,19.64l-3.05,7.88s-7.32,14.56,44.73,13.49c0,0,6.47.6,2.81,6.59-3.66,5.99-21.77,7.72-21.77,7.72,0,0-7.82-1.14-4.79,4.29,3.03,5.43,5.82,7.74,10.91,11.05,5.09,3.31,11.4,2.6,24.9.2Z"/><path class="cls-24" d="m278.08,326.86s52.52,70.89,201.12,50.3c148.61-20.58,184.72-111.7,184.72-111.7l3.5-20.52s-212.57,87.31-400.33,62.21l10.98,19.71Z"/><path class="cls-18" d="m1747.84,885.78l-5.23,132.77-421.72-26.13s-40.81,8.56-39.06-68.89c1.76-77.45,44.34-63.81,44.34-63.81l421.66,26.05Z"/><path class="cls-18" d="m1726.61,832.7l-6.72,170.67,537.14,33.1s50.87,17.38,56.43-81.96c5.56-99.35-49.78-88.62-49.78-88.62l-537.07-33.19Z"/><ellipse class="cls-18" cx="1906.85" cy="1007.71" rx="21.97" ry="41.89" transform="translate(767.9 2839.19) rotate(-85.98)"/><path class="cls-12" d="m1725.7,846.66l-6.72,170.67,537.14,33.1s50.87,17.38,56.43-81.96c5.56-99.35-49.78-88.62-49.78-88.62l-537.07-33.19Z"/><ellipse class="cls-18" cx="1905.94" cy="1021.67" rx="21.97" ry="41.89" transform="translate(753.13 2851.27) rotate(-85.98)"/><ellipse class="cls-18" cx="1732.26" cy="869.82" rx="160.98" ry="124.48" transform="translate(851.88 2596.74) rotate(-89.65)"/><ellipse class="cls-18" cx="1726.12" cy="857.36" rx="160.98" ry="124.48" transform="translate(858.24 2578.21) rotate(-89.65)"/><path class="cls-18" d="m1619.02,754.43l56.64,3.5s-1.77,32.53-29.64,31.67c-27.87-.86-27-35.17-27-35.17Z"/><ellipse class="cls-18" cx="1695.79" cy="759.25" rx="26.86" ry="33.48" transform="translate(-.82 1.84) rotate(-.06)"/><path class="cls-18" d="m1667.35,757.78l56.64,3.5s-1.77,32.53-29.64,31.67c-27.87-.86-27-35.17-27-35.17Z"/><ellipse class="cls-18" cx="1640.43" cy="771.61" rx="8.59" ry="6.77" transform="translate(864.59 2410.05) rotate(-89.85)"/><ellipse class="cls-18" cx="1688.33" cy="774.89" rx="8.59" ry="6.77" transform="translate(909.08 2461.22) rotate(-89.85)"/><ellipse class="cls-12" cx="1725.21" cy="871.32" rx="160.98" ry="124.48" transform="translate(843.37 2591.18) rotate(-89.65)"/><ellipse class="cls-18" cx="1356.48" cy="868.32" rx="26.86" ry="33.48" transform="translate(-.94 1.47) rotate(-.06)"/><ellipse class="cls-18" cx="1356.07" cy="868.78" rx="19.42" ry="14.85" transform="translate(476.7 2218.01) rotate(-89.55)"/><path class="cls-12" d="m1746.93,899.75l-5.23,132.77-421.72-26.13s-40.81,8.56-39.06-68.89c1.76-77.45,44.34-63.81,44.34-63.81l421.66,26.05Z"/><ellipse class="cls-12" cx="1355.57" cy="882.29" rx="26.86" ry="33.48" transform="translate(-.95 1.47) rotate(-.06)"/><ellipse class="cls-18" cx="1355.16" cy="882.75" rx="19.42" ry="14.85" transform="translate(461.84 2230.96) rotate(-89.55)"/><path class="cls-26" d="m1281.09,944.28s157.63,102.83,376.33,23.25c0,0-194.31-32.07-376.33-23.25Z"/><polygon class="cls-10" points="1367.55 948.27 1386.56 992.17 1409.79 950.88 1367.55 948.27"/><polygon class="cls-10" points="1418.43 951.41 1437.44 995.31 1460.67 954.02 1418.43 951.41"/><polygon class="cls-10" points="1471.23 954.67 1490.24 998.57 1513.47 957.28 1471.23 954.67"/><polygon class="cls-10" points="1524.99 958 1544 1001.9 1567.23 960.61 1524.99 958"/><polygon class="cls-10" points="1320.38 944.71 1339.39 988.61 1362.62 947.32 1320.38 944.71"/><ellipse class="cls-18" cx="1698.74" cy="766.82" rx="26.86" ry="33.48" transform="translate(-.83 1.84) rotate(-.06)"/><ellipse class="cls-18" cx="1646.36" cy="766.12" rx="28.83" ry="35.56" transform="translate(-2.74 5.91) rotate(-.21)"/><ellipse class="cls-12" cx="1644.64" cy="769.75" rx="26.86" ry="33.48" transform="translate(-.83 1.78) rotate(-.06)"/><path class="cls-19" d="m1618.14,767.61l56.64,3.5s-1.77,32.53-29.64,31.67c-27.87-.86-27-35.17-27-35.17Z"/><ellipse class="cls-6" cx="1640.69" cy="780.47" rx="8.59" ry="6.77" transform="translate(855.99 2419.14) rotate(-89.85)"/><ellipse class="cls-12" cx="1696.81" cy="773.34" rx="26.86" ry="33.48" transform="translate(-.84 1.84) rotate(-.06)"/><path class="cls-19" d="m1666.49,770.6l56.64,3.5s-1.77,32.53-29.64,31.67c-27.87-.86-27-35.17-27-35.17Z"/><ellipse class="cls-6" cx="1691.36" cy="786.51" rx="8.59" ry="6.77" transform="translate(900.49 2475.84) rotate(-89.85)"/></svg>