<?xml version="1.0" encoding="UTF-8"?><svg id="Layer_1" xmlns="http://www.w3.org/2000/svg" width="1920" height="1080" viewBox="0 0 1920 1080"><defs><style>.cls-1{fill:#614b47;}.cls-1,.cls-2,.cls-3,.cls-4,.cls-5,.cls-6,.cls-7,.cls-8,.cls-9,.cls-10,.cls-11,.cls-12,.cls-13,.cls-14,.cls-15,.cls-16,.cls-17,.cls-18,.cls-19,.cls-20,.cls-21,.cls-22,.cls-23,.cls-24,.cls-25,.cls-26,.cls-27,.cls-28,.cls-29,.cls-30{stroke-width:0px;}.cls-2{fill:#de9562;}.cls-3{fill:#e97600;}.cls-4{fill:#c97a79;}.cls-5{fill:#ebffd4;}.cls-7{fill:#e59f71;}.cls-8{fill:#ac7755;}.cls-9{fill:#f4fffe;}.cls-10{fill:#fffbe9;}.cls-11{fill:#576d5c;}.cls-12{fill:#7f976b;}.cls-13{fill:#b1c87c;}.cls-14{fill:gray;}.cls-15{fill:#b0cfe3;}.cls-16{fill:#f3b46f;}.cls-17{fill:#976665;}.cls-18{fill:#5f7150;}.cls-19{fill:#fff;}.cls-20{fill:#85965d;}.cls-21{fill:#59483a;}.cls-22{fill:#915932;}.cls-31{fill:#352600;stroke:#000;stroke-miterlimit:10;}.cls-23{fill:#996;}.cls-24{fill:#dfecf4;}.cls-25{fill:#975c5b;}.cls-26{fill:#846d69;}.cls-27{fill:#352000;}.cls-28{fill:#b5b46d;}.cls-29{fill:#81645f;}.cls-30{fill:#f5c38c;}</style></defs><rect class="cls-15" x="-6.14" y="-.6" width="1920" height="227"/><path class="cls-22" d="m1082.06,278.9l529.3-25.9s-23.74-67.25-71.22-76.56c-47.48-9.31,13.97-55.89,13.97-55.89l-33.52-82.28s-7.87-12.42-51.42,0c-43.55,12.42-76.18-13.2-76.18-13.2,0,0-171.27-5.43-157.3,22.51,13.97,27.94-57.52,3.1-69.26,16.3-11.74,13.2-101.12,107.47-84.36,118.55,16.76,11.08,0,96.46,0,96.46Z"/><path class="cls-2" d="m1081.91,271.9l511.45-23.01s-22.94-59.74-68.82-68.01c-45.88-8.27,13.49-49.65,13.49-49.65l-32.39-73.09s-7.61-11.03-49.68,0c-42.08,11.03-73.61-11.72-73.61-11.72,0,0-165.49-4.83-152,20,13.49,24.82-55.58,2.76-66.93,14.48-11.34,11.72-97.71,95.47-81.52,105.31,16.19,9.84,0,85.69,0,85.69Z"/><rect class="cls-16" x="-6.14" y="215.4" width="1920" height="864"/><path class="cls-24" d="m-8.64,45.9h599.91s64.91,32.09,0,59.55H-8.64s-35-36.55,0-59.55Z"/><path class="cls-24" d="m659.32,95.58h426.53s46.15,20.65,0,38.32h-426.53s-24.88-23.52,0-38.32Z"/><path class="cls-24" d="m1581.55,46.1h426.53s46.15,20.65,0,38.32h-426.53s-24.88-23.52,0-38.32Z"/><path class="cls-2" d="m-59.41,1021.19s67.2-110.14,414.13-67.46c346.92,42.67,460.13,0,460.13,0,0,0,289.49-114.81,382.22-22.77,92.74,92.05,519.82,29.82,519.82,29.82,0,0,294.34-116.74,429.32-51.44,134.98,65.3-122.34,298.68-122.34,298.68,0,0-526.22,72.66-719.17,33.31-192.95-39.35-717.47,28.58-717.47,28.58,0,0-394.48-3.85-478.34-51.01-83.86-47.16-201.03-66.51-168.29-197.71Z"/><path class="cls-2" d="m16.81,557.45s16.89-14.68,104.11-8.99c87.22,5.69,115.68,0,115.68,0,0,0,72.78-15.3,96.09-3.03s130.68,3.97,130.68,3.97c0,0,74-15.56,107.93-6.86,33.93,8.7-30.76,39.81-30.76,39.81,0,0-132.29,9.68-180.8,4.44-48.51-5.25-180.37,3.81-180.37,3.81,0,0-99.17-.51-120.26-6.8s-50.54-8.86-42.31-26.35Z"/><path class="cls-30" d="m1104.38,785.6s24.16-30.69,148.88-18.8c124.72,11.89,165.41,0,165.41,0,0,0,104.07-31.99,137.41-6.34,33.34,25.65,186.87,8.31,186.87,8.31,0,0,105.81-32.53,154.34-14.33,48.52,18.19-43.98,83.22-43.98,83.22,0,0-189.17,20.25-258.54,9.28-69.36-10.97-257.92,7.96-257.92,7.96,0,0-141.81-1.07-171.96-14.21s-72.27-18.53-60.5-55.09Z"/><path class="cls-2" d="m1603.78,527.45s16.89-23.67,104.11-14.5c87.22,9.17,115.68,0,115.68,0,0,0,72.78-24.68,96.09-4.89,23.31,19.78,130.68,6.41,130.68,6.41,0,0,74-25.09,107.93-11.06,33.93,14.03-30.76,64.19-30.76,64.19,0,0-132.29,15.62-180.8,7.16-48.51-8.46-180.37,6.14-180.37,6.14,0,0-99.17-.83-120.26-10.96s-50.54-14.29-42.31-42.49Z"/><path class="cls-2" d="m330.91,779.17s31-4.72,32.46-10.39,25.16-1.41,30.46-3.39c5.3-1.99,26.92-8.61,26.92-8.61,0,0,7.2,5.41,5.28,16.18-1.92,10.76.1,1.74-9.15,15.97,0,0-32.9,16.17-47,10.93-14.1-5.24-25.69-1.25-25.69-1.25,0,0-21.26-18.04-13.28-19.44Z"/><path class="cls-14" d="m328.73,783.45s30.59-7.43,33.71,0c3.11,7.43,24.09-9.49,29.68-9.08s27.95,0,27.95,0c0,0,5.11-11.02,0-25.52s-.44-2.53-13.5-18.62c0,0-35.89-8.06-47.54,5.87-11.65,13.93-23.77,13.52-23.77,13.52,0,0-14.45,35.48-6.53,33.83Z"/><path class="cls-2" d="m108.89,476.73h56.81s17.15,8.39-8.25,27.14c-25.4,18.75-41.84,7.9-41.84,7.9,0,0-38.71-8.88-28.7-14.07s-8.66-20.97,21.97-20.97Z"/><path class="cls-14" d="m105.15,489.3h56.81s17.15-12.29-8.25-39.75-41.84-11.56-41.84-11.56c0,0-38.71,13.01-28.7,20.6,10.02,7.59-8.66,30.72,21.97,30.72Z"/><path class="cls-2" d="m1818.62,698.81s31-4.72,32.46-10.39c1.46-5.67,25.16-1.41,30.46-3.39,5.3-1.99,26.92-8.61,26.92-8.61,0,0,7.2,5.41,5.28,16.18-1.92,10.76.1,1.74-9.15,15.97,0,0-32.9,16.17-47,10.93s-25.69-1.25-25.69-1.25c0,0-21.26-18.04-13.28-19.44Z"/><path class="cls-14" d="m1816.44,703.08s30.59-7.43,33.71,0c3.11,7.43,24.09-9.49,29.68-9.08s27.95,0,27.95,0c0,0,5.11-11.02,0-25.52s-.44-2.53-13.5-18.62c0,0-35.89-8.06-47.54,5.87-11.65,13.93-23.77,13.52-23.77,13.52,0,0-14.45,35.48-6.53,33.83Z"/><path class="cls-2" d="m1629.24,405.64h56.81s17.15,8.39-8.25,27.14c-25.4,18.75-41.84,7.9-41.84,7.9,0,0-38.71-8.88-28.7-14.07,10.02-5.18-8.66-20.97,21.97-20.97Z"/><path class="cls-14" d="m1625.51,418.21h56.81s17.15-12.29-8.25-39.75c-25.4-27.47-41.84-11.56-41.84-11.56,0,0-38.71,13.01-28.7,20.6,10.02,7.59-8.66,30.72,21.97,30.72Z"/><path class="cls-2" d="m1055.13,306.45s12.1-7.28,74.57-4.46c62.47,2.82,82.86,0,82.86,0,0,0,52.13-7.59,68.83-1.51,16.7,6.09,93.61,1.97,93.61,1.97,0,0,53-7.72,77.31-3.4s-22.03,19.75-22.03,19.75c0,0-94.76,4.8-129.5,2.2-34.74-2.6-129.2,1.89-129.2,1.89,0,0-71.04-.25-86.14-3.37-15.1-3.12-36.2-4.4-30.31-13.07Z"/><path class="cls-2" d="m-146.16,293.98s12.1-7.28,74.57-4.46c62.47,2.82,82.86,0,82.86,0,0,0,52.13-7.59,68.83-1.51,16.7,6.09,93.61,1.97,93.61,1.97,0,0,53-7.72,77.31-3.4,24.31,4.32-22.03,19.75-22.03,19.75,0,0-94.76,4.8-129.5,2.2-34.74-2.6-129.2,1.89-129.2,1.89,0,0-71.04-.25-86.14-3.37-15.1-3.12-36.2-4.4-30.31-13.07Z"/><path class="cls-30" d="m1226.85,475.09s13.94-10.54,85.88-6.46c71.94,4.08,95.42,0,95.42,0,0,0,60.03-10.99,79.26-2.18,19.23,8.81,107.8,2.85,107.8,2.85,0,0,61.04-11.18,89.03-4.92,27.99,6.25-25.37,28.59-25.37,28.59,0,0-109.13,6.96-149.14,3.19s-148.79,2.74-148.79,2.74c0,0-81.81-.37-99.2-4.88s-41.69-6.37-34.9-18.93Z"/><polygon class="cls-2" points="743.68 962.53 1023.67 824.35 694.17 731.62 1103.36 642.53 798.36 553.44 1034.36 401.08 739.61 219.08 941.36 397.08 563.74 589.97 814.36 633.08 547.36 715.08 760.76 857.66 570.36 973.08 771.05 1114.9 898 1114.9 743.68 962.53"/><path class="cls-30" d="m272.49,390.62s13.94-15.18,85.88-9.3,95.42,0,95.42,0c0,0,60.03-15.82,79.26-3.14,19.23,12.68,107.8,4.11,107.8,4.11,0,0,61.04-16.09,89.03-7.09,27.99,9-25.37,41.15-25.37,41.15,0,0-109.13,10.01-149.14,4.59s-148.79,3.94-148.79,3.94c0,0-81.81-.53-99.2-7.03-17.39-6.5-41.69-9.16-34.9-27.24Z"/><path class="cls-21" d="m288.76,213.71s9.86-19.59,8.4-44.13c0,0-12.65-7.01-15.87-2.72-3.21,4.3-10.58,9.88-13.56,8.78s-7.93.87-7.93.87c0,0-9.66-2.48-2.5-4.48s11.75-1.12,11.75-1.12c0,0,10.5-5.45,10.2-8.97s-10.24-4.79-10.24-4.79c0,0-8.09-1.2-7.68-7.03s-6.68-7.69-6.68-7.69c0,0-2.33-5.88,4.89-3.45s7.68,9.7,7.68,9.7c0,0,1.29,4.33,8.58,5.46,7.29,1.13,9.33,5.67,9.33,5.67,0,0,8.92,3.75,5.37-1.89-3.54-5.64-3.33-7.81-3.33-7.81,0,0-3.53-5.13-7.68-4.67s-6.4-7.62-6.4-7.62c0,0-.94-6.96,4.09-2.69,5.04,4.27,3.07,3.84,3.07,3.84,0,0,10.4,2.06,11.77,4.62s5.26,12.57,5.26,12.57c0,0,3.11,3.76,3.69,0s4.61-11.73,4.61-11.73c0,0,3.59-9.32,0-9.3s-.77-4.37-.77-4.37c0,0,5.88-5.52,8.19,0s0,12.83,0,12.83c0,0-1.68,12.09-5.63,15.57s2.56,2.76,2.56,2.76l9.72-9.71s3.19-15.42,7.17-13.24c3.97,2.18,2.05,5.46,2.05,5.46,0,0,.9,6.74-2.82,11.73-3.72,4.99-9.72,10.04-9.72,10.04l-6.4,4.8s-10.39,45.11,2.56,42.69c0,0-26.55,11.68-23.76,0Z"/><ellipse class="cls-2" cx="1653.48" cy="942.65" rx="27.21" ry="13.24"/><path class="cls-11" d="m1649.63,940.05s-45.33-7.82-41.33-58.49c0,0,10.88,45.66,42.75,50.08l-1.42,8.41Z"/><path class="cls-11" d="m1648.32,944.23s-45.81,2.08-50.27-48.54c0,0,18.24,42.5,50.27,39.97v8.57Z"/><path class="cls-11" d="m1652.26,945.21s-41.98-21.02-26.54-68.75c0,0,.07,47.32,29.83,61.05l-3.29,7.7Z"/><path class="cls-11" d="m1656.91,944.3s45.31-7.96,41.19-58.62c0,0-10.77,45.7-42.63,50.21l1.44,8.41Z"/><path class="cls-11" d="m1649.71,944.71s43.21-17.47,30.86-66.36c0,0-3.09,47.19-33.65,58.41l2.79,7.96Z"/><path class="cls-11" d="m1638.36,944.01s43.21-17.47,30.86-66.36c0,0-3.09,47.19-33.65,58.41l2.79,7.96Z"/><path class="cls-11" d="m1637.73,942.91s39.33-26.86,18.76-72.01c0,0,5.14,46.95-22.87,64.84l4.11,7.17Z"/><path class="cls-11" d="m1661.7,942.89s-41.98-21.02-26.54-68.75c0,0,.07,47.32,29.83,61.05l-3.29,7.7Z"/><ellipse class="cls-11" cx="1648.02" cy="933.29" rx="19.15" ry="13.29"/><ellipse class="cls-2" cx="1192.79" cy="232.31" rx="13.68" ry="7.59"/><path class="cls-11" d="m1190.85,230.82s-22.8-4.48-20.78-33.5c0,0,5.47,26.15,21.5,28.68l-.71,4.82Z"/><path class="cls-11" d="m1190.2,233.22s-23.04,1.19-25.28-27.8c0,0,9.17,24.34,25.28,22.89v4.91Z"/><path class="cls-11" d="m1192.18,233.78s-21.11-12.04-13.35-39.37c0,0,.04,27.1,15,34.96l-1.66,4.41Z"/><path class="cls-11" d="m1194.51,233.26s22.79-4.56,20.71-33.57c0,0-5.42,26.17-21.44,28.75l.72,4.82Z"/><path class="cls-11" d="m1190.89,233.49s21.73-10.01,15.52-38.01c0,0-1.56,27.02-16.92,33.45l1.4,4.56Z"/><path class="cls-11" d="m1185.19,233.09s21.73-10.01,15.52-38.01c0,0-1.56,27.02-16.92,33.45l1.4,4.56Z"/><path class="cls-11" d="m1184.87,232.46s19.78-15.39,9.43-41.24c0,0,2.59,26.89-11.5,37.13l2.07,4.11Z"/><path class="cls-11" d="m1196.92,232.45s-21.11-12.04-13.35-39.37c0,0,.04,27.1,15,34.96l-1.66,4.41Z"/><ellipse class="cls-11" cx="1190.04" cy="226.95" rx="9.63" ry="7.61"/><ellipse class="cls-2" cx="822.88" cy="396.31" rx="18.41" ry="9.59"/><path class="cls-11" d="m820.27,394.42s-30.68-5.66-27.97-42.34c0,0,7.36,33.05,28.93,36.25l-.96,6.09Z"/><path class="cls-11" d="m819.38,397.45s-31,1.51-34.02-35.13c0,0,12.35,30.76,34.02,28.93v6.2Z"/><path class="cls-11" d="m822.05,398.16s-28.41-15.21-17.96-49.76c0,0,.05,34.25,20.19,44.19l-2.23,5.58Z"/><path class="cls-11" d="m825.19,397.5s30.67-5.76,27.88-42.43c0,0-7.29,33.07-28.85,36.34l.97,6.09Z"/><path class="cls-11" d="m820.32,397.8s29.24-12.65,20.89-48.03c0,0-2.09,34.15-22.78,42.27l1.89,5.76Z"/><path class="cls-11" d="m812.64,397.3s29.24-12.65,20.89-48.03c0,0-2.09,34.15-22.78,42.27l1.89,5.76Z"/><path class="cls-11" d="m812.21,396.49s26.62-19.44,12.69-52.12c0,0,3.48,33.98-15.48,46.93l2.78,5.19Z"/><path class="cls-11" d="m828.44,396.49s-28.41-15.21-17.96-49.76c0,0,.05,34.25,20.19,44.19l-2.23,5.58Z"/><ellipse class="cls-11" cx="819.18" cy="389.54" rx="12.96" ry="9.62"/><ellipse class="cls-2" cx="203.64" cy="223.68" rx="13.92" ry="21.33" transform="translate(-72.27 347.66) rotate(-71.88)"/><ellipse class="cls-2" cx="178.16" cy="687.76" rx="36.49" ry="15.29"/><path class="cls-11" d="m172.99,684.75s-60.81-9.03-55.44-67.55c0,0,14.59,52.73,57.34,57.83l-1.9,9.72Z"/><path class="cls-11" d="m171.24,689.59s-61.45,2.4-67.43-56.06c0,0,24.47,49.08,67.43,46.16v9.9Z"/><path class="cls-11" d="m176.52,690.71s-56.31-24.27-35.6-79.39c0,0,.1,54.64,40.02,70.5l-4.42,8.9Z"/><path class="cls-11" d="m182.75,689.66s60.78-9.19,55.25-67.69c0,0-14.45,52.77-57.18,57.98l1.93,9.71Z"/><path class="cls-11" d="m173.09,690.13s57.96-20.18,41.4-76.64c0,0-4.15,54.49-45.14,67.45l3.74,9.19Z"/><path class="cls-11" d="m157.88,689.33s57.96-20.18,41.4-76.64c0,0-4.15,54.49-45.14,67.45l3.74,9.19Z"/><path class="cls-11" d="m157.02,688.05s52.76-31.02,25.16-83.15c0,0,6.9,54.22-30.68,74.87l5.52,8.28Z"/><path class="cls-11" d="m189.18,688.04s-56.31-24.27-35.6-79.39c0,0,.1,54.64,40.02,70.5l-4.42,8.9Z"/><ellipse class="cls-11" cx="170.83" cy="676.95" rx="25.69" ry="15.35"/><path class="cls-21" d="m215.15,218.1s-12.35-29.43-10.53-66.28c0,0,15.85-10.53,19.87-4.08,4.03,6.45,13.26,14.85,16.99,13.18s7.17,2.02,9.94,1.31c2.77-.7,12.1-3.73,3.13-6.73-8.97-3-14.72-1.69-14.72-1.69,0,0-13.15-8.18-12.77-13.48s12.82-7.19,12.82-7.19c0,0,10.13-1.8,9.62-10.55-.51-8.76,8.36-11.55,8.36-11.55,0,0,2.92-8.82-6.12-5.17s-9.62,14.58-9.62,14.58c0,0-1.61,6.5-10.75,8.21-9.14,1.7-11.69,8.52-11.69,8.52,0,0-11.17,5.63-6.73-2.85,4.44-8.47,4.17-11.73,4.17-11.73,0,0,4.42-7.7,9.62-7.01s8.01-11.44,8.01-11.44c0,0-.48-5.33-5.13-4.04-4.65,1.29-3.85,5.77-3.85,5.77,0,0-13.03,3.1-14.74,6.94s-6.59,18.88-6.59,18.88c0,0-3.89,5.65-4.62,0s-5.77-17.62-5.77-17.62c0,0-.1-14,0-13.97s1.01-6.47.96-6.57-9.1-11.84-10.26,0c-1.16,11.84-2.29,14.98,0,19.28s7.14,23.41,7.05,23.39-3.21,4.14-3.21,4.14c0,0-12.26-14.53-12.18-14.58s-1.39-17.51-8.97-19.89c-7.58-2.38-7.08,3.06-2.56,8.2s-1.13,10.13,3.53,17.62c4.65,7.49,12.18,15.08,12.18,15.08,0,0,10.38,3.21,8.01,7.2s-3.23,64.12-3.21,64.13,33.26,17.55,29.76,0Z"/><path class="cls-8" d="m1367.59,116.45v348.01l104.29,198.23s15.17,161.52-66.37,328.92c-81.54,167.4-802.88,0-802.88,0l-35.25-67.55s-51.2-5.87-58.78-44.05c-7.58-38.18,7.58-361.22-81.54-446.39-89.12-85.17,79.64-343.6,79.64-343.6,0,0,458.89-35.24,860.88,26.43Z"/><path class="cls-7" d="m1324.53,78.46v348.01l104.29,198.23s15.17,161.52-66.37,328.92c-81.54,167.4-802.88,0-802.88,0l-35.25-67.55s-51.2-5.87-58.78-44.05c-7.58-38.18,7.58-361.22-81.54-446.39-89.12-85.17,79.64-343.6,79.64-343.6,0,0,458.89-35.24,860.88,26.43Z"/><path class="cls-5" d="m908.2,521.1l-.68,7.73h-25.58l-.68-7.73h26.95Zm-1.09,12.97l-.72,7.93h-23.32l-.62-7.93h24.65Z"/><path class="cls-5" d="m952.07,505.14c-.16,4.53-.4,12.59-.72,24.17-.11,5.78-.23,14.86-.34,27.23h-15.22c.05-6.87-.02-13.25-.21-19.17-.05-1.73-.16-6.42-.34-14.07-.39.07-1.23.24-2.53.53-.68.16-1.49.41-2.43.77l-3.25-11.2c2.58-1.07,7.14-3.08,13.68-6.03,2.03-.96,4.71-2.31,8.04-4.07l3.32,1.83Z"/><path class="cls-5" d="m1015.23,525.47c0,6.31-2.07,11.36-6.21,15.15s-9.63,5.68-16.46,5.68l-.41,10.17h-18.84l-.99-24.83c-.3-6.4-.76-15.19-1.4-26.37,3.56-.69,8.76-1.03,15.63-1.03,8.37,0,15.07,1.63,20.11,4.9,5.72,3.71,8.58,9.16,8.58,16.33Zm-14.19,5.6c0-3.47-2.11-5.2-6.33-5.2-.5,0-1.01.03-1.54.1l-.34,11.67c5.47-.18,8.21-2.37,8.21-6.57Z"/><path class="cls-5" d="m1063.35,529.77c0,7.84-2.08,14.48-6.22,19.9-4.35,5.67-9.93,8.5-16.72,8.5s-12.66-2.86-17-8.57c-4.08-5.38-6.12-11.99-6.12-19.83,0-8.38,2.22-14.96,6.67-19.73,4.19-4.49,9.68-6.73,16.45-6.73s12.08,2.26,16.28,6.77c4.45,4.8,6.67,11.37,6.67,19.7Zm-16.45,5.87c0-6.18-2.14-9.27-6.43-9.27s-6.26,3.11-6.26,9.33c0,2.49.55,4.81,1.64,6.97,1.23,2.42,2.75,3.63,4.55,3.63s3.3-1.23,4.65-3.7c1.23-2.24,1.85-4.57,1.85-6.97Z"/><path class="cls-5" d="m1089.68,505.27l-1.33,27.23c-.25,5.87-.55,13.86-.89,23.97h-19.18l-2.33-51.2h23.73Z"/><path class="cls-5" d="m1134.51,505.27c-.32,4.49-.76,12.32-1.33,23.5-.34,8.22-.63,17.68-.85,28.37-2.99-2.29-7.54-5.7-13.64-10.23-2.64-1.8-6.59-4.5-11.83-8.1l-.34,17.67h-11.01c-.18-4.51-.6-13.02-1.26-25.53-.57-10.13-1.15-18.69-1.74-25.67h17.17l12.72,11.73c0-2.69-.05-4.8-.14-6.33-.07-1.35-.21-3.15-.41-5.4h12.69Z"/><path class="cls-5" d="m1179.06,505.27l-.99,20.97c-.89-.13-2.31-.3-4.27-.5-1.21-.07-3.17-.13-5.88-.2-.14,1.31-.38,4.48-.72,9.5-.25,4.87-.66,12.01-1.23,21.43h-16.55c-.18-4.49-.52-11.54-1.03-21.17-.23-3.33-.47-6.59-.72-9.77l-5.4.2-4.89.5-.86-20.97h42.54Z"/><path class="cls-5" d="m919.61,726.5l-.68,7.73h-25.58l-.68-7.73h26.95Zm-1.09,12.97l-.72,7.93h-23.32l-.62-7.93h24.65Z"/><path class="cls-5" d="m968.78,724.67c0,6.98-5.11,16.28-15.32,27.9h5.81c.89,0,2.34-.09,4.34-.27.78-.07,1.82-.2,3.15-.4-.32.98-.81,2.61-1.47,4.9-.32,1.18-.76,2.87-1.33,5.07h-22.06l-1.54-3.4c3.42-5.82,5.77-10.21,7.04-13.17,1.69-3.91,2.53-7.4,2.53-10.47,0-2.18-.68-3.84-2.05-5-1.14-.96-2.49-1.43-4.04-1.43s-2.98.34-4.41,1.03l1.61-17.93c3.42-1.2,7.07-1.8,10.94-1.8,5.08,0,9.15,1.37,12.21,4.12,3.05,2.75,4.58,6.36,4.58,10.85Z"/><path class="cls-5" d="m1029.79,730.87c0,6.31-2.07,11.36-6.21,15.15s-9.63,5.68-16.46,5.68l-.41,10.17h-18.84l-.99-24.83c-.3-6.4-.76-15.19-1.4-26.37,3.56-.69,8.76-1.03,15.63-1.03,8.37,0,15.07,1.63,20.11,4.9,5.72,3.71,8.58,9.16,8.58,16.33Zm-14.19,5.6c0-3.47-2.11-5.2-6.33-5.2-.5,0-1.01.03-1.54.1l-.34,11.67c5.47-.18,8.21-2.37,8.21-6.57Z"/><path class="cls-5" d="m1077.9,735.17c0,7.84-2.08,14.48-6.22,19.9-4.35,5.67-9.93,8.5-16.72,8.5s-12.66-2.86-17-8.57c-4.08-5.38-6.12-11.99-6.12-19.83,0-8.38,2.22-14.96,6.67-19.73,4.19-4.49,9.68-6.73,16.45-6.73s12.08,2.26,16.28,6.77c4.45,4.8,6.67,11.37,6.67,19.7Zm-16.45,5.87c0-6.18-2.14-9.27-6.43-9.27s-6.26,3.11-6.26,9.33c0,2.49.55,4.81,1.64,6.97,1.23,2.42,2.75,3.63,4.55,3.63s3.3-1.23,4.65-3.7c1.23-2.24,1.85-4.57,1.85-6.97Z"/><path class="cls-5" d="m1104.23,710.67l-1.33,27.23c-.25,5.87-.55,13.86-.89,23.97h-19.18l-2.33-51.2h23.73Z"/><path class="cls-5" d="m1149.06,710.67c-.32,4.49-.76,12.32-1.33,23.5-.34,8.22-.63,17.68-.85,28.37-2.99-2.29-7.54-5.7-13.64-10.23-2.64-1.8-6.59-4.5-11.83-8.1l-.34,17.67h-11.01c-.18-4.51-.6-13.02-1.26-25.53-.57-10.13-1.15-18.69-1.74-25.67h17.17l12.72,11.73c0-2.69-.05-4.8-.14-6.33-.07-1.35-.21-3.15-.41-5.4h12.69Z"/><path class="cls-5" d="m1193.62,710.67l-.99,20.97c-.89-.13-2.31-.3-4.27-.5-1.21-.07-3.17-.13-5.88-.2-.14,1.31-.38,4.48-.72,9.5-.25,4.87-.66,12.01-1.23,21.43h-16.55c-.18-4.49-.52-11.54-1.03-21.17-.23-3.33-.47-6.59-.72-9.77l-5.4.2-4.89.5-.86-20.97h42.54Z"/><path class="cls-5" d="m898.9,318.77l-.68,7.73h-25.58l-.68-7.73h26.95Zm-1.09,12.97l-.72,7.93h-23.32l-.62-7.93h24.65Z"/><path class="cls-5" d="m941.99,332.24l-1.54,10.17h-17.44l-1.68-10.17h20.65Z"/><path class="cls-5" d="m971.84,302.81c-.16,4.53-.4,12.59-.72,24.17-.11,5.78-.23,14.86-.34,27.23h-15.22c.05-6.87-.02-13.25-.21-19.17-.05-1.73-.16-6.42-.34-14.07-.39.07-1.23.24-2.53.53-.68.16-1.49.41-2.43.77l-3.25-11.2c2.58-1.07,7.14-3.08,13.68-6.03,2.03-.96,4.71-2.31,8.04-4.07l3.32,1.83Z"/><path class="cls-5" d="m1026.18,344.04c-.23.89-.65,2.57-1.27,5.03-.32,1.44-.59,3.13-.82,5.07h-30.95c-.11-5.22-.4-13.82-.86-25.8-.3-6.13-.83-14.6-1.61-25.4h23.73l-1.95,42.47c2.21,0,5.53-.23,9.95-.7.91-.09,2.17-.31,3.76-.67Z"/><path class="cls-5" d="m1051.52,302.94l-1.33,27.23c-.25,5.87-.55,13.86-.89,23.97h-19.18l-2.33-51.2h23.73Z"/><path class="cls-5" d="m1098.36,302.94c-1.89,5.47-4.92,14.39-9.1,26.77-1.91,5.82-4.39,13.97-7.42,24.43h-11.9c-1.53-5.07-4.08-13.34-7.66-24.83-2.03-6.36-5.04-15.14-9.03-26.37h24.18c.23,2.11.76,5.54,1.61,10.3.57,2.53,1.46,6.02,2.67,10.47.64-2.16,1.57-5.67,2.8-10.53.57-2.62,1.22-6.03,1.95-10.23h11.9Z"/><ellipse class="cls-1" cx="637.96" cy="515.53" rx="64.95" ry="69.14"/><path class="cls-1" d="m584.87,523.7l-31.3-21.81-32.23,54.1s-.77,6.3-4.12,5.75-13.37-2.65-13.37-2.65c0,0-8.28-2.01-4.16-6.13,4.12-4.12,7.73-2.19,7.73-2.19l4.38,1.1,34.02-58.72s3.9-8.94,7.75-6.94,34.49,21.56,34.49,21.56l7.5,4.04-3.81,12.04-6.89-.14Z"/><path class="cls-1" d="m595.02,495.79l-40.41-18.86-41.61,46.77s-1,5.45-5.32,4.97c-4.33-.47-17.25-2.29-17.25-2.29,0,0-5.3-1.25-5.37-5.3s9.98-1.9,9.98-1.9l5.66.95,43.92-50.76s5.03-7.73,10-6,44.53,18.63,44.53,18.63l9.68,3.49-4.92,10.41-8.89-.12Z"/><path class="cls-1" d="m687.34,495.79l40.41-18.86,41.61,46.77s1,5.45,5.32,4.97c4.33-.47,17.25-2.29,17.25-2.29,0,0,5.3-1.25,5.37-5.3.07-4.04-9.98-1.9-9.98-1.9l-5.66.95-43.92-50.76s-5.03-7.73-10-6-44.53,18.63-44.53,18.63l-9.68,3.49,4.92,10.41,8.89-.12Z"/><path class="cls-1" d="m694.92,523.73l31.3-21.81,32.23,54.1s.77,6.3,4.12,5.75c3.35-.55,13.37-2.65,13.37-2.65,0,0,8.28-2.01,4.16-6.13-4.12-4.12-7.73-2.19-7.73-2.19l-4.38,1.1-34.02-58.72s-3.9-8.94-7.75-6.94c-3.85,2-34.49,21.56-34.49,21.56l-7.5,4.04,3.81,12.04,6.89-.14Z"/><path class="cls-1" d="m680.62,564.79l38.66-50.76s3.61-7.41,7.22-4.39,4.51,7.41,4.51,7.41l14.86,47.75h10.59s5.36.54,4.07,3.84-4.53,4.65-4.53,4.65h-17.49s-5.82-1.91-4.53-6.3c1.29-4.39-9.28-40.2-9.28-40.2l-25,36.33-19.07,1.67Z"/><path class="cls-1" d="m604.34,567.99l-38.66-50.76s-3.61-7.41-7.22-4.39-4.51,7.41-4.51,7.41l-14.86,47.75h-10.59s-5.36.54-4.07,3.84,4.53,4.65,4.53,4.65h17.49s5.82-1.91,4.53-6.3,9.28-40.2,9.28-40.2l25,36.33,19.07,1.67Z"/><path class="cls-1" d="m639.38,448.72s18.69.86,30.67,8.18c11.98,7.32-25.64,42.85-25.64,42.85,0,0-6.44,7.27-6.7,0s1.68-51.03,1.68-51.03Z"/><path class="cls-1" d="m639.76,448.76s-18.69.86-30.67,8.18,25.64,42.85,25.64,42.85c0,0,6.44,7.27,6.7,0,.26-7.27-1.68-51.03-1.68-51.03Z"/><path class="cls-1" d="m661.77,570.51l45.88-29.22s10.05-6.86,10.18,0c.13,6.86-8.63,13.72-8.63,13.72l-50.75,30.23,3.32-14.73Z"/><path class="cls-1" d="m622.99,466.47l-2.05,8.89s-18.89,5.66-26.67,16.08c-7.79,10.42-8.46-.65-8.46-.65,0,0,5.78-13.13,37.18-24.32Z"/><path class="cls-1" d="m632.7,479.15l-2.05,8.89s-18.89,5.66-26.67,16.08c-7.79,10.42-8.46-.65-8.46-.65,0,0,5.78-13.13,37.18-24.32Z"/><path class="cls-1" d="m647.13,488.2l-2.05,8.89s-18.89,5.66-26.67,16.08c-7.79,10.42-8.46-.65-8.46-.65,0,0,5.78-13.13,37.18-24.32Z"/><path class="cls-1" d="m658.4,466.53l2.05,8.89s18.89,5.66,26.67,16.08c7.79,10.42,8.46-.65,8.46-.65,0,0-5.78-13.13-37.18-24.32Z"/><path class="cls-1" d="m648.61,479.15l2.05,8.89s18.89,5.66,26.67,16.08c7.79,10.42,8.46-.65,8.46-.65,0,0-5.78-13.13-37.18-24.32Z"/><path class="cls-1" d="m633.4,486.01l2.05,8.89s18.89,5.66,26.67,16.08c7.79,10.42,8.46-.65,8.46-.65,0,0-5.78-13.13-37.18-24.32Z"/><path class="cls-1" d="m620.31,570.62l-45.88-29.22s-10.05-6.86-10.18,0c-.13,6.86,8.63,13.72,8.63,13.72l50.75,30.23-3.32-14.73Z"/><ellipse class="cls-1" cx="638.99" cy="568.07" rx="30.67" ry="32.51"/><path class="cls-1" d="m615.82,573.46l-45.88-29.22s-10.05-6.86-10.18,0c-.13,6.86,0,47.88,0,47.88h-9.54s-4.25,1.78-2.96,4.53l1.29,2.74h18.11c4.82-3.57,1.73-7.13,1.73-7.13v-34.3s50.75,30.23,50.75,30.23l-3.32-14.73Z"/><ellipse class="cls-1" cx="639.12" cy="576.72" rx="30.67" ry="32.51"/><ellipse class="cls-1" cx="645.7" cy="571.23" rx="6.19" ry="7.13"/><ellipse class="cls-1" cx="631.26" cy="571.23" rx="6.19" ry="7.13"/><ellipse class="cls-1" cx="658.32" cy="564.13" rx="4.12" ry="4.36"/><ellipse class="cls-1" cx="619.15" cy="564.16" rx="4.12" ry="4.36"/><ellipse class="cls-1" cx="645.7" cy="571.14" rx="2.84" ry="3.1"/><ellipse class="cls-1" cx="631.26" cy="571.3" rx="2.84" ry="3.1"/><path class="cls-1" d="m632.03,584.81s5.19,8.95,12.12,0c0,0-6.28-1.93-12.12,0Z"/><path class="cls-1" d="m666.7,573.42l45.88-29.22s10.05-6.86,10.18,0c.13,6.86,0,47.88,0,47.88h9.54s4.25,1.78,2.96,4.53l-1.29,2.74h-18.11c-4.82-3.57-1.73-7.13-1.73-7.13v-34.3l-50.75,30.23,3.32-14.73Z"/><ellipse class="cls-26" cx="637.91" cy="519.53" rx="64.95" ry="69.14"/><path class="cls-26" d="m584.82,527.7l-31.3-21.81-32.23,54.1s-.77,6.3-4.12,5.75c-3.35-.55-13.37-2.65-13.37-2.65,0,0-8.28-2.01-4.16-6.13s7.73-2.19,7.73-2.19l4.38,1.1,34.02-58.72s3.9-8.94,7.75-6.94c3.85,2,34.49,21.56,34.49,21.56l7.5,4.04-3.81,12.04-6.89-.14Z"/><path class="cls-26" d="m594.96,499.79l-40.41-18.86-41.61,46.77s-1,5.45-5.32,4.97c-4.33-.47-17.25-2.29-17.25-2.29,0,0-5.3-1.25-5.37-5.3s9.98-1.9,9.98-1.9l5.66.95,43.92-50.76s5.03-7.73,10-6c4.97,1.73,44.53,18.63,44.53,18.63l9.68,3.49-4.92,10.41-8.89-.12Z"/><path class="cls-26" d="m687.29,499.79l40.41-18.86,41.61,46.77s1,5.45,5.32,4.97c4.33-.47,17.25-2.29,17.25-2.29,0,0,5.3-1.25,5.37-5.3.07-4.04-9.98-1.9-9.98-1.9l-5.66.95-43.92-50.76s-5.03-7.73-10-6c-4.97,1.73-44.53,18.63-44.53,18.63l-9.68,3.49,4.92,10.41,8.89-.12Z"/><path class="cls-26" d="m694.87,527.73l31.3-21.81,32.23,54.1s.77,6.3,4.12,5.75,13.37-2.65,13.37-2.65c0,0,8.28-2.01,4.16-6.13-4.12-4.12-7.73-2.19-7.73-2.19l-4.38,1.1-34.02-58.72s-3.9-8.94-7.75-6.94-34.49,21.56-34.49,21.56l-7.5,4.04,3.81,12.04,6.89-.14Z"/><path class="cls-26" d="m680.57,568.79l38.66-50.76s3.61-7.41,7.22-4.39c3.61,3.02,4.51,7.41,4.51,7.41l14.86,47.75h10.59s5.36.54,4.07,3.84-4.53,4.65-4.53,4.65h-17.49s-5.82-1.91-4.53-6.3c1.29-4.39-9.28-40.2-9.28-40.2l-25,36.33-19.07,1.67Z"/><path class="cls-26" d="m604.29,571.99l-38.66-50.76s-3.61-7.41-7.22-4.39c-3.61,3.02-4.51,7.41-4.51,7.41l-14.86,47.75h-10.59s-5.36.54-4.07,3.84c1.29,3.29,4.53,4.65,4.53,4.65h17.49s5.82-1.91,4.53-6.3c-1.29-4.39,9.28-40.2,9.28-40.2l25,36.33,19.07,1.67Z"/><path class="cls-29" d="m639.33,452.72s18.69.86,30.67,8.18c11.98,7.32-25.64,42.85-25.64,42.85,0,0-6.44,7.27-6.7,0-.26-7.27,1.68-51.03,1.68-51.03Z"/><path class="cls-29" d="m639.71,452.76s-18.69.86-30.67,8.18c-11.98,7.32,25.64,42.85,25.64,42.85,0,0,6.44,7.27,6.7,0s-1.68-51.03-1.68-51.03Z"/><path class="cls-29" d="m661.72,574.51l45.88-29.22s10.05-6.86,10.18,0c.13,6.86-8.63,13.72-8.63,13.72l-50.75,30.23,3.32-14.73Z"/><path class="cls-29" d="m622.93,470.47l-2.05,8.89s-18.89,5.66-26.67,16.08c-7.79,10.42-8.46-.65-8.46-.65,0,0,5.78-13.13,37.18-24.32Z"/><path class="cls-29" d="m632.64,483.15l-2.05,8.89s-18.89,5.66-26.67,16.08-8.46-.65-8.46-.65c0,0,5.78-13.13,37.18-24.32Z"/><path class="cls-29" d="m647.08,492.2l-2.05,8.89s-18.89,5.66-26.67,16.08-8.46-.65-8.46-.65c0,0,5.78-13.13,37.18-24.32Z"/><path class="cls-29" d="m658.35,470.53l2.05,8.89s18.89,5.66,26.67,16.08,8.46-.65,8.46-.65c0,0-5.78-13.13-37.18-24.32Z"/><path class="cls-29" d="m648.55,483.15l2.05,8.89s18.89,5.66,26.67,16.08c7.79,10.42,8.46-.65,8.46-.65,0,0-5.78-13.13-37.18-24.32Z"/><path class="cls-29" d="m633.35,490.01l2.05,8.89s18.89,5.66,26.67,16.08c7.79,10.42,8.46-.65,8.46-.65,0,0-5.78-13.13-37.18-24.32Z"/><path class="cls-29" d="m620.25,574.62l-45.88-29.22s-10.05-6.86-10.18,0c-.13,6.86,8.63,13.72,8.63,13.72l50.75,30.23-3.32-14.73Z"/><ellipse class="cls-29" cx="638.94" cy="572.07" rx="30.67" ry="32.51"/><path class="cls-26" d="m615.77,577.46l-45.88-29.22s-10.05-6.86-10.18,0c-.13,6.86,0,47.88,0,47.88h-9.54s-4.25,1.78-2.96,4.53l1.29,2.74h18.11c4.82-3.57,1.73-7.13,1.73-7.13v-34.3s50.75,30.23,50.75,30.23l-3.32-14.73Z"/><ellipse class="cls-26" cx="639.07" cy="580.72" rx="30.67" ry="32.51"/><ellipse class="cls-10" cx="645.64" cy="575.23" rx="6.19" ry="7.13"/><ellipse class="cls-10" cx="631.21" cy="575.23" rx="6.19" ry="7.13"/><ellipse class="cls-10" cx="658.27" cy="568.13" rx="4.12" ry="4.36"/><ellipse class="cls-10" cx="619.1" cy="568.16" rx="4.12" ry="4.36"/><ellipse class="cls-6" cx="645.64" cy="575.14" rx="2.84" ry="3.1"/><ellipse class="cls-6" cx="631.21" cy="575.3" rx="2.84" ry="3.1"/><path class="cls-27" d="m631.98,588.81s5.19,8.95,12.12,0c0,0-6.28-1.93-12.12,0Z"/><path class="cls-26" d="m666.65,577.42l45.88-29.22s10.05-6.86,10.18,0c.13,6.86,0,47.88,0,47.88h9.54s4.25,1.78,2.96,4.53l-1.29,2.74h-18.11c-4.82-3.57-1.73-7.13-1.73-7.13v-34.3l-50.75,30.23,3.32-14.73Z"/><path class="cls-23" d="m785.42,771.86c.05,0-3.53-19.77,14.79-32.45,18.32-12.68,12.78-13.03,11.54-25.67-1.23-12.64,3.75-21.57,10.1-19.68s10.45,32.41,10.45,32.41c0,0,.94,13.68-14.54,21.81-5.92,3.15-12.75,17.41-12.75,17.41,0,0-2.29,16.38-3.9,14.26"/><path class="cls-23" d="m659.2,821.46h143.84s15.53-1.51,15.86-14.34c.32-12.83-17.23-14.49-17.23-14.49h-142.47s-11.22,2.28-10.98,14.41,10.98,14.41,10.98,14.41Z"/><path class="cls-23" d="m670.85,792.64h120.15s12.98-1.51,13.25-14.34-14.39-14.49-14.39-14.49h-119.01s-9.37,2.28-9.17,14.41c.2,12.13,9.17,14.41,9.17,14.41Z"/><path class="cls-23" d="m683.03,763.81h92.82s10.02-1.51,10.23-14.34c.21-12.83-11.12-14.49-11.12-14.49h-91.93s-7.24,2.28-7.08,14.41c.16,12.13,7.08,14.41,7.08,14.41Z"/><path class="cls-23" d="m715.29,735.09s-1.37-30.07,9.16-37.53c10.53-7.47,26.22,1.24,34.07-8.92,7.85-10.16-6.81-19.7-6.81-19.7h-47.84s-15.96,2.7-15.75-12.86c.21-15.55,14.66-12.23,14.66-12.23l49.39-.3s34.23-2.07,33.92,41.72-36.65,18.29-39.75,31.56c-3.1,13.27-1.92,18.25-1.92,18.25h-29.13Z"/><path class="cls-28" d="m786.85,765.73s-2.02-18.25,14.39-28.82c16.42-10.58,11.67-11.2,11.25-22.81-.41-11.61,4.34-19.49,9.7-17.42,5.37,2.07,7.33,30.17,7.33,30.17,0,0,.1,12.55-13.64,19.12-5.26,2.55-11.86,15.2-11.86,15.2,0,0-2.81,14.83-4.09,12.81"/><path class="cls-23" d="m655.15,824h151.73s16.39-1.6,16.73-15.2c.34-13.6-18.17-15.35-18.17-15.35h-150.28s-11.84,2.42-11.58,15.28,11.58,15.28,11.58,15.28Z"/><path class="cls-23" d="m667.44,793.45h126.74s13.69-1.6,13.97-15.2c.28-13.6-15.18-15.35-15.18-15.35h-125.53s-9.89,2.42-9.67,15.28c.21,12.86,9.67,15.28,9.67,15.28Z"/><path class="cls-23" d="m680.28,762.9h97.91s10.57-1.6,10.79-15.2-11.73-15.35-11.73-15.35h-96.97s-7.64,2.42-7.47,15.28c.17,12.86,7.47,15.28,7.47,15.28Z"/><path class="cls-28" d="m711.87,733.59s-1.37-30.07,9.16-37.53c10.53-7.47,26.22,1.24,34.07-8.92,7.85-10.16-6.81-19.7-6.81-19.7h-47.84s-15.96,2.7-15.75-12.86c.21-15.55,14.66-12.23,14.66-12.23l49.39-.3s34.23-2.07,33.92,41.72-36.65,18.29-39.75,31.56c-3.1,13.27-1.92,18.25-1.92,18.25h-29.13Z"/><ellipse class="cls-19" cx="694.91" cy="647.01" rx="3.2" ry="3.21"/><path class="cls-3" d="m687.42,660.6s-4.72,3.9-12.18,3.22c-7.46-.68-17.17-2.57-17.17-2.57l-6.19-.66,2.58,1.65h-6.98l5.5,1.65s11.93,3.35,22.25,3.15,16.37-3.8,16.37-3.8c0,0-4.19-2.61-4.19-2.65Z"/><circle class="cls-31" cx="688.51" cy="654.68" r=".72"/><ellipse class="cls-6" cx="696.46" cy="646.91" rx="1.45" ry="1.45"/><path class="cls-28" d="m682.91,762.62h92.82s10.02-1.51,10.23-14.34c.21-12.83-11.12-14.49-11.12-14.49h-91.93s-7.24,2.28-7.08,14.41c.16,12.13,7.08,14.41,7.08,14.41Z"/><path class="cls-28" d="m670.83,792.69h120.15s12.98-1.51,13.25-14.34c.27-12.83-14.39-14.49-14.39-14.49h-119.01s-9.37,2.28-9.17,14.41c.2,12.13,9.17,14.41,9.17,14.41Z"/><path class="cls-28" d="m658.58,823.17h143.84s15.53-1.51,15.86-14.34c.32-12.83-17.23-14.49-17.23-14.49h-142.47s-11.22,2.28-10.98,14.41,10.98,14.41,10.98,14.41Z"/><path class="cls-20" d="m542.33,357.87h178.44s7.69-103.04-89.22-103.59c-96.91-.55-89.22,103.59-89.22,103.59Z"/><path class="cls-20" d="m546.92,367.21h141.86s6.11-86.25-70.93-86.7c-77.04-.46-70.93,86.7-70.93,86.7Z"/><ellipse class="cls-20" cx="524.85" cy="266.52" rx="11.76" ry="12.51"/><ellipse class="cls-20" cx="508.58" cy="267.09" rx="11.76" ry="12.51"/><path class="cls-20" d="m680.21,402.25s15.11,1.68,15.44-4.02c.32-5.7,0-47.46,0-47.46,0,0-11.49-17.96-20.7,0,0,0-5.26,23.71,0,44.3,0,0,.44,6.85,5.26,7.18Z"/><path class="cls-20" d="m546.14,403.1s15.11,1.68,15.44-4.02,0-47.46,0-47.46c0,0-11.49-17.96-20.7,0,0,0-5.26,23.71,0,44.3,0,0,.44,6.85,5.26,7.18Z"/><path class="cls-20" d="m571.8,408.96s16.84,1.76,17.2-4.22c.36-5.98,0-49.8,0-49.8,0,0-12.8-18.84-23.06,0,0,0-5.86,24.87,0,46.48,0,0,.49,7.19,5.86,7.54Z"/><path class="cls-13" d="m679.5,320.43s21.11,6.32,40.66-9.81c19.55-16.12,23.59,5.36,8.22,11.89-15.37,6.53-31.98,16.32-54.13,16.07-22.15-.25,5.24-18.15,5.24-18.15Z"/><path class="cls-13" d="m548.09,399.86s14.78,1.59,15.09-3.81c.31-5.4,0-44.97,0-44.97,0,0-11.23-17.02-20.24,0,0,0-5.14,22.46,0,41.98,0,0,.43,6.49,5.14,6.81Z"/><path class="cls-13" d="m686.33,399.81s14.78,1.59,15.09-3.81c.31-5.4,0-44.97,0-44.97,0,0-11.23-17.02-20.24,0,0,0-5.14,22.46,0,41.98,0,0,.43,6.49,5.14,6.81Z"/><path class="cls-13" d="m544.02,365.91h175.47s7.56-109.63-87.74-110.21c-95.29-.58-87.74,110.21-87.74,110.21Z"/><path class="cls-13" d="m702.21,402.96s16.84,1.76,17.2-4.22c.36-5.98,0-49.8,0-49.8,0,0-12.8-18.84-23.06,0,0,0-5.86,24.87,0,46.48,0,0,.49,7.19,5.86,7.54Z"/><path class="cls-20" d="m581.13,268.66s49.72-31.71,100.58,0c0,0-20.96,28.18-50.29,28.74-29.32.56-50.29-28.74-50.29-28.74Z"/><path class="cls-20" d="m707.21,295.31s-37.04,5.75-30.76,15.49c6.28,9.74,39.55,4.81,39.55,4.81l-8.79-20.3Z"/><path class="cls-20" d="m555.88,301.57s28.27-2.31,28.28,9.23c.01,11.54-35.44,10.87-35.44,10.87l7.16-20.1Z"/><ellipse class="cls-20" cx="530.56" cy="293.9" rx="32.9" ry="35.37"/><ellipse class="cls-13" cx="528.46" cy="293.75" rx="32.76" ry="34.92"/><ellipse class="cls-13" cx="506.97" cy="267.01" rx="9.75" ry="10.39"/><ellipse class="cls-13" cx="524.49" cy="266.68" rx="10.14" ry="10.87"/><ellipse class="cls-19" cx="524.22" cy="270.09" rx="6.22" ry="6.71"/><ellipse class="cls-19" cx="507.02" cy="270.16" rx="6.22" ry="6.71"/><path class="cls-13" d="m516.96,269.4h16.52s-.14-9.63-8.26-9.88c-8.12-.25-8.26,9.88-8.26,9.88Z"/><path class="cls-13" d="m498.2,269.42h16.52s-.14-10.82-8.26-11.1c-8.12-.28-8.26,11.1-8.26,11.1Z"/><ellipse class="cls-6" cx="524.23" cy="272.31" rx="2.15" ry="2.23"/><ellipse class="cls-6" cx="506.46" cy="272.27" rx="2.15" ry="2.23"/><path class="cls-27" d="m508.29,302.65s6.31,12.18,14.73,0c0,0-7.63-2.62-14.73,0Z"/><path class="cls-20" d="m631.76,329.27s53.63.57,42.5,9.32c-11.12,8.75-24.15,15.45-42.83,15.56-18.69.11-40.36-5.3-40.72-13.58-.36-8.28,41.05-11.29,41.05-11.29Z"/><path class="cls-20" d="m566.76,409.04s16.84,1.76,17.2-4.22,0-49.8,0-49.8c0,0-12.8-18.84-23.06,0,0,0-5.86,24.87,0,46.48,0,0,.49,7.19,5.86,7.54Z"/><path class="cls-13" d="m569.5,407.06s16.84,1.76,17.2-4.22c.36-5.98,0-49.8,0-49.8,0,0-12.8-18.84-23.06,0,0,0-5.86,24.87,0,46.48,0,0,.49,7.19,5.86,7.54Z"/><path class="cls-20" d="m705.86,408.11s16.84,1.76,17.2-4.22c.36-5.98,0-49.8,0-49.8,0,0-12.8-18.84-23.06,0,0,0-5.86,24.87,0,46.48,0,0,.49,7.19,5.86,7.54Z"/><path class="cls-13" d="m682.16,399.01s14.78,1.59,15.09-3.81c.31-5.4,0-44.97,0-44.97,0,0-11.23-17.02-20.24,0,0,0-5.14,22.46,0,41.98,0,0,.43,6.49,5.14,6.81Z"/><path class="cls-20" d="m700.82,408.2s16.84,1.76,17.2-4.22,0-49.8,0-49.8c0,0-12.8-18.84-23.06,0,0,0-5.86,24.87,0,46.48,0,0,.49,7.19,5.86,7.54Z"/><path class="cls-13" d="m703.56,406.22s16.84,1.76,17.2-4.22c.36-5.98,0-49.8,0-49.8,0,0-12.8-18.84-23.06,0,0,0-5.86,24.87,0,46.48,0,0,.49,7.19,5.86,7.54Z"/><path class="cls-17" d="m575,171.34l4.67,8.69s-15.92,16.1-16.23,29.52c-.31,13.41-9.6,4.54-9.6,4.54,0,0-3.94-14.48,21.15-42.74Z"/><path class="cls-17" d="m577.34,127.24s-15.74-2.84-23.76-18.49c-8.02-15.65-17.08-4.18-8.95,4.48,8.13,8.66,16.12,19.64,30.73,26.39,14.61,6.76,1.98-12.39,1.98-12.39Z"/><path class="cls-17" d="m581.48,178.66l5.93,7.93s-13.33,18.18-11.63,31.49c1.7,13.31-8.81,5.84-8.81,5.84,0,0-6.07-13.77,14.52-45.27Z"/><path class="cls-17" d="m570.71,157.7l2.87,9.4s-18.8,12.85-21.76,25.95-10.31,2.67-10.31,2.67c0,0-1.01-14.95,29.2-38.01Z"/><path class="cls-17" d="m562.11,145.98l2.87,9.4s-18.8,12.85-21.76,25.95c-2.95,13.11-10.31,2.67-10.31,2.67,0,0-1.01-14.95,29.2-38.01Z"/><path class="cls-17" d="m697.58,173.31l-4.67,8.69s15.92,16.1,16.23,29.52,9.6,4.54,9.6,4.54c0,0,3.94-14.48-21.15-42.74Z"/><path class="cls-17" d="m691.1,180.63l-5.93,7.93s13.33,18.18,11.63,31.49,8.81,5.84,8.81,5.84c0,0,6.07-13.77-14.52-45.27Z"/><path class="cls-17" d="m701.88,159.67l-2.87,9.4s18.8,12.85,21.76,25.95c2.95,13.11,10.31,2.67,10.31,2.67,0,0,1.01-14.95-29.2-38.01Z"/><path class="cls-17" d="m710.47,147.95l-2.87,9.4s18.8,12.85,21.76,25.95c2.95,13.11,10.31,2.67,10.31,2.67,0,0,1.01-14.95-29.2-38.01Z"/><path class="cls-17" d="m521.23,110.4s27.01,14.15,30.79,6.29c3.78-7.86,11.44-25.26-13.96-37.45-25.4-12.19-36.76,3.86-36.76,3.86l-1.87,3.46s-4.19,6.29,18.58,9.17c0,0,2.78.7.77,3.25s-10.02,2.18-10.02,2.18c0,0-3.33-1.04-2.38,1.69s2.01,3.97,4,5.84,4.79,1.95,10.85,1.71Z"/><path class="cls-17" d="m698.07,127.3s15.74-2.84,23.76-18.49c8.02-15.65,17.08-4.18,8.95,4.48-8.13,8.66-16.12,19.64-30.73,26.39-14.61,6.76-1.98-12.39-1.98-12.39Z"/><path class="cls-17" d="m754.18,110.46s-27.01,14.15-30.79,6.29c-3.78-7.86-11.44-25.26,13.96-37.45s36.76,3.86,36.76,3.86l1.87,3.46s4.19,6.29-18.58,9.17c0,0-2.78.7-.77,3.25s10.02,2.18,10.02,2.18c0,0,3.33-1.04,2.38,1.69s-2.01,3.97-4,5.84c-1.99,1.87-4.79,1.95-10.85,1.71Z"/><ellipse class="cls-17" cx="637.89" cy="147.88" rx="88.19" ry="51.73"/><ellipse class="cls-17" cx="617.53" cy="96.05" rx="17.8" ry="17.28"/><ellipse class="cls-17" cx="656" cy="96.05" rx="17.8" ry="17.28"/><ellipse class="cls-17" cx="656.1" cy="96.15" rx="8.9" ry="8.64"/><ellipse class="cls-17" cx="617.63" cy="96.15" rx="8.9" ry="8.64"/><ellipse class="cls-17" cx="656" cy="96.05" rx="4.5" ry="4.37"/><ellipse class="cls-17" cx="617.53" cy="96.05" rx="4.5" ry="4.37"/><path class="cls-17" d="m626.53,122.79s6.92,13.23,16.15,0c0,0-8.37-2.85-16.15,0Z"/><path class="cls-4" d="m575.27,170.79l4.57,8.46s-15.58,15.69-15.88,28.76c-.3,13.07-9.39,4.42-9.39,4.42,0,0-3.86-14.11,20.7-41.64Z"/><path class="cls-4" d="m577.56,127.82s-15.41-2.77-23.25-18.01c-7.85-15.25-16.72-4.07-8.76,4.37,7.96,8.44,15.77,19.13,30.07,25.72,14.3,6.58,1.94-12.07,1.94-12.07Z"/><path class="cls-4" d="m581.61,177.92l5.8,7.73s-13.05,17.71-11.38,30.68c1.67,12.97-8.63,5.69-8.63,5.69,0,0-5.94-13.41,14.21-44.11Z"/><path class="cls-4" d="m571.07,157.5l2.81,9.15s-18.4,12.52-21.29,25.28c-2.89,12.77-10.09,2.6-10.09,2.6,0,0-.99-14.56,28.57-37.04Z"/><path class="cls-4" d="m562.66,146.09l2.81,9.15s-18.4,12.52-21.29,25.28-10.09,2.6-10.09,2.6c0,0-.99-14.56,28.57-37.04Z"/><path class="cls-4" d="m695.23,172.71l-4.57,8.46s15.58,15.69,15.88,28.76c.3,13.07,9.39,4.42,9.39,4.42,0,0,3.86-14.11-20.7-41.64Z"/><path class="cls-4" d="m688.88,179.84l-5.8,7.73s13.05,17.71,11.38,30.68c-1.67,12.97,8.63,5.69,8.63,5.69,0,0,5.94-13.41-14.21-44.11Z"/><path class="cls-4" d="m699.43,159.42l-2.81,9.15s18.4,12.52,21.29,25.28c2.89,12.77,10.09,2.6,10.09,2.6,0,0,.99-14.56-28.57-37.04Z"/><path class="cls-4" d="m707.84,148.01l-2.81,9.15s18.4,12.52,21.29,25.28c2.89,12.77,10.09,2.6,10.09,2.6,0,0,.99-14.56-28.57-37.04Z"/><path class="cls-4" d="m695.7,127.88s15.41-2.77,23.25-18.01c7.85-15.25,16.72-4.07,8.76,4.37-7.96,8.44-15.77,19.13-30.07,25.72s-1.94-12.07-1.94-12.07Z"/><path class="cls-4" d="m750.61,111.48s-26.43,13.79-30.13,6.13c-3.7-7.66-11.2-24.61,13.66-36.49,24.86-11.87,35.97,3.76,35.97,3.76l1.83,3.38s4.1,6.13-18.18,8.94c0,0-2.72.68-.76,3.16,1.96,2.48,9.81,2.12,9.81,2.12,0,0,3.26-1.01,2.33,1.64s-1.97,3.87-3.92,5.69c-1.95,1.82-4.69,1.9-10.61,1.66Z"/><ellipse class="cls-4" cx="636.81" cy="147.94" rx="86.3" ry="50.4"/><ellipse class="cls-4" cx="616.89" cy="97.44" rx="17.42" ry="16.83"/><ellipse class="cls-4" cx="654.53" cy="97.44" rx="17.42" ry="16.83"/><ellipse class="cls-9" cx="654.63" cy="97.54" rx="8.71" ry="8.42"/><ellipse class="cls-9" cx="616.99" cy="97.54" rx="8.71" ry="8.42"/><ellipse class="cls-27" cx="654.53" cy="97.44" rx="4.4" ry="4.26"/><ellipse class="cls-27" cx="616.89" cy="97.44" rx="4.4" ry="4.26"/><path class="cls-27" d="m625.7,123.49s6.77,12.89,15.8,0c0,0-8.19-2.78-15.8,0Z"/><path class="cls-4" d="m522.65,111.42s26.43,13.79,30.13,6.13c3.7-7.66,11.2-24.61-13.66-36.49-24.86-11.87-35.97,3.76-35.97,3.76l-1.83,3.38s-4.1,6.13,18.18,8.94c0,0,2.72.68.76,3.16s-9.81,2.12-9.81,2.12c0,0-3.26-1.01-2.33,1.64s1.97,3.87,3.92,5.69,4.69,1.9,10.61,1.66Z"/><path class="cls-25" d="m554.07,164.17s17.67,35.42,82.46,35.49c64.79.07,86.3-38.92,86.3-38.92l2.87-9.07s-96.55,26.11-174.99,2.88l3.37,9.62Z"/><path class="cls-5" d="m879.55,138.34l-.68,7.73h-25.58l-.68-7.73h26.95Zm-1.09,12.97l-.72,7.93h-23.32l-.62-7.93h24.65Z"/><path class="cls-5" d="m922.64,151.81l-1.54,10.17h-17.44l-1.68-10.17h20.65Z"/><path class="cls-5" d="m952.49,122.38c-.16,4.53-.4,12.59-.72,24.17-.11,5.78-.23,14.86-.34,27.23h-15.22c.05-6.87-.02-13.25-.21-19.17-.05-1.73-.16-6.42-.34-14.07-.39.07-1.23.24-2.53.53-.68.16-1.49.41-2.43.77l-3.25-11.2c2.58-1.07,7.14-3.08,13.68-6.03,2.03-.96,4.71-2.31,8.04-4.07l3.32,1.83Z"/><path class="cls-5" d="m1006.83,163.61c-.23.89-.65,2.57-1.27,5.03-.32,1.44-.59,3.13-.82,5.07h-30.95c-.11-5.22-.4-13.82-.86-25.8-.3-6.13-.83-14.6-1.61-25.4h23.73l-1.95,42.47c2.21,0,5.53-.23,9.95-.7.91-.09,2.17-.31,3.76-.67Z"/><path class="cls-5" d="m1032.17,122.51l-1.33,27.23c-.25,5.87-.55,13.86-.89,23.97h-19.18l-2.33-51.2h23.73Z"/><path class="cls-5" d="m1079.01,122.51c-1.89,5.47-4.92,14.39-9.1,26.77-1.91,5.82-4.39,13.97-7.42,24.43h-11.9c-1.53-5.07-4.08-13.34-7.66-24.83-2.03-6.36-5.04-15.14-9.03-26.37h24.18c.23,2.11.76,5.54,1.61,10.3.57,2.53,1.46,6.02,2.67,10.47.64-2.16,1.57-5.67,2.8-10.53.57-2.62,1.22-6.03,1.95-10.23h11.9Z"/><path class="cls-18" d="m855.13,914.2v51.04s-159.32-.03-159.32-.03c0,0-15.25,4.25-15.74-25.49-.49-29.74,15.76-25.52,15.76-25.52h159.3Z"/><path class="cls-18" d="m1041.93,911.69v45.33l159.32-.02s15.25,3.77,15.74-22.64c.49-26.41-15.76-22.67-15.76-22.67h-159.3Z"/><path class="cls-18" d="m846.34,894.34v65.61l202.92-.04s19.43,5.46,20.05-32.77c.62-38.23-20.08-32.8-20.08-32.8h-202.9Z"/><ellipse class="cls-18" cx="916.86" cy="957.18" rx="15.79" ry="8.44"/><ellipse class="cls-18" cx="1006.23" cy="956.99" rx="15.79" ry="8.44"/><path class="cls-12" d="m1041.79,917.07v45.33l159.32-.02s15.25,3.77,15.74-22.64c.49-26.41-15.76-22.67-15.76-22.67h-159.3Z"/><path class="cls-12" d="m846.2,899.72v65.61l202.92-.04s19.43,5.46,20.05-32.77-20.08-32.8-20.08-32.8h-202.9Z"/><ellipse class="cls-18" cx="916.73" cy="962.56" rx="15.79" ry="8.44"/><ellipse class="cls-18" cx="1006.09" cy="962.36" rx="15.79" ry="8.44"/><ellipse class="cls-18" cx="849.02" cy="908.45" rx="46.97" ry="61.81"/><ellipse class="cls-18" cx="846.52" cy="903.81" rx="46.97" ry="61.81"/><path class="cls-18" d="m804.63,866.88h21.4s-.18,12.52-10.7,12.85-10.7-12.85-10.7-12.85Z"/><ellipse class="cls-18" cx="833.63" cy="866.91" rx="10.14" ry="12.85"/><path class="cls-18" d="m822.89,867.02h21.4s-.18,12.52-10.7,12.85c-10.52.33-10.7-12.85-10.7-12.85Z"/><ellipse class="cls-18" cx="812.95" cy="872.96" rx="2.56" ry="3.3"/><ellipse class="cls-18" cx="831.05" cy="873.08" rx="2.56" ry="3.3"/><ellipse class="cls-12" cx="846.38" cy="909.19" rx="46.97" ry="61.81"/><ellipse class="cls-18" cx="707.38" cy="916.77" rx="10.14" ry="12.85"/><ellipse class="cls-18" cx="707.23" cy="916.96" rx="5.6" ry="7.46"/><path class="cls-12" d="m854.99,919.57v51.04s-159.32-.03-159.32-.03c0,0-15.25,4.25-15.74-25.49s15.76-25.52,15.76-25.52h159.3Z"/><ellipse class="cls-12" cx="707.24" cy="922.15" rx="10.14" ry="12.85"/><ellipse class="cls-18" cx="707.09" cy="922.34" rx="5.6" ry="7.46"/><path class="cls-27" d="m680.09,947.69s60.93,35.7,142.17,0c0,0-73.71-7.69-142.17,0Z"/><polygon class="cls-10" points="712.73 947.17 720.55 963.55 728.69 947.17 712.73 947.17"/><polygon class="cls-10" points="731.96 947.17 739.77 963.55 747.91 947.17 731.96 947.17"/><polygon class="cls-10" points="751.9 947.17 759.72 963.55 767.86 947.17 751.9 947.17"/><polygon class="cls-10" points="772.21 947.17 780.03 963.55 788.17 947.17 772.21 947.17"/><polygon class="cls-10" points="694.9 946.92 702.72 963.31 710.86 946.92 694.9 946.92"/><ellipse class="cls-18" cx="834.85" cy="869.74" rx="10.14" ry="12.85"/><ellipse class="cls-18" cx="815.11" cy="870.71" rx="10.88" ry="13.65"/><ellipse class="cls-12" cx="814.51" cy="872.15" rx="10.14" ry="12.85"/><path class="cls-19" d="m804.49,871.95h21.4s-.18,12.52-10.7,12.85-10.7-12.85-10.7-12.85Z"/><ellipse class="cls-6" cx="813.18" cy="876.35" rx="2.56" ry="3.3"/><ellipse class="cls-12" cx="834.22" cy="872.29" rx="10.14" ry="12.85"/><path class="cls-19" d="m822.76,871.95h21.4s-.18,12.52-10.7,12.85-10.7-12.85-10.7-12.85Z"/><ellipse class="cls-6" cx="832.37" cy="877.47" rx="2.56" ry="3.3"/><path class="cls-5" d="m1110.23,868.67l-.68,7.73h-25.58l-.68-7.73h26.95Zm-1.09,12.97l-.72,7.93h-23.32l-.62-7.93h24.65Z"/><path class="cls-5" d="m1153.6,852.83l-1.33,27.23c-.25,5.87-.55,13.86-.89,23.97h-19.18l-2.33-51.2h23.73Z"/><path class="cls-5" d="m1214.46,852.83c-1.89,5.47-4.92,14.39-9.1,26.77-1.91,5.82-4.39,13.97-7.42,24.43h-11.9c-1.53-5.07-4.08-13.34-7.66-24.83-2.03-6.36-5.04-15.14-9.03-26.37h24.18c.23,2.11.76,5.54,1.61,10.3.57,2.53,1.46,6.02,2.67,10.47.64-2.16,1.57-5.67,2.8-10.53.57-2.62,1.22-6.03,1.95-10.23h11.9Z"/><path class="cls-5" d="m1252.15,852.83l-1.47,21.1c-.84-.13-2.67-.37-5.47-.7-1.91-.18-4.01-.29-6.29-.33l-.51,6.37c2.51.07,6.6.01,12.28-.17-.25.82-.65,2.36-1.2,4.6-.32,1.36-.61,2.92-.86,4.7-.66-.16-2.31-.36-4.96-.6-1.23-.07-3.05-.09-5.47-.07l-.34,7.43c1.71-.02,4.86-.17,9.44-.43.87-.07,2.29-.33,4.28-.8-.18.69-.61,2.34-1.27,4.97-.32,1.36-.71,3.07-1.16,5.13h-30.6l-.99-26.13c-.18-5.98-.63-14.33-1.33-25.07h35.94Z"/><path class="cls-5" d="m1283.95,852.83c-.27,4.2-.65,11.73-1.13,22.6-.32,9.13-.39,17.19-.21,24.17-4.99,3.69-10.51,5.53-16.55,5.53-3.28,0-6.8-.37-10.57-1.1-.09-.91-.3-2.52-.62-4.83-.21-1.24-.49-2.96-.86-5.13.71.31,2.51.79,5.4,1.43,1.53.25,2.95.27,4.27.07-.02-2.22-.38-8.93-1.06-20.13-.43-6.22-1.2-13.75-2.29-22.6h23.6Z"/><path class="cls-5" d="m1322.69,852.83l-1.47,21.1c-.84-.13-2.67-.37-5.47-.7-1.92-.18-4.01-.29-6.29-.33l-.51,6.37c2.51.07,6.6.01,12.28-.17-.25.82-.65,2.36-1.2,4.6-.32,1.36-.6,2.92-.86,4.7-.66-.16-2.31-.36-4.96-.6-1.23-.07-3.06-.09-5.47-.07l-.34,7.43c1.71-.02,4.86-.17,9.44-.43.87-.07,2.29-.33,4.27-.8-.18.69-.6,2.34-1.27,4.97-.32,1.36-.71,3.07-1.16,5.13h-30.61l-.99-26.13c-.18-5.98-.63-14.33-1.33-25.07h35.94Z"/><path class="cls-5" d="m1367.66,852.83c-.32,4.49-.76,12.32-1.33,23.5-.34,8.22-.63,17.68-.85,28.37-2.99-2.29-7.54-5.7-13.64-10.23-2.64-1.8-6.59-4.5-11.83-8.1l-.34,17.67h-11.01c-.18-4.51-.6-13.02-1.26-25.53-.57-10.13-1.15-18.69-1.74-25.67h17.17l12.72,11.73c0-2.69-.05-4.8-.14-6.33-.07-1.35-.21-3.15-.41-5.4h12.69Z"/></svg>