<?xml version="1.0" encoding="UTF-8"?><svg id="Layer_2" xmlns="http://www.w3.org/2000/svg" width="1920" height="1080" viewBox="0 0 1920 1080"><defs><style>.cls-1{fill:#de9562;}.cls-1,.cls-2,.cls-3,.cls-4{stroke-width:0px;}.cls-2{fill:#606060;}.cls-3{fill:gray;}.cls-4{fill:#404040;}</style></defs><path class="cls-2" d="m273.16,960.63l343.4-9.74s30.72,9.74,42.76,0l12.04-9.74s21.92-1.08,21.92-11.91-20.09-32.47-20.09-32.47c0,0,5.48,2.26,20.09-27.01,14.61-29.27-83.78-54.17-83.78-54.17,0,0-44.09-44.38-45.91-71.44-1.83-27.06-56.63-35.72-56.63-35.72l-73.06,14.07s-37.53-7.58-63.52-14.07c-25.99-6.49-99.05,30.7-97.23,57.02,1.83,26.32-58.45,94.52-58.45,94.52,0,0,31.05,101.75,58.45,100.67Z"/><path class="cls-1" d="m624.35,887.3l-294.45,36.55s-28.06-1.94-36.86,3.96l-8.8,5.9s-18.72,2.56-16.96,7.87c1.76,5.32,22.59,14.09,22.59,14.09,0,0-5.09-.6-12.93,15.12-7.84,15.73,81.02,18.85,81.02,18.85,0,0,45.21,17.72,51.18,30.84,5.97,13.12,54.61,12.3,54.61,12.3l60.7-13.67s33.58.25,57.04,1.04c23.46.79,80.4-24.24,74.55-37-5.85-12.76,35.04-51.82,35.04-51.82,0,0-43.29-47.1-66.74-44.03Z"/><path class="cls-3" d="m273.22,970.62l343.4-9.74s30.72,9.74,42.76,0l12.04-9.74s21.92-1.08,21.92-11.91-20.09-32.47-20.09-32.47c0,0,5.48,2.26,20.09-27.01,14.61-29.27-83.78-54.17-83.78-54.17,0,0-44.09-44.38-45.91-71.44-1.83-27.06-56.63-35.72-56.63-35.72l-73.06,14.07s-37.53-7.58-63.52-14.07c-25.99-6.49-99.05,30.7-97.23,57.02s-58.45,94.52-58.45,94.52c0,0,31.05,101.75,58.45,100.67Z"/><path class="cls-1" d="m175.18,435.73c25.69-9.12,315.99,1.34,325.53,8.77s-14.6,22.76-43.8,25.91c-29.2,3.15,8.59,18.92,8.59,18.92l-20.61,27.85s-4.84,4.2-31.62,0c-26.78-4.2-46.85,4.47-46.85,4.47,0,0-105.33,1.84-96.75-7.62s-35.38-1.05-42.6-5.52c-7.22-4.47-62.19-36.38-51.88-40.13,10.31-3.75-25.69-23.53,0-32.65Z"/><path class="cls-2" d="m174.95,469.88c25.68,18.67,315.92-2.73,325.46-17.94,9.54-15.2-14.6-46.58-43.79-53.03-29.2-6.45,8.59-38.71,8.59-38.71l-20.61-56.99s-4.84-8.6-31.62,0c-26.78,8.6-46.84-9.14-46.84-9.14,0,0-105.31-3.76-96.72,15.59,8.59,19.35-35.37,2.15-42.59,11.29-7.22,9.14-62.18,74.43-51.87,82.11,10.3,7.67-25.68,48.14,0,66.81Z"/><path class="cls-3" d="m164.99,469.91c25.68,18.67,315.92-2.73,325.46-17.94,9.54-15.2-14.6-46.58-43.79-53.03s8.59-38.71,8.59-38.71l-20.61-56.99s-4.84-8.6-31.62,0c-26.78,8.6-46.84-9.14-46.84-9.14,0,0-105.31-3.76-96.72,15.59s-35.37,2.15-42.59,11.29c-7.22,9.14-62.18,74.43-51.87,82.11,10.3,7.67-25.68,48.14,0,66.81Z"/><path class="cls-1" d="m1316.01,814.73h258.1s77.91,42.88-37.49,138.73c-115.39,95.85-190.06,40.36-190.06,40.36,0,0-175.87-45.4-130.36-71.89,45.51-26.48-39.34-107.2,99.81-107.2Z"/><path class="cls-2" d="m1283.9,914.17h286.97s86.62-59.11-41.68-191.23-211.32-55.63-211.32-55.63c0,0-195.54,62.58-144.94,99.09,50.6,36.51-43.74,147.77,110.98,147.77Z"/><path class="cls-3" d="m1281.69,924.12h286.97s86.62-59.11-41.68-191.23-211.32-55.63-211.32-55.63c0,0-195.54,62.58-144.94,99.09,50.6,36.51-43.74,147.77,110.98,147.77Z"/><path class="cls-4" d="m983.78,524.78l69.67,12.67,36.08-12.67v-57.33s-18.66-19.96-22.14-37.69c-3.48-17.74-19.16-12.04-19.16-12.04l-.92-9.87s1.5-11.66-18.82-8.5-28.69-.55-28.69-.55c0,0-28.05,32.37-26.39,50.03,1.66,17.66-.07,76.21-.07,76.21,0,0-9.3,3.54,10.44-.26Z"/><path class="cls-2" d="m991.99,523.16v-54.74l26.68-31.18s3.88-25.41-16.98-51.74c-20.86-26.33-205.36,0-205.36,0l-9.02,10.63s-13.1.92-15.04,6.93,1.94,56.82-20.86,70.22c-22.8,13.4,20.37,54.05,20.37,54.05,0,0,117.37,5.54,220.19-4.16Z"/><path class="cls-2" d="m1003.6,528.58s18,10.14,28.45,4.43l10.45-5.7s-1.74-18.26,0-27.5c1.74-9.24-16.15-15.06-16.5-36.86s-79.65,0-79.65,0l-11.85,1.01s6.76,24.62,18.18,30.05c11.43,5.43-8.31,26.33-8.31,26.33l8.31,14.41,50.91-6.17Z"/><path class="cls-1" d="m986.63,476.59l67.8-8.41,35.11,8.41v38.05s-18.16,13.24-21.55,25.01c-3.39,11.77-18.64,7.99-18.64,7.99l-.9,6.55s1.46,7.74-18.31,5.64c-19.77-2.1-27.92.36-27.92.36,0,0-27.3-21.48-25.68-33.2,1.62-11.72-.07-50.57-.07-50.57,0,0-9.05-2.35,10.16.17Z"/><path class="cls-1" d="m994.62,477.67v36.33l25.96,20.69s3.78,16.86-16.52,34.34c-20.29,17.47-199.82,0-199.82,0l-8.77-7.05s-12.74-.61-14.63-4.6c-1.89-3.99,1.89-37.71-20.29-46.6-22.18-8.89,19.82-35.87,19.82-35.87,0,0,114.21-3.68,214.26,2.76Z"/><path class="cls-1" d="m1005.92,474.07s17.51-6.73,27.68-2.94l10.17,3.78s-1.69,12.12,0,18.25-15.72,9.99-16.05,24.46c-.33,14.47-77.5,0-77.5,0l-11.53-.67s6.57-16.34,17.69-19.94c11.12-3.6-8.09-17.48-8.09-17.48l8.09-9.56,49.54,4.1Z"/><path class="cls-3" d="m984.07,533.4l69.67,12.67,36.08-12.67v-57.33s-18.66-19.96-22.14-37.69c-3.48-17.74-19.16-12.04-19.16-12.04l-.92-9.87s1.5-11.66-18.82-8.5c-20.32,3.17-28.69-.55-28.69-.55,0,0-28.05,32.37-26.39,50.03s-.07,76.21-.07,76.21c0,0-9.3,3.54,10.44-.26Z"/><path class="cls-3" d="m992.28,531.78v-54.74l26.68-31.18s3.88-25.41-16.98-51.74c-20.86-26.33-205.36,0-205.36,0l-9.02,10.63s-13.1.92-15.04,6.93c-1.94,6.01,1.94,56.82-20.86,70.22-22.8,13.4,20.37,54.05,20.37,54.05,0,0,117.37,5.54,220.19-4.16Z"/><path class="cls-3" d="m1003.89,537.2s18,10.14,28.45,4.43l10.45-5.7s-1.74-18.26,0-27.5-16.15-15.06-16.5-36.86c-.34-21.8-79.65,0-79.65,0l-11.85,1.01s6.76,24.62,18.18,30.05-8.31,26.33-8.31,26.33l8.31,14.41,50.91-6.17Z"/><path class="cls-2" d="m1488.61,454.05s97.31-22.23,107.22,0c9.91,22.23,76.62-28.4,94.41-27.17s88.89-.02,88.89-.02c0,0,16.24-32.98,0-76.38-16.24-43.39-1.42-7.58-42.93-55.74,0,0-114.16-24.14-151.23,17.57-37.06,41.71-75.61,40.47-75.61,40.47,0,0-45.96,106.21-20.76,101.27Z"/><path class="cls-2" d="m1704.42,460.11s30.66-22.52,80.49-16.68c49.83,5.84,12.46-30.86,12.46-30.86,0,0-14.37-45.03-48.87-34.19-34.5,10.84-24.44,17.85-24.44,17.85,0,0-37.33,2.98-50.53,22.17-13.2,19.19-26.61,18.36-26.61,25.03s57.49,16.68,57.49,16.68Z"/><path class="cls-1" d="m1468.03,428.81s96.98,9.36,106.86,0c9.87-9.36,76.36,11.96,94.1,11.44,17.73-.52,88.59,0,88.59,0,0,0,16.19,13.88,0,32.15-16.19,18.26-1.41,3.19-42.78,23.46,0,0-113.77,10.16-150.71-7.4-36.94-17.55-75.36-17.04-75.36-17.04,0,0-45.81-44.7-20.69-42.62Z"/><path class="cls-1" d="m1683.11,426.26s30.56,9.48,80.22,7.02c49.66-2.46,12.42,12.99,12.42,12.99,0,0-14.33,18.96-48.71,14.39-34.38-4.56-24.35-7.52-24.35-7.52,0,0-37.2-1.25-50.36-9.33-13.15-8.08-26.52-7.73-26.52-10.53s57.3-7.02,57.3-7.02Z"/><path class="cls-3" d="m1466.5,456.45s97.31-22.23,107.22,0c9.91,22.23,76.62-28.4,94.41-27.17,17.79,1.23,88.89-.02,88.89-.02,0,0,16.24-32.98,0-76.38-16.24-43.39-1.42-7.58-42.93-55.74,0,0-114.16-24.14-151.23,17.57-37.06,41.71-75.61,40.47-75.61,40.47,0,0-45.96,106.21-20.76,101.27Z"/><path class="cls-3" d="m1682.31,462.51s30.66-22.52,80.49-16.68,12.46-30.86,12.46-30.86c0,0-14.37-45.03-48.87-34.19s-24.44,17.85-24.44,17.85c0,0-37.33,2.98-50.53,22.17-13.2,19.19-26.61,18.36-26.61,25.03s57.49,16.68,57.49,16.68Z"/></svg>