<?xml version="1.0" encoding="UTF-8"?><svg id="Layer_1" xmlns="http://www.w3.org/2000/svg" width="1000" height="300" viewBox="0 0 1000 300"><defs><style>.cls-1{fill:#606060;}.cls-1,.cls-2,.cls-3{stroke-width:0px;}.cls-2{fill:#ebffd4;}.cls-3{fill:#817d7d;}</style></defs><path class="cls-1" d="m917.7,30.5v90.71l98.74,51.67s14.36,42.1-62.83,85.73c-77.2,43.63-760.13,0-760.13,0l-33.38-17.61s-48.47-1.53-55.65-11.48,7.18-94.15-77.2-116.35C-57.12,90.98,102.65,23.62,102.65,23.62c0,0,434.45-9.19,815.05,6.89Z"/><path class="cls-3" d="m883,45.4v81.88l93.77,46.64s13.64,38-59.67,77.39c-73.31,39.38-721.88,0-721.88,0l-31.7-15.89s-46.03-1.38-52.85-10.36c-6.82-8.98,6.82-84.99-73.31-105.02C-42.78,99.98,108.96,39.18,108.96,39.18c0,0,412.59-8.29,774.04,6.22Z"/><path class="cls-2" d="m294.64,115.12c-.53,7.58-1.27,20.81-2.22,39.7-.57,13.89-1.05,29.86-1.42,47.92-4.98-3.87-12.56-9.63-22.75-17.29-4.41-3.04-10.99-7.6-19.73-13.68l-.57,29.84h-18.36c-.3-7.62-1.01-22-2.11-43.13-.95-17.12-1.92-31.57-2.91-43.36h28.62l21.21,19.82c0-4.54-.08-8.11-.23-10.7-.11-2.29-.34-5.33-.68-9.12h21.15Z"/><path class="cls-2" d="m359.24,115.12l-2.45,35.64c-1.41-.23-4.45-.62-9.12-1.18-3.19-.3-6.69-.49-10.49-.56l-.86,10.75c4.18.11,11,.02,20.47-.28-.42,1.39-1.08,3.98-2,7.77-.53,2.29-1.01,4.94-1.43,7.94-1.1-.26-3.86-.6-8.27-1.01-2.05-.11-5.09-.15-9.12-.11l-.57,12.56c2.85-.04,8.1-.28,15.74-.73,1.44-.11,3.82-.56,7.13-1.35-.3,1.16-1.01,3.96-2.11,8.39-.53,2.29-1.18,5.18-1.94,8.67h-51.03l-1.65-44.14c-.3-10.1-1.05-24.21-2.22-42.34h59.92Z"/><path class="cls-2" d="m446.93,115.12c-1.52,2.85-5.38,9.74-11.57,20.66-3.54,6.04-8.82,14.68-15.85,25.9l20.75,39.92h-26.51l-10.83-17.62c-4.71,7.13-8.46,13.01-11.23,17.62h-23.32c2.01-3,6.44-10.08,13.29-21.23,2.66-4.5,5.66-9.65,9.01-15.43-2.51-4.05-6.56-10.87-12.14-20.44-6.08-10.77-11.46-20.57-16.14-29.39h39.23c.49,1.58,1.56,4.65,3.19,9.23.99,2.63,2.22,5.46,3.71,8.5.95-1.61,2.47-4.37,4.56-8.28,1.22-2.44,2.62-5.59,4.22-9.46h29.65Z"/><path class="cls-2" d="m519.46,115.12l-1.65,35.42c-1.48-.23-3.86-.51-7.13-.84-2.02-.11-5.28-.22-9.81-.34-.23,2.22-.63,7.56-1.2,16.05-.42,8.22-1.1,20.29-2.05,36.2h-27.6c-.3-7.58-.88-19.5-1.71-35.75-.38-5.63-.78-11.13-1.2-16.5l-9.01.34-8.15.84-1.43-35.42h70.93Z"/><path class="cls-2" d="m605.38,184.54c-.38,1.5-1.08,4.34-2.11,8.5-.53,2.44-.99,5.29-1.37,8.56h-51.6c-.19-8.82-.67-23.35-1.42-43.58-.49-10.36-1.39-24.66-2.68-42.9h39.57l-3.25,71.73c3.69,0,9.22-.39,16.59-1.18,1.52-.15,3.61-.53,6.27-1.13Z"/><path class="cls-2" d="m667.99,115.12l-2.45,35.64c-1.41-.23-4.45-.62-9.12-1.18-3.19-.3-6.69-.49-10.49-.56l-.86,10.75c4.18.11,11,.02,20.47-.28-.42,1.39-1.08,3.98-2,7.77-.53,2.29-1.01,4.94-1.43,7.94-1.1-.26-3.86-.6-8.27-1.01-2.05-.11-5.09-.15-9.12-.11l-.57,12.56c2.85-.04,8.1-.28,15.74-.73,1.44-.11,3.82-.56,7.13-1.35-.3,1.16-1.01,3.96-2.11,8.39-.53,2.29-1.18,5.18-1.94,8.67h-51.03l-1.65-44.14c-.3-10.1-1.05-24.21-2.22-42.34h59.92Z"/><path class="cls-2" d="m746.33,115.12c-3.16,9.23-8.21,24.31-15.17,45.21-3.19,9.83-7.32,23.59-12.37,41.27h-19.84c-2.55-8.56-6.8-22.54-12.77-41.95-3.38-10.74-8.4-25.58-15.05-44.54h40.31c.38,3.57,1.27,9.37,2.68,17.4.95,4.28,2.43,10.17,4.45,17.68,1.06-3.64,2.62-9.57,4.67-17.79.95-4.43,2.03-10.19,3.25-17.29h19.84Z"/><path class="cls-2" d="m809.16,115.12l-2.45,35.64c-1.41-.23-4.45-.62-9.12-1.18-3.19-.3-6.69-.49-10.49-.56l-.86,10.75c4.18.11,11,.02,20.47-.28-.42,1.39-1.08,3.98-2,7.77-.53,2.29-1.01,4.94-1.43,7.94-1.1-.26-3.86-.6-8.27-1.01-2.05-.11-5.09-.15-9.12-.11l-.57,12.56c2.85-.04,8.1-.28,15.74-.73,1.44-.11,3.82-.56,7.13-1.35-.3,1.16-1.01,3.96-2.11,8.39-.53,2.29-1.18,5.18-1.94,8.67h-51.03l-1.65-44.14c-.3-10.1-1.05-24.21-2.22-42.34h59.92Z"/><path class="cls-2" d="m873.24,184.54c-.38,1.5-1.08,4.34-2.11,8.5-.53,2.44-.99,5.29-1.37,8.56h-51.6c-.19-8.82-.67-23.35-1.42-43.58-.49-10.36-1.39-24.66-2.68-42.9h39.57l-3.25,71.73c3.69,0,9.22-.39,16.59-1.18,1.52-.15,3.61-.53,6.27-1.13Z"/></svg>