<?xml version="1.0" encoding="UTF-8"?><svg id="Layer_1" xmlns="http://www.w3.org/2000/svg" width="1920" height="1080" viewBox="0 0 1920 1080"><defs><style>.cls-1{fill:#de9562;}.cls-1,.cls-2,.cls-3,.cls-4,.cls-5,.cls-6,.cls-7,.cls-8,.cls-9,.cls-10,.cls-11,.cls-12,.cls-13,.cls-14,.cls-15,.cls-16{stroke-width:0px;}.cls-2{fill:#415245;}.cls-3{fill:#606060;}.cls-4{fill:#ebffd4;}.cls-5{fill:#b25975;}.cls-6{fill:#576d5c;}.cls-7{fill:gray;}.cls-8{fill:#b0cfe3;}.cls-9{fill:#f3b46f;}.cls-10{fill:#ff98b9;}.cls-11{fill:#a0a0a0;}.cls-12{fill:#59483a;}.cls-13{fill:#915932;}.cls-14{fill:#dfecf4;}.cls-15{fill:#404040;}.cls-16{fill:#f5c38c;}</style></defs><rect class="cls-8" x="7.93" width="1920" height="230.51"/><path class="cls-13" d="m1096.13,283.82l529.3-26.3s-23.74-68.29-71.22-77.74c-47.48-9.46,13.97-56.75,13.97-56.75l-33.52-83.55s-7.87-12.61-51.42,0c-43.55,12.61-76.18-13.4-76.18-13.4,0,0-171.27-5.52-157.3,22.86,13.97,28.37-57.52,3.15-69.26,16.55-11.74,13.4-101.12,109.13-84.36,120.38,16.76,11.25,0,97.95,0,97.95Z"/><path class="cls-1" d="m1095.98,276.71l511.45-23.36s-22.94-60.66-68.82-69.06c-45.88-8.4,13.49-50.41,13.49-50.41l-32.39-74.22s-7.61-11.2-49.68,0c-42.08,11.2-73.61-11.9-73.61-11.9,0,0-165.49-4.9-152,20.31,13.49,25.21-55.58,2.8-66.93,14.7-11.34,11.9-97.71,96.95-81.52,106.94,16.19,9.99,0,87.02,0,87.02Z"/><rect class="cls-9" x="7.93" y="219.34" width="1920" height="877.35"/><path class="cls-14" d="m5.43,47.22h599.91s64.91,32.59,0,60.47H5.43s-35-37.11,0-60.47Z"/><path class="cls-14" d="m673.39,97.67h426.53s46.15,20.97,0,38.91h-426.53s-24.88-23.88,0-38.91Z"/><path class="cls-14" d="m1595.62,47.43h426.53s46.15,20.97,0,38.91h-426.53s-24.88-23.88,0-38.91Z"/><path class="cls-1" d="m-45.34,1037.58s67.2-111.84,414.13-68.5,460.13,0,460.13,0c0,0,289.49-116.59,382.22-23.12,92.74,93.47,519.82,30.28,519.82,30.28,0,0,294.34-118.55,429.32-52.24s-122.34,303.29-122.34,303.29c0,0-526.22,73.79-719.17,33.82-192.95-39.96-717.47,29.02-717.47,29.02,0,0-394.48-3.91-478.34-51.8s-201.03-67.53-168.29-200.76Z"/><path class="cls-1" d="m30.87,566.68s16.89-14.91,104.11-9.13c87.22,5.78,115.68,0,115.68,0,0,0,72.78-15.54,96.09-3.08,23.31,12.46,130.68,4.04,130.68,4.04,0,0,74-15.8,107.93-6.96,33.93,8.84-30.76,40.42-30.76,40.42,0,0-132.29,9.83-180.8,4.51-48.51-5.33-180.37,3.87-180.37,3.87,0,0-99.17-.52-120.26-6.9-21.08-6.38-50.54-9-42.31-26.76Z"/><path class="cls-16" d="m1118.45,798.35s24.16-31.16,148.88-19.09c124.72,12.07,165.41,0,165.41,0,0,0,104.07-32.49,137.41-6.44,33.34,26.04,186.87,8.44,186.87,8.44,0,0,105.81-33.03,154.34-14.56,48.52,18.48-43.98,84.51-43.98,84.51,0,0-189.17,20.56-258.54,9.42-69.36-11.14-257.92,8.09-257.92,8.09,0,0-141.81-1.09-171.96-14.43s-72.27-18.82-60.5-55.94Z"/><path class="cls-1" d="m1617.84,536.21s16.89-24.04,104.11-14.72c87.22,9.31,115.68,0,115.68,0,0,0,72.78-25.06,96.09-4.97s130.68,6.51,130.68,6.51c0,0,74-25.48,107.93-11.23,33.93,14.25-30.76,65.18-30.76,65.18,0,0-132.29,15.86-180.8,7.27-48.51-8.59-180.37,6.24-180.37,6.24,0,0-99.17-.84-120.26-11.13-21.08-10.29-50.54-14.51-42.31-43.15Z"/><path class="cls-1" d="m344.98,791.82s31-4.79,32.46-10.55,25.16-1.43,30.46-3.45c5.3-2.02,26.92-8.74,26.92-8.74,0,0,7.2,5.5,5.28,16.43-1.92,10.93.1,1.77-9.15,16.21,0,0-32.9,16.42-47,11.1-14.1-5.32-25.69-1.27-25.69-1.27,0,0-21.26-18.32-13.28-19.74Z"/><path class="cls-7" d="m342.8,796.17s30.59-7.54,33.71,0c3.11,7.54,24.09-9.64,29.68-9.22s27.95,0,27.95,0c0,0,5.11-11.19,0-25.91s-.44-2.57-13.5-18.91c0,0-35.89-8.19-47.54,5.96-11.65,14.15-23.77,13.73-23.77,13.73,0,0-14.45,36.03-6.53,34.36Z"/><path class="cls-1" d="m122.95,484.71h56.81s17.15,8.52-8.25,27.56c-25.4,19.04-41.84,8.02-41.84,8.02,0,0-38.71-9.02-28.7-14.28,10.02-5.26-8.66-21.3,21.97-21.3Z"/><path class="cls-7" d="m119.22,497.47h56.81s17.15-12.48-8.25-40.37c-25.4-27.89-41.84-11.74-41.84-11.74,0,0-38.71,13.21-28.7,20.92,10.02,7.71-8.66,31.19,21.97,31.19Z"/><path class="cls-1" d="m1832.69,710.22s31-4.79,32.46-10.55c1.46-5.76,25.16-1.43,30.46-3.45,5.3-2.02,26.92-8.74,26.92-8.74,0,0,7.2,5.5,5.28,16.43-1.92,10.93.1,1.77-9.15,16.21,0,0-32.9,16.42-47,11.1-14.1-5.32-25.69-1.27-25.69-1.27,0,0-21.26-18.32-13.28-19.74Z"/><path class="cls-7" d="m1830.51,714.56s30.59-7.54,33.71,0c3.11,7.54,24.09-9.64,29.68-9.22,5.59.42,27.95,0,27.95,0,0,0,5.11-11.19,0-25.91-5.11-14.72-.44-2.57-13.5-18.91,0,0-35.89-8.19-47.54,5.96-11.65,14.15-23.77,13.73-23.77,13.73,0,0-14.45,36.03-6.53,34.36Z"/><path class="cls-1" d="m1643.31,412.52h56.81s17.15,8.52-8.25,27.56c-25.4,19.04-41.84,8.02-41.84,8.02,0,0-38.71-9.02-28.7-14.28s-8.66-21.3,21.97-21.3Z"/><path class="cls-7" d="m1639.57,425.28h56.81s17.15-12.48-8.25-40.37-41.84-11.74-41.84-11.74c0,0-38.71,13.21-28.7,20.92,10.02,7.71-8.66,31.19,21.97,31.19Z"/><path class="cls-1" d="m1069.2,311.8s12.1-7.39,74.57-4.53c62.47,2.87,82.86,0,82.86,0,0,0,52.13-7.71,68.83-1.53s93.61,2,93.61,2c0,0,53-7.84,77.31-3.45,24.31,4.38-22.03,20.05-22.03,20.05,0,0-94.76,4.88-129.5,2.24-34.74-2.64-129.2,1.92-129.2,1.92,0,0-71.04-.26-86.14-3.42-15.1-3.17-36.2-4.47-30.31-13.27Z"/><path class="cls-1" d="m-132.09,299.14s12.1-7.39,74.57-4.53c62.47,2.87,82.86,0,82.86,0,0,0,52.13-7.71,68.83-1.53,16.7,6.18,93.61,2,93.61,2,0,0,53-7.84,77.31-3.45s-22.03,20.05-22.03,20.05c0,0-94.76,4.88-129.5,2.24s-129.2,1.92-129.2,1.92c0,0-71.04-.26-86.14-3.42s-36.2-4.47-30.31-13.27Z"/><path class="cls-16" d="m1240.92,483.04s13.94-10.71,85.88-6.56c71.94,4.15,95.42,0,95.42,0,0,0,60.03-11.16,79.26-2.21,19.23,8.95,107.8,2.9,107.8,2.9,0,0,61.04-11.35,89.03-5,27.99,6.35-25.37,29.03-25.37,29.03,0,0-109.13,7.06-149.14,3.24-40.01-3.83-148.79,2.78-148.79,2.78,0,0-81.81-.37-99.2-4.96s-41.69-6.46-34.9-19.22Z"/><polygon class="cls-1" points="757.75 978.02 1037.74 837.7 708.23 743.54 1117.43 653.07 812.43 562.6 1048.43 407.88 753.68 223.07 955.43 403.82 577.81 599.7 828.43 643.47 561.43 726.74 774.83 871.53 584.43 988.73 785.12 1132.74 912.06 1132.74 757.75 978.02"/><path class="cls-16" d="m286.56,397.27s13.94-15.41,85.88-9.44c71.94,5.97,95.42,0,95.42,0,0,0,60.03-16.06,79.26-3.19,19.23,12.88,107.8,4.17,107.8,4.17,0,0,61.04-16.33,89.03-7.2,27.99,9.14-25.37,41.79-25.37,41.79,0,0-109.13,10.17-149.14,4.66-40.01-5.51-148.79,4-148.79,4,0,0-81.81-.54-99.2-7.14-17.39-6.6-41.69-9.31-34.9-27.66Z"/><path class="cls-12" d="m302.82,217.62s9.86-19.89,8.4-44.81c0,0-12.65-7.12-15.87-2.76-3.21,4.36-10.58,10.04-13.56,8.91s-7.93.89-7.93.89c0,0-9.66-2.52-2.5-4.55,7.17-2.03,11.75-1.14,11.75-1.14,0,0,10.5-5.53,10.2-9.11s-10.24-4.86-10.24-4.86c0,0-8.09-1.21-7.68-7.13s-6.68-7.81-6.68-7.81c0,0-2.33-5.97,4.89-3.5s7.68,9.85,7.68,9.85c0,0,1.29,4.4,8.58,5.55,7.29,1.15,9.33,5.76,9.33,5.76,0,0,8.92,3.8,5.37-1.92s-3.33-7.93-3.33-7.93c0,0-3.53-5.21-7.68-4.74s-6.4-7.74-6.4-7.74c0,0-.94-7.07,4.09-2.73s3.07,3.9,3.07,3.9c0,0,10.4,2.1,11.77,4.69s5.26,12.76,5.26,12.76c0,0,3.11,3.82,3.69,0s4.61-11.91,4.61-11.91c0,0,3.59-9.47,0-9.44s-.77-4.44-.77-4.44c0,0,5.88-5.61,8.19,0s0,13.03,0,13.03c0,0-1.68,12.28-5.63,15.81s2.56,2.8,2.56,2.8l9.72-9.86s3.19-15.66,7.17-13.44,2.05,5.54,2.05,5.54c0,0,.9,6.85-2.82,11.91s-9.72,10.2-9.72,10.2l-6.4,4.87s-10.39,45.81,2.56,43.35c0,0-26.55,11.86-23.76,0Z"/><ellipse class="cls-1" cx="1667.55" cy="957.83" rx="27.21" ry="13.45"/><path class="cls-6" d="m1663.7,955.18s-45.33-7.94-41.33-59.4c0,0,10.88,46.37,42.75,50.85l-1.42,8.55Z"/><path class="cls-6" d="m1662.39,959.44s-45.81,2.11-50.27-49.29c0,0,18.24,43.16,50.27,40.59v8.7Z"/><path class="cls-6" d="m1666.32,960.43s-41.98-21.34-26.54-69.81c0,0,.07,48.05,29.83,61.99l-3.29,7.82Z"/><path class="cls-6" d="m1670.97,959.51s45.31-8.08,41.19-59.52c0,0-10.77,46.4-42.63,50.98l1.44,8.54Z"/><path class="cls-6" d="m1663.77,959.92s43.21-17.74,30.86-67.39c0,0-3.09,47.91-33.65,59.31l2.79,8.08Z"/><path class="cls-6" d="m1652.43,959.21s43.21-17.74,30.86-67.39c0,0-3.09,47.91-33.65,59.31l2.79,8.08Z"/><path class="cls-6" d="m1651.79,958.09s39.33-27.28,18.76-73.12c0,0,5.14,47.68-22.87,65.84l4.11,7.28Z"/><path class="cls-6" d="m1675.77,958.08s-41.98-21.34-26.54-69.81c0,0,.07,48.05,29.83,61.99l-3.29,7.82Z"/><ellipse class="cls-6" cx="1662.08" cy="948.33" rx="19.15" ry="13.5"/><ellipse class="cls-1" cx="1206.86" cy="236.51" rx="13.68" ry="7.7"/><path class="cls-6" d="m1204.92,235s-22.8-4.55-20.78-34.02c0,0,5.47,26.56,21.5,29.12l-.71,4.89Z"/><path class="cls-6" d="m1204.26,237.43s-23.04,1.21-25.28-28.23c0,0,9.17,24.72,25.28,23.25v4.98Z"/><path class="cls-6" d="m1206.24,238s-21.11-12.22-13.35-39.98c0,0,.04,27.52,15,35.5l-1.66,4.48Z"/><path class="cls-6" d="m1208.58,237.47s22.79-4.63,20.71-34.09c0,0-5.42,26.58-21.44,29.2l.72,4.89Z"/><path class="cls-6" d="m1204.96,237.71s21.73-10.16,15.52-38.6c0,0-1.56,27.44-16.92,33.97l1.4,4.63Z"/><path class="cls-6" d="m1199.25,237.3s21.73-10.16,15.52-38.6c0,0-1.56,27.44-16.92,33.97l1.4,4.63Z"/><path class="cls-6" d="m1198.93,236.66s19.78-15.62,9.43-41.88c0,0,2.59,27.31-11.5,37.71l2.07,4.17Z"/><path class="cls-6" d="m1210.99,236.65s-21.11-12.22-13.35-39.98c0,0,.04,27.52,15,35.5l-1.66,4.48Z"/><ellipse class="cls-6" cx="1204.11" cy="231.07" rx="9.63" ry="7.73"/><ellipse class="cls-1" cx="836.94" cy="403.05" rx="18.41" ry="9.73"/><path class="cls-6" d="m834.33,401.13s-30.68-5.75-27.97-42.99c0,0,7.36,33.56,28.93,36.81l-.96,6.18Z"/><path class="cls-6" d="m833.45,404.21s-31,1.53-34.02-35.68c0,0,12.35,31.24,34.02,29.38v6.3Z"/><path class="cls-6" d="m836.11,404.92s-28.41-15.45-17.96-50.53c0,0,.05,34.78,20.19,44.87l-2.23,5.66Z"/><path class="cls-6" d="m839.26,404.26s30.67-5.85,27.88-43.08c0,0-7.29,33.59-28.85,36.9l.97,6.18Z"/><path class="cls-6" d="m834.39,404.56s29.24-12.84,20.89-48.78c0,0-2.09,34.68-22.78,42.93l1.89,5.85Z"/><path class="cls-6" d="m826.71,404.05s29.24-12.84,20.89-48.78c0,0-2.09,34.68-22.78,42.93l1.89,5.85Z"/><path class="cls-6" d="m826.28,403.23s26.62-19.74,12.69-52.92c0,0,3.48,34.51-15.48,47.65l2.78,5.27Z"/><path class="cls-6" d="m842.5,403.22s-28.41-15.45-17.96-50.53c0,0,.05,34.78,20.19,44.87l-2.23,5.66Z"/><ellipse class="cls-6" cx="833.24" cy="396.17" rx="12.96" ry="9.77"/><ellipse class="cls-1" cx="217.71" cy="227.74" rx="14.11" ry="21.36" transform="translate(-68 360.54) rotate(-71.22)"/><ellipse class="cls-1" cx="192.23" cy="699" rx="36.49" ry="15.53"/><path class="cls-6" d="m187.06,695.94s-60.81-9.17-55.44-68.59c0,0,14.59,53.55,57.34,58.72l-1.9,9.87Z"/><path class="cls-6" d="m185.3,700.85s-61.45,2.44-67.43-56.92c0,0,24.47,49.84,67.43,46.87v10.05Z"/><path class="cls-6" d="m190.58,702s-56.31-24.64-35.6-80.62c0,0,.1,55.49,40.02,71.59l-4.42,9.03Z"/><path class="cls-6" d="m196.82,700.93s60.78-9.33,55.25-68.74c0,0-14.45,53.58-57.18,58.88l1.93,9.86Z"/><path class="cls-6" d="m187.16,701.41s57.96-20.49,41.4-77.82c0,0-4.15,55.33-45.14,68.49l3.74,9.33Z"/><path class="cls-6" d="m171.94,700.6s57.96-20.49,41.4-77.82c0,0-4.15,55.33-45.14,68.49l3.74,9.33Z"/><path class="cls-6" d="m171.09,699.3s52.76-31.5,25.16-84.44c0,0,6.9,55.06-30.68,76.03l5.52,8.41Z"/><path class="cls-6" d="m203.25,699.28s-56.31-24.64-35.6-80.62c0,0,.1,55.49,40.02,71.59l-4.42,9.03Z"/><ellipse class="cls-6" cx="184.89" cy="688.03" rx="25.69" ry="15.59"/><path class="cls-12" d="m229.22,222.08s-12.35-29.88-10.53-67.31c0,0,15.85-10.7,19.87-4.14s13.26,15.08,16.99,13.39,7.17,2.05,9.94,1.33,12.1-3.79,3.13-6.83c-8.97-3.05-14.72-1.72-14.72-1.72,0,0-13.15-8.31-12.77-13.69s12.82-7.3,12.82-7.3c0,0,10.13-1.82,9.62-10.72s8.36-11.73,8.36-11.73c0,0,2.92-8.96-6.12-5.25-9.04,3.71-9.62,14.8-9.62,14.8,0,0-1.61,6.6-10.75,8.33s-11.69,8.65-11.69,8.65c0,0-11.17,5.72-6.73-2.89,4.44-8.61,4.17-11.91,4.17-11.91,0,0,4.42-7.82,9.62-7.12s8.01-11.62,8.01-11.62c0,0-.48-5.42-5.13-4.1s-3.85,5.86-3.85,5.86c0,0-13.03,3.15-14.74,7.05s-6.59,19.17-6.59,19.17c0,0-3.89,5.74-4.62,0s-5.77-17.89-5.77-17.89c0,0-.1-14.22,0-14.18s1.01-6.57.96-6.67-9.1-12.03-10.26,0c-1.16,12.03-2.29,15.21,0,19.58s7.14,23.78,7.05,23.75-3.21,4.2-3.21,4.2c0,0-12.26-14.75-12.18-14.81s-1.39-17.78-8.97-20.19-7.08,3.11-2.56,8.33-1.13,10.29,3.53,17.89,12.18,15.32,12.18,15.32c0,0,10.38,3.26,8.01,7.32s-3.23,65.12-3.21,65.12,33.26,17.82,29.76,0Z"/><path class="cls-12" d="m-100.54,872.71S-5,575.34-19.09,202.9c0,0-122.62-106.43-153.77-41.23-31.15,65.2-102.58,150.03-131.45,133.22-28.87-16.81-55.45,20.39-76.89,13.27-21.43-7.12-93.65-37.67-24.21-68.02,69.45-30.35,113.89-17.07,113.89-17.07,0,0,101.79-82.7,98.81-136.19-2.98-53.49-99.21-72.68-99.21-72.68,0,0-78.38-18.16-74.41-106.65,3.97-88.49-64.72-116.7-64.72-116.7,0,0-22.58-89.18,47.36-52.29,69.94,36.88,74.41,147.28,74.41,147.28,0,0,12.49,65.72,83.18,82.93,70.69,17.21,90.44,86.08,90.44,86.08,0,0,86.41,56.88,52.08-28.76-34.33-85.63-32.24-118.54-32.24-118.54,0,0-34.23-77.83-74.41-70.83-40.18,7-62.01-115.63-62.01-115.63,0,0,3.73-53.9,39.68-40.83,35.95,13.07,29.76,58.29,29.76,58.29,0,0,100.8,31.32,114.09,70.14C-55.4-152.47-17.67-.53-17.67-.53c0,0,30.13,57.1,35.79,0,5.65-57.1,44.64-178.05,44.64-178.05,0,0,.76-141.51,0-141.14s-7.84-65.36-7.44-66.38,70.43-119.68,79.37,0c8.94,119.68,17.75,151.37,0,194.81-17.75,43.44-55.28,236.6-54.57,236.36s24.8,41.82,24.8,41.82c0,0,94.86-146.82,94.25-147.37s10.78-176.9,69.45-200.95c58.66-24.05,54.8,30.95,19.84,82.85-34.96,51.9,8.73,102.37-27.28,178.05-36.01,75.67-94.25,152.41-94.25,152.41,0,0-80.3,32.44-62.01,72.8,18.29,40.37,25.03,647.98,24.8,648.02s-257.35,177.34-230.26,0Z"/><path class="cls-3" d="m284.24,941.37l343.4-9.74s30.72,9.74,42.76,0l12.04-9.74s21.92-1.08,21.92-11.91-20.09-32.47-20.09-32.47c0,0,5.48,2.26,20.09-27.01s-83.78-54.17-83.78-54.17c0,0-44.09-44.38-45.91-71.44-1.83-27.06-56.63-35.72-56.63-35.72l-73.06,14.07s-37.53-7.58-63.52-14.07c-25.99-6.49-99.05,30.7-97.23,57.02,1.83,26.32-58.45,94.52-58.45,94.52,0,0,31.05,101.75,58.45,100.67Z"/><path class="cls-1" d="m635.43,868.04l-294.45,36.55s-28.06-1.94-36.86,3.96l-8.8,5.9s-18.72,2.56-16.96,7.87,22.59,14.09,22.59,14.09c0,0-5.09-.6-12.93,15.12-7.84,15.73,81.02,18.85,81.02,18.85,0,0,45.21,17.72,51.18,30.84,5.97,13.12,54.61,12.3,54.61,12.3l60.7-13.67s33.58.25,57.04,1.04,80.4-24.24,74.55-37c-5.85-12.76,35.04-51.82,35.04-51.82,0,0-43.29-47.1-66.74-44.03Z"/><path class="cls-7" d="m284.3,951.37l343.4-9.74s30.72,9.74,42.76,0l12.04-9.74s21.92-1.08,21.92-11.91-20.09-32.47-20.09-32.47c0,0,5.48,2.26,20.09-27.01,14.61-29.27-83.78-54.17-83.78-54.17,0,0-44.09-44.38-45.91-71.44-1.83-27.06-56.63-35.72-56.63-35.72l-73.06,14.07s-37.53-7.58-63.52-14.07c-25.99-6.49-99.05,30.7-97.23,57.02,1.83,26.32-58.45,94.52-58.45,94.52,0,0,31.05,101.75,58.45,100.67Z"/><path class="cls-1" d="m258.26,467.48c25.69-9.12,315.99,1.34,325.53,8.77,9.54,7.43-14.6,22.76-43.8,25.91-29.2,3.15,8.59,18.92,8.59,18.92l-20.61,27.85s-4.84,4.2-31.62,0-46.85,4.47-46.85,4.47c0,0-105.33,1.84-96.75-7.62s-35.38-1.05-42.6-5.52c-7.22-4.47-62.19-36.38-51.88-40.13,10.31-3.75-25.69-23.53,0-32.65Z"/><path class="cls-3" d="m258.04,501.63c25.68,18.67,315.92-2.73,325.46-17.94,9.54-15.2-14.6-46.58-43.79-53.03s8.59-38.71,8.59-38.71l-20.61-56.99s-4.84-8.6-31.62,0c-26.78,8.6-46.84-9.14-46.84-9.14,0,0-105.31-3.76-96.72,15.59s-35.37,2.15-42.59,11.29-62.18,74.43-51.87,82.11c10.3,7.67-25.68,48.14,0,66.81Z"/><path class="cls-7" d="m248.07,501.66c25.68,18.67,315.92-2.73,325.46-17.94,9.54-15.2-14.6-46.58-43.79-53.03s8.59-38.71,8.59-38.71l-20.61-56.99s-4.84-8.6-31.62,0-46.84-9.14-46.84-9.14c0,0-105.31-3.76-96.72,15.59s-35.37,2.15-42.59,11.29c-7.22,9.14-62.18,74.43-51.87,82.11,10.3,7.67-25.68,48.14,0,66.81Z"/><path class="cls-1" d="m1328.1,751.47h258.1s77.91,42.88-37.49,138.73c-115.39,95.85-190.06,40.36-190.06,40.36,0,0-175.87-45.4-130.36-71.89,45.51-26.48-39.34-107.2,99.81-107.2Z"/><path class="cls-3" d="m1295.98,850.92h286.97s86.62-59.11-41.68-191.23-211.32-55.63-211.32-55.63c0,0-195.54,62.58-144.94,99.09,50.6,36.51-43.74,147.77,110.98,147.77Z"/><path class="cls-7" d="m1293.77,860.86h286.97s86.62-59.11-41.68-191.23-211.32-55.63-211.32-55.63c0,0-195.54,62.58-144.94,99.09,50.6,36.51-43.74,147.77,110.98,147.77Z"/><path class="cls-15" d="m1042.86,589.52l69.67,12.67,36.08-12.67v-57.33s-18.66-19.96-22.14-37.69c-3.48-17.74-19.16-12.04-19.16-12.04l-.92-9.87s1.5-11.66-18.82-8.5-28.69-.55-28.69-.55c0,0-28.05,32.37-26.39,50.03,1.66,17.66-.07,76.21-.07,76.21,0,0-9.3,3.54,10.44-.26Z"/><path class="cls-3" d="m1051.07,587.9v-54.74l26.68-31.18s3.88-25.41-16.98-51.74-205.36,0-205.36,0l-9.02,10.63s-13.1.92-15.04,6.93,1.94,56.82-20.86,70.22,20.37,54.05,20.37,54.05c0,0,117.37,5.54,220.19-4.16Z"/><path class="cls-3" d="m1062.68,593.32s18,10.14,28.45,4.43l10.45-5.7s-1.74-18.26,0-27.5c1.74-9.24-16.15-15.06-16.5-36.86s-79.65,0-79.65,0l-11.85,1.01s6.76,24.62,18.18,30.05c11.43,5.43-8.31,26.33-8.31,26.33l8.31,14.41,50.91-6.17Z"/><path class="cls-1" d="m1045.71,541.34l67.8-8.41,35.11,8.41v38.05s-18.16,13.24-21.55,25.01c-3.39,11.77-18.64,7.99-18.64,7.99l-.9,6.55s1.46,7.74-18.31,5.64c-19.77-2.1-27.92.36-27.92.36,0,0-27.3-21.48-25.68-33.2,1.62-11.72-.07-50.57-.07-50.57,0,0-9.05-2.35,10.16.17Z"/><path class="cls-1" d="m1053.7,542.41v36.33l25.96,20.69s3.78,16.86-16.52,34.34c-20.29,17.47-199.82,0-199.82,0l-8.77-7.05s-12.74-.61-14.63-4.6c-1.89-3.99,1.89-37.71-20.29-46.6-22.18-8.89,19.82-35.87,19.82-35.87,0,0,114.21-3.68,214.26,2.76Z"/><path class="cls-1" d="m1065,538.81s17.51-6.73,27.68-2.94l10.17,3.78s-1.69,12.12,0,18.25-15.72,9.99-16.05,24.46c-.33,14.47-77.5,0-77.5,0l-11.53-.67s6.57-16.34,17.69-19.94c11.12-3.6-8.09-17.48-8.09-17.48l8.09-9.56,49.54,4.1Z"/><path class="cls-7" d="m1043.15,598.14l69.67,12.67,36.08-12.67v-57.33s-18.66-19.96-22.14-37.69-19.16-12.04-19.16-12.04l-.92-9.87s1.5-11.66-18.82-8.5c-20.32,3.17-28.69-.55-28.69-.55,0,0-28.05,32.37-26.39,50.03s-.07,76.21-.07,76.21c0,0-9.3,3.54,10.44-.26Z"/><path class="cls-7" d="m1051.36,596.52v-54.74l26.68-31.18s3.88-25.41-16.98-51.74c-20.86-26.33-205.36,0-205.36,0l-9.02,10.63s-13.1.92-15.04,6.93,1.94,56.82-20.86,70.22c-22.8,13.4,20.37,54.05,20.37,54.05,0,0,117.37,5.54,220.19-4.16Z"/><path class="cls-7" d="m1062.97,601.94s18,10.14,28.45,4.43l10.45-5.7s-1.74-18.26,0-27.5-16.15-15.06-16.5-36.86c-.34-21.8-79.65,0-79.65,0l-11.85,1.01s6.76,24.62,18.18,30.05c11.43,5.43-8.31,26.33-8.31,26.33l8.31,14.41,50.91-6.17Z"/><path class="cls-3" d="m1404.69,419.79s97.31-22.23,107.22,0c9.91,22.23,76.62-28.4,94.41-27.17,17.79,1.23,88.89-.02,88.89-.02,0,0,16.24-32.98,0-76.38-16.24-43.39-1.42-7.58-42.93-55.74,0,0-114.16-24.14-151.23,17.57-37.06,41.71-75.61,40.47-75.61,40.47,0,0-45.96,106.21-20.76,101.27Z"/><path class="cls-3" d="m1620.5,425.86s30.66-22.52,80.49-16.68c49.83,5.84,12.46-30.86,12.46-30.86,0,0-14.37-45.03-48.87-34.19-34.5,10.84-24.44,17.85-24.44,17.85,0,0-37.33,2.98-50.53,22.17-13.2,19.19-26.61,18.36-26.61,25.03s57.49,16.68,57.49,16.68Z"/><path class="cls-1" d="m1384.11,394.56s96.98,9.36,106.86,0c9.87-9.36,76.36,11.96,94.1,11.44,17.73-.52,88.59,0,88.59,0,0,0,16.19,13.88,0,32.15-16.19,18.26-1.41,3.19-42.78,23.46,0,0-113.77,10.16-150.71-7.4-36.94-17.55-75.36-17.04-75.36-17.04,0,0-45.81-44.7-20.69-42.62Z"/><path class="cls-1" d="m1599.2,392s30.56,9.48,80.22,7.02c49.66-2.46,12.42,12.99,12.42,12.99,0,0-14.33,18.96-48.71,14.39-34.38-4.56-24.35-7.52-24.35-7.52,0,0-37.2-1.25-50.36-9.33s-26.52-7.73-26.52-10.53,57.3-7.02,57.3-7.02Z"/><path class="cls-7" d="m1382.59,422.19s97.31-22.23,107.22,0c9.91,22.23,76.62-28.4,94.41-27.17s88.89-.02,88.89-.02c0,0,16.24-32.98,0-76.38-16.24-43.39-1.42-7.58-42.93-55.74,0,0-114.16-24.14-151.23,17.57-37.06,41.71-75.61,40.47-75.61,40.47,0,0-45.96,106.21-20.76,101.27Z"/><path class="cls-7" d="m1598.4,428.26s30.66-22.52,80.49-16.68c49.83,5.84,12.46-30.86,12.46-30.86,0,0-14.37-45.03-48.87-34.19-34.5,10.84-24.44,17.85-24.44,17.85,0,0-37.33,2.98-50.53,22.17-13.2,19.19-26.61,18.36-26.61,25.03s57.49,16.68,57.49,16.68Z"/><path class="cls-2" d="m50.76,1007.41s-296.49-59.25-270.32-443.19c0,0,71.15,345.98,279.59,379.43l-9.28,63.76Z"/><path class="cls-2" d="m42.2,1039.13s-299.62,15.76-328.79-367.8c0,0,119.32,322.01,328.79,302.87v64.93Z"/><path class="cls-2" d="m67.95,1046.51s-274.57-159.24-173.59-520.91c0,0,.47,358.52,195.12,462.55l-21.53,58.37Z"/><path class="cls-2" d="m129.71,1045.99S-144.86,886.76-43.88,525.08c0,0,.47,358.52,195.12,462.55l-21.53,58.37Z"/><ellipse class="cls-2" cx="59.71" cy="964.25" rx="156.78" ry="100.71"/><path class="cls-2" d="m97.43,1023.36s-203.3-178.14-44.12-487.93c0,0-71.61,320.25,74.3,438.62l-30.18,49.31Z"/><path class="cls-2" d="m64.94,1007.89s296.49-59.25,270.32-443.19c0,0-71.15,345.98-279.59,379.43l9.28,63.76Z"/><path class="cls-2" d="m73.49,1039.62s299.62,15.76,328.79-367.8c0,0-119.32,322.01-328.79,302.87v64.93Z"/><path class="cls-2" d="m47.75,1047s274.57-159.24,173.59-520.91c0,0-.47,358.52-195.12,462.55l21.53,58.37Z"/><path class="cls-2" d="m-14.01,1046.48s274.57-159.24,173.59-520.91c0,0-.47,358.52-195.12,462.55l21.53,58.37Z"/><path class="cls-2" d="m18.27,1023.85s203.3-178.14,44.12-487.93c0,0,71.61,320.25-74.3,438.62l30.18,49.31Z"/><path class="cls-6" d="m65.74,1017.39s-296.49-59.25-270.32-443.19c0,0,71.15,345.98,279.59,379.43l-9.28,63.76Z"/><path class="cls-6" d="m57.19,1049.12s-299.62,15.76-328.79-367.8c0,0,119.32,322.01,328.79,302.87v64.93Z"/><path class="cls-6" d="m82.93,1056.49s-274.57-159.24-173.59-520.91c0,0,.47,358.52,195.12,462.55l-21.53,58.37Z"/><path class="cls-6" d="m144.69,1055.98S-129.88,896.74-28.9,535.06c0,0,.47,358.52,195.12,462.55l-21.53,58.37Z"/><ellipse class="cls-6" cx="74.7" cy="974.24" rx="156.78" ry="100.71"/><path class="cls-6" d="m112.41,1033.34s-203.3-178.14-44.12-487.93c0,0-71.61,320.25,74.3,438.62l-30.18,49.31Z"/><path class="cls-6" d="m79.93,1017.88s296.49-59.25,270.32-443.19c0,0-71.15,345.98-279.59,379.43l9.28,63.76Z"/><path class="cls-6" d="m88.48,1049.6s299.62,15.76,328.79-367.8c0,0-119.32,322.01-328.79,302.87v64.93Z"/><path class="cls-6" d="m62.74,1056.98s274.57-159.24,173.59-520.91c0,0-.47,358.52-195.12,462.55l21.53,58.37Z"/><path class="cls-6" d="m.98,1056.47s274.57-159.24,173.59-520.91c0,0-.47,358.52-195.12,462.55l21.53,58.37Z"/><path class="cls-6" d="m33.25,1033.83s203.3-178.14,44.12-487.93c0,0,71.61,320.25-74.3,438.62l30.18,49.31Z"/><path class="cls-4" d="m122.77,919.22c-2.5,4.74-4.87,9.35-7.11,13.84-5.29,10.83-9.37,20.27-12.25,28.31-5.63,15.74-10.43,32.67-14.41,50.78l-21.07-1.14c1.73-12.06,4.04-24.63,6.92-37.71,2.54-11.55,4.99-21.03,7.36-28.44-2.24.04-5.99.22-11.24.54-5.25.32-9.2.77-11.87,1.37l-1.33-33.26,60.11.25,4.89,5.46Z"/><rect class="cls-4" x="23" y="212" width="63" height="327"/><rect class="cls-11" x="23" y="347" width="63" height="192"/><ellipse class="cls-5" cx="1782.83" cy="73.99" rx="36.15" ry="45.17" transform="translate(761.47 1537.13) rotate(-57.46)"/><ellipse class="cls-5" cx="1843.64" cy="73.79" rx="45.81" ry="35.67" transform="translate(225.07 959.61) rotate(-30.98)"/><polygon class="cls-5" points="1875.21 93.27 1814.69 160 1750.92 91.98 1875.21 93.27"/><ellipse class="cls-10" cx="1777.15" cy="75.51" rx="35.01" ry="43.4" transform="translate(694.12 1486.54) rotate(-54.93)"/><ellipse class="cls-10" cx="1835.2" cy="75.32" rx="43.99" ry="34.56" transform="translate(258.12 1016.84) rotate(-33.19)"/><polygon class="cls-10" points="1865.34 94.31 1807.57 159.34 1746.68 93.05 1865.34 94.31"/><ellipse class="cls-5" cx="1597.92" cy="73.68" rx="36.15" ry="45.17" transform="translate(676.29 1381.1) rotate(-57.46)"/><ellipse class="cls-5" cx="1658.74" cy="73.48" rx="45.81" ry="35.67" transform="translate(198.85 864.38) rotate(-30.98)"/><polygon class="cls-5" points="1690.3 92.96 1629.79 159.69 1566.01 91.67 1690.3 92.96"/><ellipse class="cls-10" cx="1592.24" cy="75.2" rx="35.01" ry="43.4" transform="translate(615.72 1335.08) rotate(-54.93)"/><ellipse class="cls-10" cx="1650.3" cy="75.01" rx="43.99" ry="34.56" transform="translate(228.13 915.58) rotate(-33.19)"/><polygon class="cls-10" points="1680.44 94 1622.66 159.03 1561.77 92.74 1680.44 94"/><ellipse class="cls-5" cx="1423.92" cy="73.68" rx="36.15" ry="45.17" transform="translate(595.88 1234.42) rotate(-57.46)"/><ellipse class="cls-5" cx="1484.74" cy="73.48" rx="45.81" ry="35.67" transform="translate(174.02 774.81) rotate(-30.98)"/><polygon class="cls-5" points="1516.3 92.96 1455.79 159.69 1392.01 91.67 1516.3 92.96"/><ellipse class="cls-10" cx="1418.24" cy="75.2" rx="35.01" ry="43.4" transform="translate(541.71 1192.68) rotate(-54.93)"/><ellipse class="cls-10" cx="1476.3" cy="75.01" rx="43.99" ry="34.56" transform="translate(199.75 820.33) rotate(-33.19)"/><polygon class="cls-10" points="1506.44 94 1448.66 159.03 1387.77 92.74 1506.44 94"/></svg>