<?xml version="1.0" encoding="UTF-8"?><svg id="Layer_1" xmlns="http://www.w3.org/2000/svg" width="645" height="190" viewBox="0 0 645 190"><defs><style>.cls-1{fill:#606060;}.cls-1,.cls-2,.cls-3{stroke-width:0px;}.cls-2{fill:#ebffd4;}.cls-3{fill:#817d7d;}</style></defs><path class="cls-1" d="m580.92,9.85v64.91l62.6,36.97s9.11,30.13-39.83,61.35c-48.94,31.22-481.89,0-481.89,0l-21.16-12.6s-30.73-1.1-35.28-8.22,4.55-67.37-48.94-83.26C-37.09,53.12,64.21,4.92,64.21,4.92c0,0,275.43-6.57,516.71,4.93Z"/><path class="cls-3" d="m558.92,20.51v58.59l59.45,33.37s8.65,27.19-37.83,55.38c-46.48,28.18-457.65,0-457.65,0l-20.09-11.37s-29.18-.99-33.51-7.42c-4.32-6.43,4.32-60.81-46.48-75.15-50.8-14.34,45.4-57.85,45.4-57.85,0,0,261.57-5.93,490.71,4.45Z"/><path class="cls-2" d="m230.34,87.38c-2.41-.55-4.23-.83-5.47-.83-1.53,0-2.93.52-4.2,1.56-1.53,1.27-2.29,2.91-2.29,4.93,0,1.56,1.4,4.57,4.2,9.03,2.8,4.46,4.2,8.56,4.2,12.3,0,5.44-2.07,9.9-6.2,13.38-3.94,3.35-8.81,5.03-14.6,5.03-5.34,0-9.28-.38-11.82-1.12-.29-1.5-.8-3.94-1.51-7.32-.46-1.82-1.09-4.25-1.9-7.28,3.58.88,5.99,1.32,7.23,1.32,4.85,0,7.28-1.84,7.28-5.52,0-2.67-.98-5.06-2.93-7.18-3.19-2.8-6.38-5.62-9.57-8.45-6.18-5.47-9.28-11.96-9.28-19.48s2.93-13.79,8.79-17.82c5.11-3.52,11.91-5.27,20.41-5.27,4.82,0,10.22.7,16.21,2.1l1.46,30.62Z"/><path class="cls-2" d="m293.77,56.67l-1.42,30.71c-1.27-.2-3.3-.44-6.1-.73-1.73-.1-4.52-.2-8.4-.29-.2,1.92-.54,6.56-1.03,13.92-.36,7.13-.94,17.59-1.76,31.4h-23.63c-.26-6.58-.75-16.91-1.46-31.01-.33-4.88-.67-9.65-1.03-14.31l-7.71.29-6.98.73-1.22-30.71h60.74Z"/><path class="cls-2" d="m356.37,131.67h-26.71l-1.81-6.49c-.75.29-2.62,1.29-5.62,2.98-1.92,1.24-4.05,2.88-6.4,4.93l-2.78-5.91c-.55-1.17-1.35-2.82-2.39-4.93l-2.64,9.42h-14.16c2.08-8.04,5.31-21.3,9.67-39.79,2.67-12.37,4.9-24.1,6.69-35.21h29.35c.91,5.11,3.4,17.01,7.47,35.69,2.25,9.77,5.35,22.87,9.33,39.31Zm-30.81-16.02c-.55-1.72-1.53-4.52-2.93-8.4-.85-2.15-2.13-5.11-3.86-8.89-.75,1.89-1.92,4.98-3.52,9.28-.88,2.47-1.92,5.84-3.12,10.11.98,0,3.19-.2,6.64-.59,2.08-.29,4.35-.8,6.79-1.51Z"/><path class="cls-2" d="m423.75,84.74c0,5.99-1.68,11.3-5.03,15.92-2.96,4.04-6.67,6.93-11.13,8.69.94,1.46,3.27,4.54,6.98,9.23,1.86,2.15,4.69,4.98,8.5,8.5-1.53.55-4.9,1.95-10.11,4.2-3.65,1.66-7.08,3.29-10.3,4.88-.94-1.17-3.04-4.2-6.3-9.08-1.5-2.47-3.69-6.64-6.59-12.5h-.1l-.49,17.09h-27.49c-.36-7.1-.86-18.8-1.51-35.11-.29-9.6-.96-22.9-2-39.89,8.95-.94,17.12-1.42,24.51-1.42,27.38,0,41.06,9.83,41.06,29.49Zm-22.17,10.55c0-3.09-1.3-5.31-3.91-6.64-1.92-.98-4.33-1.4-7.23-1.27l-.29,16.7c2.7,0,5.11-.6,7.23-1.81,2.8-1.56,4.2-3.89,4.2-6.98Z"/><path class="cls-2" d="m486.2,56.67l-1.42,30.71c-1.27-.2-3.3-.44-6.1-.73-1.73-.1-4.52-.2-8.4-.29-.2,1.92-.54,6.56-1.03,13.92-.36,7.13-.94,17.59-1.76,31.4h-23.63c-.26-6.58-.75-16.91-1.46-31.01-.33-4.88-.67-9.65-1.03-14.31l-7.71.29-6.98.73-1.22-30.71h60.74Z"/></svg>