<?xml version="1.0" encoding="UTF-8"?><svg id="Layer_1" xmlns="http://www.w3.org/2000/svg" width="1920" height="1080" viewBox="0 0 1920 1080"><defs><style>.cls-1{fill:#614b47;}.cls-1,.cls-2,.cls-3,.cls-4,.cls-5,.cls-6,.cls-7,.cls-8,.cls-9,.cls-10,.cls-11,.cls-12,.cls-13,.cls-14,.cls-15,.cls-16,.cls-17,.cls-18,.cls-19,.cls-20,.cls-21,.cls-22,.cls-23,.cls-24,.cls-25,.cls-26,.cls-27,.cls-28,.cls-29,.cls-30,.cls-31,.cls-32,.cls-33{stroke-width:0px;}.cls-2{fill:#de9562;}.cls-3{fill:#415245;}.cls-4{fill:#e97600;}.cls-5{fill:#606060;}.cls-6{fill:#c97a79;}.cls-7{fill:#ebffd4;}.cls-9{fill:#e59f71;}.cls-10{fill:#ac7755;}.cls-11{fill:#f4fffe;}.cls-12{fill:#fffbe9;}.cls-13{fill:#576d5c;}.cls-14{fill:#7f976b;}.cls-15{fill:#b1c87c;}.cls-16{fill:gray;}.cls-17{fill:#b0cfe3;}.cls-18{fill:#f3b46f;}.cls-19{fill:#976665;}.cls-20{fill:#5f7150;}.cls-21{fill:#fff;}.cls-22{fill:#85965d;}.cls-23{fill:#59483a;}.cls-24{fill:#915932;}.cls-34{fill:#352600;stroke:#000;stroke-miterlimit:10;}.cls-25{fill:#996;}.cls-26{fill:#dfecf4;}.cls-27{fill:#975c5b;}.cls-28{fill:#404040;}.cls-29{fill:#846d69;}.cls-30{fill:#352000;}.cls-31{fill:#b5b46d;}.cls-32{fill:#81645f;}.cls-33{fill:#f5c38c;}</style></defs><rect class="cls-17" x="-15.16" y="-2.12" width="1936.35" height="230.33"/><path class="cls-24" d="m1082.31,281.48l533.81-26.28s-23.94-68.23-71.83-77.68c-47.89-9.45,14.08-56.7,14.08-56.7l-33.8-83.48s-7.94-12.6-51.86,0c-43.92,12.6-76.82-13.39-76.82-13.39,0,0-172.73-5.51-158.64,22.84,14.08,28.35-58.01,3.15-69.85,16.54-11.84,13.39-101.98,109.04-85.08,120.28s0,97.87,0,97.87Z"/><path class="cls-2" d="m1082.15,274.38l515.8-23.34s-23.14-60.61-69.41-69.01c-46.27-8.4,13.61-50.37,13.61-50.37l-32.66-74.16s-7.67-11.19-50.11,0c-42.44,11.19-74.23-11.89-74.23-11.89,0,0-166.9-4.9-153.29,20.29,13.61,25.19-56.05,2.8-67.5,14.69-11.44,11.89-98.54,96.87-82.21,106.85,16.33,9.99,0,86.95,0,86.95Z"/><rect class="cls-18" x="-15.16" y="217.05" width="1936.35" height="876.66"/><path class="cls-26" d="m-17.69,45.06h605.02s65.46,32.56,0,60.42H-17.69s-35.3-37.08,0-60.42Z"/><path class="cls-26" d="m655.96,95.47h430.16s46.54,20.95,0,38.88h-430.16s-25.1-23.86,0-38.88Z"/><path class="cls-26" d="m1586.05,45.27h430.16s46.54,20.95,0,38.88h-430.16s-25.1-23.86,0-38.88Z"/><path class="cls-2" d="m-68.89,1034.64s67.77-111.75,417.65-68.45c349.88,43.3,464.05,0,464.05,0,0,0,291.95-116.5,385.48-23.1s524.24,30.26,524.24,30.26c0,0,296.85-118.45,432.98-52.2,136.13,66.25-123.38,303.05-123.38,303.05,0,0-530.7,73.73-725.29,33.8-194.59-39.93-723.58,29-723.58,29,0,0-397.84-3.9-482.42-51.75-84.57-47.85-202.74-67.48-169.73-200.6Z"/><path class="cls-2" d="m7.98,564.11s17.04-14.89,105-9.12c87.96,5.77,116.66,0,116.66,0,0,0,73.4-15.53,96.91-3.08,23.51,12.45,131.8,4.03,131.8,4.03,0,0,74.63-15.79,108.85-6.96,34.22,8.83-31.02,40.39-31.02,40.39,0,0-133.42,9.83-182.34,4.5-48.92-5.32-181.91,3.87-181.91,3.87,0,0-100.02-.52-121.28-6.9-21.26-6.38-50.97-8.99-42.67-26.74Z"/><path class="cls-33" d="m1104.82,795.6s24.36-31.14,150.14-19.07c125.78,12.06,166.82,0,166.82,0,0,0,104.95-32.46,138.58-6.44,33.62,26.02,188.46,8.43,188.46,8.43,0,0,106.71-33.01,155.65-14.54,48.94,18.46-44.36,84.44-44.36,84.44,0,0-190.78,20.54-260.74,9.42-69.95-11.13-260.12,8.08-260.12,8.08,0,0-143.02-1.09-173.42-14.42-30.4-13.33-72.89-18.8-61.02-55.9Z"/><path class="cls-2" d="m1608.46,533.67s17.04-24.02,105-14.71c87.96,9.31,116.66,0,116.66,0,0,0,73.4-25.04,96.91-4.97,23.51,20.07,131.8,6.5,131.8,6.5,0,0,74.63-25.46,108.85-11.22,34.22,14.24-31.02,65.13-31.02,65.13,0,0-133.42,15.85-182.34,7.26-48.92-8.58-181.91,6.23-181.91,6.23,0,0-100.02-.84-121.28-11.12-21.26-10.28-50.97-14.5-42.67-43.11Z"/><path class="cls-2" d="m324.76,789.08s31.26-4.79,32.74-10.54,25.38-1.43,30.72-3.44c5.35-2.01,27.14-8.73,27.14-8.73,0,0,7.26,5.49,5.32,16.41-1.94,10.92.1,1.77-9.22,16.2,0,0-33.18,16.41-47.4,11.09-14.22-5.32-25.91-1.26-25.91-1.26,0,0-21.44-18.31-13.4-19.72Z"/><path class="cls-16" d="m322.56,793.42s30.85-7.54,34,0c3.14,7.54,24.29-9.63,29.94-9.21s28.18,0,28.18,0c0,0,5.15-11.18,0-25.89s-.45-2.57-13.61-18.9c0,0-36.2-8.18-47.95,5.96-11.75,14.14-23.97,13.72-23.97,13.72,0,0-14.57,36-6.58,34.33Z"/><path class="cls-2" d="m100.84,482.21h57.3s17.3,8.51-8.32,27.54-42.19,8.01-42.19,8.01c0,0-39.04-9.01-28.94-14.27,10.1-5.26-8.73-21.28,22.16-21.28Z"/><path class="cls-16" d="m97.08,494.96h57.3s17.3-12.47-8.32-40.34c-25.62-27.87-42.19-11.73-42.19-11.73,0,0-39.04,13.2-28.94,20.9s-8.73,31.17,22.16,31.17Z"/><path class="cls-2" d="m1825.13,707.54s31.26-4.79,32.74-10.54c1.48-5.75,25.38-1.43,30.72-3.44,5.35-2.01,27.14-8.73,27.14-8.73,0,0,7.26,5.49,5.32,16.41-1.94,10.92.1,1.77-9.22,16.2,0,0-33.18,16.41-47.4,11.09s-25.91-1.26-25.91-1.26c0,0-21.44-18.31-13.4-19.72Z"/><path class="cls-16" d="m1822.94,711.88s30.85-7.54,34,0c3.14,7.54,24.29-9.63,29.94-9.21s28.18,0,28.18,0c0,0,5.15-11.18,0-25.89-5.15-14.71-.45-2.57-13.61-18.9,0,0-36.2-8.18-47.95,5.96-11.75,14.14-23.97,13.72-23.97,13.72,0,0-14.57,36-6.58,34.33Z"/><path class="cls-2" d="m1634.14,410.08h57.3s17.3,8.51-8.32,27.54c-25.62,19.03-42.19,8.01-42.19,8.01,0,0-39.04-9.01-28.94-14.27,10.1-5.26-8.73-21.28,22.16-21.28Z"/><path class="cls-16" d="m1630.38,422.83h57.3s17.3-12.47-8.32-40.34c-25.62-27.87-42.19-11.73-42.19-11.73,0,0-39.04,13.2-28.94,20.9s-8.73,31.17,22.16,31.17Z"/><path class="cls-2" d="m1055.15,309.44s12.2-7.39,75.21-4.53c63,2.86,83.56,0,83.56,0,0,0,52.57-7.7,69.42-1.53,16.84,6.18,94.4,2,94.4,2,0,0,53.45-7.83,77.97-3.45,24.51,4.38-22.22,20.04-22.22,20.04,0,0-95.57,4.87-130.61,2.23-35.04-2.64-130.3,1.92-130.3,1.92,0,0-71.64-.26-86.87-3.42-15.23-3.16-36.51-4.46-30.56-13.26Z"/><path class="cls-2" d="m-156.38,296.78s12.2-7.39,75.21-4.53c63,2.86,83.56,0,83.56,0,0,0,52.57-7.7,69.42-1.53,16.84,6.18,94.4,2,94.4,2,0,0,53.45-7.83,77.97-3.45s-22.22,20.04-22.22,20.04c0,0-95.57,4.87-130.61,2.23-35.04-2.64-130.3,1.92-130.3,1.92,0,0-71.64-.26-86.87-3.42s-36.51-4.46-30.56-13.26Z"/><path class="cls-33" d="m1228.33,480.54s14.05-10.7,86.61-6.55c72.56,4.14,96.23,0,96.23,0,0,0,60.54-11.15,79.94-2.21,19.39,8.94,108.71,2.9,108.71,2.9,0,0,61.56-11.34,89.79-5,28.23,6.34-25.59,29.01-25.59,29.01,0,0-110.05,7.06-150.41,3.24-40.35-3.82-150.05,2.78-150.05,2.78,0,0-82.5-.37-100.04-4.95s-42.04-6.46-35.2-19.2Z"/><polygon class="cls-2" points="741.04 975.13 1023.42 834.92 691.11 740.83 1103.79 650.44 796.19 560.04 1034.2 405.45 736.94 220.78 940.41 401.39 559.57 597.11 812.32 640.84 543.05 724.05 758.27 868.72 566.25 985.83 768.65 1129.73 896.67 1129.73 741.04 975.13"/><path class="cls-33" d="m265.84,394.83s14.05-15.4,86.61-9.43,96.23,0,96.23,0c0,0,60.54-16.05,79.94-3.18,19.39,12.87,108.71,4.17,108.71,4.17,0,0,61.56-16.32,89.79-7.19,28.23,9.13-25.59,41.76-25.59,41.76,0,0-110.05,10.16-150.41,4.66-40.35-5.5-150.05,4-150.05,4,0,0-82.5-.54-100.04-7.13-17.54-6.59-42.04-9.3-35.2-27.64Z"/><path class="cls-23" d="m282.24,215.33s9.94-19.88,8.48-44.78c0,0-12.76-7.11-16-2.76s-10.68,10.03-13.68,8.91-8,.89-8,.89c0,0-9.75-2.52-2.52-4.55s11.85-1.14,11.85-1.14c0,0,10.59-5.53,10.28-9.1s-10.32-4.86-10.32-4.86c0,0-8.16-1.21-7.74-7.13.41-5.92-6.74-7.8-6.74-7.8,0,0-2.35-5.96,4.93-3.5s7.74,9.85,7.74,9.85c0,0,1.3,4.39,8.66,5.54s9.41,5.75,9.41,5.75c0,0,8.99,3.8,5.42-1.92-3.57-5.72-3.36-7.92-3.36-7.92,0,0-3.56-5.2-7.74-4.73s-6.45-7.73-6.45-7.73c0,0-.95-7.06,4.13-2.73s3.1,3.9,3.1,3.9c0,0,10.49,2.09,11.87,4.69s5.31,12.75,5.31,12.75c0,0,3.14,3.82,3.72,0s4.65-11.9,4.65-11.9c0,0,3.62-9.46,0-9.44s-.77-4.44-.77-4.44c0,0,5.93-5.6,8.26,0s0,13.02,0,13.02c0,0-1.69,12.27-5.68,15.8s2.58,2.8,2.58,2.8l9.81-9.85s3.22-15.65,7.23-13.43,2.06,5.54,2.06,5.54c0,0,.91,6.84-2.84,11.9s-9.81,10.19-9.81,10.19l-6.45,4.87s-10.48,45.77,2.58,43.32c0,0-26.78,11.86-23.96,0Z"/><ellipse class="cls-2" cx="1658.59" cy="954.96" rx="27.44" ry="13.44"/><path class="cls-13" d="m1654.71,952.31s-45.72-7.93-41.68-59.35c0,0,10.97,46.33,43.11,50.81l-1.43,8.54Z"/><path class="cls-13" d="m1653.39,956.56s-46.2,2.11-50.7-49.25c0,0,18.4,43.12,50.7,40.56v8.69Z"/><path class="cls-13" d="m1657.36,957.55s-42.34-21.32-26.77-69.76c0,0,.07,48.01,30.09,61.94l-3.32,7.82Z"/><path class="cls-13" d="m1662.04,956.63s45.7-8.07,41.54-59.48c0,0-10.86,46.36-42.99,50.94l1.45,8.53Z"/><path class="cls-13" d="m1654.78,957.04s43.58-17.73,31.12-67.33c0,0-3.12,47.88-33.94,59.26l2.82,8.07Z"/><path class="cls-13" d="m1643.34,956.34s43.58-17.73,31.12-67.33c0,0-3.12,47.88-33.94,59.26l2.82,8.07Z"/><path class="cls-13" d="m1642.7,955.22s39.67-27.26,18.92-73.06c0,0,5.18,47.64-23.07,65.79l4.15,7.28Z"/><path class="cls-13" d="m1666.88,955.2s-42.34-21.32-26.77-69.76c0,0,.07,48.01,30.09,61.94l-3.32,7.82Z"/><ellipse class="cls-13" cx="1653.08" cy="945.46" rx="19.32" ry="13.49"/><ellipse class="cls-2" cx="1193.98" cy="234.21" rx="13.8" ry="7.7"/><path class="cls-13" d="m1192.02,232.69s-22.99-4.54-20.96-33.99c0,0,5.52,26.54,21.68,29.1l-.72,4.89Z"/><path class="cls-13" d="m1191.36,235.13s-23.23,1.21-25.5-28.21c0,0,9.25,24.7,25.5,23.23v4.98Z"/><path class="cls-13" d="m1193.36,235.69s-21.29-12.21-13.46-39.95c0,0,.04,27.5,15.13,35.48l-1.67,4.48Z"/><path class="cls-13" d="m1195.71,235.17s22.98-4.62,20.89-34.06c0,0-5.46,26.55-21.62,29.18l.73,4.89Z"/><path class="cls-13" d="m1192.06,235.4s21.92-10.15,15.65-38.56c0,0-1.57,27.42-17.07,33.94l1.42,4.62Z"/><path class="cls-13" d="m1186.31,235s21.92-10.15,15.65-38.56c0,0-1.57,27.42-17.07,33.94l1.42,4.62Z"/><path class="cls-13" d="m1185.99,234.36s19.95-15.61,9.51-41.84c0,0,2.61,27.29-11.6,37.68l2.09,4.17Z"/><path class="cls-13" d="m1198.15,234.35s-21.29-12.21-13.46-39.95c0,0,.04,27.5,15.13,35.48l-1.67,4.48Z"/><ellipse class="cls-13" cx="1191.21" cy="228.77" rx="9.72" ry="7.72"/><ellipse class="cls-2" cx="820.91" cy="400.61" rx="18.57" ry="9.73"/><path class="cls-13" d="m818.28,398.7s-30.94-5.74-28.21-42.96c0,0,7.43,33.53,29.18,36.78l-.97,6.18Z"/><path class="cls-13" d="m817.39,401.77s-31.27,1.53-34.31-35.65c0,0,12.45,31.21,34.31,29.36v6.29Z"/><path class="cls-13" d="m820.08,402.49s-28.65-15.43-18.12-50.49c0,0,.05,34.75,20.36,44.83l-2.25,5.66Z"/><path class="cls-13" d="m823.25,401.82s30.93-5.84,28.12-43.05c0,0-7.35,33.56-29.1,36.87l.98,6.18Z"/><path class="cls-13" d="m818.33,402.12s29.49-12.83,21.06-48.74c0,0-2.11,34.65-22.97,42.89l1.91,5.84Z"/><path class="cls-13" d="m810.59,401.61s29.49-12.83,21.06-48.74c0,0-2.11,34.65-22.97,42.89l1.91,5.84Z"/><path class="cls-13" d="m810.16,400.8s26.85-19.73,12.8-52.88c0,0,3.51,34.48-15.61,47.62l2.81,5.27Z"/><path class="cls-13" d="m826.52,400.79s-28.65-15.43-18.12-50.49c0,0,.05,34.75,20.36,44.83l-2.25,5.66Z"/><ellipse class="cls-13" cx="817.18" cy="393.74" rx="13.07" ry="9.76"/><ellipse class="cls-2" cx="196.41" cy="225.45" rx="14.11" ry="21.53" transform="translate(-79.46 340.77) rotate(-71.62)"/><ellipse class="cls-2" cx="170.7" cy="696.33" rx="36.8" ry="15.52"/><path class="cls-13" d="m165.49,693.28s-61.32-9.16-55.91-68.54c0,0,14.72,53.5,57.83,58.68l-1.92,9.86Z"/><path class="cls-13" d="m163.72,698.18s-61.97,2.44-68.01-56.88c0,0,24.68,49.8,68.01,46.84v10.04Z"/><path class="cls-13" d="m169.05,699.32s-56.79-24.62-35.9-80.56c0,0,.1,55.44,40.36,71.53l-4.45,9.03Z"/><path class="cls-13" d="m175.34,698.26s61.3-9.33,55.72-68.68c0,0-14.57,53.54-57.67,58.83l1.95,9.85Z"/><path class="cls-13" d="m165.59,698.74s58.46-20.47,41.75-77.76c0,0-4.19,55.29-45.53,68.44l3.78,9.32Z"/><path class="cls-13" d="m150.25,697.93s58.46-20.47,41.75-77.76c0,0-4.19,55.29-45.53,68.44l3.78,9.32Z"/><path class="cls-13" d="m149.39,696.63s53.21-31.48,25.37-84.37c0,0,6.95,55.02-30.94,75.97l5.57,8.4Z"/><path class="cls-13" d="m181.82,696.61s-56.79-24.62-35.9-80.56c0,0,.1,55.44,40.36,71.53l-4.45,9.03Z"/><ellipse class="cls-13" cx="163.31" cy="685.37" rx="25.91" ry="15.57"/><path class="cls-23" d="m208.01,219.79s-12.45-29.86-10.62-67.26c0,0,15.98-10.69,20.04-4.14,4.06,6.55,13.37,15.06,17.13,13.38s7.23,2.05,10.02,1.33,12.21-3.78,3.15-6.83-14.84-1.71-14.84-1.71c0,0-13.27-8.3-12.88-13.67s12.93-7.3,12.93-7.3c0,0,10.21-1.82,9.7-10.71s8.44-11.72,8.44-11.72c0,0,2.94-8.95-6.17-5.25s-9.7,14.79-9.7,14.79c0,0-1.63,6.6-10.84,8.33-9.21,1.73-11.79,8.64-11.79,8.64,0,0-11.26,5.71-6.79-2.89s4.2-11.9,4.2-11.9c0,0,4.46-7.81,9.7-7.11,5.24.7,8.08-11.61,8.08-11.61,0,0-.49-5.41-5.17-4.1s-3.88,5.85-3.88,5.85c0,0-13.14,3.14-14.87,7.04s-6.65,19.15-6.65,19.15c0,0-3.93,5.73-4.66,0s-5.82-17.88-5.82-17.88c0,0-.1-14.21,0-14.17s1.02-6.56.97-6.66-9.18-12.02-10.34,0-2.31,15.2,0,19.56,7.2,23.76,7.11,23.73-3.23,4.2-3.23,4.2c0,0-12.36-14.74-12.28-14.8s-1.41-17.76-9.05-20.18-7.14,3.11-2.59,8.32-1.14,10.28,3.56,17.88,12.28,15.3,12.28,15.3c0,0,10.47,3.26,8.08,7.31s-3.26,65.06-3.23,65.07,33.54,17.81,30.01,0Z"/><path class="cls-23" d="m-83.44,904.17S12.09,606.8-1.99,234.36c0,0-122.62-106.43-153.77-41.23-31.15,65.2-102.58,150.03-131.45,133.22-28.87-16.81-55.45,20.39-76.89,13.27-21.43-7.12-93.65-37.67-24.21-68.02,69.45-30.35,113.89-17.07,113.89-17.07,0,0,101.79-82.7,98.81-136.19-2.98-53.49-99.21-72.68-99.21-72.68,0,0-78.38-18.16-74.41-106.65,3.97-88.49-64.72-116.7-64.72-116.7,0,0-22.58-89.18,47.36-52.29,69.94,36.88,74.41,147.28,74.41,147.28,0,0,12.49,65.72,83.18,82.93,70.69,17.21,90.44,86.08,90.44,86.08,0,0,86.41,56.88,52.08-28.76C-100.81-28.07-98.72-60.97-98.72-60.97c0,0-34.23-77.83-74.41-70.83-40.18,7-62.01-115.63-62.01-115.63,0,0,3.73-53.9,39.68-40.83,35.95,13.07,29.76,58.29,29.76,58.29,0,0,100.8,31.32,114.09,70.14C-38.3-121-.58,30.93-.58,30.93c0,0,30.13,57.1,35.79,0,5.65-57.1,44.64-178.05,44.64-178.05,0,0,.76-141.51,0-141.14s-7.84-65.36-7.44-66.38,70.43-119.68,79.37,0c8.94,119.68,17.75,151.37,0,194.81-17.75,43.44-55.28,236.6-54.57,236.36s24.8,41.82,24.8,41.82c0,0,94.86-146.82,94.25-147.37s10.78-176.9,69.45-200.95c58.66-24.05,54.8,30.95,19.84,82.85-34.96,51.9,8.73,102.37-27.28,178.05-36.01,75.67-94.25,152.41-94.25,152.41,0,0-80.3,32.44-62.01,72.8s25.03,647.98,24.8,648.02-257.35,177.34-230.26,0Z"/><path class="cls-5" d="m301.33,972.84l343.4-9.74s30.72,9.74,42.76,0l12.04-9.74s21.92-1.08,21.92-11.91-20.09-32.47-20.09-32.47c0,0,5.48,2.26,20.09-27.01,14.61-29.27-83.78-54.17-83.78-54.17,0,0-44.09-44.38-45.91-71.44-1.83-27.06-56.63-35.72-56.63-35.72l-73.06,14.07s-37.53-7.58-63.52-14.07c-25.99-6.49-99.05,30.7-97.23,57.02,1.83,26.32-58.45,94.52-58.45,94.52,0,0,31.05,101.75,58.45,100.67Z"/><path class="cls-2" d="m652.53,899.5l-294.45,36.55s-28.06-1.94-36.86,3.96l-8.8,5.9s-18.72,2.56-16.96,7.87,22.59,14.09,22.59,14.09c0,0-5.09-.6-12.93,15.12-7.84,15.73,81.02,18.85,81.02,18.85,0,0,45.21,17.72,51.18,30.84,5.97,13.12,54.61,12.3,54.61,12.3l60.7-13.67s33.58.25,57.04,1.04c23.46.79,80.4-24.24,74.55-37-5.85-12.76,35.04-51.82,35.04-51.82,0,0-43.29-47.1-66.74-44.03Z"/><path class="cls-16" d="m301.4,982.83l343.4-9.74s30.72,9.74,42.76,0l12.04-9.74s21.92-1.08,21.92-11.91-20.09-32.47-20.09-32.47c0,0,5.48,2.26,20.09-27.01,14.61-29.27-83.78-54.17-83.78-54.17,0,0-44.09-44.38-45.91-71.44-1.83-27.06-56.63-35.72-56.63-35.72l-73.06,14.07s-37.53-7.58-63.52-14.07c-25.99-6.49-99.05,30.7-97.23,57.02,1.83,26.32-58.45,94.52-58.45,94.52,0,0,31.05,101.75,58.45,100.67Z"/><path class="cls-2" d="m275.35,498.94c25.69-9.12,315.99,1.34,325.53,8.77s-14.6,22.76-43.8,25.91c-29.2,3.15,8.59,18.92,8.59,18.92l-20.61,27.85s-4.84,4.2-31.62,0c-26.78-4.2-46.85,4.47-46.85,4.47,0,0-105.33,1.84-96.75-7.62s-35.38-1.05-42.6-5.52c-7.22-4.47-62.19-36.38-51.88-40.13,10.31-3.75-25.69-23.53,0-32.65Z"/><path class="cls-5" d="m275.13,533.09c25.68,18.67,315.92-2.73,325.46-17.94,9.54-15.2-14.6-46.58-43.79-53.03-29.2-6.45,8.59-38.71,8.59-38.71l-20.61-56.99s-4.84-8.6-31.62,0c-26.78,8.6-46.84-9.14-46.84-9.14,0,0-105.31-3.76-96.72,15.59,8.59,19.35-35.37,2.15-42.59,11.29-7.22,9.14-62.18,74.43-51.87,82.11,10.3,7.67-25.68,48.14,0,66.81Z"/><path class="cls-16" d="m265.16,533.12c25.68,18.67,315.92-2.73,325.46-17.94,9.54-15.2-14.6-46.58-43.79-53.03s8.59-38.71,8.59-38.71l-20.61-56.99s-4.84-8.6-31.62,0c-26.78,8.6-46.84-9.14-46.84-9.14,0,0-105.31-3.76-96.72,15.59s-35.37,2.15-42.59,11.29c-7.22,9.14-62.18,74.43-51.87,82.11s-25.68,48.14,0,66.81Z"/><path class="cls-2" d="m1345.19,782.94h258.1s77.91,42.88-37.49,138.73c-115.39,95.85-190.06,40.36-190.06,40.36,0,0-175.87-45.4-130.36-71.89,45.51-26.48-39.34-107.2,99.81-107.2Z"/><path class="cls-5" d="m1313.08,882.38h286.97s86.62-59.11-41.68-191.23-211.32-55.63-211.32-55.63c0,0-195.54,62.58-144.94,99.09,50.6,36.51-43.74,147.77,110.98,147.77Z"/><path class="cls-16" d="m1310.87,892.33h286.97s86.62-59.11-41.68-191.23-211.32-55.63-211.32-55.63c0,0-195.54,62.58-144.94,99.09,50.6,36.51-43.74,147.77,110.98,147.77Z"/><path class="cls-28" d="m1059.96,620.98l69.67,12.67,36.08-12.67v-57.33s-18.66-19.96-22.14-37.69c-3.48-17.74-19.16-12.04-19.16-12.04l-.92-9.87s1.5-11.66-18.82-8.5-28.69-.55-28.69-.55c0,0-28.05,32.37-26.39,50.03,1.66,17.66-.07,76.21-.07,76.21,0,0-9.3,3.54,10.44-.26Z"/><path class="cls-5" d="m1068.16,619.37v-54.74l26.68-31.18s3.88-25.41-16.98-51.74c-20.86-26.33-205.36,0-205.36,0l-9.02,10.63s-13.1.92-15.04,6.93c-1.94,6.01,1.94,56.82-20.86,70.22-22.8,13.4,20.37,54.05,20.37,54.05,0,0,117.37,5.54,220.19-4.16Z"/><path class="cls-5" d="m1079.78,624.79s18,10.14,28.45,4.43l10.45-5.7s-1.74-18.26,0-27.5-16.15-15.06-16.5-36.86c-.34-21.8-79.65,0-79.65,0l-11.85,1.01s6.76,24.62,18.18,30.05c11.43,5.43-8.31,26.33-8.31,26.33l8.31,14.41,50.91-6.17Z"/><path class="cls-2" d="m1062.81,572.8l67.8-8.41,35.11,8.41v38.05s-18.16,13.24-21.55,25.01-18.64,7.99-18.64,7.99l-.9,6.55s1.46,7.74-18.31,5.64-27.92.36-27.92.36c0,0-27.3-21.48-25.68-33.2,1.62-11.72-.07-50.57-.07-50.57,0,0-9.05-2.35,10.16.17Z"/><path class="cls-2" d="m1070.79,573.87v36.33l25.96,20.69s3.78,16.86-16.52,34.34c-20.29,17.47-199.82,0-199.82,0l-8.77-7.05s-12.74-.61-14.63-4.6,1.89-37.71-20.29-46.6c-22.18-8.89,19.82-35.87,19.82-35.87,0,0,114.21-3.68,214.26,2.76Z"/><path class="cls-2" d="m1082.09,570.28s17.51-6.73,27.68-2.94l10.17,3.78s-1.69,12.12,0,18.25-15.72,9.99-16.05,24.46c-.33,14.47-77.5,0-77.5,0l-11.53-.67s6.57-16.34,17.69-19.94c11.12-3.6-8.09-17.48-8.09-17.48l8.09-9.56,49.54,4.1Z"/><path class="cls-16" d="m1060.25,629.61l69.67,12.67,36.08-12.67v-57.33s-18.66-19.96-22.14-37.69-19.16-12.04-19.16-12.04l-.92-9.87s1.5-11.66-18.82-8.5c-20.32,3.17-28.69-.55-28.69-.55,0,0-28.05,32.37-26.39,50.03s-.07,76.21-.07,76.21c0,0-9.3,3.54,10.44-.26Z"/><path class="cls-16" d="m1068.46,627.99v-54.74l26.68-31.18s3.88-25.41-16.98-51.74c-20.86-26.33-205.36,0-205.36,0l-9.02,10.63s-13.1.92-15.04,6.93,1.94,56.82-20.86,70.22c-22.8,13.4,20.37,54.05,20.37,54.05,0,0,117.37,5.54,220.19-4.16Z"/><path class="cls-16" d="m1080.07,633.41s18,10.14,28.45,4.43l10.45-5.7s-1.74-18.26,0-27.5-16.15-15.06-16.5-36.86c-.34-21.8-79.65,0-79.65,0l-11.85,1.01s6.76,24.62,18.18,30.05c11.43,5.43-8.31,26.33-8.31,26.33l8.31,14.41,50.91-6.17Z"/><path class="cls-5" d="m1421.79,451.26s97.31-22.23,107.22,0c9.91,22.23,76.62-28.4,94.41-27.17s88.89-.02,88.89-.02c0,0,16.24-32.98,0-76.38-16.24-43.39-1.42-7.58-42.93-55.74,0,0-114.16-24.14-151.23,17.57-37.06,41.71-75.61,40.47-75.61,40.47,0,0-45.96,106.21-20.76,101.27Z"/><path class="cls-5" d="m1637.6,457.32s30.66-22.52,80.49-16.68c49.83,5.84,12.46-30.86,12.46-30.86,0,0-14.37-45.03-48.87-34.19-34.5,10.84-24.44,17.85-24.44,17.85,0,0-37.33,2.98-50.53,22.17-13.2,19.19-26.61,18.36-26.61,25.03s57.49,16.68,57.49,16.68Z"/><path class="cls-2" d="m1401.21,426.02s96.98,9.36,106.86,0c9.87-9.36,76.36,11.96,94.1,11.44,17.73-.52,88.59,0,88.59,0,0,0,16.19,13.88,0,32.15s-1.41,3.19-42.78,23.46c0,0-113.77,10.16-150.71-7.4-36.94-17.55-75.36-17.04-75.36-17.04,0,0-45.81-44.7-20.69-42.62Z"/><path class="cls-2" d="m1616.29,423.47s30.56,9.48,80.22,7.02c49.66-2.46,12.42,12.99,12.42,12.99,0,0-14.33,18.96-48.71,14.39s-24.35-7.52-24.35-7.52c0,0-37.2-1.25-50.36-9.33s-26.52-7.73-26.52-10.53,57.3-7.02,57.3-7.02Z"/><path class="cls-16" d="m1399.68,453.66s97.31-22.23,107.22,0,76.62-28.4,94.41-27.17c17.79,1.23,88.89-.02,88.89-.02,0,0,16.24-32.98,0-76.38-16.24-43.39-1.42-7.58-42.93-55.74,0,0-114.16-24.14-151.23,17.57-37.06,41.71-75.61,40.47-75.61,40.47,0,0-45.96,106.21-20.76,101.27Z"/><path class="cls-16" d="m1615.49,459.72s30.66-22.52,80.49-16.68c49.83,5.84,12.46-30.86,12.46-30.86,0,0-14.37-45.03-48.87-34.19s-24.44,17.85-24.44,17.85c0,0-37.33,2.98-50.53,22.17-13.2,19.19-26.61,18.36-26.61,25.03s57.49,16.68,57.49,16.68Z"/><path class="cls-3" d="m67.85,1038.87s-296.49-59.25-270.32-443.19c0,0,71.15,345.98,279.59,379.43l-9.28,63.76Z"/><path class="cls-3" d="m59.3,1070.6s-299.62,15.76-328.79-367.8c0,0,119.32,322.01,328.79,302.87v64.93Z"/><path class="cls-3" d="m85.04,1077.98s-274.57-159.24-173.59-520.91c0,0,.47,358.52,195.12,462.55l-21.53,58.37Z"/><path class="cls-3" d="m146.8,1077.46S-127.77,918.22-26.79,556.55c0,0,.47,358.52,195.12,462.55l-21.53,58.37Z"/><ellipse class="cls-3" cx="76.8" cy="995.72" rx="156.78" ry="100.71"/><path class="cls-3" d="m114.52,1054.82s-203.3-178.14-44.12-487.93c0,0-71.61,320.25,74.3,438.62l-30.18,49.31Z"/><path class="cls-3" d="m82.03,1039.36s296.49-59.25,270.32-443.19c0,0-71.15,345.98-279.59,379.43l9.28,63.76Z"/><path class="cls-3" d="m90.59,1071.09s299.62,15.76,328.79-367.8c0,0-119.32,322.01-328.79,302.87v64.93Z"/><path class="cls-3" d="m64.85,1078.47s274.57-159.24,173.59-520.91c0,0-.47,358.52-195.12,462.55l21.53,58.37Z"/><path class="cls-3" d="m3.08,1077.95s274.57-159.24,173.59-520.91c0,0-.47,358.52-195.12,462.55l21.53,58.37Z"/><path class="cls-3" d="m35.36,1055.31s203.3-178.14,44.12-487.93c0,0,71.61,320.25-74.3,438.62l30.18,49.31Z"/><path class="cls-25" d="m1592.57,341.01c.09,0-5.62-34.02,26.08-55.34,31.7-21.32,22.2-22.05,20.36-43.78-1.84-21.73,6.9-36.93,17.76-33.53s17.22,55.88,17.22,55.88c0,0,1.31,23.51-25.42,37.09-10.22,5.25-22.25,29.57-22.25,29.57,0,0-4.28,28.06-7,24.38"/><path class="cls-25" d="m1374.95,423.06l246.77,3.52s26.68-2.21,27.51-24.22-29.24-25.29-29.24-25.29l-244.41-3.49s-19.3,3.64-19.15,24.47c.15,20.83,18.52,25.01,18.52,25.01Z"/><path class="cls-25" d="m1395.56,373.86l206.13,2.94s22.29-2.28,23.03-24.29c.74-22.01-24.37-25.22-24.37-25.22l-204.16-2.91s-16.13,3.69-16.05,24.51c.08,20.83,15.42,24.96,15.42,24.96Z"/><path class="cls-25" d="m1417.08,324.69l159.23,2.27s17.23-2.35,17.86-24.36c.64-22.01-18.76-25.14-18.76-25.14l-157.71-2.25s-12.47,3.74-12.47,24.57c0,20.83,11.84,24.91,11.84,24.91Z"/><path class="cls-25" d="m1473.05,276.18s-1.7-51.65,16.53-64.2,44.96,2.78,58.64-14.47c13.68-17.25-11.26-33.98-11.26-33.98l-82.08-1.17s-27.43,4.24-26.74-22.45c.69-26.69,25.42-20.64,25.42-20.64l84.74.7s58.77-2.72,57.29,72.45-63.27,30.5-68.87,53.21-3.69,31.28-3.69,31.28l-49.97-.71Z"/><path class="cls-31" d="m1595.16,330.52c.08,0-3.07-31.37,25.32-49.12,28.39-17.75,20.26-18.94,19.8-38.88-.46-19.94,7.86-33.35,17.03-29.66s11.92,51.97,11.92,51.97c0,0-.1,21.54-23.81,32.49-9.07,4.24-20.68,25.8-20.68,25.8,0,0-5.14,25.39-7.29,21.89"/><path class="cls-25" d="m1367.95,427.32l260.3,3.71s28.14-2.35,29.02-25.68c.88-23.33-30.84-26.8-30.84-26.8l-257.81-3.68s-20.36,3.86-20.2,25.94c.16,22.08,19.54,26.5,19.54,26.5Z"/><path class="cls-25" d="m1389.69,375.18l217.43,3.1s23.52-2.41,24.3-25.75c.78-23.33-25.71-26.73-25.71-26.73l-215.36-3.07s-17.02,3.91-16.93,25.98c.09,22.08,16.26,26.46,16.26,26.46Z"/><path class="cls-25" d="m1412.4,323.05l167.96,2.39s18.17-2.49,18.85-25.82-19.78-26.64-19.78-26.64l-166.36-2.37s-13.16,3.96-13.15,26.04,12.49,26.4,12.49,26.4Z"/><path class="cls-31" d="m1467.23,273.51s-1.7-51.65,16.53-64.2c18.23-12.56,44.96,2.78,58.64-14.47,13.68-17.25-11.26-33.98-11.26-33.98l-82.08-1.17s-27.43,4.24-26.74-22.45c.69-26.69,25.42-20.64,25.42-20.64l84.74.7s58.77-2.72,57.29,72.45c-1.48,75.17-63.27,30.5-68.87,53.21s-3.69,31.28-3.69,31.28l-49.97-.71Z"/><ellipse class="cls-21" cx="1440.01" cy="124.48" rx="5.49" ry="5.52" transform="translate(-2.72 212.02) rotate(-8.41)"/><path class="cls-4" d="m1426.87,147.62s-8.18,6.58-20.96,5.24c-12.78-1.34-29.41-4.83-29.41-4.83l-10.6-1.28,4.4,2.9-11.97-.17,9.41,2.97s20.4,6.04,38.11,5.94c17.71-.1,28.16-6.13,28.16-6.13,0,0-7.13-4.59-7.13-4.64Z"/><ellipse class="cls-34" cx="1428.86" cy="137.49" rx="1.24" ry="1.25" transform="translate(-4.74 210.53) rotate(-8.41)"/><ellipse class="cls-8" cx="1442.67" cy="124.34" rx="2.48" ry="2.49" transform="translate(-2.67 212.4) rotate(-8.41)"/><path class="cls-31" d="m1416.9,322.64l159.23,2.27s17.23-2.35,17.86-24.36-18.76-25.14-18.76-25.14l-157.71-2.25s-12.47,3.74-12.47,24.57c0,20.83,11.84,24.91,11.84,24.91Z"/><path class="cls-31" d="m1395.53,373.95l206.13,2.94s22.29-2.28,23.03-24.29c.74-22.01-24.37-25.22-24.37-25.22l-204.16-2.91s-16.13,3.69-16.05,24.51c.08,20.83,15.42,24.96,15.42,24.96Z"/><path class="cls-31" d="m1373.85,425.98l246.77,3.52s26.68-2.21,27.51-24.22c.83-22.01-29.24-25.29-29.24-25.29l-244.41-3.49s-19.3,3.64-19.15,24.47c.15,20.83,18.52,25.01,18.52,25.01Z"/><path class="cls-20" d="m1459.13,921.61l-4.35,88.16-350.66-17.35s-33.94,5.68-32.48-45.74c1.46-51.42,36.87-42.37,36.87-42.37l350.62,17.3Z"/><path class="cls-20" d="m1870.5,937.57l-3.86,78.3,350.67,17.26s33.25,8.17,36.58-37.4c3.33-45.57-32.76-40.86-32.76-40.86l-350.62-17.3Z"/><path class="cls-20" d="m1441.47,886.37l-5.59,113.32,446.64,21.98s42.3,11.54,46.93-54.42c4.63-65.96-41.4-58.84-41.4-58.84l-446.58-22.03Z"/><ellipse class="cls-20" cx="1591.35" cy="1002.57" rx="14.6" ry="34.8" transform="translate(511.58 2542.58) rotate(-87.18)"/><ellipse class="cls-20" cx="1788.06" cy="1011.94" rx="14.6" ry="34.8" transform="translate(689.24 2747.96) rotate(-87.18)"/><path class="cls-14" d="m1869.74,946.85l-3.86,78.3,350.67,17.26s33.25,8.17,36.58-37.4c3.33-45.57-32.76-40.86-32.76-40.86l-350.62-17.3Z"/><path class="cls-14" d="m1440.72,895.64l-5.59,113.32,446.64,21.98s42.3,11.54,46.93-54.42c4.63-65.96-41.4-58.84-41.4-58.84l-446.58-22.03Z"/><ellipse class="cls-20" cx="1590.59" cy="1011.84" rx="14.6" ry="34.8" transform="translate(501.6 2550.64) rotate(-87.18)"/><ellipse class="cls-20" cx="1787.31" cy="1021.21" rx="14.6" ry="34.8" transform="translate(679.26 2756.02) rotate(-87.18)"/><ellipse class="cls-20" cx="1446.17" cy="911.02" rx="106.89" ry="103.5" transform="translate(465 2310.54) rotate(-87.18)"/><ellipse class="cls-20" cx="1441.07" cy="902.74" rx="106.89" ry="103.5" transform="translate(468.41 2297.57) rotate(-87.18)"/><path class="cls-20" d="m1352.01,834.4l47.1,2.32s-1.47,21.6-24.64,21.03c-23.17-.57-22.45-23.35-22.45-23.35Z"/><ellipse class="cls-20" cx="1415.85" cy="837.6" rx="22.23" ry="22.34" transform="translate(509.5 2210.46) rotate(-87.18)"/><path class="cls-20" d="m1392.2,836.63l47.1,2.32s-1.47,21.6-24.64,21.03-22.45-23.35-22.45-23.35Z"/><ellipse class="cls-20" cx="1369.82" cy="845.81" rx="5.7" ry="5.63" transform="translate(457.53 2172.28) rotate(-87.18)"/><ellipse class="cls-20" cx="1409.64" cy="847.99" rx="5.7" ry="5.63" transform="translate(493.22 2214.13) rotate(-87.18)"/><ellipse class="cls-14" cx="1440.31" cy="912.02" rx="106.89" ry="103.5" transform="translate(458.43 2305.64) rotate(-87.18)"/><ellipse class="cls-20" cx="1133.71" cy="910.02" rx="22.23" ry="22.34" transform="translate(168.92 1997.51) rotate(-87.18)"/><ellipse class="cls-20" cx="1133.37" cy="910.33" rx="12.89" ry="12.35" transform="translate(168.3 1997.46) rotate(-87.18)"/><path class="cls-14" d="m1458.37,930.89l-4.35,88.16-350.66-17.35s-33.94,5.68-32.48-45.74,36.87-42.37,36.87-42.37l350.62,17.3Z"/><ellipse class="cls-14" cx="1132.95" cy="919.29" rx="22.23" ry="22.34" transform="translate(158.95 2005.57) rotate(-87.18)"/><ellipse class="cls-20" cx="1132.61" cy="919.6" rx="12.89" ry="12.35" transform="translate(158.32 2005.52) rotate(-87.18)"/><path class="cls-30" d="m1071.02,960.45s131.07,68.27,312.93,15.44c0,0-161.58-21.29-312.93-15.44Z"/><polygon class="cls-12" points="1142.91 963.1 1158.72 992.25 1178.03 964.84 1142.91 963.1"/><polygon class="cls-12" points="1185.22 965.19 1201.03 994.34 1220.34 966.92 1185.22 965.19"/><polygon class="cls-12" points="1229.12 967.36 1244.93 996.5 1264.25 969.09 1229.12 967.36"/><polygon class="cls-12" points="1273.83 969.56 1289.64 998.71 1308.95 971.3 1273.83 969.56"/><polygon class="cls-12" points="1103.69 960.74 1119.5 989.89 1138.81 962.47 1103.69 960.74"/><ellipse class="cls-20" cx="1418.3" cy="842.63" rx="22.23" ry="22.34" transform="translate(506.81 2217.68) rotate(-87.18)"/><ellipse class="cls-20" cx="1374.75" cy="842.16" rx="23.61" ry="23.98" transform="translate(465.86 2173.74) rotate(-87.18)"/><ellipse class="cls-14" cx="1373.32" cy="844.57" rx="22.23" ry="22.34" transform="translate(462.09 2174.6) rotate(-87.18)"/><path class="cls-21" d="m1351.28,843.15l47.1,2.32s-1.47,21.6-24.64,21.03c-23.17-.57-22.45-23.35-22.45-23.35Z"/><ellipse class="cls-8" cx="1370.03" cy="851.69" rx="5.7" ry="5.63" transform="translate(451.86 2178.09) rotate(-87.18)"/><ellipse class="cls-14" cx="1416.7" cy="846.95" rx="22.23" ry="22.34" transform="translate(500.96 2220.19) rotate(-87.18)"/><path class="cls-21" d="m1391.48,845.14l47.1,2.32s-1.47,21.6-24.64,21.03c-23.17-.57-22.45-23.35-22.45-23.35Z"/><ellipse class="cls-8" cx="1412.17" cy="855.7" rx="5.7" ry="5.63" transform="translate(487.91 2223.99) rotate(-87.18)"/><path class="cls-22" d="m292.84,363.12l309.26-16.49s3.08-175.57-164.93-167.55c-168.01,8.03-144.34,184.03-144.34,184.03Z"/><path class="cls-22" d="m301.73,378.53l245.86-13.11s2.02-146.93-131.55-140.59c-133.57,6.34-114.31,153.69-114.31,153.69Z"/><ellipse class="cls-22" cx="253.47" cy="209.71" rx="20.4" ry="21.27" transform="translate(-23.14 31.64) rotate(-6.83)"/><ellipse class="cls-22" cx="225.34" cy="212.17" rx="20.4" ry="21.27" transform="translate(-23.64 28.31) rotate(-6.83)"/><path class="cls-22" d="m536.22,425.7s26.36,1.45,26.35-8.25c0-9.7-4.72-80.54-4.72-80.54,0,0-21.69-29.42-35.87,1.91,0,0-6.76,40.72,4.4,75.18,0,0,1.44,11.58,9.83,11.7Z"/><path class="cls-22" d="m303.95,439.52s26.36,1.45,26.35-8.25-4.72-80.54-4.72-80.54c0,0-21.69-29.42-35.87,1.91,0,0-6.76,40.72,4.4,75.18,0,0,1.44,11.58,9.83,11.7Z"/><path class="cls-22" d="m348.99,447.09s29.37,1.43,29.39-8.75c.03-10.18-4.95-84.51-4.95-84.51,0,0-24.06-30.8-39.97,2.13,0,0-7.69,42.75,4.62,78.88,0,0,1.56,12.15,10.91,12.25Z"/><path class="cls-15" d="m526.86,286.91s37.21,8.77,69.5-20.4c32.29-29.17,41.41,6.91,15.43,19.42-25.98,12.51-53.8,30.64-92.21,32.26-38.41,1.62,7.29-31.29,7.29-31.29Z"/><path class="cls-15" d="m307.01,433.85s25.77,1.33,25.78-7.86-4.47-76.32-4.47-76.32c0,0-21.15-27.84-35.07,1.87,0,0-6.68,38.59,4.17,71.23,0,0,1.38,10.97,9.59,11.08Z"/><path class="cls-15" d="m546.59,420.99s25.77,1.33,25.78-7.86c0-9.19-4.47-76.32-4.47-76.32,0,0-21.15-27.84-35.07,1.87,0,0-6.68,38.59,4.17,71.23,0,0,1.38,10.97,9.59,11.08Z"/><path class="cls-15" d="m296.58,376.6l304.11-16.21s2.21-186.74-163.01-178.92c-165.21,7.82-141.1,195.13-141.1,195.13Z"/><path class="cls-15" d="m574.42,424.86s29.37,1.43,29.39-8.75-4.95-84.51-4.95-84.51c0,0-24.06-30.8-39.97,2.13,0,0-7.69,42.75,4.62,78.88,0,0,1.56,12.15,10.91,12.25Z"/><path class="cls-22" d="m351.24,208.13s83.01-58.41,174.31-9.29c0,0-33.53,49.76-84.3,53.42-50.77,3.66-90.01-44.13-90.01-44.13Z"/><path class="cls-22" d="m572.39,241.72s-63.63,13.19-51.77,29.13c11.86,15.94,69.03,4.5,69.03,4.5l-17.26-33.63Z"/><path class="cls-22" d="m310.74,266.33s48.76-6.54,49.94,13.05c1.17,19.59-60.35,21.72-60.35,21.72l10.41-34.77Z"/><ellipse class="cls-22" cx="266.1" cy="255.64" rx="57.09" ry="60.14" transform="translate(-25.61 29.67) rotate(-6.09)"/><ellipse class="cls-15" cx="262.44" cy="255.58" rx="56.84" ry="59.38" transform="translate(-27.85 32.14) rotate(-6.66)"/><ellipse class="cls-15" cx="222.54" cy="212.18" rx="16.92" ry="17.67" transform="translate(-23.14 27.28) rotate(-6.67)"/><ellipse class="cls-15" cx="252.86" cy="210.01" rx="17.59" ry="18.47" transform="translate(-21.41 28.86) rotate(-6.27)"/><ellipse class="cls-21" cx="252.73" cy="215.82" rx="10.8" ry="11.4" transform="translate(-21.12 27.51) rotate(-5.98)"/><ellipse class="cls-21" cx="222.94" cy="217.53" rx="10.8" ry="11.4" transform="translate(-21.46 24.42) rotate(-5.98)"/><path class="cls-15" d="m240.09,215.33l28.63-1.53s-1.2-16.32-15.3-16c-14.1.32-13.33,17.53-13.33,17.53Z"/><path class="cls-15" d="m207.58,217.09l28.63-1.53s-1.32-18.34-15.42-18.08c-14.1.27-13.21,19.6-13.21,19.6Z"/><ellipse class="cls-8" cx="252.98" cy="219.59" rx="3.73" ry="3.79" transform="translate(-43.16 63) rotate(-13.09)"/><ellipse class="cls-8" cx="222.18" cy="221.16" rx="3.73" ry="3.79" transform="translate(-44.32 56.07) rotate(-13.09)"/><path class="cls-30" d="m228.38,272.55s12.15,20.08,25.52-1.36c0,0-13.49-3.75-25.52,1.36Z"/><path class="cls-22" d="m444.99,306.32s92.99-3.99,74.59,11.88c-18.41,15.87-40.32,28.44-72.69,30.36-32.37,1.92-70.47-5.27-71.92-19.29-1.45-14.02,70.02-22.95,70.02-22.95Z"/><path class="cls-22" d="m340.27,447.7s29.37,1.43,29.39-8.75c.03-10.18-4.95-84.51-4.95-84.51,0,0-24.06-30.8-39.97,2.13,0,0-7.69,42.75,4.62,78.88,0,0,1.56,12.15,10.91,12.25Z"/><path class="cls-15" d="m344.82,444.09s29.37,1.43,29.39-8.75c.03-10.18-4.95-84.51-4.95-84.51,0,0-24.06-30.8-39.97,2.13,0,0-7.69,42.75,4.62,78.88,0,0,1.56,12.15,10.91,12.25Z"/><path class="cls-22" d="m581.26,433.27s29.37,1.43,29.39-8.75-4.95-84.51-4.95-84.51c0,0-24.06-30.8-39.97,2.13,0,0-7.69,42.75,4.62,78.88,0,0,1.56,12.15,10.91,12.25Z"/><path class="cls-15" d="m539.27,420.02s25.77,1.33,25.78-7.86c0-9.19-4.47-76.32-4.47-76.32,0,0-21.15-27.84-35.07,1.87,0,0-6.68,38.59,4.17,71.23,0,0,1.38,10.97,9.59,11.08Z"/><path class="cls-22" d="m572.54,433.88s29.37,1.43,29.39-8.75-4.95-84.51-4.95-84.51c0,0-24.06-30.8-39.97,2.13,0,0-7.69,42.75,4.62,78.88,0,0,1.56,12.15,10.91,12.25Z"/><path class="cls-15" d="m577.09,430.26s29.37,1.43,29.39-8.75c.03-10.18-4.95-84.51-4.95-84.51,0,0-24.06-30.8-39.97,2.13,0,0-7.69,42.75,4.62,78.88,0,0,1.56,12.15,10.91,12.25Z"/><path class="cls-10" d="m1672.27,400.6v101.16l159.03,57.62s23.13,46.95-101.2,95.61c-124.33,48.66-1224.28,0-1224.28,0l-53.76-19.63s-78.07-1.71-89.64-12.8c-11.57-11.1,11.57-105-124.33-129.75-135.9-24.76,121.44-99.88,121.44-99.88,0,0,699.74-10.24,1312.74,7.68Z"/><path class="cls-9" d="m1681,400.48v92.18l158.25,52.51s23.02,42.78-100.7,87.12c-123.72,44.34-1218.25,0-1218.25,0l-53.49-17.89s-77.69-1.56-89.19-11.67c-11.51-10.11,11.51-95.68-123.72-118.24-135.23-22.56,120.84-91.01,120.84-91.01,0,0,696.29-9.33,1306.26,7Z"/><ellipse class="cls-1" cx="960.74" cy="288.49" rx="102.82" ry="94.49"/><path class="cls-1" d="m876.68,299.65l-49.55-29.81-51.03,73.93s-1.22,8.61-6.53,7.86c-5.3-.75-21.16-3.63-21.16-3.63,0,0-13.12-2.75-6.59-8.37s12.24-3,12.24-3l6.94,1.5,53.86-80.24s6.17-12.21,12.26-9.48,54.61,29.46,54.61,29.46l11.87,5.52-6.03,16.46-10.9-.2Z"/><path class="cls-1" d="m892.75,261.51l-63.97-25.77-65.87,63.91s-1.58,7.44-8.43,6.8-27.32-3.14-27.32-3.14c0,0-8.4-1.71-8.5-7.24s15.8-2.59,15.8-2.59l8.95,1.3,69.53-69.36s7.96-10.56,15.83-8.2c7.87,2.36,70.5,25.46,70.5,25.46l15.33,4.77-7.79,14.23-14.07-.17Z"/><path class="cls-1" d="m1038.91,261.51l63.97-25.77,65.87,63.91s1.58,7.44,8.43,6.8,27.32-3.14,27.32-3.14c0,0,8.4-1.71,8.5-7.24.11-5.52-15.8-2.59-15.8-2.59l-8.95,1.3-69.53-69.36s-7.96-10.56-15.83-8.2-70.5,25.46-70.5,25.46l-15.33,4.77,7.79,14.23,14.07-.17Z"/><path class="cls-1" d="m1050.92,299.69l49.55-29.81,51.03,73.93s1.22,8.61,6.53,7.86c5.3-.75,21.16-3.63,21.16-3.63,0,0,13.12-2.75,6.59-8.37s-12.24-3-12.24-3l-6.94,1.5-53.86-80.24s-6.17-12.21-12.26-9.48-54.61,29.46-54.61,29.46l-11.87,5.52,6.03,16.46,10.9-.2Z"/><path class="cls-1" d="m1028.27,355.8l61.2-69.37s5.71-10.12,11.42-6,7.14,10.12,7.14,10.12l23.52,65.25h16.76s8.48.74,6.44,5.24-7.17,6.35-7.17,6.35h-27.69s-9.21-2.6-7.17-8.6-14.69-54.93-14.69-54.93l-39.58,49.65-30.19,2.28Z"/><path class="cls-1" d="m907.51,360.17l-61.2-69.37s-5.71-10.12-11.42-6-7.14,10.12-7.14,10.12l-23.52,65.25h-16.76s-8.48.74-6.44,5.24,7.17,6.35,7.17,6.35h27.69s9.21-2.6,7.17-8.6,14.69-54.93,14.69-54.93l39.58,49.65,30.19,2.28Z"/><path class="cls-1" d="m962.99,197.19s29.58,1.17,48.56,11.18-40.6,58.56-40.6,58.56c0,0-10.2,9.94-10.61,0s2.65-69.74,2.65-69.74Z"/><path class="cls-1" d="m963.59,197.24s-29.58,1.17-48.56,11.18,40.6,58.56,40.6,58.56c0,0,10.2,9.94,10.61,0,.41-9.94-2.65-69.74-2.65-69.74Z"/><path class="cls-1" d="m998.43,363.63l72.63-39.93s15.91-9.37,16.12,0c.2,9.37-13.67,18.75-13.67,18.75l-80.34,41.32,5.26-20.13Z"/><path class="cls-1" d="m937.03,221.44l-3.25,12.15s-29.9,7.74-42.22,21.98-13.39-.9-13.39-.9c0,0,9.15-17.94,58.86-33.23Z"/><path class="cls-1" d="m952.4,238.77l-3.25,12.15s-29.9,7.74-42.22,21.98c-12.33,14.24-13.39-.9-13.39-.9,0,0,9.15-17.94,58.86-33.23Z"/><path class="cls-1" d="m975.25,251.14l-3.25,12.15s-29.9,7.74-42.22,21.98c-12.33,14.24-13.39-.9-13.39-.9,0,0,9.15-17.94,58.86-33.23Z"/><path class="cls-1" d="m993.1,221.52l3.25,12.15s29.9,7.74,42.22,21.98,13.39-.9,13.39-.9c0,0-9.15-17.94-58.86-33.23Z"/><path class="cls-1" d="m977.59,238.77l3.25,12.15s29.9,7.74,42.22,21.98c12.33,14.24,13.39-.9,13.39-.9,0,0-9.15-17.94-58.86-33.23Z"/><path class="cls-1" d="m953.52,248.14l3.25,12.15s29.9,7.74,42.22,21.98,13.39-.9,13.39-.9c0,0-9.15-17.94-58.86-33.23Z"/><path class="cls-1" d="m932.79,363.78l-72.63-39.93s-15.91-9.37-16.12,0,13.67,18.75,13.67,18.75l80.34,41.32-5.26-20.13Z"/><ellipse class="cls-1" cx="962.37" cy="360.29" rx="48.56" ry="44.43"/><path class="cls-1" d="m925.69,367.66l-72.63-39.93s-15.91-9.37-16.12,0c-.2,9.37,0,65.43,0,65.43h-15.1s-6.73,2.44-4.69,6.19l2.04,3.75h28.68c7.64-4.87,2.74-9.75,2.74-9.75v-46.87s80.34,41.32,80.34,41.32l-5.26-20.13Z"/><ellipse class="cls-1" cx="962.58" cy="372.1" rx="48.56" ry="44.43"/><ellipse class="cls-1" cx="972.98" cy="364.6" rx="9.79" ry="9.75"/><ellipse class="cls-1" cx="950.13" cy="364.6" rx="9.79" ry="9.75"/><ellipse class="cls-1" cx="992.98" cy="354.9" rx="6.53" ry="5.95"/><ellipse class="cls-1" cx="930.96" cy="354.95" rx="6.53" ry="5.95"/><ellipse class="cls-1" cx="972.98" cy="364.49" rx="4.49" ry="4.24"/><ellipse class="cls-1" cx="950.13" cy="364.7" rx="4.49" ry="4.24"/><path class="cls-1" d="m951.35,383.16s8.22,12.23,19.19,0c0,0-9.95-2.64-19.19,0Z"/><path class="cls-1" d="m1006.24,367.6l72.63-39.93s15.91-9.37,16.12,0c.2,9.37,0,65.43,0,65.43h15.1s6.73,2.44,4.69,6.19l-2.04,3.75h-28.68c-7.64-4.87-2.74-9.75-2.74-9.75v-46.87l-80.34,41.32,5.26-20.13Z"/><ellipse class="cls-29" cx="960.66" cy="293.95" rx="102.82" ry="94.49"/><path class="cls-29" d="m876.6,305.11l-49.55-29.81-51.03,73.93s-1.22,8.61-6.53,7.86c-5.3-.75-21.16-3.63-21.16-3.63,0,0-13.12-2.75-6.59-8.37s12.24-3,12.24-3l6.94,1.5,53.86-80.24s6.17-12.21,12.26-9.48,54.61,29.46,54.61,29.46l11.87,5.52-6.03,16.46-10.9-.2Z"/><path class="cls-29" d="m892.66,266.98l-63.97-25.77-65.87,63.91s-1.58,7.44-8.43,6.8-27.32-3.14-27.32-3.14c0,0-8.4-1.71-8.5-7.24s15.8-2.59,15.8-2.59l8.95,1.3,69.53-69.36s7.96-10.56,15.83-8.2c7.87,2.36,70.5,25.46,70.5,25.46l15.33,4.77-7.79,14.23-14.07-.17Z"/><path class="cls-29" d="m1038.83,266.98l63.97-25.77,65.87,63.91s1.58,7.44,8.43,6.8,27.32-3.14,27.32-3.14c0,0,8.4-1.71,8.5-7.24.11-5.52-15.8-2.59-15.8-2.59l-8.95,1.3-69.53-69.36s-7.96-10.56-15.83-8.2c-7.87,2.36-70.5,25.46-70.5,25.46l-15.33,4.77,7.79,14.23,14.07-.17Z"/><path class="cls-29" d="m1050.83,305.15l49.55-29.81,51.03,73.93s1.22,8.61,6.53,7.86,21.16-3.63,21.16-3.63c0,0,13.12-2.75,6.59-8.37s-12.24-3-12.24-3l-6.94,1.5-53.86-80.24s-6.17-12.21-12.26-9.48c-6.1,2.73-54.61,29.46-54.61,29.46l-11.87,5.52,6.03,16.46,10.9-.2Z"/><path class="cls-29" d="m1028.19,361.26l61.2-69.37s5.71-10.12,11.42-6,7.14,10.12,7.14,10.12l23.52,65.25h16.76s8.48.74,6.44,5.24-7.17,6.35-7.17,6.35h-27.69s-9.21-2.6-7.17-8.6-14.69-54.93-14.69-54.93l-39.58,49.65-30.19,2.28Z"/><path class="cls-29" d="m907.43,365.64l-61.2-69.37s-5.71-10.12-11.42-6c-5.71,4.12-7.14,10.12-7.14,10.12l-23.52,65.25h-16.76s-8.48.74-6.44,5.24,7.17,6.35,7.17,6.35h27.69s9.21-2.6,7.17-8.6c-2.04-6,14.69-54.93,14.69-54.93l39.58,49.65,30.19,2.28Z"/><path class="cls-32" d="m962.9,202.65s29.58,1.17,48.56,11.18c18.97,10.01-40.6,58.56-40.6,58.56,0,0-10.2,9.94-10.61,0s2.65-69.74,2.65-69.74Z"/><path class="cls-32" d="m963.51,202.71s-29.58,1.17-48.56,11.18c-18.97,10.01,40.6,58.56,40.6,58.56,0,0,10.2,9.94,10.61,0s-2.65-69.74-2.65-69.74Z"/><path class="cls-32" d="m998.35,369.09l72.63-39.93s15.91-9.37,16.12,0c.2,9.37-13.67,18.75-13.67,18.75l-80.34,41.32,5.26-20.13Z"/><path class="cls-32" d="m936.95,226.91l-3.25,12.15s-29.9,7.74-42.22,21.98c-12.33,14.24-13.39-.9-13.39-.9,0,0,9.15-17.94,58.86-33.23Z"/><path class="cls-32" d="m952.32,244.23l-3.25,12.15s-29.9,7.74-42.22,21.98-13.39-.9-13.39-.9c0,0,9.15-17.94,58.86-33.23Z"/><path class="cls-32" d="m975.17,256.61l-3.25,12.15s-29.9,7.74-42.22,21.98-13.39-.9-13.39-.9c0,0,9.15-17.94,58.86-33.23Z"/><path class="cls-32" d="m993.01,226.99l3.25,12.15s29.9,7.74,42.22,21.98c12.33,14.24,13.39-.9,13.39-.9,0,0-9.15-17.94-58.86-33.23Z"/><path class="cls-32" d="m977.51,244.23l3.25,12.15s29.9,7.74,42.22,21.98c12.33,14.24,13.39-.9,13.39-.9,0,0-9.15-17.94-58.86-33.23Z"/><path class="cls-32" d="m953.43,253.61l3.25,12.15s29.9,7.74,42.22,21.98c12.33,14.24,13.39-.9,13.39-.9,0,0-9.15-17.94-58.86-33.23Z"/><path class="cls-32" d="m932.7,369.24l-72.63-39.93s-15.91-9.37-16.12,0c-.2,9.37,13.67,18.75,13.67,18.75l80.34,41.32-5.26-20.13Z"/><ellipse class="cls-32" cx="962.29" cy="365.76" rx="48.56" ry="44.43"/><path class="cls-29" d="m925.6,373.12l-72.63-39.93s-15.91-9.37-16.12,0,0,65.43,0,65.43h-15.1s-6.73,2.44-4.69,6.19l2.04,3.75h28.68c7.64-4.87,2.74-9.75,2.74-9.75v-46.87s80.34,41.32,80.34,41.32l-5.26-20.13Z"/><ellipse class="cls-29" cx="962.49" cy="377.57" rx="48.56" ry="44.43"/><ellipse class="cls-12" cx="972.9" cy="370.07" rx="9.79" ry="9.75"/><ellipse class="cls-12" cx="950.05" cy="370.07" rx="9.79" ry="9.75"/><ellipse class="cls-12" cx="992.89" cy="360.37" rx="6.53" ry="5.95"/><ellipse class="cls-12" cx="930.87" cy="360.41" rx="6.53" ry="5.95"/><ellipse class="cls-8" cx="972.9" cy="369.95" rx="4.49" ry="4.24"/><ellipse class="cls-8" cx="950.05" cy="370.16" rx="4.49" ry="4.24"/><path class="cls-30" d="m951.26,388.63s8.22,12.23,19.19,0c0,0-9.95-2.64-19.19,0Z"/><path class="cls-29" d="m1006.15,373.07l72.63-39.93s15.91-9.37,16.12,0c.2,9.37,0,65.43,0,65.43h15.1s6.73,2.44,4.69,6.19l-2.04,3.75h-28.68c-7.64-4.87-2.74-9.75-2.74-9.75v-46.87l-80.34,41.32,5.26-20.13Z"/><path class="cls-7" d="m452.15,556.58h-34.72l-2.35-8.44c-.97.38-3.41,1.67-7.3,3.87-2.5,1.61-5.27,3.75-8.32,6.41l-3.62-7.68c-.72-1.52-1.76-3.66-3.11-6.41l-3.43,12.25h-18.41c2.71-10.45,6.9-27.7,12.57-51.73,3.47-16.08,6.37-31.34,8.7-45.77h38.15c1.18,6.64,4.42,22.11,9.71,46.4,2.92,12.7,6.96,29.73,12.12,51.1Zm-40.05-20.82c-.72-2.24-1.99-5.88-3.81-10.92-1.1-2.79-2.77-6.64-5.01-11.55-.97,2.46-2.5,6.47-4.57,12.06-1.14,3.22-2.5,7.6-4.06,13.14,1.27,0,4.15-.25,8.63-.76,2.71-.38,5.65-1.04,8.82-1.97Z"/><path class="cls-7" d="m536.26,459.08c-3.51,10.41-9.14,27.4-16.88,50.97-3.55,11.09-8.15,26.6-13.77,46.53h-22.09c-2.84-9.65-7.58-25.41-14.22-47.29-3.77-12.1-9.35-28.84-16.76-50.21h44.88c.42,4.02,1.42,10.56,2.98,19.61,1.06,4.82,2.71,11.47,4.95,19.93,1.18-4.1,2.92-10.79,5.21-20.06,1.06-4.99,2.26-11.49,3.62-19.49h22.09Z"/><path class="cls-7" d="m624.62,505.74c0,14.94-3.85,27.57-11.55,37.9-8.08,10.79-18.43,16.19-31.04,16.19s-23.51-5.44-31.55-16.31c-7.58-10.24-11.36-22.83-11.36-37.77,0-15.95,4.13-28.48,12.38-37.58,7.79-8.55,17.96-12.82,30.53-12.82s22.43,4.3,30.21,12.89c8.25,9.14,12.38,21.65,12.38,37.51Zm-30.53,11.17c0-11.76-3.98-17.65-11.93-17.65s-11.62,5.92-11.62,17.77c0,4.74,1.02,9.16,3.05,13.27,2.29,4.61,5.1,6.92,8.44,6.92s6.13-2.35,8.63-7.05c2.29-4.27,3.43-8.7,3.43-13.27Z"/><path class="cls-7" d="m673.5,459.08l-2.48,51.86c-.47,11.17-1.02,26.39-1.65,45.64h-35.61l-4.32-97.5h44.05Z"/><path class="cls-7" d="m765.41,508.6c0,15.28-4.74,27.29-14.22,36.05-9.78,9.1-23.55,13.65-41.32,13.65-11.43,0-20.25-.57-26.47-1.71l-1.71-47.16c-.55-12.1-1.55-28.8-2.98-50.08,9.18-1.31,18.77-1.97,28.75-1.97,17.81,0,31.76,4.15,41.83,12.44,10.75,8.89,16.12,21.82,16.12,38.78Zm-26.03,7.81c0-6.22-2.01-10.81-6.03-13.77-3.34-2.45-7.62-3.58-12.82-3.36l-.89,39.8c5.42-.34,9.84-2.09,13.27-5.27,4.32-3.94,6.47-9.73,6.47-17.39Z"/><path class="cls-7" d="m873.77,459.08l-1.84,39.93c-1.65-.25-4.3-.57-7.93-.95-2.24-.13-5.88-.25-10.92-.38-.25,2.5-.7,8.53-1.33,18.09-.47,9.27-1.23,22.87-2.29,40.82h-30.72c-.34-8.55-.97-21.98-1.9-40.31-.42-6.35-.87-12.55-1.33-18.6l-10.03.38-9.08.95-1.59-39.93h78.96Z"/><path class="cls-7" d="m973.42,459.08c-.72,10.41-1.67,27.36-2.86,50.84-.34,11.17-.93,26.72-1.78,46.66h-32.37l-.7-21.33c-.76.25-2.31.87-4.63,1.84-2.75,1.19-4.7,2.14-5.84,2.86l-3.3-7.81c-.68-1.69-1.8-4.08-3.36-7.17l-.63,31.61h-35.74l-1.84-46.66c-.38-12.14-1.33-29.09-2.86-50.84h44.56l-2.98,60.05c3.09.3,6.05.38,8.89.25,1.82-.04,4.27-.21,7.36-.51l-3.24-59.79h41.32Z"/><path class="cls-7" d="m1045.34,459.08l-2.73,40.18c-1.57-.25-4.95-.7-10.16-1.33-3.55-.34-7.45-.55-11.68-.63l-.95,12.12c4.65.13,12.25.02,22.79-.32-.47,1.57-1.21,4.49-2.22,8.76-.59,2.58-1.12,5.57-1.59,8.95-1.23-.3-4.3-.68-9.2-1.14-2.29-.13-5.67-.17-10.16-.13l-.63,14.16c3.17-.04,9.01-.32,17.52-.83,1.61-.13,4.25-.63,7.93-1.52-.34,1.31-1.12,4.46-2.35,9.46-.59,2.58-1.31,5.84-2.16,9.78h-56.81l-1.84-49.77c-.34-11.38-1.17-27.29-2.48-47.73h66.71Z"/><path class="cls-7" d="m1161.95,505.74c0,14.94-3.85,27.57-11.55,37.9-8.08,10.79-18.43,16.19-31.04,16.19s-23.51-5.44-31.55-16.31c-7.58-10.24-11.36-22.83-11.36-37.77,0-15.95,4.13-28.48,12.38-37.58,7.79-8.55,17.96-12.82,30.53-12.82s22.43,4.3,30.21,12.89c8.25,9.14,12.38,21.65,12.38,37.51Zm-30.53,11.17c0-11.76-3.98-17.65-11.93-17.65s-11.62,5.92-11.62,17.77c0,4.74,1.02,9.16,3.05,13.27,2.29,4.61,5.1,6.92,8.44,6.92s6.13-2.35,8.63-7.05c2.29-4.27,3.43-8.7,3.43-13.27Z"/><path class="cls-7" d="m1252.72,459.08l-1.46,41.07c-.42,11.72-.63,29.45-.63,53.19-10.83,3.89-21.88,5.84-33.13,5.84-13.88,0-24.44-2.77-31.67-8.32-6.14-4.7-10.47-12.02-13.01-21.96-1.48-5.71-2.88-16.17-4.19-31.36-1.27-14.05-2.05-26.87-2.35-38.47h40.94c-.21,5.59-.47,14.68-.76,27.29-.13,7.03-.09,16.99.13,29.9.04,9.82.89,16.44,2.54,19.87,1.73,3.64,5.21,5.46,10.41,5.46,1.48,0,3.13-.42,4.95-1.27,0-8.72-.25-22.58-.76-41.58-.42-9.52-1.21-22.75-2.35-39.67h31.36Z"/><path class="cls-7" d="m1335.43,459.08l-1.84,39.93c-1.65-.25-4.3-.57-7.93-.95-2.24-.13-5.88-.25-10.92-.38-.25,2.5-.7,8.53-1.33,18.09-.47,9.27-1.23,22.87-2.29,40.82h-30.72c-.34-8.55-.97-21.98-1.9-40.31-.42-6.35-.87-12.55-1.33-18.6l-10.03.38-9.08.95-1.59-39.93h78.96Z"/><path class="cls-7" d="m1421.19,491.2c0,7.62-1.82,14.2-5.46,19.74-3.09,4.66-6.94,7.96-11.55,9.9,2.96,1.27,5.37,3.36,7.24,6.28,1.86,2.92,2.79,6.03,2.79,9.33,0,8.21-4.38,14.22-13.14,18.03-6.77,2.96-15.66,4.44-26.66,4.44-9.48,0-19.66-.78-30.53-2.35-.3-9.86-.91-25.94-1.84-48.24-.63-11.98-1.59-28.39-2.86-49.26,8.04-1.57,18.22-2.35,30.53-2.35,34.32,0,51.48,11.49,51.48,34.47Zm-27.93,42.08c0-4.91-3.51-7.36-10.54-7.36-.72,0-1.46.04-2.22.13l-.38,15.55c8.76.38,13.14-2.39,13.14-8.32Zm2.09-30.15c0-3.26-1.31-5.75-3.94-7.49-2.37-1.57-5.48-2.31-9.33-2.22l-.95,19.11c9.48.34,14.22-2.79,14.22-9.39Z"/><path class="cls-7" d="m1503.01,556.58h-34.72l-2.35-8.44c-.97.38-3.41,1.67-7.3,3.87-2.5,1.61-5.27,3.75-8.32,6.41l-3.62-7.68c-.72-1.52-1.76-3.66-3.11-6.41l-3.43,12.25h-18.41c2.71-10.45,6.9-27.7,12.57-51.73,3.47-16.08,6.37-31.34,8.7-45.77h38.15c1.18,6.64,4.42,22.11,9.71,46.4,2.92,12.7,6.96,29.73,12.12,51.1Zm-40.05-20.82c-.72-2.24-1.99-5.88-3.81-10.92-1.1-2.79-2.77-6.64-5.01-11.55-.97,2.46-2.5,6.47-4.57,12.06-1.14,3.22-2.5,7.6-4.06,13.14,1.27,0,4.15-.25,8.63-.76,2.71-.38,5.65-1.04,8.82-1.97Z"/><path class="cls-7" d="m1577.09,499.01c-2.33-.72-5.31-1.08-8.95-1.08-6.77,0-12.27,1.78-16.5,5.33-4.78,3.98-7.17,9.71-7.17,17.2,0,5.84,1.89,10.63,5.68,14.38,3.79,3.74,8.75,5.62,14.89,5.62,4.19,0,8.17-1.04,11.93-3.11-.42,1.74-1.14,4.93-2.16,9.58-.59,3.09-1.17,6.31-1.71,9.65-4.74,1.82-10.81,2.73-18.22,2.73-13.42,0-24.88-4.51-34.4-13.52-10.33-9.82-15.49-22.6-15.49-38.34,0-14.56,4.44-26.32,13.33-35.29,9.48-9.56,22.58-14.35,39.29-14.35,8.04,0,13.86.47,17.46,1.4l2.03,39.8Z"/><path class="cls-7" d="m1674.9,464.16c-2.33,4.32-7.09,13.42-14.28,27.29-3.94,7.66-9.35,17.88-16.25,30.66.59.93,4.02,4.85,10.28,11.74,3.68,3.94,8.91,8.95,15.68,15.04-2.84,1.23-7.47,3.22-13.9,5.97-3.6,1.61-8.66,3.96-15.17,7.05-1.61-1.95-4.91-6.5-9.9-13.65-2.79-4.23-5.48-8.74-8.06-13.52h-.25l-.63,21.84h-35.1l-1.71-50.72c-.47-11.09-1.46-26.68-2.98-46.78h44.18l-2.48,42.78h.44c1.78-4.99,4.63-13.22,8.57-24.69,1.61-4.99,3.68-11.85,6.22-20.57l17.96,3.94c5.84,1.27,11.64,2.48,17.39,3.62Z"/><path class="cls-19" d="m432.14,898.28l7.49,21.55s-39.21,32.36-43.9,63.31c-4.69,30.95-22.09,7.54-22.09,7.54,0,0-4.18-34.74,58.5-92.4Z"/><path class="cls-19" d="m450.4,796.91s-33.16-11.43-45.79-50.13c-12.63-38.7-35.65-14.95-20.67,7.61,14.98,22.56,28.92,50.43,58.47,70.59,29.54,20.15,7.99-28.07,7.99-28.07Z"/><path class="cls-19" d="m443.95,917.22l10.42,20.2s-34.25,37.97-34.56,69.31c-.31,31.34-20.79,10.81-20.79,10.81,0,0-8.99-33.75,44.93-100.31Z"/><path class="cls-19" d="m426.95,865.37l3.38,22.63s-44.46,23.93-54.77,53.35c-10.31,29.42-23.08,2.99-23.08,2.99,0,0,2.29-34.91,74.46-78.97Z"/><path class="cls-19" d="m411.9,835.6l3.38,22.63s-44.46,23.93-54.77,53.35c-10.31,29.42-23.08,2.99-23.08,2.99,0,0,2.29-34.91,74.46-78.97Z"/><path class="cls-19" d="m696.32,940.7l-12.7,18.67s29.55,42.2,26.21,73.34c-3.35,31.14,19.37,13.47,19.37,13.47,0,0,12.86-32.3-32.88-105.47Z"/><path class="cls-19" d="m680.13,955.64l-15.18,16.54s23.35,46.2,15.68,76.49c-7.67,30.29,17.29,16.25,17.29,16.25,0,0,17.25-30-17.79-109.28Z"/><path class="cls-19" d="m709.69,910.45l-9.02,20.86s36.76,35.54,39.21,66.79c2.45,31.25,21.48,9.36,21.48,9.36,0,0,6.66-34.28-51.68-97.01Z"/><path class="cls-19" d="m731.76,885.98l-9.02,20.86s36.76,35.54,39.21,66.79c2.45,31.25,21.48,9.36,21.48,9.36,0,0,6.66-34.28-51.68-97.01Z"/><path class="cls-19" d="m334.25,740.61s54.09,41.09,64.62,24.06c10.53-17.03,32.28-54.94-18.94-91-51.22-36.06-80.55-2.41-80.55-2.41l-5.08,7.44s-10.93,13.27,37.39,26.97c0,0,5.8,2.48.7,7.75-5.1,5.27-22.3,1.95-22.3,1.95,0,0-6.89-3.43-5.65,3.17,1.24,6.59,3.15,9.82,6.89,14.76,3.74,4.94,9.76,5.99,22.92,7.3Z"/><path class="cls-19" d="m711.17,834.34s34.86-1.71,56.87-35.45,38.15-4.4,17.98,13.14c-20.17,17.54-40.69,40.48-74.29,51.6-33.59,11.13-.57-29.29-.57-29.29Z"/><path class="cls-19" d="m837.42,812.7s-62.57,24.41-68.39,5.04c-5.81-19.36-17.14-62.01,41.38-82.37,58.52-20.37,78.23,20.3,78.23,20.3l3,8.6s7.16,15.86-42.88,15.49c0,0-6.22.76-2.64,7.28s20.99,8.14,20.99,8.14c0,0,7.51-1.37,4.64,4.64s-5.53,8.58-10.4,12.29c-4.86,3.71-10.93,3.03-23.94.6Z"/><ellipse class="cls-19" cx="575.01" cy="863.4" rx="120.72" ry="192.43" transform="translate(-364.92 1302.3) rotate(-81.37)"/><ellipse class="cls-19" cx="546.56" cy="737.14" rx="38.79" ry="40.37" transform="translate(-25.5 19.61) rotate(-2.01)"/><ellipse class="cls-19" cx="629.65" cy="749.02" rx="38.79" ry="40.37" transform="translate(-25.87 22.53) rotate(-2.01)"/><ellipse class="cls-19" cx="629.84" cy="749.29" rx="19.4" ry="20.18" transform="translate(-25.88 22.54) rotate(-2.01)"/><ellipse class="cls-19" cx="546.75" cy="737.4" rx="19.4" ry="20.18" transform="translate(-25.51 19.62) rotate(-2.01)"/><ellipse class="cls-19" cx="629.65" cy="749.02" rx="9.81" ry="10.21" transform="translate(-25.87 22.53) rotate(-2.01)"/><ellipse class="cls-19" cx="546.56" cy="737.14" rx="9.81" ry="10.21" transform="translate(-25.5 19.61) rotate(-2.01)"/><path class="cls-19" d="m558,801.81s10.98,32.77,34.87,4.99c0,0-17.23-9.19-34.87-4.99Z"/><path class="cls-6" d="m432.89,897.09l7.34,21s-38.35,31.51-42.92,61.66c-4.57,30.15-21.61,7.33-21.61,7.33,0,0-4.11-33.85,57.19-90Z"/><path class="cls-6" d="m450.7,798.34s-32.45-11.16-44.83-48.88c-12.38-37.72-34.89-14.59-20.22,7.41,14.67,21.99,28.33,49.16,57.25,68.81,28.92,19.66,7.8-27.34,7.8-27.34Z"/><path class="cls-6" d="m444.45,915.56l10.21,19.69s-33.49,36.97-33.78,67.51-20.34,10.52-20.34,10.52c0,0-8.82-32.89,43.9-97.72Z"/><path class="cls-6" d="m427.79,865.03l3.32,22.06s-43.49,23.29-53.56,51.95-22.58,2.9-22.58,2.9c0,0,2.22-34.01,72.82-76.91Z"/><path class="cls-6" d="m413.05,836.01l3.32,22.06s-43.49,23.29-53.56,51.95c-10.07,28.66-22.58,2.9-22.58,2.9,0,0,2.22-34.01,72.82-76.91Z"/><path class="cls-6" d="m691.41,938.59l-12.41,18.18s28.94,41.13,25.68,71.47c-3.26,30.34,18.96,13.13,18.96,13.13,0,0,12.57-31.46-32.23-102.79Z"/><path class="cls-6" d="m675.57,953.14l-14.84,16.1s22.87,45.03,15.38,74.54c-7.49,29.51,16.92,15.85,16.92,15.85,0,0,16.86-29.22-17.47-106.49Z"/><path class="cls-6" d="m704.47,909.12l-8.81,20.32s35.99,34.65,38.41,65.1c2.42,30.45,21.02,9.14,21.02,9.14,0,0,6.5-33.4-50.62-94.56Z"/><path class="cls-6" d="m726.06,885.3l-8.81,20.32s35.99,34.65,38.41,65.1c2.42,30.45,21.02,9.14,21.02,9.14,0,0,6.5-33.4-50.62-94.56Z"/><path class="cls-6" d="m705.88,834.96s34.11-1.64,55.62-34.51c21.52-32.87,37.33-4.26,17.61,12.82-19.72,17.08-39.8,39.42-72.66,50.24-32.86,10.82-.57-28.54-.57-28.54Z"/><path class="cls-6" d="m829.4,813.95s-61.22,23.75-66.92,4.87c-5.7-18.87-16.81-60.43,40.45-80.24,57.25-19.81,76.56,19.82,76.56,19.82l2.94,8.38s7.01,15.46-41.95,15.07c0,0-6.08.74-2.58,7.09s20.55,7.94,20.55,7.94c0,0,7.35-1.33,4.54,4.52-2.8,5.85-5.41,8.36-10.17,11.97-4.76,3.61-10.7,2.95-23.42.57Z"/><ellipse class="cls-6" cx="572.66" cy="863.2" rx="117.62" ry="188.31" transform="translate(-366.66 1299.92) rotate(-81.37)"/><ellipse class="cls-6" cx="544.76" cy="740.16" rx="37.96" ry="39.34" transform="translate(-40.29 31.41) rotate(-3.19)"/><ellipse class="cls-6" cx="626.07" cy="751.79" rx="37.96" ry="39.34" transform="translate(-40.81 35.95) rotate(-3.19)"/><ellipse class="cls-11" cx="626.25" cy="752.04" rx="18.98" ry="19.67" transform="translate(-40.82 35.96) rotate(-3.19)"/><ellipse class="cls-11" cx="544.95" cy="740.41" rx="18.98" ry="19.67" transform="translate(-40.3 31.42) rotate(-3.19)"/><ellipse class="cls-30" cx="626.07" cy="751.79" rx="9.6" ry="9.95" transform="translate(-40.81 35.95) rotate(-3.19)"/><ellipse class="cls-30" cx="544.76" cy="740.16" rx="9.6" ry="9.95" transform="translate(-40.29 31.41) rotate(-3.19)"/><path class="cls-30" d="m555.98,803.18s10.76,31.93,34.13,4.88c0,0-16.86-8.96-34.13-4.88Z"/><path class="cls-6" d="m337.01,743.41s52.95,40.07,63.24,23.49c10.29-16.59,31.56-53.51-18.58-88.68-50.14-35.17-78.82-2.4-78.82-2.4l-4.97,7.25s-10.69,12.93,36.6,26.3c0,0,5.67,2.42.69,7.56-4.98,5.14-21.82,1.88-21.82,1.88,0,0-6.74-3.34-5.53,3.08,1.21,6.42,3.09,9.57,6.75,14.39s9.56,5.85,22.43,7.13Z"/><path class="cls-27" d="m389.09,875.21s27.55,87.46,167.47,107.63,198.06-63.43,198.06-63.43l8.91-20.12s-216.37,30.62-378.84-47.39l4.39,23.31Z"/><path class="cls-13" d="m82.83,1048.85s-296.49-59.25-270.32-443.19c0,0,71.15,345.98,279.59,379.43l-9.28,63.76Z"/><path class="cls-13" d="m74.28,1080.58s-299.62,15.76-328.79-367.8c0,0,119.32,322.01,328.79,302.87v64.93Z"/><path class="cls-13" d="m100.02,1087.96s-274.57-159.24-173.59-520.91c0,0,.47,358.52,195.12,462.55l-21.53,58.37Z"/><path class="cls-13" d="m161.78,1087.44S-112.78,928.21-11.81,566.53c0,0,.47,358.52,195.12,462.55l-21.53,58.37Z"/><ellipse class="cls-13" cx="91.79" cy="1005.7" rx="156.78" ry="100.71"/><path class="cls-13" d="m129.51,1064.8s-203.3-178.14-44.12-487.93c0,0-71.61,320.25,74.3,438.62l-30.18,49.31Z"/><path class="cls-13" d="m97.02,1049.34s296.49-59.25,270.32-443.19c0,0-71.15,345.98-279.59,379.43l9.28,63.76Z"/><path class="cls-13" d="m105.57,1081.07s299.62,15.76,328.79-367.8c0,0-119.32,322.01-328.79,302.87v64.93Z"/><path class="cls-13" d="m79.83,1088.45s274.57-159.24,173.59-520.91c0,0-.47,358.52-195.12,462.55l21.53,58.37Z"/><path class="cls-13" d="m18.07,1087.93s274.57-159.24,173.59-520.91c0,0-.47,358.52-195.12,462.55l21.53,58.37Z"/><path class="cls-13" d="m50.35,1065.29s203.3-178.14,44.12-487.93c0,0,71.61,320.25-74.3,438.62l30.18,49.31Z"/></svg>