<?xml version="1.0" encoding="UTF-8"?><svg id="Layer_1" xmlns="http://www.w3.org/2000/svg" width="890" height="225" viewBox="0 0 890 225"><defs><style>.cls-1{fill:#606060;}.cls-1,.cls-2,.cls-3{stroke-width:0px;}.cls-2{fill:#ebffd4;}.cls-3{fill:#817d7d;}</style></defs><path class="cls-1" d="m794.09,9.31v78.66l84.56,44.81s12.3,36.51-53.81,74.35c-66.11,37.84-650.97,0-650.97,0l-28.58-15.27s-41.51-1.33-47.66-9.96c-6.15-8.63,6.15-81.65-66.11-100.9C-40.75,61.75,96.08,3.33,96.08,3.33c0,0,372.06-7.97,698,5.97Z"/><path class="cls-3" d="m764.37,22.22v71l80.31,40.44s11.68,32.95-51.1,67.11c-62.78,34.15-618.22,0-618.22,0l-27.14-13.78s-39.42-1.2-45.26-8.99c-5.84-7.79,5.84-73.7-62.78-91.08C-28.46,69.56,101.49,16.83,101.49,16.83c0,0,353.34-7.19,662.88,5.39Z"/><path class="cls-2" d="m260.11,82.68l-1.42,30.71c-1.27-.2-3.3-.44-6.1-.73-1.73-.1-4.52-.2-8.4-.29-.2,1.92-.54,6.56-1.03,13.92-.36,7.13-.94,17.59-1.76,31.4h-23.63c-.26-6.58-.75-16.91-1.46-31.01-.33-4.88-.67-9.65-1.03-14.31l-7.71.29-6.98.73-1.22-30.71h60.74Z"/><path class="cls-2" d="m328.57,110.76c0,5.99-1.68,11.3-5.03,15.92-2.96,4.04-6.67,6.93-11.13,8.69.94,1.46,3.27,4.54,6.98,9.23,1.86,2.15,4.69,4.98,8.5,8.5-1.53.55-4.9,1.95-10.11,4.2-3.65,1.66-7.08,3.29-10.3,4.88-.94-1.17-3.04-4.2-6.3-9.08-1.5-2.47-3.69-6.64-6.59-12.5h-.1l-.49,17.09h-27.49c-.36-7.1-.86-18.8-1.51-35.11-.29-9.6-.96-22.9-2-39.89,8.95-.94,17.12-1.42,24.51-1.42,27.38,0,41.06,9.83,41.06,29.49Zm-22.17,10.55c0-3.09-1.3-5.31-3.91-6.64-1.92-.98-4.33-1.4-7.23-1.27l-.29,16.7c2.7,0,5.11-.6,7.23-1.81,2.8-1.56,4.2-3.89,4.2-6.98Z"/><path class="cls-2" d="m398.98,82.68l-9.18,16.99c-2.47,4.66-5.81,11.17-10.01,19.53-.39,4.56-.9,11.02-1.51,19.38-.2,4.46-.52,10.82-.98,19.09h-25c-.13-4.04-.42-10.5-.88-19.38-.26-3.35-.86-9.72-1.81-19.09-1.69-3.48-4.52-9.13-8.5-16.94-2.57-4.75-6.32-11.28-11.23-19.58h36.04c.59,2.12,1.61,5.45,3.08,10.01l4.69,13.18c1.24-2.99,2.91-7.42,5.03-13.28.72-2.31,1.64-5.62,2.78-9.91h17.48Z"/><path class="cls-2" d="m481.35,157.68h-26.71l-1.81-6.49c-.75.29-2.62,1.29-5.62,2.98-1.92,1.24-4.05,2.88-6.4,4.93l-2.78-5.91c-.55-1.17-1.35-2.82-2.39-4.93l-2.64,9.42h-14.16c2.08-8.04,5.31-21.3,9.67-39.79,2.67-12.37,4.9-24.1,6.69-35.21h29.35c.91,5.11,3.4,17.01,7.47,35.69,2.25,9.77,5.35,22.87,9.33,39.31Zm-30.81-16.02c-.55-1.72-1.53-4.52-2.93-8.4-.85-2.15-2.13-5.11-3.86-8.89-.75,1.89-1.92,4.98-3.52,9.28-.88,2.47-1.92,5.84-3.12,10.11.98,0,3.19-.2,6.64-.59,2.08-.29,4.35-.8,6.79-1.51Z"/><path class="cls-2" d="m548.44,125.6c-.33,2.77-.81,7.99-1.46,15.67-.33,4.59-.63,10.03-.93,16.31-4.36,1.27-10.73,1.9-19.09,1.9-12.43,0-22.54-2.8-30.32-8.4-9.18-6.67-13.77-16.6-13.77-29.79s4.02-22.49,12.06-29.59c7.55-6.67,17.5-10.01,29.83-10.01,4.66,0,9.65.36,14.99,1.07l2.69,30.81c-2.15-.81-5.21-1.22-9.18-1.22-5.05,0-9.6,1.55-13.67,4.64-4.56,3.48-6.84,7.91-6.84,13.28,0,5.08,1.94,9,5.81,11.77,3.25,2.34,7.01,3.45,11.28,3.32l-.78-9.81c-.2-2.02-.63-5.34-1.32-9.96h20.7Z"/><path class="cls-2" d="m610.7,157.68h-26.71l-1.81-6.49c-.75.29-2.62,1.29-5.62,2.98-1.92,1.24-4.05,2.88-6.4,4.93l-2.78-5.91c-.55-1.17-1.35-2.82-2.39-4.93l-2.64,9.42h-14.16c2.08-8.04,5.31-21.3,9.67-39.79,2.67-12.37,4.9-24.1,6.69-35.21h29.35c.91,5.11,3.4,17.01,7.47,35.69,2.25,9.77,5.35,22.87,9.33,39.31Zm-30.81-16.02c-.55-1.72-1.53-4.52-2.93-8.4-.85-2.15-2.13-5.11-3.86-8.89-.75,1.89-1.92,4.98-3.52,9.28-.88,2.47-1.92,5.84-3.12,10.11.98,0,3.19-.2,6.64-.59,2.08-.29,4.35-.8,6.79-1.51Z"/><path class="cls-2" d="m646.39,82.68l-1.9,39.89c-.36,8.59-.78,20.3-1.27,35.11h-27.39l-3.32-75h33.89Z"/><path class="cls-2" d="m710.41,82.68c-.46,6.58-1.09,18.05-1.9,34.42-.49,12.04-.9,25.9-1.22,41.55-4.26-3.35-10.76-8.35-19.48-14.99-3.78-2.64-9.41-6.59-16.89-11.87l-.49,25.88h-15.72c-.26-6.61-.86-19.08-1.81-37.4-.81-14.84-1.64-27.38-2.49-37.6h24.51l18.16,17.19c0-3.94-.07-7.03-.2-9.28-.1-1.99-.29-4.62-.59-7.91h18.12Z"/></svg>