<?xml version="1.0" encoding="UTF-8"?><svg id="Layer_1" xmlns="http://www.w3.org/2000/svg" width="705" height="550" viewBox="0 0 705 550"><defs><style>.cls-1{fill:#415245;}.cls-1,.cls-2{stroke-width:0px;}.cls-2{fill:#576d5c;}</style></defs><path class="cls-1" d="m337.91,482.39S41.43,423.14,67.6,39.2c0,0,71.15,345.98,279.59,379.43l-9.28,63.76Z"/><path class="cls-1" d="m329.36,514.12S29.74,529.88.57,146.32c0,0,119.32,322.01,328.79,302.87v64.93Z"/><path class="cls-1" d="m355.1,521.5S80.54,362.26,181.51.59c0,0,.47,358.52,195.12,462.55l-21.53,58.37Z"/><path class="cls-1" d="m416.87,520.98S142.3,361.75,243.27.07c0,0,.47,358.52,195.12,462.55l-21.53,58.37Z"/><ellipse class="cls-1" cx="346.87" cy="439.24" rx="156.78" ry="100.71"/><path class="cls-1" d="m384.59,498.34S181.28,320.21,340.47,10.41c0,0-71.61,320.25,74.3,438.62l-30.18,49.31Z"/><path class="cls-1" d="m352.1,482.88s296.49-59.25,270.32-443.19c0,0-71.15,345.98-279.59,379.43l9.28,63.76Z"/><path class="cls-1" d="m360.65,514.61s299.62,15.76,328.79-367.8c0,0-119.32,322.01-328.79,302.87v64.93Z"/><path class="cls-1" d="m334.91,521.99S609.48,362.75,508.5,1.08c0,0-.47,358.52-195.12,462.55l21.53,58.37Z"/><path class="cls-1" d="m273.15,521.47S547.72,362.23,446.74.56c0,0-.47,358.52-195.12,462.55l21.53,58.37Z"/><path class="cls-1" d="m305.43,498.83s203.3-178.14,44.12-487.93c0,0,71.61,320.25-74.3,438.62l30.18,49.31Z"/><path class="cls-2" d="m352.9,492.37S56.41,433.12,82.58,49.19c0,0,71.15,345.98,279.59,379.43l-9.28,63.76Z"/><path class="cls-2" d="m344.35,524.1S44.72,539.87,15.55,156.3c0,0,119.32,322.01,328.79,302.87v64.93Z"/><path class="cls-2" d="m370.09,531.48S95.52,372.25,196.5,10.57c0,0,.47,358.52,195.12,462.55l-21.53,58.37Z"/><path class="cls-2" d="m431.85,530.96S157.28,371.73,258.26,10.05c0,0,.47,358.52,195.12,462.55l-21.53,58.37Z"/><ellipse class="cls-2" cx="361.86" cy="449.22" rx="156.78" ry="100.71"/><path class="cls-2" d="m399.57,508.33s-203.3-178.14-44.12-487.93c0,0-71.61,320.25,74.3,438.62l-30.18,49.31Z"/><path class="cls-2" d="m367.09,492.86s296.49-59.25,270.32-443.19c0,0-71.15,345.98-279.59,379.43l9.28,63.76Z"/><path class="cls-2" d="m375.64,524.59s299.62,15.76,328.79-367.8c0,0-119.32,322.01-328.79,302.87v64.93Z"/><path class="cls-2" d="m349.9,531.97S624.46,372.73,523.49,11.06c0,0-.47,358.52-195.12,462.55l21.53,58.37Z"/><path class="cls-2" d="m288.13,531.45S562.7,372.22,461.73,10.54c0,0-.47,358.52-195.12,462.55l21.53,58.37Z"/><path class="cls-2" d="m320.41,508.81s203.3-178.14,44.12-487.93c0,0,71.61,320.25-74.3,438.62l30.18,49.31Z"/></svg>