<?xml version="1.0" encoding="UTF-8"?><svg id="Layer_1" xmlns="http://www.w3.org/2000/svg" width="700" height="540" viewBox="0 0 700 540"><defs><style>.cls-1{fill:#576d5c;stroke-width:0px;}</style></defs><path class="cls-1" d="m342.91,482.38S46.42,423.13,72.59,39.19c0,0,71.15,345.98,279.59,379.43l-9.28,63.76Z"/><path class="cls-1" d="m334.35,514.11S34.73,529.87,5.56,146.31c0,0,119.32,322.01,328.79,302.87v64.93Z"/><path class="cls-1" d="m360.1,521.49S85.53,362.25,186.51.58c0,0,.47,358.52,195.12,462.55l-21.53,58.37Z"/><path class="cls-1" d="m421.86,520.97S147.29,361.74,248.27.06c0,0,.47,358.52,195.12,462.55l-21.53,58.37Z"/><ellipse class="cls-1" cx="351.86" cy="439.23" rx="156.78" ry="100.71"/><path class="cls-1" d="m389.58,498.34S186.28,320.2,345.46,10.4c0,0-71.61,320.25,74.3,438.62l-30.18,49.31Z"/><path class="cls-1" d="m357.09,482.87s296.49-59.25,270.32-443.19c0,0-71.15,345.98-279.59,379.43l9.28,63.76Z"/><path class="cls-1" d="m365.65,514.6s299.62,15.76,328.79-367.8c0,0-119.32,322.01-328.79,302.87v64.93Z"/><path class="cls-1" d="m339.9,521.98S614.47,362.74,513.49,1.07c0,0-.47,358.52-195.12,462.55l21.53,58.37Z"/><path class="cls-1" d="m278.14,521.46S552.71,362.22,451.73.55c0,0-.47,358.52-195.12,462.55l21.53,58.37Z"/><path class="cls-1" d="m310.42,498.82s203.3-178.14,44.12-487.93c0,0,71.61,320.25-74.3,438.62l30.18,49.31Z"/></svg>