<?xml version="1.0" encoding="UTF-8"?><svg id="Layer_1" xmlns="http://www.w3.org/2000/svg" width="775" height="515" viewBox="0 0 775 515"><defs><style>.cls-1{fill:#576d5c;stroke-width:0px;}</style></defs><path class="cls-1" d="m398.48,468.58S48.54,415.85,79.43,74.16c0,0,83.98,307.91,330,337.68l-10.95,56.74Z"/><path class="cls-1" d="m388.39,496.82S34.74,510.85.31,169.49c0,0,140.83,286.58,388.07,269.54v57.78Z"/><path class="cls-1" d="m418.77,503.39S94.7,361.67,213.88,39.8c0,0,.56,319.07,230.3,411.65l-25.41,51.94Z"/><path class="cls-1" d="m454.65,497.28s349.8-53.66,317.99-395.27c0,0-83.15,308.13-329.09,338.56l11.1,56.71Z"/><path class="cls-1" d="m399.07,500.01s333.57-117.83,238.24-447.5c0,0-23.88,318.18-259.79,393.85l21.55,53.65Z"/><path class="cls-1" d="m311.51,495.34s333.57-117.83,238.24-447.5c0,0-23.88,318.18-259.79,393.85l21.55,53.65Z"/><path class="cls-1" d="m306.58,487.87S610.21,306.73,451.38,2.32c0,0,39.69,316.61-176.56,437.21l31.76,48.35Z"/><path class="cls-1" d="m491.67,487.8S167.59,346.08,286.78,24.21c0,0,.56,319.07,230.3,411.65l-25.41,51.94Z"/><ellipse class="cls-1" cx="386.04" cy="423.06" rx="147.87" ry="89.62"/></svg>