<?xml version="1.0" encoding="UTF-8"?><svg id="Layer_1" xmlns="http://www.w3.org/2000/svg" width="580" height="360" viewBox="0 0 580 360"><defs><style>.cls-1{fill:#de9562;}.cls-1,.cls-2,.cls-3{stroke-width:0px;}.cls-2{fill:#606060;}.cls-3{fill:gray;}</style></defs><path class="cls-2" d="m50.3,283.08s159.46-37.72,175.69,0c16.23,37.72,125.56-48.19,154.71-46.1,29.15,2.1,145.66-.04,145.66-.04,0,0,26.61-55.96,0-129.59-26.61-73.62-2.32-12.86-70.34-94.58,0,0-187.07-40.95-247.8,29.81s-123.9,68.67-123.9,68.67c0,0-75.31,180.2-34.01,171.82Z"/><path class="cls-2" d="m403.94,293.38s50.25-38.21,131.9-28.3c81.65,9.91,20.41-52.36,20.41-52.36,0,0-23.55-76.41-80.08-58.02-56.53,18.4-40.04,30.29-40.04,30.29,0,0-61.17,5.05-82.79,37.61-21.63,32.56-43.61,31.14-43.61,42.46s94.21,28.3,94.21,28.3Z"/><path class="cls-1" d="m16.58,240.27s158.92,15.87,175.1,0c16.18-15.87,125.13,20.28,154.19,19.4,29.06-.88,145.17.02,145.17.02,0,0,26.52,23.56,0,54.54-26.52,30.99-2.31,5.41-70.11,39.81,0,0-186.44,17.24-246.97-12.55s-123.48-28.9-123.48-28.9c0,0-75.06-75.85-33.9-72.32Z"/><path class="cls-1" d="m369.02,235.94s50.08,16.08,131.45,11.91c81.38-4.17,20.34,22.04,20.34,22.04,0,0-23.47,32.16-79.81,24.42-56.34-7.74-39.91-12.75-39.91-12.75,0,0-60.96-2.13-82.51-15.83-21.55-13.7-43.46-13.11-43.46-17.87s93.9-11.91,93.9-11.91Z"/><path class="cls-3" d="m14.08,287.16s159.46-37.72,175.69,0c16.23,37.72,125.56-48.19,154.71-46.1,29.15,2.1,145.66-.04,145.66-.04,0,0,26.61-55.96,0-129.59-26.61-73.62-2.32-12.86-70.34-94.58,0,0-187.07-40.95-247.8,29.81C111.26,117.43,48.09,115.34,48.09,115.34c0,0-75.31,180.2-34.01,171.82Z"/><path class="cls-3" d="m367.71,297.45s50.25-38.21,131.9-28.3c81.65,9.91,20.41-52.36,20.41-52.36,0,0-23.55-76.41-80.08-58.02-56.53,18.4-40.04,30.29-40.04,30.29,0,0-61.17,5.05-82.79,37.61-21.63,32.56-43.61,31.14-43.61,42.46s94.21,28.3,94.21,28.3Z"/></svg>