<?xml version="1.0" encoding="UTF-8"?><svg id="Layer_1" xmlns="http://www.w3.org/2000/svg" width="525" height="480" viewBox="0 0 525 480"><defs><style>.cls-1{fill:#de9562;}.cls-1,.cls-2,.cls-3{stroke-width:0px;}.cls-2{fill:#606060;}.cls-3{fill:gray;}</style></defs><path class="cls-1" d="m184.98,223.25h307.49s92.82,56.06-44.66,181.36c-137.48,125.3-226.43,52.76-226.43,52.76,0,0-209.53-59.35-155.31-93.98,54.22-34.62-46.87-140.14,118.91-140.14Z"/><path class="cls-2" d="m146.72,353.25h341.88s103.2-77.27-49.66-249.99S187.18,30.54,187.18,30.54c0,0-232.96,81.81-172.68,129.54,60.28,47.72-52.11,193.17,132.22,193.17Z"/><path class="cls-3" d="m144.08,366.25h341.88s103.2-77.27-49.66-249.99S184.54,43.54,184.54,43.54c0,0-232.96,81.81-172.68,129.54,60.28,47.72-52.11,193.17,132.22,193.17Z"/></svg>