<?xml version="1.0" encoding="UTF-8"?><svg id="Layer_1" xmlns="http://www.w3.org/2000/svg" width="410" height="400" viewBox="0 0 410 400"><defs><style>.cls-1{fill:#de9562;}.cls-1,.cls-2,.cls-3{stroke-width:0px;}.cls-2{fill:#606060;}.cls-3{fill:gray;}</style></defs><path class="cls-1" d="m23.62,248.54c30.25-15.85,372.15,2.32,383.39,15.23,11.23,12.91-17.2,39.54-51.59,45.02-34.39,5.48,10.12,32.86,10.12,32.86l-24.28,48.38s-5.7,7.3-37.24,0c-31.54-7.3-55.18,7.76-55.18,7.76,0,0-124.06,3.19-113.94-13.23,10.12-16.43-41.66-1.83-50.17-9.58-8.5-7.76-73.24-63.19-61.11-69.7s-30.25-40.87,0-56.72Z"/><path class="cls-2" d="m23.36,307.86c30.25,32.42,372.07-4.75,383.3-31.16s-17.19-80.91-51.58-92.11c-34.39-11.21,10.11-67.24,10.11-67.24l-24.27-98.99s-5.7-14.94-37.24,0-55.16-15.88-55.16-15.88c0,0-124.03-6.54-113.91,27.08,10.11,33.62-41.65,3.74-50.16,19.61S11.22,178.48,23.36,191.81c12.14,13.33-30.25,83.63,0,116.05Z"/><path class="cls-3" d="m11.62,307.91c30.25,32.42,372.07-4.75,383.3-31.16s-17.19-80.91-51.58-92.11c-34.39-11.21,10.11-67.24,10.11-67.24l-24.27-98.99s-5.7-14.94-37.24,0c-31.54,14.94-55.16-15.88-55.16-15.88,0,0-124.03-6.54-113.91,27.08,10.11,33.62-41.65,3.74-50.16,19.61C64.21,65.11-.52,178.53,11.62,191.86c12.14,13.33-30.25,83.63,0,116.05Z"/></svg>