<?xml version="1.0" encoding="UTF-8"?><svg id="Layer_1" xmlns="http://www.w3.org/2000/svg" width="600" height="325" viewBox="0 0 600 325"><defs><style>.cls-1{fill:#de9562;}.cls-1,.cls-2,.cls-3,.cls-4{stroke-width:0px;}.cls-2{fill:#606060;}.cls-3{fill:gray;}.cls-4{fill:#404040;}</style></defs><path class="cls-4" d="m414.5,240.61l120,20,62.14-20v-90.5s-32.14-31.5-38.14-59.5-33-19-33-19l-1.59-15.59s2.59-18.41-32.41-13.41-49.41-.86-49.41-.86c0,0-48.32,51.09-45.45,78.98s-.12,120.29-.12,120.29c0,0-16.01,5.59,17.99-.41Z"/><path class="cls-2" d="m428.63,238.06v-86.41l45.94-49.22s6.68-40.11-29.24-81.67c-35.92-41.57-353.68,0-353.68,0l-15.53,16.77s-22.55,1.46-25.9,10.94,3.34,89.69-35.92,110.84c-39.26,21.15,35.08,85.32,35.08,85.32,0,0,202.15,8.75,379.24-6.56Z"/><path class="cls-2" d="m448.63,246.61s31,16,49,7l18-9s-3-28.82,0-43.41-27.82-23.77-28.41-58.18c-.59-34.41-137.18,0-137.18,0l-20.41,1.59s11.64,38.86,31.32,47.43-14.32,41.57-14.32,41.57l14.32,22.75,87.68-9.75Z"/><path class="cls-1" d="m419.41,164.55l116.77-13.27,60.46,13.27v60.06s-31.27,20.9-37.11,39.49c-5.84,18.58-32.11,12.61-32.11,12.61l-1.55,10.34s2.52,12.22-31.54,8.9c-34.06-3.32-48.08.57-48.08.57,0,0-47.02-33.91-44.23-52.41s-.12-79.83-.12-79.83c0,0-15.58-3.71,17.5.27Z"/><path class="cls-1" d="m433.16,166.25v57.35l44.7,32.67s6.5,26.62-28.45,54.2c-34.95,27.58-344.15,0-344.15,0l-15.11-11.13s-21.95-.97-25.2-7.26c-3.25-6.29,3.25-59.52-34.95-73.56-38.2-14.03,34.14-56.62,34.14-56.62,0,0,196.7-5.81,369.02,4.36Z"/><path class="cls-1" d="m452.62,160.57s30.16-10.62,47.68-4.65l17.51,5.97s-2.92,19.12,0,28.81-27.07,15.78-27.65,38.61c-.57,22.84-133.48,0-133.48,0l-19.86-1.06s11.32-25.79,30.47-31.48c19.15-5.69-13.93-27.59-13.93-27.59l13.93-15.1,85.32,6.47Z"/><path class="cls-3" d="m415,254.22l120,20,62.14-20v-90.5s-32.14-31.5-38.14-59.5-33-19-33-19l-1.59-15.59s2.59-18.41-32.41-13.41-49.41-.86-49.41-.86c0,0-48.32,51.09-45.45,78.98s-.12,120.29-.12,120.29c0,0-16.01,5.59,17.99-.41Z"/><path class="cls-3" d="m429.13,251.67v-86.41l45.94-49.22s6.68-40.11-29.24-81.67c-35.92-41.57-353.68,0-353.68,0l-15.53,16.77s-22.55,1.46-25.9,10.94,3.34,89.69-35.92,110.84c-39.26,21.15,35.08,85.32,35.08,85.32,0,0,202.15,8.75,379.24-6.56Z"/><path class="cls-3" d="m449.13,260.22s31,16,49,7l18-9s-3-28.82,0-43.41-27.82-23.77-28.41-58.18c-.59-34.41-137.18,0-137.18,0l-20.41,1.59s11.64,38.86,31.32,47.43-14.32,41.57-14.32,41.57l14.32,22.75,87.68-9.75Z"/></svg>