<?xml version="1.0" encoding="UTF-8"?><svg id="Layer_1" xmlns="http://www.w3.org/2000/svg" width="520" height="420" viewBox="0 0 520 420"><defs><style>.cls-1{fill:#de9562;}.cls-1,.cls-2,.cls-3{stroke-width:0px;}.cls-2{fill:#606060;}.cls-3{fill:gray;}</style></defs><path class="cls-2" d="m63.75,326.19l371.1-12.52s33.2,12.52,46.21,0l13.01-12.52s23.69-1.39,23.69-15.3-21.71-41.74-21.71-41.74c0,0,5.92,2.91,21.71-34.72s-90.53-69.63-90.53-69.63c0,0-47.64-57.05-49.62-91.83-1.97-34.78-61.19-45.91-61.19-45.91l-78.96,18.09s-40.56-9.74-68.64-18.09c-28.08-8.35-107.04,39.46-105.07,73.3C65.72,109.14.58,196.8.58,196.8c0,0,33.56,130.79,63.17,129.4Z"/><path class="cls-1" d="m443.26,231.93l-318.2,46.98s-30.33-2.5-39.83,5.08l-9.51,7.58s-20.23,3.29-18.33,10.12c1.9,6.83,24.42,18.11,24.42,18.11,0,0-5.5-.78-13.98,19.44-8.48,20.22,87.55,24.23,87.55,24.23,0,0,48.86,22.77,55.31,39.64,6.45,16.87,59.02,15.82,59.02,15.82l65.6-17.57s36.29.32,61.64,1.33,86.89-31.16,80.57-47.56c-6.32-16.4,37.86-66.61,37.86-66.61,0,0-46.78-60.54-72.12-56.6Z"/><path class="cls-3" d="m63.82,339.04l371.1-12.52s33.2,12.52,46.21,0l13.01-12.52s23.69-1.39,23.69-15.3-21.71-41.74-21.71-41.74c0,0,5.92,2.91,21.71-34.72,15.79-37.63-90.53-69.63-90.53-69.63,0,0-47.64-57.05-49.62-91.83-1.97-34.78-61.19-45.91-61.19-45.91l-78.96,18.09s-40.56-9.74-68.64-18.09c-28.08-8.35-107.04,39.46-105.07,73.3C65.79,121.99.65,209.65.65,209.65c0,0,33.56,130.79,63.17,129.4Z"/></svg>