<?xml version="1.0" encoding="UTF-8"?><svg id="Layer_1" xmlns="http://www.w3.org/2000/svg" width="710" height="1100" viewBox="0 0 710 1100"><defs><style>.cls-1{fill:#59483a;stroke-width:0px;}</style></defs><path class="cls-1" d="m317.27,1029.66s90-231.29,76.73-520.97c0,0-115.52-82.78-144.86-32.07-29.35,50.71-96.64,116.69-123.84,103.62-27.2-13.07-52.24,15.86-72.43,10.32-20.19-5.54-88.23-29.3-22.8-52.9,65.42-23.6,107.29-13.28,107.29-13.28,0,0,95.89-64.32,93.09-105.92-2.8-41.6-93.46-56.53-93.46-56.53,0,0-73.83-14.13-70.1-82.95,3.74-68.82-60.97-90.77-60.97-90.77,0,0-21.27-69.36,44.62-40.67,65.89,28.69,70.1,114.56,70.1,114.56,0,0,11.76,51.12,78.36,64.5,66.6,13.38,85.2,66.95,85.2,66.95,0,0,81.4,44.24,49.07-22.37-32.34-66.61-30.37-92.2-30.37-92.2,0,0-32.24-60.53-70.1-55.09-37.85,5.44-58.41-89.93-58.41-89.93,0,0,3.52-41.92,37.38-31.76,33.87,10.16,28.04,45.34,28.04,45.34,0,0,94.96,24.36,107.48,54.55,12.52,30.19,48.07,148.37,48.07,148.37,0,0,28.38,44.41,33.71,0s42.06-138.48,42.06-138.48c0,0,.72-110.06,0-109.78s-7.39-50.84-7.01-51.63,66.35-93.08,74.77,0c8.42,93.08,16.72,117.73,0,151.52s-52.08,184.03-51.4,183.84,23.37,32.53,23.37,32.53c0,0,89.36-114.19,88.79-114.63s10.16-137.59,65.42-156.3c55.26-18.71,51.62,24.07,18.69,64.44-32.93,40.37,8.22,79.63-25.7,138.48-33.93,58.86-88.79,118.55-88.79,118.55,0,0-75.65,25.23-58.41,56.63s23.58,503.99,23.37,504.03-242.44,137.94-216.92,0Z"/></svg>