<?xml version="1.0" encoding="UTF-8"?><svg id="Layer_1" xmlns="http://www.w3.org/2000/svg" width="945" height="485" viewBox="0 0 945 485"><defs><style>.cls-1{fill:#614b47;}.cls-1,.cls-2,.cls-3,.cls-4,.cls-5,.cls-6{stroke-width:0px;}.cls-3{fill:#fffbe9;}.cls-4{fill:#846d69;}.cls-5{fill:#352000;}.cls-6{fill:#81645f;}</style></defs><ellipse class="cls-1" cx="462.89" cy="201.26" rx="195.92" ry="199.73"/><path class="cls-1" d="m302.72,224.84l-94.42-63.02-97.23,156.28s-2.33,18.2-12.44,16.62c-10.11-1.59-40.32-7.67-40.32-7.67,0,0-24.99-5.81-12.55-17.69,12.44-11.89,23.32-6.34,23.32-6.34l13.22,3.17,102.62-169.61s11.75-25.82,23.37-20.04c11.62,5.77,104.06,62.27,104.06,62.27l22.63,11.67-11.5,34.78-20.77-.41Z"/><path class="cls-1" d="m333.33,144.23l-121.89-54.48-125.52,135.1s-3.01,15.74-16.06,14.37-52.05-6.63-52.05-6.63c0,0-16-3.62-16.2-15.3-.21-11.68,30.11-5.48,30.11-5.48l17.06,2.74L181.27,67.93s15.17-22.32,30.17-17.32c15,4.99,134.33,53.83,134.33,53.83l29.21,10.09-14.84,30.07-26.81-.36Z"/><path class="cls-1" d="m611.83,144.23l121.89-54.48,125.52,135.1s3.01,15.74,16.06,14.37,52.05-6.63,52.05-6.63c0,0,16-3.62,16.2-15.3s-30.11-5.48-30.11-5.48l-17.06,2.74-132.48-146.62s-15.17-22.32-30.17-17.32c-15,4.99-134.33,53.83-134.33,53.83l-29.21,10.09,14.84,30.07,26.81-.36Z"/><path class="cls-1" d="m634.71,224.93l94.42-63.02,97.23,156.28s2.33,18.2,12.44,16.62c10.11-1.59,40.32-7.67,40.32-7.67,0,0,24.99-5.81,12.55-17.69-12.44-11.89-23.32-6.34-23.32-6.34l-13.22,3.17-102.62-169.61s-11.75-25.82-23.37-20.04-104.06,62.27-104.06,62.27l-22.63,11.67,11.5,34.78,20.77-.41Z"/><path class="cls-1" d="m591.56,343.54l116.61-146.64s10.88-21.4,21.77-12.68c10.88,8.72,13.61,21.4,13.61,21.4l44.82,137.92h31.93s16.16,1.57,12.27,11.08c-3.89,9.51-13.66,13.43-13.66,13.43h-52.76s-17.55-5.5-13.66-18.19c3.89-12.68-27.99-116.11-27.99-116.11l-75.41,104.96-57.53,4.82Z"/><path class="cls-1" d="m361.47,352.79l-116.61-146.64s-10.88-21.4-21.77-12.68c-10.88,8.72-13.61,21.4-13.61,21.4l-44.82,137.92h-31.93s-16.16,1.57-12.27,11.08c3.89,9.51,13.66,13.43,13.66,13.43h52.76s17.55-5.5,13.66-18.19c-3.89-12.68,27.99-116.11,27.99-116.11l75.41,104.96,57.53,4.82Z"/><path class="cls-1" d="m467.16,8.26s56.37,2.48,92.52,23.63c36.15,21.15-77.36,123.79-77.36,123.79,0,0-19.44,21-20.21,0-.78-21,5.05-147.42,5.05-147.42Z"/><path class="cls-1" d="m468.31,8.38s-56.37,2.48-92.52,23.63c-36.15,21.15,77.36,123.79,77.36,123.79,0,0,19.44,21,20.21,0,.78-21-5.05-147.42-5.05-147.42Z"/><path class="cls-1" d="m534.7,360.08l138.39-84.41s30.32-19.81,30.71,0c.39,19.81-26.04,39.63-26.04,39.63l-153.08,87.34,10.02-42.56Z"/><path class="cls-1" d="m417.7,59.54l-6.19,25.69s-56.97,16.36-80.46,46.45c-23.49,30.09-25.51-1.89-25.51-1.89,0,0,17.44-37.93,112.16-70.25Z"/><path class="cls-1" d="m447,96.16l-6.19,25.69s-56.97,16.36-80.46,46.45-25.51-1.89-25.51-1.89c0,0,17.44-37.93,112.16-70.25Z"/><path class="cls-1" d="m490.53,122.31l-6.19,25.69s-56.97,16.36-80.46,46.45c-23.49,30.09-25.51-1.89-25.51-1.89,0,0,17.44-37.93,112.16-70.25Z"/><path class="cls-1" d="m524.54,59.7l6.19,25.69s56.97,16.36,80.46,46.45c23.49,30.09,25.51-1.89,25.51-1.89,0,0-17.44-37.93-112.16-70.25Z"/><path class="cls-1" d="m494.99,96.16l6.19,25.69s56.97,16.36,80.46,46.45c23.49,30.09,25.51-1.89,25.51-1.89,0,0-17.44-37.93-112.16-70.25Z"/><path class="cls-1" d="m449.12,115.97l6.19,25.69s56.97,16.36,80.46,46.45c23.49,30.09,25.51-1.89,25.51-1.89,0,0-17.44-37.93-112.16-70.25Z"/><path class="cls-1" d="m409.62,360.4l-138.39-84.41s-30.32-19.81-30.71,0,26.04,39.63,26.04,39.63l153.08,87.34-10.02-42.56Z"/><ellipse class="cls-1" cx="466" cy="353.03" rx="92.52" ry="93.92"/><path class="cls-1" d="m396.09,368.6l-138.39-84.41s-30.32-19.81-30.71,0c-.39,19.81,0,138.3,0,138.3h-28.77s-12.83,5.15-8.94,13.08l3.89,7.93h54.64c14.55-10.3,5.22-20.61,5.22-20.61v-99.07s153.08,87.34,153.08,87.34l-10.02-42.56Z"/><ellipse class="cls-1" cx="466.38" cy="378" rx="92.52" ry="93.92"/><ellipse class="cls-1" cx="486.21" cy="362.15" rx="18.66" ry="20.61"/><ellipse class="cls-1" cx="442.67" cy="362.15" rx="18.66" ry="20.61"/><ellipse class="cls-1" cx="524.31" cy="341.64" rx="12.44" ry="12.58"/><ellipse class="cls-1" cx="406.13" cy="341.74" rx="12.44" ry="12.58"/><ellipse class="cls-1" cx="486.21" cy="361.9" rx="8.55" ry="8.97"/><ellipse class="cls-1" cx="442.67" cy="362.35" rx="8.55" ry="8.97"/><path class="cls-1" d="m444.98,401.38s15.67,25.86,36.56,0c0,0-18.95-5.57-36.56,0Z"/><path class="cls-1" d="m549.57,368.49l138.39-84.41s30.32-19.81,30.71,0,0,138.3,0,138.3h28.77s12.83,5.15,8.94,13.08l-3.89,7.93h-54.64c-14.55-10.3-5.22-20.61-5.22-20.61v-99.07l-153.08,87.34,10.02-42.56Z"/><ellipse class="cls-4" cx="462.73" cy="212.81" rx="195.92" ry="199.73"/><path class="cls-4" d="m302.56,236.39l-94.42-63.02-97.23,156.28s-2.33,18.2-12.44,16.62c-10.11-1.59-40.32-7.67-40.32-7.67,0,0-24.99-5.81-12.55-17.69,12.44-11.89,23.32-6.34,23.32-6.34l13.22,3.17,102.62-169.61s11.75-25.82,23.37-20.04c11.62,5.77,104.06,62.27,104.06,62.27l22.63,11.67-11.5,34.78-20.77-.41Z"/><path class="cls-4" d="m333.17,155.78l-121.89-54.48-125.52,135.1s-3.01,15.74-16.06,14.37c-13.05-1.37-52.05-6.63-52.05-6.63,0,0-16-3.62-16.2-15.3-.21-11.68,30.11-5.48,30.11-5.48l17.06,2.74L181.12,79.48s15.17-22.32,30.17-17.32c15,4.99,134.33,53.83,134.33,53.83l29.21,10.09-14.84,30.07-26.81-.36Z"/><path class="cls-4" d="m611.67,155.78l121.89-54.48,125.52,135.1s3.01,15.74,16.06,14.37c13.05-1.37,52.05-6.63,52.05-6.63,0,0,16-3.62,16.2-15.3s-30.11-5.48-30.11-5.48l-17.06,2.74-132.48-146.62s-15.17-22.32-30.17-17.32-134.33,53.83-134.33,53.83l-29.21,10.09,14.84,30.07,26.81-.36Z"/><path class="cls-4" d="m634.55,236.48l94.42-63.02,97.23,156.28s2.33,18.2,12.44,16.62c10.11-1.59,40.32-7.67,40.32-7.67,0,0,24.99-5.81,12.55-17.69s-23.32-6.34-23.32-6.34l-13.22,3.17-102.62-169.61s-11.75-25.82-23.37-20.04-104.06,62.27-104.06,62.27l-22.63,11.67,11.5,34.78,20.77-.41Z"/><path class="cls-4" d="m591.4,355.09l116.61-146.64s10.88-21.4,21.77-12.68,13.61,21.4,13.61,21.4l44.82,137.92h31.93s16.16,1.57,12.27,11.08c-3.89,9.51-13.66,13.43-13.66,13.43h-52.76s-17.55-5.5-13.66-18.19c3.89-12.68-27.99-116.11-27.99-116.11l-75.41,104.96-57.53,4.82Z"/><path class="cls-4" d="m361.31,364.34l-116.61-146.64s-10.88-21.4-21.77-12.68c-10.88,8.72-13.61,21.4-13.61,21.4l-44.82,137.92h-31.93s-16.16,1.57-12.27,11.08,13.66,13.43,13.66,13.43h52.76s17.55-5.5,13.66-18.19c-3.89-12.68,27.99-116.11,27.99-116.11l75.41,104.96,57.53,4.82Z"/><path class="cls-6" d="m467,19.82s56.37,2.48,92.52,23.63-77.36,123.79-77.36,123.79c0,0-19.44,21-20.21,0-.78-21,5.05-147.42,5.05-147.42Z"/><path class="cls-6" d="m468.15,19.93s-56.37,2.48-92.52,23.63c-36.15,21.15,77.36,123.79,77.36,123.79,0,0,19.44,21,20.21,0,.78-21-5.05-147.42-5.05-147.42Z"/><path class="cls-6" d="m534.55,371.64l138.39-84.41s30.32-19.81,30.71,0c.39,19.81-26.04,39.63-26.04,39.63l-153.08,87.34,10.02-42.56Z"/><path class="cls-6" d="m417.54,71.09l-6.19,25.69s-56.97,16.36-80.46,46.45c-23.49,30.09-25.51-1.89-25.51-1.89,0,0,17.44-37.93,112.16-70.25Z"/><path class="cls-6" d="m446.84,107.71l-6.19,25.69s-56.97,16.36-80.46,46.45c-23.49,30.09-25.51-1.89-25.51-1.89,0,0,17.44-37.93,112.16-70.25Z"/><path class="cls-6" d="m490.38,133.87l-6.19,25.69s-56.97,16.36-80.46,46.45c-23.49,30.09-25.51-1.89-25.51-1.89,0,0,17.44-37.93,112.16-70.25Z"/><path class="cls-6" d="m524.38,71.25l6.19,25.69s56.97,16.36,80.46,46.45c23.49,30.09,25.51-1.89,25.51-1.89,0,0-17.44-37.93-112.16-70.25Z"/><path class="cls-6" d="m494.83,107.71l6.19,25.69s56.97,16.36,80.46,46.45c23.49,30.09,25.51-1.89,25.51-1.89,0,0-17.44-37.93-112.16-70.25Z"/><path class="cls-6" d="m448.96,127.53l6.19,25.69s56.97,16.36,80.46,46.45c23.49,30.09,25.51-1.89,25.51-1.89,0,0-17.44-37.93-112.16-70.25Z"/><path class="cls-6" d="m409.46,371.95l-138.39-84.41s-30.32-19.81-30.71,0,26.04,39.63,26.04,39.63l153.08,87.34-10.02-42.56Z"/><ellipse class="cls-6" cx="465.84" cy="364.59" rx="92.52" ry="93.92"/><path class="cls-4" d="m395.93,380.16l-138.39-84.41s-30.32-19.81-30.71,0c-.39,19.81,0,138.3,0,138.3h-28.77s-12.83,5.15-8.94,13.08l3.89,7.93h54.64c14.55-10.3,5.22-20.61,5.22-20.61v-99.07s153.08,87.34,153.08,87.34l-10.02-42.56Z"/><ellipse class="cls-4" cx="466.23" cy="389.55" rx="92.52" ry="93.92"/><ellipse class="cls-3" cx="486.05" cy="373.7" rx="18.66" ry="20.61"/><ellipse class="cls-3" cx="442.51" cy="373.7" rx="18.66" ry="20.61"/><ellipse class="cls-3" cx="524.15" cy="353.19" rx="12.44" ry="12.58"/><ellipse class="cls-3" cx="405.97" cy="353.29" rx="12.44" ry="12.58"/><ellipse class="cls-2" cx="486.05" cy="373.45" rx="8.55" ry="8.97"/><ellipse class="cls-2" cx="442.51" cy="373.9" rx="8.55" ry="8.97"/><path class="cls-5" d="m444.83,412.93s15.67,25.86,36.56,0c0,0-18.95-5.57-36.56,0Z"/><path class="cls-4" d="m549.41,380.04l138.39-84.41s30.32-19.81,30.71,0,0,138.3,0,138.3h28.77s12.83,5.15,8.94,13.08l-3.89,7.93h-54.64c-14.55-10.3-5.22-20.61-5.22-20.61v-99.07l-153.08,87.34,10.02-42.56Z"/></svg>