<?xml version="1.0" encoding="UTF-8"?><svg id="Layer_1" xmlns="http://www.w3.org/2000/svg" width="880" height="540" viewBox="0 0 880 540"><defs><style>.cls-1{fill:#c97a79;}.cls-1,.cls-2,.cls-3,.cls-4,.cls-5{stroke-width:0px;}.cls-2{fill:#f4fffe;}.cls-3{fill:#976665;}.cls-4{fill:#975c5b;}.cls-5{fill:#352000;}</style></defs><path class="cls-3" d="m241.25,339.64l14.81,30.24s-50.45,56.06-51.44,102.74c-.99,46.68-30.42,15.79-30.42,15.79,0,0-12.5-50.4,67.05-148.77Z"/><path class="cls-3" d="m248.65,186.14s-49.91-9.88-75.32-64.35c-25.42-54.47-54.15-14.55-28.36,15.61,25.79,30.15,51.08,68.35,97.41,91.87,46.32,23.52,6.28-43.12,6.28-43.12Z"/><path class="cls-3" d="m261.79,365.12l18.78,27.62s-42.26,63.28-36.86,109.62-27.94,20.34-27.94,20.34c0,0-19.25-47.92,46.02-157.58Z"/><path class="cls-3" d="m227.63,292.16l9.1,32.7s-59.6,44.71-68.96,90.33c-9.36,45.61-32.7,9.29-32.7,9.29,0,0-3.21-52.02,92.56-132.31Z"/><path class="cls-3" d="m200.39,251.38l9.1,32.7s-59.6,44.71-68.96,90.33c-9.36,45.61-32.7,9.29-32.7,9.29,0,0-3.21-52.02,92.56-132.31Z"/><path class="cls-3" d="m629.81,346.5l-14.81,30.24s50.45,56.06,51.44,102.74c.99,46.68,30.42,15.79,30.42,15.79,0,0,12.5-50.4-67.05-148.77Z"/><path class="cls-3" d="m609.26,371.98l-18.78,27.62s42.26,63.28,36.86,109.62c-5.4,46.34,27.94,20.34,27.94,20.34,0,0,19.25-47.92-46.02-157.58Z"/><path class="cls-3" d="m643.42,299.02l-9.1,32.7s59.6,44.71,68.96,90.33c9.36,45.61,32.7,9.29,32.7,9.29,0,0,3.21-52.02-92.56-132.31Z"/><path class="cls-3" d="m670.66,258.24l-9.1,32.7s59.6,44.71,68.96,90.33c9.36,45.61,32.7,9.29,32.7,9.29,0,0,3.21-52.02-92.56-132.31Z"/><path class="cls-3" d="m70.78,127.54s85.61,49.25,97.6,21.88c11.99-27.36,36.26-87.92-44.26-130.35C43.59-23.34,7.61,32.53,7.61,32.53l-5.93,12.06s-13.27,21.9,58.9,31.93c0,0,8.81,2.44,2.45,11.3s-31.77,7.58-31.77,7.58c0,0-10.56-3.6-7.55,5.87,3.01,9.47,6.37,13.83,12.69,20.34,6.31,6.51,15.19,6.79,34.38,5.94Z"/><path class="cls-3" d="m631.35,186.34s49.91-9.88,75.32-64.35c25.42-54.47,54.15-14.55,28.36,15.61s-51.08,68.35-97.41,91.87c-46.32,23.52-6.28-43.12-6.28-43.12Z"/><path class="cls-3" d="m809.22,127.74s-85.61,49.25-97.6,21.88-36.26-87.92,44.26-130.35c80.52-42.42,116.51,13.45,116.51,13.45l5.93,12.06s13.27,21.9-58.9,31.93c0,0-8.81,2.44-2.45,11.3s31.77,7.58,31.77,7.58c0,0,10.56-3.6,7.55,5.87-3.01,9.47-6.37,13.83-12.69,20.34-6.31,6.51-15.19,6.79-34.38,5.94Z"/><ellipse class="cls-3" cx="440.59" cy="258" rx="279.53" ry="180.05"/><ellipse class="cls-3" cx="376.05" cy="77.6" rx="56.43" ry="60.13"/><ellipse class="cls-3" cx="497.98" cy="77.6" rx="56.43" ry="60.13"/><ellipse class="cls-3" cx="498.31" cy="77.94" rx="28.21" ry="30.07"/><ellipse class="cls-3" cx="376.38" cy="77.94" rx="28.21" ry="30.07"/><ellipse class="cls-3" cx="497.98" cy="77.6" rx="14.27" ry="15.21"/><ellipse class="cls-3" cx="376.05" cy="77.6" rx="14.27" ry="15.21"/><path class="cls-3" d="m404.59,170.66s21.93,46.06,51.18,0c0,0-26.53-9.93-51.18,0Z"/><path class="cls-1" d="m242.1,337.74l14.49,29.46s-49.37,54.61-50.34,100.1c-.96,45.48-29.77,15.39-29.77,15.39,0,0-12.24-49.1,65.61-144.94Z"/><path class="cls-1" d="m249.34,188.18s-48.84-9.63-73.71-62.69c-24.87-53.07-52.99-14.17-27.76,15.2,25.23,29.38,49.99,66.59,95.32,89.51,45.33,22.91,6.14-42.02,6.14-42.02Z"/><path class="cls-1" d="m262.2,362.56l18.38,26.91s-41.36,61.66-36.07,106.8c5.28,45.15-27.34,19.82-27.34,19.82,0,0-18.84-46.69,45.03-153.53Z"/><path class="cls-1" d="m228.77,291.48l8.9,31.86s-58.32,43.56-67.48,88c-9.16,44.44-32,9.05-32,9.05,0,0-3.14-50.68,90.58-128.91Z"/><path class="cls-1" d="m202.12,251.75l8.9,31.86s-58.32,43.56-67.48,88c-9.16,44.44-32,9.05-32,9.05,0,0-3.14-50.68,90.58-128.91Z"/><path class="cls-1" d="m622.33,344.42l-14.49,29.46s49.37,54.61,50.34,100.1,29.77,15.39,29.77,15.39c0,0,12.24-49.1-65.61-144.94Z"/><path class="cls-1" d="m602.23,369.24l-18.38,26.91s41.36,61.66,36.07,106.8,27.34,19.82,27.34,19.82c0,0,18.84-46.69-45.03-153.53Z"/><path class="cls-1" d="m635.65,298.16l-8.9,31.86s58.32,43.56,67.48,88c9.16,44.44,32,9.05,32,9.05,0,0,3.14-50.68-90.58-128.91Z"/><path class="cls-1" d="m662.31,258.43l-8.9,31.86s58.32,43.56,67.48,88,32,9.05,32,9.05c0,0,3.14-50.68-90.58-128.91Z"/><path class="cls-1" d="m623.85,188.38s48.84-9.63,73.71-62.69c24.87-53.07,52.99-14.17,27.76,15.2-25.23,29.38-49.99,66.59-95.32,89.51-45.33,22.91-6.14-42.02-6.14-42.02Z"/><path class="cls-1" d="m797.9,131.29s-83.77,47.98-95.51,21.32-35.49-85.66,43.31-127c78.8-41.33,114.01,13.1,114.01,13.1l5.8,11.75s12.99,21.34-57.64,31.1c0,0-8.62,2.38-2.4,11.01,6.22,8.63,31.09,7.39,31.09,7.39,0,0,10.34-3.51,7.39,5.72-2.95,9.23-6.24,13.48-12.42,19.82-6.18,6.34-14.86,6.61-33.64,5.79Z"/><ellipse class="cls-1" cx="437.17" cy="258.19" rx="273.55" ry="175.43"/><ellipse class="cls-1" cx="374.01" cy="82.43" rx="55.22" ry="58.59"/><ellipse class="cls-1" cx="493.33" cy="82.43" rx="55.22" ry="58.59"/><ellipse class="cls-2" cx="493.65" cy="82.77" rx="27.61" ry="29.29"/><ellipse class="cls-2" cx="374.33" cy="82.77" rx="27.61" ry="29.29"/><ellipse class="cls-5" cx="493.33" cy="82.43" rx="13.96" ry="14.82"/><ellipse class="cls-5" cx="374.01" cy="82.43" rx="13.96" ry="14.82"/><path class="cls-5" d="m401.94,173.1s21.46,44.87,50.08,0c0,0-25.96-9.67-50.08,0Z"/><path class="cls-1" d="m75.28,131.09s83.77,47.98,95.51,21.32,35.49-85.66-43.31-127C48.68-15.92,13.46,38.52,13.46,38.52l-5.8,11.75s-12.99,21.34,57.64,31.1c0,0,8.62,2.38,2.4,11.01s-31.09,7.39-31.09,7.39c0,0-10.34-3.51-7.39,5.72,2.95,9.23,6.24,13.48,12.42,19.82,6.18,6.34,14.86,6.61,33.64,5.79Z"/><path class="cls-4" d="m174.9,314.68s56.01,123.3,261.38,123.54c205.37.24,273.55-135.46,273.55-135.46l9.09-31.58s-306.05,90.88-554.69,10.02l10.67,33.48Z"/></svg>