<?xml version="1.0" encoding="UTF-8"?><svg id="Layer_1" xmlns="http://www.w3.org/2000/svg" width="1655" height="350" viewBox="0 0 1655 350"><defs><style>.cls-1,.cls-2,.cls-3,.cls-4,.cls-5,.cls-6{stroke-width:0px;}.cls-2{fill:#fffbe9;}.cls-3{fill:#7f976b;}.cls-4{fill:#5f7150;}.cls-5{fill:#fff;}.cls-6{fill:#352000;}</style></defs><path class="cls-4" d="m540.34,195.86v138.35s-490.18-.07-490.18-.07c0,0-46.93,11.52-48.44-69.1-1.5-80.62,48.5-69.18,48.5-69.18h490.11Z"/><path class="cls-4" d="m1115.07,189.07v122.88l490.18-.07s46.93,10.23,48.44-61.37c1.5-71.6-48.5-61.44-48.5-61.44h-490.11Z"/><path class="cls-4" d="m513.3,142.05v177.84l624.33-.1s59.78,14.8,61.69-88.82c1.91-103.63-61.77-88.92-61.77-88.92h-624.25Z"/><ellipse class="cls-4" cx="730.29" cy="312.39" rx="48.59" ry="22.88"/><ellipse class="cls-4" cx="1005.24" cy="311.86" rx="48.59" ry="22.88"/><path class="cls-3" d="m1114.66,203.65v122.88l490.18-.07s46.93,10.23,48.44-61.37c1.5-71.6-48.5-61.44-48.5-61.44h-490.11Z"/><path class="cls-3" d="m512.89,156.62v177.84l624.33-.1s59.78,14.8,61.69-88.82-61.77-88.92-61.77-88.92h-624.25Z"/><ellipse class="cls-4" cx="729.87" cy="326.96" rx="48.59" ry="22.88"/><ellipse class="cls-4" cx="1004.82" cy="326.43" rx="48.59" ry="22.88"/><ellipse class="cls-4" cx="521.55" cy="180.27" rx="144.51" ry="167.55"/><ellipse class="cls-4" cx="513.86" cy="167.71" rx="144.51" ry="167.55"/><path class="cls-4" d="m384.97,67.6h65.84s-.56,33.93-32.92,34.83-32.92-34.83-32.92-34.83Z"/><ellipse class="cls-4" cx="474.22" cy="67.68" rx="31.19" ry="34.84"/><path class="cls-4" d="m441.17,67.98h65.84s-.56,33.93-32.92,34.83c-32.36.89-32.92-34.83-32.92-34.83Z"/><ellipse class="cls-4" cx="410.59" cy="84.08" rx="7.86" ry="8.94"/><ellipse class="cls-4" cx="466.27" cy="84.42" rx="7.86" ry="8.94"/><ellipse class="cls-3" cx="513.44" cy="182.29" rx="144.51" ry="167.55"/><ellipse class="cls-4" cx="85.76" cy="202.85" rx="31.19" ry="34.84"/><ellipse class="cls-4" cx="85.31" cy="203.35" rx="17.24" ry="20.21"/><path class="cls-3" d="m539.93,210.44v138.35s-490.18-.07-490.18-.07c0,0-46.93,11.52-48.44-69.1-1.5-80.62,48.5-69.18,48.5-69.18h490.11Z"/><ellipse class="cls-3" cx="85.35" cy="217.42" rx="31.19" ry="34.84"/><ellipse class="cls-4" cx="84.9" cy="217.93" rx="17.24" ry="20.21"/><path class="cls-6" d="m1.82,286.65s187.47,96.76,437.42,0c0,0-226.77-20.86-437.42,0Z"/><polygon class="cls-2" points="102.25 285.24 126.3 329.65 151.34 285.24 102.25 285.24"/><polygon class="cls-2" points="161.39 285.24 185.44 329.65 210.49 285.24 161.39 285.24"/><polygon class="cls-2" points="222.76 285.24 246.81 329.65 271.86 285.24 222.76 285.24"/><polygon class="cls-2" points="285.25 285.24 309.3 329.65 334.35 285.24 285.25 285.24"/><polygon class="cls-2" points="47.39 284.57 71.44 328.98 96.49 284.57 47.39 284.57"/><ellipse class="cls-4" cx="477.97" cy="75.35" rx="31.19" ry="34.84"/><ellipse class="cls-4" cx="417.21" cy="77.99" rx="33.48" ry="37.01"/><ellipse class="cls-3" cx="415.38" cy="81.88" rx="31.19" ry="34.84"/><path class="cls-5" d="m384.56,81.36h65.84s-.56,33.93-32.92,34.83c-32.36.89-32.92-34.83-32.92-34.83Z"/><ellipse class="cls-1" cx="411.29" cy="93.27" rx="7.86" ry="8.94"/><ellipse class="cls-3" cx="476.04" cy="82.25" rx="31.19" ry="34.84"/><path class="cls-5" d="m440.75,81.36h65.84s-.56,33.93-32.92,34.83c-32.36.89-32.92-34.83-32.92-34.83Z"/><ellipse class="cls-1" cx="470.32" cy="96.3" rx="7.86" ry="8.94"/></svg>