<?xml version="1.0" encoding="UTF-8"?><svg id="Layer_1" xmlns="http://www.w3.org/2000/svg" width="775" height="475" viewBox="0 0 775 475"><defs><style>.cls-1,.cls-2,.cls-3,.cls-4,.cls-5{stroke-width:0px;}.cls-2{fill:#b1c87c;}.cls-3{fill:#fff;}.cls-4{fill:#85965d;}.cls-5{fill:#352000;}</style></defs><path class="cls-2" d="m68.23,48.82h52.86s-.45-29.18-26.43-29.94c-25.98-.77-26.43,29.94-26.43,29.94Z"/><path class="cls-2" d="m8.21,48.88h52.86s-.45-32.78-26.43-33.65c-25.98-.86-26.43,33.65-26.43,33.65Z"/><path class="cls-4" d="m149.4,316.99h570.98S744.98,4.66,434.89,3C124.8,1.35,149.4,316.99,149.4,316.99Z"/><path class="cls-4" d="m164.09,345.28h453.93s19.56-261.42-226.96-262.81-226.96,262.81-226.96,262.81Z"/><ellipse class="cls-4" cx="93.47" cy="40.09" rx="37.62" ry="37.92"/><ellipse class="cls-4" cx="41.43" cy="41.81" rx="37.62" ry="37.92"/><path class="cls-4" d="m590.59,451.51s48.36,5.08,49.39-12.19c1.03-17.27,0-143.85,0-143.85,0,0-36.75-54.44-66.22,0,0,0-16.83,71.85,0,134.27,0,0,1.4,20.76,16.83,21.77Z"/><path class="cls-4" d="m161.6,454.08s48.36,5.08,49.39-12.19,0-143.85,0-143.85c0,0-36.75-54.44-66.22,0,0,0-16.83,71.85,0,134.27,0,0,1.4,20.76,16.83,21.77Z"/><path class="cls-4" d="m243.69,471.84s53.9,5.33,55.04-12.79c1.15-18.13,0-150.94,0-150.94,0,0-40.96-57.12-73.8,0,0,0-18.76,75.4,0,140.89,0,0,1.56,21.78,18.76,22.85Z"/><path class="cls-2" d="m588.33,203.51s67.55,19.15,130.12-29.72c62.57-48.87,75.47,16.24,26.3,36.05-49.17,19.81-102.32,49.46-173.2,48.7s16.78-55.02,16.78-55.02Z"/><path class="cls-2" d="m167.84,444.26s47.29,4.81,48.3-11.55c1.01-16.37,0-136.31,0-136.31,0,0-35.94-51.58-64.76,0,0,0-16.46,68.09,0,127.23,0,0,1.37,19.67,16.46,20.63Z"/><path class="cls-2" d="m610.18,444.11s47.29,4.81,48.3-11.55c1.01-16.37,0-136.31,0-136.31,0,0-35.94-51.58-64.76,0,0,0-16.46,68.09,0,127.23,0,0,1.37,19.67,16.46,20.63Z"/><path class="cls-2" d="m154.82,341.35h561.47S740.47,9.05,435.55,7.29C130.63,5.53,154.82,341.35,154.82,341.35Z"/><path class="cls-2" d="m661,453.64s53.9,5.33,55.04-12.79c1.15-18.13,0-150.94,0-150.94,0,0-40.96-57.12-73.8,0,0,0-18.76,75.4,0,140.89,0,0,1.56,21.78,18.76,22.85Z"/><path class="cls-4" d="m273.57,46.57s159.09-96.13,321.83,0c0,0-67.08,85.41-160.91,87.12s-160.91-87.12-160.91-87.12Z"/><path class="cls-4" d="m676.99,127.37s-118.53,17.44-98.42,46.95c20.11,29.51,126.56,14.57,126.56,14.57l-28.14-61.52Z"/><path class="cls-4" d="m192.77,146.34s90.46-7.01,90.5,27.98c.05,34.99-113.41,32.94-113.41,32.94l22.91-60.92Z"/><ellipse class="cls-4" cx="111.76" cy="123.07" rx="105.27" ry="107.22"/><ellipse class="cls-2" cx="105.04" cy="122.61" rx="104.82" ry="105.86"/><ellipse class="cls-2" cx="36.27" cy="41.56" rx="31.2" ry="31.5"/><ellipse class="cls-2" cx="92.31" cy="40.57" rx="32.43" ry="32.93"/><ellipse class="cls-3" cx="91.45" cy="50.91" rx="19.92" ry="20.33"/><ellipse class="cls-3" cx="36.43" cy="51.13" rx="19.92" ry="20.33"/><ellipse class="cls-1" cx="91.49" cy="57.63" rx="6.89" ry="6.76"/><ellipse class="cls-1" cx="34.64" cy="57.52" rx="6.89" ry="6.76"/><path class="cls-5" d="m40.5,149.6s20.19,36.9,47.12,0c0,0-24.43-7.95-47.12,0Z"/><path class="cls-4" d="m435.55,230.29s171.59,1.72,136,28.24c-35.59,26.52-77.27,46.82-137.06,47.16s-129.13-16.08-130.29-41.17c-1.17-25.1,131.35-34.22,131.35-34.22Z"/><path class="cls-4" d="m227.57,472.1s53.9,5.33,55.04-12.79c1.15-18.13,0-150.94,0-150.94,0,0-40.96-57.12-73.8,0,0,0-18.76,75.4,0,140.89,0,0,1.56,21.78,18.76,22.85Z"/><path class="cls-2" d="m236.33,466.1s53.9,5.33,55.04-12.79c1.15-18.13,0-150.94,0-150.94,0,0-40.96-57.12-73.8,0,0,0-18.76,75.4,0,140.89,0,0,1.56,21.78,18.76,22.85Z"/><path class="cls-4" d="m672.68,469.27s53.9,5.33,55.04-12.79,0-150.94,0-150.94c0,0-40.96-57.12-73.8,0,0,0-18.76,75.4,0,140.89,0,0,1.56,21.78,18.76,22.85Z"/><path class="cls-2" d="m596.83,441.69s47.29,4.81,48.3-11.55c1.01-16.37,0-136.31,0-136.31,0,0-35.94-51.58-64.76,0,0,0-16.46,68.09,0,127.23,0,0,1.37,19.67,16.46,20.63Z"/><path class="cls-4" d="m656.55,469.52s53.9,5.33,55.04-12.79c1.15-18.13,0-150.94,0-150.94,0,0-40.96-57.12-73.8,0,0,0-18.76,75.4,0,140.89,0,0,1.56,21.78,18.76,22.85Z"/><path class="cls-2" d="m665.32,463.52s53.9,5.33,55.04-12.79c1.15-18.13,0-150.94,0-150.94,0,0-40.96-57.12-73.8,0,0,0-18.76,75.4,0,140.89,0,0,1.56,21.78,18.76,22.85Z"/></svg>