<?xml version="1.0" encoding="UTF-8"?><svg id="Layer_1" xmlns="http://www.w3.org/2000/svg" width="610" height="590" viewBox="0 0 610 590"><defs><style>.cls-1{fill:#e97600;}.cls-1,.cls-2,.cls-3,.cls-4,.cls-5{stroke-width:0px;}.cls-3{fill:#fff;}.cls-6{fill:#352600;stroke:#000;stroke-miterlimit:10;}.cls-4{fill:#996;}.cls-5{fill:#b5b46d;}</style></defs><path class="cls-4" d="m457.94,420.1c.17,0-11.36-63.66,47.64-104.5,59-40.84,41.16-41.96,37.18-82.67-3.97-40.71,12.08-69.46,32.54-63.38,20.46,6.08,33.66,104.36,33.66,104.36,0,0,3.02,44.06-46.84,70.24-19.07,10.13-41.06,56.06-41.06,56.06,0,0-7.37,52.75-12.56,45.92"/><path class="cls-4" d="m51.37,579.82h463.33s50.04-4.87,51.08-46.17c1.04-41.31-55.49-46.65-55.49-46.65H51.37s-36.15,7.35-35.37,46.41,35.37,46.41,35.37,46.41Z"/><path class="cls-4" d="m88.89,486.99h387.03s41.8-4.87,42.66-46.17c.87-41.31-46.35-46.65-46.35-46.65H88.89s-30.2,7.35-29.54,46.41c.65,39.07,29.54,46.41,29.54,46.41Z"/><path class="cls-4" d="m128.12,394.17h298.98s32.29-4.87,32.96-46.17c.67-41.31-35.81-46.65-35.81-46.65H128.12s-23.33,7.35-22.82,46.41c.5,39.07,22.82,46.41,22.82,46.41Z"/><path class="cls-4" d="m232.03,301.68s-4.42-96.83,29.5-120.87,84.47,4.01,109.74-28.72c25.27-32.72-21.95-63.44-21.95-63.44h-154.11s-51.4,8.68-50.74-41.4S191.7,7.85,191.7,7.85l159.1-.96S461.06.21,460.06,141.26c-1,141.05-118.05,58.91-128.03,101.65-9.98,42.74-6.18,58.77-6.18,58.77h-93.83Z"/><path class="cls-5" d="m462.56,400.35c.14,0-6.51-58.77,46.37-92.82,52.87-34.06,37.58-36.06,36.25-73.46s13.97-62.77,31.26-56.1c17.29,6.68,23.61,97.17,23.61,97.17,0,0,.33,40.4-43.92,61.58-16.93,8.2-38.22,48.94-38.22,48.94,0,0-9.05,47.77-13.17,41.25"/><path class="cls-4" d="m38.32,588h488.73s52.78-5.16,53.88-48.94c1.1-43.78-58.54-49.45-58.54-49.45H38.32S.19,497.4,1.01,538.81c.82,41.41,37.31,49.19,37.31,49.19Z"/><path class="cls-4" d="m77.9,489.61h408.25s44.09-5.16,45-48.94c.92-43.78-48.9-49.45-48.9-49.45H77.9s-31.85,7.79-31.16,49.19,31.16,49.19,31.16,49.19Z"/><path class="cls-4" d="m119.28,391.22h315.37s34.06-5.16,34.76-48.94c.71-43.78-37.77-49.45-37.77-49.45H119.28s-24.6,7.79-24.07,49.19,24.07,49.19,24.07,49.19Z"/><path class="cls-5" d="m221.04,296.84s-4.42-96.83,29.5-120.87c33.92-24.04,84.47,4.01,109.74-28.72,25.27-32.72-21.95-63.44-21.95-63.44h-154.11s-51.4,8.68-50.74-41.4c.67-50.09,47.22-39.4,47.22-39.4l159.1-.96s110.26-6.68,109.26,134.37-118.05,58.91-128.03,101.65c-9.98,42.74-6.18,58.77-6.18,58.77h-93.83Z"/><ellipse class="cls-3" cx="166.4" cy="18.02" rx="10.31" ry="10.35"/><path class="cls-1" d="m142.28,61.78s-15.2,12.56-39.23,10.38c-24.03-2.18-55.32-8.27-55.32-8.27l-19.93-2.12,8.32,5.32H13.64l17.73,5.32s38.44,10.78,71.68,10.13c33.24-.65,52.71-12.25,52.71-12.25,0,0-13.49-8.42-13.49-8.52Z"/><ellipse class="cls-6" cx="145.79" cy="42.72" rx="2.33" ry="2.34"/><ellipse class="cls-2" cx="171.39" cy="17.68" rx="4.66" ry="4.67"/><path class="cls-5" d="m127.73,390.33h298.98s32.29-4.87,32.96-46.17c.67-41.31-35.81-46.65-35.81-46.65H127.73s-23.33,7.35-22.82,46.41c.5,39.07,22.82,46.41,22.82,46.41Z"/><path class="cls-5" d="m88.84,487.16h387.03s41.8-4.87,42.66-46.17c.87-41.31-46.35-46.65-46.35-46.65H88.84s-30.2,7.35-29.54,46.41c.65,39.07,29.54,46.41,29.54,46.41Z"/><path class="cls-5" d="m49.37,585.33h463.33s50.04-4.87,51.08-46.17-55.49-46.65-55.49-46.65H49.37s-36.15,7.35-35.37,46.41c.78,39.07,35.37,46.41,35.37,46.41Z"/></svg>