<svg xmlns="http://www.w3.org/2000/svg" xmlns:xlink="http://www.w3.org/1999/xlink" version="1.1" width="100" height="100" viewBox="0 0 100 100" xml:space="preserve">
<desc>Created with Fabric.js 3.5.0</desc>
<defs>
</defs>
<rect x="0" y="0" width="100%" height="100%" fill="rgba(255,255,255,0)"/>
<g transform="matrix(0.4639 0 0 0.4639 49.6576 47.0518)" id="824544">
<g style="" vector-effect="non-scaling-stroke">
		<g transform="matrix(1 0 0 1 8.7379 -2.765)" id="Layer_1">
<path style="stroke: none; stroke-width: 0; stroke-dasharray: none; stroke-linecap: butt; stroke-dashoffset: 0; stroke-linejoin: miter; stroke-miterlimit: 4; is-custom-font: none; font-file-url: none; fill: rgb(56,72,37); fill-rule: nonzero; opacity: 1;" transform=" translate(-136.2479, -137.9349)" d="m 107.27 74.86 s 10.84 -0.5 10.84 2.03 s 6.6 3.04 9.9 15.2 c 3.3 12.16 13.67 18.24 13.67 18.24 c 0 0 11.79 10.64 24.99 90.72 c 0 0 -44.79 -42.84 -44.31 -45.75 c 0.47 -2.91 -6.6 -27.74 -9.9 -48.02 c 0 0 -10.37 -24.33 -5.18 -32.44 h 0 Z" stroke-linecap="round"/>
</g>
		<g transform="matrix(1 0 0 1 19.6468 5.7188)" id="Layer_1">
<path style="stroke: none; stroke-width: 0; stroke-dasharray: none; stroke-linecap: butt; stroke-dashoffset: 0; stroke-linejoin: miter; stroke-miterlimit: 4; is-custom-font: none; font-file-url: none; fill: rgb(117,136,95); fill-rule: nonzero; opacity: 1;" transform=" translate(-147.1569, -146.4188)" d="m 131.79 129.15 s 9.9 45.11 34.89 71.97 c 0 0 -14.14 -87.18 -24.99 -90.72 c 0 0 -11.79 -13.06 -13.67 -18.24 c -1.89 -5.19 3.77 37 3.77 37 Z" stroke-linecap="round"/>
</g>
		<g transform="matrix(1 0 0 1 -23.885 -57.7)" id="Layer_1">
<path style="stroke: none; stroke-width: 0; stroke-dasharray: none; stroke-linecap: butt; stroke-dashoffset: 0; stroke-linejoin: miter; stroke-miterlimit: 4; is-custom-font: none; font-file-url: none; fill: rgb(219,123,39); fill-rule: nonzero; opacity: 1;" transform=" translate(-103.625, -83)" d="m 105.99 84.43 l -4.73 -0.5 l 4.56 -2.36 l 0.17 2.85 Z" stroke-linecap="round"/>
</g>
		<g transform="matrix(1 0 0 1 -2.78 56.015)" id="Layer_1">
<path style="stroke: none; stroke-width: 0; stroke-dasharray: none; stroke-linecap: butt; stroke-dashoffset: 0; stroke-linejoin: miter; stroke-miterlimit: 4; is-custom-font: none; font-file-url: none; fill: rgb(219,123,39); fill-rule: nonzero; opacity: 1;" transform=" translate(-124.73, -196.715)" d="m 132.08 166.64 l 0.39 0.79 l 2.39 53.91 l -14.87 5.45 l 14.01 -5.51 l -19.4 2.99 l 19.33 -3.29 l -12.12 0.21 l 12.58 -0.47 l -2.33 -54.08 Z" stroke-linecap="round"/>
</g>
		<g transform="matrix(1 0 0 1 16.41 64.425)" id="Layer_1">
<path style="stroke: none; stroke-width: 0; stroke-dasharray: none; stroke-linecap: butt; stroke-dashoffset: 0; stroke-linejoin: miter; stroke-miterlimit: 4; is-custom-font: none; font-file-url: none; fill: rgb(219,123,39); fill-rule: nonzero; opacity: 1;" transform=" translate(-143.92, -205.125)" d="m 139.05 173.82 l 0.4 0.8 l 11.26 52.75 l -6.8 8.94 l 6.39 -8.98 l -13.17 9.1 l 12.61 -9.3 l -8.09 1.8 l 8.54 -2.14 l -11.12 -52.97 Z" stroke-linecap="round"/>
</g>
		<g transform="matrix(1 0 0 1 -18.46 -62.48)" id="Layer_1">
<path style="stroke: rgb(65,64,66); stroke-width: 0.15; stroke-dasharray: none; stroke-linecap: butt; stroke-dashoffset: 0; stroke-linejoin: miter; stroke-miterlimit: 10; is-custom-font: none; font-file-url: none; fill: rgb(255,239,207); fill-rule: nonzero; opacity: 1;" transform=" translate(-109.05, -78.22)" d="m 109.05 79.2 c 0.5 0 0.91 -0.44 0.91 -0.98 s -0.41 -0.98 -0.91 -0.98 s -0.91 0.44 -0.91 0.98 s 0.41 0.98 0.91 0.98 Z" stroke-linecap="round"/>
</g>
		<g transform="matrix(1 0 0 1 -18.47 -62.48)" id="Layer_1">
<path style="stroke: none; stroke-width: 0; stroke-dasharray: none; stroke-linecap: butt; stroke-dashoffset: 0; stroke-linejoin: miter; stroke-miterlimit: 4; is-custom-font: none; font-file-url: none; fill: rgb(65,64,66); fill-rule: nonzero; opacity: 1;" transform=" translate(-109.04, -78.22)" d="m 109.04 78.7 c 0.16 0 0.3 -0.21 0.3 -0.48 s -0.13 -0.48 -0.3 -0.48 s -0.3 0.21 -0.3 0.48 s 0.13 0.48 0.3 0.48 Z" stroke-linecap="round"/>
</g>
		<g transform="matrix(1 0 0 1 -18.03 -7.015)" id="Layer_1">
<path style="stroke: rgb(65,64,66); stroke-width: 0.15; stroke-dasharray: none; stroke-linecap: butt; stroke-dashoffset: 0; stroke-linejoin: miter; stroke-miterlimit: 10; is-custom-font: none; font-file-url: none; fill: rgb(117,136,95); fill-rule: nonzero; opacity: 1;" transform=" translate(-109.48, -133.685)" d="m 116.52 127.77 l -7.78 -1.25 l -7.48 -5.53 l -3.57 -2.07 v 2.94 l 3.57 5.87 l 4.56 8.46 l 4.97 4.72 l 10.48 7.54 l -4.74 -20.69 Z" stroke-linecap="round"/>
</g>
		<g transform="matrix(1 0 0 1 -17.54 -10.49)" id="Layer_1">
<path style="stroke: rgb(65,64,66); stroke-width: 0.15; stroke-dasharray: none; stroke-linecap: butt; stroke-dashoffset: 0; stroke-linejoin: miter; stroke-miterlimit: 10; is-custom-font: none; font-file-url: none; fill: rgb(56,72,37); fill-rule: nonzero; opacity: 1;" transform=" translate(-109.97, -130.21)" d="m 119.49 135.15 l 2.26 9.84 l -3.37 -9.84 l 0.98 7.79 l -2.59 -7.28 l -0.23 5.57 l -1.05 -6.09 l -1.76 3.45 v -5.87 l -2.45 4.72 l 0.43 -7.23 l -4.02 3.81 l 1.29 -3.81 l -3.62 0.72 l 0.96 -3.45 l -2.25 1.05 l 1.67 -2.3 l -3.19 -0.51 l 2.38 -0.74 l -3.17 -0.73 l 0.79 -1.89 h -1.94 l -0.74 -2.67 l -1.68 -1.32 v -2.94 l 21.32 19.7 Z" stroke-linecap="round"/>
</g>
		<g transform="matrix(1 0 0 1 -24.68 -16.57)" id="Layer_1">
<path style="stroke: none; stroke-width: 0; stroke-dasharray: none; stroke-linecap: butt; stroke-dashoffset: 0; stroke-linejoin: miter; stroke-miterlimit: 4; is-custom-font: none; font-file-url: none; fill: rgb(255,239,207); fill-rule: nonzero; opacity: 0.5;" transform=" translate(-102.83, -124.13)" d="m 98.84 118.04 h 7.98 l -0.85 12.18 h -5.91 l -1.22 -12.18 Z" stroke-linecap="round"/>
</g>
		<g transform="matrix(1 0 0 1 -24.64 -15.38)" id="Layer_1">
<path style="stroke: none; stroke-width: 0; stroke-dasharray: none; stroke-linecap: butt; stroke-dashoffset: 0; stroke-linejoin: miter; stroke-miterlimit: 4; is-custom-font: none; font-file-url: none; fill: rgb(213,165,55); fill-rule: nonzero; opacity: 0.95;" transform=" translate(-102.87, -125.32)" d="m 99.08 120.42 h 7.58 l -0.68 9.8 h -5.91 l -0.98 -9.8 Z" stroke-linecap="round"/>
</g>
		<g transform="matrix(1 0 0 1 -27.7 -19.145)" id="Layer_1">
<path style="stroke: rgb(65,64,66); stroke-width: 0.15; stroke-dasharray: none; stroke-linecap: butt; stroke-dashoffset: 0; stroke-linejoin: miter; stroke-miterlimit: 10; is-custom-font: none; font-file-url: none; fill: rgb(56,72,37); fill-rule: nonzero; opacity: 1;" transform=" translate(-99.81, -121.555)" d="m 97.69 118.93 l 3.57 2.07 l 0.68 2.76 h -1.24 l -1.87 0.43 l -1.15 -2.33 v -2.94 Z" stroke-linecap="round"/>
</g>
		<g transform="matrix(1 0 0 1 -21.43 96.16)" id="Layer_1">
<path style="stroke: none; stroke-width: 0; stroke-dasharray: none; stroke-linecap: butt; stroke-dashoffset: 0; stroke-linejoin: miter; stroke-miterlimit: 4; is-custom-font: none; font-file-url: none; fill: rgb(77,47,20); fill-opacity: 0.7; fill-rule: nonzero; opacity: 1;" transform=" translate(-106.08, -236.86)" d="m 105.21 244.03 l -1.99 -0.55 l -0.05 -0.17 c -0.16 -0.04 -0.32 -0.1 -0.47 -0.17 c -0.15 -0.07 -0.32 -0.13 -0.49 -0.18 l -0.04 -0.15 c -0.29 -0.08 -0.59 -0.18 -0.89 -0.31 c -0.3 -0.11 -0.61 -0.21 -0.93 -0.3 l 0.05 -0.19 l -0.18 -0.05 l 0.12 -0.43 l -0.22 -0.06 l 0.02 -0.07 h 0.24 s 0.67 -2.46 0.67 -2.46 l -0.22 -0.06 l 0.02 -0.07 l 0.17 -0.05 s 0.01 -0.02 0.03 -0.03 c 0.02 0 0.03 -0.03 0.03 -0.05 l 0.22 0.06 l 0.06 -0.2 l 0.52 0.14 l 0.06 0.14 s 0.04 0.01 0.06 0.02 c 0 0.01 0 0.02 0.01 0.02 l -0.14 0.5 l 0.24 0.07 l -0.3 1.1 l 0.2 0.06 l -0.11 0.41 l 0.24 0.07 l 0.06 0.14 s 0.02 0.01 0.03 0.03 l -0.05 0.33 l 0.26 0.07 l 0.06 0.14 s 0.09 0.04 0.16 0.08 c 0.07 0.05 0.11 0.07 0.14 0.08 l -0.07 0.24 l 2.93 0.82 l 0.06 -0.22 l 0.42 0.12 l 0.06 -0.2 l 0.42 0.12 l 0.06 -0.22 l 0.18 -0.07 s 0.02 -0.04 0.03 -0.05 c 0.02 0 0.03 -0.03 0.03 -0.05 l 0.26 0.07 l 0.06 -0.22 l 0.17 -0.05 c 0.02 -0.06 0.05 -0.12 0.09 -0.18 c 0.03 -0.05 0.05 -0.1 0.06 -0.16 l 0.15 -0.06 s 0.01 -0.02 0.03 -0.03 c 0.02 0 0.03 -0.03 0.03 -0.05 l 0.28 0.08 l 0.12 -0.43 l 0.15 -0.06 c 0.03 -0.1 0.07 -0.19 0.12 -0.29 c 0.05 -0.08 0.08 -0.16 0.11 -0.25 l 0.18 0.05 l 0.24 -0.87 l 0.17 -0.05 c 0.09 -0.31 0.19 -0.61 0.31 -0.91 c 0.11 -0.3 0.21 -0.6 0.29 -0.9 l 0.15 -0.04 l 0.33 -0.91 l -0.2 -0.06 l 0.47 -1.73 l -0.24 -0.07 l 0.23 -0.85 l -0.18 -0.05 l 0.18 -0.65 l -0.2 -0.06 l -0.05 -0.17 s -0.07 -0.03 -0.14 -0.08 l 0.12 -0.45 l -0.18 -0.05 l -0.05 -0.17 s -0.04 -0.02 -0.08 -0.06 h 0.02 s -0.03 -0.02 -0.05 -0.03 l 0.07 -0.24 l -0.2 -0.06 l -0.05 -0.17 c -0.06 -0.02 -0.11 -0.04 -0.16 -0.08 c -0.06 -0.03 -0.12 -0.05 -0.18 -0.07 l -0.04 -0.15 c -0.06 -0.02 -0.11 -0.04 -0.16 -0.08 c -0.06 -0.03 -0.12 -0.05 -0.18 -0.07 l 0.07 -0.26 l -0.42 -0.12 l -0.02 -0.22 l -2.23 -0.62 l -0.06 0.2 l -0.42 -0.12 l -0.07 0.24 l -0.42 -0.12 l -0.05 0.19 l -0.24 -0.07 l -0.06 0.22 l -0.18 -0.05 l -0.12 0.45 l -0.22 -0.06 l -0.05 0.19 l -0.13 0.04 v -0.02 c -0.04 0.12 -0.09 0.23 -0.13 0.34 c -0.04 0.1 -0.08 0.19 -0.11 0.27 c -0.04 0.08 -0.06 0.14 -0.07 0.18 l -0.24 -0.07 l -0.18 0.65 l -0.18 -0.05 l -0.06 0.22 l -0.13 0.04 s -0.03 0.08 -0.07 0.12 l -0.35 -0.1 l 0.06 -0.2 l -0.41 -0.11 l 0.67 -2.43 l 0.17 -0.05 s 0.01 -0.02 0.03 -0.03 c 0 -0.01 0 -0.02 0.01 -0.04 l 0.25 0.03 l 0.07 -0.24 l 0.19 -0.05 s 0.01 -0.02 0.03 -0.03 c 0 -0.01 0 -0.02 0.01 -0.04 l 0.49 0.1 l 0.06 -0.22 l 0.15 -0.06 s 0.02 -0.05 0.04 -0.07 l 0.48 0.13 l 0.07 -0.24 l 0.44 0.12 l 0.06 -0.2 l 0.85 0.24 l 0.06 -0.22 l 0.85 0.24 l 0.06 -0.2 l 0.88 0.25 l -0.06 0.2 l 1.09 0.3 l -0.06 0.22 l 0.65 0.18 l 0.06 0.14 c 0.06 0.02 0.12 0.05 0.17 0.09 c 0.04 0.04 0.08 0.06 0.12 0.07 l -0.07 0.26 l 0.42 0.12 l -0.05 0.19 l 0.22 0.06 l 0.06 0.14 s 0.02 0 0.04 0.01 c 0 0.02 0.02 0.03 0.03 0.03 l -0.05 0.31 l 0.22 0.06 l 0.06 0.16 s 0.03 0 0.04 0 c 0 0 0 0 0.02 0 c 0.01 0 0.02 0 0.02 0 c 0 0.01 0 0.02 0.01 0.02 l -0.05 0.33 l 0.18 0.05 l -0.12 0.43 l 0.24 0.07 l 0.06 0.14 s 0.02 0.01 0.03 0.03 c 0 0.02 0.03 0.03 0.05 0.03 l -0.08 0.28 l 0.24 0.07 l -0.17 0.63 l 0.2 0.06 l -0.13 0.46 l 0.22 0.06 l -0.17 0.61 l 0.2 0.06 l -0.3 1.1 l 0.22 0.06 l -0.71 2.6 l -0.22 -0.06 l -0.23 0.85 l -0.2 -0.06 l -0.18 0.65 l -0.22 -0.06 l -0.18 0.65 l -0.13 0.04 s -0.04 0.11 -0.09 0.18 c -0.05 0.08 -0.08 0.14 -0.09 0.18 l -0.26 -0.07 l -0.12 0.43 l -0.13 0.04 s 0 0.03 -0.02 0.06 c 0 0.04 -0.02 0.07 -0.04 0.09 l -0.3 -0.08 l -0.11 0.41 l -0.18 -0.05 l -0.06 0.22 l -0.24 -0.07 l -0.06 0.22 l -0.13 0.04 s -0.02 0.05 -0.04 0.07 c -0.02 0.02 -0.03 0.04 -0.04 0.07 l -0.28 -0.08 l -0.05 0.19 l -0.2 -0.06 l -0.07 0.24 l -0.13 0.04 s -0.03 0.09 -0.05 0.12 l -0.48 -0.13 l -0.06 0.22 l -0.24 -0.07 l -0.05 0.19 l -0.42 -0.12 l -0.06 0.22 l -0.63 -0.17 l -0.06 0.22 Z" stroke-linecap="round"/>
</g>
		<g transform="matrix(1 0 0 1 -37.635 86.995)" id="Layer_1">
<path style="stroke: none; stroke-width: 0; stroke-dasharray: none; stroke-linecap: butt; stroke-dashoffset: 0; stroke-linejoin: miter; stroke-miterlimit: 4; is-custom-font: none; font-file-url: none; fill: rgb(77,47,20); fill-opacity: 0.7; fill-rule: nonzero; opacity: 1;" transform=" translate(-89.875, -227.695)" d="m 88.85 225.13 l -0.2 -0.11 l -1.03 1.96 l 0.2 0.11 v 0.26 s 3 1.6 3 1.6 l 0.11 -0.2 l 0.61 0.32 l 0.11 -0.2 l 0.39 0.21 l 0.11 -0.2 l 0.39 0.21 l 0.12 -0.22 h 0.18 s 0.03 -0.06 0.05 -0.07 l 0.22 0.12 l 0.22 -0.43 h 0.19 s 0.63 -1.02 0.63 -1.02 l -0.22 -0.12 l 0.21 -0.41 l -0.37 -0.2 l 0.1 -0.19 l -0.39 -0.21 v -0.18 c -0.18 -0.09 -0.35 -0.19 -0.52 -0.31 c -0.18 -0.12 -0.37 -0.24 -0.56 -0.34 v -0.16 s -0.46 -0.33 -0.46 -0.33 l -0.1 0.19 l -1 -0.53 l -0.11 0.2 l -0.41 -0.22 l -0.1 0.19 l -0.37 -0.2 l -0.11 0.2 l -0.41 -0.22 l -0.11 0.2 l -0.19 -0.1 l -0.21 0.39 Z m -1.19 8.04 l -2.15 -1.14 l -0.3 -0.42 l -0.25 -0.14 l 0.1 -0.19 l -0.39 -0.21 v -0.16 s -0.08 -0.06 -0.14 -0.11 l 0.13 -0.26 l -0.19 -0.1 v -0.16 s -0.09 -0.05 -0.11 -0.08 l -0.03 -0.02 l 0.23 -0.44 l -0.17 -0.09 l 0.97 -1.86 l 0.17 0.09 l 2.38 -4.53 l -1.12 -0.59 l -0.1 0.19 l -0.25 -0.14 l 0.1 -0.19 l -0.19 -0.1 v -0.18 s -0.06 -0.04 -0.11 -0.1 l 0.15 -0.29 h 0.18 s 0.02 -0.03 0.03 -0.04 c 0 -0.01 0.01 -0.02 0.02 -0.03 l 0.88 0.42 l 0.1 -0.19 l 0.57 0.31 l 0.12 -0.22 l 1.02 0.54 l -0.12 0.22 l 0.24 0.13 l 0.03 0.15 s 0.08 0.06 0.13 0.12 c 0.06 0.06 0.09 0.09 0.12 0.11 l -0.12 0.22 l 0.74 0.4 l 0.11 -0.2 l 0.57 0.31 l 0.1 -0.19 l 0.83 0.44 l 0.12 -0.22 l 2.38 1.27 l -0.12 0.22 l 0.39 0.21 l 0.05 0.16 c 0.06 0.03 0.11 0.07 0.15 0.12 c 0.03 0.05 0.07 0.08 0.1 0.1 l -0.12 0.22 l 0.41 0.22 l -0.1 0.19 l 0.22 0.12 l -0.21 0.41 l 0.17 0.09 l -0.2 0.37 l 0.2 0.11 l -0.56 1.07 l -0.2 -0.11 l -0.2 0.37 l -0.17 -0.09 l -0.21 0.41 l -0.22 -0.12 l -0.12 0.22 h -0.14 c -0.02 0.06 -0.05 0.1 -0.08 0.12 l -0.46 -0.24 l -0.11 0.2 l -0.41 -0.22 l -0.1 0.19 l -0.39 -0.21 l -0.11 0.2 l -0.59 -0.32 l -0.11 0.2 l -0.79 -0.42 l -0.11 0.2 l -2.37 -1.26 l -0.09 0.17 l -0.59 -0.32 l -0.12 0.22 l -0.2 -0.11 l -0.1 0.19 l -0.22 -0.03 l -0.99 1.89 l 0.2 0.11 l 0.03 0.15 s 0.02 0.01 0.03 0.02 c 0 0.02 0.01 0.03 0.02 0.04 l -0.12 0.31 l 0.2 0.11 l 0.03 0.15 s 0.09 0.06 0.13 0.12 c 0.04 0.05 0.09 0.09 0.15 0.12 l -0.05 0.26 l 1.86 0.99 l 0.11 -0.2 l 0.39 0.21 l 0.1 -0.19 l 0.39 0.21 l 0.13 -0.24 l 0.16 -0.02 s 0.02 -0.02 0.03 -0.03 c 0.02 0 0.03 -0.02 0.04 -0.04 l 0.25 0.13 l 0.31 -0.6 l 0.17 0.09 l 0.13 -0.24 h 0.2 s 0.05 -0.04 0.12 -0.03 c 0.06 0.02 0.14 0.04 0.22 0.07 c 0.08 0.04 0.16 0.08 0.24 0.13 c 0.07 0.04 0.12 0.07 0.17 0.09 l -0.11 0.2 l 0.19 0.1 l 0.03 0.19 s 0.03 0 0.04 0 c 0 0 0 0 0.02 0 c 0.01 0 0 0.04 -0.01 0.1 c -0.02 0.07 -0.05 0.15 -0.08 0.24 c -0.05 0.09 -0.09 0.18 -0.13 0.26 c -0.05 0.09 -0.08 0.15 -0.1 0.19 l -0.22 -0.12 l -0.21 0.39 l -0.39 -0.21 l -0.1 0.19 l -0.39 -0.21 l -0.12 0.22 l -0.39 -0.21 l -0.1 0.19 l -0.39 -0.21 l -0.1 0.19 l -1 -0.53 l -0.11 0.2 Z m 1.4 -3.79 l -0.02 -0.29 l 0.11 -0.2 l 0.14 0.07 l -0.22 0.43 Z" stroke-linecap="round"/>
</g>
		<g transform="matrix(1 0 0 1 -56.02 77.87)" id="Layer_1">
<path style="stroke: none; stroke-width: 0; stroke-dasharray: none; stroke-linecap: butt; stroke-dashoffset: 0; stroke-linejoin: miter; stroke-miterlimit: 4; is-custom-font: none; font-file-url: none; fill: rgb(77,47,20); fill-opacity: 0.7; fill-rule: nonzero; opacity: 1;" transform=" translate(-71.49, -218.57)" d="m 65.86 224.78 l -1.05 -0.9 l 0.12 -0.15 l -1.9 -1.62 l 0.04 -0.19 s -0.04 -0.05 -0.08 -0.12 l 0.64 -0.76 l 0.37 0.31 l 0.15 -0.18 l 0.18 0.03 s 0.07 0 0.17 0.04 c 0.09 0.06 0.19 0.13 0.3 0.21 c 0.11 0.09 0.21 0.18 0.32 0.27 c 0.1 0.08 0.17 0.15 0.22 0.19 l -0.15 0.18 l 0.86 0.73 l -0.08 0.21 l 1.59 1.36 l 0.14 -0.16 l 0.37 0.31 l 0.15 -0.18 l 0.15 0.12 l 0.15 -0.18 l 0.19 0.04 s 0.09 -0.08 0.14 -0.11 c 0.04 -0.03 0.08 -0.07 0.13 -0.12 l 0.18 0.15 l 1.71 -2.03 l -0.16 -0.14 l 0.14 -0.16 l -0.19 -0.16 l 0.08 -0.24 l -2.95 -2.51 l -0.15 0.18 l -0.38 -0.32 l 0.03 -0.18 s -0.08 -0.09 -0.11 -0.14 c -0.04 -0.05 -0.09 -0.1 -0.13 -0.14 l 0.33 -0.4 l 0.19 0.04 s 0.02 -0.02 0.04 -0.02 c 0 0 0.02 -0.02 0.02 -0.03 l 3.49 2.92 l 0.15 -0.18 l 0.34 0.29 l 4.46 -5.31 l -0.19 -0.16 l 0.28 -0.34 l -0.15 -0.12 l 0.03 -0.15 c -0.3 -0.26 -0.6 -0.52 -0.88 -0.8 c -0.29 -0.28 -0.58 -0.55 -0.9 -0.81 l 0.04 -0.19 l -0.7 -0.69 l -0.16 0.19 l -0.03 -0.03 l 0.04 -0.19 s -0.07 -0.08 -0.09 -0.13 c -0.04 -0.05 -0.09 -0.1 -0.13 -0.14 l 0.33 -0.4 l 0.15 0.12 l 0.14 -0.16 l 6.21 5.29 v 0.15 s 0.03 0.03 0.04 0.04 c 0 0 0 0.02 0 0.03 l -0.25 0.29 l -0.15 -0.12 l -0.12 0.15 l -0.35 -0.3 l -0.16 0.19 l -1.18 -1.01 l -0.14 0.16 l -0.35 -0.3 l -0.16 0.19 l -0.18 -0.15 l -4.44 5.28 l 0.18 0.15 l -0.15 0.18 l 0.37 0.31 v 0.15 c 0.16 0.14 0.33 0.29 0.5 0.45 c 0.16 0.15 0.34 0.34 0.53 0.56 l -0.16 0.19 l 0.16 0.14 l -0.31 0.37 l -0.34 -0.29 l -0.15 0.18 l -1.18 -1.01 l -0.14 0.16 l -0.14 -0.02 c -0.18 0.22 -0.38 0.42 -0.6 0.62 c -0.22 0.2 -0.42 0.41 -0.6 0.62 l -0.18 -0.15 l -0.59 0.71 l -0.15 -0.12 l -0.27 0.32 l -0.19 -0.16 l -0.3 0.35 l -0.14 -0.02 s -0.02 0.02 -0.04 0.04 c -0.02 0.03 -0.05 0.05 -0.08 0.06 l -0.25 -0.21 l -0.15 0.18 l -0.15 -0.12 l -0.12 0.15 l -0.35 -0.3 l -0.16 0.19 l -0.18 -0.15 l -0.14 0.16 l -0.34 -0.29 l -0.16 0.19 l -0.69 -0.58 l -0.12 0.15 Z m 8.5 -12.59 l 0.32 -0.38 l 0.02 0.3 l -0.19 0.22 l -0.16 -0.14 Z m 0.02 11.91 l -0.36 0.04 l 0.07 -0.09 l -0.19 -0.16 l 0.1 -0.12 l 0.38 0.32 Z m -6.33 -5.74 l 0.3 -0.2 l 0.03 0.02 l -0.22 0.26 l -0.1 -0.09 Z m -5.17 3.11 l 0.02 -0.03 l 0.25 0.18 l -0.1 0.12 l -0.17 -0.27 Z" stroke-linecap="round"/>
</g>
		<g transform="matrix(1 0 0 1 -69.4737 63.045)" id="Layer_1">
<path style="stroke: none; stroke-width: 0; stroke-dasharray: none; stroke-linecap: butt; stroke-dashoffset: 0; stroke-linejoin: miter; stroke-miterlimit: 4; is-custom-font: none; font-file-url: none; fill: rgb(77,47,20); fill-opacity: 0.7; fill-rule: nonzero; opacity: 1;" transform=" translate(-58.0363, -203.745)" d="m 56.74 208.13 l -0.18 0.14 l -1.72 -2.24 l 0.09 -0.14 c -0.04 -0.05 -0.06 -0.1 -0.07 -0.16 c -0.02 -0.05 -0.06 -0.11 -0.11 -0.18 l 0.09 -0.14 c -0.04 -0.05 -0.06 -0.1 -0.07 -0.16 c -0.03 -0.06 -0.07 -0.12 -0.11 -0.18 l 0.18 -0.14 l -0.15 -0.2 l 0.09 -0.14 s -0.04 -0.08 -0.06 -0.15 c -0.02 -0.07 -0.05 -0.13 -0.1 -0.19 l 0.18 -0.14 l -0.13 -0.17 l 0.06 -0.14 s -0.02 -0.03 -0.04 -0.05 c -0.02 -0.02 -0.03 -0.04 -0.03 -0.07 l 0.23 -0.18 l -0.15 -0.2 l 0.36 -0.28 l -0.13 -0.17 l 0.09 -0.14 s -0.06 -0.1 -0.09 -0.18 l 0.39 -0.31 l -0.13 -0.17 l 0.52 -0.4 l -0.14 -0.18 l 1.18 -0.92 l 0.17 0.06 s 0.06 -0.04 0.09 -0.04 l 0.44 0.58 l 0.18 -0.14 l 3.55 4.64 l 0.18 -0.14 l 0.69 0.9 l 0.18 -0.14 l 0.12 0.15 l 0.77 -0.6 l -0.12 -0.15 l 0.36 -0.28 l -0.15 -0.2 l 0.36 -0.28 l -0.12 -0.15 l 0.06 -0.14 s -0.04 -0.06 -0.04 -0.09 c -0.01 -0.04 -0.03 -0.07 -0.04 -0.09 l 0.21 -0.16 l -0.12 -0.15 l 0.09 -0.14 c -0.04 -0.05 -0.07 -0.11 -0.09 -0.18 c -0.04 -0.07 -0.07 -0.13 -0.11 -0.18 l 0.2 -0.15 l -0.28 -0.37 l 0.17 -0.13 l -0.54 -0.7 l 0.15 -0.19 l -1.26 -1.65 l -0.18 0.14 l -0.82 -1.07 l -0.17 0.13 l -0.41 -0.53 l -0.18 0.14 l -0.4 -0.52 l -0.18 0.14 l -0.36 -0.47 l 0.09 -0.14 s -0.05 -0.08 -0.07 -0.16 l 0.3 -0.24 l 0.18 0.05 s 0.04 -0.02 0.06 -0.02 c 0.02 0 0.04 0 0.06 -0.02 l 0.16 0.21 l 0.18 -0.14 l 0.27 0.35 l 0.17 -0.13 l 0.28 0.37 l 0.18 -0.14 l 0.55 0.72 l 0.17 -0.13 l 0.54 0.7 l 0.2 -0.15 l 0.68 0.89 l 0.17 -0.13 l 1.17 1.53 l -0.02 0.16 l 0.21 0.37 c 0.03 0.06 0.06 0.11 0.1 0.16 c 0.03 0.06 0.06 0.11 0.1 0.16 l -0.2 0.15 l 0.4 0.52 l -0.03 0.15 s 0.06 0.09 0.07 0.16 c 0.01 0.06 0.04 0.11 0.07 0.16 l -0.2 0.15 l 0.15 0.2 l -0.17 0.13 l 0.13 0.17 l -0.18 0.14 l 0.26 0.34 l -0.03 0.15 c 0.04 0.05 0.06 0.09 0.05 0.13 l -0.39 0.31 l 0.15 0.2 l -0.2 0.15 l 0.13 0.17 l -0.38 0.29 l 0.15 0.2 l -0.88 0.68 l 0.12 0.15 l -1.33 1.03 l -0.12 -0.15 l -0.88 0.68 l -0.15 -0.2 l -0.32 0.25 l -0.15 -0.03 c -0.05 0.04 -0.1 0.06 -0.16 0.07 c -0.07 0.02 -0.13 0.05 -0.19 0.1 l -0.16 -0.21 l -0.35 0.27 l -0.13 -0.04 s -0.04 0.02 -0.06 0.02 c -0.03 0 -0.06 0.02 -0.1 0.06 l -0.18 -0.23 l -0.18 0.14 l -0.13 -0.17 l -0.35 0.27 l -0.13 -0.04 s -0.07 0.04 -0.14 0.06 l -0.19 -0.24 l -0.17 0.13 l -0.26 -0.34 l -0.2 0.15 l -0.28 -0.37 l -0.17 0.13 l -0.27 -0.35 l -0.17 0.13 l -0.28 -0.37 Z m 0.41 -5.72 l -0.35 0.27 l -0.13 -0.17 l -0.44 0.34 l 0.13 0.17 l -0.33 0.26 l 0.14 0.18 l -0.06 0.17 s 0.04 0.08 0.04 0.11 l -0.23 0.18 l 0.15 0.2 l -0.35 0.27 l 0.26 0.34 l -0.03 0.15 c 0.04 0.05 0.06 0.09 0.05 0.13 l -0.24 0.19 l 0.41 0.53 l -0.03 0.15 c 0.18 0.26 0.38 0.54 0.59 0.83 c 0.19 0.29 0.38 0.57 0.56 0.83 l 0.17 -0.13 l 0.28 0.37 l 0.2 -0.15 l 0.17 0.06 s 0.04 -0.02 0.06 -0.02 c 0.02 0 0.04 0 0.06 -0.02 l 0.16 0.21 l 0.18 -0.14 l 0.18 0.05 s 0.06 -0.04 0.09 -0.04 l 0.15 0.2 l 0.18 -0.14 l 0.22 0.07 s 0.03 -0.01 0.06 -0.02 c 0.01 0 0.03 -0.02 0.05 -0.04 l 0.15 0.2 l 0.33 -0.26 l 0.24 0.13 l 1.05 -0.81 l -2.39 -3.13 l -0.15 0.12 l -1.23 -1.6 l -0.2 0.15 l -0.14 -0.18 Z m -2.61 6.91 l -0.04 0.17 h -0.03 s -0.92 -0.36 -0.92 -0.36 l -0.04 -0.12 l -1.8 -0.84 s -0.01 0.05 -0.03 0.09 c -0.02 0.03 -0.04 0.05 -0.05 0.06 l -0.61 -0.23 l 0.07 -0.15 l -0.13 -0.04 l 0.05 -0.16 l -0.13 -0.04 l 0.26 -0.54 h 0.11 s 0.1 -0.23 0.1 -0.23 l 0.43 0.18 l 0.09 -0.19 l 3.33 1.36 h -0.02 s 0.03 0.02 0.03 0.02 l -0.1 0.12 c 0.05 0 0.09 0.03 0.12 0.06 l -0.05 0.16 l 0.12 0.03 l -0.27 0.72 h -0.12 c 0 0.05 -0.02 0.09 -0.04 0.1 l -0.33 -0.15 Z m 0.72 -1.17 l -0.06 0.12 v 0.02 s 0.08 0.02 0.1 0.05 l -0.07 0.13 c 0.05 0 0.09 0.03 0.12 0.06 c 0 -0.03 0 -0.05 0 -0.07 c 0 -0.03 -0.01 -0.06 -0.02 -0.08 l -0.07 -0.22 Z m -4.43 -0.31 l 0.06 0.17 v 0.02 s 0.08 -0.13 0.08 -0.13 l -0.14 -0.06 Z m 3.75 1.71 l -0.07 -0.06 h -0.03 s -0.09 0.14 -0.09 0.14 l 0.19 -0.07 Z m -3.63 -1.34 l 0.08 -0.11 h -0.03 s 0.02 -0.02 0.02 -0.02 l -0.1 -0.04 l 0.03 0.17 Z m 0.1 -1.07 l 0.09 0.03 s 0.02 -0.03 0.02 -0.07 c -0.02 0.02 -0.04 0.02 -0.06 0.02 c -0.03 0 -0.05 0.01 -0.06 0.02 Z m 3.96 2.28 l 0.14 -0.04 h -0.12 s -0.01 0.01 0 0.02 h -0.02 Z m -4.09 -1.37 h -0.03 s 0.03 0 0.03 0 Z" stroke-linecap="round"/>
</g>
		<g transform="matrix(1 0 0 1 -85.795 34.11)" id="Layer_1">
<path style="stroke: none; stroke-width: 0; stroke-dasharray: none; stroke-linecap: butt; stroke-dashoffset: 0; stroke-linejoin: miter; stroke-miterlimit: 4; is-custom-font: none; font-file-url: none; fill: rgb(77,47,20); fill-opacity: 0.7; fill-rule: nonzero; opacity: 1;" transform=" translate(-41.715, -174.81)" d="m 35.86 178.26 l 0.16 -0.14 l -1.23 -4.63 l -0.22 0.06 l -0.87 -3.28 l 0.12 -0.13 c -0.02 -0.06 -0.02 -0.11 0 -0.16 c 0 -0.05 0 -0.11 -0.03 -0.17 l 0.43 -0.11 l -0.05 -0.2 l 1.57 -0.42 l 0.13 0.11 c 0.23 -0.06 0.47 -0.11 0.71 -0.15 c 0.24 -0.04 0.48 -0.09 0.73 -0.16 l 0.13 0.12 s 0.03 0 0.04 0 s 0.04 0.01 0.06 0 l 0.08 0.32 l -0.09 0.12 s 0 0.03 0 0.04 c 0 0.02 -0.01 0.03 0 0.04 l -0.29 0.12 l 0.05 0.19 l -1.5 0.4 l 0.06 0.22 l -0.08 0.14 s 0 0.04 0 0.06 c 0 0.02 -0.01 0.04 0 0.06 l -0.3 0.08 l 0.17 0.65 l -0.09 0.12 v -0.02 s 0.05 0.34 0.05 0.34 c 0.01 0.09 0.02 0.18 0.03 0.27 c 0.01 0.09 0.02 0.15 0.03 0.17 l -0.22 0.06 l 0.58 2.18 l -0.2 0.05 l 0.45 1.67 l 0.2 -0.05 l 0.11 0.41 l 4.88 -1.31 l -0.11 -0.41 l 0.2 -0.15 l -0.48 -1.82 l -0.22 0.06 l -0.23 -0.86 l -0.85 0.23 l -0.06 -0.22 l -0.65 0.17 l -0.13 -0.48 l 0.11 -0.11 s -0.02 -0.09 -0.01 -0.12 l 4.18 -1.13 l 0.13 0.5 l -0.09 0.12 s 0.01 0.04 0.01 0.06 c -0.01 0 -0.02 0.01 -0.01 0.02 l -0.74 0.2 l 0.06 0.22 l -0.63 0.17 l 0.05 0.2 l -0.24 0.06 l 0.24 0.89 l -0.18 0.05 l 0.45 1.68 l 0.18 -0.05 l 0.05 0.19 l 0.26 -0.07 l 0.13 0.12 c 0.17 -0.05 0.37 -0.09 0.58 -0.12 s 0.42 -0.07 0.6 -0.12 l 0.15 0.1 l 1.17 -0.22 l 0.83 -0.22 l -0.06 -0.22 l 1.29 -0.35 l -0.06 -0.22 l 0.12 -0.13 s -0.01 -0.07 0 -0.1 l 0.24 -0.06 l -0.18 -0.67 l 0.14 -0.14 c -0.05 -0.19 -0.09 -0.38 -0.12 -0.59 c -0.03 -0.21 -0.07 -0.41 -0.13 -0.62 l 0.11 -0.11 s 0 -0.08 0 -0.16 l 0.3 -0.08 l 0.13 0.12 s 0.07 -0.01 0.1 0 l 0.1 0.23 l 0.2 -0.05 l 1.34 5.04 l -0.09 0.12 s 0.02 0.11 0 0.18 c -0.01 0.06 -0.01 0.11 0 0.16 l -0.5 0.13 l -0.06 -0.24 l -0.2 0.05 l -0.11 -0.41 l -0.24 0.07 l -0.29 -1.08 l -0.41 0.11 l -0.06 -0.22 l -3.44 0.93 l -0.05 -0.19 l -1.22 0.33 l 0.05 0.19 l -1.33 0.36 l -0.05 -0.19 l -1.44 0.39 l 0.05 0.19 l -3.22 0.87 l 0.06 0.22 l -0.22 0.06 l 0.23 0.86 l -0.2 0.05 l 0.16 0.6 l 0.2 -0.05 l 0.03 0.05 l -0.23 0.04 l 0.12 0.45 l -0.68 0.18 l -0.57 -2.16 l -0.18 0.05 Z m 9.39 -4.23 l 0.24 0.17 l 0.07 0.26 l -0.18 0.05 l -0.13 -0.48 Z m -8.1 6.71 l -0.21 -0.18 l -0.07 -0.26 l 0.15 -0.04 l 0.13 0.48 Z m 1.48 -8.66 l 0.07 -0.12 l 0.24 -0.07 l 0.04 0.17 l -0.35 0.02 Z m 4.99 -1.35 l 0.02 0.07 l -0.09 0.02 l -0.24 0.07 l -0.04 -0.17 h 0.36 Z" stroke-linecap="round"/>
</g>
		<g transform="matrix(1 0 0 1 -89.095 11.7)" id="Layer_1">
<path style="stroke: none; stroke-width: 0; stroke-dasharray: none; stroke-linecap: butt; stroke-dashoffset: 0; stroke-linejoin: miter; stroke-miterlimit: 4; is-custom-font: none; font-file-url: none; fill: rgb(77,47,20); fill-opacity: 0.7; fill-rule: nonzero; opacity: 1;" transform=" translate(-38.415, -152.4)" d="m 31.47 158.12 h -0.21 s -0.05 -1.96 -0.05 -1.96 l 0.21 -0.08 l -0.04 -1.54 l -0.02 -0.69 l 0.61 -0.02 l 0.1 0.13 s 0.04 0 0.06 0.02 c 0.01 0.01 0.03 0.02 0.06 0.02 l 0.03 0.96 h 0.23 s 0.1 0.15 0.1 0.15 c 0.1 0 0.2 0 0.31 0.03 c 0.09 0.02 0.19 0.03 0.29 0.03 l 0.1 0.13 c 0.8 0 1.65 -0.01 2.54 0 c 0.88 -0.01 1.72 -0.02 2.51 -0.03 v -0.23 s 5.04 -0.13 5.04 -0.13 v -0.21 s 0.16 -0.1 0.16 -0.1 c 0 -0.01 0.01 -0.06 0.03 -0.14 h 0.25 s 0 -0.26 0 -0.26 h 0.25 s 0 -0.2 0 -0.2 l 0.13 -0.08 c 0 -0.06 0 -0.13 0.03 -0.19 c 0.01 -0.08 0.02 -0.15 0.01 -0.21 h 0.27 s -0.01 -0.45 -0.01 -0.45 l 0.21 -0.08 l -0.06 -2.14 h -0.21 s -0.02 -0.92 -0.02 -0.92 h -0.25 s -0.01 -0.44 -0.01 -0.44 h -0.21 s 0 -0.23 0 -0.23 h -0.23 s -0.08 -0.11 -0.08 -0.11 c -0.03 0 -0.08 -0.01 -0.15 -0.03 v -0.33 s -0.45 0.01 -0.45 0.01 l -0.08 -0.11 c -0.34 0 -0.68 0 -1.01 -0.01 c -0.35 -0.03 -0.68 -0.04 -1.02 -0.03 v -0.23 s -0.54 0.01 -0.54 0.01 v 0.23 s -7.36 0.2 -7.36 0.2 v 0.21 s -0.68 0.02 -0.68 0.02 v 0.48 s -0.22 0 -0.22 0 l 0.02 0.66 l -0.11 0.1 s 0 0.04 0 0.08 c 0 0.03 -0.01 0.05 -0.04 0.08 h -0.33 s 0 0.26 0 0.26 h -0.11 s 0 -0.25 0 -0.25 h -0.23 s -0.11 -4.04 -0.11 -4.04 l 0.15 -0.06 s 0.01 -0.08 0.03 -0.15 l 0.63 -0.02 v 0.44 s 0.24 0 0.24 0 l 0.02 0.67 h 0.48 s 0.1 0.14 0.1 0.14 c 0.18 0.02 0.33 0.04 0.46 0.05 c 0.12 0 0.24 0.01 0.36 0 v 0.25 s 8.98 -0.24 8.98 -0.24 l 0.1 0.13 c 0.09 0 0.18 0 0.27 0.03 c 0.09 0.02 0.19 0.03 0.29 0.03 l 0.12 0.15 c 0.08 0 0.14 0 0.19 0.03 c 0.04 0.01 0.1 0.02 0.17 0.01 v 0.25 s 0.47 -0.01 0.47 -0.01 v 0.25 s 0.26 0 0.26 0 l 0.1 0.13 s 0.04 0 0.06 0.02 c 0.01 0.01 0.03 0.02 0.06 0.02 v 0.5 s 0.26 0 0.26 0 v 0.25 s 0.22 0 0.22 0 l 0.02 0.67 h 0.21 s 0.01 0.46 0.01 0.46 h 0.25 s 0.09 3.38 0.09 3.38 h -0.25 s 0.01 0.45 0.01 0.45 l -0.11 0.1 c 0 0.06 0 0.13 -0.03 0.19 c -0.02 0.05 -0.04 0.11 -0.03 0.17 l -0.13 0.1 c 0 0.06 0 0.13 -0.03 0.19 c -0.02 0.07 -0.03 0.13 -0.03 0.19 h -0.27 s 0 0.22 0 0.22 l -0.11 0.1 c 0 0.06 0 0.11 -0.03 0.14 h -0.54 s 0 0.28 0 0.28 h -0.44 s 0 0.22 0 0.22 l -0.71 0.02 v 0.23 s -10.34 0.27 -10.34 0.27 v 0.21 s -0.13 0.12 -0.13 0.12 c 0 0.05 -0.01 0.09 -0.04 0.12 h -0.29 s 0.02 0.91 0.02 0.91 l -0.11 0.1 c 0 0.05 0 0.11 -0.03 0.17 c -0.02 0.06 -0.03 0.14 -0.03 0.21 l -0.63 0.02 v -0.46 Z m -0.42 -3.59 h 0.33 s 0 -0.09 0 -0.09 l -0.21 -0.05 l -0.11 0.14 Z m 0.43 -1.01 v 0.27 s 0.03 -0.02 0.03 -0.02 c 0 -0.03 0.01 -0.08 0.03 -0.16 h 0.04 s -0.1 -0.09 -0.1 -0.09 Z" stroke-linecap="round"/>
</g>
		<g transform="matrix(1 0 0 1 -87.42 -10.315)" id="Layer_1">
<path style="stroke: none; stroke-width: 0; stroke-dasharray: none; stroke-linecap: butt; stroke-dashoffset: 0; stroke-linejoin: miter; stroke-miterlimit: 4; is-custom-font: none; font-file-url: none; fill: rgb(77,47,20); fill-opacity: 0.7; fill-rule: nonzero; opacity: 1;" transform=" translate(-40.09, -130.385)" d="m 32.87 130.05 l 0.52 -2.45 l 0.17 -0.06 c 0.03 -0.16 0.08 -0.32 0.14 -0.48 c 0.06 -0.16 0.11 -0.32 0.14 -0.5 l 0.15 -0.05 c 0.06 -0.3 0.15 -0.61 0.25 -0.91 c 0.09 -0.31 0.17 -0.63 0.24 -0.95 l 0.19 0.04 l 0.04 -0.21 l 0.43 0.09 l 0.05 -0.23 l 0.51 0.11 l 0.06 0.17 c 0.32 0.07 0.67 0.16 1.04 0.26 c 0.36 0.1 0.7 0.19 1.04 0.26 l 0.07 0.15 s 0.08 0.03 0.14 0.07 c 0.05 0.02 0.1 0.04 0.15 0.05 l -0.15 0.73 l -0.41 -0.09 l -0.04 0.19 l -1.09 -0.23 l -0.05 0.25 l -0.45 -0.1 l -0.04 0.21 l -0.43 -0.09 l -0.04 0.21 l -0.22 -0.05 l -0.05 0.23 l -0.14 0.09 c -0.01 0.06 -0.04 0.12 -0.08 0.18 c -0.04 0.04 -0.06 0.09 -0.07 0.12 l -0.24 -0.05 l -0.1 0.45 l -0.21 -0.04 l -0.54 2.54 l 0.21 0.04 l -0.09 0.43 l 0.22 0.05 l -0.14 0.66 l 0.22 0.05 l 0.07 0.15 s 0.04 0.02 0.05 0.05 c 0 0.02 0.03 0.03 0.05 0.03 l -0.06 0.26 l 0.22 0.05 l -0.04 0.19 l 0.22 0.05 l 0.06 0.17 s 0.02 0.01 0.03 0.03 c 0 0.02 0.03 0.03 0.05 0.03 l -0.06 0.26 l 0.47 0.1 l 0.06 0.17 s 0.08 0.03 0.14 0.07 c 0.05 0.02 0.1 0.04 0.15 0.05 l -0.05 0.23 l 0.49 0.1 l 0.06 0.19 s 0.08 0.03 0.14 0.07 c 0.05 0.02 0.1 0.04 0.15 0.05 l 0.08 0.16 c 0.16 0.03 0.32 0.08 0.48 0.14 c 0.14 0.06 0.31 0.11 0.5 0.15 l 0.03 0.22 l 3.54 0.76 l 0.04 -0.21 l 1.09 0.23 l 0.04 -0.19 l 0.65 0.14 l 0.05 -0.25 l 0.15 -0.05 s 0.02 -0.05 0.07 -0.12 l 0.49 0.1 l 0.05 -0.23 l 0.41 0.09 l 0.05 -0.23 l 0.17 -0.06 c 0.01 -0.06 0.04 -0.11 0.07 -0.14 c 0.04 -0.04 0.06 -0.1 0.07 -0.16 l 0.22 0.05 l 0.05 -0.23 l 0.17 -0.06 s 0.02 -0.05 0.07 -0.12 l 0.22 0.05 l 0.14 -0.66 l 0.19 -0.06 c 0.01 -0.05 0.03 -0.1 0.07 -0.14 c 0.03 -0.06 0.05 -0.12 0.06 -0.18 l 0.22 0.05 l 0.5 -2.36 l -0.21 -0.04 l 0.09 -0.43 l -0.24 -0.05 l 0.09 -0.43 l -0.19 -0.04 l 0.09 -0.43 l -0.22 -0.05 l -0.03 -0.22 l -2.47 -0.53 l -0.04 0.21 l -0.24 -0.05 l -0.05 0.23 l -0.19 -0.04 l -0.37 1.75 l -0.22 -0.05 l -0.04 0.19 l -0.51 -0.11 l 0.09 -0.43 l -0.19 -0.04 l 0.88 -4.17 l 0.19 0.04 l 0.04 -0.21 l 0.52 0.11 l 0.07 0.15 s 0.02 0.01 0.03 0.03 c 0.01 0 0.02 0 0.04 0 l -0.07 0.5 l 0.19 0.04 l -0.09 0.43 l 3.29 0.7 l 0.06 0.17 s 0.02 0.01 0.03 0.03 c 0.01 0 0.02 0 0.04 0 l -0.2 1.14 l 0.21 0.04 l -0.09 0.43 l 0.19 0.04 l -0.1 0.45 l 0.24 0.05 l -0.09 0.43 l 0.21 0.04 l -0.13 0.62 l 0.22 0.05 l -0.14 0.68 l 0.21 0.04 l -0.15 0.72 l -0.21 -0.04 l -0.27 1.3 l -0.22 -0.05 l -0.09 0.43 l -0.14 0.09 c -0.02 0.1 -0.05 0.19 -0.1 0.27 c -0.06 0.08 -0.09 0.16 -0.11 0.23 l -0.24 -0.05 l -0.1 0.45 l -0.19 -0.04 l -0.05 0.25 l -0.13 0.07 s 0 0.04 -0.01 0.06 c -0.01 0 -0.02 0 -0.02 0.01 l -0.3 -0.06 l -0.05 0.25 l -0.15 0.07 s 0 0.03 0 0.04 c -0.02 0 -0.02 0.02 -0.03 0.03 l -0.31 -0.03 l -0.04 0.19 l -0.19 -0.04 l -0.05 0.25 l -0.45 -0.1 l -0.04 0.21 l -0.41 -0.09 l -0.05 0.23 l -0.24 -0.05 l -0.04 0.19 l -0.43 -0.09 l -0.05 0.25 l -0.86 -0.18 l -0.04 0.21 l -1.53 -0.33 l -0.05 0.23 l -1.76 -0.38 l 0.05 -0.23 l -1.29 -0.28 l -0.07 -0.13 c -0.07 0 -0.21 -0.04 -0.42 -0.13 c -0.22 -0.09 -0.41 -0.15 -0.57 -0.18 l 0.05 -0.24 l -0.39 -0.08 l 0.04 -0.19 l -0.47 -0.1 l 0.05 -0.23 l -0.45 -0.1 l -0.05 -0.13 s -0.1 -0.04 -0.16 -0.07 c -0.07 -0.04 -0.12 -0.07 -0.16 -0.07 l 0.06 -0.26 l -0.22 -0.05 l 0.04 -0.19 l -0.22 -0.05 l 0.05 -0.23 l -0.22 -0.05 l -0.05 -0.13 s -0.02 -0.01 -0.03 -0.03 c -0.02 -0.02 -0.04 -0.04 -0.07 -0.05 l 0.05 -0.24 l -0.24 -0.05 l 0.09 -0.43 l -0.21 -0.04 l 0.05 -0.24 l -0.22 -0.05 l 0.09 -0.43 l -0.19 -0.04 l 0.09 -0.43 l -0.22 -0.05 l 0.13 -0.64 l -0.22 -0.05 Z m 5.25 -4.33 l 0.32 0.17 v 0.04 s -0.34 -0.07 -0.34 -0.07 l 0.03 -0.13 Z" stroke-linecap="round"/>
</g>
		<g transform="matrix(1 0 0 1 -81.1 -28.49)" id="Layer_1">
<path style="stroke: none; stroke-width: 0; stroke-dasharray: none; stroke-linecap: butt; stroke-dashoffset: 0; stroke-linejoin: miter; stroke-miterlimit: 4; is-custom-font: none; font-file-url: none; fill: rgb(77,47,20); fill-opacity: 0.7; fill-rule: nonzero; opacity: 1;" transform=" translate(-46.41, -112.21)" d="m 37.64 112.22 l 2.29 -4.85 l 0.18 -0.02 c 0.03 -0.06 0.06 -0.11 0.11 -0.14 c 0.04 -0.05 0.07 -0.11 0.11 -0.18 l 0.47 0.22 v 0.22 s 0.02 0.02 0.03 0.03 c 0.01 0 0.02 0.01 0.03 0.02 l -0.18 0.47 l 0.19 0.09 l -0.48 1.01 l 0.21 0.1 l -0.08 0.17 l 0.21 0.1 v 0.25 s 1.25 0.6 1.25 0.6 l 0.1 -0.21 l 0.24 0.12 l 0.02 0.18 l 0.85 0.49 l 0.1 -0.21 l 0.45 0.22 v 0.25 s 6.64 3.19 6.64 3.19 l 0.1 -0.21 l 0.38 0.18 l 0.19 -0.4 l 0.27 0.02 l 1.18 -2.49 l -0.22 -0.11 l 0.75 -1.58 l -0.17 -0.08 l 0.29 -0.61 l -0.21 -0.1 l 0.2 -0.42 l -1 -0.48 l 0.08 -0.17 l -1.21 -0.58 l 0.1 -0.21 l -0.19 -0.09 l 0.3 -0.64 l 0.19 0.09 l 0.11 -0.23 l 2.82 1.35 l 0.09 -0.19 l 0.26 0.12 l 0.03 0.16 c 0.09 0.04 0.17 0.1 0.24 0.16 c 0.06 0.06 0.13 0.1 0.21 0.14 l -0.2 0.42 l 0.21 0.1 l -0.49 1.04 l -0.21 -0.1 l -3.9 8.26 l -0.14 0.04 s -0.06 0.09 -0.11 0.14 c -0.04 0.04 -0.08 0.08 -0.1 0.12 l -0.47 -0.22 l 0.11 -0.23 l -0.19 -0.09 l 0.08 -0.17 l -0.22 -0.11 l 0.58 -1.22 l -0.17 -0.08 l 0.08 -0.17 l -8.41 -4.03 l 0.1 -0.21 l -1.55 -0.74 l -0.11 0.23 l -0.14 0.04 s -0.02 0.04 -0.02 0.05 c -0.01 0 -0.02 0 -0.03 0 l -0.28 -0.13 l -0.85 1.81 l -0.19 -0.09 l -0.19 0.4 l -0.64 -0.31 l 0.19 -0.4 l -0.21 -0.1 Z m 12.05 5.97 v -0.2 s 0.08 -0.19 0.08 -0.19 l 0.16 0.07 l -0.23 0.31 Z m -8.9 -11.26 l 0.03 0.02 l -0.11 0.27 l -0.14 -0.07 l 0.21 -0.22 Z" stroke-linecap="round"/>
</g>
		<g transform="matrix(1 0 0 1 -70.065 -48.97)" id="Layer_1">
<path style="stroke: none; stroke-width: 0; stroke-dasharray: none; stroke-linecap: butt; stroke-dashoffset: 0; stroke-linejoin: miter; stroke-miterlimit: 4; is-custom-font: none; font-file-url: none; fill: rgb(77,47,20); fill-opacity: 0.7; fill-rule: nonzero; opacity: 1;" transform=" translate(-57.445, -91.73)" d="m 48.9 91.47 l 6.27 -7.82 l 0.15 0.02 s 0.05 -0.04 0.1 -0.07 h -0.01 s 0.03 0 0.05 -0.02 l 0.52 0.42 l 0.14 -0.18 l 0.4 0.33 l -0.02 0.18 c 0.13 0.1 0.25 0.22 0.38 0.36 c 0.11 0.12 0.24 0.24 0.38 0.36 l -0.02 0.18 c 0.07 0.06 0.13 0.12 0.17 0.19 c 0.04 0.07 0.1 0.13 0.18 0.2 l -0.12 0.15 l 0.19 0.16 l -0.32 0.4 l -0.34 -0.28 l -0.14 0.18 l -0.86 -0.7 l -0.13 0.16 l -0.36 -0.29 l -0.29 0.36 h -0.15 s -0.48 0.51 -0.48 0.51 c -0.05 0.04 -0.11 0.11 -0.18 0.2 c -0.07 0.07 -0.13 0.13 -0.17 0.18 l -0.18 -0.15 l -2.33 2.91 l 0.19 0.16 l -0.02 0.18 c 0.34 0.27 0.68 0.57 1.03 0.89 c 0.34 0.31 0.7 0.61 1.06 0.91 v 0.19 s 0.69 0.67 0.69 0.67 l 0.14 -0.18 l 0.52 0.42 l 0.14 -0.18 l 0.21 0.07 l 1.72 -2.14 l -0.36 -0.29 l 0.14 -0.18 l -0.33 -0.27 l 0.02 -0.15 s -0.09 -0.08 -0.17 -0.19 c -0.09 -0.12 -0.16 -0.21 -0.23 -0.26 l 0.14 -0.18 l -0.16 -0.13 l 0.04 -0.04 l 0.15 0.02 s 0.06 -0.07 0.09 -0.08 l 3.35 2.72 l -0.16 0.19 l -0.18 -0.15 l -0.14 0.18 l -0.34 -0.28 l -0.14 0.18 l -0.34 -0.28 l -0.14 0.18 l -0.36 -0.29 l -0.12 0.15 l -0.15 -0.12 l -0.42 0.52 l -0.18 -0.15 l -1.23 1.53 l 0.33 0.27 v 0.19 s 0.04 0.05 0.06 0.08 l -0.15 0.25 l 3.75 3.05 l 0.14 -0.18 l 0.33 0.27 l 0.14 -0.18 l 0.25 0.08 l 2.69 -3.36 l -0.19 -0.16 l 0.55 -0.69 l -0.15 -0.12 l 0.26 -0.33 l -0.18 -0.15 l 0.14 -0.18 l -0.36 -0.29 v -0.14 s 0.03 0.01 0.03 0.01 c -0.08 -0.08 -0.16 -0.17 -0.24 -0.25 c -0.07 -0.07 -0.14 -0.15 -0.2 -0.21 c -0.06 -0.07 -0.11 -0.11 -0.14 -0.14 l 0.16 -0.19 l -0.52 -0.42 v -0.14 s -0.06 -0.07 -0.08 -0.1 l 0.22 -0.27 l 0.15 0.02 s 0.06 -0.05 0.13 -0.1 l 0.39 0.31 l 0.14 -0.18 l 2.1 1.71 l -0.02 0.18 s 0.05 0.05 0.06 0.08 l -0.15 0.25 l 0.16 0.13 l -0.26 0.33 l 0.18 0.15 l -0.03 0.07 l -0.18 -0.17 l -5.85 7.3 h -0.15 s -0.03 0.04 -0.04 0.05 c -0.02 0 -0.03 0 -0.04 0.02 l -0.25 -0.21 l -0.07 0.09 l 0.06 -0.1 l -0.18 -0.15 l 0.28 -0.34 l -0.16 -0.13 l 0.42 -0.52 l -0.19 -0.16 l 0.14 -0.18 l -0.15 -0.12 l 0.12 -0.15 l -8.75 -7.12 l -0.26 0.33 l -0.18 -0.15 l -0.7 0.87 l -0.16 -0.13 l -0.14 0.18 l -0.18 -0.15 l -0.13 0.16 l -0.19 -0.16 v -0.15 s -0.05 -0.16 -0.05 -0.16 Z m 8.45 -2.84 v 0.12 s -0.18 0.22 -0.18 0.22 l -0.15 -0.12 l 0.33 -0.23 Z" stroke-linecap="round"/>
</g>
		<g transform="matrix(1 0 0 1 -54.615 -63.425)" id="Layer_1">
<path style="stroke: none; stroke-width: 0; stroke-dasharray: none; stroke-linecap: butt; stroke-dashoffset: 0; stroke-linejoin: miter; stroke-miterlimit: 4; is-custom-font: none; font-file-url: none; fill: rgb(77,47,20); fill-opacity: 0.7; fill-rule: nonzero; opacity: 1;" transform=" translate(-72.895, -77.275)" d="m 73.01 72.85 l 0.12 -0.19 l -1.17 -1.55 l -0.17 0.13 l -0.4 -0.54 l -0.17 0.13 l -0.15 -0.2 l -0.18 0.14 l -0.16 -0.02 c -0.05 0.04 -0.11 0.07 -0.19 0.1 c -0.07 0.02 -0.11 0.04 -0.15 0.06 l -0.16 -0.21 l -0.18 0.14 l -0.16 -0.05 h 0.02 s -0.33 0.19 -0.33 0.19 c -0.09 0.05 -0.18 0.1 -0.27 0.16 c -0.08 0.04 -0.13 0.07 -0.15 0.09 l -0.14 -0.18 l -2.13 1.63 l 0.15 0.2 l -0.05 0.16 c 0.05 0.06 0.07 0.12 0.09 0.18 c 0.02 0.05 0.05 0.1 0.09 0.15 l -0.21 0.16 l 2.88 3.82 l 0.2 -0.15 l 0.19 0.12 l 2.8 -2.14 l -0.13 -0.17 l 0.37 -0.28 l -0.15 -0.2 l 0.2 -0.15 l -0.14 -0.18 l 0.05 -0.13 s -0.03 -0.04 -0.03 -0.07 c 0 -0.03 -0.02 -0.05 -0.03 -0.07 l 0.24 -0.19 l -0.13 -0.17 l 0.05 -0.13 l -0.31 -0.56 Z m -9.29 1.02 l 0.76 -0.58 l 0.14 0.06 l 0.66 -0.4 l -0.13 -0.17 l 0.26 -0.2 l 0.19 0.12 l 1.89 -1.44 l -0.13 -0.17 l 0.41 -0.31 l 0.16 0.05 c 0.26 -0.2 0.56 -0.41 0.88 -0.62 c 0.33 -0.22 0.64 -0.44 0.94 -0.67 l 0.17 0.06 c 0.08 -0.06 0.17 -0.11 0.25 -0.14 c 0.1 -0.04 0.18 -0.09 0.25 -0.14 l 0.17 0.06 s 0.02 -0.01 0.04 0 c 0.03 0 0.06 -0.02 0.09 -0.04 l 0.15 0.2 l 0.2 -0.15 l 0.15 0.2 l 0.17 -0.13 l 0.14 0.06 s 0.07 -0.04 0.15 -0.06 l 0.17 0.23 l 0.18 -0.14 l 0.14 0.06 s 0.08 -0.05 0.12 -0.07 l 0.03 -0.02 l 0.32 0.43 l 0.17 -0.13 l 0.55 0.74 l 0.2 -0.15 l 0.73 0.97 l -0.07 0.2 c 0.06 0.08 0.11 0.17 0.15 0.27 c 0.04 0.1 0.09 0.19 0.15 0.27 l -0.05 0.16 c 0.04 0.05 0.06 0.11 0.07 0.16 c 0.02 0.05 0.05 0.1 0.09 0.15 l -0.21 0.16 l 0.14 0.18 l -0.05 0.16 c 0.04 0.05 0.07 0.11 0.09 0.18 s 0.04 0.12 0.07 0.16 l -0.37 0.28 l 0.14 0.18 l -0.2 0.15 l 0.13 0.17 l -0.37 0.28 l 0.16 0.21 l -0.35 0.27 l 0.13 0.17 l -0.35 0.27 l 0.13 0.17 l -0.38 0.29 l 0.51 0.68 l 0.17 -0.13 l 0.16 0.21 l 0.38 -0.29 l 0.14 0.06 s 0.07 -0.04 0.15 -0.06 l 0.16 0.21 l 0.18 -0.14 l 0.14 0.06 s 0.05 -0.02 0.13 -0.05 l 0.17 0.23 l 0.18 -0.14 l 0.17 0.06 s 0.02 -0.01 0.04 0 c 0.03 0 0.06 -0.02 0.09 -0.04 l 0.3 0.4 l 0.2 -0.15 l 0.17 0.06 s 0.06 -0.03 0.11 -0.04 l 0.15 0.2 l 0.18 -0.14 l 0.3 0.4 l 0.18 -0.14 l 0.27 0.35 l 0.2 -0.15 l 0.17 0.06 s 0.06 -0.03 0.11 -0.04 l 0.3 0.4 l 0.2 -0.15 l 0.28 0.37 l 0.17 -0.13 l 0.28 0.37 l 0.37 -0.28 l 0.18 0.08 c 0.05 -0.04 0.1 -0.06 0.16 -0.07 c 0.06 -0.03 0.11 -0.06 0.16 -0.1 l 0.14 0.18 l 0.91 -0.7 l 0.15 0.2 l 0.18 -0.14 l 0.19 0.25 l -0.06 0.17 c 0.04 0.05 0.06 0.11 0.07 0.16 c 0.02 0.05 0.05 0.1 0.09 0.15 l -2.09 1.59 l -0.15 -0.2 l -0.18 0.14 l -0.15 -0.03 s -0.02 0.02 -0.03 0.02 c -0.02 0 -0.03 0 -0.04 0 l -0.2 -0.21 l -0.18 0.14 l -0.28 -0.37 l -0.2 0.15 l -0.15 -0.2 l -0.17 0.13 l -0.28 -0.37 l -0.21 0.16 l -0.15 -0.03 s -0.02 0.01 -0.04 0 c -0.02 0 -0.04 0 -0.06 0.02 l -0.32 -0.43 l -0.17 0.13 l -0.27 -0.35 l -0.18 0.14 l -0.29 -0.38 l -0.18 0.14 l -0.29 -0.38 l -0.2 0.15 l -0.28 -0.37 l -0.17 0.13 l -0.28 -0.37 l -0.2 0.15 l -0.27 -0.35 l -0.37 0.28 l -0.15 -0.2 l -0.2 0.15 l -0.27 -0.35 l -0.18 0.14 l -0.15 -0.2 l -0.18 0.14 l -0.15 -0.03 c -0.05 0.04 -0.11 0.07 -0.19 0.1 c -0.07 0.02 -0.11 0.04 -0.15 0.06 l -0.16 -0.21 l -0.2 0.15 l -0.19 -0.12 l -1.31 1 l 0.14 0.18 l -0.14 0.23 l 3.09 4.1 l 0.2 -0.15 l 0.18 0.08 c 0.05 -0.04 0.1 -0.06 0.16 -0.07 c 0.06 -0.03 0.11 -0.06 0.16 -0.1 l 0.14 0.18 l 1.07 -0.81 l 0.15 0.2 l 0.38 -0.29 l 0.19 0.25 l -0.06 0.14 l 0.02 0.13 l -3.93 3 l -0.15 -0.03 s -0.02 0.01 -0.04 0 c -0.02 0 -0.04 0 -0.06 0.02 l -0.21 -0.28 l 0.05 -0.13 c -0.05 -0.06 -0.08 -0.11 -0.09 -0.15 l 0.26 -0.2 l -0.13 -0.17 l 0.53 -0.41 l -0.15 -0.2 l 0.37 -0.28 l -7.04 -9.35 l -0.18 0.14 l -0.17 -0.04 s -0.04 0.02 -0.06 0.02 c -0.02 0 -0.04 0 -0.06 0.02 l -0.17 -0.23 l -1.08 0.83 l -0.16 -0.02 s -0.04 0.02 -0.06 0.02 c -0.02 0 -0.04 0 -0.06 0.02 l -0.22 -0.29 l 0.05 -0.13 s -0.03 -0.04 -0.03 -0.07 c 0 -0.03 -0.02 -0.05 -0.03 -0.07 l 0.24 -0.19 l -0.13 -0.17 Z m 1.08 0.82 l -0.03 0.02 l -0.09 -0.05 l -0.15 -0.2 l 0.14 -0.1 l 0.13 0.33 Z" stroke-linecap="round"/>
</g>
		<g transform="matrix(1 0 0 1 -35.56 -76.29)" id="Layer_1">
<path style="stroke: none; stroke-width: 0; stroke-dasharray: none; stroke-linecap: butt; stroke-dashoffset: 0; stroke-linejoin: miter; stroke-miterlimit: 4; is-custom-font: none; font-file-url: none; fill: rgb(77,47,20); fill-opacity: 0.7; fill-rule: nonzero; opacity: 1;" transform=" translate(-91.95, -64.41)" d="m 84.46 60.1 l 9.17 -3.97 l 0.12 0.09 s 0.06 -0.01 0.12 -0.01 h -0.02 s 0.04 0.01 0.06 0 l 0.26 0.62 l 0.21 -0.09 l 0.2 0.48 l -0.1 0.15 c 0.07 0.15 0.12 0.32 0.17 0.49 c 0.04 0.16 0.1 0.33 0.17 0.49 l -0.1 0.15 c 0.04 0.08 0.06 0.16 0.06 0.25 c 0 0.08 0.03 0.17 0.07 0.26 l -0.18 0.08 l 0.1 0.23 l -0.47 0.21 l -0.17 -0.41 l -0.21 0.09 l -0.44 -1.03 l -0.19 0.08 l -0.18 -0.42 l -0.42 0.18 l -0.13 -0.07 l -0.66 0.22 c -0.06 0.01 -0.15 0.04 -0.25 0.09 c -0.1 0.03 -0.18 0.06 -0.24 0.08 l -0.09 -0.21 l -3.41 1.48 l 0.1 0.23 l -0.1 0.15 c 0.17 0.4 0.34 0.83 0.5 1.27 c 0.16 0.43 0.33 0.87 0.52 1.31 l -0.1 0.17 l 0.31 0.92 l 0.21 -0.09 l 0.26 0.62 l 0.21 -0.09 l 0.15 0.16 l 2.51 -1.09 l -0.18 -0.42 l 0.21 -0.09 l -0.17 -0.39 l 0.09 -0.12 s -0.05 -0.11 -0.06 -0.25 c -0.02 -0.15 -0.05 -0.26 -0.08 -0.34 l 0.21 -0.09 l -0.08 -0.19 l 0.05 -0.02 l 0.12 0.09 s 0.08 -0.03 0.11 -0.03 l 1.7 3.98 l -0.23 0.1 l -0.09 -0.21 l -0.21 0.09 l -0.17 -0.41 l -0.21 0.09 l -0.17 -0.41 l -0.21 0.09 l -0.18 -0.42 l -0.18 0.08 l -0.08 -0.18 l -0.62 0.27 l -0.09 -0.21 l -1.79 0.78 l 0.17 0.39 l -0.1 0.17 s 0.02 0.07 0.02 0.1 l -0.25 0.15 l 1.9 4.46 l 0.21 -0.09 l 0.17 0.39 l 0.21 -0.09 l 0.19 0.19 l 3.94 -1.7 l -0.1 -0.23 l 0.81 -0.35 l -0.08 -0.18 l 0.39 -0.17 l -0.09 -0.21 l 0.21 -0.09 l -0.18 -0.42 l 0.08 -0.12 v 0.02 c -0.03 -0.11 -0.06 -0.22 -0.09 -0.33 c -0.03 -0.1 -0.05 -0.19 -0.08 -0.28 c -0.02 -0.09 -0.04 -0.15 -0.06 -0.18 l 0.23 -0.1 l -0.26 -0.62 l 0.08 -0.12 s -0.03 -0.09 -0.04 -0.13 l 0.32 -0.14 l 0.12 0.09 s 0.08 -0.02 0.16 -0.03 l 0.2 0.46 l 0.21 -0.09 l 1.07 2.5 l -0.1 0.15 s 0.02 0.07 0.02 0.1 l -0.25 0.15 l 0.08 0.19 l -0.39 0.17 l 0.09 0.21 l -0.06 0.05 l -0.08 -0.24 l -8.56 3.7 l -0.13 -0.07 s -0.04 0.02 -0.05 0.02 c -0.02 0 -0.03 0 -0.04 0 l -0.13 -0.3 l -0.11 0.05 l 0.1 -0.06 l -0.09 -0.21 l 0.4 -0.17 l -0.08 -0.19 l 0.62 -0.27 l -0.1 -0.23 l 0.21 -0.09 l -0.08 -0.18 l 0.18 -0.08 l -4.44 -10.41 l -0.39 0.17 l -0.09 -0.21 l -1.02 0.44 l -0.08 -0.19 l -0.21 0.09 l -0.09 -0.21 l -0.19 0.08 l -0.1 -0.23 l 0.07 -0.13 l 0.04 -0.16 Z m 8.79 1.46 l -0.06 0.11 l -0.26 0.11 l -0.08 -0.18 l 0.4 -0.05 Z" stroke-linecap="round"/>
</g>
		<g transform="matrix(1 0 0 1 -15.865 -82.195)" id="Layer_1">
<path style="stroke: none; stroke-width: 0; stroke-dasharray: none; stroke-linecap: butt; stroke-dashoffset: 0; stroke-linejoin: miter; stroke-miterlimit: 4; is-custom-font: none; font-file-url: none; fill: rgb(77,47,20); fill-opacity: 0.7; fill-rule: nonzero; opacity: 1;" transform=" translate(-111.645, -58.505)" d="m 116.1 58.08 l 0.1 -0.1 l -0.11 -1.19 l -0.21 0.04 l -0.27 -1.52 l -0.23 0.04 l -0.12 -0.68 l -0.19 0.03 l -0.11 -0.65 l -0.23 0.04 l -0.04 -0.23 l -0.23 0.04 l -0.08 -0.44 l -0.21 0.04 l -0.04 -0.23 l -0.24 0.04 l -0.08 -0.46 l -0.43 0.08 l -0.11 -0.1 s -0.03 0 -0.04 -0.01 c -0.01 -0.01 -0.03 -0.01 -0.06 0 l -0.05 -0.27 l -0.26 0.05 l -0.11 -0.1 s -0.03 0 -0.04 -0.01 l -0.09 -0.32 l -0.89 0.16 l -0.11 -0.2 l -2.49 0.44 l 0.04 0.23 l -0.13 0.12 s 0 0.03 -0.01 0.04 c 0 0.01 0 0.03 0 0.04 l -0.28 0.09 l 1.19 6.79 l -0.19 0.03 l 0.19 1.06 l 0.19 -0.03 l 0.53 3.05 l 0.23 -0.04 l 0.12 0.15 c 0.09 -0.02 0.18 -0.02 0.27 0 c 0.11 0 0.2 0 0.29 -0.01 l 0.11 0.2 l 1.62 -0.29 l -0.04 -0.21 l 0.66 -0.12 l -0.04 -0.25 l 0.68 -0.12 l -0.03 -0.19 l 0.43 -0.08 l -0.04 -0.23 l 0.43 -0.08 l -0.08 -0.46 l 0.19 -0.03 l -0.03 -0.19 l 0.24 -0.04 l -0.04 -0.23 l 0.1 -0.1 c 0 -0.05 0 -0.12 0 -0.22 c 0 -0.09 0.01 -0.15 0 -0.18 l 0.24 -0.04 l -0.08 -0.44 l 0.09 -0.13 c -0.02 -0.1 -0.01 -0.19 0 -0.28 c 0.02 -0.1 0.02 -0.19 0 -0.29 l 0.19 -0.03 l -0.11 -0.65 l 0.23 -0.04 l -0.23 -1.33 Z m -10.48 -6.04 l 1.15 -0.2 l 0.12 0.21 l 2.69 -0.48 l -0.04 -0.23 h 0.04 s 0.12 0.11 0.12 0.11 c 0.33 -0.06 0.67 -0.1 1.03 -0.12 c 0.36 -0.04 0.72 -0.09 1.08 -0.15 l 0.03 0.19 l 0.66 -0.12 l 0.12 0.14 s 0.1 0 0.18 0 c 0.08 0 0.14 0 0.19 -0.01 l 0.04 0.23 l 0.41 -0.07 l 0.12 0.15 c 0.06 -0.01 0.12 0 0.18 0 c 0.06 0 0.13 0 0.19 -0.01 l 0.1 0.12 s 0.06 0 0.14 0.01 l 0.05 0.27 l 0.19 -0.03 l 0.1 0.12 s 0.1 0 0.18 0 l 0.05 0.28 l 0.21 -0.04 l 0.1 0.12 s 0.08 0 0.16 0.01 l 0.04 0.25 l 0.21 -0.04 l 0.12 0.14 s 0.06 0 0.14 0.01 l 0.08 0.47 l 0.21 -0.04 l 0.12 0.14 s 0.03 0 0.06 0.03 c 0.03 0 0.05 0.02 0.08 0.02 l 0.08 0.44 l 0.21 -0.04 l 0.12 0.66 l 0.23 -0.04 l 0.16 0.89 l 0.21 -0.04 l 0.19 1.06 l 0.24 -0.04 l 0.28 1.61 l -0.15 0.12 c 0.03 0.18 0.05 0.38 0.07 0.59 c 0.01 0.22 0.04 0.43 0.07 0.63 l -0.12 0.12 c 0.02 0.09 0.02 0.19 0.01 0.29 c 0 0.09 0 0.18 0 0.27 l -0.13 0.12 c 0.02 0.1 0.02 0.2 0.02 0.31 s 0 0.2 0.01 0.29 l -0.21 0.04 l 0.08 0.47 l -0.13 0.12 s 0 0.09 -0.01 0.16 c 0 0.05 0 0.1 0 0.16 l -0.23 0.04 l 0.04 0.21 l -0.13 0.14 s 0 0.07 0 0.1 l -0.26 0.08 l 0.04 0.21 l -0.13 0.12 c 0.01 0.06 0 0.12 0 0.18 c 0 0.05 0 0.11 0.01 0.17 l -0.47 0.08 l 0.04 0.23 l -0.19 0.03 l 0.04 0.23 l -0.12 0.12 s 0 0.05 0 0.08 l -0.51 0.09 l 0.05 0.27 l -0.13 0.12 s 0 0.03 -0.01 0.04 c -0.01 0.01 -0.01 0.03 0 0.06 l -1.34 0.24 l 0.04 0.23 l -5.9 1.05 l -0.04 -0.23 l -0.26 0.05 l -0.11 -0.1 s -0.03 0 -0.04 -0.01 c -0.01 -0.01 -0.03 -0.01 -0.06 0 l -0.06 -0.32 l 0.45 -0.08 l -0.04 -0.23 l 0.62 -0.11 l -0.04 -0.21 l 0.43 -0.08 l -0.04 -0.25 l 0.23 -0.04 l -1.45 -8.31 l 0.1 -0.1 l -0.14 -1.44 l -0.23 0.04 v -0.06 s 0.09 -0.1 0.09 -0.1 l -0.02 -0.76 l -0.23 0.04 l -0.08 -0.46 l -0.24 0.04 l -0.11 -0.1 c -0.1 0.02 -0.2 0.02 -0.29 0.01 c -0.08 -0.02 -0.17 -0.03 -0.25 -0.01 l -0.04 -0.23 l -0.87 0.15 l -0.04 -0.21 l -0.23 0.04 l -0.05 -0.28 l 0.23 -0.04 l -0.03 -0.19 l 0.1 -0.11 l 0.07 -0.15 Z" stroke-linecap="round"/>
</g>
		<g transform="matrix(1 0 0 1 5.565 -84.28)" id="Layer_1">
<path style="stroke: none; stroke-width: 0; stroke-dasharray: none; stroke-linecap: butt; stroke-dashoffset: 0; stroke-linejoin: miter; stroke-miterlimit: 4; is-custom-font: none; font-file-url: none; fill: rgb(77,47,20); fill-opacity: 0.7; fill-rule: nonzero; opacity: 1;" transform=" translate(-133.075, -56.42)" d="m 128.21 49.07 l 9.97 0.57 l 0.07 0.14 s 0.06 0.02 0.11 0.05 h -0.02 s 0.03 0.02 0.06 0.02 l -0.04 0.67 h 0.23 s -0.03 0.53 -0.03 0.53 l -0.16 0.09 c 0 0.17 -0.03 0.34 -0.07 0.52 c -0.03 0.17 -0.06 0.34 -0.07 0.52 l -0.16 0.09 c 0 0.09 -0.02 0.17 -0.05 0.25 c -0.03 0.08 -0.05 0.16 -0.05 0.27 h -0.19 s -0.01 0.24 -0.01 0.24 l -0.52 -0.03 l 0.02 -0.44 h -0.23 s 0.06 -1.13 0.06 -1.13 h -0.21 s 0.03 -0.47 0.03 -0.47 l -0.46 -0.03 l -0.09 -0.12 l -0.68 -0.1 c -0.06 -0.02 -0.15 -0.03 -0.27 -0.03 c -0.1 -0.02 -0.18 -0.03 -0.25 -0.03 v -0.23 s -3.69 -0.21 -3.69 -0.21 v 0.25 s -0.17 0.09 -0.17 0.09 c -0.02 0.44 -0.06 0.89 -0.12 1.36 c -0.05 0.46 -0.09 0.93 -0.12 1.4 l -0.16 0.11 l -0.13 0.96 h 0.23 s -0.04 0.69 -0.04 0.69 h 0.23 s 0.06 0.23 0.06 0.23 l 2.73 0.16 l 0.03 -0.46 h 0.23 s 0.02 -0.41 0.02 -0.41 l 0.14 -0.07 s 0 -0.12 0.05 -0.25 c 0.05 -0.14 0.07 -0.25 0.08 -0.34 h 0.23 s 0.01 -0.2 0.01 -0.2 h 0.06 s 0.07 0.14 0.07 0.14 c 0.05 0 0.09 0.01 0.11 0.03 l -0.24 4.33 h -0.25 s 0.01 -0.25 0.01 -0.25 h -0.23 s 0.02 -0.46 0.02 -0.46 h -0.23 s 0.02 -0.46 0.02 -0.46 h -0.23 s 0.03 -0.47 0.03 -0.47 h -0.19 s 0.01 -0.2 0.01 -0.2 l -0.67 -0.04 v -0.23 s -1.94 -0.11 -1.94 -0.11 l -0.02 0.42 l -0.16 0.11 s -0.01 0.07 -0.02 0.1 l -0.29 0.02 l -0.27 4.85 h 0.23 s -0.02 0.44 -0.02 0.44 h 0.23 s 0.08 0.27 0.08 0.27 l 4.28 0.25 v -0.25 s 0.89 0.05 0.89 0.05 v -0.19 s 0.43 0.02 0.43 0.02 v -0.23 s 0.24 0.01 0.24 0.01 l 0.03 -0.46 l 0.12 -0.07 v 0.02 c 0.02 -0.11 0.04 -0.23 0.06 -0.34 c 0.02 -0.1 0.04 -0.2 0.05 -0.29 c 0.02 -0.09 0.03 -0.15 0.03 -0.19 h 0.25 s 0.04 -0.66 0.04 -0.66 l 0.12 -0.07 c 0 -0.05 0.01 -0.1 0.03 -0.13 l 0.34 0.02 l 0.07 0.14 s 0.08 0.02 0.15 0.05 l -0.03 0.5 h 0.23 s -0.15 2.73 -0.15 2.73 l -0.16 0.09 s -0.01 0.07 -0.02 0.1 l -0.29 0.02 v 0.21 s -0.43 -0.02 -0.43 -0.02 v 0.23 s -0.09 0.01 -0.09 0.01 l 0.03 -0.25 l -9.3 -0.53 l -0.09 -0.12 s -0.04 0 -0.06 0 c -0.01 -0.01 -0.02 -0.02 -0.04 -0.02 l 0.02 -0.33 h -0.11 s 0.12 -0.02 0.12 -0.02 v -0.23 s 0.45 0.03 0.45 0.03 v -0.21 s 0.68 0.04 0.68 0.04 v -0.25 s 0.24 0.01 0.24 0.01 v -0.19 s 0.2 0.01 0.2 0.01 l 0.64 -11.31 l -0.42 -0.02 v -0.23 s -1.1 -0.06 -1.1 -0.06 v -0.21 s -0.22 -0.01 -0.22 -0.01 v -0.23 s -0.2 -0.01 -0.2 -0.01 v -0.25 s 0.13 -0.09 0.13 -0.09 l 0.1 -0.13 Z m 7.21 5.26 l -0.1 0.07 l -0.29 -0.02 v -0.19 s 0.39 0.14 0.39 0.14 Z" stroke-linecap="round"/>
</g>
		<g transform="matrix(1 0 0 1 26.445 -81.385)" id="Layer_1">
<path style="stroke: none; stroke-width: 0; stroke-dasharray: none; stroke-linecap: butt; stroke-dashoffset: 0; stroke-linejoin: miter; stroke-miterlimit: 4; is-custom-font: none; font-file-url: none; fill: rgb(77,47,20); fill-opacity: 0.7; fill-rule: nonzero; opacity: 1;" transform=" translate(-153.955, -59.315)" d="m 150.56 51.08 l 0.9 0.27 l 0.05 0.18 c 0.28 0.08 0.57 0.18 0.87 0.3 c 0.3 0.12 0.61 0.22 0.92 0.32 l 0.04 0.15 s 0.06 0.03 0.1 0.07 h -0.02 s 0.02 0.02 0.05 0.03 l -0.13 0.44 l 0.18 0.05 l -0.13 0.44 l 0.24 0.07 l -0.12 0.41 l 0.2 0.06 l 0.04 0.15 s 0.07 0.03 0.14 0.08 l -0.2 0.68 l 0.18 0.05 l -0.13 0.44 l 0.22 0.07 l 0.04 0.15 s 0.07 0.03 0.14 0.08 l -0.14 0.48 l 0.18 0.05 l -0.13 0.42 l 0.24 0.07 l -0.12 0.42 l 0.2 0.06 l -0.13 0.44 l 0.22 0.07 l 0.04 0.15 s 0.05 0.03 0.12 0.08 l -0.08 0.26 l 0.26 0.08 l -0.12 0.42 l 0.18 0.05 l -0.12 0.42 l 0.22 0.07 l -0.12 0.42 l 0.22 0.07 l 0.04 0.15 s 0.07 0.03 0.14 0.08 l -0.14 0.48 l 0.18 0.05 l -0.05 0.18 l 0.22 0.07 l -0.13 0.42 l 0.22 0.07 l -0.13 0.42 l 0.18 0.05 l 0.05 0.18 s 0.05 0.03 0.12 0.08 l -0.08 0.26 l 0.22 0.07 l -0.13 0.42 l 0.42 0.13 l 0.05 0.18 l 0.49 0.23 l 1.68 -5.71 l -0.22 -0.07 l 0.51 -1.72 l -0.22 -0.07 l 0.13 -0.44 l -0.24 -0.07 l -0.06 -0.14 h 0.02 s -0.32 -0.13 -0.32 -0.13 c -0.08 -0.04 -0.16 -0.08 -0.25 -0.11 c -0.07 -0.03 -0.12 -0.05 -0.14 -0.06 l 0.07 -0.22 l -0.42 -0.13 l 0.06 -0.2 l -0.42 -0.13 l 0.14 -0.46 l 0.14 -0.06 s 0.03 -0.09 0.06 -0.12 l 4.13 1.23 l 0.05 0.16 s 0.03 0 0.05 0.03 c 0.02 0.03 0.04 0.05 0.06 0.06 l -0.15 0.52 l -0.16 0.05 s -0.02 0.05 -0.05 0.09 l -0.5 -0.15 l -0.07 0.22 l -0.42 -0.13 l -0.32 1.07 l -0.15 0.04 l -0.36 0.96 l 0.2 0.06 l -0.19 0.65 l -0.23 0.05 l -1.34 4.54 l 0.2 0.06 l -1.34 4.56 l -0.16 0.05 s -0.01 0.02 -0.03 0.03 c -0.02 0 -0.03 0.03 -0.03 0.05 l -0.44 -0.13 l -0.07 0.22 l -0.29 -0.09 l 0.07 -0.22 l -0.2 -0.06 l -0.06 -0.14 s -0.02 0 -0.04 -0.01 c 0 -0.02 -0.02 -0.03 -0.03 -0.03 l 0.06 -0.32 l -0.22 -0.07 l 0.11 -0.39 l -0.22 -0.07 l 0.13 -0.44 l -0.2 -0.06 l 0.12 -0.41 l -0.24 -0.07 l 0.13 -0.44 l -0.18 -0.05 l 0.12 -0.41 l -0.2 -0.06 l 0.13 -0.44 l -0.22 -0.07 l 0.2 -0.68 l -0.2 -0.06 l 0.05 -0.18 l -0.22 -0.07 l 0.18 -0.63 l -0.2 -0.06 l 0.07 -0.22 l -0.24 -0.07 l 0.13 -0.44 l -0.2 -0.06 l -0.06 -0.14 s -0.02 0 -0.04 -0.01 c 0 -0.02 -0.02 -0.03 -0.03 -0.03 l 0.11 -0.51 l -0.2 -0.06 l 0.13 -0.42 l -0.26 -0.08 l 0.13 -0.42 l -0.2 -0.06 l 0.07 -0.22 l -0.22 -0.07 l 0.12 -0.42 l -0.2 -0.06 l 0.12 -0.41 l -0.22 -0.07 l 0.13 -0.44 l -0.2 -0.06 l 0.07 -0.22 l -0.18 -0.05 l 0.13 -0.42 l -0.24 -0.07 l 0.13 -0.42 l -0.2 -0.06 l 0.12 -0.42 l -0.24 -0.07 l -0.06 -0.14 s -0.04 -0.01 -0.06 -0.02 c 0 -0.02 -0.02 -0.03 -0.03 -0.03 l 0.16 -0.54 l -0.42 -0.13 l 0.05 -0.18 l -0.61 -0.18 l -0.13 0.44 h -0.22 s -1.78 6.05 -1.78 6.05 l 0.2 0.06 l -0.57 1.92 l 0.22 0.07 l -0.13 0.44 l 0.22 0.07 l 0.05 0.18 c 0.09 0.03 0.17 0.06 0.25 0.11 c 0.09 0.05 0.18 0.1 0.28 0.12 l -0.05 0.18 l 0.83 0.25 l 0.04 0.19 s 0.05 0.03 0.12 0.08 l -0.07 0.24 l 0.18 0.05 l -0.14 0.48 l -1.23 -0.37 l -0.06 0.2 l -3.01 -0.9 l -0.08 -0.14 s -0.11 -0.05 -0.17 -0.09 c -0.07 -0.05 -0.11 -0.07 -0.14 -0.08 l 0.15 -0.5 l 0.22 0.07 l 0.06 -0.2 l 0.13 -0.04 s 0.02 -0.05 0.04 -0.07 c 0.02 -0.03 0.04 -0.06 0.05 -0.09 l 0.29 0.09 l 0.05 -0.18 l 0.18 0.05 l 0.07 -0.22 l 0.44 0.13 l 3.13 -10.64 l -0.22 -0.07 l 0.07 -0.22 l -1.06 -0.32 l 0.06 -0.2 l -0.2 -0.06 l 0.2 -0.68 l 0.13 -0.04 l 0.14 -0.12 Z m -4.19 12.86 l 0.39 0.02 l -0.05 0.17 l -0.34 -0.18 Z" stroke-linecap="round"/>
</g>
		<g transform="matrix(1 0 0 1 56.7 -63.425)" id="Layer_1">
<path style="stroke: none; stroke-width: 0; stroke-dasharray: none; stroke-linecap: butt; stroke-dashoffset: 0; stroke-linejoin: miter; stroke-miterlimit: 4; is-custom-font: none; font-file-url: none; fill: rgb(77,47,20); fill-opacity: 0.7; fill-rule: nonzero; opacity: 1;" transform=" translate(-184.21, -77.275)" d="m 187.5 72.95 l 0.58 0.47 l -0.12 0.15 l 0.69 0.55 l -0.02 0.18 c 0.2 0.16 0.41 0.34 0.62 0.55 c 0.21 0.2 0.43 0.4 0.66 0.58 l -0.02 0.18 s 0.07 0.06 0.08 0.09 l -0.18 0.23 l 0.18 0.14 l -0.55 0.69 l 0.18 0.14 l -0.47 0.59 l -0.18 -0.02 c -0.06 0.08 -0.13 0.15 -0.21 0.2 c -0.08 0.05 -0.14 0.12 -0.2 0.19 l -0.75 -0.6 l 0.26 -0.33 l -0.18 -0.14 l 0.3 -0.38 l -0.15 -0.12 l 0.41 -0.51 l -0.18 -0.14 l 0.16 -0.2 l -0.54 -0.43 l 0.07 -0.21 l -2.17 -1.75 l -0.13 0.17 l -0.34 -0.28 l -0.17 0.21 h -0.16 s -0.04 0.03 -0.06 0.04 l -0.24 -0.19 l -0.29 0.36 l -0.15 -0.12 l -0.69 0.87 l 0.15 0.12 l -0.26 0.33 l 0.19 0.16 l -0.02 0.18 s 0.04 0.05 0.07 0.1 l -0.17 0.21 l 0.51 0.41 l -0.13 0.17 l 1.25 1.01 l -0.02 0.15 c 0.15 0.12 0.3 0.26 0.45 0.42 c 0.15 0.16 0.31 0.3 0.48 0.44 l -0.02 0.18 s 0.11 0.1 0.17 0.19 c 0.06 0.08 0.14 0.16 0.21 0.22 l -0.02 0.18 s 0.09 0.09 0.11 0.14 c 0.04 0.05 0.09 0.1 0.14 0.14 l -0.16 0.2 l 0.34 0.28 l -0.13 0.17 l 0.16 0.13 l -0.02 0.18 s 0.04 0.05 0.08 0.11 l -0.16 0.2 l 0.18 0.14 l -0.03 0.2 s 0.04 0.05 0.08 0.11 l -0.43 0.54 l 0.15 0.12 l -0.73 0.92 l -0.15 -0.12 l -0.17 0.21 l -0.18 -0.02 s -0.02 0.02 -0.04 0.02 c -0.02 0 -0.03 0.01 -0.05 0.03 l -0.21 -0.17 l -0.3 0.38 l -0.18 -0.02 s -0.02 0.02 -0.04 0.02 c -0.02 0 -0.03 0.01 -0.05 0.03 l -0.19 -0.16 l -0.14 0.18 l -0.34 -0.28 l -0.16 0.2 l -0.19 -0.03 s -0.02 0.02 -0.04 0.02 c -0.02 0 -0.03 0.01 -0.05 0.03 l -0.39 -0.31 l -0.16 0.2 l -1.02 -0.82 l -0.12 0.15 l -1.28 -1.04 l 0.12 -0.15 l -1.02 -0.82 l 0.16 -0.2 l -0.49 -0.4 l -0.16 0.2 l -0.57 -0.46 l 0.16 -0.2 l -0.19 -0.16 v -0.15 s -0.02 -0.02 -0.03 -0.02 c 0 -0.02 0 -0.03 -0.02 -0.04 l 0.16 -0.26 l -0.18 -0.14 l 0.56 -0.71 l -0.15 -0.12 l 0.16 -0.2 l 0.15 0.12 l 0.42 -0.53 l -0.04 -0.04 l 0.06 0.02 l 0.27 -0.35 l 0.18 0.14 l 0.16 -0.2 l 0.39 0.31 l -0.02 0.18 s 0.04 0.05 0.08 0.11 l -0.17 0.21 l 0.18 0.14 l -0.42 0.53 l 0.18 0.14 l -0.27 0.35 l 0.18 0.14 l -0.02 0.18 s 0.05 0.05 0.06 0.08 l -0.18 0.23 l 0.36 0.29 l -0.02 0.18 s 0.08 0.08 0.1 0.13 c 0.03 0.04 0.08 0.09 0.14 0.14 l -0.16 0.2 l 2.24 1.81 l 0.14 -0.18 l 0.34 0.28 l 0.14 -0.18 l 0.36 0.29 l 0.14 -0.18 l 0.15 0.12 l 0.26 -0.33 l 0.18 0.14 l 1.11 -1.4 l -0.19 -0.16 v -0.15 s -0.07 -0.07 -0.11 -0.14 c -0.03 -0.06 -0.06 -0.1 -0.08 -0.11 l 0.16 -0.2 l -0.52 -0.42 l 0.13 -0.17 l -0.7 -0.57 l 0.14 -0.18 l -1.4 -1.13 v -0.15 c -0.06 -0.05 -0.13 -0.11 -0.21 -0.2 c -0.07 -0.09 -0.13 -0.17 -0.18 -0.24 l 0.16 -0.2 l -0.34 -0.28 l 0.12 -0.15 l -0.36 -0.29 l 0.16 -0.2 l -0.18 -0.14 v -0.15 s -0.02 -0.02 -0.03 -0.02 c 0 -0.02 0 -0.03 -0.02 -0.04 l 0.17 -0.28 l -0.16 -0.13 l 0.25 -0.32 l -0.18 -0.14 l 0.29 -0.36 l -0.18 -0.14 l 0.48 -0.6 l 0.15 0.02 c 0.04 -0.05 0.07 -0.09 0.1 -0.12 c 0.04 -0.03 0.08 -0.06 0.13 -0.1 l 0.21 -0.17 l 0.18 0.14 l 0.14 -0.18 l 0.16 0.13 l 0.14 -0.18 l 0.18 0.14 l 0.14 -0.18 h 0.14 s 0.03 -0.02 0.05 -0.02 c 0.02 0 0.03 -0.01 0.05 -0.03 l 0.24 0.19 l 0.14 -0.18 h 0.14 s 0.04 -0.02 0.06 -0.04 c 0.03 -0.01 0.05 -0.03 0.06 -0.05 l 0.39 0.31 l 0.14 -0.18 l 0.36 0.29 l 0.14 -0.18 l 1.03 0.83 l 0.12 -0.15 Z m -4.78 3.11 s -0.02 0.01 -0.03 0 c 0 0 0 0 0.01 -0.02 h 0.02 Z m 5.61 1.64 l -0.32 0.21 l -0.03 -0.02 l 0.23 -0.29 l 0.12 0.1 Z" stroke-linecap="round"/>
</g>
		<g transform="matrix(1 0 0 1 69.81 -51.5)" id="Layer_1">
<path style="stroke: none; stroke-width: 0; stroke-dasharray: none; stroke-linecap: butt; stroke-dashoffset: 0; stroke-linejoin: miter; stroke-miterlimit: 4; is-custom-font: none; font-file-url: none; fill: rgb(77,47,20); fill-opacity: 0.7; fill-rule: nonzero; opacity: 1;" transform=" translate(-197.32, -89.2)" d="m 203.86 82.65 l 0.47 0.56 l -0.05 0.15 c 0.05 0.06 0.08 0.11 0.08 0.16 c 0.02 0.05 0.06 0.1 0.11 0.16 l -0.21 0.17 l 0.16 0.19 l -0.15 0.12 l 0.14 0.16 l -0.75 0.63 l -0.16 -0.04 s -0.02 0.01 -0.04 0.01 c -0.02 0 -0.04 0 -0.06 0.02 l -0.18 -0.22 l -0.21 0.17 l -0.12 -0.15 l -0.16 0.14 l -0.18 -0.07 s -0.05 0.03 -0.13 0.06 l -0.33 -0.4 l -0.16 0.14 l -0.17 -0.21 l 0.03 -0.15 c -0.07 -0.08 -0.11 -0.16 -0.14 -0.23 c -0.02 -0.08 -0.06 -0.17 -0.13 -0.24 l 0.19 -0.16 l -0.16 -0.19 l 0.15 -0.12 l -0.14 -0.16 l 0.75 -0.63 l 0.13 0.04 s 0.1 -0.07 0.19 -0.11 c 0.08 -0.04 0.14 -0.07 0.16 -0.08 l 0.17 0.21 l 0.15 -0.12 l 0.12 0.15 l 0.19 -0.16 l 0.29 0.35 l 0.16 -0.14 Z m -3.56 2.74 l 0.3 0.35 l -0.04 0.19 s 0.07 0.1 0.1 0.15 c 0.03 0.06 0.06 0.12 0.08 0.18 l -0.51 0.43 l 0.16 0.19 l -0.21 0.17 l -0.22 -0.14 l -5.57 4.71 l 0.16 0.19 l -0.16 0.14 l 0.28 0.34 l -0.06 0.17 c 0.36 0.43 0.71 0.87 1.04 1.31 c 0.34 0.45 0.71 0.91 1.11 1.4 l -0.05 0.15 c 0.06 0.07 0.09 0.13 0.09 0.17 c 0.01 0.06 0.05 0.12 0.11 0.19 l -0.41 0.35 l -0.18 -0.07 s -0.02 0.01 -0.04 0.01 c 0 0 -0.02 0.02 -0.03 0.02 l -0.34 -0.34 l -0.16 0.14 l -0.49 -0.59 l 0.11 -0.19 l -4.78 -5.74 l -0.15 0.12 v -0.17 s -0.08 -0.1 -0.11 -0.17 c -0.03 -0.08 -0.05 -0.12 -0.07 -0.14 l 0.57 -0.48 l 0.15 0.03 s 0.08 -0.06 0.12 -0.07 l 1.49 1.79 l 0.18 -0.15 l 0.28 0.34 l 0.16 -0.14 l 0.3 0.35 l 5.45 -4.61 l -0.44 -0.53 l 0.19 -0.16 l -1.25 -1.51 l -0.19 0.16 l -0.32 -0.38 l 0.19 -0.16 l -0.15 -0.18 l 0.03 -0.15 s -0.02 -0.02 -0.04 -0.02 c 0 0 0 0 -0.01 -0.01 c -0.02 -0.02 0 -0.06 0.07 -0.13 c 0.07 -0.08 0.13 -0.13 0.18 -0.18 l 0.16 0.19 l 0.18 -0.15 l 1.13 1.36 l 0.15 -0.12 l 1.3 1.56 l 0.19 -0.16 Z m -10.12 2.9 l 0.26 0.08 l 0.18 0.22 l -0.12 0.1 l -0.33 -0.4 Z" stroke-linecap="round"/>
</g>
		<g transform="matrix(1 0 0 1 82.715 -35.22)" id="Layer_1">
<path style="stroke: none; stroke-width: 0; stroke-dasharray: none; stroke-linecap: butt; stroke-dashoffset: 0; stroke-linejoin: miter; stroke-miterlimit: 4; is-custom-font: none; font-file-url: none; fill: rgb(77,47,20); fill-opacity: 0.7; fill-rule: nonzero; opacity: 1;" transform=" translate(-210.225, -105.48)" d="m 205.02 101.7 l 0.11 0.2 l -0.78 0.41 l 0.11 0.2 l -0.37 0.2 l 0.1 0.19 l -0.11 0.17 s 0.02 0.06 0.02 0.12 v -0.02 s -0.01 0.04 0 0.06 l -0.42 0.22 l 0.09 0.17 l -0.09 0.16 s 0.02 0.07 0.04 0.15 l -0.24 0.13 l 0.1 0.19 l -0.19 0.1 l 0.21 0.39 l -0.09 0.16 c 0.11 0.22 0.21 0.43 0.3 0.65 c 0.09 0.23 0.2 0.47 0.33 0.72 l -0.08 0.13 l 0.28 0.7 l 0.19 -0.1 l 0.42 0.8 l 0.2 -0.11 l 0.21 0.41 l 0.19 -0.1 l 0.11 0.2 l 0.2 -0.11 l 0.09 0.17 l 1.79 -0.95 l 0.12 0.22 l 3.1 -1.65 l -0.12 -0.22 l 0.81 -0.43 l -0.2 -0.37 l 0.2 -0.11 l -0.22 -0.43 l 0.06 -0.14 c -0.05 -0.09 -0.08 -0.18 -0.09 -0.26 c 0 -0.09 -0.03 -0.17 -0.07 -0.27 l 0.22 -0.12 l -0.92 -1.75 l -0.22 0.12 l -0.32 -0.61 l -0.19 0.1 l -0.21 -0.39 l -0.2 0.11 l -0.21 -0.41 l -0.39 0.21 l -0.09 -0.17 l -0.24 0.13 l -0.16 -0.09 s -0.03 0 -0.04 0 c -0.01 0 -0.02 0.01 -0.03 0.02 l -0.17 -0.24 l -0.41 0.22 l -0.16 -0.09 c -0.08 0.04 -0.17 0.08 -0.27 0.1 c -0.1 0.03 -0.19 0.06 -0.27 0.1 l -0.16 -0.09 l -1.86 0.9 Z m 12.92 1 l 0.33 0.63 l -0.57 0.31 l 0.09 0.17 l -0.44 0.23 l -0.09 -0.17 l -1.17 0.62 l 0.09 0.17 l -0.22 0.12 l -0.09 -0.17 l -9.07 4.82 l 0.09 0.17 l -0.41 0.22 l 0.54 1.02 l -0.19 0.1 l 0.21 0.41 l -0.46 0.24 l -0.16 -0.09 s -0.03 0 -0.04 0 c -0.01 0 -0.02 0.01 -0.03 0.02 l -0.49 -0.85 l -0.19 0.1 l -0.3 -0.58 l -0.22 0.12 l -0.45 -0.85 l 0.22 -0.12 l -0.7 -1.33 l -0.22 0.12 l -0.42 -0.8 l -0.19 0.1 l -1.19 -2.27 l 0.06 -0.14 s -0.03 -0.09 -0.05 -0.17 c 0 -0.07 -0.02 -0.11 -0.03 -0.14 l 0.24 -0.13 l -0.22 -0.43 l 0.06 -0.14 s -0.02 -0.02 -0.03 -0.03 c 0 0 0 0 0 -0.02 c 0 -0.01 0 -0.02 0 -0.02 c 0.01 0 0.01 -0.01 0 -0.03 l 0.27 -0.19 l -0.19 -0.36 l 0.19 -0.1 l -0.12 -0.22 l 0.2 -0.11 l -0.11 -0.2 l 0.06 -0.14 s -0.02 -0.02 -0.03 -0.03 c 0 0 0 0 0 -0.02 c 0 -0.01 0 -0.02 0 -0.02 c 0.01 0 0.01 -0.01 0 -0.03 l 0.46 -0.29 l -0.09 -0.17 l 0.22 -0.12 l -0.11 -0.2 l 0.42 -0.22 l -0.11 -0.2 l 0.76 -0.4 l -0.11 -0.2 l 2.01 -1.07 l 0.11 0.2 l 0.61 -0.32 l 0.12 0.07 c 0.1 -0.05 0.22 -0.1 0.37 -0.13 l 0.2 -0.07 l 0.12 0.22 l 0.42 -0.22 l 0.09 0.17 l 0.17 -0.09 l 0.12 0.22 l 0.2 -0.11 l 0.14 0.06 s 0.09 -0.04 0.13 -0.05 l 0.15 0.29 l 0.2 -0.11 l 0.09 0.17 l 0.2 -0.11 l 0.12 0.07 s 0.09 -0.04 0.13 -0.05 l 0.25 0.48 l 0.19 -0.1 l 0.21 0.39 l 0.22 -0.12 l 0.21 0.41 l 0.19 -0.1 l 1.49 2.84 l -0.08 0.13 l 0.38 0.89 l 0.58 -0.31 l 0.12 0.22 l 0.76 -0.4 l -0.12 -0.22 l 0.83 -0.44 l 0.12 0.22 l 0.95 -0.5 l -0.12 -0.22 l 0.39 -0.21 l -0.31 -0.6 l 0.06 -0.14 l -0.22 -0.54 c -0.02 -0.06 -0.05 -0.13 -0.09 -0.21 c -0.02 -0.07 -0.05 -0.14 -0.08 -0.2 l 0.44 -0.23 l 0.12 0.22 l 0.22 -0.12 l 0.21 0.39 l 0.19 -0.1 l 0.51 0.97 l 0.22 -0.12 l 0.33 0.63 l 0.17 -0.09 Z" stroke-linecap="round"/>
</g>
		<g transform="matrix(1 0 0 1 87.69 -17.685)" id="Layer_1">
<path style="stroke: none; stroke-width: 0; stroke-dasharray: none; stroke-linecap: butt; stroke-dashoffset: 0; stroke-linejoin: miter; stroke-miterlimit: 4; is-custom-font: none; font-file-url: none; fill: rgb(77,47,20); fill-opacity: 0.7; fill-rule: nonzero; opacity: 1;" transform=" translate(-215.2, -123.015)" d="m 217.38 125.19 l 0.06 0.2 l 0.61 -0.17 l -0.06 -0.2 l 0.41 -0.11 l -0.07 -0.24 l 0.12 -0.13 s 0 -0.03 0 -0.04 c 0 -0.02 0 -0.04 0 -0.06 l 0.28 -0.08 l -0.07 -0.24 l 0.42 -0.12 l -0.12 -0.45 l 0.09 -0.12 s 0 -0.03 0 -0.04 s 0 -0.04 0 -0.06 l 0.3 -0.08 l -0.19 -0.69 l 0.18 -0.13 l -0.55 -2.01 l -0.2 0.06 l -0.12 -0.45 l -0.26 0.07 l -0.13 -0.12 s -0.03 0 -0.04 0 c -0.02 0 -0.04 0 -0.06 0 l -0.07 -0.26 l -0.22 0.06 l -0.15 -0.12 s -0.07 0.01 -0.1 0 l -0.07 -0.24 l -0.24 0.07 l -0.12 -0.15 s -0.06 -0.01 -0.08 -0.02 c -0.01 0 -0.04 0.01 -0.07 0.02 l -0.07 -0.24 l -0.41 0.11 l -0.18 -0.21 l -1.35 0.37 l 1.06 3.88 l 0.18 -0.05 l 0.54 1.95 l 0.24 -0.07 l 0.06 0.22 l 0.42 -0.12 Z m 2.32 -5.08 l 0.73 2.66 l -0.12 0.13 c 0.02 0.06 0.02 0.12 0 0.18 c 0 0.05 0.01 0.11 0.03 0.17 l -0.12 0.13 s 0.01 0.1 0 0.16 c 0 0.07 0.02 0.13 0.03 0.19 l -0.22 0.06 l 0.07 0.24 l -0.12 0.13 s 0.02 0.1 0 0.16 c 0 0.07 0 0.13 0 0.18 l -0.22 0.06 l 0.06 0.22 l -0.11 0.11 s 0.02 0.09 0.01 0.12 l -0.28 0.08 l 0.07 0.24 l -0.44 0.12 l 0.06 0.2 l -0.12 0.13 s 0 0.08 0 0.16 l -0.48 0.13 l 0.06 0.2 l -0.63 0.17 l 0.06 0.22 l -1.38 0.39 l -0.13 -0.12 s -0.05 0 -0.08 0 l -0.19 -0.71 l -0.22 0.06 l -1.55 -5.65 l -0.22 0.06 l -0.3 -1.1 l -0.22 0.06 l -0.05 -0.19 l -1.01 0.28 l 0.05 0.19 l -0.44 0.12 l 0.07 0.24 l -0.44 0.12 l 0.06 0.2 l -0.11 0.11 s 0.02 0.09 0.02 0.14 v 0.04 s -0.27 0.08 -0.27 0.08 l 0.05 0.19 l -0.12 0.13 s 0.01 0.1 0 0.18 c 0 0.08 0.02 0.14 0.03 0.19 l -0.24 0.07 l 0.12 0.45 l -0.2 0.06 l 0.23 0.85 l -0.2 0.15 l 0.56 2.04 l 0.22 -0.06 l 0.36 1.3 l 0.2 -0.06 l 0.18 0.65 l 0.22 -0.06 l 0.17 0.63 l 0.22 -0.06 l 0.14 0.5 l -0.12 0.13 s 0 0.06 0 0.14 l -0.3 0.08 l -0.15 -0.12 s -0.04 0 -0.06 0 c -0.02 0 -0.04 0 -0.06 0 l -0.07 -0.26 l -0.22 0.06 l -0.12 -0.43 l -0.2 0.06 l -0.12 -0.45 l -0.22 0.06 l -0.24 -0.87 l -0.2 0.06 l -0.23 -0.85 l -0.24 0.07 l -0.3 -1.08 l -0.2 0.06 l -0.5 -1.82 l 0.09 -0.12 v 0.02 s -0.05 -0.34 -0.05 -0.34 c -0.01 -0.1 -0.03 -0.2 -0.04 -0.29 c 0 -0.08 -0.02 -0.14 -0.03 -0.17 l 0.24 -0.07 l -0.18 -0.67 l 0.09 -0.12 s -0.01 -0.1 0 -0.18 c 0 -0.07 0 -0.12 0 -0.14 l 0.24 -0.07 l -0.07 -0.24 l 0.2 -0.06 l -0.06 -0.2 l 0.22 -0.06 l -0.12 -0.45 l 0.09 -0.12 s 0 -0.03 0 -0.04 s 0 -0.04 0 -0.06 l 0.48 -0.13 l -0.07 -0.24 l 0.24 -0.07 l -0.06 -0.2 l 0.46 -0.13 l -0.07 -0.24 l 1.07 -0.3 l -0.05 -0.19 l 1.55 -0.43 l 0.05 0.19 l 1.07 -0.3 l 0.07 0.24 l 0.41 -0.11 l 0.12 0.09 s 0.11 -0.02 0.19 -0.01 c 0.08 0 0.14 0 0.18 0 l 0.07 0.26 l 0.44 -0.12 l 0.1 0.09 s 0.05 0 0.08 0 c 0.03 0 0.05 0 0.08 0 l 0.08 0.28 l 0.22 -0.06 l 0.06 0.2 l 0.44 -0.12 l 0.1 0.09 s 0.09 -0.02 0.13 -0.02 l 0.09 0.32 l 0.2 -0.06 l 0.11 0.41 l 0.24 -0.07 l 0.12 0.45 l 0.2 -0.06 l 0.12 0.43 l 0.2 -0.06 l 0.12 0.45 l 0.22 -0.06 Z" stroke-linecap="round"/>
</g>
		<g transform="matrix(1 0 0 1 91.07 1.97)" id="Layer_1">
<path style="stroke: none; stroke-width: 0; stroke-dasharray: none; stroke-linecap: butt; stroke-dashoffset: 0; stroke-linejoin: miter; stroke-miterlimit: 4; is-custom-font: none; font-file-url: none; fill: rgb(77,47,20); fill-opacity: 0.7; fill-rule: nonzero; opacity: 1;" transform=" translate(-218.58, -142.67)" d="m 223.63 142.98 l 0.07 1.62 l -0.15 0.1 s -0.01 0.06 -0.03 0.14 h -0.25 s 0.02 0.43 0.02 0.43 l -0.15 0.1 c 0 0.06 0 0.12 -0.03 0.17 c 0 0.06 -0.01 0.13 -0.01 0.19 h -0.25 s 0 0.24 0 0.24 h -0.19 s 0 0.22 0 0.22 l -0.15 0.1 s -0.01 0.06 -0.03 0.14 l -0.5 0.02 v 0.25 s -0.68 0.03 -0.68 0.03 v 0.23 s -6.24 0.26 -6.24 0.26 v 0.21 s -0.14 0.1 -0.14 0.1 c 0 0.18 0 0.35 -0.02 0.52 c -0.02 0.17 -0.02 0.34 -0.02 0.52 l -0.13 0.1 c 0 0.05 0 0.1 -0.03 0.16 c -0.02 0.07 -0.03 0.12 -0.03 0.18 l -0.75 0.03 l -0.02 -0.42 h -0.21 s -0.06 -1.42 -0.06 -1.42 l 0.11 -0.1 c -0.02 -0.39 -0.01 -0.75 0.01 -1.1 c 0.01 -0.35 0 -0.69 0 -1.04 l 0.5 -0.02 v 0.23 s 0.24 0 0.24 0 v 0.21 s 0.24 0 0.24 0 v 0.23 s 0.24 0 0.24 0 l 0.08 0.11 c 0.39 -0.02 0.82 -0.02 1.26 -0.01 c 0.45 0.02 0.89 0.02 1.34 0 v 0.21 s 2.4 -0.1 2.4 -0.1 v -0.21 s 1.12 -0.05 1.12 -0.05 v -0.21 s 0.47 -0.02 0.47 -0.02 v -0.23 s 0.18 0 0.18 0 v -0.21 s 0.24 -0.01 0.24 -0.01 v -0.25 s 0.1 -0.1 0.1 -0.1 c 0 -0.04 0 -0.1 0.03 -0.19 c 0.02 -0.08 0.03 -0.13 0.03 -0.16 h 0.27 s -0.08 -1.96 -0.08 -1.96 h -0.25 s -0.02 -0.45 -0.02 -0.45 h -0.21 s -0.03 -0.66 -0.03 -0.66 h -0.25 s -0.02 -0.45 -0.02 -0.45 h -0.19 s -0.03 -0.67 -0.03 -0.67 l -0.5 0.02 l -0.1 -0.15 c -0.32 0.01 -0.64 0.01 -0.96 0 c -0.31 -0.01 -0.62 -0.01 -0.94 0 l -0.11 -0.23 l -2.75 0.12 v 0.23 s -1.33 0.06 -1.33 0.06 v 0.23 s -0.14 0.1 -0.14 0.1 c 0 0.17 0 0.33 -0.02 0.5 c -0.02 0.18 -0.02 0.36 -0.02 0.54 l -0.13 0.08 c 0 0.06 0 0.12 -0.03 0.18 c -0.02 0.07 -0.03 0.13 -0.03 0.19 h -0.25 s 0 0.24 0 0.24 h -0.27 s 0 -0.22 0 -0.22 h -0.23 s -0.16 -3.86 -0.16 -3.86 h 0.23 s -0.01 -0.26 -0.01 -0.26 l 0.07 -0.06 v 0.08 s 0.42 -0.02 0.42 -0.02 v 0.23 s 0.24 0 0.24 0 l 0.02 0.44 h 0.23 s 0.09 0.22 0.09 0.22 l 7.03 -0.3 v -0.25 s 0.1 -0.1 0.1 -0.1 c 0 -0.23 0 -0.47 0 -0.71 c 0.03 -0.23 0.04 -0.49 0.03 -0.77 h 0.25 s 0 -0.22 0 -0.22 h 0.25 s 0.08 0.1 0.08 0.1 c 0.01 0 0.03 0 0.06 0 c 0.04 0 0.07 0 0.1 0.02 l 0.02 0.54 h 0.23 s 0.05 1.13 0.05 1.13 h 0.19 s 0.04 0.94 0.04 0.94 h -0.19 s 0 0.24 0 0.24 l -0.15 0.1 c 0 0.05 0 0.09 -0.01 0.12 l -0.48 0.02 l 0.05 1.29 h 0.19 s 0 0.22 0 0.22 h 0.23 s 0.02 0.45 0.02 0.45 h 0.23 s 0.04 0.89 0.04 0.89 h 0.19 s 0.03 0.67 0.03 0.67 h 0.25 Z m -9.55 1.48 l 0.16 0.22 v 0.27 s -0.14 0 -0.14 0 l -0.02 -0.5 Z m -0.04 -6.92 h -0.25 c 0.05 0.03 0.07 0.05 0.06 0.07 c -0.01 0.01 -0.02 0.03 -0.02 0.06 h -0.04 s -0.02 -0.38 -0.02 -0.38 l 0.26 0.26 Z m 0.09 4.55 l -0.14 0.31 h 0.02 s -0.03 -0.31 -0.03 -0.31 h 0.15 Z" stroke-linecap="round"/>
</g>
		<g transform="matrix(1 0 0 1 88.52 36.215)" id="Layer_1">
<path style="stroke: none; stroke-width: 0; stroke-dasharray: none; stroke-linecap: butt; stroke-dashoffset: 0; stroke-linejoin: miter; stroke-miterlimit: 4; is-custom-font: none; font-file-url: none; fill: rgb(77,47,20); fill-opacity: 0.7; fill-rule: nonzero; opacity: 1;" transform=" translate(-216.03, -176.915)" d="m 223.43 180.8 l -0.16 0.43 l -0.18 0.04 s -0.04 0.07 -0.09 0.13 l -0.23 -0.09 l -0.07 0.18 l -5.85 -2.17 l 0.07 -0.18 l -0.59 -0.22 l -0.07 0.18 l -0.66 -0.25 l 0.07 -0.18 l -0.57 -0.21 l -0.07 0.18 l -0.68 -0.25 l 0.07 -0.18 l -0.97 -0.36 l -0.07 0.18 l -0.47 -0.17 l 0.07 -0.18 l -2.05 -0.76 l -0.07 0.18 l -0.41 -0.15 l -0.08 0.22 l -0.15 0.03 s -0.03 0.05 -0.08 0.11 l -0.27 -0.1 l -1.15 3.15 l -0.18 -0.07 l -0.08 0.22 l -0.66 -0.25 l 2.76 -7.56 l 0.18 0.07 l 0.16 -0.43 l 0.48 0.18 l -0.08 0.22 l 0.18 0.07 l -0.76 2.08 l 0.23 0.09 l -0.15 0.42 l 0.2 0.07 l -0.08 0.22 l 3.7 1.37 l 0.08 -0.22 l 0.48 0.18 l -0.08 0.22 l 2.84 1.05 l 0.08 -0.22 l 1.51 0.56 l -0.08 0.22 l 2.66 0.98 l 0.08 -0.22 l 0.18 0.07 l 0.59 -1.61 l -0.18 -0.07 l 0.47 -1.28 l 0.4 0.15 l 0.08 -0.22 l 0.27 0.1 l -0.08 0.22 l 0.18 0.07 l -0.07 0.18 l 0.23 0.09 l -0.84 2.3 l 0.2 0.07 l -0.39 1.07 l 0.22 0.08 Z m -11.56 -7.57 l -0.27 0.06 l -0.27 -0.1 l 0.05 -0.14 l 0.48 0.18 Z" stroke-linecap="round"/>
</g>
		<g transform="matrix(1 0 0 1 81.55 53.865)" id="Layer_1">
<path style="stroke: none; stroke-width: 0; stroke-dasharray: none; stroke-linecap: butt; stroke-dashoffset: 0; stroke-linejoin: miter; stroke-miterlimit: 4; is-custom-font: none; font-file-url: none; fill: rgb(77,47,20); fill-opacity: 0.7; fill-rule: nonzero; opacity: 1;" transform=" translate(-209.06, -194.565)" d="m 211.7 193.41 l -0.12 0.2 l -0.75 -0.46 l -0.12 0.2 h -0.18 s -0.04 0.06 -0.07 0.07 l -0.42 -0.26 l -0.12 0.2 h -0.16 s -0.04 0.05 -0.1 0.11 l -0.24 -0.15 l -0.22 0.36 h -0.15 c -0.04 0.06 -0.08 0.11 -0.13 0.14 c -0.04 0.05 -0.08 0.1 -0.12 0.15 l -0.21 -0.13 l -1 1.64 l 0.2 0.12 l -0.25 0.41 l 0.18 0.11 l -0.12 0.2 l 0.21 0.13 l -0.1 0.16 l 0.18 0.11 l -0.24 0.39 l 0.36 0.22 l -0.12 0.2 l 0.21 0.13 l -0.11 0.18 l 0.18 0.11 l -0.05 0.22 l 2.72 1.68 l 0.11 -0.18 l 0.39 0.24 l 0.11 -0.18 l 0.36 0.22 l 0.12 -0.2 l 0.39 0.24 l 0.11 -0.18 l 0.2 0.12 l 0.13 -0.21 l 0.16 0.1 l 0.23 -0.38 h 0.16 c 0.05 -0.1 0.11 -0.18 0.18 -0.24 c 0.07 -0.05 0.14 -0.11 0.19 -0.2 l 0.2 0.12 l 0.68 -1.12 l -0.2 -0.12 l 0.22 -0.36 l -0.2 -0.12 l 0.24 -0.39 l -0.16 -0.1 l 0.22 -0.36 l -0.21 -0.13 v -0.17 s -0.03 -0.02 -0.03 -0.04 c 0 -0.02 -0.02 -0.03 -0.04 -0.05 l 0.15 -0.25 l -0.38 -0.23 l 0.1 -0.16 l -0.21 -0.13 v -0.18 c -0.18 -0.11 -0.34 -0.23 -0.5 -0.35 c -0.16 -0.13 -0.33 -0.25 -0.52 -0.37 v -0.18 s -1.33 -0.91 -1.33 -0.91 Z m 3.56 5.25 l -0.49 0.8 h -0.18 c -0.05 0.09 -0.12 0.17 -0.19 0.24 c -0.07 0.07 -0.14 0.15 -0.19 0.24 h -0.15 c -0.05 0.07 -0.1 0.14 -0.17 0.2 c -0.07 0.07 -0.14 0.16 -0.19 0.24 h -0.18 c -0.03 0.06 -0.07 0.09 -0.11 0.11 c -0.05 0.03 -0.09 0.07 -0.12 0.13 h -0.15 s -0.04 0.04 -0.1 0.09 l -0.23 -0.14 l -0.24 0.39 h -0.15 s -0.05 0.05 -0.11 0.11 l -0.42 -0.26 l -0.11 0.18 l -0.16 -0.1 l -0.12 0.2 l -0.39 -0.24 l -0.11 0.18 l -0.36 -0.22 l -0.12 0.2 l -0.39 -0.24 l -0.11 0.18 l -0.95 -0.58 l -0.12 0.2 l -3.08 -1.9 v -0.18 c -0.1 -0.06 -0.2 -0.14 -0.31 -0.23 c -0.1 -0.09 -0.2 -0.17 -0.31 -0.23 l 0.11 -0.18 l -0.77 -0.47 v -0.18 c -0.11 -0.07 -0.22 -0.15 -0.32 -0.24 c -0.1 -0.09 -0.2 -0.17 -0.31 -0.23 l -0.03 -0.18 s -0.09 -0.07 -0.13 -0.12 c -0.04 -0.04 -0.08 -0.07 -0.12 -0.1 l 0.13 -0.21 l -0.39 -0.24 l 0.11 -0.18 l -0.2 -0.12 v -0.18 c -0.06 -0.03 -0.1 -0.07 -0.13 -0.12 c -0.03 -0.03 -0.07 -0.06 -0.12 -0.1 l 0.12 -0.2 l -0.21 -0.13 v -0.2 s -0.06 -0.06 -0.1 -0.11 c -0.04 -0.04 -0.08 -0.07 -0.12 -0.1 l 0.12 -0.2 l -0.21 -0.13 l 0.1 -0.16 l -0.2 -0.12 v -0.18 s -0.02 -0.02 -0.02 -0.04 c -0.01 0 -0.02 -0.01 -0.03 -0.02 l 0.12 -0.27 l -0.16 -0.1 l -0.02 -0.19 s -0.06 -0.04 -0.07 -0.07 l 0.1 -0.23 l -0.18 -0.11 l 0.25 -0.41 l -0.2 -0.12 l 0.22 -0.36 l -0.2 -0.12 l 0.24 -0.39 l -0.16 -0.1 l 0.24 -0.39 l -0.2 -0.12 l 0.33 -0.54 l -0.18 -0.11 l 0.47 -0.77 l -0.21 -0.13 v -0.06 s 0.23 0.16 0.23 0.16 l 0.47 -0.77 l 0.6 0.37 l -0.24 0.39 l 0.18 0.11 l -0.46 0.76 l 0.2 0.12 l -0.34 0.56 l 0.16 0.1 l -0.34 0.56 l 0.21 0.13 l -0.23 0.38 l 0.18 0.11 l -0.24 0.39 l 0.38 0.23 l -0.12 0.2 l 0.2 0.12 l -0.24 0.39 l 0.18 0.11 v 0.14 s 0.05 0.03 0.06 0.06 c 0.02 0.02 0.03 0.04 0.06 0.06 l -0.15 0.25 l 0.38 0.23 l -0.1 0.16 l 0.39 0.24 l -0.13 0.21 l 0.36 0.22 v 0.14 s 0.1 0.07 0.17 0.14 c 0.06 0.07 0.1 0.11 0.13 0.12 l -0.13 0.21 l 0.38 0.23 l -0.11 0.18 l 1.45 0.9 l 0.31 -0.51 l -0.16 -0.1 l 0.24 -0.39 l -0.2 -0.12 l 0.22 -0.36 l -0.18 -0.11 l 0.25 -0.41 l -0.21 -0.13 l 1.05 -1.72 l 0.21 0.13 l 0.37 -0.61 l 0.15 -0.02 c 0.03 -0.05 0.08 -0.1 0.13 -0.14 c 0.05 -0.03 0.08 -0.06 0.1 -0.09 l 0.21 0.13 l 0.11 -0.18 l 0.16 0.1 l 0.13 -0.21 l 0.21 0.13 l 0.12 -0.2 l 0.15 -0.02 s 0.01 -0.02 0.02 -0.03 c 0.02 0 0.03 -0.01 0.04 -0.02 l 0.25 0.11 l 0.1 -0.16 l 0.39 0.24 l 0.13 -0.21 l 0.38 0.23 l 0.11 -0.18 l 0.38 0.23 l 0.1 -0.16 l 0.59 0.36 l 0.12 -0.2 l 1.73 1.07 l -0.12 0.2 l 0.57 0.35 l -0.1 0.16 l 0.57 0.35 v 0.14 s 0.1 0.07 0.17 0.14 c 0.06 0.07 0.1 0.11 0.13 0.12 l -0.14 0.23 l 0.16 0.1 l -0.1 0.16 l 0.39 0.24 l -0.12 0.2 l 0.18 0.11 l -0.24 0.39 l 0.2 0.12 v 0.14 s 0.04 0.03 0.04 0.05 c 0 0.02 0.02 0.03 0.04 0.05 l -0.26 0.43 l 0.21 0.13 l -0.23 0.38 l 0.18 0.11 l -0.57 0.94 l 0.2 0.12 Z m -11.2 -10.62 l 0.04 0.3 l -0.14 0.23 l -0.16 -0.1 l 0.26 -0.43 Z" stroke-linecap="round"/>
</g>
		<g transform="matrix(1 0 0 1 70.945 68.485)" id="Layer_1">
<path style="stroke: none; stroke-width: 0; stroke-dasharray: none; stroke-linecap: butt; stroke-dashoffset: 0; stroke-linejoin: miter; stroke-miterlimit: 4; is-custom-font: none; font-file-url: none; fill: rgb(77,47,20); fill-opacity: 0.7; fill-rule: nonzero; opacity: 1;" transform=" translate(-198.455, -209.185)" d="m 201.29 208.75 l -0.16 0.17 l -0.65 -0.6 l -0.16 0.17 l -0.18 -0.03 s -0.05 0.05 -0.08 0.06 l -0.36 -0.34 l -0.16 0.17 l -0.16 -0.02 s -0.05 0.03 -0.12 0.07 l -0.21 -0.2 l -0.29 0.31 l -0.15 -0.04 c -0.05 0.06 -0.1 0.09 -0.16 0.11 c -0.05 0.04 -0.1 0.08 -0.14 0.13 l -0.18 -0.17 l -1.3 1.41 l 0.17 0.16 l -0.32 0.35 l 0.15 0.14 l -0.16 0.17 l 0.18 0.17 l -0.13 0.14 l 0.15 0.14 l -0.31 0.34 l 0.31 0.29 l -0.16 0.17 l 0.18 0.17 l -0.14 0.16 l 0.15 0.14 l -0.09 0.21 l 2.34 2.19 l 0.14 -0.16 l 0.34 0.31 l 0.14 -0.16 l 0.31 0.29 l 0.16 -0.17 l 0.34 0.31 l 0.14 -0.16 l 0.17 0.16 l 0.17 -0.18 l 0.14 0.13 l 0.3 -0.33 l 0.16 0.02 c 0.07 -0.08 0.14 -0.14 0.22 -0.19 c 0.08 -0.03 0.15 -0.08 0.22 -0.16 l 0.17 0.16 l 0.88 -0.96 l -0.17 -0.16 l 0.29 -0.31 l -0.17 -0.16 l 0.31 -0.34 l -0.14 -0.13 l 0.29 -0.31 l -0.18 -0.17 l 0.02 -0.16 s -0.01 -0.02 -0.02 -0.04 c 0 -0.02 -0.01 -0.04 -0.03 -0.05 l 0.19 -0.21 l -0.32 -0.3 l 0.13 -0.14 l -0.18 -0.17 l 0.03 -0.18 c -0.15 -0.14 -0.29 -0.29 -0.42 -0.45 c -0.13 -0.16 -0.28 -0.31 -0.44 -0.46 l 0.03 -0.18 l -1.13 -1.16 Z m 2.47 5.85 l -0.64 0.69 l -0.18 -0.03 c -0.07 0.08 -0.15 0.14 -0.24 0.2 c -0.09 0.06 -0.17 0.12 -0.24 0.2 l -0.15 -0.04 c -0.06 0.07 -0.13 0.12 -0.21 0.17 c -0.09 0.06 -0.17 0.12 -0.24 0.2 l -0.18 -0.03 s -0.09 0.08 -0.13 0.09 c -0.05 0.02 -0.1 0.05 -0.15 0.1 l -0.15 -0.04 s -0.05 0.03 -0.12 0.07 l -0.2 -0.18 l -0.31 0.34 l -0.15 -0.04 s -0.06 0.05 -0.13 0.09 l -0.36 -0.34 l -0.14 0.16 l -0.14 -0.13 l -0.16 0.17 l -0.34 -0.31 l -0.14 0.16 l -0.31 -0.29 l -0.16 0.17 l -0.34 -0.31 l -0.14 0.16 l -0.81 -0.76 l -0.16 0.17 l -2.65 -2.47 l 0.03 -0.18 c -0.08 -0.08 -0.17 -0.18 -0.25 -0.29 c -0.08 -0.11 -0.16 -0.2 -0.25 -0.29 l 0.14 -0.16 l -0.66 -0.62 l 0.03 -0.18 c -0.09 -0.09 -0.18 -0.19 -0.27 -0.3 c -0.08 -0.11 -0.16 -0.2 -0.25 -0.29 v -0.18 s -0.06 -0.08 -0.09 -0.15 c -0.03 -0.04 -0.06 -0.08 -0.1 -0.12 l 0.17 -0.18 l -0.34 -0.31 l 0.14 -0.16 l -0.17 -0.16 l 0.03 -0.18 s -0.08 -0.09 -0.1 -0.15 c -0.02 -0.04 -0.05 -0.08 -0.1 -0.12 l 0.16 -0.17 l -0.18 -0.17 l 0.05 -0.19 s -0.06 -0.07 -0.09 -0.13 c -0.03 -0.04 -0.06 -0.08 -0.1 -0.12 l 0.16 -0.17 l -0.18 -0.17 l 0.13 -0.14 l -0.17 -0.16 l 0.03 -0.18 s -0.01 -0.02 -0.02 -0.04 c 0 0 -0.02 -0.02 -0.03 -0.03 l 0.17 -0.24 l -0.14 -0.13 l 0.02 -0.19 s -0.05 -0.05 -0.06 -0.08 l 0.14 -0.21 l -0.15 -0.14 l 0.32 -0.35 l -0.17 -0.16 l 0.29 -0.31 l -0.17 -0.16 l 0.31 -0.34 l -0.14 -0.13 l 0.31 -0.34 l -0.17 -0.16 l 0.43 -0.47 l -0.15 -0.14 l 0.61 -0.66 l -0.18 -0.17 l 0.02 -0.06 l 0.18 0.2 l 0.61 -0.66 l 0.52 0.48 l -0.31 0.34 l 0.15 0.14 l -0.6 0.65 l 0.17 0.16 l -0.44 0.48 l 0.14 0.13 l -0.44 0.48 l 0.18 0.17 l -0.3 0.33 l 0.15 0.14 l -0.31 0.34 l 0.32 0.3 l -0.16 0.17 l 0.17 0.16 l -0.31 0.34 l 0.15 0.14 l -0.02 0.14 s 0.03 0.04 0.04 0.07 c 0.01 0.03 0.02 0.05 0.04 0.07 l -0.19 0.21 l 0.32 0.3 l -0.13 0.14 l 0.34 0.31 l -0.17 0.18 l 0.31 0.29 l -0.02 0.14 s 0.08 0.09 0.13 0.17 c 0.05 0.08 0.08 0.13 0.1 0.15 l -0.17 0.18 l 0.32 0.3 l -0.14 0.16 l 1.25 1.17 l 0.4 -0.44 l -0.14 -0.13 l 0.31 -0.34 l -0.17 -0.16 l 0.29 -0.31 l -0.15 -0.14 l 0.33 -0.35 l -0.18 -0.17 l 1.37 -1.48 l 0.18 0.17 l 0.48 -0.52 h 0.15 s 0.1 -0.08 0.16 -0.11 c 0.05 -0.02 0.09 -0.04 0.12 -0.07 l 0.18 0.17 l 0.14 -0.16 l 0.14 0.13 l 0.17 -0.18 l 0.18 0.17 l 0.16 -0.17 h 0.15 s 0.02 -0.01 0.03 -0.02 c 0.02 0 0.03 0 0.04 -0.01 l 0.22 0.15 l 0.13 -0.14 l 0.34 0.31 l 0.17 -0.18 l 0.32 0.3 l 0.14 -0.16 l 0.32 0.3 l 0.13 -0.14 l 0.51 0.47 l 0.16 -0.17 l 1.49 1.39 l -0.16 0.17 l 0.49 0.46 l -0.13 0.14 l 0.49 0.46 l -0.02 0.14 s 0.08 0.09 0.13 0.17 c 0.05 0.08 0.08 0.13 0.1 0.15 l -0.18 0.2 l 0.14 0.13 l -0.13 0.14 l 0.34 0.31 l -0.16 0.17 l 0.15 0.14 l -0.31 0.34 l 0.17 0.16 l -0.02 0.14 s 0.03 0.04 0.03 0.05 c 0 0.02 0.01 0.04 0.03 0.05 l -0.34 0.37 l 0.18 0.17 l -0.3 0.33 l 0.15 0.14 l -0.74 0.81 l 0.17 0.16 Z m -8.91 -12.62 l -0.02 0.3 l -0.18 0.2 l -0.14 -0.13 l 0.34 -0.37 Z" stroke-linecap="round"/>
</g>
		<g transform="matrix(1 0 0 1 56.69 81.58)" id="Layer_1">
<path style="stroke: none; stroke-width: 0; stroke-dasharray: none; stroke-linecap: butt; stroke-dashoffset: 0; stroke-linejoin: miter; stroke-miterlimit: 4; is-custom-font: none; font-file-url: none; fill: rgb(77,47,20); fill-opacity: 0.7; fill-rule: nonzero; opacity: 1;" transform=" translate(-184.2, -222.28)" d="m 184.87 217.25 l -0.19 0.13 l -0.52 -0.74 l -0.19 0.13 l -0.27 -0.38 l -0.19 0.13 l -0.26 -0.36 l -0.16 0.11 l -0.12 -0.17 l -0.2 0.15 l -0.17 -0.07 s -0.06 0.03 -0.12 0.04 l -0.14 -0.2 l -0.54 0.39 l -0.17 -0.07 c -0.05 0.04 -0.14 0.08 -0.26 0.14 l -0.25 0.11 l -0.11 -0.16 l -1.04 0.75 l 0.11 0.16 l -0.54 0.39 l 0.14 0.2 l -0.36 0.26 l 0.12 0.17 l -0.36 0.26 l 0.13 0.19 l -0.19 0.13 l 0.12 0.17 l -0.17 0.12 l 0.26 0.36 l -0.19 0.13 l 0.13 0.19 l -0.04 0.15 c 0.07 0.09 0.13 0.19 0.19 0.29 c 0.06 0.11 0.14 0.25 0.22 0.41 l -0.06 0.14 l 0.49 0.85 l 0.17 -0.12 l 0.51 0.72 l 0.17 -0.12 l 0.27 0.38 l 0.19 -0.13 l 0.26 0.36 l 0.17 -0.12 l 0.11 0.16 l 0.19 -0.13 l 0.14 0.2 l 0.36 -0.26 l 0.16 0.03 c 0.05 -0.04 0.11 -0.06 0.18 -0.08 c 0.07 -0.02 0.12 -0.04 0.15 -0.06 l 0.14 0.04 s 0.1 -0.05 0.16 -0.07 c 0.07 -0.02 0.13 -0.04 0.18 -0.08 l 0.16 0.22 l 1.2 -0.87 l -0.14 -0.2 l 0.73 -0.53 l -0.11 -0.16 l 0.34 -0.25 l -0.13 -0.19 l 0.05 -0.16 s -0.02 -0.05 -0.05 -0.13 l 0.23 -0.17 l -0.11 -0.16 l 0.16 -0.11 l -0.26 -0.36 l 0.06 -0.18 c -0.04 -0.05 -0.06 -0.11 -0.07 -0.16 c -0.02 -0.05 -0.05 -0.1 -0.09 -0.15 l 0.2 -0.15 l -0.4 -0.56 l 0.07 -0.17 l -0.47 -0.8 Z m -0.58 9.43 l -0.19 0.14 l 0.62 0.88 l 0.19 -0.14 l 0.52 0.74 l 0.19 -0.14 l 0.14 0.04 s 0.02 -0.02 0.03 -0.02 c 0.02 0 0.03 0 0.04 0 l 0.32 0.38 l 0.19 -0.13 l 0.16 0.05 s 0.09 -0.05 0.16 -0.07 c 0.08 -0.02 0.13 -0.04 0.15 -0.06 l 0.14 0.2 l 0.37 -0.27 l 0.18 0.13 l 1.51 -1.09 l -0.12 -0.17 l 0.36 -0.26 l -0.13 -0.19 l 0.36 -0.26 l -0.14 -0.2 l 0.07 -0.17 s -0.02 -0.05 -0.03 -0.07 l 0.22 -0.16 l -0.14 -0.2 l 0.08 -0.18 c -0.06 -0.08 -0.1 -0.17 -0.14 -0.26 c -0.02 -0.08 -0.06 -0.15 -0.11 -0.23 l 0.16 -0.11 l -1.14 -1.6 l -0.16 0.11 l -0.28 -0.39 l -0.2 0.15 l -0.11 -0.16 l -0.17 0.12 l -0.14 -0.06 s -0.07 0.03 -0.15 0.06 l -0.17 -0.23 l -0.16 0.11 l -0.14 -0.06 c -0.06 0.04 -0.12 0.07 -0.18 0.08 c -0.06 0.03 -0.12 0.06 -0.17 0.1 l -0.15 -0.2 l -0.53 0.38 l -0.12 -0.17 l -1.03 0.74 l 0.12 0.17 l -0.39 0.28 l 0.13 0.19 l -0.36 0.26 l 0.12 0.17 l -0.36 0.26 l 0.27 0.38 l -0.19 0.13 l 0.25 0.34 l -0.17 0.12 l 0.39 0.55 Z m 5.16 1.49 l -1.29 0.93 l -0.12 -0.17 l -0.75 0.54 l -0.17 -0.07 c -0.05 0.04 -0.1 0.06 -0.15 0.06 c -0.05 0.02 -0.1 0.05 -0.15 0.09 l -0.13 -0.19 l -0.37 0.27 l -0.17 -0.07 s -0.02 0.02 -0.04 0 c -0.04 0 -0.06 0 -0.08 0.01 l -0.13 -0.19 l -0.19 0.13 l -0.26 -0.36 l -0.17 0.12 l -0.18 -0.08 s -0.05 0.02 -0.13 0.05 l -0.26 -0.36 l -0.17 0.12 l -0.27 -0.38 l -0.19 0.13 l -1.07 -1.5 l 0.07 -0.17 s -0.05 -0.09 -0.07 -0.16 c -0.03 -0.07 -0.06 -0.12 -0.08 -0.15 l 0.19 -0.14 l -0.27 -0.38 l 0.07 -0.17 s 0 -0.02 0 -0.04 c 0 -0.01 -0.01 -0.02 -0.02 -0.03 l 0.19 -0.19 l -0.14 -0.2 l 0.07 -0.17 s -0.02 -0.05 -0.03 -0.07 l 0.22 -0.16 l -0.13 -0.19 l 0.04 -0.17 s -0.02 -0.04 -0.02 -0.06 c 0 -0.02 0 -0.04 -0.02 -0.06 l 0.23 -0.17 l -0.48 -0.67 l -0.19 0.13 l -0.17 -0.07 s -0.05 0.02 -0.13 0.05 l -0.14 -0.2 l -0.36 0.26 l -0.18 -0.08 s -0.08 0.05 -0.1 0.05 l -0.16 -0.22 l -0.19 0.13 l -0.17 -0.07 s -0.06 0.03 -0.12 0.04 l -0.13 -0.19 l -0.19 0.13 l -0.27 -0.38 l -0.17 0.12 l -0.11 -0.16 l -0.19 0.13 l -0.27 -0.38 l -0.17 0.12 l -0.51 -0.72 l -0.2 0.15 l -0.56 -0.78 l 0.08 -0.18 c -0.08 -0.11 -0.15 -0.23 -0.2 -0.35 c -0.05 -0.11 -0.11 -0.22 -0.19 -0.34 l 0.04 -0.17 c -0.04 -0.05 -0.06 -0.11 -0.07 -0.16 c -0.02 -0.05 -0.05 -0.1 -0.08 -0.15 l 0.2 -0.15 l -0.11 -0.16 l 0.17 -0.12 l -0.16 -0.22 l 0.07 -0.17 s 0 -0.02 0 -0.04 c 0 -0.02 0 -0.04 -0.02 -0.06 l 0.2 -0.15 l -0.14 -0.2 l 0.07 -0.17 s -0.02 -0.05 -0.03 -0.07 l 0.22 -0.16 l -0.16 -0.22 l 0.07 -0.17 s 0 -0.02 0 -0.04 c 0 -0.02 0 -0.04 -0.02 -0.06 l 0.2 -0.15 l -0.13 -0.19 l 0.37 -0.27 l -0.13 -0.19 l 0.34 -0.25 l -0.11 -0.16 l 1.1 -0.8 l -0.13 -0.19 l 0.57 -0.42 l 0.13 0.19 l 1.24 -0.9 l 0.11 0.16 l 0.37 -0.27 l 0.16 0.05 s 0.09 -0.05 0.16 -0.07 c 0.08 -0.02 0.13 -0.04 0.15 -0.06 l 0.14 0.2 l 0.19 -0.13 l 0.16 0.03 s 0.04 -0.02 0.06 -0.02 c 0.02 0 0.04 0 0.06 -0.02 l 0.18 0.25 l 0.17 -0.12 l 0.11 0.16 l 0.17 -0.12 l 0.13 0.19 l 0.19 -0.14 l 0.27 0.38 l 0.19 -0.13 l 0.25 0.34 l 0.17 -0.12 l 0.14 0.04 s 0.02 -0.02 0.03 -0.02 c 0.02 0 0.03 0 0.04 0 l 0.73 0.96 l 0.19 -0.13 l 0.16 0.22 l -0.05 0.13 c 0.1 0.15 0.19 0.3 0.25 0.46 c 0.07 0.16 0.15 0.31 0.25 0.46 l -0.19 0.13 l 0.26 0.36 l -0.16 0.11 l 0.26 0.36 l -0.19 0.13 l 0.13 0.19 l -0.06 0.14 s 0.02 0.05 0.03 0.07 c 0 0.03 0.01 0.05 0.03 0.07 l -0.22 0.16 l 0.11 0.16 l -0.36 0.26 l 0.13 0.19 l -0.19 0.14 l 0.12 0.17 l -0.05 0.13 s 0.05 0.08 0.06 0.12 v 0.04 s -0.23 0.17 -0.23 0.17 l 0.12 0.17 l -0.36 0.26 l 0.37 0.52 l 0.19 -0.13 l 0.11 0.16 l 0.17 -0.12 l 0.13 0.19 l 0.2 -0.15 l 0.14 0.04 s 0.02 0 0.04 0 c 0.02 0 0.04 0 0.06 -0.02 l 0.18 0.25 l 0.37 -0.27 l 0.25 0.34 l 0.19 -0.14 l 0.16 0.05 s 0.02 0 0.04 0 c 0.02 0 0.04 0 0.06 -0.02 l 0.4 0.56 l 0.19 -0.13 l 0.41 0.58 l 0.19 -0.13 l 0.41 0.58 l -0.19 0.13 l 0.39 0.55 l -0.06 0.14 l 0.15 0.32 c 0.04 0.1 0.07 0.17 0.1 0.21 l -0.05 0.13 c 0.04 0.05 0.06 0.11 0.08 0.18 c 0.02 0.07 0.04 0.13 0.08 0.18 l -0.06 0.14 s 0.05 0.08 0.06 0.12 l -0.25 0.18 l 0.13 0.19 l -0.19 0.14 l 0.11 0.16 l -0.36 0.26 l 0.14 0.2 l -0.17 0.12 l 0.12 0.17 l -0.56 0.4 l 0.13 0.19 l -0.51 0.37 l 0.12 0.17 Z" stroke-linecap="round"/>
</g>
		<g transform="matrix(1 0 0 1 26.135 95.19)" id="Layer_1">
<path style="stroke: none; stroke-width: 0; stroke-dasharray: none; stroke-linecap: butt; stroke-dashoffset: 0; stroke-linejoin: miter; stroke-miterlimit: 4; is-custom-font: none; font-file-url: none; fill: rgb(77,47,20); fill-opacity: 0.7; fill-rule: nonzero; opacity: 1;" transform=" translate(-153.645, -235.89)" d="m 156.86 235.98 l -1.76 0.46 l -0.15 -0.2 l -3.31 0.87 l 0.06 0.22 l -1.3 0.34 l -0.13 -0.12 s -0.06 0 -0.14 0 l -0.06 -0.22 l -0.2 0.05 l -0.18 -0.69 l 0.1 -0.15 c -0.02 -0.06 -0.02 -0.12 0 -0.18 c 0 -0.05 0 -0.11 -0.02 -0.17 l 0.87 -0.23 l -0.05 -0.21 l 6.26 -1.64 l 0.12 0.09 s 0.02 0 0.04 0 c 0.02 0 0.03 0.01 0.04 0 l 0.11 0.27 l 0.2 -0.05 l 0.24 0.93 l -0.09 0.1 s 0 0.05 0 0.06 c 0 0.02 -0.01 0.04 0 0.06 l -0.69 0.18 l 0.06 0.22 Z" stroke-linecap="round"/>
</g>
</g>
</g>
</svg>