<svg xmlns="http://www.w3.org/2000/svg" xmlns:xlink="http://www.w3.org/1999/xlink" version="1.1" width="100" height="150" viewBox="0 0 100 150" xml:space="preserve">
<desc>Created with Fabric.js 3.5.0</desc>
<defs>
</defs>
<rect x="0" y="0" width="100%" height="100%" fill="rgba(255,255,255,0)"/>
<g transform="matrix(0.1644 0 0 0.1644 50.7996 74.979)" id="190981">
<g style="" vector-effect="non-scaling-stroke">
		<g transform="matrix(1 0 0 1 -21.3066 -100.7626)">
<path style="stroke: none; stroke-width: 1; stroke-dasharray: none; stroke-linecap: butt; stroke-dashoffset: 0; stroke-linejoin: miter; stroke-miterlimit: 4; is-custom-font: none; font-file-url: none; fill: rgb(56,72,37); fill-rule: nonzero; opacity: 1;" transform=" translate(-287.6934, -566.2374)" d="M 124.98 236.734 C 124.98 236.734 185.866 234.097 185.866 247.326 C 185.866 260.554 222.934 263.213 241.457 326.742 C 259.979 390.271 318.229 422.047 318.229 422.047 C 318.229 422.047 384.41 477.643 458.545 895.955 C 458.545 895.955 207.048 672.186 209.706 656.979 C 212.365 641.773 172.639 512.056 154.116 406.159 C 154.116 406.159 95.8664 279.079 125.002 236.712 L 124.98 236.734 Z" stroke-linecap="round"/>
</g>
		<g transform="matrix(1 0 0 1 39.92 -56.4763)">
<path style="stroke: none; stroke-width: 1; stroke-dasharray: none; stroke-linecap: butt; stroke-dashoffset: 0; stroke-linejoin: miter; stroke-miterlimit: 4; is-custom-font: none; font-file-url: none; fill: rgb(117,136,95); fill-rule: nonzero; opacity: 1;" transform=" translate(-348.9199, -610.5238)" d="M 262.638 520.34 C 262.638 520.34 318.228 755.976 458.545 896.284 C 458.545 896.284 379.136 440.901 318.228 422.377 C 318.228 422.377 252.047 354.167 241.456 327.072 C 230.866 299.977 262.638 520.34 262.638 520.34 Z" stroke-linecap="round"/>
</g>
		<g transform="matrix(1 0 0 1 -204.5095 -387.7005)">
<path style="stroke: none; stroke-width: 1; stroke-dasharray: none; stroke-linecap: butt; stroke-dashoffset: 0; stroke-linejoin: miter; stroke-miterlimit: 4; is-custom-font: none; font-file-url: none; fill: rgb(219,123,39); fill-rule: nonzero; opacity: 1;" transform=" translate(-104.4905, -279.2995)" d="M 117.773 286.749 L 91.208 284.155 L 116.828 271.85 L 117.773 286.749 Z" stroke-linecap="round"/>
</g>
		<g transform="matrix(1 0 0 1 -85.968 206.2635)">
<path style="stroke: none; stroke-width: 1; stroke-dasharray: none; stroke-linecap: butt; stroke-dashoffset: 0; stroke-linejoin: miter; stroke-miterlimit: 4; is-custom-font: none; font-file-url: none; fill: rgb(219,123,39); fill-rule: nonzero; opacity: 1;" transform=" translate(-223.032, -873.2635)" d="M 264.264 716.157 L 266.461 720.288 L 279.908 1001.92 L 196.412 1030.37 L 275.096 1001.59 L 166.156 1017.19 L 274.723 999.983 L 206.674 1001.08 L 277.337 998.643 L 264.264 716.157 Z" stroke-linecap="round"/>
</g>
		<g transform="matrix(1 0 0 1 21.7415 250.225)">
<path style="stroke: none; stroke-width: 1; stroke-dasharray: none; stroke-linecap: butt; stroke-dashoffset: 0; stroke-linejoin: miter; stroke-miterlimit: 4; is-custom-font: none; font-file-url: none; fill: rgb(219,123,39); fill-rule: nonzero; opacity: 1;" transform=" translate(-330.7415, -917.225)" d="M 303.441 753.69 L 305.66 757.844 L 368.875 1033.41 L 330.687 1080.13 L 366.546 1033.21 L 292.608 1080.76 L 363.404 1032.18 L 317.965 1041.56 L 365.909 1030.37 L 303.441 753.69 Z" stroke-linecap="round"/>
</g>
		<g transform="matrix(1 0 0 1 -174.0445 -412.7085)">
<path style="stroke: rgb(65,64,66); stroke-width: 0.15; stroke-dasharray: none; stroke-linecap: butt; stroke-dashoffset: 0; stroke-linejoin: miter; stroke-miterlimit: 10; is-custom-font: none; font-file-url: none; fill: rgb(255,239,207); fill-rule: nonzero; opacity: 1;" transform=" translate(-134.9555, -254.2915)" d="M 134.956 259.39 C 137.771 259.39 140.053 257.107 140.053 254.292 C 140.053 251.476 137.771 249.193 134.956 249.193 C 132.14 249.193 129.858 251.476 129.858 254.292 C 129.858 257.107 132.14 259.39 134.956 259.39 Z" stroke-linecap="round"/>
</g>
		<g transform="matrix(1 0 0 1 -174.11 -412.708)">
<path style="stroke: none; stroke-width: 1; stroke-dasharray: none; stroke-linecap: butt; stroke-dashoffset: 0; stroke-linejoin: miter; stroke-miterlimit: 4; is-custom-font: none; font-file-url: none; fill: rgb(65,64,66); fill-rule: nonzero; opacity: 1;" transform=" translate(-134.89, -254.292)" d="M 134.89 256.797 C 135.812 256.797 136.56 255.676 136.56 254.292 C 136.56 252.909 135.812 251.787 134.89 251.787 C 133.967 251.787 133.22 252.909 133.22 254.292 C 133.22 255.676 133.967 256.797 134.89 256.797 Z" stroke-linecap="round"/>
</g>
		<g transform="matrix(1 0 0 1 -171.6495 -122.9265)">
<path style="stroke: rgb(65,64,66); stroke-width: 0.15; stroke-dasharray: none; stroke-linecap: butt; stroke-dashoffset: 0; stroke-linejoin: miter; stroke-miterlimit: 10; is-custom-font: none; font-file-url: none; fill: rgb(117,136,95); fill-rule: nonzero; opacity: 1;" transform=" translate(-137.3505, -544.0735)" d="M 176.923 513.133 L 133.219 506.628 L 91.2079 477.753 L 71.147 466.92 V 482.258 L 91.2079 512.935 L 116.828 557.148 L 144.733 581.826 L 203.554 621.227 L 176.923 513.133 Z" stroke-linecap="round"/>
</g>
		<g transform="matrix(1 0 0 1 -171.6495 -122.9265)">
<path style="stroke: rgb(65,64,66); stroke-width: 0.15; stroke-dasharray: none; stroke-linecap: butt; stroke-dashoffset: 0; stroke-linejoin: miter; stroke-miterlimit: 10; is-custom-font: none; font-file-url: none; fill: rgb(56,72,37); fill-rule: nonzero; opacity: 1;" transform=" translate(-137.3505, -544.0735)" d="M 190.875 569.806 L 203.554 621.227 L 184.613 569.806 L 190.106 610.525 L 175.583 572.487 L 174.264 601.603 L 168.376 569.806 L 158.51 587.825 V 567.433 V 557.148 L 144.733 581.826 L 147.128 544.073 L 124.54 563.961 L 131.769 544.073 L 111.423 547.809 L 116.828 529.812 L 104.172 535.305 L 113.576 523.307 L 95.6683 520.626 L 109.006 516.737 L 91.2079 512.935 L 95.6683 503.068 H 84.748 L 80.5732 489.136 L 71.147 482.258 V 466.92 L 190.875 569.806 Z" stroke-linecap="round"/>
</g>
		<g transform="matrix(1 0 0 1 -208.9701 -172.8755)">
<path style="stroke: none; stroke-width: 1; stroke-dasharray: none; stroke-linecap: butt; stroke-dashoffset: 0; stroke-linejoin: miter; stroke-miterlimit: 4; is-custom-font: none; font-file-url: none; fill: rgb(255,239,207); fill-rule: nonzero; opacity: 0.5;" transform=" translate(-100.0299, -494.1245)" d="M 77.6289 462.305 H 122.431 L 117.663 525.944 H 84.4843 L 77.6289 462.305 Z" stroke-linecap="round"/>
</g>
		<g transform="matrix(1 0 0 1 -208.7614 -166.6565)">
<path style="stroke: none; stroke-width: 1; stroke-dasharray: none; stroke-linecap: butt; stroke-dashoffset: 0; stroke-linejoin: miter; stroke-miterlimit: 4; is-custom-font: none; font-file-url: none; fill: rgb(213,165,55); fill-rule: nonzero; opacity: 0.95;" transform=" translate(-100.2386, -500.3435)" d="M 78.9692 474.743 H 121.508 L 117.663 525.944 H 84.4844 L 78.9692 474.743 Z" stroke-linecap="round"/>
</g>
		<g transform="matrix(1 0 0 1 -225.8999 -186.324)">
<path style="stroke: rgb(65,64,66); stroke-width: 0.15; stroke-dasharray: none; stroke-linecap: butt; stroke-dashoffset: 0; stroke-linejoin: miter; stroke-miterlimit: 10; is-custom-font: none; font-file-url: none; fill: rgb(56,72,37); fill-rule: nonzero; opacity: 1;" transform=" translate(-83.1001, -480.676)" d="M 71.147 466.92 L 91.2079 477.753 L 95.0531 492.191 H 88.1098 L 77.6289 494.432 L 71.147 482.258 V 466.92 Z" stroke-linecap="round"/>
</g>
</g>
</g>
</svg>