<svg xmlns="http://www.w3.org/2000/svg" xmlns:xlink="http://www.w3.org/1999/xlink" version="1.1" width="150" height="150" viewBox="0 0 150 150" xml:space="preserve">
<desc>Created with Fabric.js 3.5.0</desc>
<defs>
</defs>
<rect x="0" y="0" width="100%" height="100%" fill="rgba(255,255,255,0)"/>
<g transform="matrix(0.0705 0 0 0.0705 46.9657 72.0493)" id="466747">
<g style="" vector-effect="non-scaling-stroke">
		<g transform="matrix(1 0 0 1 192.685 852.63)" id="Layer_1">
<path style="stroke: rgb(0,0,0); stroke-width: 1; stroke-dasharray: none; stroke-linecap: butt; stroke-dashoffset: 0; stroke-linejoin: miter; stroke-miterlimit: 10; is-custom-font: none; font-file-url: none; fill: none; fill-rule: nonzero; opacity: 1;" transform=" translate(-619.86, -1771.315)" d="m 622.88 1771.27 c -2.01 0.05 -4.02 0.08 -6.04 0.09" stroke-linecap="round"/>
</g>
		<g transform="matrix(1 0 0 1 359.5164 -878.6731)" id="Layer_1">
<path style="stroke: rgb(0,0,0); stroke-width: 4; stroke-dasharray: none; stroke-linecap: butt; stroke-dashoffset: 0; stroke-linejoin: miter; stroke-miterlimit: 10; is-custom-font: none; font-file-url: none; fill: rgb(46,94,52); fill-rule: nonzero; opacity: 0.9;" transform=" translate(-786.6914, -40.0119)" d="m 789.28 85.74 c 25.14 1.13 50.27 2.26 75.41 3.39 c 5.5 0.25 11.42 0.21 15.91 -7.12 c 8.2 -13.38 6.71 -44.99 -0.59 -60.93 c -7.3 -15.94 -18.01 -19.8 -28.03 -20.79 c -33.29 -3.28 -66.2 16.71 -99.49 20.14 c -24.25 2.5 -50.6 -2.53 -70.63 29.31 c 8.25 21.69 22.55 21.75 35.01 20.42 c 22.96 -2.46 46.02 -3.93 68.9 1.21 c 31.72 7.12 64.21 26.72 94.87 6.64 c 8.86 -5.8 18.54 -18.46 19.57 -39.69 c 0.84 -17.3 -4.83 -33.47 -11.68 -40.59 c -6.85 -7.12 -14.62 -7.16 -22.12 -6.78 c -54.42 2.73 -108.53 20.81 -161.9 45.67 c -11.13 5.19 -22.73 11.21 -31.42 28.17 c 4.24 16.27 13.77 18.92 21.97 19.64 c 48.41 4.23 96.92 1.76 145.2 -7.4" stroke-linecap="round"/>
</g>
		<g transform="matrix(1 0 0 1 359.515 95.329)" id="Layer_1">
<path style="stroke: rgb(0,0,0); stroke-width: 4; stroke-dasharray: none; stroke-linecap: butt; stroke-dashoffset: 0; stroke-linejoin: miter; stroke-miterlimit: 10; is-custom-font: none; font-file-url: none; fill: rgb(46,94,52); fill-rule: nonzero; opacity: 0.9;" transform=" translate(-786.69, -1014.014)" d="m 697.48 772.42 c -29.4 22.84 -41.74 89.71 -70.16 116.77 c -9.81 9.35 -18.58 47.28 -25.42 63.75 c -10.25 24.68 -17.12 126.52 -17.8 158.09 c -7.23 337.47 -30.97 536.95 -46.96 873.29 c 35.96 14.65 71.99 -18.15 108.26 -29.59 c 25.66 -8.09 51.86 -5.43 77.83 -2.74 c 57.05 5.91 114.11 11.82 171.16 17.74 c 25.2 2.61 50.89 5.13 75.29 -7.22 c 22.21 -11.24 46.6 -34.14 66.56 -12.25 c -2.98 -251 -5.95 -501.99 -8.93 -752.99 c -1.21 -102.37 -2.71 -207.42 -22.89 -302.15 c -8.81 -41.34 -21.66 -81.13 -40.97 -105.94 c -19.3 -24.81 -45.99 -31.71 -65.77 -8.36 c -15.94 -55.8 -13.83 -123.41 -11.66 -186.96 c 5.43 -159 8.47 -319.38 -3.33 -477.09 c -1.22 -16.27 -2.71 -33.1 -7.57 -46.62 c -11.58 -32.28 -35.93 -32.13 -56.22 -28.56 c -31.35 5.51 -65.04 5 -95.88 16.84 c -27.17 10.42 -15.92 84.88 -16.03 129.54 c -0.3 126.35 -1.74 252.68 -4.31 378.93 c -0.44 21.72 1.92 200.03 -5.2 205.52 Z" stroke-linecap="round"/>
</g>
		<g transform="matrix(1 0 0 1 376.5565 57.4828)" id="Layer_1">
<path style="stroke: rgb(0,0,0); stroke-width: 4; stroke-dasharray: none; stroke-linecap: butt; stroke-dashoffset: 0; stroke-linejoin: miter; stroke-miterlimit: 10; is-custom-font: none; font-file-url: none; fill: none; fill-rule: nonzero; opacity: 1;" transform=" translate(-803.7316, -976.1678)" d="m 722.33 633.86 c -1.78 42.53 -4.29 88.46 -19.26 119.92 c -17.83 37.47 -8.46 100.49 -28.01 134.64 c -21.82 38.11 -47.62 80.95 -49.33 137.57 c -2.24 74.54 -1.81 152.52 -4.06 227.06 c -1.83 60.9 14.09 134.07 7.63 193.79 c -4.64 42.9 8.82 111.51 5.08 154.73 c -4.81 55.66 1.84 84.65 2.54 141.05 c 0.9 72.18 4.77 100.89 5.68 173.07 c 0.19 14.97 8.79 21.45 15.74 28.16 c 3.35 3.24 -3.75 0.41 0 0 c 97.87 -10.79 132.68 -16.01 229.35 -47.43 c 55.63 -18.08 117.16 -40.95 165.03 16.57 c 18.46 -274.35 9 -552.49 -0.48 -828.53 c -1.6 -46.6 -3.35 -94.37 -13.4 -136.87 c -20.87 -88.26 -72.58 -133.73 -122.1 -151.52 c 21.62 -159.95 6.71 -328.39 1.28 -493.33 c -3.24 -98.47 -3.04 -197.36 0.48 -295.79 c -56.77 23.25 -113.54 46.49 -170.31 69.74 c 4.26 118.26 8.49 237.69 -0.94 354.84 c -5.22 64.76 -14.55 127.98 -23.87 191.02 c -8.58 58.06 -17.83 118.47 -39.18 162.67 c -10.2 21.12 -22.92 37.92 -31.39 61.72 c -8.47 23.81 -11.99 52.69 -15.35 80.81 c -26.92 225.56 -53.85 451.13 -80.77 676.69 c -4.76 39.9 -9.56 80.63 -7.58 121.39 c 2.33 48.01 -11.79 129.34 -0.46 172.35 c 8.08 30.68 43.11 26.74 59.66 39.71 c 9.26 7.26 19.57 7.11 29.56 6.78 c 112.56 -3.8 224.93 -18.35 337.25 -32.9 c 12.43 -1.61 25.28 -3.44 36.28 -14.67 c 28.18 -28.75 31.99 -102.12 32.24 -163.51 c 0.63 -155.96 1.27 -311.91 1.9 -467.87 c 0.54 -132.89 0.71 -269.73 -25.02 -393.05 c -4.55 -21.82 -10.07 -43.54 -18.91 -59.77 c -16.02 -29.43 -40.19 -36.18 -57.66 -62.39 c -31.29 -46.95 -31.15 -136.22 -29.48 -212.54 c 3.12 -141.8 1.67 -283.96 -4.34 -425.42 c -2.75 -64.8 -56.54 -53.11 -81.86 -53.78 c -20.05 -0.52 -44.29 -2.54 -62.2 18.12 c -19.2 22.14 -22.77 62.02 -24.73 101.78 c -3.58 72.78 -6.09 145.82 -9.14 218.69 c -3.29 78.84 -6.59 157.68 -9.88 236.51 Z" stroke-linecap="round"/>
</g>
		<g transform="matrix(1 0 0 1 322.0344 94.6729)" id="Layer_1">
<path style="stroke: rgb(0,0,0); stroke-width: 4; stroke-dasharray: none; stroke-linecap: butt; stroke-dashoffset: 0; stroke-linejoin: miter; stroke-miterlimit: 10; is-custom-font: none; font-file-url: none; fill: none; fill-rule: nonzero; opacity: 1;" transform=" translate(-749.2094, -1013.3579)" d="m 824.01 1875.87 c -98.4 40.71 -200.4 63.43 -302.76 67.43 c 9.63 -295.69 22.33 -591.17 38.09 -886.32 c 3.03 -56.72 7.77 -118.62 35.87 -158.68 c 22.93 -32.68 57.65 -44.61 79.2 -79.19 c 20.13 -32.31 25.08 -78.67 24.55 -122.04 c -0.53 -43.36 -5.61 -86.88 -1.83 -129.91 c 5.79 -65.89 32.02 -126.52 32.73 -192.93 c 1.19 -111.82 -69.83 -217.64 -44.48 -323.38 c 54.19 14.68 107.43 36.6 158.8 65.4 c 3.45 114.68 6.9 229.36 10.34 344.04 c 1.63 54.3 3.26 108.68 1.57 162.97 c -1.26 40.53 -4.37 81.42 0.22 121.45 c 4.59 40.03 18.28 80.22 42.77 100.41 c 14.65 12.07 32.34 16.45 45.29 32.03 c 22.88 27.53 22.26 77.3 20.72 120.12 c -10.57 295.07 27.59 591.92 4.54 885.52 c -1.14 14.56 -2.8 30.21 -9.93 40.67 c -16.08 23.56 -42.89 3.87 -64.08 -8.84 c -38.31 -22.98 -82.19 -17.83 -122.22 -2.01 c -40.02 15.82 -77.78 41.67 -117.29 59.97 c -5.53 2.56 -11.64 4.95 -17 1.74 c -4.57 -2.74 -7.58 -8.96 -10.33 -14.88 c -47.76 -102.6 -97.59 -216.26 -89.35 -339.12 c 6.68 -99.57 51.14 -187.92 57.06 -287.59 c 2.85 -47.98 -3.42 -95.96 -7.54 -143.76 c -7.15 -83.13 -7.77 -167.41 -1.84 -250.74" stroke-linecap="round"/>
</g>
</g>
</g>
</svg>