<svg xmlns="http://www.w3.org/2000/svg" xmlns:xlink="http://www.w3.org/1999/xlink" version="1.1" width="100" height="100" viewBox="0 0 100 100" xml:space="preserve">
<desc>Created with Fabric.js 3.5.0</desc>
<defs>
</defs>
<rect x="0" y="0" width="100%" height="100%" fill="rgba(255,255,255,0)"/>
<g transform="matrix(0.2305 0 0 0.2305 46.9068 49.788)" id="386643">
<g style="" vector-effect="non-scaling-stroke">
		<g transform="matrix(1 0 0 1 -70.3984 12.937)">
<path style="stroke: none; stroke-width: 1; stroke-dasharray: none; stroke-linecap: butt; stroke-dashoffset: 0; stroke-linejoin: miter; stroke-miterlimit: 4; is-custom-font: none; font-file-url: none; fill: rgb(255,239,207); fill-rule: nonzero; opacity: 0.5;" transform=" translate(-133.1016, -228.937)" d="M 91.328 127.328 L 202.762 161.745 L 145.966 330.546 L 63.4412 305.043 L 91.328 127.328 Z" stroke-linecap="round"/>
</g>
		<g transform="matrix(1 0 0 1 -75.9644 30.3)">
<path style="stroke: none; stroke-width: 1; stroke-dasharray: none; stroke-linecap: butt; stroke-dashoffset: 0; stroke-linejoin: miter; stroke-miterlimit: 4; is-custom-font: none; font-file-url: none; fill: rgb(213,165,55); fill-rule: nonzero; opacity: 0.95;" transform=" translate(-127.5356, -246.3)" d="M 85.8756 162.054 L 191.63 194.737 L 145.966 330.546 L 63.4412 305.043 L 85.8756 162.054 Z" stroke-linecap="round"/>
</g>
		<g transform="matrix(1 0 0 1 67.53 30.3)">
<path style="stroke: none; stroke-width: 1; stroke-dasharray: none; stroke-linecap: butt; stroke-dashoffset: 0; stroke-linejoin: miter; stroke-miterlimit: 4; is-custom-font: none; font-file-url: none; fill: rgb(255,239,207); fill-rule: nonzero; opacity: 0.5;" transform=" translate(-271.03, -246.3)" d="M 195.321 185.267 L 304.824 144.165 L 346.739 317.98 L 265.635 348.435 L 195.321 185.267 Z" stroke-linecap="round"/>
</g>
		<g transform="matrix(1 0 0 1 74.4025 47.2605)">
<path style="stroke: none; stroke-width: 1; stroke-dasharray: none; stroke-linecap: butt; stroke-dashoffset: 0; stroke-linejoin: miter; stroke-miterlimit: 4; is-custom-font: none; font-file-url: none; fill: rgb(213,165,55); fill-rule: nonzero; opacity: 0.95;" transform=" translate(-277.9025, -263.2605)" d="M 209.066 217.145 L 313.003 178.086 L 346.739 317.98 L 265.635 348.435 L 209.066 217.145 Z" stroke-linecap="round"/>
</g>
		<g transform="matrix(1 0 0 1 -62.0087 -97.0989)">
<path style="stroke: none; stroke-width: 1; stroke-dasharray: none; stroke-linecap: butt; stroke-dashoffset: 0; stroke-linejoin: miter; stroke-miterlimit: 4; is-custom-font: none; font-file-url: none; fill: rgb(255,239,207); fill-rule: nonzero; opacity: 1;" transform=" translate(-141.4914, -118.901)" d="M 147.045 114.763 C 143.637 116.248 140.684 124.419 138.809 123.738 C 136.935 123.057 135.231 120.519 135.402 118.291 C 135.572 116.062 137.73 114.824 138.014 114.577 C 138.298 114.329 150.396 113.339 146.988 114.824 L 147.045 114.763 Z" stroke-linecap="round"/>
</g>
		<g transform="matrix(1 0 0 1 -19.113 -80.3686)">
<path style="stroke: none; stroke-width: 1; stroke-dasharray: none; stroke-linecap: butt; stroke-dashoffset: 0; stroke-linejoin: miter; stroke-miterlimit: 4; is-custom-font: none; font-file-url: none; fill: rgb(255,239,207); fill-rule: nonzero; opacity: 1;" transform=" translate(-184.387, -135.6314)" d="M 186.291 134.942 C 186.234 136.489 185.95 138.408 184.473 138.47 C 182.997 138.532 182.315 137.294 182.315 135.685 C 182.315 134.075 183.792 133.951 185.382 133.085 C 186.972 132.218 186.348 133.394 186.291 134.942 Z" stroke-linecap="round"/>
</g>
		<g transform="matrix(1 0 0 1 24.4828 -78.1625)">
<path style="stroke: none; stroke-width: 1; stroke-dasharray: none; stroke-linecap: butt; stroke-dashoffset: 0; stroke-linejoin: miter; stroke-miterlimit: 4; is-custom-font: none; font-file-url: none; fill: rgb(255,239,207); fill-rule: nonzero; opacity: 0.6;" transform=" translate(-227.9828, -137.8375)" d="M 218.835 124.172 C 212.758 124.048 222.867 129.495 222.413 134.385 C 221.959 139.275 219.232 149.551 226.9 151.284 C 234.567 153.017 240.531 144.227 238.77 136.737 C 237.01 129.247 224.969 124.295 218.835 124.172 Z" stroke-linecap="round"/>
</g>
		<g transform="matrix(1 0 0 1 58.7769 -72.1476)">
<path style="stroke: none; stroke-width: 1; stroke-dasharray: none; stroke-linecap: butt; stroke-dashoffset: 0; stroke-linejoin: miter; stroke-miterlimit: 4; is-custom-font: none; font-file-url: none; fill: rgb(213,165,55); fill-rule: nonzero; opacity: 1;" transform=" translate(-262.2769, -143.8524)" d="M 262 141.937 C 263.306 142.556 264.897 143.484 264.442 145.032 C 264.045 146.518 262.681 146.889 261.262 146.27 C 259.842 145.651 260.296 144.165 260.069 142.246 C 259.842 140.327 260.694 141.38 262 141.999 V 141.937 Z" stroke-linecap="round"/>
</g>
		<g transform="matrix(1 0 0 1 -57.9981 -90.8606)">
<path style="stroke: none; stroke-width: 1; stroke-dasharray: none; stroke-linecap: butt; stroke-dashoffset: 0; stroke-linejoin: miter; stroke-miterlimit: 4; is-custom-font: none; font-file-url: none; fill: rgb(213,165,55); fill-rule: nonzero; opacity: 1;" transform=" translate(-145.5019, -125.1394)" d="M 146.818 124.481 C 146.818 125.966 146.534 127.885 145.568 127.947 C 144.602 128.009 144.091 126.771 144.091 125.162 C 144.091 123.552 145.114 123.49 146.193 122.624 C 147.272 121.757 146.818 122.933 146.818 124.481 Z" stroke-linecap="round"/>
</g>
</g>
</g>
</svg>