<svg width="144" height="158" viewBox="0 0 144 158" fill="none" xmlns="http://www.w3.org/2000/svg">
<path opacity="0.5" d="M32.3126 46.5693L71.7388 59.1568L51.6439 120.894L22.446 111.567L32.3126 46.5693Z" fill="#FFEFCF"/>
<path opacity="0.95" d="M30.3835 59.2695L67.8002 71.2231L51.6439 120.894L22.446 111.566L30.3835 59.2695Z" fill="#D5A537"/>
<path opacity="0.5" d="M69.1063 67.7591L107.849 52.7266L122.679 116.298L93.9838 127.436L69.1063 67.7591Z" fill="#FFEFCF"/>
<path opacity="0.95" d="M73.9692 79.4182L110.743 65.1328L122.679 116.298L93.9837 127.436L73.9692 79.4182Z" fill="#D5A537"/>
<path d="M52.0257 41.9733C50.82 42.5166 49.7751 45.505 49.112 45.256C48.4488 45.0069 47.846 44.0787 47.9063 43.2637C47.9666 42.4487 48.7302 41.9959 48.8306 41.9053C48.9311 41.8148 53.2113 41.4526 52.0056 41.9959L52.0257 41.9733Z" fill="#FFEFCF"/>
<path d="M65.9113 49.3542C65.8912 49.9202 65.7907 50.622 65.2682 50.6446C64.7458 50.6673 64.5046 50.2145 64.5046 49.6258C64.5046 49.0372 65.0271 48.9919 65.5898 48.675C66.1524 48.358 65.9314 48.7882 65.9113 49.3542Z" fill="#FFEFCF"/>
<g opacity="0.6">
<path d="M77.4257 45.4148C75.2755 45.3695 78.8524 47.3618 78.6916 49.1503C78.5309 50.9388 77.5663 54.697 80.2791 55.3309C82.9919 55.9648 85.1019 52.75 84.479 50.0106C83.856 47.2712 79.5959 45.4601 77.4257 45.4148Z" fill="#FFEFCF"/>
</g>
<path d="M92.6978 51.9124C93.16 52.1388 93.7226 52.4784 93.5619 53.0444C93.4212 53.5877 92.9389 53.7235 92.4365 53.4971C91.9342 53.2708 92.0949 52.7274 92.0145 52.0256C91.9342 51.3238 92.2356 51.7086 92.6978 51.935V51.9124Z" fill="#D5A537"/>
<path d="M51.9453 45.528C51.9453 46.0713 51.8448 46.7732 51.5032 46.7958C51.1616 46.8184 50.9807 46.3657 50.9807 45.777C50.9807 45.1884 51.3424 45.1658 51.7242 44.8488C52.106 44.5319 51.9453 44.962 51.9453 45.528Z" fill="#D5A537"/>
</svg>
